<?xml version="1.0" standalone="no"?>
<!DOCTYPE svg PUBLIC "-//W3C//DTD SVG 1.1//EN" "http://www.w3.org/Graphics/SVG/1.1/DTD/svg11.dtd" >
<svg xmlns="http://www.w3.org/2000/svg">
<metadata>
Created by FontPrep 20130207 at Tue Mar 31 16:06:05 2015
 By Paulo Fernandes
(c) 2003 Process Type Foundry. Designed by Eric Olson.
</metadata>
<defs>
<font id="5bea650159d623c92e27858b07db4864" horiz-adv-x='1024' >
  <font-face 
    font-family="Locator-Light"
    font-weight="300"
    font-stretch="normal"
    units-per-em="2048"
    panose-1="2 0 5 3 4 0 0 2 0 4"
    ascent="1638"
    descent="-410"
    x-height="997"
    cap-height="1364"
    bbox="-82 -520 2359 1745"
    underline-thickness="40"
    underline-position="-231"
    unicode-range="U+000D-FB02"
  />
<missing-glyph horiz-adv-x="450" 
 />
    <glyph glyph-name=".notdef" horiz-adv-x="450" 
 />
    <glyph glyph-name=".null" horiz-adv-x="0" 
 />
    <glyph glyph-name="nonmarkingreturn" unicode="&#xd;" horiz-adv-x="450" 
 />
    <glyph glyph-name="NULL" horiz-adv-x="0" 
 />
    <glyph glyph-name="NULL" horiz-adv-x="0" 
 />
    <glyph glyph-name="space" unicode=" " horiz-adv-x="450" 
 />
    <glyph glyph-name="exclam" unicode="!" horiz-adv-x="563" 
d="M205 0v193h153v-193h-153zM221 1364h121v-410l-31 -635h-59l-31 635v410z" />
    <glyph glyph-name="quotedbl" unicode="&#x22;" horiz-adv-x="823" 
d="M184 815v549h119v-549h-119zM520 815v549h119v-549h-119z" />
    <glyph glyph-name="numbersign" unicode="#" horiz-adv-x="1374" 
d="M541 840l-70 -303h385l70 303h-385zM1270 840h-242l-70 -303h242l-20 -93h-244l-102 -444h-103l103 444h-383l-103 -444h-102l102 444h-246l23 93h244l69 303h-243l20 94h246l98 430h103l-99 -430h385l99 430h102l-98 -430h241z" />
    <glyph glyph-name="dollar" unicode="$" horiz-adv-x="1222" 
d="M634 1282q-175 0 -257 -44t-82 -156t78 -176.5t241 -131.5t247.5 -111.5t166.5 -117t82 -219.5t-113.5 -242.5t-318.5 -103.5v-185h-96v185q-208 11 -449 106l31 96q267 -102 454 -102t280 65.5t93 173.5t-70.5 170.5t-248.5 137.5t-264 123.5t-159 119.5t-73 219
t105.5 218.5t314.5 76.5v201h96v-201q207 -9 379 -67l-20 -94q-242 59 -417 59z" />
    <glyph glyph-name="percent" unicode="%" horiz-adv-x="1705" 
d="M522 0h-94l725 1364h94zM639 1034q0 51 -14.5 99.5t-42 86t-68.5 60.5t-96.5 23t-96 -23t-68.5 -60.5t-42 -86t-14 -99.5t14 -99t42 -86t68.5 -60.5t96 -22.5t96.5 22.5t68.5 60.5t42 86t14.5 99zM1479 332q0 51 -14.5 99t-42 86t-68.5 60.5t-96.5 22.5t-96.5 -22.5
t-68.5 -60.5t-42 -86t-14.5 -99t14.5 -99.5t42 -86t68.5 -60.5t96.5 -23t96.5 23t68.5 60.5t42 86t14.5 99.5zM1573 331.5q0 -63.5 -21.5 -126t-61.5 -111.5t-98.5 -79.5t-134 -30.5t-134 30.5t-98.5 79.5t-61.5 111.5t-21.5 126t21.5 126t61.5 113t98.5 81t134 30.5
t134 -30.5t98.5 -81t61.5 -113t21.5 -126zM733 1034.5q0 -63.5 -21.5 -126t-61.5 -113t-98 -81t-134 -30.5t-134.5 30.5t-98.5 81t-61.5 113t-21.5 126t21.5 126t61.5 112.5t98.5 80.5t134.5 30.5t134 -30.5t98 -80.5t61.5 -112.5t21.5 -126z" />
    <glyph glyph-name="ampersand" unicode="&#x26;" horiz-adv-x="1308" 
d="M725 1143q0 68 -42 108.5t-113 40.5t-115.5 -35.5t-44.5 -109.5t43 -144.5t94 -136.5q178 115 178 277zM244 340q0 -119 78 -187.5t190 -68.5q203 0 365 170l-363 479q-228 -140 -249 -242t-21 -151zM123 336q0 207 118.5 314.5t215.5 166.5q-126 172 -140 232.5
t-14 97.5q0 111 68.5 174t195.5 63t195.5 -68.5t68.5 -167.5t-49 -187.5t-176 -169.5l342 -447q55 76 89 165t67 198l90 -25q-35 -169 -91 -273t-91 -149l198 -260h-139q-23 27 -59.5 76t-73.5 96q-178 -195 -430 -195q-152 0 -268.5 98.5t-116.5 260.5z" />
    <glyph glyph-name="quotesingle" unicode="'" horiz-adv-x="487" 
d="M184 815v549h119v-549h-119z" />
    <glyph glyph-name="parenleft" unicode="(" horiz-adv-x="677" 
d="M184 623q0 383 119 604t197 334l86 -60q-231 -360 -256 -564t-25 -376t62.5 -373t218.5 -444l-86 -59q-158 223 -237 449t-79 489z" />
    <glyph glyph-name="parenright" unicode=")" horiz-adv-x="677" 
d="M494 623q0 -262 -80 -488.5t-236 -449.5l-86 59q232 371 256.5 569.5t24.5 370.5t-60.5 367t-220.5 450l86 60q242 -351 279 -579t37 -359z" />
    <glyph glyph-name="asterisk" unicode="*" horiz-adv-x="983" 
d="M821 702l-297 197l29 -354h-123l29 354l-297 -197l-60 109l322 143l-322 144l60 108l297 -196l-29 354h123l-29 -354l297 196l60 -108l-322 -144l322 -143z" />
    <glyph glyph-name="plus" unicode="+" horiz-adv-x="1222" 
d="M664 440v-440h-103v440h-438v97h438v440h103v-440h436v-97h-436z" />
    <glyph glyph-name="comma" unicode="," horiz-adv-x="481" 
d="M154 0v193h153v-193l-74 -217h-67l72 217h-84z" />
    <glyph glyph-name="hyphen" unicode="-" horiz-adv-x="722" 
d="M113 500v114h497v-114h-497z" />
    <glyph glyph-name="period" unicode="." horiz-adv-x="501" 
d="M174 0v193h154v-193h-154z" />
    <glyph glyph-name="slash" unicode="/" horiz-adv-x="944" 
d="M229 -240h-106l592 1624h106z" />
    <glyph glyph-name="zero" unicode="0" horiz-adv-x="1214" 
d="M983 672q0 125 -21.5 231.5t-66.5 185t-116.5 123.5t-170 45t-170 -45t-118 -123.5t-68 -185t-21.5 -231.5t21.5 -232.5t68 -186.5t118 -124t170 -45t170 45t116.5 124t66.5 186.5t21.5 232.5zM1102 671.5q0 -145.5 -31 -272.5t-92 -220t-153.5 -147.5t-217.5 -54.5
t-218 54.5t-154.5 147.5t-92 220t-30.5 272.5t30.5 271.5t92 220t154.5 147.5t218 53.5t217.5 -53.5t153.5 -147.5t92 -220t31 -271.5z" />
    <glyph glyph-name="one" unicode="1" horiz-adv-x="780" 
d="M436 0v1239l-366 -65l-19 92l385 77h119v-1343h-119z" />
    <glyph glyph-name="two" unicode="2" horiz-adv-x="1191" 
d="M518 1364q160 0 248 -25.5t172 -94t84 -212.5q0 -145 -74 -244.5t-225 -191.5t-238.5 -152.5t-136.5 -111.5t-66.5 -103.5t-17.5 -122.5h780v-106h-901v94q0 172 90 279.5t314 240.5q225 134 290.5 218t65.5 196q0 229 -371 229q-144 0 -350 -55l-22 98q198 64 358 64z
" />
    <glyph glyph-name="three" unicode="3" horiz-adv-x="1138" 
d="M461 1364q137 0 219 -26.5t171 -98t89 -225.5q0 -84 -50 -165t-151 -128q121 -35 194 -128t73 -195q0 -185 -139.5 -303t-353.5 -118t-390 66l24 96q196 -55 362 -55q165 0 270.5 82t105.5 209t-93.5 205.5t-273.5 78.5h-225v103h225q136 0 219.5 71.5t83.5 183.5
t-89 176t-236 64t-314 -55l-26 96q168 66 305 66z" />
    <glyph glyph-name="four" unicode="4" horiz-adv-x="1191" 
d="M768 477v707l-563 -707h563zM887 371v-371h-119v371h-700v106l700 866h119v-866h223v-106h-223z" />
    <glyph glyph-name="five" unicode="5" horiz-adv-x="1220" 
d="M332 754q150 94 336 94t297.5 -113t111.5 -297t-132 -322.5t-354 -138.5t-433 101l32 92q168 -68 253 -77t160 -9t145.5 28.5t140 101.5t69.5 221t-81.5 227t-233.5 79q-80 0 -153.5 -20.5t-174.5 -81.5l-94 37l86 667h707v-106h-619z" />
    <glyph glyph-name="six" unicode="6" horiz-adv-x="1189" 
d="M844 648q-84 83 -235 83t-257 -87t-106 -224t90.5 -236.5t252.5 -99.5t250.5 97t88.5 241q0 143 -84 226zM612 840q194 0 314.5 -117t120.5 -295t-124 -314.5t-319 -136.5q-338 0 -409.5 217.5t-71.5 385.5t46 317.5t183 308t469 158.5q101 0 168 -21l-14 -100
q-105 14 -162 14q-259 0 -404.5 -157t-170.5 -436q131 176 374 176z" />
    <glyph glyph-name="seven" unicode="7" horiz-adv-x="1034" 
d="M113 1237v106h860v-106l-588 -1237h-123l590 1237h-739z" />
    <glyph glyph-name="eight" unicode="8" horiz-adv-x="1191" 
d="M897 1020q0 110 -84 175t-215 65t-215 -66t-84 -175t76 -183t223 -74t223 74t76 184zM598 659q-178 0 -272.5 -78.5t-94.5 -204.5t100 -209t266 -83t265 82t99 209t-92.5 205.5t-270.5 78.5zM1079 398q0 -98 -31.5 -170t-92 -127.5t-150.5 -89.5t-258.5 -34t-301 117.5
t-132.5 284.5q0 117 66.5 206t185.5 136q-86 49 -135.5 126t-49.5 160t31 146.5t86 110.5t132 73.5t215 26.5t255 -100t117 -250q0 -90 -49 -167t-136 -126q117 -47 182.5 -136t65.5 -187z" />
    <glyph glyph-name="nine" unicode="9" horiz-adv-x="1191" 
d="M854 1156.5q-90 100.5 -253 100.5t-251 -98.5t-88 -241.5q0 -142 84 -225.5t234 -83.5t257 86.5t107 224.5q0 137 -90 237.5zM578 502q-199 0 -317 123.5t-118 297.5t126.5 307.5t330.5 133.5t336.5 -149t132.5 -437q0 -379 -183 -590t-517 -211q-92 0 -166 21l12 98
q99 -12 197 -12t300 83.5t240 508.5q-129 -174 -374 -174z" />
    <glyph glyph-name="colon" unicode=":" horiz-adv-x="501" 
d="M174 0v193h154v-193h-154zM174 784v193h154v-193h-154z" />
    <glyph glyph-name="semicolon" unicode=";" horiz-adv-x="491" 
d="M164 784v193h153v-193h-153zM164 0v193h153v-193l-71 -217h-68l72 217h-86z" />
    <glyph glyph-name="less" unicode="&#x3c;" horiz-adv-x="1177" 
d="M72 463v76l972 477v-115l-827 -401l827 -400v-116z" />
    <glyph glyph-name="equal" unicode="=" horiz-adv-x="1120" 
d="M123 219v107h874v-107h-874zM123 598v107h874v-107h-874z" />
    <glyph glyph-name="greater" unicode="&#x3e;" horiz-adv-x="1177" 
d="M133 -23v117l828 406l-828 405v117l973 -483v-78z" />
    <glyph glyph-name="question" unicode="?" horiz-adv-x="1034" 
d="M395 0v190h154v-190h-154zM521 1384q200 0 295 -78t95 -222t-86 -294t-315 -423l-72 59q98 127 166 217t127.5 192.5t59.5 217.5q0 116 -60.5 170.5t-226.5 54.5t-361 -41l-20 96q198 51 398 51z" />
    <glyph glyph-name="at" unicode="@" horiz-adv-x="1505" 
d="M1073 682q0 115 -55.5 184.5t-157.5 69.5t-152.5 -69.5t-50.5 -184.5t50.5 -184.5t151.5 -69.5t157.5 69.5t56.5 184.5zM143 680q0 311 169 507.5t431 196.5q204 0 309 -109t105 -288v-627h-96v95q-74 -105 -206 -105t-208 99t-76 233t75.5 233t206.5 99t206 -92l-2 69
q-5 141 -76 224t-238 83q-228 0 -364.5 -172.5t-136.5 -444.5t178.5 -447t442.5 -175t534 97l26 -68q-259 -111 -555 -111t-452 142.5t-214.5 272.5t-58.5 288z" />
    <glyph glyph-name="A" unicode="A" 
d="M641 1214l-293 -733h588zM1128 0l-151 381h-670l-151 -381h-125l565 1364h90l567 -1364h-125z" />
    <glyph glyph-name="B" unicode="B" horiz-adv-x="1327" 
d="M1069 1006q0 131 -86 191t-225 60h-430v-501h422q219 0 269 92t50 158zM1112 373q0 125 -74.5 202.5t-228.5 77.5h-481v-547h485q135 0 217 71t82 196zM1235 402q0 -178 -111.5 -290t-302.5 -112h-616v1364h549q325 0 382.5 -135t57.5 -220t-54.5 -169t-160.5 -123
q131 -41 193.5 -130t62.5 -185z" />
    <glyph glyph-name="C" unicode="C" horiz-adv-x="1294" 
d="M838 -23q-170 0 -308.5 54.5t-237.5 149.5t-154.5 224.5t-55.5 353t207 424.5t545 201q198 0 327 -43l-20 -100q-156 37 -302 37q-145 0 -259.5 -43t-197.5 -121t-129 -187.5t-46 -309.5t175 -366.5t447 -166.5q160 0 308 37l24 -98q-153 -46 -323 -46z" />
    <glyph glyph-name="D" unicode="D" horiz-adv-x="1361" 
d="M1155 682q0 137 -56.5 244.5t-196.5 219t-406 111.5h-168v-1151h168q264 0 405 112t197.5 219.5t56.5 244.5zM1280 682q0 -147 -60.5 -272t-226.5 -267.5t-516 -142.5h-272v1364h272q350 0 516 -142.5t226.5 -267.5t60.5 -272z" />
    <glyph glyph-name="E" unicode="E" horiz-adv-x="1257" 
d="M205 0v1364h909v-107h-784v-497h733v-107h-733v-547h784v-106h-909z" />
    <glyph glyph-name="F" unicode="F" horiz-adv-x="1214" 
d="M330 1257v-497h739v-107h-739v-653h-125v1364h917v-107h-792z" />
    <glyph glyph-name="G" unicode="G" horiz-adv-x="1396" 
d="M82 686q0 306 203.5 502t545.5 196q209 0 355 -43l-19 -100q-170 37 -323 37q-293 0 -466 -160.5t-173 -429.5t176 -436.5t446 -167.5q153 0 295 31v487h111v-565q-190 -60 -376 -60q-187 0 -324.5 54.5t-237.5 149.5t-156.5 225t-56.5 280z" />
    <glyph glyph-name="H" unicode="H" horiz-adv-x="1433" 
d="M1104 0v651h-776v-651h-123v1364h123v-604h776v604h125v-1364h-125z" />
    <glyph glyph-name="I" unicode="I" horiz-adv-x="552" 
d="M215 0v1364h123v-1364h-123z" />
    <glyph glyph-name="J" unicode="J" horiz-adv-x="927" 
d="M743 391q0 -172 -100.5 -281.5t-286.5 -109.5h-243v106h239q132 0 200.5 78t68.5 207v866h-461v107h583v-973z" />
    <glyph glyph-name="K" unicode="K" horiz-adv-x="1275" 
d="M328 0h-123v1364h123v-608l702 608h168l-764 -662l811 -702h-168l-749 649v-649z" />
    <glyph glyph-name="L" unicode="L" horiz-adv-x="1105" 
d="M205 0v1364h123v-1258h716v-106h-839z" />
    <glyph glyph-name="M" unicode="M" horiz-adv-x="1671" 
d="M1348 0v1139l-474 -959h-77l-473 959v-1139h-119v1364h119l512 -1022l512 1022h118v-1364h-118z" />
    <glyph glyph-name="N" unicode="N" horiz-adv-x="1523" 
d="M324 0h-119v1364h119l874 -1171v1171h121v-1364h-121l-874 1174v-1174z" />
    <glyph glyph-name="O" unicode="O" horiz-adv-x="1511" 
d="M1276 680q0 129 -38 238.5t-106.5 189.5t-165 125t-211 45t-210.5 -45t-165 -125t-106.5 -189.5t-37.5 -238.5t37.5 -237.5t106.5 -188.5t165 -125t210.5 -45t211 45t165 125t106.5 188.5t38 237.5zM1399 680q0 -143 -47 -271t-131 -223.5t-203 -152t-262.5 -56.5
t-262 56.5t-202.5 152t-131 223.5t-47 271t47 271t131 224.5t202.5 152.5t262 56t262.5 -56t203 -152.5t131 -224.5t47 -271z" />
    <glyph glyph-name="P" unicode="P" horiz-adv-x="1288" 
d="M823 1257h-495v-579h495q137 0 214 81t77 208t-86.5 208.5t-204.5 81.5zM1126 692.5q-111 -117.5 -303 -117.5h-495v-575h-123v1364h618q189 0 301.5 -118t112.5 -277t-111 -276.5z" />
    <glyph glyph-name="Q" unicode="Q" horiz-adv-x="1513" 
d="M1278 682q0 129 -38 237.5t-106.5 188.5t-165 125t-211 45t-210.5 -45t-165 -125t-106.5 -188.5t-37.5 -237.5t37.5 -238.5t106.5 -189.5t165 -125t210.5 -45t211 45t165 125t106.5 189.5t38 238.5zM1401 686q0 -281 -162 -481.5t-420 -224.5v-363h-125v363
q-258 24 -419.5 225t-161.5 485q0 285 132 433.5t250.5 204.5t262 56t262.5 -56t203 -151.5t131 -223.5t47 -267z" />
    <glyph glyph-name="R" unicode="R" horiz-adv-x="1429" 
d="M821 1257h-493v-563h493q137 0 214 77t77 204t-84 204.5t-207 77.5zM328 592v-592h-123v1364h616q189 0 301.5 -114t112.5 -258t-79 -249.5t-224 -138.5l446 -604h-139l-436 592h-475z" />
    <glyph glyph-name="S" unicode="S" 
d="M676 1278q-203 0 -290 -44t-87 -151q0 -59 19.5 -100t68.5 -78t134 -74t222 -95t225.5 -107t135.5 -96.5t62.5 -97t15.5 -115.5t-35 -129.5t-138 -138.5t-351 -75t-525 109l31 98q262 -100 510 -100q174 0 279.5 67t105.5 168q0 100 -78.5 167.5t-343.5 169.5
q-266 102 -363.5 193.5t-97.5 235.5q0 299 494 299q238 0 473 -67l-21 -98q-243 59 -446 59z" />
    <glyph glyph-name="T" unicode="T" horiz-adv-x="1122" 
d="M623 1257v-1257h-123v1257h-469v107h1061v-107h-469z" />
    <glyph glyph-name="U" unicode="U" horiz-adv-x="1443" 
d="M1260 477q0 -207 -145 -353.5t-392.5 -146.5t-393 149t-145.5 351v887h125v-895q0 -181 114.5 -283t298.5 -102t299.5 108t115.5 277v895h123v-887z" />
    <glyph glyph-name="V" unicode="V" horiz-adv-x="1198" 
d="M645 0h-92l-543 1364h123l465 -1194l465 1194h125z" />
    <glyph glyph-name="W" unicode="W" horiz-adv-x="1763" 
d="M1346 0h-103l-362 1198l-363 -1198h-102l-396 1364h123l328 -1159l350 1159h119l350 -1159l328 1159h125z" />
    <glyph glyph-name="X" unicode="X" horiz-adv-x="1349" 
d="M1159 0l-483 594l-486 -594h-149l559 686l-555 678h152l479 -586l479 586h150l-555 -678l559 -686h-150z" />
    <glyph glyph-name="Y" unicode="Y" horiz-adv-x="1210" 
d="M668 0h-125v555l-553 809h135l481 -694l479 694h136l-553 -809v-555z" />
    <glyph glyph-name="Z" unicode="Z" horiz-adv-x="1316" 
d="M123 0v106l942 1151h-913v107h1060v-107l-944 -1151h946v-106h-1091z" />
    <glyph glyph-name="bracketleft" unicode="[" horiz-adv-x="591" 
d="M205 -258v1876h346v-107h-227v-1663h227v-106h-346z" />
    <glyph glyph-name="backslash" unicode="\" horiz-adv-x="944" 
d="M715 -240l-592 1624h106l592 -1624h-106z" />
    <glyph glyph-name="bracketright" unicode="]" horiz-adv-x="591" 
d="M41 -258v106h227v1663h-227v107h346v-1876h-346z" />
    <glyph glyph-name="asciicircum" unicode="^" horiz-adv-x="935" 
d="M756 670l-287 553l-287 -553h-110l366 694h60l366 -694h-108z" />
    <glyph glyph-name="underscore" unicode="_" horiz-adv-x="888" 
d="M-2 -90v67h893v-67h-893z" />
    <glyph glyph-name="grave" unicode="`" horiz-adv-x="614" 
d="M369 1128l-236 248h141l197 -248h-102z" />
    <glyph glyph-name="a" unicode="a" horiz-adv-x="1009" 
d="M217 268q0 -178 215 -178q152 0 239 77t87 212v74h-328q-113 0 -163 -44t-50 -141zM758 125q-96 -141 -346 -141q-132 0 -223 72.5t-91 213.5t83 215t241 74h336v115q0 235 -291 235q-127 0 -303 -30l-17 98q155 39 343 39t287.5 -93.5t99.5 -240.5v-682h-119v125z" />
    <glyph glyph-name="b" unicode="b" horiz-adv-x="1163" 
d="M380 791.5q-85 -117.5 -85 -292.5t85.5 -292t237.5 -117t238 115.5t86 294t-85.5 294t-238.5 115.5t-238 -117.5zM295 815q107 201 327 201t329.5 -154.5t109.5 -363t-111.5 -361.5t-329.5 -153t-325 200v-184h-121v1364h121v-549z" />
    <glyph glyph-name="c" unicode="c" horiz-adv-x="966" 
d="M620 -16q-125 0 -220 39.5t-160.5 109.5t-101.5 164t-36 259t139 312.5t373 147.5q135 0 250 -39l-20 -98q-96 30 -207 30q-112 0 -188 -29.5t-126.5 -84t-76 -129t-25.5 -214t104 -251t302 -111.5q100 0 217 31l20 -101q-119 -36 -244 -36z" />
    <glyph glyph-name="d" unicode="d" horiz-adv-x="1163" 
d="M870 499q0 83 -20.5 157.5t-61 131t-101 89t-140.5 32.5t-140.5 -32.5t-101.5 -88t-61.5 -130t-20.5 -158.5t20.5 -159t61.5 -130t101.5 -88t140.5 -33t140.5 33t101 89t61 130t20.5 157zM870 1364h119v-1364h-119v184q-106 -200 -324 -200t-331 153.5t-113 361
t111 362.5t331 155t326 -201v549z" />
    <glyph glyph-name="e" unicode="e" horiz-adv-x="1101" 
d="M559.5 909q-147.5 0 -234.5 -95t-104 -255h656q-12 160 -91 255t-226.5 95zM98 496q0 222 126 371t335 149t324.5 -148t115.5 -368v-43h-778q16 -180 117.5 -273.5t275.5 -93.5q130 0 304 43l24 -98q-162 -51 -305 -51q-260 0 -399.5 145t-139.5 367z" />
    <glyph glyph-name="f" unicode="f" horiz-adv-x="667" 
d="M500 1313q-146 0 -146 -201v-115h232v-98h-232v-899h-118v899h-154v98h154v109q0 168 80.5 238.5t176.5 70.5t164 -20l-16 -97q-67 15 -141 15z" />
    <glyph glyph-name="g" unicode="g" horiz-adv-x="1142" 
d="M860 512q0 184 -86 290.5t-247 106.5t-237.5 -110t-76.5 -287q0 -278 115.5 -336.5t199.5 -58.5q160 0 246 105.5t86 289.5zM502 -268q195 0 276.5 86t81.5 262v129q-51 -96 -141 -147.5t-202 -51.5t-191.5 41t-132 110.5t-77 161t-24.5 248t107 301t319 144.5
q111 0 201 -52.5t141 -148.5v182h119v-919q0 -211 -115.5 -330t-351.5 -119q-186 0 -334 60l25 92q176 -49 299 -49z" />
    <glyph glyph-name="h" unicode="h" horiz-adv-x="1157" 
d="M864 0v653q0 129 -56 189.5t-186 60.5t-229.5 -108.5t-99.5 -288.5v-506h-119v1364h119v-553q53 92 143 148.5t207 56.5q170 0 255 -97.5t85 -256.5v-662h-119z" />
    <glyph glyph-name="i" unicode="i" horiz-adv-x="466" 
d="M174 1163v201h119v-201h-119zM174 0v997h119v-997h-119z" />
    <glyph glyph-name="j" unicode="j" horiz-adv-x="501" 
d="M219 1163v201h119v-201h-119zM91 -268q128 0 128 178v1087h119v-1079q0 -147 -65.5 -218t-186.5 -71q-76 0 -147 21l16 96q67 -14 136 -14z" />
    <glyph glyph-name="k" unicode="k" horiz-adv-x="985" 
d="M295 0h-121v1364h121v-784l469 417h166l-551 -483l586 -514h-164l-506 449v-449z" />
    <glyph glyph-name="l" unicode="l" horiz-adv-x="608" 
d="M420 -12q-115 0 -185.5 64.5t-70.5 209.5v1102h119v-1108q0 -90 35.5 -128t109.5 -38h88v-102h-96z" />
    <glyph glyph-name="m" unicode="m" horiz-adv-x="1814" 
d="M635 1016q245 0 317 -211q55 96 149.5 153.5t211.5 57.5q170 0 254 -97.5t84 -256.5v-662h-121v653q0 129 -54.5 189.5t-182.5 60.5t-224 -107t-96 -288v-508h-121v653q0 129 -54.5 189.5t-182.5 60.5t-224 -108.5t-96 -288.5v-506h-121v997h121v-186q53 92 138 148.5
t202 56.5z" />
    <glyph glyph-name="n" unicode="n" horiz-adv-x="1148" 
d="M866 0v653q0 129 -57 189.5t-187 60.5t-228.5 -109t-98.5 -288v-506h-121v997h121v-186q53 92 142 148.5t206 56.5q170 0 256 -97.5t86 -256.5v-662h-119z" />
    <glyph glyph-name="o" unicode="o" horiz-adv-x="1134" 
d="M913 500q0 92 -24.5 166.5t-68.5 129t-108.5 84t-144.5 29.5t-143.5 -29.5t-108.5 -84t-68.5 -129t-23.5 -166.5t23.5 -167t68.5 -129t108.5 -84t143.5 -30t144.5 30t108.5 84t68.5 129t24.5 167zM1032 499.5q0 -104.5 -31.5 -197.5t-92 -163.5t-146.5 -112.5t-194.5 -42
t-195.5 42t-146.5 112.5t-91.5 163.5t-32 197.5t32 198t91.5 164t146.5 112.5t195.5 42t194.5 -42t146.5 -112.5t92 -164t31.5 -198z" />
    <glyph glyph-name="p" unicode="p" horiz-adv-x="1163" 
d="M380 791.5q-85 -117.5 -85 -292.5t85.5 -292t237.5 -117t238 115.5t86 294t-85.5 294t-238.5 115.5t-238 -117.5zM295 815q107 201 325 201t329.5 -154t111.5 -362t-110 -362t-330 -154t-326 200v-538h-121v1351h121v-182z" />
    <glyph glyph-name="q" unicode="q" horiz-adv-x="1163" 
d="M868 499q0 83 -20.5 157.5t-61.5 131t-101 89t-140 32.5t-140.5 -32.5t-101.5 -88t-61.5 -130t-20.5 -158.5t20.5 -159t61.5 -130t101.5 -88t140.5 -33t140 33t101 89t61.5 130t20.5 157zM868 997h121v-1351h-121v538q-106 -200 -327 -200q-220 0 -329.5 155t-109.5 361
t111 361t330 155t325 -201v182z" />
    <glyph glyph-name="r" unicode="r" horiz-adv-x="702" 
d="M662 899q-153 0 -260 -120t-107 -279v-500h-121v997h121v-213q87 157 198 194.5t169 37.5v-117z" />
    <glyph glyph-name="s" unicode="s" horiz-adv-x="929" 
d="M309.5 875.5q-55.5 -33.5 -55.5 -102.5t44.5 -109t168.5 -91q237 -97 304 -157.5t67 -173.5t-100.5 -185.5t-278.5 -72.5q-90 0 -188.5 25.5t-168.5 64.5l33 92q161 -76 300 -76q284 0 284 162q0 35 -11.5 58.5t-51.5 51.5t-185 87t-198.5 91.5t-95.5 83.5t-42 162
t99 170.5t252 59.5t309 -47l-19 -97q-153 37 -282 37t-184.5 -33.5z" />
    <glyph glyph-name="t" unicode="t" horiz-adv-x="659" 
d="M421 -16q-92 0 -152 61t-60 217v629h-137v106h137v283h121v-283h205v-106h-205v-635q0 -102 27.5 -138t82.5 -36t121 12l17 -90q-65 -20 -157 -20z" />
    <glyph glyph-name="u" unicode="u" horiz-adv-x="1138" 
d="M846 0v188q-53 -92 -143.5 -148t-206.5 -56q-170 0 -256 96t-86 256v661h120v-651q0 -129 56.5 -190.5t185.5 -61.5t229.5 110t100.5 288v505h119v-997h-119z" />
    <glyph glyph-name="v" unicode="v" horiz-adv-x="933" 
d="M526 0h-118l-398 997h121l336 -870l338 870h119z" />
    <glyph glyph-name="w" unicode="w" horiz-adv-x="1374" 
d="M1044 0h-110l-246 827l-248 -827h-110l-324 997h117l264 -831l244 831h110l248 -819l264 819h115z" />
    <glyph glyph-name="x" unicode="x" horiz-adv-x="1013" 
d="M827 0l-321 418l-324 -418h-131l391 504l-381 493h136l309 -409l313 409h133l-381 -493l392 -504h-136z" />
    <glyph glyph-name="y" unicode="y" horiz-adv-x="937" 
d="M383 -354h-115l144 354l-408 997h121l336 -870l338 870h119z" />
    <glyph glyph-name="z" unicode="z" horiz-adv-x="1058" 
d="M113 0v106l663 785h-616v106h760v-106l-662 -785h678v-106h-823z" />
    <glyph glyph-name="braceleft" unicode="{" horiz-adv-x="495" 
d="M309 496v-584q0 -111 94 -111h82v-94h-82q-106 0 -159.5 60.5t-53.5 156.5v586q0 102 -86 102h-32v103h32q86 0 86 102v586q0 96 53.5 155.5t159.5 59.5h82v-94h-82q-94 0 -94 -111v-584q0 -78 -34.5 -119.5t-114.5 -45.5q149 -7 149 -168z" />
    <glyph glyph-name="bar" unicode="|" horiz-adv-x="550" 
d="M225 -410v2048h103v-2048h-103z" />
    <glyph glyph-name="braceright" unicode="}" horiz-adv-x="495" 
d="M305 817q0 -102 86 -102h33v-103h-33q-86 0 -86 -102v-586q0 -96 -53 -156.5t-160 -60.5h-82v94h82q94 0 94 111v584q0 76 34 119.5t114 48.5q-80 4 -114 46t-34 119v584q0 111 -94 111h-82v94h82q106 0 159.5 -59.5t53.5 -155.5v-586z" />
    <glyph glyph-name="asciitilde" unicode="~" horiz-adv-x="1009" 
d="M678 358q-55 0 -102.5 24t-88.5 53.5t-80.5 53t-79.5 23.5q-65 0 -105 -45.5t-77 -122.5l-84 47q59 152 137 189.5t134 37.5t102.5 -24.5t87.5 -54t79.5 -54t96.5 -24.5t99 52t69 118l82 -43q-60 -154 -137.5 -192t-132.5 -38z" />
    <glyph glyph-name="nonbreakingspace" unicode="&#xa0;" horiz-adv-x="552" 
 />
    <glyph glyph-name="exclamdown" unicode="&#xa1;" horiz-adv-x="563" 
d="M205 1171v193h153v-193h-153zM221 0v410l31 634h59l31 -634v-410h-121z" />
    <glyph glyph-name="cent" unicode="&#xa2;" horiz-adv-x="968" 
d="M223 500q0 -172 90 -284t273 -124v815q-182 -12 -272.5 -123.5t-90.5 -283.5zM633 -174h-47v158q-219 12 -351.5 156.5t-132.5 359t133.5 359.5t350.5 157v174h47v-174q146 -6 233 -35l-20 -98q-138 26 -213 26v-819q76 0 213 27l20 -99q-91 -29 -233 -34v-158z" />
    <glyph glyph-name="sterling" unicode="&#xa3;" horiz-adv-x="1320" 
d="M1147 106v-106h-971v106h115q97 271 80 469h-207v103h186q-41 78 -80 166t-39 177q0 165 127.5 264t350.5 99t430 -69l-25 -92q-206 55 -391 55q-373 0 -373 -244q0 -80 34 -165t85 -191h440v-103h-417q14 -191 -82 -469h737z" />
    <glyph glyph-name="currency" unicode="&#xa4;" horiz-adv-x="1482" 
d="M61 494v86h218q-9 56 -9 103q0 46 6 95h-215v86h234q62 227 258.5 373.5t468.5 146.5q196 0 328 -47l-17 -98q-200 39 -314 39q-228 0 -387.5 -113t-211.5 -301h438v-86h-457q-8 -46 -8 -98t8 -100h457v-86h-438q54 -189 215 -299.5t358 -110.5t340 39l17 -98
q-159 -48 -311 -48q-286 0 -484 145.5t-260 371.5h-234z" />
    <glyph glyph-name="yen" unicode="&#xa5;" horiz-adv-x="1212" 
d="M1044 768v-90h-290l-86 -123v-94h376v-90h-376v-371h-123v371h-375v90h375v94l-84 123h-291v90h229l-409 596h137l479 -694l481 694h136l-408 -596h229z" />
    <glyph glyph-name="brokenbar" unicode="&#xa6;" horiz-adv-x="550" 
d="M225 -410v871h103v-871h-103zM225 768v870h103v-870h-103z" />
    <glyph glyph-name="section" unicode="&#xa7;" horiz-adv-x="1062" 
d="M748 628q-65 44 -281 130q-78 -31 -134.5 -86.5t-56.5 -131.5t56.5 -126t162 -92.5t121.5 -49.5q74 24 135.5 94.5t61.5 143.5q0 74 -65 118zM341 1223q-65 -39 -65 -117t54 -128t196 -107q265 -105 344.5 -177.5t79.5 -192.5q0 -121 -78.5 -193t-121.5 -99
q117 -64 158.5 -120.5t41.5 -137.5q0 -152 -119 -236t-295 -84q-177 0 -286 40t-148 63l39 110q198 -90 350 -90q322 0 322 187q0 78 -61.5 118.5t-223.5 107.5q-163 67 -224.5 103.5t-113 95t-51.5 179.5q0 148 199 270q-116 65 -157.5 131t-41.5 152q0 149 112 217.5
t290 68.5q177 0 360 -53l-22 -110q-190 41 -331 41q-142 0 -207 -39z" />
    <glyph glyph-name="dieresis" unicode="&#xa8;" horiz-adv-x="768" 
d="M143 1149v178h138v-178h-138zM487 1149v178h138v-178h-138z" />
    <glyph glyph-name="copyright" unicode="&#xa9;" horiz-adv-x="1570" 
d="M841 332q-87 0 -157 27.5t-120 74.5t-77.5 111.5t-27.5 176.5t106 214t271 102q97 0 163 -22l-8 -51q-82 20 -153 20q-72 0 -130.5 -21.5t-99.5 -61.5t-64.5 -95t-23.5 -155.5t87 -183.5t227 -83q83 0 157 18l8 -49q-71 -22 -158 -22zM1430 682q0 131 -49.5 248
t-135.5 205t-203.5 139t-255 51t-255 -51t-204.5 -139t-136.5 -205t-49.5 -248t49.5 -248t135.5 -205t203.5 -140t255 -52t255 52t204.5 140t136.5 205t49.5 248zM1489 682q0 -145 -55.5 -273t-151.5 -224.5t-224 -152t-273.5 -55.5t-273.5 55.5t-223 152t-150.5 224.5
t-55.5 273t55.5 273t151.5 223.5t224 150.5t273.5 55t273.5 -55t223 -150.5t150.5 -223.5t55.5 -273z" />
    <glyph glyph-name="ordfeminine" unicode="&#xaa;" horiz-adv-x="753" 
d="M190 899q0 -117 142 -117q98 0 154.5 50.5t56.5 138.5v47h-213q-72 0 -106 -27.5t-34 -91.5zM543 805q-65 -92 -225 -92q-86 0 -145.5 48t-59.5 140q0 186 211 186h219v76q0 68 -41 110t-140 42t-204 -19l-11 64q94 24 219 24t190 -60t65 -157v-442h-78v80z" />
    <glyph glyph-name="guillemotleft" unicode="&#xab;" horiz-adv-x="1159" 
d="M911 0l-469 500l467 497l66 -59l-414 -438l414 -439zM539 0l-467 500l467 497l65 -59l-414 -438l414 -439z" />
    <glyph glyph-name="logicalnot" unicode="&#xac;" horiz-adv-x="1032" 
d="M725 0v453h-643v84h745v-537h-102z" />
    <glyph glyph-name="registered" unicode="&#xae;" horiz-adv-x="1570" 
d="M989 835.5q0 65.5 -43 103.5t-102 38h-248v-283h248q70 0 107.5 38t37.5 103.5zM596 643v-297h-64v686h312q95 0 152 -59t57 -131t-40 -124t-114 -69l223 -303h-67l-221 297h-238zM1430 682q0 131 -49.5 248t-136.5 205t-204.5 139t-255 51t-255 -51t-203.5 -139
t-135.5 -205t-49.5 -248t49.5 -248t135.5 -205t203.5 -140t255 -52t255 52t204.5 140t136.5 205t49.5 248zM1489 682q0 -145 -55.5 -273t-151.5 -224.5t-224 -152t-273.5 -55.5t-273.5 55.5t-223 152t-150.5 224.5t-55.5 273t55.5 273t150.5 223.5t223 150.5t273.5 55
t273.5 -55t224 -150.5t151.5 -223.5t55.5 -273z" />
    <glyph glyph-name="macron" unicode="&#xaf;" horiz-adv-x="677" 
d="M102 1270v73h473v-73h-473z" />
    <glyph glyph-name="degree" unicode="&#xb0;" horiz-adv-x="667" 
d="M465 1295.5q-53 58.5 -133 58.5t-131 -59t-51 -131.5t50.5 -131.5t131.5 -59q80 0 133 58.5t53 132t-53 132zM491 1006q-64 -66 -157 -66t-157 65.5t-64 157.5q0 93 64 157t157 64t157 -65t64 -156t-64 -157z" />
    <glyph glyph-name="plusminus" unicode="&#xb1;" horiz-adv-x="1222" 
d="M123 0v94h436v346h-436v97h436v440h103v-440h438v-97h-438v-346h438v-94h-977z" />
    <glyph glyph-name="twosuperior" unicode="&#xb2;" horiz-adv-x="1363" 
d="M0 342v340h340v-340h-340zM0 1024v340h340v-340h-340zM1364 1024v-342h-342v342h-340v340h340v-340h342zM340 342h342v-342h-342v342zM340 1024h342v-342h-342v342zM682 342v340h340v-340h-340zM1022 342h342v-342h-342v342z" />
    <glyph glyph-name="threesuperior" unicode="&#xb3;" horiz-adv-x="1363" 
d="M0 342v340h340v-340h-340zM0 1024v340h340v-340h-340zM1364 1024v-342h-342v342h-340v340h340v-340h342zM340 342h342v-342h-342v342zM340 1024h342v-342h-342v342zM682 342v340h340v-340h-340zM1022 342h342v-342h-342v342z" />
    <glyph glyph-name="acute" unicode="&#xb4;" horiz-adv-x="614" 
d="M246 1128h-103l197 248h141z" />
    <glyph glyph-name="mu" unicode="&#xb5;" horiz-adv-x="1138" 
d="M846 0v188q-53 -92 -143.5 -148t-216.5 -56t-212 65v-403h-120v1351h120v-653q0 -129 56.5 -189.5t185.5 -60.5t229.5 110t100.5 288v505h119v-997h-119z" />
    <glyph glyph-name="paragraph" unicode="&#xb6;" horiz-adv-x="847" 
d="M555 0v1292h-158v-1292h-90v848q-103 0 -179.5 75t-76.5 182t76 183t180 76h336v-1364h-88z" />
    <glyph glyph-name="periodcentered" unicode="&#xb7;" horiz-adv-x="501" 
d="M174 573v193h154v-193h-154z" />
    <glyph glyph-name="cedilla" unicode="&#xb8;" horiz-adv-x="610" 
d="M260 -455q160 0 160 96.5t-45 127t-108 30.5t-109 -10l49 211h67l-38 -147q27 4 32 4h43q92 0 144.5 -47.5t52.5 -132.5t-59.5 -141t-161.5 -56t-185 33l15 53q69 -21 143 -21z" />
    <glyph glyph-name="onesuperior" unicode="&#xb9;" horiz-adv-x="1363" 
d="M0 342v340h340v-340h-340zM0 1024v340h340v-340h-340zM1364 1024v-342h-342v342h-340v340h340v-340h342zM340 342h342v-342h-342v342zM340 1024h342v-342h-342v342zM682 342v340h340v-340h-340zM1022 342h342v-342h-342v342z" />
    <glyph glyph-name="ordmasculine" unicode="&#xba;" horiz-adv-x="788" 
d="M621 1048.5q0 118.5 -60.5 192.5t-165 74t-165 -74t-60.5 -192.5t60.5 -192.5t165 -74t165 74t60.5 192.5zM696 1048.5q0 -139.5 -81 -236.5t-219 -97q-137 0 -220.5 96t-83.5 237.5t84.5 238.5t219.5 97q136 0 218 -98t82 -237.5z" />
    <glyph glyph-name="guillemotright" unicode="&#xbb;" horiz-adv-x="1159" 
d="M248 0l-64 61l414 439l-414 438l66 59l467 -497zM621 0l-66 61l414 439l-414 438l66 59l466 -497z" />
    <glyph glyph-name="onequarter" unicode="&#xbc;" horiz-adv-x="1363" 
d="M0 342v340h340v-340h-340zM0 1024v340h340v-340h-340zM1364 1024v-342h-342v342h-340v340h340v-340h342zM340 342h342v-342h-342v342zM340 1024h342v-342h-342v342zM682 342v340h340v-340h-340zM1022 342h342v-342h-342v342z" />
    <glyph glyph-name="onehalf" unicode="&#xbd;" horiz-adv-x="1363" 
d="M0 342v340h340v-340h-340zM0 1024v340h340v-340h-340zM1364 1024v-342h-342v342h-340v340h340v-340h342zM340 342h342v-342h-342v342zM340 1024h342v-342h-342v342zM682 342v340h340v-340h-340zM1022 342h342v-342h-342v342z" />
    <glyph glyph-name="threequarters" unicode="&#xbe;" horiz-adv-x="1363" 
d="M0 342v340h340v-340h-340zM0 1024v340h340v-340h-340zM1364 1024v-342h-342v342h-340v340h340v-340h342zM340 342h342v-342h-342v342zM340 1024h342v-342h-342v342zM682 342v340h340v-340h-340zM1022 342h342v-342h-342v342z" />
    <glyph glyph-name="questiondown" unicode="&#xbf;" horiz-adv-x="1034" 
d="M485 1174v190h154v-190h-154zM123 281q0 142 82 284t319 432l72 -59q-218 -287 -266.5 -369t-67 -143t-18.5 -146t60.5 -139.5t231.5 -54.5t355 41l20 -96q-199 -51 -399 -51q-389 0 -389 301z" />
    <glyph glyph-name="Agrave" unicode="&#xc0;" 
d="M586 1481l-238 248h141l199 -248h-102zM641 1214l-293 -733h588zM1128 0l-151 381h-670l-151 -381h-125l565 1364h90l567 -1364h-125z" />
    <glyph glyph-name="Aacute" unicode="&#xc1;" 
d="M715 1481h-103l197 248h141zM641 1214l-293 -733h588zM1128 0l-151 381h-670l-151 -381h-125l565 1364h90l567 -1364h-125z" />
    <glyph glyph-name="Acircumflex" unicode="&#xc2;" 
d="M807 1481l-164 180l-164 -180h-102l205 248h123l204 -248h-102zM641 1214l-293 -733h588zM1128 0l-151 381h-670l-151 -381h-125l565 1364h90l567 -1364h-125z" />
    <glyph glyph-name="Atilde" unicode="&#xc3;" 
d="M542 1567q-41 0 -87 -86l-80 37q25 53 68 95t93 42t77.5 -12.5t52 -25.5t46 -25.5t50.5 -12.5q44 0 86 88l82 -35q-71 -139 -176 -139q-49 0 -94.5 25.5t-67.5 37t-50 11.5zM641 1214l-293 -733h588zM1128 0l-151 381h-670l-151 -381h-125l565 1364h90l567 -1364h-125z
" />
    <glyph glyph-name="Adieresis" unicode="&#xc4;" 
d="M401 1487v178h138v-178h-138zM745 1487v178h138v-178h-138zM641 1214l-293 -733h588zM1128 0l-151 381h-670l-151 -381h-125l565 1364h90l567 -1364h-125z" />
    <glyph glyph-name="Aring" unicode="&#xc5;" 
d="M748 1595q0 43 -31 73t-75 30t-72.5 -30t-28.5 -73t28.5 -73.5t72.5 -30.5t75 30.5t31 73.5zM793 1595.5q0 -63.5 -43 -107.5t-106.5 -44t-106.5 44t-43 107.5t43 106.5t106.5 43t106.5 -43t43 -106.5zM641 1214l-293 -733h588zM1128 0l-151 381h-670l-151 -381h-125
l565 1364h90l567 -1364h-125z" />
    <glyph glyph-name="AE" unicode="&#xc6;" horiz-adv-x="1726" 
d="M643 1214l-295 -733h502zM1583 1364v-107h-856l147 -497h658v-107h-627l160 -547h518v-106h-596l-108 381h-572l-151 -381h-125l567 1364h985z" />
    <glyph glyph-name="Ccedilla" unicode="&#xc7;" horiz-adv-x="1294" 
d="M757 -455q161 0 161 96.5t-45.5 127t-107.5 30.5t-110 -10l45 199q-276 40 -447 232t-171 477t207 486t545 201q198 0 327 -43l-20 -100q-156 37 -302 37q-145 0 -259.5 -43t-197.5 -121t-129 -187.5t-46 -309.5t175 -366.5t447 -166.5q160 0 308 37l24 -98
q-152 -46 -327 -46h-26q-26 0 -42 3l-33 -127q27 4 31 4h45q92 0 144.5 -47.5t52.5 -132.5t-60 -141t-162 -56t-184 33l14 53q68 -21 143 -21z" />
    <glyph glyph-name="Egrave" unicode="&#xc8;" horiz-adv-x="1257" 
d="M627 1481l-238 248h141l199 -248h-102zM205 0v1364h909v-107h-784v-497h733v-107h-733v-547h784v-106h-909z" />
    <glyph glyph-name="Eacute" unicode="&#xc9;" horiz-adv-x="1257" 
d="M692 1481h-102l196 248h142zM205 0v1364h909v-107h-784v-497h733v-107h-733v-547h784v-106h-909z" />
    <glyph glyph-name="Ecircumflex" unicode="&#xca;" horiz-adv-x="1257" 
d="M813 1481l-164 180l-164 -180h-102l205 248h123l204 -248h-102zM205 0v1364h909v-107h-784v-497h733v-107h-733v-547h784v-106h-909z" />
    <glyph glyph-name="Edieresis" unicode="&#xcb;" horiz-adv-x="1257" 
d="M428 1487v178h137v-178h-137zM772 1487v178h137v-178h-137zM205 0v1364h909v-107h-784v-497h733v-107h-733v-547h784v-106h-909z" />
    <glyph glyph-name="Igrave" unicode="&#xcc;" horiz-adv-x="552" 
d="M236 1481l-236 248h141l197 -248h-102zM215 0v1364h123v-1364h-123z" />
    <glyph glyph-name="Iacute" unicode="&#xcd;" horiz-adv-x="552" 
d="M324 1481h-105l197 248h143zM215 0v1364h123v-1364h-123z" />
    <glyph glyph-name="Icircumflex" unicode="&#xce;" horiz-adv-x="552" 
d="M440 1481l-164 180l-163 -180h-103l205 248h123l205 -248h-103zM215 0v1364h123v-1364h-123z" />
    <glyph glyph-name="Idieresis" unicode="&#xcf;" horiz-adv-x="552" 
d="M35 1487v178h137v-178h-137zM379 1487v178h139v-178h-139zM215 0v1364h123v-1364h-123z" />
    <glyph glyph-name="Eth" unicode="&#xd0;" horiz-adv-x="1413" 
d="M1206 682q0 263 -197 419t-462 156h-168v-524h305v-102h-305v-525h168q264 0 461.5 156.5t197.5 419.5zM1331 682q0 -147 -60.5 -272t-226.5 -267.5t-516 -142.5h-272v631h-154v102h154v631h272q350 0 516 -142.5t226.5 -267.5t60.5 -272z" />
    <glyph glyph-name="Ntilde" unicode="&#xd1;" horiz-adv-x="1523" 
d="M848 1493q-50 0 -94.5 25.5t-66 37t-50.5 11.5q-42 0 -88 -86l-80 37q25 53 69 95t93 42t76.5 -12.5t52 -25.5t46 -25.5t50.5 -12.5q44 0 86 88l82 -35q-71 -139 -176 -139zM324 0h-119v1364h119l874 -1171v1171h121v-1364h-121l-874 1174v-1174z" />
    <glyph glyph-name="Ograve" unicode="&#xd2;" horiz-adv-x="1511" 
d="M690 1481l-237 248h141l199 -248h-103zM1276 680q0 129 -38 238.5t-106.5 189.5t-165 125t-211 45t-210.5 -45t-165 -125t-106.5 -189.5t-37.5 -238.5t37.5 -237.5t106.5 -188.5t165 -125t210.5 -45t211 45t165 125t106.5 188.5t38 237.5zM1399 680q0 -143 -47 -271
t-131 -223.5t-203 -152t-262.5 -56.5t-262 56.5t-202.5 152t-131 223.5t-47 271t47 271t131 224.5t202.5 152.5t262 56t262.5 -56t203 -152.5t131 -224.5t47 -271z" />
    <glyph glyph-name="Oacute" unicode="&#xd3;" horiz-adv-x="1511" 
d="M811 1481h-104l196 248h144zM1276 680q0 129 -38 238.5t-106.5 189.5t-165 125t-211 45t-210.5 -45t-165 -125t-106.5 -189.5t-37.5 -238.5t37.5 -237.5t106.5 -188.5t165 -125t210.5 -45t211 45t165 125t106.5 188.5t38 237.5zM1399 680q0 -143 -47 -271t-131 -223.5
t-203 -152t-262.5 -56.5t-262 56.5t-202.5 152t-131 223.5t-47 271t47 271t131 224.5t202.5 152.5t262 56t262.5 -56t203 -152.5t131 -224.5t47 -271z" />
    <glyph glyph-name="Ocircumflex" unicode="&#xd4;" horiz-adv-x="1511" 
d="M920 1481l-164 180l-164 -180h-103l205 248h123l205 -248h-102zM1276 680q0 129 -38 238.5t-106.5 189.5t-165 125t-211 45t-210.5 -45t-165 -125t-106.5 -189.5t-37.5 -238.5t37.5 -237.5t106.5 -188.5t165 -125t210.5 -45t211 45t165 125t106.5 188.5t38 237.5z
M1399 680q0 -143 -47 -271t-131 -223.5t-203 -152t-262.5 -56.5t-262 56.5t-202.5 152t-131 223.5t-47 271t47 271t131 224.5t202.5 152.5t262 56t262.5 -56t203 -152.5t131 -224.5t47 -271z" />
    <glyph glyph-name="Otilde" unicode="&#xd5;" horiz-adv-x="1511" 
d="M858 1493q-50 0 -94.5 25.5t-67 37t-50.5 11.5q-41 0 -87 -86l-82 37q70 137 176 137q52 0 117.5 -38t95.5 -38t50 29.5t34 58.5l84 -35q-71 -139 -176 -139zM1276 680q0 129 -38 238.5t-106.5 189.5t-165 125t-211 45t-210.5 -45t-165 -125t-106.5 -189.5t-37.5 -238.5
t37.5 -237.5t106.5 -188.5t165 -125t210.5 -45t211 45t165 125t106.5 188.5t38 237.5zM1399 680q0 -143 -47 -271t-131 -223.5t-203 -152t-262.5 -56.5t-262 56.5t-202.5 152t-131 223.5t-47 271t47 271t131 224.5t202.5 152.5t262 56t262.5 -56t203 -152.5t131 -224.5
t47 -271z" />
    <glyph glyph-name="Odieresis" unicode="&#xd6;" horiz-adv-x="1511" 
d="M514 1487v178h137v-178h-137zM858 1487v178h139v-178h-139zM1276 680q0 129 -38 238.5t-106.5 189.5t-165 125t-211 45t-210.5 -45t-165 -125t-106.5 -189.5t-37.5 -238.5t37.5 -237.5t106.5 -188.5t165 -125t210.5 -45t211 45t165 125t106.5 188.5t38 237.5zM1399 680
q0 -143 -47 -271t-131 -223.5t-203 -152t-262.5 -56.5t-262 56.5t-202.5 152t-131 223.5t-47 271t47 271t131 224.5t202.5 152.5t262 56t262.5 -56t203 -152.5t131 -224.5t47 -271z" />
    <glyph glyph-name="multiply" unicode="&#xd7;" horiz-adv-x="968" 
d="M795 70l-310 309l-309 -309l-74 71l310 310l-310 309l74 74l309 -310l310 310l71 -74l-309 -309l309 -310z" />
    <glyph glyph-name="Oslash" unicode="&#xd8;" horiz-adv-x="1513" 
d="M401 233q141 -149 363 -149t367 169.5t145 412.5t-115 403zM1112 1128q-142 150 -364 150t-367 -168.5t-145 -411.5t116 -407zM1239 1155q162 -195 162 -480t-132 -435t-251 -206.5t-262 -56.5q-248 0 -430 173l-158 -173l-55 52l161 176q-161 198 -161 477q0 143 47 271
t131 223.5t202.5 151.5t262.5 56q251 0 432 -172l158 170l55 -49z" />
    <glyph glyph-name="Ugrave" unicode="&#xd9;" horiz-adv-x="1443" 
d="M676 1481l-236 248h142l196 -248h-102zM1260 477q0 -207 -145 -353.5t-392.5 -146.5t-393 149t-145.5 351v887h125v-895q0 -181 114.5 -283t298.5 -102t299.5 108t115.5 277v895h123v-887z" />
    <glyph glyph-name="Uacute" unicode="&#xda;" horiz-adv-x="1443" 
d="M756 1481h-103l197 248h141zM1260 477q0 -207 -145 -353.5t-392.5 -146.5t-393 149t-145.5 351v887h125v-895q0 -181 114.5 -283t298.5 -102t299.5 108t115.5 277v895h123v-887z" />
    <glyph glyph-name="Ucircumflex" unicode="&#xdb;" horiz-adv-x="1443" 
d="M887 1481l-164 180l-164 -180h-104l204 248h123l207 -248h-102zM1260 477q0 -207 -145 -353.5t-392.5 -146.5t-393 149t-145.5 351v887h125v-895q0 -181 114.5 -283t298.5 -102t299.5 108t115.5 277v895h123v-887z" />
    <glyph glyph-name="Udieresis" unicode="&#xdc;" horiz-adv-x="1443" 
d="M481 1487v178h137v-178h-137zM825 1487v178h138v-178h-138zM1260 477q0 -207 -145 -353.5t-392.5 -146.5t-393 149t-145.5 351v887h125v-895q0 -181 114.5 -283t298.5 -102t299.5 108t115.5 277v895h123v-887z" />
    <glyph glyph-name="Yacute" unicode="&#xdd;" horiz-adv-x="1210" 
d="M653 1481h-102l197 248h141zM668 0h-125v555l-553 809h135l481 -694l479 694h136l-553 -809v-555z" />
    <glyph glyph-name="Thorn" unicode="&#xde;" horiz-adv-x="1288" 
d="M823 973h-493v-547h493q137 0 214 71.5t77 198.5t-86 202t-205 75zM1125.5 432q-111.5 -108 -302.5 -108h-493v-324h-125v1364h125v-285h493q191 0 302.5 -111.5t111.5 -269.5t-111.5 -266z" />
    <glyph glyph-name="germandbls" unicode="&#xdf;" horiz-adv-x="1255" 
d="M1163 244q0 -113 -90 -186.5t-246 -73.5t-307 69l33 92q137 -59 258 -59q233 0 233 166q0 68 -43 115t-135 90q-150 70 -201 125t-51 132t35 120t76 81.5t76 83.5t35 124t-65.5 134.5t-166 55.5t-167 -58.5t-66.5 -173.5v-1081h-119v899h-154v98h154v60q0 166 93 262
t254 96t258 -86t97 -217q0 -84 -34.5 -138t-75.5 -96t-76 -77t-35 -70t5 -52t29.5 -40.5t148.5 -82.5t185.5 -129t61.5 -183z" />
    <glyph glyph-name="agrave" unicode="&#xe0;" horiz-adv-x="1003" 
d="M479 1128l-235 248h141l197 -248h-103zM211 268q0 -178 215 -178q152 0 239 77t87 212v74h-328q-113 0 -163 -44t-50 -141zM752 125q-96 -141 -346 -141q-132 0 -223 72.5t-91 213.5t83 215t241 74h336v115q0 235 -291 235q-127 0 -303 -30l-17 98q155 39 343 39
t287 -93.5t99 -240.5v-682h-118v125z" />
    <glyph glyph-name="aacute" unicode="&#xe1;" horiz-adv-x="1003" 
d="M569 1128h-102l197 248h141zM211 268q0 -178 215 -178q152 0 239 77t87 212v74h-328q-113 0 -163 -44t-50 -141zM752 125q-96 -141 -346 -141q-132 0 -223 72.5t-91 213.5t83 215t241 74h336v115q0 235 -291 235q-127 0 -303 -30l-17 98q155 39 343 39t287 -93.5
t99 -240.5v-682h-118v125z" />
    <glyph glyph-name="acircumflex" unicode="&#xe2;" horiz-adv-x="1003" 
d="M643 1128l-164 181l-164 -181h-102l205 248h123l204 -248h-102zM211 268q0 -178 215 -178q152 0 239 77t87 212v74h-328q-113 0 -163 -44t-50 -141zM752 125q-96 -141 -346 -141q-132 0 -223 72.5t-91 213.5t83 215t241 74h336v115q0 235 -291 235q-127 0 -303 -30
l-17 98q155 39 343 39t287 -93.5t99 -240.5v-682h-118v125z" />
    <glyph glyph-name="atilde" unicode="&#xe3;" horiz-adv-x="1003" 
d="M624 1161q-50 0 -78 11.5t-72.5 37t-75.5 25.5q-30 0 -52 -29.5t-37 -56.5l-80 37q25 53 69 95t94 42t77 -12.5t51.5 -25.5t46 -25.5t49.5 -12.5t50 30t36 58l82 -35q-27 -53 -68.5 -96t-91.5 -43zM217 268q0 -178 215 -178q152 0 239 77t87 212v74h-328q-113 0 -163 -44
t-50 -141zM758 125q-96 -141 -346 -141q-132 0 -223 72.5t-91 213.5t83 215t241 74h336v115q0 235 -291 235q-127 0 -303 -30l-17 98q155 39 343 39t287.5 -93.5t99.5 -240.5v-682h-119v125z" />
    <glyph glyph-name="adieresis" unicode="&#xe4;" horiz-adv-x="1003" 
d="M260 1149v178h137v-178h-137zM604 1149v178h137v-178h-137zM211 268q0 -178 215 -178q152 0 239 77t87 212v74h-328q-113 0 -163 -44t-50 -141zM752 125q-96 -141 -346 -141q-132 0 -223 72.5t-91 213.5t83 215t241 74h336v115q0 235 -291 235q-127 0 -303 -30l-17 98
q155 39 343 39t287 -93.5t99 -240.5v-682h-118v125z" />
    <glyph glyph-name="aring" unicode="&#xe5;" horiz-adv-x="1003" 
d="M573 1247q0 43 -30.5 73t-74.5 30t-72.5 -30t-28.5 -73t28.5 -73.5t72.5 -30.5t74.5 30.5t30.5 73.5zM618 1247.5q0 -63.5 -43 -107.5t-106 -44t-106.5 44t-43.5 107.5t43.5 106.5t106.5 43t106 -43t43 -106.5zM211 268q0 -178 215 -178q152 0 239 77t87 212v74h-328
q-113 0 -163 -44t-50 -141zM752 125q-96 -141 -346 -141q-132 0 -223 72.5t-91 213.5t83 215t241 74h336v115q0 235 -291 235q-127 0 -303 -30l-17 98q155 39 343 39t287 -93.5t99 -240.5v-682h-118v125z" />
    <glyph glyph-name="ae" unicode="&#xe6;" horiz-adv-x="1753" 
d="M211 270q0 -180 215 -180q164 0 244 78t80 213v72h-326q-113 0 -163 -43t-50 -140zM1210.5 909q-147.5 0 -234.5 -95t-104 -255h656q-12 160 -91 255t-226.5 95zM465 1016q293 0 377 -193q59 88 152 140.5t209 52.5q216 0 332 -148.5t116 -367.5v-43h-779
q16 -180 118 -273.5t276 -93.5q126 0 303 43l24 -98q-162 -51 -321 -51q-308 0 -445 225q-51 -106 -151 -165.5t-244 -59.5t-242 73t-98 215t83 214.5t241 72.5h334v115q0 235 -289 235q-127 0 -303 -30l-17 98q156 39 324 39z" />
    <glyph glyph-name="ccedilla" unicode="&#xe7;" horiz-adv-x="966" 
d="M585 -455q160 0 160 96.5t-45 127t-107 30.5t-110 -10l47 201q-198 24 -313 165t-115 353t139 360t373 148q135 0 250 -39l-20 -98q-96 30 -207 30q-112 0 -188 -29.5t-126.5 -84t-76 -129t-25.5 -214t104 -251t302 -111.5q100 0 217 31l20 -101q-119 -36 -250 -36h-18
l-35 -131q27 4 31 4h45q92 0 144.5 -47.5t52.5 -132.5t-60 -141t-162 -56t-184 33l14 53q68 -21 143 -21z" />
    <glyph glyph-name="egrave" unicode="&#xe8;" horiz-adv-x="1101" 
d="M559 909q-147 0 -234 -95t-104 -255h656q-11 160 -91 255t-227 95zM637 -16q-259 0 -399 145t-140 365q0 221 125 372q125 150 335 150q211 0 327 -150t114 -366v-43h-778q15 -179 117 -273t259 -94t321 43l24 -98q-163 -51 -305 -51zM475 1128l-235 248h141l197 -248
h-103z" />
    <glyph glyph-name="eacute" unicode="&#xe9;" horiz-adv-x="1101" 
d="M559 909q-147 0 -234 -95t-104 -255h656q-11 160 -91 255t-227 95zM637 -16q-259 0 -399 145t-140 365q0 221 125 372q125 150 335 150q211 0 327 -150t114 -366v-43h-778q15 -179 117 -273t259 -94t321 43l24 -98q-163 -51 -305 -51zM627 1128h-103l197 248h141z" />
    <glyph glyph-name="ecircumflex" unicode="&#xea;" horiz-adv-x="1101" 
d="M559 909q-147 0 -234 -95t-104 -255h656q-11 160 -91 255t-227 95zM637 -16q-259 0 -399 145t-140 365q0 221 125 372q125 150 335 150q211 0 327 -150t114 -366v-43h-778q15 -179 117 -273t259 -94t321 43l24 -98q-163 -51 -305 -51zM727 1128l-164 181l-164 -181h-102
l205 248h123l204 -248h-102z" />
    <glyph glyph-name="edieresis" unicode="&#xeb;" horiz-adv-x="1101" 
d="M559 909q-147 0 -234 -95t-104 -255h656q-11 160 -91 255t-227 95zM637 -16q-259 0 -399 145t-140 365q0 221 125 372q125 150 335 150q211 0 327 -150t114 -366v-43h-778q15 -179 117 -273t259 -94t321 43l24 -98q-163 -51 -305 -51zM324 1149v178h137v-178h-137z
M668 1149v178h137v-178h-137z" />
    <glyph glyph-name="igrave" unicode="&#xec;" horiz-adv-x="466" 
d="M174 0v997h119v-997h-119zM193 1128l-236 248h141l197 -248h-102z" />
    <glyph glyph-name="iacute" unicode="&#xed;" horiz-adv-x="466" 
d="M174 0v997h119v-997h-119zM262 1128h-102l196 248h142z" />
    <glyph glyph-name="icircumflex" unicode="&#xee;" horiz-adv-x="466" 
d="M174 0v997h119v-997h-119zM395 1128l-164 181l-163 -181h-103l205 248h123l205 -248h-103z" />
    <glyph glyph-name="idieresis" unicode="&#xef;" horiz-adv-x="466" 
d="M174 0v997h119v-997h-119zM8 1149v178h137v-178h-137zM352 1149v178h137v-178h-137z" />
    <glyph glyph-name="eth" unicode="&#xf0;" horiz-adv-x="1081" 
d="M870 499q0 83 -20.5 157.5t-62.5 131t-102 89t-140 32.5t-140.5 -32.5t-101.5 -88t-61.5 -130t-20.5 -158.5t20.5 -159t61.5 -130t101.5 -88t140.5 -33t140 33t102 89t62.5 130t20.5 157zM989 598q0 -268 -116 -441t-332 -173q-217 0 -328 154t-111 360.5t109.5 362
t329.5 155.5t319 -201q-20 172 -135 326l-100 -80l-37 45l100 80q-71 82 -190 178h125q98 -76 137 -121l94 74l37 -45l-94 -74q192 -244 192 -600z" />
    <glyph glyph-name="ntilde" unicode="&#xf1;" horiz-adv-x="1148" 
d="M866 0v653q0 129 -57 189t-186 61q-129 0 -229 -109q-99 -109 -99 -288v-506h-121v997h121v-186q53 92 142 148t206 57q170 0 256 -97t86 -257v-662h-119zM872 1300q-71 -139 -170 -139q-60 0 -120 37q-24 14 -46 26t-50 11q-42 0 -89 -86l-80 37q25 53 69 95t94 42
t80 -14q31 -14 74 -37q42 -24 70 -24q42 -1 87 87z" />
    <glyph glyph-name="ograve" unicode="&#xf2;" horiz-adv-x="1134" 
d="M913 500q0 182 -93 296q-93 115 -251 114t-252 -113t-94 -296q-1 -184 93 -298q94 -113 254 -113t251 114q92 114 92 296zM1032 500q0 -104 -32 -198q-67 -195 -238 -276q-86 -42 -195 -42q-209 0 -337 151t-128 365q0 213 126 364q126 152 337 152q212 0 340 -151
q127 -151 127 -365zM500 1128l-236 248h142l196 -248h-102z" />
    <glyph glyph-name="oacute" unicode="&#xf3;" horiz-adv-x="1134" 
d="M913 500q0 182 -93 296q-93 115 -251 114t-252 -113t-94 -296q-1 -184 93 -298q94 -113 254 -113t251 114q92 114 92 296zM1032 500q0 -104 -32 -198q-67 -195 -238 -276q-86 -42 -195 -42q-209 0 -337 151t-128 365q0 213 126 364q126 152 337 152q212 0 340 -151
q127 -151 127 -365zM606 1128h-102l196 248h142z" />
    <glyph glyph-name="ocircumflex" unicode="&#xf4;" horiz-adv-x="1134" 
d="M913 500q0 182 -93 296q-93 115 -251 114t-252 -113t-94 -296q-1 -184 93 -298q94 -113 254 -113t251 114q92 114 92 296zM1032 500q0 -104 -32 -198q-67 -195 -238 -276q-86 -42 -195 -42q-209 0 -337 151t-128 365q0 213 126 364q126 152 337 152q212 0 340 -151
q127 -151 127 -365zM731 1128l-164 181l-164 -181h-102l205 248h123l205 -248h-103z" />
    <glyph glyph-name="otilde" unicode="&#xf5;" horiz-adv-x="1134" 
d="M913 500q0 182 -93 296q-93 115 -251 114t-252 -113t-94 -296q-1 -184 93 -298q94 -113 254 -113t251 114q92 114 92 296zM1032 500q0 -104 -32 -198q-67 -195 -238 -276q-86 -42 -195 -42q-209 0 -337 151t-128 365q0 213 126 364q126 152 337 152q212 0 340 -151
q127 -151 127 -365zM456 1235q-41 0 -87 -86l-80 37q25 53 68 95t93 42t83 -15t74 -37q82 -46 119 6q22 30 36 58l82 -35q-71 -139 -176 -139q-56 0 -115 37q-25 14 -47 26t-50 11z" />
    <glyph glyph-name="odieresis" unicode="&#xf6;" horiz-adv-x="1134" 
d="M913 500q0 182 -93 296q-93 115 -251 114t-252 -113t-94 -296q-1 -184 93 -298q94 -113 254 -113t251 114q92 114 92 296zM1032 500q0 -104 -32 -198q-67 -195 -238 -276q-86 -42 -195 -42q-209 0 -337 151t-128 365q0 213 126 364q126 152 337 152q212 0 340 -151
q127 -151 127 -365zM344 1149v178h137v-178h-137zM688 1149v178h137v-178h-137z" />
    <glyph glyph-name="divide" unicode="&#xf7;" horiz-adv-x="1099" 
d="M657 727q0 -45 -30.5 -75.5t-75.5 -30.5t-76 30.5t-31 75.5t31 76t76 31t75.5 -31t30.5 -76zM657 100q0 -45 -30.5 -75.5t-75.5 -30.5t-76 30.5t-31 75.5t31 76t76 31t75.5 -31t30.5 -76zM113 369v90h874v-90h-874z" />
    <glyph glyph-name="oslash" unicode="&#xf8;" horiz-adv-x="1134" 
d="M803 815q-94 94 -246 94t-244 -114.5t-92 -280.5t68 -274zM332 184q94 -94 245 -94t243.5 114t92.5 283t-67 273zM922 846q110 -145 110 -354t-128 -358.5t-323 -149.5t-321 118l-106 -118l-52 45l111 125q-111 147 -111 354t127 357.5t322 150.5t323 -119l107 119
l51 -45z" />
    <glyph glyph-name="ugrave" unicode="&#xf9;" horiz-adv-x="1138" 
d="M846 0v188q-54 -92 -144 -148t-206 -56q-170 0 -256 96t-86 256v661h120v-651q0 -129 56 -190q56 -62 186 -62q129 0 229 109q101 109 101 289v505h119v-997h-119zM494 1128l-236 248h141l197 -248h-102z" />
    <glyph glyph-name="uacute" unicode="&#xfa;" horiz-adv-x="1138" 
d="M846 0v188q-54 -92 -144 -148t-206 -56q-170 0 -256 96t-86 256v661h120v-651q0 -129 56 -190q56 -62 186 -62q129 0 229 109q101 109 101 289v505h119v-997h-119zM573 1128h-102l197 248h141z" />
    <glyph glyph-name="ucircumflex" unicode="&#xfb;" horiz-adv-x="1138" 
d="M846 0v188q-54 -92 -144 -148t-206 -56q-170 0 -256 96t-86 256v661h120v-651q0 -129 56 -190q56 -62 186 -62q129 0 229 109q101 109 101 289v505h119v-997h-119zM719 1128l-164 181l-164 -181h-102l205 248h122l205 -248h-102z" />
    <glyph glyph-name="udieresis" unicode="&#xfc;" horiz-adv-x="1138" 
d="M846 0v188q-54 -92 -144 -148t-206 -56q-170 0 -256 96t-86 256v661h120v-651q0 -129 56 -190q56 -62 186 -62q129 0 229 109q101 109 101 289v505h119v-997h-119zM328 1149v178h137v-178h-137zM672 1149v178h137v-178h-137z" />
    <glyph glyph-name="yacute" unicode="&#xfd;" horiz-adv-x="937" 
d="M383 -354h-115l144 354l-408 997h121l336 -870l338 870h119zM500 1128h-103l197 248h141z" />
    <glyph glyph-name="thorn" unicode="&#xfe;" horiz-adv-x="1163" 
d="M379.5 792.5q-86.5 -116.5 -86.5 -293.5t87 -293t238.5 -116t237.5 115.5t86 294t-85.5 294t-238 115.5t-239 -116.5zM293 815q107 201 326 201t330.5 -154t111.5 -362t-110 -362t-331 -154t-327 200v-536h-119v1718h119v-551z" />
    <glyph glyph-name="ydieresis" unicode="&#xff;" horiz-adv-x="937" 
d="M383 -354h-115l144 354l-408 997h121l336 -870l338 870h119zM238 1149v178h137v-178h-137zM582 1149v178h137v-178h-137z" />
    <glyph glyph-name="dotlessi" unicode="&#x131;" horiz-adv-x="466" 
d="M174 0v997h119v-997h-119z" />
    <glyph glyph-name="Lslash" unicode="&#x141;" horiz-adv-x="1159" 
d="M260 0v610l-135 -90l-53 80l188 125v639h123v-557l174 117l51 -80l-225 -152v-586h715v-106h-838z" />
    <glyph glyph-name="lslash" unicode="&#x142;" horiz-adv-x="667" 
d="M467 -14q-117 0 -185.5 64.5t-68.5 211.5v359l-143 -97l-50 72l193 127v641h119v-561l174 117l47 -72l-221 -148v-444q0 -90 35.5 -129t109.5 -39h88v-102h-98z" />
    <glyph glyph-name="OE" unicode="&#x152;" horiz-adv-x="2111" 
d="M1059 1257h-303q-232 0 -376 -159t-144 -416t144.5 -416.5t375.5 -159.5h303v1151zM1182 1257v-497h733v-109h-733v-545h784v-106h-1210q-287 0 -465 196.5t-178 485.5t178 485.5t465 196.5h1212v-107h-786z" />
    <glyph glyph-name="oe" unicode="&#x153;" horiz-adv-x="1914" 
d="M1374.5 909q-147.5 0 -234.5 -95t-104 -255h656q-12 160 -91 255t-226.5 95zM913 500q0 92 -24.5 166.5t-68.5 129t-108.5 84t-144.5 29.5t-143.5 -29.5t-108.5 -84t-68.5 -129t-23.5 -166.5t23.5 -167t68.5 -129t108.5 -84t143.5 -30t144.5 30t108.5 84t68.5 129
t24.5 167zM584 -16q-126 0 -212.5 42t-146 112.5t-91.5 163.5t-32 253t127 310.5t338 150.5q143 0 247 -71t159 -181q55 111 156.5 181.5t227.5 70.5q224 0 339.5 -148t115.5 -368v-43h-778q16 -180 118.5 -273.5t277.5 -93.5q126 0 303 43l24 -98q-162 -51 -326 -51
q-163 0 -281 68.5t-177 185.5q-55 -113 -159 -183.5t-230 -70.5z" />
    <glyph glyph-name="Scaron" unicode="&#x160;" horiz-adv-x="1294" 
d="M725 1481h-123l-205 248h103l164 -181l163 181h103zM676 1278q-203 0 -290 -42t-87 -153t87.5 -177.5t291.5 -145.5q204 -80 291.5 -129t150 -112t62.5 -202t-138 -239.5t-386 -100.5t-525 109l31 98q262 -100 510 -100q174 0 279.5 67t105.5 169q0 101 -80 170t-274 139
q-193 71 -286 119.5t-168 118.5t-75 218q0 299 494 299q238 0 473 -67l-21 -98q-243 59 -446 59z" />
    <glyph glyph-name="scaron" unicode="&#x161;" horiz-adv-x="950" 
d="M555 1128h-123l-205 248h103l164 -180l163 180h103zM504 909q-129 0 -184.5 -33.5t-55.5 -101.5t44.5 -109.5t169.5 -91.5q234 -95 302 -156.5t68 -174.5t-100.5 -185.5t-278.5 -72.5q-90 0 -188.5 25.5t-167.5 64.5l32 92q161 -76 300 -76q284 0 284 162q0 35 -11 58.5
t-51.5 51.5t-185.5 87t-198.5 91.5t-95.5 83.5t-42 161q0 111 99 171t252 60t309 -47l-19 -97q-153 37 -282 37z" />
    <glyph glyph-name="Ydieresis" unicode="&#x178;" horiz-adv-x="1210" 
d="M365 1487v178h137v-178h-137zM709 1487v178h137v-178h-137zM668 0h-125v555l-553 809h135l481 -694l479 694h136l-553 -809v-555z" />
    <glyph glyph-name="Zcaron" unicode="&#x17d;" horiz-adv-x="1316" 
d="M727 1481h-123l-205 248h103l164 -181l163 181h103zM123 0v106l942 1151h-913v107h1060v-107l-944 -1151h946v-106h-1091z" />
    <glyph glyph-name="zcaron" unicode="&#x17e;" horiz-adv-x="1089" 
d="M629 1128h-123l-205 248h102l164 -180l164 180h103zM133 0v106l664 785h-617v106h760v-106l-661 -785h677v-106h-823z" />
    <glyph glyph-name="florin" unicode="&#x192;" horiz-adv-x="937" 
d="M747 1313q-146 0 -182 -201l-20 -115h231l-18 -98h-230l-170 -960q-28 -166 -122.5 -238t-210.5 -72q-58 0 -107 17l35 96q42 -10 92 -10q86 0 131 52t62 146l170 969h-154l18 98h154l18 109q29 168 122.5 238.5t211.5 70.5q70 0 140 -20l-33 -97q-63 15 -138 15z" />
    <glyph glyph-name="circumflex" unicode="&#x2c6;" horiz-adv-x="737" 
d="M532 1128l-163 181l-164 -181h-103l205 248h123l205 -248h-103z" />
    <glyph glyph-name="caron" unicode="&#x2c7;" horiz-adv-x="737" 
d="M430 1128h-123l-205 248h103l164 -180l163 180h103z" />
    <glyph glyph-name="breve" unicode="&#x2d8;" horiz-adv-x="681" 
d="M580 1364q0 -104 -65.5 -160.5t-172 -56.5t-173.5 56.5t-67 160.5h68q0 -72 46 -115t126 -43t125 43t45 115h68z" />
    <glyph glyph-name="dotaccent" unicode="&#x2d9;" horiz-adv-x="323" 
d="M102 1163v201h119v-201h-119z" />
    <glyph glyph-name="ring" unicode="&#x2da;" horiz-adv-x="503" 
d="M356 1247q0 43 -30.5 73t-74.5 30t-72.5 -30t-28.5 -73t28.5 -73.5t72.5 -30.5t74.5 30.5t30.5 73.5zM401 1247.5q0 -63.5 -43 -107.5t-106.5 -44t-106.5 44t-43 107.5t43 106.5t106.5 43t106.5 -43t43 -106.5z" />
    <glyph glyph-name="ogonek" unicode="&#x2db;" horiz-adv-x="573" 
d="M102 -180q0 86 103 180h74q-89 -101 -89 -174q0 -143 132 -143q60 0 135 30l14 -45q-84 -41 -170 -41t-142.5 53.5t-56.5 139.5z" />
    <glyph glyph-name="tilde" unicode="&#x2dc;" horiz-adv-x="759" 
d="M496 1161q-50 0 -77.5 11.5t-72 37t-75.5 25.5q-30 0 -52 -29.5t-37 -56.5l-80 37q25 53 68.5 95t93.5 42t77.5 -12.5t52 -25.5t46.5 -25.5t50 -12.5t49.5 30t35.5 58l82 -35q-27 -53 -69 -96t-92 -43z" />
    <glyph glyph-name="hungarumlaut" unicode="&#x2dd;" horiz-adv-x="888" 
d="M522 1116h-102l196 248h140zM246 1116h-103l195 248h141z" />
    <glyph glyph-name="pi" unicode="&#x3c0;" horiz-adv-x="1249" 
d="M319 0v90h574l-770 768l63 64l770 -770v573h88v-725h-725z" />
    <glyph glyph-name="endash" unicode="&#x2013;" horiz-adv-x="1132" 
d="M113 500v114h907v-114h-907z" />
    <glyph glyph-name="emdash" unicode="&#x2014;" horiz-adv-x="1597" 
d="M113 500v114h1372v-114h-1372z" />
    <glyph glyph-name="quoteleft" unicode="&#x2018;" horiz-adv-x="471" 
d="M174 954v193l72 217h69l-73 -217h86v-193h-154z" />
    <glyph glyph-name="quoteright" unicode="&#x2019;" horiz-adv-x="471" 
d="M143 1171v193h154v-193l-74 -217h-67l71 217h-84z" />
    <glyph glyph-name="quotesinglbase" unicode="&#x201a;" horiz-adv-x="481" 
d="M154 0v193h153v-193l-74 -217h-67l72 217h-84z" />
    <glyph glyph-name="quotedblleft" unicode="&#x201c;" horiz-adv-x="786" 
d="M174 954v193l72 217h69l-73 -217h86v-193h-154zM489 954v193l72 217h70l-74 -217h86v-193h-154z" />
    <glyph glyph-name="quotedblright" unicode="&#x201d;" horiz-adv-x="786" 
d="M143 1171v193h154v-193l-74 -217h-67l71 217h-84zM459 1171v193h153v-193l-73 -217h-68l72 217h-84z" />
    <glyph glyph-name="quotedblbase" unicode="&#x201e;" horiz-adv-x="786" 
d="M154 0v193h153v-193l-74 -217h-67l72 217h-84zM469 0v193h154v-193l-74 -217h-68l72 217h-84z" />
    <glyph glyph-name="dagger" unicode="&#x2020;" horiz-adv-x="974" 
d="M500 983l59 -391l-70 -860h-8l-67 860l61 391l-373 -53v129l373 -53l-55 358h133l-53 -358l372 53v-129z" />
    <glyph glyph-name="daggerdbl" unicode="&#x2021;" horiz-adv-x="974" 
d="M500 -16l55 -359h-135l55 359l-373 -54v127l373 -51l-61 389v197l61 391l-373 -53v129l373 -53l-55 358h133l-53 -358l372 53v-129l-372 53l57 -391v-197l-57 -389l372 51v-127z" />
    <glyph glyph-name="bullet" unicode="&#x2022;" horiz-adv-x="669" 
d="M491.5 573.5q-65.5 -65.5 -157.5 -65.5t-156.5 65.5t-64.5 157.5q0 93 64 157t157 64t158 -64t65 -157q0 -92 -65.5 -157.5z" />
    <glyph glyph-name="ellipsis" unicode="&#x2026;" horiz-adv-x="1482" 
d="M664 0v193h153v-193h-153zM174 0v193h154v-193h-154zM1155 0v193h154v-193h-154z" />
    <glyph glyph-name="perthousand" unicode="&#x2030;" horiz-adv-x="2492" 
d="M524 0h-96l725 1364h96zM641 1034q0 51 -14.5 99.5t-42 86t-68.5 60.5t-96 23t-96 -23t-70 -60.5t-43 -86t-14 -99.5t14 -99t43 -86t70 -60.5t96 -22.5t96 22.5t68.5 60.5t42 86t14.5 99zM1481 325.5q0 51.5 -14.5 100.5t-43 87t-69.5 60.5t-96.5 22.5t-96.5 -22.5
t-68.5 -60.5t-42 -87t-14.5 -100.5t14.5 -99.5t42 -86t68.5 -60.5t96.5 -22.5t96.5 22.5t69.5 60.5t43 86t14.5 99.5zM2265 325.5q0 51.5 -14.5 100.5t-42 87t-68.5 60.5t-96 22.5t-96 -22.5t-70 -60.5t-43 -87t-14 -100.5t14 -99.5t43 -86t70 -60.5t96 -22.5t96 22.5
t68.5 60.5t42 86t14.5 99.5zM2359 325.5q0 -63.5 -21.5 -126t-61.5 -111.5t-98 -80t-134 -31t-134.5 31t-98 80t-61 111.5t-21.5 126t21.5 126t61 112.5t98 81t134.5 31t134 -31t98 -81t61.5 -112.5t21.5 -126zM1575 325.5q0 -63.5 -21.5 -126t-62.5 -111.5t-99.5 -80
t-134 -31t-134 31t-98.5 80t-61.5 111.5t-21.5 126t21.5 126t61.5 112.5t98.5 81t134 31t134 -31t99.5 -81t62.5 -112.5t21.5 -126zM733 1034.5q0 -63.5 -20.5 -126t-60.5 -113t-98 -81t-134 -30.5t-134.5 30.5t-99.5 81t-62.5 113t-21.5 126t21.5 126t62.5 112.5t99.5 80.5
t134.5 30.5t134 -30.5t98 -80.5t60.5 -112.5t20.5 -126z" />
    <glyph glyph-name="guilsinglleft" unicode="&#x2039;" horiz-adv-x="788" 
d="M541 0l-469 500l469 497l63 -59l-411 -438l411 -439z" />
    <glyph glyph-name="guilsinglright" unicode="&#x203a;" horiz-adv-x="788" 
d="M248 0l-64 61l412 439l-412 438l64 59l469 -497z" />
    <glyph glyph-name="fraction" unicode="&#x2044;" horiz-adv-x="823" 
d="M35 0h-55l811 1364h53z" />
    <glyph glyph-name="Euro" unicode="&#x20ac;" horiz-adv-x="1482" 
d="M61 494v86h218q-9 56 -9 103q0 46 6 95h-215v86h234q62 227 258.5 373.5t468.5 146.5q196 0 328 -47l-17 -98q-200 39 -314 39q-228 0 -387.5 -113t-211.5 -301h438v-86h-457q-8 -46 -8 -98t8 -100h457v-86h-438q54 -189 215 -299.5t358 -110.5t340 39l17 -98
q-159 -48 -311 -48q-286 0 -484 145.5t-260 371.5h-234z" />
    <glyph glyph-name="trademark" unicode="&#x2122;" horiz-adv-x="1392" 
d="M346 1315v-576h-55v576h-219v49h497v-49h-223zM1235 739v521l-219 -439h-35l-221 439v-521h-53v625h53l237 -469l238 469h55v-625h-55z" />
    <glyph glyph-name="Omega" unicode="&#x2126;" horiz-adv-x="1249" 
d="M293 639h-88v725h723v-90h-572l770 -768l-63 -64l-770 770v-573z" />
    <glyph glyph-name="partialdiff" unicode="&#x2202;" horiz-adv-x="1208" 
d="M649 125h-90v1087l-405 -403l-62 61l512 514l512 -514l-63 -61l-404 403v-1087z" />
    <glyph glyph-name="Delta" unicode="&#x2206;" horiz-adv-x="1208" 
d="M559 1237h90v-1087l406 403l61 -61l-512 -515l-512 515l64 61l403 -403v1087z" />
    <glyph glyph-name="product" unicode="&#x220f;" horiz-adv-x="1249" 
d="M930 90v-90h-725v725h88v-573l770 770l63 -64l-770 -768h574z" />
    <glyph glyph-name="summation" unicode="&#x2211;" horiz-adv-x="1249" 
d="M930 90v-90h-725v725h88v-573l770 770l63 -64l-770 -768h574z" />
    <glyph glyph-name="minus" unicode="&#x2212;" horiz-adv-x="722" 
d="M113 500v114h497v-114h-497z" />
    <glyph glyph-name="radical" unicode="&#x221a;" horiz-adv-x="1525" 
d="M164 606v90h1087l-403 404l61 63l514 -512l-514 -512l-61 62l403 405h-1087z" />
    <glyph glyph-name="infinity" unicode="&#x221e;" horiz-adv-x="1525" 
d="M1362 696v-90h-1088l404 -405l-62 -62l-514 512l514 512l62 -63l-404 -404h1088z" />
    <glyph glyph-name="integral" unicode="&#x222b;" horiz-adv-x="1249" 
d="M319 0v90h574l-770 768l63 64l770 -770v573h88v-725h-725z" />
    <glyph glyph-name="approxequal" unicode="&#x2248;" horiz-adv-x="1249" 
d="M956 639v573l-770 -770l-63 64l770 768h-571v90h722v-725h-88z" />
    <glyph glyph-name="notequal" unicode="&#x2260;" horiz-adv-x="1794" 
d="M928 682v-682h-682v1364h1364v-682h-682z" />
    <glyph glyph-name="lessequal" unicode="&#x2264;" horiz-adv-x="1525" 
d="M1362 696v-90h-1088l404 -405l-62 -62l-514 512l514 512l62 -63l-404 -404h1088z" />
    <glyph glyph-name="greaterequal" unicode="&#x2265;" horiz-adv-x="1525" 
d="M164 606v90h1087l-403 404l61 63l514 -512l-514 -512l-61 62l403 405h-1087z" />
    <glyph glyph-name="lozenge" unicode="&#x25ca;" horiz-adv-x="1525" 
d="M164 606v90h1087l-403 404l61 63l514 -512l-514 -512l-61 62l403 405h-1087z" />
    <glyph glyph-name="apple" unicode="&#xf8ff;" horiz-adv-x="1794" 
d="M928 682v-682h-682v1364h1364v-682h-682z" />
    <glyph glyph-name="fi" unicode="&#xfb01;" horiz-adv-x="1120" 
d="M827 1163v201h119v-201h-119zM827 0v997h119v-997h-119zM500 1313q-146 0 -146 -201v-115h232v-98h-232v-899h-118v899h-154v98h154v109q0 168 80.5 238.5t176.5 70.5t164 -20l-16 -97q-67 15 -141 15z" />
    <glyph glyph-name="fl" unicode="&#xfb02;" horiz-adv-x="1253" 
d="M1065 -12q-115 0 -185.5 64.5t-70.5 209.5v1102h119v-1108q0 -90 35.5 -128t109.5 -38h88v-102h-96zM500 1313q-146 0 -146 -201v-115h232v-98h-232v-899h-118v899h-154v98h154v109q0 168 80.5 238.5t176.5 70.5t164 -20l-16 -97q-67 15 -141 15z" />
    <glyph glyph-name="_257" horiz-adv-x="2048" 
 />
    </font>
</defs>
</svg>
