<?xml version="1.0" standalone="no"?>
<!DOCTYPE svg PUBLIC "-//W3C//DTD SVG 1.1//EN" "http://www.w3.org/Graphics/SVG/1.1/DTD/svg11.dtd" >
<svg xmlns="http://www.w3.org/2000/svg">
<metadata>
Created by FontPrep 20130207 at Fri Mar  6 15:44:22 2015
 By Paulo Fernandes
(c) 2003 Process Type Foundry. Designed by Eric Olson.
</metadata>
<defs>
<font id="137281df31907f81d41be74aaa10068f" horiz-adv-x='1024' >
  <font-face 
    font-family="Locator-Medium"
    font-weight="550"
    font-stretch="normal"
    units-per-em="2048"
    panose-1="2 0 6 3 4 0 0 2 0 4"
    ascent="1638"
    descent="-410"
    x-height="997"
    cap-height="1364"
    bbox="-98 -565 2460 1825"
    underline-thickness="40"
    underline-position="-231"
    unicode-range="U+000D-FB02"
  />
<missing-glyph horiz-adv-x="450" 
 />
    <glyph glyph-name=".notdef" horiz-adv-x="450" 
 />
    <glyph glyph-name=".null" horiz-adv-x="0" 
 />
    <glyph glyph-name="nonmarkingreturn" unicode="&#xd;" horiz-adv-x="450" 
 />
    <glyph glyph-name="NULL" horiz-adv-x="0" 
 />
    <glyph glyph-name="NULL" horiz-adv-x="0" 
 />
    <glyph glyph-name="space" unicode=" " horiz-adv-x="450" 
 />
    <glyph glyph-name="exclam" unicode="!" horiz-adv-x="655" 
d="M188 0v289h279v-289h-279zM199 1364h258v-348l-70 -590h-119l-69 590v348z" />
    <glyph glyph-name="quotedbl" unicode="&#x22;" horiz-adv-x="921" 
d="M168 770v594h186v-594h-186zM567 770v594h187v-594h-187z" />
    <glyph glyph-name="numbersign" unicode="#" horiz-adv-x="1468" 
d="M608 817l-61 -264h323l60 264h-322zM1356 817h-256l-60 -264h254l-34 -158h-256l-93 -395h-170l93 395h-322l-92 -395h-170l92 395h-256l35 158h256l61 264h-256l35 156h258l90 391h170l-90 -391h322l90 391h170l-90 -391h256z" />
    <glyph glyph-name="dollar" unicode="$" horiz-adv-x="1267" 
d="M416 1025q0 -73 68 -117.5t224 -105.5q157 -61 234.5 -100.5t150 -108.5t72.5 -220q0 -152 -116.5 -259.5t-341.5 -123.5v-193h-175v193q-207 19 -423 108l49 199q282 -94 477 -94q276 0 276 166q0 71 -59 110.5t-217 99.5t-241 103t-159.5 115t-76.5 225q0 319 420 350
v199h174v-197q207 -9 376 -65l-34 -209q-211 55 -391 55t-221.5 -21.5t-53.5 -46t-12 -62.5z" />
    <glyph glyph-name="percent" unicode="%" horiz-adv-x="1781" 
d="M1493 344q0 41 -9 80t-28.5 68.5t-49.5 48t-71 18.5t-70.5 -18.5t-49 -48t-28.5 -68.5t-9 -80t9 -80t28.5 -69.5t49 -49t70.5 -18.5t71 18.5t49.5 49t28.5 69.5t9 80zM573 1022q0 41 -9 80t-28.5 68.5t-49 48t-70.5 18.5t-71 -18.5t-49.5 -48t-28.5 -68.5t-9 -80t9 -80
t28.5 -69.5t49.5 -49t71 -18.5t70.5 18.5t49 49t28.5 69.5t9 80zM592 0h-180l749 1364h178zM653 761.5q-92 -104.5 -238 -104.5t-237.5 104.5t-91.5 259t90 259t240 104.5q149 0 239 -104.5t90 -259t-92 -259zM1573.5 84q-91.5 -104 -237.5 -104q-147 0 -238.5 104
t-91.5 258.5t91 259.5t239 105q149 0 239 -105t90 -259.5t-91.5 -258.5z" />
    <glyph glyph-name="ampersand" unicode="&#x26;" horiz-adv-x="1433" 
d="M745 1095.5q0 53.5 -32.5 87.5t-96.5 34t-97.5 -32t-33.5 -88q0 -105 115 -220q82 47 113.5 106t31.5 112.5zM358 393q0 -92 59.5 -149.5t184.5 -57.5t227 93l-311 372q-160 -99 -160 -258zM106 389q0 135 73 230.5t222 173.5q-66 92 -100.5 160.5t-34.5 146.5
q0 131 86 207.5t248 76.5t253 -77t91 -193q0 -219 -250 -360q10 -10 42 -48t74 -86.5t85 -98.5t76 -85q75 115 129 330l184 -47q-50 -256 -174 -436q59 -68 126.5 -147t121.5 -136h-291q-76 88 -102 123q-177 -146 -384.5 -146t-341 118.5t-133.5 293.5z" />
    <glyph glyph-name="quotesingle" unicode="'" horiz-adv-x="522" 
d="M168 770v594h186v-594h-186z" />
    <glyph glyph-name="parenleft" unicode="(" horiz-adv-x="729" 
d="M420 561.5q0 -175.5 49 -365t174 -423.5l-158 -88q-317 406 -317 934t309 942l166 -88q-181 -342 -202 -539t-21 -372.5z" />
    <glyph glyph-name="parenright" unicode=")" horiz-adv-x="731" 
d="M563 620q0 -529 -317 -935l-160 88q184 347 204.5 541t20.5 370.5t-50 366.5t-175 422l168 88q309 -412 309 -941z" />
    <glyph glyph-name="asterisk" unicode="*" horiz-adv-x="997" 
d="M809 672l-246 170l27 -299h-182l26 299l-248 -170l-90 157l273 125l-273 123l90 160l248 -172l-26 299h182l-27 -299l246 172l92 -160l-272 -123l272 -125z" />
    <glyph glyph-name="plus" unicode="+" horiz-adv-x="1210" 
d="M700 397v-397h-188v397h-395v181h395v399h188v-399h394v-181h-394z" />
    <glyph glyph-name="comma" unicode="," horiz-adv-x="573" 
d="M137 0v289h279v-289l-144 -311h-118l120 311h-137z" />
    <glyph glyph-name="hyphen" unicode="-" horiz-adv-x="782" 
d="M117 467v209h549v-209h-549z" />
    <glyph glyph-name="period" unicode="." horiz-adv-x="591" 
d="M158 0v289h276v-289h-276z" />
    <glyph glyph-name="slash" unicode="/" horiz-adv-x="1019" 
d="M322 -240h-216l592 1624h215z" />
    <glyph glyph-name="zero" unicode="0" horiz-adv-x="1314" 
d="M952 672q0 92 -15 177t-50 151.5t-91.5 105.5t-138.5 39t-138 -39t-92 -105.5t-51.5 -151.5t-15.5 -177t15.5 -178t51.5 -152t92 -105.5t138 -39.5t138.5 39.5t91.5 105.5t50 152t15 178zM1202 671.5q0 -141.5 -34.5 -268.5t-102.5 -221t-170 -149.5t-237.5 -55.5
t-238 55.5t-170 149.5t-102 221t-34.5 268.5t34.5 267.5t102 220t170 149.5t238 55.5t237.5 -55.5t170 -149.5t102.5 -220t34.5 -267.5z" />
    <glyph glyph-name="one" unicode="1" horiz-adv-x="901" 
d="M682 1343v-1343h-250l-2 1130l-350 -63l-35 199l387 77h250z" />
    <glyph glyph-name="two" unicode="2" horiz-adv-x="1286" 
d="M877 969q0 176 -302 176q-158 0 -380 -51l-41 202q217 68 462 68q246 0 379 -108.5t133 -284.5q0 -136 -78 -233.5t-251 -207.5q-82 -53 -148.5 -94t-139 -96.5t-83.5 -120.5h711v-219h-1002v82q0 113 25.5 190.5t83 140t152 124t196.5 125.5q179 111 231 166t52 141z
" />
    <glyph glyph-name="three" unicode="3" horiz-adv-x="1171" 
d="M446 1364q265 0 410 -93t145 -263q0 -84 -45 -166t-143 -135q119 -39 185.5 -127.5t66.5 -183.5q0 -181 -160 -300t-424 -119q-201 0 -385 70l47 195q169 -52 332 -52q162 0 249 54.5t87 145.5t-67.5 146.5t-227.5 55.5h-235v203h225q123 0 185.5 50t62.5 134t-78 131
t-218 47t-296 -49l-45 190q181 66 329 66z" />
    <glyph glyph-name="four" unicode="4" horiz-adv-x="1302" 
d="M764 518v547l-449 -547h449zM1006 311v-311h-242v311h-692v219l665 813h269v-825h200v-207h-200z" />
    <glyph glyph-name="five" unicode="5" horiz-adv-x="1265" 
d="M678 852q235 0 355 -116.5t120 -305.5q0 -188 -145 -320.5t-399 -132.5q-253 0 -482 99l59 194q235 -77 396 -77q162 0 241.5 65t79.5 166q0 100 -66.5 157.5t-197.5 57.5t-246 -61l-203 106q40 407 74 659h809v-219h-598l-35 -325q107 53 238 53z" />
    <glyph glyph-name="six" unicode="6" horiz-adv-x="1243" 
d="M808 573.5q-69 57.5 -182 57.5t-188.5 -62t-75.5 -160q0 -99 74 -159t189 -60t183.5 66.5t68.5 162.5q0 97 -69 154.5zM360 702q127 136 326 136q198 0 319 -117.5t121 -300.5q0 -182 -137 -312.5t-350 -130.5q-260 0 -398.5 160t-138.5 438q0 356 186 572.5t507 216.5
q157 0 276 -37l-37 -205q-104 27 -216 27q-214 0 -321.5 -112.5t-136.5 -334.5z" />
    <glyph glyph-name="seven" unicode="7" horiz-adv-x="1085" 
d="M76 1124v219h954v-219l-549 -1124h-252l547 1124h-700z" />
    <glyph glyph-name="eight" unicode="8" horiz-adv-x="1232" 
d="M831 977q0 82 -54 135t-158.5 53t-161 -53t-56.5 -135t60.5 -135.5t154.5 -53.5h2q94 0 153.5 53.5t59.5 135.5zM585.5 602q-162.5 0 -202 -84t-39.5 -123q0 -92 76 -151.5t198.5 -59.5t196.5 59.5t74 147.5t-70.5 149.5t-233 61.5zM1137 405q0 -96 -35 -171.5
t-101.5 -132t-163 -90.5t-276.5 -34t-322.5 121t-142.5 297q0 106 60.5 193.5t171.5 140.5q-72 49 -116 121t-44 156t32.5 150.5t92 112.5t142.5 70.5t234 24.5t274.5 -96t123.5 -260q0 -86 -44 -158t-116 -121q111 -53 170.5 -140.5t59.5 -183.5z" />
    <glyph glyph-name="nine" unicode="9" horiz-adv-x="1243" 
d="M864 934q0 98 -72.5 157.5t-187.5 59.5t-183.5 -67t-68.5 -164q0 -96 68.5 -152.5t183.5 -56.5t187.5 62.5t72.5 160.5zM866 637q-120 -133 -322 -133q-201 0 -321.5 118.5t-120.5 299.5t139 311.5t351 130.5q260 0 397 -159.5t137 -438.5q0 -359 -187 -574t-507 -215
q-147 0 -272 37l33 203q91 -24 209 -24q221 0 329.5 112.5t134.5 331.5z" />
    <glyph glyph-name="colon" unicode=":" horiz-adv-x="591" 
d="M158 690v287h276v-287h-276zM158 0v289h276v-289h-276z" />
    <glyph glyph-name="semicolon" unicode=";" horiz-adv-x="583" 
d="M147 690v287h279v-287h-279zM147 0v289h279v-289l-143 -311h-119l121 311h-138z" />
    <glyph glyph-name="less" unicode="&#x3c;" horiz-adv-x="1150" 
d="M55 430v131l989 451v-191l-733 -325l733 -326v-190z" />
    <glyph glyph-name="equal" unicode="=" horiz-adv-x="1148" 
d="M106 156v190h936v-190h-936zM106 600v191h936v-191h-936z" />
    <glyph glyph-name="greater" unicode="&#x3e;" horiz-adv-x="1150" 
d="M106 -23v191l734 328l-734 325v191l990 -451v-133z" />
    <glyph glyph-name="question" unicode="?" horiz-adv-x="1146" 
d="M412 0v287h278v-287h-278zM565 1384q224 0 349.5 -98t125.5 -278q0 -143 -109.5 -285.5t-340.5 -310.5l-111 151q74 70 131.5 124t117.5 126.5t60 171.5q0 98 -63 139t-232 41t-356 -51l-41 199q245 71 469 71z" />
    <glyph glyph-name="at" unicode="@" horiz-adv-x="1554" 
d="M1044 686q0 94 -45 151.5t-119 57.5t-114.5 -60.5t-40.5 -148.5t40 -148.5t116 -60.5t119.5 57.5t43.5 151.5zM1493 98q-261 -121 -587 -121t-547.5 199t-221.5 507q0 309 177 505t458 196q199 0 315.5 -105t116.5 -282v-641h-162v88q-80 -100 -205 -100t-202.5 101
t-77.5 239t78 240t209 102t209 -96v59q0 111 -65.5 181.5t-197.5 70.5q-242 0 -369.5 -152t-127.5 -404t161 -411t440 -159t556 104z" />
    <glyph glyph-name="A" unicode="A" 
d="M672 1096l-207 -592h414zM1061 0l-117 305h-545l-116 -305h-258l530 1364h233l531 -1364h-258z" />
    <glyph glyph-name="B" unicode="B" horiz-adv-x="1357" 
d="M979 1024q0 133 -219 133h-318v-364h316q104 0 162.5 49t58.5 182zM1024 400q0 87 -52 141.5t-163 54.5h-367v-387h367q106 0 160.5 52t54.5 139zM1286 376q0 -62 -28.5 -131t-112.5 -157t-262 -88h-695v1364h629q203 0 312.5 -96.5t109.5 -249.5t-77 -217t-136 -84
q129 -38 194.5 -130t65.5 -211z" />
    <glyph glyph-name="C" unicode="C" horiz-adv-x="1337" 
d="M298.5 1186.5q212.5 197.5 545.5 197.5q218 0 377 -55l-52 -215q-147 39 -284 39t-235.5 -35t-166 -96t-101.5 -148.5t-34 -248t139.5 -288.5t389.5 -128q164 0 292 37l52 -209q-164 -60 -353 -60q-190 0 -329.5 52.5t-296 199.5t-156.5 453.5t212.5 504z" />
    <glyph glyph-name="D" unicode="D" horiz-adv-x="1419" 
d="M1081 682q0 221 -153.5 336t-382.5 115h-94v-902h94q229 0 382.5 115t153.5 336zM1117.5 192.5q-236.5 -192.5 -621.5 -192.5h-308v1364h308q381 0 619.5 -192t238.5 -489.5t-236.5 -490z" />
    <glyph glyph-name="E" unicode="E" horiz-adv-x="1294" 
d="M188 0v1364h979v-225h-716v-322h673v-225h-673v-367h716v-225h-979z" />
    <glyph glyph-name="F" unicode="F" horiz-adv-x="1282" 
d="M451 1139v-322h686v-225h-686v-592h-263v1364h1018v-225h-755z" />
    <glyph glyph-name="G" unicode="G" horiz-adv-x="1433" 
d="M86 680q0 156 57.5 286t214 274t492.5 144q209 0 385 -45l-35 -217q-202 31 -321 31q-260 0 -395.5 -123t-135.5 -341t132 -349t354 -131q91 0 223 16v457h243v-645q-673 -172 -943.5 86t-270.5 557z" />
    <glyph glyph-name="H" unicode="H" horiz-adv-x="1538" 
d="M1087 0v575h-638v-575h-261v1364h261v-557h638v557h263v-1364h-263z" />
    <glyph glyph-name="I" unicode="I" horiz-adv-x="659" 
d="M199 0v1364h262v-1364h-262z" />
    <glyph glyph-name="J" unicode="J" horiz-adv-x="925" 
d="M758 424q0 -310 -163 -370t-278 -60h-204v205h198q102 0 143.5 62.5t41.5 164.5v723h-351v215h613v-940z" />
    <glyph glyph-name="K" unicode="K" horiz-adv-x="1409" 
d="M451 0h-263v1364h263v-549l555 549h346l-690 -662l722 -702h-346l-587 582v-582z" />
    <glyph glyph-name="L" unicode="L" horiz-adv-x="1167" 
d="M188 0v1364h263v-1139h671v-225h-934z" />
    <glyph glyph-name="M" unicode="M" horiz-adv-x="1765" 
d="M1325 0v901l-371 -668h-145l-369 670v-903h-252v1364h252l443 -791l442 791h252v-1364h-252z" />
    <glyph glyph-name="N" unicode="N" horiz-adv-x="1570" 
d="M444 0h-256v1364h256l680 -950v950h258v-1364h-256l-682 950v-950z" />
    <glyph glyph-name="O" unicode="O" horiz-adv-x="1536" 
d="M461.5 1019.5q-113.5 -133.5 -113.5 -340.5q0 -206 114 -338t305 -132t307 130.5t116 339.5t-115.5 341.5t-307.5 132.5t-305.5 -133.5zM1450 680q0 -145 -52 -273t-143.5 -223.5t-216.5 -151t-270 -55.5t-270 55.5t-216.5 151t-143.5 223.5t-52 273t52 273t143.5 224.5
t216.5 151.5t270 55t270 -55t216.5 -151.5t143.5 -224.5t52 -273z" />
    <glyph glyph-name="P" unicode="P" horiz-adv-x="1374" 
d="M998 1090q-65 63 -156 63h-393v-448h393q94 0 157.5 65t63.5 161t-65 159zM1202.5 620.5q-126.5 -126.5 -321.5 -126.5h-432v-494h-261v1364h693q197 0 322.5 -127t125.5 -308.5t-126.5 -308z" />
    <glyph glyph-name="Q" unicode="Q" horiz-adv-x="1538" 
d="M462 1021q-114 -132 -114 -338t113.5 -340t305.5 -134t307.5 132t115.5 342q0 209 -116 339.5t-307 130.5t-305 -132zM1452 690q0 -265 -155.5 -460.5t-401.5 -239.5v-375h-254v375q-246 46 -400.5 240.5t-154.5 451.5q0 145 52 273t143.5 223.5t216.5 150.5t270 55
t270 -55t217.5 -150.5t144.5 -223.5t52 -265z" />
    <glyph glyph-name="R" unicode="R" horiz-adv-x="1525" 
d="M1071 938q0 98 -64.5 155.5t-154.5 57.5h-401v-430h401q94 0 156.5 59.5t62.5 157.5zM451 516v-516h-263v1364h711q189 0 314.5 -124t125.5 -302q0 -127 -70.5 -232.5t-195.5 -152.5l408 -553h-322l-375 516h-333z" />
    <glyph glyph-name="S" unicode="S" horiz-adv-x="1331" 
d="M491.5 1131.5q-65.5 -27.5 -65.5 -99.5t68 -113.5t249 -112.5t264 -107.5t157.5 -101.5t74.5 -235t-155 -277.5t-383 -107.5t-379.5 43t-208.5 70l57 203q269 -94 504 -94q145 0 225 42t80 117t-58.5 110.5t-235.5 101.5q-177 67 -265 109t-171 114t-83 243
q0 348 545 348q254 0 491 -65l-39 -211q-217 51 -412 51q-194 0 -259.5 -27.5z" />
    <glyph glyph-name="T" unicode="T" horiz-adv-x="1216" 
d="M739 1137v-1137h-260v1137h-454v227h1167v-227h-453z" />
    <glyph glyph-name="U" unicode="U" horiz-adv-x="1525" 
d="M1358 545q0 -232 -164.5 -400t-429 -168t-430.5 167.5t-166 400.5v819h262v-821q0 -154 93 -243t240 -89t241 88.5t94 243.5v821h260v-819z" />
    <glyph glyph-name="V" unicode="V" horiz-adv-x="1282" 
d="M772 0h-260l-496 1364h263l362 -1047l363 1047h262z" />
    <glyph glyph-name="W" unicode="W" horiz-adv-x="1771" 
d="M1393 0h-209l-299 938l-297 -938h-209l-348 1364h258l221 -887l283 887h186l283 -887l221 887h258z" />
    <glyph glyph-name="X" unicode="X" horiz-adv-x="1300" 
d="M995 0l-344 487l-348 -487h-289l490 688l-481 676h288l340 -475l338 475h291l-485 -676l491 -688h-291z" />
    <glyph glyph-name="Y" unicode="Y" horiz-adv-x="1243" 
d="M754 0h-262v541l-488 823h264l355 -592l352 592h264l-485 -823v-541z" />
    <glyph glyph-name="Z" unicode="Z" horiz-adv-x="1318" 
d="M106 0v233l795 906h-774v225h1085v-231l-790 -908h811v-225h-1127z" />
    <glyph glyph-name="bracketleft" unicode="[" horiz-adv-x="700" 
d="M188 -258v1876h488v-201h-234v-1472h234v-203h-488z" />
    <glyph glyph-name="backslash" unicode="\" horiz-adv-x="1019" 
d="M698 -240l-592 1624h216l591 -1624h-215z" />
    <glyph glyph-name="bracketright" unicode="]" horiz-adv-x="700" 
d="M25 -258v203h233v1472h-233v201h487v-1876h-487z" />
    <glyph glyph-name="asciicircum" unicode="^" horiz-adv-x="966" 
d="M715 670l-232 493l-231 -493h-197l351 694h155l350 -694h-196z" />
    <glyph glyph-name="underscore" unicode="_" horiz-adv-x="937" 
d="M0 -111v88h938v-88h-938z" />
    <glyph glyph-name="grave" unicode="`" horiz-adv-x="671" 
d="M379 1128l-283 267h258l191 -267h-166z" />
    <glyph glyph-name="a" unicode="a" horiz-adv-x="1046" 
d="M694 408h-217q-76 0 -115.5 -29t-39.5 -96q0 -121 155 -121q100 0 158.5 57t58.5 152v37zM500 1016q198 0 321 -90t123 -277v-649h-239v111q-102 -127 -297 -127q-151 0 -243.5 83t-92.5 219t85 210.5t238 74.5h299v84q0 82 -51 123t-183 41t-313 -22l-20 184
q175 35 373 35z" />
    <glyph glyph-name="b" unicode="b" horiz-adv-x="1196" 
d="M879 499.5q0 138.5 -63.5 229t-177.5 90.5t-178.5 -89t-64.5 -229t67 -230.5t179 -90.5t175 90.5t63 229zM1014 139q-116 -155 -318 -155q-92 0 -169.5 45t-131.5 116v-145h-252v1364h252v-508q115 160 311 160t310 -154t114 -361t-116 -362z" />
    <glyph glyph-name="c" unicode="c" horiz-adv-x="978" 
d="M219.5 870q153.5 146 396.5 146q140 0 261 -43l-41 -180q-97 22 -199 22q-164 0 -243 -87t-79 -227t79 -229.5t243 -89.5q87 0 199 31l41 -182q-125 -47 -255 -47q-131 0 -232 39.5t-212.5 146.5t-111.5 330.5t153.5 369.5z" />
    <glyph glyph-name="d" unicode="d" horiz-adv-x="1196" 
d="M736.5 730q-64.5 89 -178.5 89t-177.5 -90.5t-63.5 -268t90.5 -229t147.5 -51.5q112 0 179 90t67 231q0 140 -64.5 229zM801 145q-119 -161 -308 -161q-99 0 -180.5 45t-164 155t-82.5 317t114 361t310 154t311 -160v508h252v-1364h-252v145z" />
    <glyph glyph-name="e" unicode="e" horiz-adv-x="1093" 
d="M778 594q-21 229 -227 229q-98 0 -161.5 -57t-78.5 -172h467zM66 491q0 227 134 376t349 149q216 0 341.5 -144.5t125.5 -377.5v-76h-707q4 -113 92 -175.5t229 -62.5t292 39l45 -180q-163 -55 -319 -55q-286 0 -434 140t-148 367z" />
    <glyph glyph-name="f" unicode="f" horiz-adv-x="733" 
d="M572 1219q-66 0 -96 -33t-30 -107v-96h193v-170h-193v-813h-249v813h-136v170h136v88q0 180 86 262t241 82q96 0 199 -29l-29 -178q-56 11 -122 11z" />
    <glyph glyph-name="g" unicode="g" horiz-adv-x="1185" 
d="M803 501.5q0 145.5 -65.5 231.5t-183.5 86t-177.5 -87t-59.5 -218t59.5 -217t176.5 -86t183.5 72.5t66.5 218zM803 164q-109 -148 -314 -148q-195 0 -309 147.5t-114 354.5q0 206 113.5 352t309.5 146q197 0 314 -160v141h250v-880q0 -227 -145.5 -349t-399.5 -122
q-192 0 -338 45l33 172q163 -35 276 -35q180 0 252 66.5t72 189.5v80z" />
    <glyph glyph-name="h" unicode="h" horiz-adv-x="1187" 
d="M805 596q0 197 -176 197q-90 0 -163 -69t-73 -169v-555h-250v1364h244v-524q47 72 138 124t202 52q168 0 248 -105.5t80 -277.5v-633h-250v596z" />
    <glyph glyph-name="i" unicode="i" horiz-adv-x="536" 
d="M143 1163v240h250v-240h-250zM143 0v997h250v-997h-250z" />
    <glyph glyph-name="j" unicode="j" horiz-adv-x="555" 
d="M172 1163v240h250v-240h-250zM69 -156q58 0 80.5 36t22.5 120v997h250v-1024q0 -244 -125 -285.5t-203 -41.5t-139 10l4 197q52 -9 110 -9z" />
    <glyph glyph-name="k" unicode="k" horiz-adv-x="1110" 
d="M393 0h-250v1364h250v-752l379 385h299l-483 -489l502 -508h-295l-402 406v-406z" />
    <glyph glyph-name="l" unicode="l" horiz-adv-x="667" 
d="M472 -16q-338 0 -339 325v1055h250v-1028q0 -86 24.5 -119t92.5 -33h38q37 0 52 2v-194q-32 -8 -118 -8z" />
    <glyph glyph-name="m" unicode="m" horiz-adv-x="1824" 
d="M769 1016q163 0 237 -178q82 115 192.5 146.5t165.5 31.5q168 0 248 -105.5t80 -277.5v-633h-250v596q0 197 -176 197q-89 0 -156.5 -69.5t-67.5 -168.5v-555h-249v596q0 197 -179 197q-88 0 -154.5 -68.5t-66.5 -169.5v-555h-250v997h246v-157q47 72 132 124t248 52z
" />
    <glyph glyph-name="n" unicode="n" horiz-adv-x="1189" 
d="M807 596q0 197 -180 197q-88 0 -161 -69t-73 -169v-555h-250v997h244v-157q47 72 138 124t202 52q168 0 249 -105.5t81 -277.5v-633h-250v596z" />
    <glyph glyph-name="o" unicode="o" horiz-adv-x="1144" 
d="M829 499.5q0 145.5 -68.5 233.5t-189 88t-187.5 -88t-67 -233.5t67 -232.5t187.5 -87t189 87t68.5 232.5zM935.5 135q-143.5 -151 -365.5 -151t-363 152t-141 364t141 364t363 152t365.5 -151t143.5 -365t-143.5 -365z" />
    <glyph glyph-name="p" unicode="p" horiz-adv-x="1204" 
d="M887 499.5q0 137.5 -62.5 228.5t-175.5 91t-179.5 -90t-66.5 -230t64.5 -229.5t179.5 -89.5t177.5 91t62.5 228.5zM1026 139q-113 -155 -310 -155t-313 159v-481h-251v1335h251v-143q53 72 132 117t179 45t180.5 -45t162.5 -157.5t82 -316.5q0 -203 -113 -358z" />
    <glyph glyph-name="q" unicode="q" horiz-adv-x="1193" 
d="M734 729q-67 90 -178 90t-176 -90t-65 -267.5t91.5 -229.5t150.5 -52q115 0 179.5 89.5t64.5 229.5t-67 230zM801 -338v481q-115 -159 -312 -159t-310 154t-113 359t114.5 362t317.5 157q92 0 171 -45t132 -117v143h250v-1335h-250z" />
    <glyph glyph-name="r" unicode="r" horiz-adv-x="772" 
d="M727 780q-166 0 -250 -93t-84 -243v-444h-250v997h244v-180q34 74 135 136.5t205 62.5v-236z" />
    <glyph glyph-name="s" unicode="s" horiz-adv-x="983" 
d="M547 823q-119 0 -154 -18.5t-35 -51.5t10.5 -50t36 -32.5t68.5 -32.5t123 -49q187 -75 249 -130.5t62 -184.5t-116 -209.5t-312 -80.5t-397 90l55 174q201 -72 364 -72t163 94q0 43 -36.5 66.5t-145.5 68.5q-222 90 -292.5 150.5t-70.5 181.5q0 279 403 279
q195 0 350 -53l-43 -183q-163 43 -282 43z" />
    <glyph glyph-name="t" unicode="t" horiz-adv-x="720" 
d="M498 -16q-150 0 -234 73.5t-84 229.5v542h-131v168h131v281h250v-281h180v-168h-180v-526q0 -78 33 -102.5t77 -24.5t76 8l23 -184q-71 -16 -141 -16z" />
    <glyph glyph-name="u" unicode="u" horiz-adv-x="1185" 
d="M379 403q0 -196 178 -196q86 0 160 66.5t74 168.5v555h251v-997h-245v160q-47 -72 -137.5 -124t-200.5 -52q-170 0 -250 104.5t-80 276.5v632h250v-594z" />
    <glyph glyph-name="v" unicode="v" horiz-adv-x="1026" 
d="M637 0h-248l-373 997h244l254 -739l254 739h242z" />
    <glyph glyph-name="w" unicode="w" horiz-adv-x="1449" 
d="M1153 0h-242l-186 696l-190 -696h-242l-283 997h232l180 -712l192 712h220l190 -710l180 710h236z" />
    <glyph glyph-name="x" unicode="x" horiz-adv-x="1015" 
d="M727 0l-219 317l-217 -317h-260l348 508l-340 489h260l209 -311l211 311h260l-342 -489l348 -508h-258z" />
    <glyph glyph-name="y" unicode="y" horiz-adv-x="1011" 
d="M500 -338h-242l127 340l-381 995h244l256 -727l250 727h243z" />
    <glyph glyph-name="z" unicode="z" horiz-adv-x="1105" 
d="M123 0v188l557 621h-514v188h817v-186l-565 -621h575v-190h-870z" />
    <glyph glyph-name="braceleft" unicode="{" horiz-adv-x="661" 
d="M424 -293q-174 0 -200.5 95.5t-26.5 142.5v483q0 78 -25 111.5t-84 33.5h-33v181h33q59 0 84 34.5t25 112.5v481q0 163 82.5 199.5t144.5 36.5h229v-182h-114q-49 0 -68.5 -27t-19.5 -76v-401q0 -111 -63.5 -187.5t-201.5 -80.5q137 -4 201 -81t64 -188v-403
q0 -49 19 -75t69 -26h114v-184h-229z" />
    <glyph glyph-name="bar" unicode="|" horiz-adv-x="600" 
d="M209 -410v2048h182v-2048h-182z" />
    <glyph glyph-name="braceright" unicode="}" horiz-adv-x="669" 
d="M580 573q-59 0 -83 -33.5t-24 -111.5v-483q0 -164 -83 -201t-144 -37h-232v184h117q49 0 68.5 26t19.5 75v403q0 181 96.5 224t165.5 45q-196 6 -229 109.5t-33 158.5v401q0 49 -19.5 76t-68.5 27h-117v182h232q116 0 171.5 -65t55.5 -171v-481q0 -78 23.5 -112.5
t83.5 -34.5h34l-2 -181h-32z" />
    <glyph glyph-name="asciitilde" unicode="~" horiz-adv-x="1003" 
d="M671 410q-58 0 -107.5 25.5t-92.5 56t-82 56t-73 25.5q-56 0 -87.5 -41.5t-66.5 -119.5l-117 55q33 112 85 179t98 96.5t104 29.5t107.5 -25.5t92.5 -55t82 -55.5t73 -26q56 0 90.5 45.5t66.5 116.5l114 -57q-69 -202 -149 -253.5t-138 -51.5z" />
    <glyph glyph-name="nonbreakingspace" unicode="&#xa0;" horiz-adv-x="552" 
 />
    <glyph glyph-name="exclamdown" unicode="&#xa1;" horiz-adv-x="655" 
d="M188 1077v287h279v-287h-279zM199 0v348l67 590h121l70 -590v-348h-258z" />
    <glyph glyph-name="cent" unicode="&#xa2;" horiz-adv-x="978" 
d="M315 500q0 -127 64.5 -211t200.5 -101v625q-135 -16 -200 -101t-65 -212zM629 -143h-49v129q-232 12 -373 157t-141 356t140.5 357t373.5 158v129h49v-127q137 -4 248 -47l-41 -181q-89 27 -195 27h-12v-627l10 -6q85 0 197 31l41 -182q-108 -42 -248 -47v-127z" />
    <glyph glyph-name="sterling" unicode="&#xa3;" horiz-adv-x="1421" 
d="M840 1159q-193 0 -259.5 -30.5t-66.5 -103.5t20.5 -140.5t55.5 -165.5h416v-139h-394v-11q6 -204 -82 -360h695v-209h-1088v209h131q82 188 82 364v7h-190v139h170q-76 184 -76 295q0 370 539 370q280 0 481 -67l-39 -213q-202 55 -395 55z" />
    <glyph glyph-name="currency" unicode="&#xa4;" horiz-adv-x="1470" 
d="M986 1153q-175 0 -300 -78t-174 -209h367v-114h-396q-4 -32 -4 -39v-47q0 -39 4 -58h396v-116h-365q51 -129 175 -206t296 -77t332 41l35 -213q-178 -60 -347 -60q-300 0 -500.5 145.5t-260.5 369.5h-199v116h176q-4 36 -4 73t4 71h-176v114h197q62 226 260 372t473 146
q173 0 251.5 -20.5t127.5 -34.5l-37 -217q-156 41 -331 41z" />
    <glyph glyph-name="yen" unicode="&#xa5;" horiz-adv-x="1243" 
d="M1090 786v-147h-277l-61 -98v-58h338v-147h-338v-336h-260v336h-338v147h338v58l-58 98h-280v147h194l-344 578h264l355 -592l352 592h264l-342 -578h193z" />
    <glyph glyph-name="brokenbar" unicode="&#xa6;" horiz-adv-x="600" 
d="M209 -410v846h182v-846h-182zM209 793v845h182v-845h-182z" />
    <glyph glyph-name="section" unicode="&#xa7;" horiz-adv-x="1167" 
d="M829 504q0 41 -13 61.5t-46 40t-135 59.5q-102 39 -115.5 44.5t-25.5 9.5q-47 -23 -78 -65t-31 -83q0 -71 51 -113t189 -93l61 -25q61 23 102 73t41 91zM663 1184q-169 0 -224.5 -25.5t-55.5 -83.5t50 -89t201 -91q150 -60 221 -92.5t138.5 -88.5t67.5 -186
q0 -76 -42 -150.5t-124 -127.5q132 -70 149 -142t17 -138t-36 -128.5t-134 -129t-324 -66.5q-225 0 -461 98l50 182q235 -82 417 -82q256 0 256 138q0 31 -14 51t-48 39.5t-92.5 41t-151.5 57.5q-198 77 -283.5 160.5t-85.5 233.5t153 242q-82 49 -117.5 110.5t-35.5 153.5
q0 313 462 313q239 0 408 -57l-33 -190q-159 47 -328 47z" />
    <glyph glyph-name="dieresis" unicode="&#xa8;" horiz-adv-x="825" 
d="M127 1147v205h201v-205h-201zM496 1147v205h202v-205h-202z" />
    <glyph glyph-name="copyright" unicode="&#xa9;" horiz-adv-x="1513" 
d="M821 922q-129 0 -197.5 -68t-68.5 -172t68.5 -171t197.5 -67q57 0 156 21l18 -107q-92 -30 -183 -30t-160.5 27.5t-121 75.5t-79 112.5t-27.5 177.5t108.5 214t272.5 101q103 0 192 -28l-20 -109q-104 23 -156 23zM1337 682q0 117 -42 226.5t-117.5 192.5t-182 133
t-237.5 50t-237.5 -50t-183.5 -133t-119 -192.5t-42 -226.5t42 -226.5t119 -193.5t183.5 -134t237.5 -50t237.5 50t182 134t117.5 193.5t42 226.5zM1444 681q0 -144 -51.5 -272t-143.5 -223.5t-218 -152t-273.5 -56.5t-273.5 56.5t-218 152t-144 223.5t-52 272t52 272
t144 224.5t218 151.5t273.5 55t273.5 -55t218 -151.5t143.5 -224.5t51.5 -272z" />
    <glyph glyph-name="ordfeminine" unicode="&#xaa;" horiz-adv-x="792" 
d="M508 981h-141q-104 0 -105 -84q0 -80 105 -80q66 0 103.5 39t37.5 100v25zM342 1253q-100 0 -195 -14l-14 123q113 22 246 22t215 -60t82 -183v-430h-158v73q-68 -86 -184 -86t-177 56.5t-61 146.5t55.5 139.5t159.5 49.5h197v55q0 55 -33 81.5t-133 26.5z" />
    <glyph glyph-name="guillemotleft" unicode="&#xab;" horiz-adv-x="1259" 
d="M983 0l-469 498l467 499l111 -102l-373 -395l373 -398zM532 0l-466 498l466 499l111 -102l-373 -395l373 -398z" />
    <glyph glyph-name="logicalnot" unicode="&#xac;" horiz-adv-x="1114" 
d="M737 0v401h-624v177h813v-578h-189z" />
    <glyph glyph-name="registered" unicode="&#xae;" horiz-adv-x="1513" 
d="M928 811q0 49 -33 79t-78 30h-203v-218h203q47 0 79 30t32 79zM614 598v-260h-133v690h361q98 0 159.5 -65.5t61.5 -141.5q0 -151 -135 -205l205 -278h-160l-191 260h-168zM1335 682q0 117 -41 226.5t-116.5 192.5t-182 133t-237.5 50t-237.5 -50t-183.5 -133
t-119 -192.5t-42 -226.5t42 -226.5t119 -193.5t183.5 -134t237.5 -50t237.5 50t182 134t116.5 193.5t41 226.5zM1444 681q0 -144 -51.5 -272t-143.5 -223.5t-218 -152t-273.5 -56.5t-273.5 56.5t-218 152t-144 223.5t-52 272t52 272t144 224.5t218 151.5t273.5 55t273.5 -55
t218 -151.5t143.5 -224.5t51.5 -272z" />
    <glyph glyph-name="macron" unicode="&#xaf;" horiz-adv-x="792" 
d="M127 1231v112h539v-112h-539z" />
    <glyph glyph-name="degree" unicode="&#xb0;" horiz-adv-x="634" 
d="M471 1163.5q0 63.5 -44 110.5t-109.5 47t-110.5 -47t-45 -110.5t45 -109.5t110.5 -46t109.5 46t44 109.5zM474.5 1006q-64.5 -66 -157.5 -66t-157 66t-64 157t63.5 156t157.5 65q93 0 157.5 -64.5t64.5 -156.5q0 -91 -64.5 -157z" />
    <glyph glyph-name="plusminus" unicode="&#xb1;" horiz-adv-x="1206" 
d="M115 0v162h395v235h-395v181h395v399h186v-399h396v-181h-396v-235h396v-162h-977z" />
    <glyph glyph-name="twosuperior" unicode="&#xb2;" horiz-adv-x="1363" 
d="M1364 1024v-342h-342v342h342zM1022 1024h-340v340h340v-340zM340 342h342v-342h-342v342zM340 342h-340v340h340v-340zM340 1024h342v-342h-342v342zM340 1024h-340v340h340v-340zM682 342v340h340v-340h-340zM1022 342h342v-342h-342v342z" />
    <glyph glyph-name="threesuperior" unicode="&#xb3;" horiz-adv-x="1363" 
d="M1364 1024v-342h-342v342h342zM1022 1024h-340v340h340v-340zM340 342h342v-342h-342v342zM340 342h-340v340h340v-340zM340 1024h342v-342h-342v342zM340 1024h-340v340h340v-340zM682 342v340h340v-340h-340zM1022 342h342v-342h-342v342z" />
    <glyph glyph-name="acute" unicode="&#xb4;" horiz-adv-x="671" 
d="M293 1128h-166l190 267h258z" />
    <glyph glyph-name="mu" unicode="&#xb5;" horiz-adv-x="1185" 
d="M379 403q0 -196 178 -196q86 0 160 66.5t74 168.5v555h251v-997h-245v160q-47 -72 -137.5 -124t-200.5 -52q-47 0 -80 16v-338h-250v1335h250v-594z" />
    <glyph glyph-name="paragraph" unicode="&#xb6;" horiz-adv-x="931" 
d="M616 0v1280h-143v-1280h-127v762q-125 0 -213 88t-88 213t88 213t213 88h397v-1364h-127z" />
    <glyph glyph-name="periodcentered" unicode="&#xb7;" horiz-adv-x="591" 
d="M158 457v288h276v-288h-276z" />
    <glyph glyph-name="cedilla" unicode="&#xb8;" horiz-adv-x="753" 
d="M304 -453q81 0 120 29t39 77q0 95 -135 95q-50 0 -148 -8l58 260h135q-21 -80 -43 -145q20 2 24 2h37q111 0 173.5 -53.5t62.5 -150.5t-84 -157.5t-204 -60.5t-212 33l29 98q67 -19 148 -19z" />
    <glyph glyph-name="onesuperior" unicode="&#xb9;" horiz-adv-x="1363" 
d="M1364 1024v-342h-342v342h342zM1022 1024h-340v340h340v-340zM340 342h342v-342h-342v342zM340 342h-340v340h340v-340zM340 1024h342v-342h-342v342zM340 1024h-340v340h340v-340zM682 342v340h340v-340h-340zM1022 342h342v-342h-342v342z" />
    <glyph glyph-name="ordmasculine" unicode="&#xba;" horiz-adv-x="823" 
d="M582 1040.5q0 96.5 -46.5 154.5t-124 58t-123.5 -58t-46 -154.5t46 -154t123.5 -57.5t124 57.5t46.5 154zM748 1040.5q0 -67.5 -25 -130t-69 -108.5t-105.5 -74t-137 -28t-137 28t-105.5 74t-68.5 108.5t-24.5 130t24.5 130t68.5 110.5t105.5 75.5t137 27.5t137 -27.5
t105.5 -75.5t69 -110.5t25 -130z" />
    <glyph glyph-name="guillemotright" unicode="&#xbb;" horiz-adv-x="1259" 
d="M276 0l-106 102l371 398l-371 395l109 102l466 -499zM727 0l-111 102l373 398l-373 395l111 102l467 -499z" />
    <glyph glyph-name="onequarter" unicode="&#xbc;" horiz-adv-x="1363" 
d="M1364 1024v-342h-342v342h342zM1022 1024h-340v340h340v-340zM340 342h342v-342h-342v342zM340 342h-340v340h340v-340zM340 1024h342v-342h-342v342zM340 1024h-340v340h340v-340zM682 342v340h340v-340h-340zM1022 342h342v-342h-342v342z" />
    <glyph glyph-name="onehalf" unicode="&#xbd;" horiz-adv-x="1363" 
d="M1364 1024v-342h-342v342h342zM1022 1024h-340v340h340v-340zM340 342h342v-342h-342v342zM340 342h-340v340h340v-340zM340 1024h342v-342h-342v342zM340 1024h-340v340h340v-340zM682 342v340h340v-340h-340zM1022 342h342v-342h-342v342z" />
    <glyph glyph-name="threequarters" unicode="&#xbe;" horiz-adv-x="1363" 
d="M1364 1024v-342h-342v342h342zM1022 1024h-340v340h340v-340zM340 342h342v-342h-342v342zM340 342h-340v340h340v-340zM340 1024h342v-342h-342v342zM340 1024h-340v340h340v-340zM682 342v340h340v-340h-340zM1022 342h342v-342h-342v342z" />
    <glyph glyph-name="questiondown" unicode="&#xbf;" horiz-adv-x="1144" 
d="M457 1077v287h276v-287h-276zM106 354q0 143 109 285.5t340 312.5l111 -151q-74 -72 -192 -181t-118 -244q0 -97 64.5 -138t231.5 -41t356 51l41 -199q-248 -72 -470 -72q-223 0 -348 98.5t-125 278.5z" />
    <glyph glyph-name="Agrave" unicode="&#xc0;" 
d="M580 1475l-283 266h258l190 -266h-165zM672 1096l-207 -592h414zM1061 0l-117 305h-545l-116 -305h-258l530 1364h233l531 -1364h-258z" />
    <glyph glyph-name="Aacute" unicode="&#xc1;" 
d="M762 1475h-168l190 266h258zM672 1096l-207 -592h414zM1061 0l-117 305h-545l-116 -305h-258l530 1364h233l531 -1364h-258z" />
    <glyph glyph-name="Acircumflex" unicode="&#xc2;" 
d="M797 1464l-125 146l-125 -146h-195l226 269h182l231 -269h-194zM672 1096l-207 -592h414zM1061 0l-117 305h-545l-116 -305h-258l530 1364h233l531 -1364h-258z" />
    <glyph glyph-name="Atilde" unicode="&#xc3;" 
d="M815 1593q56 0 105 111l77 -39q-40 -133 -98.5 -171t-98.5 -38t-73 17.5t-62.5 39t-56 39t-53.5 17.5q-58 0 -102 -111l-82 37q40 133 98.5 171t97.5 38t73 -17.5t63.5 -38t57 -38t54.5 -17.5zM672 1096l-207 -592h414zM1061 0l-117 305h-545l-116 -305h-258l530 1364
h233l531 -1364h-258z" />
    <glyph glyph-name="Adieresis" unicode="&#xc4;" 
d="M385 1477v204h203v-204h-203zM756 1477v204h202v-204h-202zM672 1096l-207 -592h414zM1061 0l-117 305h-545l-116 -305h-258l530 1364h233l531 -1364h-258z" />
    <glyph glyph-name="Aring" unicode="&#xc5;" 
d="M780 1622q0 45 -29.5 80t-79.5 35t-78 -35t-28 -80t28 -79t78 -34t78.5 34t28.5 79h2zM672 1096l-207 -592h414zM874 1622q0 -84 -60 -142.5t-144 -58.5t-142.5 58.5t-58.5 142.5t59.5 143.5t141.5 59.5t143 -59.5t61 -143.5zM1061 0l-117 305h-545l-116 -305h-258
l530 1364h233l531 -1364h-258z" />
    <glyph glyph-name="AE" unicode="&#xc6;" horiz-adv-x="1835" 
d="M678 1096l-211 -592h352zM1708 1364v-225h-807l88 -322h656v-225h-598l98 -367h563v-225h-770l-74 305h-463l-116 -305h-260l530 1364h1153z" />
    <glyph glyph-name="Ccedilla" unicode="&#xc7;" horiz-adv-x="1337" 
d="M830 -143h38q111 0 173.5 -53.5t62.5 -150.5t-84 -157.5t-204 -60.5t-212 33l29 98q66 -19 148 -19q81 0 120 29t39 77q0 95 -135 95q-48 0 -148 -8l54 246q-280 36 -452.5 227.5t-172.5 483.5t212.5 489.5t545.5 197.5q218 0 377 -55l-52 -215q-147 39 -284 39
t-235.5 -35t-166 -96t-101.5 -148.5t-34 -248t139.5 -288.5t389.5 -128q164 0 292 37l52 -209q-164 -60 -377 -60q-32 -110 -37 -122q20 2 23 2z" />
    <glyph glyph-name="Egrave" unicode="&#xc8;" horiz-adv-x="1294" 
d="M614 1475l-280 266h258l190 -266h-168zM188 0v1364h979v-225h-716v-322h673v-225h-673v-367h716v-225h-979z" />
    <glyph glyph-name="Eacute" unicode="&#xc9;" horiz-adv-x="1294" 
d="M731 1475h-168l191 266h258zM188 0v1364h979v-225h-716v-322h673v-225h-673v-367h716v-225h-979z" />
    <glyph glyph-name="Ecircumflex" unicode="&#xca;" horiz-adv-x="1294" 
d="M793 1464l-125 146l-125 -146h-193l225 269h183l229 -269h-194zM188 0v1364h979v-225h-716v-322h673v-225h-673v-367h716v-225h-979z" />
    <glyph glyph-name="Edieresis" unicode="&#xcb;" horiz-adv-x="1294" 
d="M772 1477v204h201v-204h-201zM401 1477v204h203v-204h-203zM188 0v1364h979v-225h-716v-322h673v-225h-673v-367h716v-225h-979z" />
    <glyph glyph-name="Igrave" unicode="&#xcc;" horiz-adv-x="659" 
d="M248 1475l-283 266h258l191 -266h-166zM199 0v1364h262v-1364h-262z" />
    <glyph glyph-name="Iacute" unicode="&#xcd;" horiz-adv-x="659" 
d="M418 1475h-166l190 266h258zM199 0v1364h262v-1364h-262z" />
    <glyph glyph-name="Icircumflex" unicode="&#xce;" horiz-adv-x="659" 
d="M455 1464l-125 146l-125 -146h-193l226 269h182l229 -269h-194zM199 0v1364h262v-1364h-262z" />
    <glyph glyph-name="Idieresis" unicode="&#xcf;" horiz-adv-x="659" 
d="M43 1477v204h201v-204h-201zM412 1477v204h202v-204h-202zM197 0v1364h262v-1364h-262z" />
    <glyph glyph-name="Eth" unicode="&#xd0;" horiz-adv-x="1472" 
d="M1137 682q0 222 -156 336.5t-383 114.5h-94v-367h276v-168h-276v-367h94q227 0 383 114.5t156 336.5zM1170.5 192.5q-236.5 -192.5 -619.5 -192.5h-307v598h-158v168h158v598h307q379 0 617.5 -192t238.5 -489.5t-236.5 -490z" />
    <glyph glyph-name="Ntilde" unicode="&#xd1;" horiz-adv-x="1570" 
d="M659 1569q-58 0 -102 -111l-82 37q41 134 99.5 171.5t97.5 37.5t72.5 -17.5t63.5 -38t58 -38t50 -17.5q38 0 66.5 38.5t41.5 72.5l78 -39q-41 -134 -99.5 -171.5t-98.5 -37.5t-73.5 17.5t-62.5 39t-55.5 39t-53.5 17.5zM444 0h-256v1364h256l680 -950v950h258v-1364h-256
l-682 950v-950z" />
    <glyph glyph-name="Ograve" unicode="&#xd2;" horiz-adv-x="1536" 
d="M682 1475l-283 266h258l191 -266h-166zM461.5 1019.5q-113.5 -133.5 -113.5 -340.5q0 -206 114 -338t305 -132t307 130.5t116 339.5t-115.5 341.5t-307.5 132.5t-305.5 -133.5zM1450 680q0 -145 -52 -273t-143.5 -223.5t-216.5 -151t-270 -55.5t-270 55.5t-216.5 151
t-143.5 223.5t-52 273t52 273t143.5 224.5t216.5 151.5t270 55t270 -55t216.5 -151.5t143.5 -224.5t52 -273z" />
    <glyph glyph-name="Oacute" unicode="&#xd3;" horiz-adv-x="1536" 
d="M860 1475h-168l191 266h258zM461.5 1019.5q-113.5 -133.5 -113.5 -340.5q0 -206 114 -338t305 -132t307 130.5t116 339.5t-115.5 341.5t-307.5 132.5t-305.5 -133.5zM1450 680q0 -145 -52 -273t-143.5 -223.5t-216.5 -151t-270 -55.5t-270 55.5t-216.5 151t-143.5 223.5
t-52 273t52 273t143.5 224.5t216.5 151.5t270 55t270 -55t216.5 -151.5t143.5 -224.5t52 -273z" />
    <glyph glyph-name="Ocircumflex" unicode="&#xd4;" horiz-adv-x="1536" 
d="M895 1464l-123 146l-125 -146h-194l227 269h180l230 -269h-195zM461.5 1019.5q-113.5 -133.5 -113.5 -340.5q0 -206 114 -338t305 -132t307 130.5t116 339.5t-115.5 341.5t-307.5 132.5t-305.5 -133.5zM1450 680q0 -145 -52 -273t-143.5 -223.5t-216.5 -151t-270 -55.5
t-270 55.5t-216.5 151t-143.5 223.5t-52 273t52 273t143.5 224.5t216.5 151.5t270 55t270 -55t216.5 -151.5t143.5 -224.5t52 -273z" />
    <glyph glyph-name="Otilde" unicode="&#xd5;" horiz-adv-x="1536" 
d="M899 1593q56 0 105 111l77 -39q-40 -133 -98.5 -171t-98.5 -38t-73 17.5t-62.5 39t-56 39t-53.5 17.5q-58 0 -102 -111l-82 37q40 133 98.5 171t97.5 38t73 -17.5t63.5 -38t57 -38t54.5 -17.5zM461.5 1019.5q-113.5 -133.5 -113.5 -340.5q0 -206 114 -338t305 -132
t307 130.5t116 339.5t-115.5 341.5t-307.5 132.5t-305.5 -133.5zM1450 680q0 -145 -52 -273t-143.5 -223.5t-216.5 -151t-270 -55.5t-270 55.5t-216.5 151t-143.5 223.5t-52 273t52 273t143.5 224.5t216.5 151.5t270 55t270 -55t216.5 -151.5t143.5 -224.5t52 -273z" />
    <glyph glyph-name="Odieresis" unicode="&#xd6;" horiz-adv-x="1536" 
d="M481 1477v204h203v-204h-203zM852 1477v204h203v-204h-203zM461.5 1019.5q-113.5 -133.5 -113.5 -340.5q0 -206 114 -338t305 -132t307 130.5t116 339.5t-115.5 341.5t-307.5 132.5t-305.5 -133.5zM1450 680q0 -145 -52 -273t-143.5 -223.5t-216.5 -151t-270 -55.5
t-270 55.5t-216.5 151t-143.5 223.5t-52 273t52 273t143.5 224.5t216.5 151.5t270 55t270 -55t216.5 -151.5t143.5 -224.5t52 -273z" />
    <glyph glyph-name="multiply" unicode="&#xd7;" horiz-adv-x="1015" 
d="M788 70l-280 278l-279 -278l-133 131l279 278l-279 281l133 133l279 -279l280 279l132 -133l-279 -281l279 -278z" />
    <glyph glyph-name="Oslash" unicode="&#xd8;" horiz-adv-x="1536" 
d="M1190 682q0 164 -76 285l-627 -652q110 -106 291 -106t296.5 132t115.5 341zM1051 1047q-110 106 -292 106q-181 0 -297 -130.5t-116 -319.5t76 -310zM1450 682q0 -145 -52 -273t-143.5 -224.5t-216.5 -152t-270 -55.5q-250 0 -446 168l-162 -168l-74 72l164 170
q-164 193 -164 463q0 145 52 273t143.5 223.5t216.5 150.5t270 55q251 0 446 -167l162 167l74 -71l-164 -170q164 -193 164 -461z" />
    <glyph glyph-name="Ugrave" unicode="&#xd9;" horiz-adv-x="1525" 
d="M684 1475l-281 266h259l190 -266h-168zM1358 545q0 -232 -164.5 -400t-429 -168t-430.5 167.5t-166 400.5v819h262v-821q0 -154 93 -243t240 -89t241 88.5t94 243.5v821h260v-819z" />
    <glyph glyph-name="Uacute" unicode="&#xda;" horiz-adv-x="1525" 
d="M842 1475h-166l190 266h258zM1358 545q0 -232 -164.5 -400t-429 -168t-430.5 167.5t-166 400.5v819h262v-821q0 -154 93 -243t240 -89t241 88.5t94 243.5v821h260v-819z" />
    <glyph glyph-name="Ucircumflex" unicode="&#xdb;" horiz-adv-x="1525" 
d="M887 1464l-125 146l-125 -146h-193l226 269h182l229 -269h-194zM1358 545q0 -232 -164.5 -400t-429 -168t-430.5 167.5t-166 400.5v819h262v-821q0 -154 93 -243t240 -89t241 88.5t94 243.5v821h260v-819z" />
    <glyph glyph-name="Udieresis" unicode="&#xdc;" horiz-adv-x="1525" 
d="M477 1477v204h201v-204h-201zM846 1477v204h203v-204h-203zM1358 545q0 -232 -164.5 -400t-429 -168t-430.5 167.5t-166 400.5v819h262v-821q0 -154 93 -243t240 -89t241 88.5t94 243.5v821h260v-819z" />
    <glyph glyph-name="Yacute" unicode="&#xdd;" horiz-adv-x="1243" 
d="M729 1475h-168l191 266h258zM754 0h-262v541l-488 823h264l355 -592l352 592h264l-485 -823v-541z" />
    <glyph glyph-name="Thorn" unicode="&#xde;" horiz-adv-x="1372" 
d="M1063 698.5q0 98.5 -64.5 159t-154.5 60.5h-395v-441h395q94 0 156.5 61.5t62.5 160zM1205.5 393.5q-125.5 -127.5 -324.5 -127.5h-432v-266h-261v1364h261v-234h432q200 0 325 -127t125 -304.5t-125.5 -305z" />
    <glyph glyph-name="germandbls" unicode="&#xdf;" horiz-adv-x="1308" 
d="M814 168q93 0 130 28.5t37 60.5q0 53 -30.5 82.5t-109.5 70.5q-141 72 -188 134.5t-47 136.5t33 117.5t71 82.5t70.5 81t32.5 108t-46 107.5t-125 41.5t-124 -43t-45 -121v-1055h-252v813h-135v168h135v61q0 176 112.5 274.5t304.5 98.5t308.5 -100t116.5 -242
q0 -86 -32 -141t-70.5 -95t-70.5 -71t-32 -67t19.5 -57t86.5 -54q142 -70 200.5 -134t58.5 -188q0 -125 -101.5 -205.5t-267.5 -80.5t-289 59l47 172q109 -43 202 -43z" />
    <glyph glyph-name="agrave" unicode="&#xe0;" horiz-adv-x="1046" 
d="M694 408h-217q-76 0 -116 -29t-39 -96q0 -121 155 -121q100 0 159 57q58 57 58 152v37zM500 1016q198 0 321 -90t123 -277v-649h-239v111q-104 -129 -297 -127q-152 0 -245 85t-92 219t86 209t238 74h299v84q0 82 -51 123t-183 41t-313 -22l-20 184q175 35 373 35z
M412 1128l-283 267h258l191 -267h-166z" />
    <glyph glyph-name="aacute" unicode="&#xe1;" horiz-adv-x="1046" 
d="M694 408h-217q-76 0 -116 -29t-39 -96q0 -121 155 -121q100 0 159 57q58 57 58 152v37zM500 1016q198 0 321 -90t123 -277v-649h-239v111q-104 -129 -297 -127q-152 0 -245 85t-92 219t86 209t238 74h299v84q0 82 -51 123t-183 41t-313 -22l-20 184q175 35 373 35z
M565 1128h-166l191 267h258z" />
    <glyph glyph-name="acircumflex" unicode="&#xe2;" horiz-adv-x="1046" 
d="M694 408h-217q-76 0 -116 -29t-39 -96q0 -121 155 -121q100 0 159 57q58 57 58 152v37zM500 1016q198 0 321 -90t123 -277v-649h-239v111q-104 -129 -297 -127q-152 0 -245 85t-92 219t86 209t238 74h299v84q0 82 -51 123t-183 41t-313 -22l-20 184q175 35 373 35z
M643 1126l-125 144l-125 -144h-192l225 269h182l230 -269h-195z" />
    <glyph glyph-name="atilde" unicode="&#xe3;" horiz-adv-x="1046" 
d="M694 408h-217q-76 0 -116 -29t-39 -96q0 -121 155 -121q100 0 159 57q58 57 58 152v37zM500 1016q198 0 321 -90t123 -277v-649h-239v111q-104 -129 -297 -127q-152 0 -245 85t-92 219t86 209t238 74h299v84q0 82 -51 123t-183 41t-313 -22l-20 184q175 35 373 35z
M406 1245q-56 0 -103 -110l-82 36q41 134 126 189q32 20 80 20t127 -55l57 -38q28 -17 60 -17t59 39q28 39 40 71l78 -39q-40 -133 -126 -188q-32 -20 -72 -20t-72 17t-63 39t-57 39t-52 17z" />
    <glyph glyph-name="adieresis" unicode="&#xe4;" horiz-adv-x="1046" 
d="M694 408h-217q-76 0 -116 -29t-39 -96q0 -121 155 -121q100 0 159 57q58 57 58 152v37zM500 1016q198 0 321 -90t123 -277v-649h-239v111q-104 -129 -297 -127q-152 0 -245 85t-92 219t86 209t238 74h299v84q0 82 -51 123t-183 41t-313 -22l-20 184q175 35 373 35z
M240 1147v205h200v-205h-200zM608 1147v205h203v-205h-203z" />
    <glyph glyph-name="aring" unicode="&#xe5;" horiz-adv-x="1046" 
d="M694 408h-217q-76 0 -116 -29t-39 -96q0 -121 155 -121q100 0 159 57q58 57 58 152v37zM500 1016q198 0 321 -90t123 -277v-649h-239v111q-104 -129 -297 -127q-152 0 -245 85t-92 219t86 209t238 74h299v84q0 82 -51 123t-183 41t-313 -22l-20 184q175 35 373 35z
M616 1303q0 45 -28 79t-80 33q-51 0 -78 -34q-27 -35 -27 -79t28 -78t77 -34t79 34q29 34 29 79zM711 1303q-1 -41 -17 -78q-34 -76 -108 -109q-37 -16 -78 -16q-84 0 -142 58q-57 58 -58 143q-2 85 58 145t143 59t143 -61q59 -60 59 -141z" />
    <glyph glyph-name="ae" unicode="&#xe6;" horiz-adv-x="1720" 
d="M477 418q-155 0 -155 -128t155 -128q104 0 159.5 57t55.5 152v47h-215zM1181 823q-101 0 -165 -60.5t-78 -174.5h467q-10 109 -66.5 172t-157.5 63zM852 887q129 129 334 129t330.5 -143.5t125.5 -378.5v-70h-704q4 -113 83 -178.5t225 -65.5t296 39l45 -180
q-156 -55 -334 -55q-275 0 -426 157q-121 -157 -358 -157q-182 0 -289.5 86.5t-107.5 224.5q0 137 85 212t238 75h297v73q0 82 -51 123t-182 41t-312 -22l-20 184q175 35 348 35q266 0 377 -129z" />
    <glyph glyph-name="ccedilla" unicode="&#xe7;" horiz-adv-x="995" 
d="M637 182q87 0 199 31l41 -182q-97 -37 -240 -47q-29 -98 -39 -129q20 2 24 2h37q111 0 173.5 -53.5t62.5 -150.5t-84 -157.5t-203 -60.5t-213 33l29 98q66 -19 148 -19q81 0 120 29t39 77q0 95 -135 95q-49 0 -147 -8l55 254q-198 32 -318 171t-120 349t153.5 356
t396.5 146q140 0 261 -43l-41 -180q-97 22 -199 22q-164 0 -243 -87t-79 -227t79 -229.5t243 -89.5z" />
    <glyph glyph-name="egrave" unicode="&#xe8;" horiz-adv-x="1093" 
d="M778 594q-21 229 -227 229q-97 0 -161 -57t-79 -172h467zM648 -16q-283 0 -434 141q-150 141 -149 367t134 375t350 149q216 0 341 -145q126 -145 126 -377v-76h-707q4 -113 92 -175q88 -63 233 -63t288 39l45 -180q-163 -55 -319 -55zM457 1128l-283 267h258l191 -267
h-166z" />
    <glyph glyph-name="eacute" unicode="&#xe9;" horiz-adv-x="1093" 
d="M778 594q-21 229 -227 229q-97 0 -161 -57t-79 -172h467zM648 -16q-283 0 -434 141q-150 141 -149 367t134 375t350 149q216 0 341 -145q126 -145 126 -377v-76h-707q4 -113 92 -175q88 -63 233 -63t288 39l45 -180q-163 -55 -319 -55zM637 1128h-166l191 267h258z" />
    <glyph glyph-name="ecircumflex" unicode="&#xea;" horiz-adv-x="1093" 
d="M778 594q-21 229 -227 229q-97 0 -161 -57t-79 -172h467zM648 -16q-283 0 -434 141q-150 141 -149 367t134 375t350 149q216 0 341 -145q126 -145 126 -377v-76h-707q4 -113 92 -175q88 -63 233 -63t288 39l45 -180q-163 -55 -319 -55zM692 1126l-125 144l-125 -144h-192
l225 269h182l230 -269h-195z" />
    <glyph glyph-name="edieresis" unicode="&#xeb;" horiz-adv-x="1093" 
d="M778 594q-21 229 -227 229q-97 0 -161 -57t-79 -172h467zM648 -16q-283 0 -434 141q-150 141 -149 367t134 375t350 149q216 0 341 -145q126 -145 126 -377v-76h-707q4 -113 92 -175q88 -63 233 -63t288 39l45 -180q-163 -55 -319 -55zM270 1147v205h201v-205h-201z
M639 1147v205h203v-205h-203z" />
    <glyph glyph-name="igrave" unicode="&#xec;" horiz-adv-x="550" 
d="M195 1128l-283 267h258l190 -267h-165zM145 0v997h250v-997h-250z" />
    <glyph glyph-name="iacute" unicode="&#xed;" horiz-adv-x="550" 
d="M342 1128h-166l191 267h258zM143 0v997h250v-997h-250z" />
    <glyph glyph-name="icircumflex" unicode="&#xee;" horiz-adv-x="550" 
d="M399 1126l-125 144l-124 -144h-193l225 269h183l229 -269h-195zM143 0v997h250v-997h-250z" />
    <glyph glyph-name="idieresis" unicode="&#xef;" horiz-adv-x="550" 
d="M-8 1147v205h201v-205h-201zM360 1147v205h203v-205h-203zM143 0v997h250v-997h-250z" />
    <glyph glyph-name="eth" unicode="&#xf0;" horiz-adv-x="1132" 
d="M734.5 730q-64.5 89 -178.5 89t-178.5 -90t-64.5 -267.5t91.5 -229.5t148.5 -52q112 0 179 90t67 231q0 140 -64.5 229zM1051 628q0 -295 -128 -469.5t-384 -174.5q-222 0 -347.5 155t-125.5 361t112.5 361t319.5 155q94 0 169.5 -44t123.5 -122q-23 139 -103 266
l-88 -69l-37 45l92 73q-76 103 -192 199h239q50 -37 95 -86l92 72l37 -47l-90 -70q98 -123 156.5 -287t58.5 -318z" />
    <glyph glyph-name="ntilde" unicode="&#xf1;" horiz-adv-x="1189" 
d="M807 596q0 195 -180 197q-88 0 -160 -68t-74 -170v-555h-250v997h244v-157q47 72 138 124t202 52q168 0 249 -106t81 -277v-633h-250v596zM752 1133q-40 0 -72 17q-33 17 -63 39q-76 56 -106 56q-58 0 -105 -110l-82 36q41 136 126 189q32 20 81 20t125 -55
q30 -19 58 -37t51 -18q51 0 91 76q10 18 16 34l78 -39q-41 -135 -126 -188q-32 -20 -72 -20z" />
    <glyph glyph-name="ograve" unicode="&#xf2;" horiz-adv-x="1144" 
d="M829 500q0 145 -68 233q-69 88 -190 88t-187 -88t-67 -233q0 -144 67 -232q68 -88 188 -88t189 87q68 88 68 233zM571 1016q222 0 365 -152t143 -363q0 -212 -143 -365q-143 -152 -364 -152q-222 0 -365 153t-142 364t143 363q141 152 363 152zM455 1128l-283 267h258
l191 -267h-166z" />
    <glyph glyph-name="oacute" unicode="&#xf3;" horiz-adv-x="1144" 
d="M829 500q0 145 -68 233q-69 88 -190 88t-187 -88t-67 -233q0 -144 67 -232q68 -88 188 -88t189 87q68 88 68 233zM571 1016q222 0 365 -152t143 -363q0 -212 -143 -365q-143 -152 -364 -152q-222 0 -365 153t-142 364t143 363q141 152 363 152zM659 1128h-165l190 267
h258z" />
    <glyph glyph-name="ocircumflex" unicode="&#xf4;" horiz-adv-x="1144" 
d="M829 500q0 145 -68 233q-69 88 -190 88t-187 -88t-67 -233q0 -144 67 -232q68 -88 188 -88t189 87q68 88 68 233zM571 1016q222 0 365 -152t143 -363q0 -212 -143 -365q-143 -152 -364 -152q-222 0 -365 153t-142 364t143 363q141 152 363 152zM700 1126l-125 144
l-124 -144h-193l225 269h183l229 -269h-195z" />
    <glyph glyph-name="otilde" unicode="&#xf5;" horiz-adv-x="1144" 
d="M829 500q0 145 -68 233q-69 88 -190 88t-187 -88t-67 -233q0 -144 67 -232q68 -88 188 -88t189 87q68 88 68 233zM571 1016q222 0 365 -152t143 -363q0 -212 -143 -365q-143 -152 -364 -152q-222 0 -365 153t-142 364t143 363q141 152 363 152zM699 1133q-41 0 -73 17
t-62 39q-76 56 -106 56q-50 0 -89 -77q-10 -19 -17 -33l-82 36q41 134 126 189q32 20 82 20t125 -55l57 -38q28 -17 61 -17t59 39q27 39 39 71l78 -39q-10 -33 -28 -69q-37 -80 -99 -119q-32 -20 -71 -20z" />
    <glyph glyph-name="odieresis" unicode="&#xf6;" horiz-adv-x="1144" 
d="M829 500q0 145 -68 233q-69 88 -190 88t-187 -88t-67 -233q0 -144 67 -232q68 -88 188 -88t189 87q68 88 68 233zM571 1016q222 0 365 -152t143 -363q0 -212 -143 -365q-143 -152 -364 -152q-222 0 -365 153t-142 364t143 363q141 152 363 152zM293 1147v205h201v-205
h-201zM662 1147v205h202v-205h-202z" />
    <glyph glyph-name="divide" unicode="&#xf7;" horiz-adv-x="1165" 
d="M721 131q0 -57 -41 -97t-98.5 -40t-97.5 40t-40 97t40 97t97.5 40t98.5 -40t41 -97zM721 811q0 -57 -41 -98t-98.5 -41t-97.5 41t-40 98t40 97t97.5 40t98.5 -40t41 -97zM106 385v170h953v-170h-953z" />
    <glyph glyph-name="oslash" unicode="&#xf8;" horiz-adv-x="1142" 
d="M566 819q-116 0 -183.5 -86.5t-67.5 -208.5t35 -196l400 413q-68 78 -184 78zM827 476q0 122 -34 196l-400 -414q67 -78 183 -78t183.5 87t67.5 209zM958 838q119 -146 119 -349q0 -202 -142 -353.5t-364 -151.5q-187 0 -329 120l-119 -120l-57 55l118 123
q-118 145 -118 348t141 354.5t350 151.5q208 0 346 -121l119 121l55 -55z" />
    <glyph glyph-name="ugrave" unicode="&#xf9;" horiz-adv-x="1185" 
d="M379 403q0 -196 178 -196q88 0 160 66t74 169v555h251v-997h-245v160q-47 -72 -137 -124t-201 -52q-170 0 -250 104t-80 277v632h250v-594zM496 1128l-283 267h258l191 -267h-166z" />
    <glyph glyph-name="uacute" unicode="&#xfa;" horiz-adv-x="1185" 
d="M379 403q0 -196 178 -196q88 0 160 66t74 169v555h251v-997h-245v160q-47 -72 -137 -124t-201 -52q-170 0 -250 104t-80 277v632h250v-594zM662 1128h-166l190 267h258z" />
    <glyph glyph-name="ucircumflex" unicode="&#xfb;" horiz-adv-x="1185" 
d="M379 403q0 -196 178 -196q88 0 160 66t74 169v555h251v-997h-245v160q-47 -72 -137 -124t-201 -52q-170 0 -250 104t-80 277v632h250v-594zM725 1126l-125 144l-125 -144h-192l225 269h182l230 -269h-195z" />
    <glyph glyph-name="udieresis" unicode="&#xfc;" horiz-adv-x="1185" 
d="M379 403q0 -196 178 -196q88 0 160 66t74 169v555h251v-997h-245v160q-47 -72 -137 -124t-201 -52q-170 0 -250 104t-80 277v632h250v-594zM309 1147v205h201v-205h-201zM678 1147v205h203v-205h-203z" />
    <glyph glyph-name="yacute" unicode="&#xfd;" horiz-adv-x="1011" 
d="M500 -338h-242l127 340l-381 995h244l256 -727l250 727h243zM575 1128h-165l190 267h258z" />
    <glyph glyph-name="thorn" unicode="&#xfe;" horiz-adv-x="1193" 
d="M879 499.5q0 138.5 -63.5 229t-175.5 90.5q-113 0 -180 -90t-67 -229.5t67 -229.5t180 -90t176 90.5t63 229zM1015.5 138q-112.5 -154 -310.5 -154q-197 0 -312 159v-479h-250v1700h250v-510q53 72 132 117t178 45t180.5 -45t163 -156.5t81.5 -317.5q0 -205 -112.5 -359z
" />
    <glyph glyph-name="ydieresis" unicode="&#xff;" horiz-adv-x="1011" 
d="M500 -338h-242l127 340l-381 995h244l256 -727l250 727h243zM225 1147v205h201v-205h-201zM594 1147v205h203v-205h-203z" />
    <glyph glyph-name="dotlessi" unicode="&#x131;" horiz-adv-x="536" 
d="M143 0v997h250v-997h-250z" />
    <glyph glyph-name="Lslash" unicode="&#x141;" horiz-adv-x="1210" 
d="M231 0v547l-110 -84l-72 92l182 139v670h263v-467l176 131l69 -92l-245 -186v-525h671v-225h-934z" />
    <glyph glyph-name="lslash" unicode="&#x142;" horiz-adv-x="776" 
d="M614 -16h-98q-226 0 -273.5 119.5t-47.5 205.5v246l-123 -92l-68 90l191 145v666h249v-471l179 135l67 -90l-246 -190v-412q0 -86 25 -119t92 -33h38q38 0 52 2v-196q-24 -6 -37 -6z" />
    <glyph glyph-name="OE" unicode="&#x152;" horiz-adv-x="2080" 
d="M975 1133h-207q-191 0 -306.5 -121.5t-115.5 -329.5q0 -314 162 -382.5t260 -68.5h207v902zM1237 1139v-322h676v-225h-676v-367h717v-225h-1186q-145 0 -270 52t-216.5 143.5t-143.5 216.5t-52 270t52 270t143.5 216.5t216.5 143.5t270 52h1186v-225h-717z" />
    <glyph glyph-name="oe" unicode="&#x153;" horiz-adv-x="1855" 
d="M1316 823q-101 0 -165 -60.5t-78 -174.5h465q-10 109 -65.5 172t-156.5 63zM827 499.5q0 145.5 -67.5 233.5t-188 88t-188.5 -88t-68 -233.5t68 -232.5t188.5 -87t188 87t67.5 232.5zM948 842q136 174 357 174t347 -144.5t126 -377.5v-70h-707q4 -113 83 -178.5
t226 -65.5t297 39l45 -180q-156 -55 -333 -55q-288 0 -441 174q-147 -174 -374 -174q-226 0 -367 152t-141 364t141 364t369 152q227 0 372 -174z" />
    <glyph glyph-name="Scaron" unicode="&#x160;" horiz-adv-x="1341" 
d="M799 1464h-181l-229 269h195l123 -144l124 144h195zM491.5 1131.5q-65.5 -27.5 -65.5 -99.5t68 -113.5t249 -112.5t264 -107.5t157.5 -101.5t74.5 -235t-155 -277.5t-383 -107.5t-379.5 43t-208.5 70l57 203q269 -94 504 -94q145 0 225 42t80 117t-58.5 110.5
t-235.5 101.5q-177 67 -265 109t-171 114t-83 243q0 348 545 348q277 0 491 -67l-39 -209q-217 51 -412 51q-194 0 -259.5 -27.5z" />
    <glyph glyph-name="scaron" unicode="&#x161;" horiz-adv-x="987" 
d="M625 1126h-181l-229 269h195l122 -146l125 146h195zM362 753q0 -33 10.5 -50t36 -32.5t68.5 -32.5t123 -49q187 -75 249 -130.5t62 -184.5t-116 -209.5t-312 -80.5t-397 90l55 174q201 -72 364 -72t163 94q0 43 -38 67.5t-145 68.5q-219 88 -290.5 149t-71.5 182
q0 279 403 279q196 0 351 -53l-43 -183q-164 43 -283 43t-154 -18.5t-35 -51.5z" />
    <glyph glyph-name="Ydieresis" unicode="&#x178;" horiz-adv-x="1243" 
d="M698 1477v204h203v-204h-203zM328 1477v204h202v-204h-202zM754 0h-262v541l-488 823h264l355 -592l352 592h264l-485 -823v-541z" />
    <glyph glyph-name="Zcaron" unicode="&#x17d;" horiz-adv-x="1318" 
d="M772 1464h-182l-230 269h195l125 -144l125 144h192zM106 0v233l795 906h-774v225h1085v-231l-790 -908h811v-225h-1127z" />
    <glyph glyph-name="zcaron" unicode="&#x17e;" horiz-adv-x="1116" 
d="M672 1126h-180l-230 269h195l123 -146l125 146h194zM123 0v188l557 621h-514v188h817v-186l-565 -621h575v-190h-870z" />
    <glyph glyph-name="florin" unicode="&#x192;" horiz-adv-x="978" 
d="M792 1219q-67 0 -103 -41t-50 -115l-14 -80h192l-29 -170h-192l-143 -805q-33 -180 -133.5 -271t-256.5 -91q-81 0 -161 26l59 170q58 -12 80 -12q133 0 160 156l143 827h-135l29 170h137l12 72q31 180 134.5 270t258.5 90q108 0 195 -26l-62 -181q-54 11 -121 11z" />
    <glyph glyph-name="circumflex" unicode="&#x2c6;" horiz-adv-x="890" 
d="M569 1126l-125 144l-125 -144h-192l225 269h183l229 -269h-195z" />
    <glyph glyph-name="caron" unicode="&#x2c7;" horiz-adv-x="890" 
d="M537 1126h-181l-229 269h195l122 -146l125 146h195z" />
    <glyph glyph-name="breve" unicode="&#x2d8;" horiz-adv-x="811" 
d="M684 1364q0 -172 -111.5 -208t-169.5 -36q-117 0 -196.5 62.5t-79.5 181.5h133q0 -59 36 -99t107.5 -40t108.5 36.5t37 102.5h135z" />
    <glyph glyph-name="dotaccent" unicode="&#x2d9;" horiz-adv-x="536" 
d="M143 1163v240h250v-240h-250z" />
    <glyph glyph-name="ring" unicode="&#x2da;" horiz-adv-x="657" 
d="M436 1302.5q0 45.5 -28.5 79t-80 33.5t-78 -33.5t-26.5 -79t28 -79t77 -33.5t78.5 33.5t29.5 79zM530 1302.5q0 -40.5 -16 -77.5t-44 -64.5t-64.5 -44t-77.5 -16.5t-78 16.5t-64.5 44t-43 64.5t-15.5 77.5t15.5 77.5t43 65t64.5 44t78 16t77.5 -16t64.5 -44t44 -65
t16 -77.5z" />
    <glyph glyph-name="ogonek" unicode="&#x2db;" horiz-adv-x="737" 
d="M127 -215q0 53 39 113.5t94 101.5h156q-78 -78 -103.5 -126t-25.5 -93t31.5 -75t90.5 -30t173 35l28 -100q-117 -43 -226 -43q-108 0 -182.5 60.5t-74.5 156.5z" />
    <glyph glyph-name="tilde" unicode="&#x2dc;" horiz-adv-x="880" 
d="M311 1245q-55 0 -102 -110l-82 36q41 134 99.5 171.5t97 37.5t72.5 -17t63.5 -37.5t57.5 -38t51 -17.5q42 0 69.5 40t38.5 70l78 -39q-40 -131 -99 -169.5t-99 -38.5t-72.5 17t-62.5 38.5t-56.5 39t-53.5 17.5z" />
    <glyph glyph-name="hungarumlaut" unicode="&#x2dd;" horiz-adv-x="1058" 
d="M293 1126h-166l188 267h258zM682 1126h-168l191 267h258z" />
    <glyph glyph-name="pi" unicode="&#x3c0;" horiz-adv-x="1261" 
d="M346 0v152h467l-707 706l109 111l707 -709v469h151v-729h-727z" />
    <glyph glyph-name="endash" unicode="&#x2013;" horiz-adv-x="1177" 
d="M117 467v209h944v-209h-944z" />
    <glyph glyph-name="emdash" unicode="&#x2014;" horiz-adv-x="1638" 
d="M117 467v209h1405v-209h-1405z" />
    <glyph glyph-name="quoteleft" unicode="&#x2018;" horiz-adv-x="569" 
d="M158 766v287l141 311h119l-121 -311h137v-287h-276z" />
    <glyph glyph-name="quoteright" unicode="&#x2019;" horiz-adv-x="571" 
d="M135 1077v287h279v-287l-144 -311h-118l122 311h-139z" />
    <glyph glyph-name="quotesinglbase" unicode="&#x201a;" horiz-adv-x="573" 
d="M137 0v289h279v-289l-144 -311h-118l120 311h-137z" />
    <glyph glyph-name="quotedblleft" unicode="&#x201c;" horiz-adv-x="1013" 
d="M598 766v287l143 311h119l-123 -311h140v-287h-279zM158 766v287l141 311h121l-121 -311h135v-287h-276z" />
    <glyph glyph-name="quotedblright" unicode="&#x201d;" horiz-adv-x="1013" 
d="M137 1077v287h279v-287l-144 -311h-118l120 311h-137zM578 1077v287h278v-287l-143 -311h-119l121 311h-137z" />
    <glyph glyph-name="quotedblbase" unicode="&#x201e;" horiz-adv-x="1011" 
d="M575 0v289h279v-289l-143 -311h-119l123 311h-140zM137 0v289h277v-289l-142 -311h-120l120 311h-135z" />
    <glyph glyph-name="dagger" unicode="&#x2020;" horiz-adv-x="978" 
d="M537 897l75 -379l-100 -794h-45l-102 794l77 379l-340 -74v244l340 -72l-75 369h245l-75 -369l340 72v-244z" />
    <glyph glyph-name="daggerdbl" unicode="&#x2021;" horiz-adv-x="980" 
d="M539 897l75 -399l-77 -398l340 72v-242l-340 72l75 -369h-245l75 369l-340 -72v242l340 -72l-75 398l75 399l-338 -74v244l338 -72l-75 369h245l-73 -369l340 72v-244z" />
    <glyph glyph-name="bullet" unicode="&#x2022;" horiz-adv-x="636" 
d="M474 571.5q-67 -63.5 -158 -63.5t-155.5 64.5t-64.5 155.5t63 157.5t157 66.5t159.5 -65.5t65.5 -158.5t-67 -156.5z" />
    <glyph glyph-name="ellipsis" unicode="&#x2026;" horiz-adv-x="1775" 
d="M158 0v289h276v-289h-276zM748 0v289h278v-289h-278zM1339 0v289h279v-289h-279z" />
    <glyph glyph-name="perthousand" unicode="&#x2030;" horiz-adv-x="2576" 
d="M573 1022q0 41 -9 79t-28.5 67.5t-49 48t-70.5 18.5t-71 -18.5t-49.5 -48t-28.5 -67.5t-9 -79t9 -80t28.5 -69.5t49.5 -49t71 -18.5t70.5 18.5t49 49t28.5 69.5t9 80zM2288 342q0 41 -9.5 80t-29 68.5t-49 48t-70.5 18.5t-70.5 -18.5t-49 -48t-29 -68.5t-9.5 -80t9.5 -80
t29 -69.5t49 -49t70.5 -18.5t70.5 18.5t49 49t29 69.5t9.5 80zM1493 342q0 41 -9 80t-28.5 68.5t-49.5 48t-71 18.5t-70.5 -18.5t-49 -48t-28.5 -68.5t-9 -80t9 -80t28.5 -69.5t49 -49t70.5 -18.5t71 18.5t49.5 49t28.5 69.5t9 80zM592 0h-180l749 1364h178zM653 761.5
q-92 -104.5 -238 -104.5t-237.5 104.5t-91.5 259t90 259t240 104.5q149 0 239 -104.5t90 -259t-92 -259zM1573.5 81.5q-91.5 -104.5 -237.5 -104.5t-238 104.5t-92 259t91 259.5t239 105q149 0 239 -105t90 -259.5t-91.5 -259zM2368 81.5q-92 -104.5 -238 -104.5t-238 104.5
t-92 259t90.5 259.5t239.5 105t239.5 -105t90.5 -259.5t-92 -259z" />
    <glyph glyph-name="guilsinglleft" unicode="&#x2039;" horiz-adv-x="811" 
d="M535 0l-469 498l469 499l108 -102l-371 -395l371 -398z" />
    <glyph glyph-name="guilsinglright" unicode="&#x203a;" horiz-adv-x="808" 
d="M276 0l-108 102l371 398l-371 395l108 102l467 -499z" />
    <glyph glyph-name="fraction" unicode="&#x2044;" horiz-adv-x="911" 
d="M102 0h-102l811 1364h100z" />
    <glyph glyph-name="Euro" unicode="&#x20ac;" horiz-adv-x="1470" 
d="M986 1153q-175 0 -300 -78t-174 -209h367v-114h-396q-4 -32 -4 -39v-47q0 -39 4 -58h396v-116h-365q51 -129 175 -206t296 -77t332 41l35 -213q-178 -60 -347 -60q-300 0 -500.5 145.5t-260.5 369.5h-199v116h176q-4 36 -4 73t4 71h-176v114h197q62 226 260 372t473 146
q173 0 251.5 -20.5t127.5 -34.5l-37 -217q-156 41 -331 41z" />
    <glyph glyph-name="trademark" unicode="&#x2122;" horiz-adv-x="1439" 
d="M383 1260v-519h-121v519h-207v104h535v-104h-207zM1241 741v412l-170 -305h-65l-175 305v-412h-112v623h110l207 -367l207 367h111v-623h-113z" />
    <glyph glyph-name="Omega" unicode="&#x2126;" horiz-adv-x="1259" 
d="M338 637h-150v727h727v-152h-469l707 -706l-106 -109l-709 709v-469z" />
    <glyph glyph-name="partialdiff" unicode="&#x2202;" horiz-adv-x="1181" 
d="M668 94h-156v1000l-330 -332l-106 106l514 516l516 -516l-107 -106l-331 332v-1000z" />
    <glyph glyph-name="Delta" unicode="&#x2206;" horiz-adv-x="1181" 
d="M512 1268h156v-1000l329 332l109 -106l-516 -517l-514 517l106 106l330 -332v1000z" />
    <glyph glyph-name="product" unicode="&#x220f;" horiz-adv-x="1261" 
d="M915 152v-152h-727v729h150v-469l709 709l108 -111l-706 -706h466z" />
    <glyph glyph-name="summation" unicode="&#x2211;" horiz-adv-x="1261" 
d="M915 152v-152h-727v729h150v-469l709 709l108 -111l-706 -706h466z" />
    <glyph glyph-name="minus" unicode="&#x2212;" horiz-adv-x="739" 
d="M96 467v209h547v-209h-547z" />
    <glyph glyph-name="radical" unicode="&#x221a;" horiz-adv-x="1523" 
d="M1376 725v-154h-1001l332 -329l-107 -109l-514 516l514 514l107 -106l-332 -332h1001z" />
    <glyph glyph-name="infinity" unicode="&#x221e;" horiz-adv-x="1523" 
d="M1376 725v-154h-1001l332 -329l-107 -109l-514 516l514 514l107 -106l-332 -332h1001z" />
    <glyph glyph-name="integral" unicode="&#x222b;" horiz-adv-x="1261" 
d="M346 0v152h467l-707 706l109 111l707 -709v469h151v-729h-727z" />
    <glyph glyph-name="approxequal" unicode="&#x2248;" horiz-adv-x="1259" 
d="M922 637v469l-709 -709l-107 109l707 706h-469v152h727v-727h-149z" />
    <glyph glyph-name="notequal" unicode="&#x2260;" horiz-adv-x="1794" 
d="M928 682v-682h-682v1364h1364v-682h-682z" />
    <glyph glyph-name="lessequal" unicode="&#x2264;" horiz-adv-x="1523" 
d="M1376 725v-154h-1001l332 -329l-107 -109l-514 516l514 514l107 -106l-332 -332h1001z" />
    <glyph glyph-name="greaterequal" unicode="&#x2265;" horiz-adv-x="1523" 
d="M147 571v154h1000l-332 332l107 106l516 -514l-516 -516l-107 109l332 329h-1000z" />
    <glyph glyph-name="lozenge" unicode="&#x25ca;" horiz-adv-x="1523" 
d="M147 571v154h1000l-332 332l107 106l516 -514l-516 -516l-107 109l332 329h-1000z" />
    <glyph glyph-name="apple" unicode="&#xf8ff;" horiz-adv-x="1794" 
d="M928 682v-682h-682v1364h1364v-682h-682z" />
    <glyph glyph-name="fi" unicode="&#xfb01;" horiz-adv-x="1257" 
d="M864 1163v240h250v-240h-250zM864 0v997h250v-997h-250zM572 1219q-66 0 -96 -33t-30 -107v-96h193v-170h-193v-813h-249v813h-136v170h136v88q0 180 86 262t241 82q96 0 199 -29l-29 -178q-56 11 -122 11z" />
    <glyph glyph-name="fl" unicode="&#xfb02;" horiz-adv-x="1404" 
d="M1208 -16q-164 0 -251 81.5t-87 243.5v1055h250v-1028q0 -86 24.5 -119t92.5 -33h38q38 0 52 2v-194q-33 -8 -119 -8zM572 1219q-66 0 -96 -33t-30 -107v-96h193v-170h-193v-813h-249v813h-136v170h136v88q0 180 86 262t241 82q96 0 199 -29l-29 -178q-56 11 -122 11z
" />
    <glyph glyph-name="_257" horiz-adv-x="2048" 
 />
    </font>
</defs>
</svg>
