<?xml version="1.0" standalone="no"?>
<!DOCTYPE svg PUBLIC "-//W3C//DTD SVG 1.1//EN" "http://www.w3.org/Graphics/SVG/1.1/DTD/svg11.dtd" >
<svg xmlns="http://www.w3.org/2000/svg">
<metadata>
Created by FontPrep 20130207 at Tue Mar 31 16:06:05 2015
 By Paulo Fernandes
(c) 2003 Process Type Foundry. Designed by Eric Olson.
</metadata>
<defs>
<font id="9208689d02c3f6e8280642fef008b343" horiz-adv-x='1024' >
  <font-face 
    font-family="Locator-LightItalic"
    font-weight="300"
    font-style="italic"
    font-stretch="normal"
    units-per-em="2048"
    panose-1="2 0 5 3 4 0 0 9 0 4"
    ascent="1638"
    descent="-410"
    x-height="997"
    cap-height="1364"
    bbox="-225 -520 2437 1745"
    underline-thickness="40"
    underline-position="-231"
    slope="-11"
    unicode-range="U+000D-FB02"
  />
<missing-glyph horiz-adv-x="430" 
 />
    <glyph glyph-name=".notdef" horiz-adv-x="430" 
 />
    <glyph glyph-name=".null" horiz-adv-x="0" 
 />
    <glyph glyph-name="nonmarkingreturn" unicode="&#xd;" horiz-adv-x="430" 
 />
    <glyph glyph-name="NULL" horiz-adv-x="0" 
 />
    <glyph glyph-name="NULL" horiz-adv-x="0" 
 />
    <glyph glyph-name="space" unicode=" " horiz-adv-x="430" 
 />
    <glyph glyph-name="exclam" unicode="!" horiz-adv-x="559" 
d="M283 0h-150l35 188h149zM434 954l-141 -635h-55l79 635l74 410h117z" />
    <glyph glyph-name="quotedbl" unicode="&#x22;" horiz-adv-x="794" 
d="M350 815h-114l98 549h115zM686 815h-115l99 549h114z" />
    <glyph glyph-name="numbersign" unicode="#" horiz-adv-x="1353" 
d="M575 842l-92 -307h389l93 307h-390zM1305 842h-242l-92 -307h241l-26 -89h-244l-135 -446h-98l135 446h-387l-135 -446h-99l135 446h-245l28 89h244l92 307h-244l27 90h246l129 432h98l-129 -432h389l129 432h99l-129 -432h241z" />
    <glyph glyph-name="dollar" unicode="$" horiz-adv-x="1224" 
d="M1176 1229q-223 57 -397 57t-246 -33.5t-107 -85t-35 -131.5t51.5 -131t128 -94t166.5 -82t218 -115.5t128 -224.5q0 -188 -149.5 -294t-349.5 -115l-33 -187h-92l33 187q-234 13 -431 106l37 88q244 -98 465 -98q158 0 280 73t122 226q0 70 -51.5 119t-128 90t-167 79.5
t-167 86t-128 110t-51.5 162.5q0 192 129.5 272.5t352.5 89.5l34 201h93l-35 -201q190 -8 358 -65z" />
    <glyph glyph-name="percent" unicode="%" horiz-adv-x="1699" 
d="M600 0h-88l723 1364h88zM1337.5 602q-55.5 0 -98.5 -23.5t-70.5 -62.5t-42 -88t-14.5 -98t14.5 -98.5t43 -87.5t70.5 -61.5t97.5 -23.5t97.5 23.5t69.5 61.5t42 87.5t14.5 98.5t-14.5 98t-42 88t-69.5 62.5t-97.5 23.5zM272 1036q0 -108 60 -190t166 -82t164.5 83
t58.5 190t-59 188.5t-165.5 81.5t-165.5 -81.5t-59 -189.5zM1337.5 -16q-71.5 0 -130 28.5t-99.5 76.5t-63.5 110.5t-22.5 130t22.5 131t63.5 112t99.5 78t130 29.5t129 -29.5t98.5 -78t62.5 -112t21.5 -131t-21.5 -130t-62.5 -110.5t-98.5 -76.5t-129 -28.5zM497.5 686
q-71.5 0 -129 29.5t-98.5 78t-63.5 112t-22.5 131t22.5 130t63.5 111.5t98.5 77.5t129 28.5t129 -28.5t98.5 -77.5t63.5 -111.5t22.5 -130t-22.5 -130t-63.5 -112t-98.5 -79t-129 -29.5z" />
    <glyph glyph-name="ampersand" unicode="&#x26;" horiz-adv-x="1312" 
d="M856 1181q0 115 -150 115q-72 0 -124 -48t-52 -126t31 -140t64 -118q107 59 169 133.5t62 183.5zM219 283q0 -203 240 -203q193 0 389 176q-250 432 -277 481q-163 -91 -257.5 -194t-94.5 -260zM102 255q0 115 37 196t113 166.5t276 199.5q-33 61 -66.5 134t-33.5 145
q0 137 79 212.5t194 75.5t185 -51.5t70 -135.5q0 -140 -76 -233t-214 -176l268 -450q125 136 221 367l76 -25q-91 -247 -252 -424l154 -256h-136l-102 176q-217 -199 -467 -199q-133 0 -229.5 81.5t-96.5 196.5z" />
    <glyph glyph-name="quotesingle" unicode="'" horiz-adv-x="458" 
d="M350 815h-114l98 549h115z" />
    <glyph glyph-name="parenleft" unicode="(" horiz-adv-x="679" 
d="M184 350q0 636 504 1211l74 -58q-227 -281 -345 -555t-118 -576t152 -630l-95 -57q-172 331 -172 665z" />
    <glyph glyph-name="parenright" unicode=")" horiz-adv-x="679" 
d="M567 895q0 -635 -504 -1210l-73 57q343 425 403 703t60 448q0 281 -152 610l94 58q172 -331 172 -666z" />
    <glyph glyph-name="asterisk" unicode="*" horiz-adv-x="991" 
d="M651 954l297 -145l-76 -104l-262 198l-35 -358h-118l92 358l-336 -198l-39 104l350 145l-297 146l76 104l262 -198l35 358h119l-92 -358l336 198l38 -104z" />
    <glyph glyph-name="plus" unicode="+" horiz-adv-x="1218" 
d="M1126 442h-436v-442h-98v442h-438v93h438v442h98v-442h436v-93z" />
    <glyph glyph-name="comma" unicode="," horiz-adv-x="477" 
d="M248 0l-113 -217h-63l110 217h-84l35 193h150z" />
    <glyph glyph-name="hyphen" unicode="-" horiz-adv-x="729" 
d="M627 500h-494l21 114h493z" />
    <glyph glyph-name="period" unicode="." horiz-adv-x="468" 
d="M252 0h-150l33 193h150z" />
    <glyph glyph-name="slash" unicode="/" horiz-adv-x="940" 
d="M102 -240h-102l879 1624h102z" />
    <glyph glyph-name="zero" unicode="0" horiz-adv-x="1228" 
d="M258 446q0 -366 297 -366q165 0 277.5 133t168.5 320.5t56 347.5q0 264 -103.5 322.5t-193.5 58.5t-164 -40t-155 -134.5t-132 -283.5t-51 -358zM1167 884q0 -322 -102 -502.5t-215.5 -292.5t-315.5 -112t-296.5 136t-94.5 350q0 141 36 299t113 292t196.5 222t304.5 88
t279.5 -134.5t94.5 -345.5z" />
    <glyph glyph-name="one" unicode="1" horiz-adv-x="811" 
d="M481 0h-114l219 1243l-377 -65l-4 88l397 77h117z" />
    <glyph glyph-name="two" unicode="2" horiz-adv-x="1212" 
d="M731 1364q269 0 339.5 -104.5t70.5 -193.5t-37 -164t-98.5 -134t-141.5 -108.5t-164 -94.5t-275 -151.5t-224 -311.5h796l-18 -102h-913l14 94q38 269 323 423.5t455 250t170 299.5q0 168 -144.5 181.5t-195.5 13.5q-145 0 -371 -56l-16 94q202 64 430 64z" />
    <glyph glyph-name="three" unicode="3" horiz-adv-x="1099" 
d="M291 1296q188 68 350 68t277.5 -70t115.5 -221q0 -113 -75.5 -209t-188.5 -143q98 -31 157.5 -103.5t59.5 -183.5t-54 -196.5t-179.5 -173t-332.5 -87.5t-370 64l31 94q175 -55 337 -55t305.5 92.5t143.5 255.5q0 102 -60 151.5t-146.5 68t-180.5 16.5t-159 -2l18 98h223
q136 0 245.5 81.5t109.5 217.5q0 106 -84.5 154.5t-213.5 48.5q-128 0 -313 -56z" />
    <glyph glyph-name="four" unicode="4" horiz-adv-x="1226" 
d="M213 475h563l123 707zM1096 373h-224l-65 -373h-115l66 373h-701l19 102l852 868h116l-153 -868h223z" />
    <glyph glyph-name="five" unicode="5" horiz-adv-x="1189" 
d="M944 510q0 233 -290 233q-133 0 -316 -102l-82 53l201 649h692l-19 -102h-604l-147 -479q143 84 313 84t270.5 -83t100.5 -235q0 -39 -8 -79q-39 -214 -196 -343t-380 -129t-387 101l35 84q172 -84 363 -84t322.5 124t131.5 308z" />
    <glyph glyph-name="six" unicode="6" horiz-adv-x="1175" 
d="M934 492q0 125 -78 183t-177 58q-189 0 -316 -104.5t-127 -257.5q0 -152 86 -221.5t217 -69.5q171 0 283 121.5t112 290.5zM276 657q168 181 382 181q182 0 287.5 -90.5t105.5 -245.5q0 -217 -158 -371t-357 -154t-301 116.5t-102 303.5q0 87 17 164q103 571 376 687
t461 116q90 0 158 -14l-27 -99q-92 15 -153 15q-268 0 -441 -166t-248 -443z" />
    <glyph glyph-name="seven" unicode="7" horiz-adv-x="1024" 
d="M1087 1239l-806 -1239h-117l809 1245h-742l19 98h856z" />
    <glyph glyph-name="eight" unicode="8" horiz-adv-x="1208" 
d="M1030 1050q0 112 -77 163t-164 51q-160 0 -264.5 -80t-104.5 -202t75 -172t163 -50t151 19.5t112.5 57t79 93.5t29.5 120zM886 608q-95 54 -199 54q-193 0 -320 -86t-127 -252q0 -124 92 -184t243 -60t278.5 96t127.5 237t-95 195zM901 721q197 -85 197 -285
q0 -105 -49.5 -191.5t-170.5 -177t-337 -90.5q-276 0 -347 125t-71 206q0 151 89 258t230 155q-139 93 -139 237q0 180 147.5 293t315.5 113t274.5 -75.5t106.5 -201.5q0 -127 -69 -221t-177 -145z" />
    <glyph glyph-name="nine" unicode="9" horiz-adv-x="1183" 
d="M1016 987q0 137 -85 206t-216 69q-166 0 -282 -123.5t-116 -290.5q0 -125 77.5 -183.5t177.5 -58.5q185 0 314.5 106.5t129.5 274.5zM205 852q0 104 43 197.5t158.5 204t317.5 110.5t300 -114t98 -304q0 -234 -89 -431.5t-252.5 -367.5t-514.5 -170q-76 0 -153 17l22 94
q75 -12 183 -12t325.5 89t333.5 517q-166 -178 -408 -178q-159 0 -261.5 96.5t-102.5 251.5z" />
    <glyph glyph-name="colon" unicode=":" horiz-adv-x="495" 
d="M252 0h-150l33 188h150zM391 788h-149l32 189h150z" />
    <glyph glyph-name="semicolon" unicode=";" horiz-adv-x="477" 
d="M373 788h-150l33 189h150zM233 0l-108 -217h-64l109 217h-86l35 190h149z" />
    <glyph glyph-name="less" unicode="&#x3c;" horiz-adv-x="1163" 
d="M1040 903l-829 -403l829 -402v-112l-968 479v72l968 477v-111z" />
    <glyph glyph-name="equal" unicode="=" horiz-adv-x="1105" 
d="M1004 219h-871v103h871v-103zM1004 602h-871v103h871v-103z" />
    <glyph glyph-name="greater" unicode="&#x3e;" horiz-adv-x="1163" 
d="M1133 463l-969 -486v115l829 408l-829 407v113l969 -483v-74z" />
    <glyph glyph-name="question" unicode="?" horiz-adv-x="989" 
d="M418 0h-150l33 186h150zM225 1333q208 51 424 51t273 -81.5t57 -149.5t-27.5 -140.5t-72.5 -144t-101.5 -142.5t-116 -136.5t-116 -121.5t-99.5 -99l-59 57q59 63 266 277.5t207 422.5q0 94 -69.5 125t-213.5 31t-333 -39z" />
    <glyph glyph-name="at" unicode="@" horiz-adv-x="1480" 
d="M686 538q0 -149 104 -149q103 0 196 142.5t124 326.5q-79 60 -151 60q-130 0 -201.5 -115.5t-71.5 -264.5zM184 549q0 172 54.5 324.5t148.5 266t223 179t256 65.5q225 0 308 -107t53 -290l-115 -653h-94l35 196q-41 -84 -113 -145t-158 -61q-168 0 -168 213
q0 167 90 305.5t242 138.5q90 0 176 -51l11 61q24 144 -31 228t-230 84q-121 0 -229 -58.5t-189 -160t-129.5 -236t-48.5 -266.5q0 -248 139.5 -387.5t394.5 -139.5t538 97l20 -64q-281 -111 -558 -111q-278 0 -452 158t-174 414z" />
    <glyph glyph-name="A" unicode="A" horiz-adv-x="1300" 
d="M801 1229l-426 -750h592zM1073 0l-84 383h-674l-219 -383h-125l807 1364h86l324 -1364h-115z" />
    <glyph glyph-name="B" unicode="B" horiz-adv-x="1335" 
d="M1090 1216.5q-79 45.5 -193 45.5h-432l-90 -508h424q155 0 262.5 79t107.5 209q0 129 -79 174.5zM1031.5 601.5q-72.5 53.5 -189.5 53.5h-484l-98 -553h488q150 0 253 91.5t103 223.5q0 131 -72.5 184.5zM1016 717q207 -77 207 -272t-142.5 -320t-343.5 -125h-614
l242 1364h546q251 0 317 -104.5t66 -177.5q0 -131 -76 -226.5t-202 -138.5z" />
    <glyph glyph-name="C" unicode="C" horiz-adv-x="1290" 
d="M982 1282q-152 0 -287.5 -53t-293 -204t-157.5 -466q0 -227 147 -353t381 -126q156 0 307 37l13 -92q-331 -94 -572.5 -10.5t-319 246.5t-77.5 298q0 71 10 123q61 336 295.5 519t579.5 183q162 0 313 -43l-31 -94q-156 35 -308 35z" />
    <glyph glyph-name="D" unicode="D" horiz-adv-x="1345" 
d="M1204 764q0 243 -169 370.5t-398 127.5h-170l-205 -1160h170q143 0 282.5 48.5t248 137.5t175 213.5t66.5 262.5zM1325 791q0 -55 -8 -109q-60 -324 -320 -503t-602 -179h-272l244 1364h270q279 0 424 -108.5t204.5 -216t59.5 -248.5z" />
    <glyph glyph-name="E" unicode="E" horiz-adv-x="1249" 
d="M1251 1262h-784l-88 -504h733l-18 -103h-734l-98 -553h785l-19 -102h-905l242 1364h905z" />
    <glyph glyph-name="F" unicode="F" horiz-adv-x="1216" 
d="M1260 1262h-793l-88 -504h739l-18 -103h-740l-116 -655h-121l242 1364h913z" />
    <glyph glyph-name="G" unicode="G" horiz-adv-x="1404" 
d="M993 1284q-329 0 -540 -200.5t-211 -526.5q0 -228 147.5 -352.5t382.5 -124.5q142 0 303 37l88 491h107l-101 -563q-198 -68 -409 -68q-273 0 -455 157t-182 423q0 63 12 125q61 343 291.5 522.5t581.5 179.5q186 0 335 -36l-22 -95q-164 31 -328 31z" />
    <glyph glyph-name="H" unicode="H" horiz-adv-x="1425" 
d="M1143 0h-121l117 653h-781l-116 -653h-119l242 1364h118l-106 -606h780l107 606h120z" />
    <glyph glyph-name="I" unicode="I" horiz-adv-x="544" 
d="M252 0h-119l242 1364h119z" />
    <glyph glyph-name="J" unicode="J" horiz-adv-x="925" 
d="M279 0h-242l18 102h238q134 0 216.5 80.5t104.5 208.5l154 871h-461l19 102h579l-172 -973q-46 -278 -197 -334.5t-257 -56.5z" />
    <glyph glyph-name="K" unicode="K" horiz-adv-x="1265" 
d="M459 694l678 -694h-144l-635 653l-116 -653h-119l242 1364h118l-108 -612l813 612h149z" />
    <glyph glyph-name="L" unicode="L" horiz-adv-x="1099" 
d="M958 0h-835l242 1364h118l-223 -1262h717z" />
    <glyph glyph-name="M" unicode="M" horiz-adv-x="1662" 
d="M1380 0h-114l202 1149l-647 -969h-73l-308 969l-202 -1149h-115l242 1364h114l326 -1030l692 1030h125z" />
    <glyph glyph-name="N" unicode="N" horiz-adv-x="1488" 
d="M1206 0h-116l-644 1182l-208 -1182h-115l242 1364h114l643 -1180l209 1180h117z" />
    <glyph glyph-name="O" unicode="O" horiz-adv-x="1472" 
d="M1313 798q0 219 -112.5 351.5t-315.5 132.5q-147 0 -266 -66.5t-203 -174t-129 -241.5t-45 -270q0 -205 109.5 -327.5t320.5 -122.5q141 0 259 65.5t203 171t132 236.5t47 245zM1432 804q0 -140 -58.5 -292t-163 -270.5t-246.5 -191.5t-288 -73q-266 0 -409.5 159
t-143.5 401q0 162 58.5 314.5t161.5 271t247 190t290 71.5t244.5 -42t167 -117.5t104.5 -178t36 -242.5z" />
    <glyph glyph-name="P" unicode="P" horiz-adv-x="1288" 
d="M1208 1030q0 113 -68.5 172.5t-176.5 59.5h-498l-105 -586h498q151 0 250.5 101.5t99.5 252.5zM1329 1054q0 -141 -100.5 -308.5t-386.5 -167.5h-498l-102 -578h-119l242 1364h616q150 0 222.5 -66.5t99 -127t26.5 -116.5z" />
    <glyph glyph-name="Q" unicode="Q" horiz-adv-x="1474" 
d="M1313 798q0 220 -114 352t-316 132q-145 0 -264 -66.5t-202 -172t-128 -238.5t-45 -251q0 -227 113.5 -349.5t314.5 -122.5q143 0 261 64.5t203 169t131 235.5t46 247zM1434 808q0 -136 -53.5 -283.5t-148.5 -264.5t-227.5 -192.5t-291.5 -87.5l-64 -363h-121l64 363
q-215 19 -342 173t-127 384q0 162 58.5 315.5t161.5 271t246 189t289 71.5t245.5 -42t168 -117.5t105.5 -178t37 -238.5z" />
    <glyph glyph-name="R" unicode="R" horiz-adv-x="1409" 
d="M1138 1202.5q-70 59.5 -177 59.5h-496l-100 -570h495q145 0 246.5 100t101.5 226q0 125 -70 184.5zM1217 757q-110 -121 -267 -151l340 -606h-133l-332 594h-479l-104 -594h-119l242 1364h614q149 0 248.5 -89t99.5 -243t-110 -275z" />
    <glyph glyph-name="S" unicode="S" horiz-adv-x="1261" 
d="M1212 1225q-220 57 -417 57t-267.5 -28.5t-106.5 -80t-36 -133.5t54.5 -133t136 -92t176 -80t230.5 -117t136 -229q0 -213 -164 -312.5t-401 -99.5q-238 0 -492 107l33 92q241 -96 500 -96t331 105.5t72 183.5t-54 129t-136 93t-177 81t-177 87t-136.5 111.5t-54.5 169.5
t48 178t146 119t348 47q251 0 437 -65z" />
    <glyph glyph-name="T" unicode="T" horiz-adv-x="1116" 
d="M1210 1262h-469l-223 -1262h-119l224 1262h-469l18 102h1057z" />
    <glyph glyph-name="U" unicode="U" horiz-adv-x="1441" 
d="M305 371q0 -291 354 -291q294 0 381.5 148.5t104.5 240.5l158 895h118l-157 -887q-45 -237 -212 -368.5t-390 -131.5t-350.5 106t-127.5 298q0 56 9 96l157 887h121l-158 -895q-8 -50 -8 -98z" />
    <glyph glyph-name="V" unicode="V" horiz-adv-x="1193" 
d="M573 0h-88l-301 1364h111l258 -1202l684 1202h121z" />
    <glyph glyph-name="W" unicode="W" horiz-adv-x="1769" 
d="M1264 0h-99l-145 1221l-584 -1221h-98l-154 1364h105l127 -1178l569 1178h115l145 -1178l541 1174l117 4z" />
    <glyph glyph-name="X" unicode="X" horiz-adv-x="1333" 
d="M760 670l446 -670h-143l-377 596l-592 -596h-145l678 686l-432 678h129l378 -600l598 600h146z" />
    <glyph glyph-name="Y" unicode="Y" horiz-adv-x="1212" 
d="M702 555l-98 -555h-121l99 555l-408 809h123l358 -707l600 707h142z" />
    <glyph glyph-name="Z" unicode="Z" horiz-adv-x="1306" 
d="M1350 1260l-1157 -1160h948l-13 -100h-1087l18 104l1149 1162h-915l18 98h1057z" />
    <glyph glyph-name="bracketleft" unicode="[" horiz-adv-x="591" 
d="M737 1516h-227l-295 -1672h227l-18 -102h-342l332 1876h342z" />
    <glyph glyph-name="backslash" unicode="\" horiz-adv-x="940" 
d="M602 -240l-305 1624h102l306 -1624h-103z" />
    <glyph glyph-name="bracketright" unicode="]" horiz-adv-x="591" 
d="M270 -258h-342l19 102h227l295 1672h-227l18 102h342z" />
    <glyph glyph-name="asciicircum" unicode="^" horiz-adv-x="927" 
d="M815 670l-289 559l-288 -559h-105l365 694h55l365 -694h-103z" />
    <glyph glyph-name="underscore" unicode="_" horiz-adv-x="860" 
d="M868 -90h-888l12 67h889z" />
    <glyph glyph-name="grave" unicode="`" horiz-adv-x="591" 
d="M442 1128l-186 248h137l148 -248h-99z" />
    <glyph glyph-name="a" unicode="a" horiz-adv-x="1073" 
d="M860 819q-116 92 -266 92q-82 0 -159 -52t-157.5 -179.5t-80.5 -364.5q0 -115 38.5 -172t126.5 -57t165 62.5t142.5 164t121.5 246.5t69 260zM606 1016q131 0 273 -86l10 67h119l-177 -997h-116l53 305q-63 -135 -177.5 -228t-244.5 -93q-264 0 -264 331q0 263 143.5 482
t380.5 219z" />
    <glyph glyph-name="b" unicode="b" horiz-adv-x="1083" 
d="M506 86q82 0 158.5 52t157.5 179t81 365q0 115 -39 173t-126 58t-163.5 -59t-141 -156.5t-118.5 -237t-69 -257.5q39 -47 108.5 -82t151.5 -35zM754 1016q264 0 264 -358q0 -96 -34 -219.5t-100.5 -224.5t-163.5 -165.5t-222 -64.5q-76 0 -135.5 22.5t-135.5 81.5
l-18 -88h-117l240 1364h117l-117 -672q66 140 179 232t243 92z" />
    <glyph glyph-name="c" unicode="c" horiz-adv-x="888" 
d="M197 373q0 -287 260 -287q102 0 237 47l27 -90q-134 -59 -252 -59q-117 0 -183.5 30.5t-135 112t-68.5 235.5q0 294 153.5 474t385.5 180q141 0 247 -62l-43 -90q-100 49 -201 49q-190 0 -308.5 -148.5t-118.5 -391.5z" />
    <glyph glyph-name="d" unicode="d" horiz-adv-x="1091" 
d="M870 817q-122 96 -266 96q-82 0 -158.5 -52t-157.5 -180.5t-81 -365.5q0 -115 38 -172t125 -57q161 0 303.5 220.5t192.5 494.5zM616 1016q131 0 273 -86l76 434h116l-239 -1364h-117l53 305q-63 -135 -177.5 -228t-244.5 -93q-264 0 -264 331q0 263 143.5 482t380.5 219
z" />
    <glyph glyph-name="e" unicode="e" horiz-adv-x="960" 
d="M791 794.5q0 53.5 -38.5 86t-128.5 32.5q-157 0 -256 -96t-139 -260q397 19 479.5 101.5t82.5 136zM92 414q0 244 148.5 423t384.5 179q141 0 212.5 -63.5t71.5 -149.5q0 -147 -170 -236.5t-528 -109.5q-12 -176 79.5 -273.5t250.5 -97.5q113 0 260 55l33 -86
q-138 -71 -312 -71t-302 121t-128 309z" />
    <glyph glyph-name="f" unicode="f" horiz-adv-x="591" 
d="M626 1319q-104 0 -144 -49t-58 -156l-21 -119h232l-17 -94h-231l-160 -901h-114l159 901h-153l16 94h154l18 113q38 253 144 280t179 27t136 -22l-23 -90q-56 16 -117 16z" />
    <glyph glyph-name="g" unicode="g" horiz-adv-x="1105" 
d="M877 819q-119 94 -267 94q-82 0 -158.5 -48t-157.5 -169t-81 -354q0 -115 39 -170t125 -55q158 0 302 207t198 495zM624 1016q132 0 271 -84l12 65h117l-158 -901q-38 -225 -157 -346t-363 -121q-149 0 -305 62l25 86q144 -56 263 -56q207 0 297 90t122 269l38 225
q-74 -127 -179 -209t-237 -82t-202 89t-70 224q0 134 34 253.5t100.5 216t163 158t228.5 61.5z" />
    <glyph glyph-name="h" unicode="h" 
d="M1030 803q0 -50 -8 -94l-125 -709h-115l123 682q4 27 8.5 53.5t4.5 52.5q0 68 -36 93.5t-107 25.5t-136.5 -35.5t-143.5 -119.5t-152.5 -253t-96.5 -302l-37 -197h-117l242 1364h117l-119 -682q136 231 269.5 282.5t211.5 51.5q217 0 217 -213z" />
    <glyph glyph-name="i" unicode="i" horiz-adv-x="458" 
d="M414 1167h-115l35 197h115zM207 0h-115l176 995h115z" />
    <glyph glyph-name="j" unicode="j" horiz-adv-x="481" 
d="M436 1165h-114l34 199h115zM-69 -274q81 0 116 48t51 132l193 1091h115l-191 -1083q-27 -147 -97.5 -216t-203.5 -69q-81 0 -139 27l22 88q53 -18 134 -18z" />
    <glyph glyph-name="k" unicode="k" horiz-adv-x="948" 
d="M373 508l456 -508h-141l-399 453l-80 -453h-117l242 1364h117l-140 -789l516 422h152z" />
    <glyph glyph-name="l" unicode="l" horiz-adv-x="544" 
d="M283 -12q-84 0 -132.5 47t-48.5 133q0 29 7 59l200 1137h115l-195 -1110q-10 -47 -10 -90t19.5 -60.5t71.5 -17.5t112 37l31 -78q-31 -27 -80 -42t-90 -15z" />
    <glyph glyph-name="m" unicode="m" horiz-adv-x="1804" 
d="M1692 801q0 -51 -9 -92l-124 -709h-115l121 682q4 27 8 53.5t4 52.5q0 68 -35.5 93.5t-105.5 25.5t-133.5 -33.5t-141 -115t-144.5 -236t-91 -291.5l-41 -231h-115l121 682q4 27 8 53.5t4 55.5q0 68 -36.5 92t-104.5 24t-133.5 -35.5t-142.5 -119t-148 -252.5t-94 -303
l-35 -197h-117l176 997h117l-53 -315q196 334 467 334q219 0 219 -215q0 -51 -14 -123q199 338 469 338q219 0 219 -215z" />
    <glyph glyph-name="n" unicode="n" 
d="M1030 801q0 -51 -8 -92l-125 -709h-115l121 682q4 27 8 53.5t4 55.5q0 68 -35.5 92t-105.5 24t-135.5 -35.5t-147 -122t-153.5 -255t-94 -297.5l-35 -197h-117l176 997h117l-55 -315q136 231 269.5 282.5t211.5 51.5q219 0 219 -215z" />
    <glyph glyph-name="o" unicode="o" horiz-adv-x="1058" 
d="M872 628q0 125 -61 205t-210 80t-271.5 -149.5t-122.5 -392.5q0 -131 62.5 -208t197.5 -77q166 0 285.5 151.5t119.5 390.5zM987 598q0 -100 -39 -214t-109.5 -203t-169 -143t-202.5 -54q-187 0 -281 112t-94 266q0 290 156 472t383 182q171 0 263.5 -110.5t92.5 -307.5z
" />
    <glyph glyph-name="p" unicode="p" horiz-adv-x="1069" 
d="M219 180q118 -94 266 -94q82 0 159 52t158 182t81 364q0 115 -38 172t-125 57q-161 0 -302.5 -218t-194.5 -498zM735 1016q262 0 262 -332q0 -265 -143 -482.5t-384 -217.5q-132 0 -269 84l-74 -422h-117l238 1351h117l-54 -303q65 139 180.5 230.5t243.5 91.5z" />
    <glyph glyph-name="q" unicode="q" horiz-adv-x="1083" 
d="M600 913q-82 0 -158.5 -52t-157.5 -179t-81 -365q0 -115 39 -173t126 -58t163.5 59.5t141 156.5t119 238t68.5 257q-39 47 -108.5 81.5t-151.5 34.5zM88 300q0 280 143 498t377 218q76 0 135.5 -23.5t135.5 -83.5l16 88h117l-238 -1351h-117l117 661
q-65 -138 -178.5 -230.5t-245.5 -92.5q-136 0 -199 90t-63 226z" />
    <glyph glyph-name="r" unicode="r" horiz-adv-x="698" 
d="M723 909q-146 -16 -285.5 -223.5t-191.5 -488.5l-37 -197h-117l176 997h117l-57 -321q77 142 175 231t236 107z" />
    <glyph glyph-name="s" unicode="s" horiz-adv-x="892" 
d="M283 770q0 -66 36.5 -99.5t77.5 -61t104 -70.5q151 -103 205 -156t54 -122q0 -131 -106 -204t-267 -73q-72 0 -170 24.5t-176 69.5l37 90q179 -82 305 -82q127 0 196.5 43t69.5 125q0 48 -46 87t-169 119q-123 79 -192.5 147.5t-69.5 160.5q0 139 99.5 193.5t273.5 54.5
q77 0 161.5 -18.5t120.5 -32.5l-22 -91q-146 39 -232 39q-162 0 -226 -25t-64 -118z" />
    <glyph glyph-name="t" unicode="t" horiz-adv-x="651" 
d="M368 78q67 0 156 45l33 -78q-98 -61 -267.5 -61t-119.5 276l111 633h-138l19 104h137l51 283h117l-51 -283h205l-19 -104h-205l-118 -674q-14 -80 4 -110.5t85 -30.5z" />
    <glyph glyph-name="u" unicode="u" 
d="M113 197q0 48 8 94l125 706h114l-122 -680q-4 -27 -8.5 -53t-4.5 -53q0 -68 35.5 -93.5t105.5 -25.5t135.5 36t143.5 118.5t150 244.5t102 312l37 194h117l-177 -997h-116l53 317q-78 -139 -205 -236t-276 -97q-217 0 -217 213z" />
    <glyph glyph-name="v" unicode="v" horiz-adv-x="903" 
d="M420 0h-115l-213 997h117l170 -878l479 878h117z" />
    <glyph glyph-name="w" unicode="w" horiz-adv-x="1355" 
d="M948 0h-106l-101 852l-397 -852h-106l-136 997h103l104 -856l402 856h110l101 -839l374 839h121z" />
    <glyph glyph-name="x" unicode="x" horiz-adv-x="980" 
d="M559 498l299 -498h-123l-248 420l-397 -420h-141l487 510l-286 487h118l244 -415l391 415h129z" />
    <glyph glyph-name="y" unicode="y" horiz-adv-x="929" 
d="M219 -354h-110l204 354l-231 997h111l190 -876l487 876h121z" />
    <glyph glyph-name="z" unicode="z" horiz-adv-x="997" 
d="M948 893l-772 -795h653l-18 -98h-780l18 104l772 799h-612l18 94h740z" />
    <glyph glyph-name="braceleft" unicode="{" horiz-adv-x="552" 
d="M258 -129q0 -79 66.5 -76.5t93.5 2.5l-17 -90h-79q-80 0 -129.5 40t-49.5 124q0 27 4 51l105 588q4 20 4 33q0 53 -30.5 62t-73.5 9l16 99q61 0 93 19.5t44 84.5l105 588q16 98 80.5 155.5t166.5 57.5h80l-16 -90h-69q-68 0 -92.5 -34t-33.5 -79l-104 -586
q-16 -84 -61.5 -123.5t-131.5 -39.5v-4q140 0 140 -117q0 -25 -4 -49l-105 -586q-2 -10 -2 -39z" />
    <glyph glyph-name="bar" unicode="|" horiz-adv-x="548" 
d="M385 -410h-98v2048h98v-2048z" />
    <glyph glyph-name="braceright" unicode="}" horiz-adv-x="552" 
d="M397 1454q0 79 -66.5 76.5t-92.5 -2.5l16 90h80q78 0 128 -39t50 -123q0 -27 -4 -51l-105 -588q-4 -21 -4 -33q0 -53 31 -62t74 -9l-17 -99q-61 0 -93 -19.5t-44 -84.5l-104 -588q-16 -98 -81 -156.5t-167 -58.5h-80l16 90h68q68 0 93.5 33t33.5 80l104 586
q16 84 61.5 125t131.5 41v4q-139 0 -139 114q0 25 4 49l104 586q2 10 2 39z" />
    <glyph glyph-name="asciitilde" unicode="~" horiz-adv-x="1034" 
d="M373 512q-97 0 -205 -168l-76 47q68 105 139.5 166t163.5 61q61 0 104.5 -24.5t79 -54t71.5 -54t81 -24.5q106 0 207 170l76 -43q-140 -230 -305 -230q-61 0 -104.5 24t-79.5 53.5t-71.5 53t-80.5 23.5z" />
    <glyph glyph-name="nonbreakingspace" unicode="&#xa0;" horiz-adv-x="552" 
 />
    <glyph glyph-name="exclamdown" unicode="&#xa1;" horiz-adv-x="548" 
d="M473 1176h-149l34 188h150zM324 410l-74 -410h-117l74 410l141 634h55z" />
    <glyph glyph-name="cent" unicode="&#xa2;" horiz-adv-x="921" 
d="M197 385q0 -109 59 -190.5t188 -102.5l144 813q-182 -31 -286.5 -170t-104.5 -350zM726 913h-40q-41 0 -51 -2l-146 -825h37q118 0 242 51l31 -88q-128 -65 -285 -65l-43 2l-29 -166h-45l31 170q-166 25 -256 136.5t-90 250.5q0 262 143 436t383 199l29 168h45l-29 -164
h33q118 0 215 -33l-29 -94q-90 24 -146 24z" />
    <glyph glyph-name="sterling" unicode="&#xa3;" horiz-adv-x="1290" 
d="M875.5 1282q-171.5 0 -289 -80t-117.5 -231q0 -66 18.5 -137.5t44.5 -157.5h441l-19 -98h-417q4 -219 -162 -476h733l-18 -102h-967l18 102h115q126 174 148 295t18 181h-209l18 98h185q-6 20 -17.5 51t-28 96t-16.5 147q0 81 40 165t148 166.5t344 82.5t394 -59l-31 -92
q-202 49 -373.5 49z" />
    <glyph glyph-name="currency" unicode="&#xa4;" horiz-adv-x="1460" 
d="M940 80q156 0 303 35l19 -90q-319 -90 -554 -17t-318 217t-95 271h-234l15 82h217q2 100 35 202h-215l14 82h233q108 243 320.5 382.5t497.5 139.5q170 0 313 -51l-27 -94q-168 43 -294 43q-235 0 -417.5 -112t-271.5 -308h439l-15 -82h-456q-35 -102 -37 -202h456
l-14 -82h-438q24 -205 170.5 -310.5t353.5 -105.5z" />
    <glyph glyph-name="yen" unicode="&#xa5;" horiz-adv-x="1214" 
d="M885 766h231l-14 -86h-291l-109 -125l-16 -96h377l-16 -86h-377l-66 -373h-119l66 373h-375l17 86h374l17 96l-62 125h-291l15 86h231l-303 598h127l363 -698l602 698h133z" />
    <glyph glyph-name="brokenbar" unicode="&#xa6;" horiz-adv-x="548" 
d="M385 -410h-98v869h98v-869zM385 770h-98v868h98v-868z" />
    <glyph glyph-name="section" unicode="&#xa7;" horiz-adv-x="1155" 
d="M776.5 661.5q-91.5 50.5 -215.5 98.5q-106 -41 -171.5 -105t-65.5 -153q0 -106 133 -161.5t168 -70.5q90 31 166.5 108.5t76.5 154.5q0 78 -91.5 128.5zM735 1266q-311 0 -311 -195q0 -59 43 -98t106.5 -72t245.5 -104t182 -235q0 -163 -105 -244.5t-155 -108.5
q66 -37 114 -84t48 -137t-46 -160t-149 -133.5t-300 -63.5q-96 0 -201 30t-187 79l43 100q184 -90 361 -90q221 0 282.5 78t61.5 136t-43 94t-107.5 66t-139.5 60.5t-182.5 95.5t-107.5 197q0 170 100.5 242t155.5 96q-68 41 -111.5 92t-43.5 135q0 342 459 342
q170 0 335 -51l-30 -108q-160 41 -318 41z" />
    <glyph glyph-name="dieresis" unicode="&#xa8;" horiz-adv-x="776" 
d="M399 1149h-133l33 178h133zM743 1149h-133l33 178h133z" />
    <glyph glyph-name="copyright" unicode="&#xa9;" horiz-adv-x="1576" 
d="M894 383q79 0 144 16l9 -45q-74 -20 -159 -20t-153.5 26.5t-119 74.5t-78 111.5t-27.5 176t107 214t268 101.5q94 0 162 -22l-9 -47q-84 18 -154 18t-128 -21.5t-100 -61.5t-65.5 -96t-23.5 -124t23.5 -124t65.5 -95t100.5 -60.5t137.5 -21.5zM1481 682q0 131 -49.5 249
t-135.5 206t-204.5 140t-256.5 52t-256 -52t-205 -140t-136.5 -206t-49.5 -249t49.5 -249t185.5 -259t411 -141q137 0 255.5 52t205.5 141t136.5 207t49.5 249zM1536 682q0 -145 -55.5 -273t-150.5 -224.5t-223 -152t-273.5 -55.5t-272.5 55.5t-222 152t-150.5 224.5
t-55.5 273t55.5 273t150.5 223.5t223 150.5t273.5 55t272.5 -55t222 -150.5t150.5 -223.5t55.5 -273z" />
    <glyph glyph-name="ordfeminine" unicode="&#xaa;" horiz-adv-x="772" 
d="M547 1317q-134 0 -209.5 -120.5t-75.5 -278.5q0 -76 26 -115t84 -39q105 0 200.5 145t129.5 334l3 10q-82 64 -158 64zM537 1384q88 0 180 -55l8 45h78l-117 -667h-78l35 204q-43 -88 -117.5 -151.5t-165.5 -63.5q-176 0 -176 222q0 178 96.5 322t256.5 144z" />
    <glyph glyph-name="guillemotleft" unicode="&#xab;" horiz-adv-x="1181" 
d="M598 500l336 -441l-72 -59l-379 500l553 497l54 -57zM227 500l336 -441l-74 -59l-376 500l553 497l53 -57z" />
    <glyph glyph-name="logicalnot" unicode="&#xac;" horiz-adv-x="1089" 
d="M885 0h-99v457h-643v80h742v-537z" />
    <glyph glyph-name="registered" unicode="&#xae;" horiz-adv-x="1576" 
d="M1040 835.5q0 65.5 -44 104.5t-103 39h-250v-287h250q70 0 108.5 39t38.5 104.5zM1100 822q0 -52 -40 -103t-116 -68l223 -303h-61l-221 297h-242v-297h-59v682h309q95 0 151 -58t56 -150zM1481 682q0 131 -49.5 249t-136.5 206t-205.5 140t-256.5 52t-256 -52t-204 -140
t-135.5 -206t-49.5 -249t49.5 -249t185.5 -259t411 -141q137 0 255.5 52t205.5 141t136.5 207t49.5 249zM1536 682q0 -145 -55.5 -273t-150.5 -224.5t-223 -152t-273.5 -55.5t-272.5 55.5t-222 152t-150.5 224.5t-55.5 273t55.5 273t150.5 223.5t222 150.5t272.5 55
t273.5 -55t223 -150.5t150.5 -223.5t55.5 -273z" />
    <glyph glyph-name="macron" unicode="&#xaf;" horiz-adv-x="747" 
d="M735 1270h-469l13 73h469z" />
    <glyph glyph-name="degree" unicode="&#xb0;" horiz-adv-x="671" 
d="M637 1208q0 56 -42.5 103t-98.5 47q-101 0 -168.5 -71t-67.5 -148t42 -123.5t98 -46.5t96.5 19.5t72 51t50 72t18.5 96.5zM396 940q-66 0 -118.5 52t-52.5 118q0 119 81 196.5t170 77.5t142.5 -51t53.5 -117t-21.5 -112.5t-58.5 -83.5t-83.5 -58.5t-112.5 -21.5z" />
    <glyph glyph-name="plusminus" unicode="&#xb1;" horiz-adv-x="1218" 
d="M1126 442h-438v-352h438v-90h-972v90h436v352h-436v93h436v442h98v-442h438v-93z" />
    <glyph glyph-name="twosuperior" unicode="&#xb2;" horiz-adv-x="1359" 
d="M0 344v336h336v-336h-336zM0 1028v336h336v-336h-336zM682 1028v336h336v-336h-336zM682 344v336h336v-336h-336zM1022 0v338h338v-338h-338zM340 0v338h338v-338h-338zM340 684v338h338v-338h-338zM1022 684v338h338v-338h-338z" />
    <glyph glyph-name="threesuperior" unicode="&#xb3;" horiz-adv-x="1359" 
d="M0 344v336h336v-336h-336zM0 1028v336h336v-336h-336zM682 1028v336h336v-336h-336zM682 344v336h336v-336h-336zM1022 0v338h338v-338h-338zM340 0v338h338v-338h-338zM340 684v338h338v-338h-338zM1022 684v338h338v-338h-338z" />
    <glyph glyph-name="acute" unicode="&#xb4;" horiz-adv-x="585" 
d="M385 1128h-98l192 248h137z" />
    <glyph glyph-name="mu" unicode="&#xb5;" horiz-adv-x="1249" 
d="M344 264q0 -98 55.5 -135t141.5 -37q160 0 274 122.5t139 277.5l88 505h115l-176 -995h-115l35 193q-164 -209 -398 -209q-128 0 -202 67l-72 -407h-116l237 1351h117l-115 -653q-8 -40 -8 -80z" />
    <glyph glyph-name="paragraph" unicode="&#xb6;" horiz-adv-x="841" 
d="M164 1046q0 134 92 226t211 92h334l-242 -1364h-84l230 1296h-162l-230 -1296h-86l150 850q-92 0 -152.5 60t-60.5 136z" />
    <glyph glyph-name="periodcentered" unicode="&#xb7;" horiz-adv-x="479" 
d="M313 573h-149l33 193h149z" />
    <glyph glyph-name="cedilla" unicode="&#xb8;" horiz-adv-x="692" 
d="M348 -145q60 0 110 -31.5t50 -97.5q0 -119 -79 -182.5t-178 -63.5t-179 33l24 49q61 -21 140 -21q78 0 131 40.5t53 108.5t-43 89.5t-93 21.5t-108 -10l86 209h64l-64 -150q26 5 86 5z" />
    <glyph glyph-name="onesuperior" unicode="&#xb9;" horiz-adv-x="1359" 
d="M0 344v336h336v-336h-336zM0 1028v336h336v-336h-336zM682 1028v336h336v-336h-336zM682 344v336h336v-336h-336zM1022 0v338h338v-338h-338zM340 0v338h338v-338h-338zM340 684v338h338v-338h-338zM1022 684v338h338v-338h-338z" />
    <glyph glyph-name="ordmasculine" unicode="&#xba;" horiz-adv-x="761" 
d="M281 954q0 -190 174 -190q114 0 193 102.5t79 251.5q0 90 -42 144.5t-142 54.5t-181 -101t-81 -262zM803 1104q0 -66 -25.5 -141.5t-104 -172t-231.5 -96.5q-117 0 -177 77t-60 179q0 192 103 313t255 121q173 0 206.5 -107t33.5 -173z" />
    <glyph glyph-name="guillemotright" unicode="&#xbb;" horiz-adv-x="1181" 
d="M174 0l-51 59l491 441l-335 440l73 57l377 -497zM547 0l-53 59l491 441l-336 440l74 57l377 -497z" />
    <glyph glyph-name="onequarter" unicode="&#xbc;" horiz-adv-x="1359" 
d="M0 344v336h336v-336h-336zM0 1028v336h336v-336h-336zM682 1028v336h336v-336h-336zM682 344v336h336v-336h-336zM1022 0v338h338v-338h-338zM340 0v338h338v-338h-338zM340 684v338h338v-338h-338zM1022 684v338h338v-338h-338z" />
    <glyph glyph-name="onehalf" unicode="&#xbd;" horiz-adv-x="1359" 
d="M0 344v336h336v-336h-336zM0 1028v336h336v-336h-336zM682 1028v336h336v-336h-336zM682 344v336h336v-336h-336zM1022 0v338h338v-338h-338zM340 0v338h338v-338h-338zM340 684v338h338v-338h-338zM1022 684v338h338v-338h-338z" />
    <glyph glyph-name="threequarters" unicode="&#xbe;" horiz-adv-x="1359" 
d="M0 344v336h336v-336h-336zM0 1028v336h336v-336h-336zM682 1028v336h336v-336h-336zM682 344v336h336v-336h-336zM1022 0v338h338v-338h-338zM340 0v338h338v-338h-338zM340 684v338h338v-338h-338zM1022 684v338h338v-338h-338z" />
    <glyph glyph-name="questiondown" unicode="&#xbf;" horiz-adv-x="1024" 
d="M770 1178h-149l32 186h150zM432 -20q-340 0 -340 233q0 186 157 377t244 274.5t132 130.5l59 -57q-59 -63 -266 -275t-207 -423q0 -134 104.5 -146t147.5 -12q172 0 373 41l4 -92q-204 -51 -408 -51z" />
    <glyph glyph-name="Agrave" unicode="&#xc0;" horiz-adv-x="1300" 
d="M764 1481l-186 248h135l147 -248h-96zM801 1229l-426 -750h592zM1073 0l-84 383h-674l-219 -383h-127l807 1364h88l324 -1364h-115z" />
    <glyph glyph-name="Aacute" unicode="&#xc1;" horiz-adv-x="1300" 
d="M895 1481h-98l192 248h137zM801 1229l-426 -750h592zM1073 0l-84 383h-674l-219 -383h-127l807 1364h88l324 -1364h-115z" />
    <glyph glyph-name="Acircumflex" unicode="&#xc2;" horiz-adv-x="1300" 
d="M997 1481l-131 184l-196 -184h-99l246 248h123l156 -248h-99zM801 1229l-426 -750h592zM1073 0l-84 383h-674l-219 -383h-127l807 1364h88l324 -1364h-115z" />
    <glyph glyph-name="Atilde" unicode="&#xc3;" horiz-adv-x="1300" 
d="M792.5 1555.5q-20.5 11.5 -53.5 11.5t-96 -86l-74 37q94 137 201 137q45 0 87 -25.5t61.5 -38t55.5 -12.5t95 88l76 -35q-95 -139 -201 -139q-49 0 -90 25.5t-61.5 37zM801 1229l-426 -750h592zM1073 0l-84 383h-674l-219 -383h-127l807 1364h88l324 -1364h-115z" />
    <glyph glyph-name="Adieresis" unicode="&#xc4;" horiz-adv-x="1300" 
d="M729 1487h-133l31 178h133zM1073 1487h-133l31 178h133zM801 1229l-426 -750h592zM1073 0l-84 383h-674l-219 -383h-127l807 1364h88l324 -1364h-115z" />
    <glyph glyph-name="Aring" unicode="&#xc5;" horiz-adv-x="1300" 
d="M973 1609q0 44 -25.5 68.5t-69.5 24.5t-82 -38t-38 -82t24.5 -69.5t68.5 -25.5t83 39t39 83zM1014 1631q0 -78 -54.5 -132.5t-114.5 -54.5t-95 36t-35 80q0 80 54 132.5t114 52.5q61 0 96 -35t35 -79zM801 1229l-426 -750h592zM1073 0l-84 383h-674l-219 -383h-127
l807 1364h88l324 -1364h-115z" />
    <glyph glyph-name="AE" unicode="&#xc6;" horiz-adv-x="1738" 
d="M797 1223l-428 -744h505zM1741 1262h-856l59 -504h658l-19 -103h-627l62 -553h518l-18 -102h-592l-41 383h-576l-219 -383h-121l809 1364h981z" />
    <glyph glyph-name="Ccedilla" unicode="&#xc7;" horiz-adv-x="1290" 
d="M829 -310q0 68 -43 89.5t-93 21.5t-107 -10l78 193q-231 25 -386 181t-155 394q0 71 10 123q61 336 295.5 519t579.5 183q162 0 313 -43l-31 -94q-156 35 -308 35t-287.5 -53t-293 -204t-157.5 -466q0 -227 147 -353t381 -126q156 0 307 37l13 -92q-166 -47 -334 -48h-33
l-53 -127q26 5 86 5t110 -31.5t50 -97.5q0 -118 -79 -182t-179 -64t-179 33l25 49q61 -21 139 -21t131 40.5t53 108.5z" />
    <glyph glyph-name="Egrave" unicode="&#xc8;" horiz-adv-x="1249" 
d="M786 1481l-186 248h135l148 -248h-97zM1251 1262h-784l-88 -504h733l-18 -103h-734l-98 -553h785l-19 -102h-905l242 1364h905z" />
    <glyph glyph-name="Eacute" unicode="&#xc9;" horiz-adv-x="1249" 
d="M870 1481h-98l193 248h137zM1251 1262h-784l-88 -504h733l-18 -103h-734l-98 -553h785l-19 -102h-905l242 1364h905z" />
    <glyph glyph-name="Ecircumflex" unicode="&#xca;" horiz-adv-x="1249" 
d="M1004 1481l-132 184l-196 -184h-98l245 248h123l156 -248h-98zM1251 1262h-784l-88 -504h733l-18 -103h-734l-98 -553h785l-19 -102h-905l242 1364h905z" />
    <glyph glyph-name="Edieresis" unicode="&#xcb;" horiz-adv-x="1249" 
d="M739 1487h-133l31 178h133zM1083 1487h-133l31 178h133zM1251 1262h-784l-88 -504h733l-18 -103h-734l-98 -553h785l-19 -102h-905l242 1364h905z" />
    <glyph glyph-name="Igrave" unicode="&#xcc;" horiz-adv-x="552" 
d="M387 1481l-186 248h137l147 -248h-98zM252 0h-119l242 1364h119z" />
    <glyph glyph-name="Iacute" unicode="&#xcd;" horiz-adv-x="552" 
d="M508 1481h-96l192 248h135zM252 0h-119l242 1364h119z" />
    <glyph glyph-name="Icircumflex" unicode="&#xce;" horiz-adv-x="552" 
d="M614 1481l-131 184l-196 -184h-99l246 248h123l156 -248h-99zM252 0h-119l242 1364h119z" />
    <glyph glyph-name="Idieresis" unicode="&#xcf;" horiz-adv-x="552" 
d="M350 1487h-133l31 178h133zM694 1487h-133l31 178h133zM252 0h-119l242 1364h119z" />
    <glyph glyph-name="Eth" unicode="&#xd0;" horiz-adv-x="1386" 
d="M1243 766q0 241 -169 368.5t-398 127.5h-170l-94 -531h305l-17 -98h-305l-94 -531h170q141 0 279.5 49.5t248 138.5t177 214.5t67.5 261.5zM676 1364q286 0 488 -148t202 -419q0 -188 -81 -336t-213 -250t-299 -156.5t-339 -54.5h-270l112 633h-153l16 98h154l113 633
h270z" />
    <glyph glyph-name="Ntilde" unicode="&#xd1;" horiz-adv-x="1488" 
d="M872.5 1555.5q-20.5 11.5 -55.5 11.5t-94 -86l-74 37q94 137 201 137q45 0 87 -25.5t61.5 -38t49.5 -12.5t56 30.5t45 57.5l76 -35q-95 -139 -201 -139q-49 0 -90 25.5t-61.5 37zM1206 0h-116l-644 1182l-208 -1182h-115l242 1364h114l643 -1180l209 1180h117z" />
    <glyph glyph-name="Ograve" unicode="&#xd2;" horiz-adv-x="1472" 
d="M842 1481l-187 248h136l147 -248h-96zM1313 798q0 219 -112.5 351.5t-315.5 132.5q-147 0 -266 -66.5t-203 -174t-129 -241.5t-45 -270q0 -205 109.5 -327.5t320.5 -122.5q141 0 259 65.5t203 171t132 236.5t47 245zM1432 804q0 -140 -58.5 -292t-163 -270.5
t-246.5 -191.5t-288 -73q-266 0 -409.5 159t-143.5 401q0 162 58.5 314.5t161.5 271t247 190t290 71.5t244.5 -42t167 -117.5t104.5 -178t36 -242.5z" />
    <glyph glyph-name="Oacute" unicode="&#xd3;" horiz-adv-x="1472" 
d="M997 1481h-96l193 248h135zM1313 798q0 219 -112.5 351.5t-315.5 132.5q-147 0 -266 -66.5t-203 -174t-129 -241.5t-45 -270q0 -205 109.5 -327.5t320.5 -122.5q141 0 259 65.5t203 171t132 236.5t47 245zM1432 804q0 -140 -58.5 -292t-163 -270.5t-246.5 -191.5
t-288 -73q-266 0 -409.5 159t-143.5 401q0 162 58.5 314.5t161.5 271t247 190t290 71.5t244.5 -42t167 -117.5t104.5 -178t36 -242.5z" />
    <glyph glyph-name="Ocircumflex" unicode="&#xd4;" horiz-adv-x="1472" 
d="M1092 1481l-131 184l-197 -184h-98l245 248h123l156 -248h-98zM1313 798q0 219 -112.5 351.5t-315.5 132.5q-147 0 -266 -66.5t-203 -174t-129 -241.5t-45 -270q0 -205 109.5 -327.5t320.5 -122.5q141 0 259 65.5t203 171t132 236.5t47 245zM1432 804q0 -140 -58.5 -292
t-163 -270.5t-246.5 -191.5t-288 -73q-266 0 -409.5 159t-143.5 401q0 162 58.5 314.5t161.5 271t247 190t290 71.5t244.5 -42t167 -117.5t104.5 -178t36 -242.5z" />
    <glyph glyph-name="Otilde" unicode="&#xd5;" horiz-adv-x="1472" 
d="M888.5 1555.5q-20.5 11.5 -53.5 11.5t-96 -86l-73 37q94 137 200 137q45 0 87 -25.5t61.5 -38t55.5 -12.5t95 88l76 -35q-95 -139 -201 -139q-49 0 -90 25.5t-61.5 37zM1313 798q0 219 -112.5 351.5t-315.5 132.5q-147 0 -266 -66.5t-203 -174t-129 -241.5t-45 -270
q0 -205 109.5 -327.5t320.5 -122.5q141 0 259 65.5t203 171t132 236.5t47 245zM1432 804q0 -140 -58.5 -292t-163 -270.5t-246.5 -191.5t-288 -73q-266 0 -409.5 159t-143.5 401q0 162 58.5 314.5t161.5 271t247 190t290 71.5t244.5 -42t167 -117.5t104.5 -178t36 -242.5z
" />
    <glyph glyph-name="Odieresis" unicode="&#xd6;" horiz-adv-x="1472" 
d="M819 1487h-133l31 178h133zM1163 1487h-133l31 178h133zM1313 798q0 219 -112.5 351.5t-315.5 132.5q-147 0 -266 -66.5t-203 -174t-129 -241.5t-45 -270q0 -205 109.5 -327.5t320.5 -122.5q141 0 259 65.5t203 171t132 236.5t47 245zM1432 804q0 -140 -58.5 -292
t-163 -270.5t-246.5 -191.5t-288 -73q-266 0 -409.5 159t-143.5 401q0 162 58.5 314.5t161.5 271t247 190t290 71.5t244.5 -42t167 -117.5t104.5 -178t36 -242.5z" />
    <glyph glyph-name="multiply" unicode="&#xd7;" horiz-adv-x="964" 
d="M584 451l309 -312l-70 -69l-309 311l-309 -311l-72 69l309 312l-309 311l72 72l309 -312l309 312l70 -72z" />
    <glyph glyph-name="Oslash" unicode="&#xd8;" horiz-adv-x="1677" 
d="M1413 786q0 171 -59 287l-912 -842q118 -151 330 -151q139 0 257 66.5t203 172t133 237.5t48 230zM985 1282q-143 0 -261 -64.5t-203 -169t-131 -235.5t-46 -231q0 -184 62 -295l911 843q-119 152 -332 152zM1534 837q0 -178 -58.5 -329.5t-162 -270t-246.5 -189.5
t-313 -71q-250 0 -400 175l-188 -175l-43 50l192 176q-90 146 -90 324t56.5 330.5t160 270t246.5 187t316 69.5q250 0 401 -174l186 172l45 -47l-192 -178q90 -142 90 -320z" />
    <glyph glyph-name="Ugrave" unicode="&#xd9;" horiz-adv-x="1441" 
d="M840 1481l-187 248h138l147 -248h-98zM305 371q0 -291 354 -291q294 0 381.5 148.5t104.5 240.5l158 895h118l-157 -887q-45 -237 -212 -368.5t-390 -131.5t-350.5 106t-127.5 298q0 56 9 96l157 887h121l-158 -895q-8 -50 -8 -98z" />
    <glyph glyph-name="Uacute" unicode="&#xda;" horiz-adv-x="1441" 
d="M913 1481h-98l193 248h137zM305 371q0 -291 354 -291q294 0 381.5 148.5t104.5 240.5l158 895h118l-157 -887q-45 -237 -212 -368.5t-390 -131.5t-350.5 106t-127.5 298q0 56 9 96l157 887h121l-158 -895q-8 -50 -8 -98z" />
    <glyph glyph-name="Ucircumflex" unicode="&#xdb;" horiz-adv-x="1441" 
d="M1069 1481l-131 184l-199 -184h-96l246 248h121l155 -248h-96zM305 371q0 -291 354 -291q294 0 381.5 148.5t104.5 240.5l158 895h118l-157 -887q-45 -237 -212 -368.5t-390 -131.5t-350.5 106t-127.5 298q0 56 9 96l157 887h121l-158 -895q-8 -50 -8 -98z" />
    <glyph glyph-name="Udieresis" unicode="&#xdc;" horiz-adv-x="1441" 
d="M782 1487h-133l31 178h133zM1126 1487h-133l31 178h133zM305 371q0 -291 354 -291q294 0 381.5 148.5t104.5 240.5l158 895h118l-157 -887q-45 -237 -212 -368.5t-390 -131.5t-350.5 106t-127.5 298q0 56 9 96l157 887h121l-158 -895q-8 -50 -8 -98z" />
    <glyph glyph-name="Yacute" unicode="&#xdd;" horiz-adv-x="1212" 
d="M842 1481h-99l193 248h137zM702 555l-98 -555h-121l99 555l-408 809h123l358 -707l600 707h142z" />
    <glyph glyph-name="Thorn" unicode="&#xde;" horiz-adv-x="1280" 
d="M1159 740q0 115 -70 175t-178 60h-495l-97 -551h496q134 0 209.5 65.5t105 126t29.5 124.5zM930 1079q150 0 250 -81.5t100 -215.5q0 -135 -54.5 -222t-149 -161.5t-279.5 -74.5h-496l-57 -324h-121l242 1364h120l-51 -285h496z" />
    <glyph glyph-name="germandbls" unicode="&#xdf;" horiz-adv-x="1232" 
d="M1120 294q0 -72 -33.5 -132t-115 -119t-238.5 -59q-158 0 -282 65l34 90q127 -57 260 -57q175 0 217 75t42 127t-27 84.5t-66 58.5t-85 48.5t-111.5 67t-65.5 135.5q0 125 149.5 238t149.5 230q0 87 -61.5 129t-156.5 42q-96 0 -169.5 -63.5t-91.5 -170.5l-190 -1083
h-115l158 901h-154l16 94h154q41 212 132.5 316t293.5 104q121 0 210 -64.5t89 -174.5q0 -109 -46 -173.5t-102.5 -113.5t-102.5 -93t-46 -90t26.5 -70t65.5 -46.5t85 -46t85 -56t65.5 -77t26.5 -116.5z" />
    <glyph glyph-name="agrave" unicode="&#xe0;" horiz-adv-x="1073" 
d="M594 1128l-186 248h137l147 -248h-98zM860 819q-116 92 -266 92q-82 0 -159 -52t-157.5 -179.5t-80.5 -364.5q0 -115 38.5 -172t126.5 -57t165 62.5t142.5 164t121.5 246.5t69 260zM606 1016q131 0 273 -86l10 67h119l-177 -997h-116l53 305q-63 -135 -177.5 -228
t-244.5 -93q-264 0 -264 331q0 263 143.5 482t380.5 219z" />
    <glyph glyph-name="aacute" unicode="&#xe1;" horiz-adv-x="1073" 
d="M702 1128h-98l193 248h137zM860 819q-116 92 -266 92q-82 0 -159 -52t-157.5 -179.5t-80.5 -364.5q0 -115 38.5 -172t126.5 -57t165 62.5t142.5 164t121.5 246.5t69 260zM606 1016q131 0 273 -86l10 67h119l-177 -997h-116l53 305q-63 -135 -177.5 -228t-244.5 -93
q-264 0 -264 331q0 263 143.5 482t380.5 219z" />
    <glyph glyph-name="acircumflex" unicode="&#xe2;" horiz-adv-x="1073" 
d="M846 1128l-131 185l-197 -185h-98l246 248h122l156 -248h-98zM860 819q-116 92 -266 92q-82 0 -159 -52t-157.5 -179.5t-80.5 -364.5q0 -115 38.5 -172t126.5 -57t165 62.5t142.5 164t121.5 246.5t69 260zM606 1016q131 0 273 -86l10 67h119l-177 -997h-116l53 305
q-63 -135 -177.5 -228t-244.5 -93q-264 0 -264 331q0 263 143.5 482t380.5 219z" />
    <glyph glyph-name="atilde" unicode="&#xe3;" horiz-adv-x="1073" 
d="M621 1235q-52 0 -109 -86l-74 37q94 137 201 137q45 0 87 -25.5t61 -38t49 -12.5t57 31t45 57l76 -35q-95 -139 -201 -139q-49 0 -90 25.5t-61.5 37t-40.5 11.5zM860 819q-116 92 -266 92q-82 0 -159 -52t-157.5 -179.5t-80.5 -364.5q0 -115 38.5 -172t126.5 -57
t165 62.5t142.5 164t121.5 246.5t69 260zM606 1016q131 0 273 -86l10 67h119l-177 -997h-116l53 305q-63 -135 -177.5 -228t-244.5 -93q-264 0 -264 331q0 263 143.5 482t380.5 219z" />
    <glyph glyph-name="adieresis" unicode="&#xe4;" horiz-adv-x="1073" 
d="M600 1149h-133l33 178h133zM944 1149h-133l33 178h133zM860 819q-116 92 -266 92q-82 0 -159 -52t-157.5 -179.5t-80.5 -364.5q0 -115 38.5 -172t126.5 -57t165 62.5t142.5 164t121.5 246.5t69 260zM606 1016q131 0 273 -86l10 67h119l-177 -997h-116l53 305
q-63 -135 -177.5 -228t-244.5 -93q-264 0 -264 331q0 263 143.5 482t380.5 219z" />
    <glyph glyph-name="aring" unicode="&#xe5;" horiz-adv-x="1073" 
d="M813 1261q0 44 -25.5 68.5t-69.5 24.5t-82 -38t-38 -82t24.5 -69.5t68.5 -25.5t83 39t39 83zM669 1096q-44 0 -79 36t-35 80q0 78 53.5 131.5t114.5 53.5t96 -35t35 -79t-14.5 -75.5t-39 -56.5t-56 -40t-75.5 -15zM860 819q-116 92 -266 92q-82 0 -159 -52t-157.5 -179.5
t-80.5 -364.5q0 -115 38.5 -172t126.5 -57t165 62.5t142.5 164t121.5 246.5t69 260zM606 1016q131 0 273 -86l10 67h119l-177 -997h-116l53 305q-63 -135 -177.5 -228t-244.5 -93q-264 0 -264 331q0 263 143.5 482t380.5 219z" />
    <glyph glyph-name="ae" unicode="&#xe6;" horiz-adv-x="1673" 
d="M1501 791q0 47 -40 84.5t-128 37.5q-160 0 -270 -99t-148 -257q406 19 496 103t90 131zM444 455q-137 0 -194 -56.5t-57 -147.5t55 -128t145 -37q152 0 249 78t120 215l12 76h-330zM926 825q160 191 415 191q135 0 208 -64.5t73 -150.5q0 -147 -187.5 -234.5
t-537.5 -109.5q-12 -175 82.5 -273t240.5 -98t298 57l26 -88q-154 -71 -307 -71q-152 0 -256 62.5t-158 172.5q-145 -235 -444 -235q-129 0 -213 69.5t-84 199.5t95 217t278 87h338l20 117q28 177 -70 208t-200 31t-285 -30l-8 94q160 39 322 39q300 0 354 -191z" />
    <glyph glyph-name="ccedilla" unicode="&#xe7;" horiz-adv-x="888" 
d="M482 -145q60 0 110.5 -31.5t50.5 -97.5q0 -119 -79 -182.5t-178 -63.5t-179 33l24 49q61 -21 140 -21q78 0 131 40.5t53 108.5t-43 89.5t-93 21.5t-108 -10l80 197q-154 16 -231.5 126t-77.5 256q0 287 153.5 466.5t385.5 179.5q141 0 247 -62l-43 -90q-100 49 -201 49
q-190 0 -308.5 -148.5t-118.5 -391.5q0 -287 260 -287q102 0 237 47l27 -90q-117 -54 -268 -59l-56 -134q25 5 85 5z" />
    <glyph glyph-name="egrave" unicode="&#xe8;" horiz-adv-x="960" 
d="M555 1128l-186 248h137l147 -248h-98zM791 794.5q0 53.5 -38.5 86t-128.5 32.5q-157 0 -256 -96t-139 -260q397 19 479.5 101.5t82.5 136zM92 414q0 244 148.5 423t384.5 179q141 0 212.5 -63.5t71.5 -149.5q0 -147 -170 -236.5t-528 -109.5q-12 -176 79.5 -273.5
t250.5 -97.5q113 0 260 55l33 -86q-138 -71 -312 -71t-302 121t-128 309z" />
    <glyph glyph-name="eacute" unicode="&#xe9;" horiz-adv-x="993" 
d="M711 1128h-99l193 248h137zM791 794.5q0 53.5 -38.5 86t-128.5 32.5q-157 0 -256 -96t-139 -260q397 19 479.5 101.5t82.5 136zM92 414q0 244 148.5 423t384.5 179q141 0 212.5 -63.5t71.5 -149.5q0 -147 -170 -236.5t-528 -109.5q-12 -176 79.5 -273.5t250.5 -97.5
q113 0 260 55l33 -86q-138 -71 -312 -71t-302 121t-128 309z" />
    <glyph glyph-name="ecircumflex" unicode="&#xea;" horiz-adv-x="1005" 
d="M805 1128l-131 185l-197 -185h-98l246 248h123l155 -248h-98zM791 794.5q0 53.5 -38.5 86t-128.5 32.5q-157 0 -256 -96t-139 -260q397 19 479.5 101.5t82.5 136zM92 414q0 244 148.5 423t384.5 179q141 0 212.5 -63.5t71.5 -149.5q0 -147 -170 -236.5t-528 -109.5
q-12 -176 79.5 -273.5t250.5 -97.5q113 0 260 55l33 -86q-138 -71 -312 -71t-302 121t-128 309z" />
    <glyph glyph-name="edieresis" unicode="&#xeb;" horiz-adv-x="1007" 
d="M541 1149h-133l32 178h133zM885 1149h-133l32 178h134zM791 794.5q0 53.5 -38.5 86t-128.5 32.5q-157 0 -256 -96t-139 -260q397 19 479.5 101.5t82.5 136zM92 414q0 244 148.5 423t384.5 179q141 0 212.5 -63.5t71.5 -149.5q0 -147 -170 -236.5t-528 -109.5
q-12 -176 79.5 -273.5t250.5 -97.5q113 0 260 55l33 -86q-138 -71 -312 -71t-302 121t-128 309z" />
    <glyph glyph-name="igrave" unicode="&#xec;" horiz-adv-x="466" 
d="M266 1128l-186 248h137l148 -248h-99zM203 0h-115l176 997h115z" />
    <glyph glyph-name="iacute" unicode="&#xed;" horiz-adv-x="466" 
d="M381 1128h-98l192 248h137zM203 0h-115l176 997h115z" />
    <glyph glyph-name="icircumflex" unicode="&#xee;" horiz-adv-x="466" 
d="M498 1128l-131 185l-197 -185h-98l245 248h123l156 -248h-98zM203 0h-115l176 997h115z" />
    <glyph glyph-name="idieresis" unicode="&#xef;" horiz-adv-x="466" 
d="M578 1149h-134l33 178h133zM233 1149h-133l33 178h133zM203 0h-115l176 997h115z" />
    <glyph glyph-name="eth" unicode="&#xf0;" horiz-adv-x="1095" 
d="M881 592q0 147 -67.5 233t-183.5 86q-205 0 -314 -161.5t-109 -366.5q0 -206 97 -251.5t177 -45.5t156 48t130 123t84 167t30 168zM1020 799q0 -293 -114 -500.5t-234.5 -261t-216.5 -53.5q-182 0 -272.5 107t-90.5 286q0 248 148.5 442.5t379.5 194.5t295 -209
q3 19 3 73q0 128 -80 267l-115 -80l-29 41l115 82q-51 76 -156 176h119q78 -69 117 -123l106 76l29 -43l-109 -74q105 -176 105 -401z" />
    <glyph glyph-name="ntilde" unicode="&#xf1;" 
d="M665.5 1223.5q-20.5 11.5 -54.5 11.5t-95 -86l-74 37q94 137 201 137q45 0 87 -25.5t61.5 -38t49.5 -12.5t56.5 31t44.5 57l76 -35q-95 -139 -201 -139q-49 0 -90 25.5t-61.5 37zM1030 801q0 -51 -8 -92l-125 -709h-115l121 682q4 27 8 53.5t4 55.5q0 68 -35.5 92
t-105.5 24t-135.5 -35.5t-147 -122t-153.5 -255t-94 -297.5l-35 -197h-117l176 997h117l-55 -315q136 231 269.5 282.5t211.5 51.5q219 0 219 -215z" />
    <glyph glyph-name="ograve" unicode="&#xf2;" horiz-adv-x="1058" 
d="M578 1128l-187 248h137l148 -248h-98zM872 628q0 125 -61 205t-210 80t-271.5 -149.5t-122.5 -392.5q0 -131 62.5 -208t197.5 -77q166 0 285.5 151.5t119.5 390.5zM987 598q0 -100 -39 -214t-109.5 -203t-169 -143t-202.5 -54q-187 0 -281 112t-94 266q0 290 156 472
t383 182q171 0 263.5 -110.5t92.5 -307.5z" />
    <glyph glyph-name="oacute" unicode="&#xf3;" horiz-adv-x="1058" 
d="M725 1128h-98l192 248h137zM872 628q0 125 -61 205t-210 80t-271.5 -149.5t-122.5 -392.5q0 -131 62.5 -208t197.5 -77q166 0 285.5 151.5t119.5 390.5zM987 598q0 -100 -39 -214t-109.5 -203t-169 -143t-202.5 -54q-187 0 -281 112t-94 266q0 290 156 472t383 182
q171 0 263.5 -110.5t92.5 -307.5z" />
    <glyph glyph-name="ocircumflex" unicode="&#xf4;" horiz-adv-x="1058" 
d="M819 1128l-131 185l-196 -185h-99l246 248h123l156 -248h-99zM872 628q0 125 -61 205t-210 80t-271.5 -149.5t-122.5 -392.5q0 -131 62.5 -208t197.5 -77q166 0 285.5 151.5t119.5 390.5zM987 598q0 -100 -39 -214t-109.5 -203t-169 -143t-202.5 -54q-187 0 -281 112
t-94 266q0 290 156 472t383 182q171 0 263.5 -110.5t92.5 -307.5z" />
    <glyph glyph-name="otilde" unicode="&#xf5;" horiz-adv-x="1058" 
d="M626.5 1223.5q-20.5 11.5 -54.5 11.5t-95 -86l-74 37q94 137 201 137q45 0 87 -25.5t61.5 -38t49.5 -12.5t56.5 31t44.5 57l76 -35q-95 -139 -201 -139q-49 0 -90 25.5t-61.5 37zM872 628q0 125 -61 205t-210 80t-271.5 -149.5t-122.5 -392.5q0 -131 62.5 -208t197.5 -77
q166 0 285.5 151.5t119.5 390.5zM987 598q0 -100 -39 -214t-109.5 -203t-169 -143t-202.5 -54q-187 0 -281 112t-94 266q0 290 156 472t383 182q171 0 263.5 -110.5t92.5 -307.5z" />
    <glyph glyph-name="odieresis" unicode="&#xf6;" horiz-adv-x="1058" 
d="M549 1149h-133l33 178h133zM893 1149h-133l33 178h133zM872 628q0 125 -61 205t-210 80t-271.5 -149.5t-122.5 -392.5q0 -131 62.5 -208t197.5 -77q166 0 285.5 151.5t119.5 390.5zM987 598q0 -100 -39 -214t-109.5 -203t-169 -143t-202.5 -54q-187 0 -281 112t-94 266
q0 290 156 472t383 182q171 0 263.5 -110.5t92.5 -307.5z" />
    <glyph glyph-name="divide" unicode="&#xf7;" horiz-adv-x="1095" 
d="M694 98q0 -43 -30.5 -73.5t-73.5 -30.5t-74 30.5t-31 73.5t31 74t74 31t73.5 -31t30.5 -74zM694 729q0 -43 -30.5 -74.5t-73.5 -31.5t-74 31.5t-31 74.5t31 74t74 31t73.5 -31t30.5 -74zM1024 371h-870v86h870v-86z" />
    <glyph glyph-name="oslash" unicode="&#xf8;" horiz-adv-x="1257" 
d="M997 602q0 88 -32 162l-619 -582q77 -96 219 -96q94 0 174 46t169 160.5t89 309.5zM281 395q0 -83 32 -159l619 581q-77 96 -219 96q-195 0 -313.5 -157t-118.5 -361zM1112 624q0 -129 -41 -242.5t-115.5 -201.5t-178 -142t-228.5 -54q-182 0 -287 120l-127 -120l-43 43
l133 125q-59 95 -59 223q0 263 155.5 452t407.5 189q181 0 287 -121l127 121l43 -43l-133 -125q59 -95 59 -224z" />
    <glyph glyph-name="ugrave" unicode="&#xf9;" 
d="M614 1128l-186 248h137l148 -248h-99zM113 197q0 48 8 94l125 706h114l-122 -680q-4 -27 -8.5 -53t-4.5 -53q0 -68 35.5 -93.5t105.5 -25.5t135.5 36t143.5 118.5t150 244.5t102 312l37 194h117l-177 -997h-116l53 317q-78 -139 -205 -236t-276 -97q-217 0 -217 213z" />
    <glyph glyph-name="uacute" unicode="&#xfa;" 
d="M696 1128h-98l193 248h137zM113 197q0 48 8 94l125 706h114l-122 -680q-4 -27 -8.5 -53t-4.5 -53q0 -68 35.5 -93.5t105.5 -25.5t135.5 36t143.5 118.5t150 244.5t102 312l37 194h117l-177 -997h-116l53 317q-78 -139 -205 -236t-276 -97q-217 0 -217 213z" />
    <glyph glyph-name="ucircumflex" unicode="&#xfb;" 
d="M834 1128l-132 185l-196 -185h-98l245 248h123l156 -248h-98zM113 197q0 48 8 94l125 706h114l-122 -680q-4 -27 -8.5 -53t-4.5 -53q0 -68 35.5 -93.5t105.5 -25.5t135.5 36t143.5 118.5t150 244.5t102 312l37 194h117l-177 -997h-116l53 317q-78 -139 -205 -236
t-276 -97q-217 0 -217 213z" />
    <glyph glyph-name="udieresis" unicode="&#xfc;" 
d="M918 1149h-134l33 178h133zM573 1149h-133l33 178h133zM113 197q0 48 8 94l125 706h114l-122 -680q-4 -27 -8.5 -53t-4.5 -53q0 -68 35.5 -93.5t105.5 -25.5t135.5 36t143.5 118.5t150 244.5t102 312l37 194h117l-177 -997h-116l53 317q-78 -139 -205 -236t-276 -97
q-217 0 -217 213z" />
    <glyph glyph-name="yacute" unicode="&#xfd;" horiz-adv-x="929" 
d="M567 1128h-98l193 248h137zM219 -354h-110l204 354l-231 997h111l190 -876l487 876h121z" />
    <glyph glyph-name="thorn" unicode="&#xfe;" horiz-adv-x="1150" 
d="M301 180q118 -94 266 -94q82 0 159 52t158 182t81 364q0 115 -39 172t-126 57t-165 -63.5t-143.5 -164.5t-121.5 -247t-69 -258zM552 -16q-132 0 -269 84l-76 -420h-115l301 1718h117l-119 -672q65 139 180.5 230.5t247.5 91.5t196 -88t64 -225q0 -138 -33.5 -262
t-100 -225t-164 -166.5t-229.5 -65.5z" />
    <glyph glyph-name="ydieresis" unicode="&#xff;" horiz-adv-x="929" 
d="M795 1149h-133l32 178h133zM451 1149h-134l33 178h133zM219 -354h-110l204 354l-231 997h111l190 -876l487 876h121z" />
    <glyph glyph-name="dotlessi" unicode="&#x131;" horiz-adv-x="466" 
d="M203 0h-115l176 997h115z" />
    <glyph glyph-name="Lslash" unicode="&#x141;" horiz-adv-x="1128" 
d="M987 0h-833l108 614l-153 -92l-37 78l211 125l112 639h119l-100 -561l198 119l35 -76l-252 -152l-104 -592h715z" />
    <glyph glyph-name="lslash" unicode="&#x142;" horiz-adv-x="696" 
d="M369 -14q-213 0 -213 196q0 38 8 78l65 365l-163 -99l-35 70l215 127l112 641h115l-98 -565l196 119l33 -68l-248 -148l-77 -448q-19 -91 6.5 -122.5t55.5 -40.5t66.5 -8t73.5 1l-16 -98h-96z" />
    <glyph glyph-name="OE" unicode="&#x152;" horiz-adv-x="2086" 
d="M879 1262q-143 0 -261 -60.5t-201 -161t-129 -228.5t-46 -246q0 -219 116.5 -341.5t315.5 -122.5h305l205 1160h-305zM655 0q-244 0 -388 150t-144 391q0 166 56.5 315.5t158.5 262t244.5 179t314.5 66.5h1210l-18 -102h-786l-89 -504h734l-19 -105h-733l-98 -551h784
l-18 -102h-1209z" />
    <glyph glyph-name="oe" unicode="&#x153;" horiz-adv-x="1751" 
d="M1581 793q0 47 -41 83.5t-129 36.5q-160 0 -269.5 -98t-148.5 -258q410 19 499 104t89 132zM874 628q0 125 -62 205t-211 80t-271.5 -149.5t-122.5 -392.5q0 -131 62.5 -208t197.5 -77q168 0 287.5 151.5t119.5 390.5zM1290 -16q-212 0 -295.5 102t-107.5 164
q-72 -117 -182.5 -191.5t-267.5 -74.5t-251 112t-94 266q0 290 156 472t383 182q135 0 217 -65.5t117 -174.5q72 109 186.5 174.5t258.5 65.5t217 -63.5t73 -149.5q0 -147 -187.5 -235.5t-537.5 -110.5q-12 -175 82 -273t241 -98t297 57l27 -88q-154 -71 -332 -71z" />
    <glyph glyph-name="Scaron" unicode="&#x160;" horiz-adv-x="1261" 
d="M872 1481h-122l-156 248h98l131 -185l197 185h98zM1212 1225q-220 57 -417 57t-267.5 -28.5t-106.5 -80t-36 -133.5t54.5 -133t136 -92t176 -80t230.5 -117t136 -229q0 -213 -164 -312.5t-401 -99.5q-238 0 -492 107l33 92q241 -96 500 -96t331 105.5t72 183.5t-54 129
t-136 93t-177 81t-177 87t-136.5 111.5t-54.5 169.5t48 178t146 119t348 47q251 0 437 -65z" />
    <glyph glyph-name="scaron" unicode="&#x161;" horiz-adv-x="1001" 
d="M598 1128h-123l-156 248h99l131 -184l196 184h99zM283 770q0 -66 36.5 -99.5t77.5 -61t104 -70.5q151 -103 205 -156t54 -122q0 -131 -106 -204t-267 -73q-72 0 -170 24.5t-176 69.5l37 90q179 -82 305 -82q127 0 196.5 43t69.5 125q0 48 -46 87t-169 119
q-123 79 -192.5 147.5t-69.5 160.5q0 139 99.5 193.5t273.5 54.5q77 0 161.5 -18.5t120.5 -32.5l-22 -91q-146 39 -232 39q-162 0 -226 -25t-64 -118z" />
    <glyph glyph-name="Ydieresis" unicode="&#x178;" horiz-adv-x="1212" 
d="M678 1487h-133l30 178h134zM1022 1487h-133l31 178h133zM702 555l-98 -555h-121l99 555l-408 809h123l358 -707l600 707h142z" />
    <glyph glyph-name="Zcaron" unicode="&#x17d;" horiz-adv-x="1316" 
d="M864 1481h-121l-155 248h96l131 -185l199 185h96zM1350 1260l-1157 -1160h948l-13 -100h-1087l18 104l1149 1162h-915l18 98h1057z" />
    <glyph glyph-name="zcaron" unicode="&#x17e;" horiz-adv-x="1030" 
d="M649 1128h-123l-155 248h98l131 -184l197 184h98zM948 893l-772 -795h653l-18 -98h-780l18 104l772 799h-612l18 94h740z" />
    <glyph glyph-name="florin" unicode="&#x192;" horiz-adv-x="903" 
d="M786 1317q-88 0 -133 -54.5t-61 -148.5l-21 -117h232l-19 -96h-229l-170 -962q-29 -168 -122 -239t-210 -71q-57 0 -104 17l35 92q62 -10 90 -10q88 0 133 53t61 147l170 973h-153l18 96h154l18 109q29 168 121.5 238.5t210.5 70.5q71 0 137 -20l-33 -92q-88 14 -125 14z
" />
    <glyph glyph-name="circumflex" unicode="&#x2c6;" horiz-adv-x="811" 
d="M662 1128l-127 185l-201 -185h-98l245 248h123l156 -248h-98z" />
    <glyph glyph-name="caron" unicode="&#x2c7;" horiz-adv-x="811" 
d="M575 1128h-122l-156 248h98l131 -184l197 184h98z" />
    <glyph glyph-name="breve" unicode="&#x2d8;" horiz-adv-x="763" 
d="M297 1321q0 23 4 43h64q-2 -10 -3 -31q0 -66 45 -97.5t113 -31.5t122 42t69 118h63q-18 -104 -93 -160.5t-169 -56.5t-154.5 42t-60.5 132z" />
    <glyph glyph-name="dotaccent" unicode="&#x2d9;" horiz-adv-x="428" 
d="M381 1163h-115l37 201h115z" />
    <glyph glyph-name="ring" unicode="&#x2da;" horiz-adv-x="585" 
d="M545 1261q0 44 -25.5 68.5t-69.5 24.5t-82 -38t-38 -82t24.5 -69.5t68.5 -25.5t83 39t39 83zM401 1096q-44 0 -79 36t-35 80q0 80 54 132.5t114 52.5q61 0 96 -35t35 -79t-14.5 -75.5t-39 -56.5t-56 -40t-75.5 -15z" />
    <glyph glyph-name="ogonek" unicode="&#x2db;" horiz-adv-x="669" 
d="M102 -221q0 112 138 221h69q-47 -45 -85 -99.5t-38 -121.5q0 -101 113 -101q49 0 139 31l6 -41q-100 -41 -166 -41q-67 0 -121.5 37t-54.5 115z" />
    <glyph glyph-name="tilde" unicode="&#x2dc;" horiz-adv-x="821" 
d="M600 1161q-49 0 -90 25.5t-61.5 37t-40.5 11.5q-52 0 -109 -86l-74 37q94 137 201 137q45 0 87 -25.5t61.5 -38t49.5 -12.5t56.5 31t44.5 57l76 -35q-95 -139 -201 -139z" />
    <glyph glyph-name="hungarumlaut" unicode="&#x2dd;" horiz-adv-x="874" 
d="M621 1116h-99l238 248h135zM344 1116h-98l235 248h137z" />
    <glyph glyph-name="pi" unicode="&#x3c0;" horiz-adv-x="1212" 
d="M950 0h-721l17 86h575l-637 774l74 62l635 -777l102 580h84z" />
    <glyph glyph-name="endash" unicode="&#x2013;" horiz-adv-x="1138" 
d="M1036 500h-903l21 114h903z" />
    <glyph glyph-name="emdash" unicode="&#x2014;" horiz-adv-x="1603" 
d="M1501 500h-1368l21 114h1368z" />
    <glyph glyph-name="quoteleft" unicode="&#x2018;" horiz-adv-x="405" 
d="M303 1145h86l-35 -191h-149l35 193l110 217h66z" />
    <glyph glyph-name="quoteright" unicode="&#x2019;" horiz-adv-x="405" 
d="M422 1171l-113 -217h-63l110 220h-84l35 190h150z" />
    <glyph glyph-name="quotesinglbase" unicode="&#x201a;" horiz-adv-x="477" 
d="M248 0l-113 -217h-63l110 217h-84l35 193h150z" />
    <glyph glyph-name="quotedblleft" unicode="&#x201c;" horiz-adv-x="720" 
d="M303 1145h86l-35 -191h-149l35 193l110 217h66zM618 1145h87l-35 -191h-150l35 193l111 217h65z" />
    <glyph glyph-name="quotedblright" unicode="&#x201d;" horiz-adv-x="720" 
d="M422 1171l-113 -217h-63l110 220h-84l35 190h150zM737 1171l-112 -217h-64l111 220h-84l35 190h149z" />
    <glyph glyph-name="quotedblbase" unicode="&#x201e;" horiz-adv-x="792" 
d="M248 0l-113 -217h-63l110 217h-84l35 193h150zM563 0l-112 -217h-64l111 217h-84l35 193h149z" />
    <glyph glyph-name="dagger" unicode="&#x2020;" horiz-adv-x="993" 
d="M961 934l-363 53l-4 -131l-6 -264l-221 -860h-5l84 860l132 395l-383 -53l22 123l363 -53l8 360h129l-117 -360l383 53z" />
    <glyph glyph-name="daggerdbl" unicode="&#x2021;" horiz-adv-x="1167" 
d="M1137 934l-365 53l-12 -395l-35 -197l-125 -393l381 51l-20 -121l-365 54l-8 -361h-131l118 361l-380 -54l20 121l365 -51l6 393l35 197l131 395l-381 -53l20 123l365 -53l8 360h129l-117 -360l381 53z" />
    <glyph glyph-name="bullet" unicode="&#x2022;" horiz-adv-x="655" 
d="M538.5 573.5q-65.5 -65.5 -156 -65.5t-154.5 66t-64 157t63.5 156t154.5 65t156.5 -64t65.5 -157q0 -92 -65.5 -157.5z" />
    <glyph glyph-name="ellipsis" unicode="&#x2026;" horiz-adv-x="1449" 
d="M741 0h-149l33 193h149zM252 0h-150l33 193h150zM1233 0h-150l33 193h150z" />
    <glyph glyph-name="perthousand" unicode="&#x2030;" horiz-adv-x="2488" 
d="M602 0h-90l723 1364h90zM723 1036q0 49 -14.5 98.5t-42 87.5t-69.5 61.5t-97.5 23.5t-97.5 -23.5t-70.5 -61.5t-43 -87.5t-14.5 -98.5t14.5 -98t42 -88t70.5 -62.5t98.5 -23.5t97.5 23.5t69.5 62.5t42 88t14.5 98zM1957.5 514q-59.5 -84 -59.5 -192t61.5 -188.5
t165.5 -80.5t163 81.5t59 188.5t-59.5 191t-165 84t-165 -84zM1563 323.5q0 49.5 -14.5 98.5t-42 88t-70.5 63.5t-98.5 24.5t-97.5 -24.5t-69.5 -63.5t-42 -88t-14.5 -98.5t14.5 -98.5t42 -87t69.5 -61.5t97.5 -23.5t98.5 23.5t70.5 61.5t42 87t14.5 98.5zM2437 323.5
q0 -67.5 -22.5 -130t-63.5 -110.5t-98.5 -77t-129 -29t-129 29t-98.5 77t-63.5 110.5t-22.5 130t22.5 131t63.5 111.5t98.5 78t129 30t129 -30t98.5 -78t63.5 -111.5t22.5 -131zM811 1036.5q0 -67.5 -21.5 -131t-62.5 -112t-98.5 -78t-129 -29.5t-130 29.5t-99.5 78
t-63.5 112t-22.5 131t22.5 130t63.5 111.5t99.5 77.5t130 28.5t129 -28.5t98.5 -77.5t62.5 -111.5t21.5 -130zM1653 323.5q0 -67.5 -22.5 -130t-63.5 -110.5t-99.5 -77t-130 -29t-129 29t-98.5 77t-63.5 110.5t-22.5 130t22.5 131t63.5 111.5t98.5 78t129 30t130 -30
t99.5 -78t63.5 -111.5t22.5 -131z" />
    <glyph glyph-name="guilsinglleft" unicode="&#x2039;" horiz-adv-x="811" 
d="M229 500l334 -441l-71 -59l-379 500l555 497l51 -57z" />
    <glyph glyph-name="guilsinglright" unicode="&#x203a;" horiz-adv-x="811" 
d="M174 0l-51 59l489 441l-333 440l71 57l379 -497z" />
    <glyph glyph-name="fraction" unicode="&#x2044;" horiz-adv-x="913" 
d="M29 0h-49l1050 1364h47z" />
    <glyph glyph-name="Euro" unicode="&#x20ac;" horiz-adv-x="1460" 
d="M940 80q156 0 303 35l19 -90q-319 -90 -554 -17t-318 217t-95 271h-234l15 82h217q2 100 35 202h-215l14 82h233q108 243 320.5 382.5t497.5 139.5q170 0 313 -51l-27 -94q-168 43 -294 43q-235 0 -417.5 -112t-271.5 -308h439l-15 -82h-456q-35 -102 -37 -202h456
l-14 -82h-438q24 -205 170.5 -310.5t353.5 -105.5z" />
    <glyph glyph-name="trademark" unicode="&#x2122;" horiz-adv-x="1388" 
d="M678 1319h-223v-580h-52v580h-219v45h494v-45zM1399 739h-51v531l-224 -449h-30l-226 449v-531h-49v625h49l240 -475l240 475h51v-625z" />
    <glyph glyph-name="Omega" unicode="&#x2126;" horiz-adv-x="1253" 
d="M1057 442l-635 777l-103 -580h-83l129 725h718l-16 -86h-573l636 -774z" />
    <glyph glyph-name="partialdiff" unicode="&#x2202;" horiz-adv-x="1204" 
d="M717 125h-86v1094l-408 -406l-59 57l510 514l510 -514l-62 -59l-405 408v-1094z" />
    <glyph glyph-name="Delta" unicode="&#x2206;" horiz-adv-x="1204" 
d="M600 1237h86v-1094l408 406l59 -57l-510 -515l-510 515l62 59l405 -408v1094z" />
    <glyph glyph-name="product" unicode="&#x220f;" horiz-adv-x="1232" 
d="M285 86h575l-16 -86h-721l129 725h84l-103 -580l910 777l49 -62z" />
    <glyph glyph-name="summation" unicode="&#x2211;" horiz-adv-x="1232" 
d="M285 86h575l-16 -86h-721l129 725h84l-103 -580l910 777l49 -62z" />
    <glyph glyph-name="minus" unicode="&#x2212;" horiz-adv-x="708" 
d="M627 500h-494v114h494v-114z" />
    <glyph glyph-name="radical" unicode="&#x221a;" horiz-adv-x="1519" 
d="M836 139l-50 60l478 409h-1090l16 86h1090l-334 408l70 61l422 -512z" />
    <glyph glyph-name="infinity" unicode="&#x221e;" horiz-adv-x="1519" 
d="M1421 608h-1089l334 -409l-70 -60l-422 512l602 512l49 -61l-477 -408h1090z" />
    <glyph glyph-name="integral" unicode="&#x222b;" horiz-adv-x="1212" 
d="M950 0h-721l17 86h575l-637 774l74 62l635 -777l102 580h84z" />
    <glyph glyph-name="approxequal" unicode="&#x2248;" horiz-adv-x="1253" 
d="M1104 639h-84l102 580l-909 -777l-49 62l907 774h-573l16 86h719z" />
    <glyph glyph-name="notequal" unicode="&#x2260;" horiz-adv-x="1789" 
d="M1606 684h-682v-684h-678v1364h1360v-680z" />
    <glyph glyph-name="lessequal" unicode="&#x2264;" horiz-adv-x="1519" 
d="M1421 608h-1089l334 -409l-70 -60l-422 512l602 512l49 -61l-477 -408h1090z" />
    <glyph glyph-name="greaterequal" unicode="&#x2265;" horiz-adv-x="1519" 
d="M836 139l-50 60l478 409h-1090l16 86h1090l-334 408l70 61l422 -512z" />
    <glyph glyph-name="lozenge" unicode="&#x25ca;" horiz-adv-x="1519" 
d="M836 139l-50 60l478 409h-1090l16 86h1090l-334 408l70 61l422 -512z" />
    <glyph glyph-name="apple" unicode="&#xf8ff;" horiz-adv-x="1789" 
d="M1606 684h-682v-684h-678v1364h1360v-680z" />
    <glyph glyph-name="fi" unicode="&#xfb01;" horiz-adv-x="1052" 
d="M1006 1167h-115l35 197h114zM799 0h-115l176 995h115zM626 1319q-104 0 -144 -49t-58 -156l-21 -119h232l-17 -94h-231l-160 -901h-114l159 901h-153l16 94h154l18 113q38 253 144 280t179 27t136 -22l-23 -90q-56 16 -117 16z" />
    <glyph glyph-name="fl" unicode="&#xfb02;" horiz-adv-x="1138" 
d="M877 -12q-84 0 -132.5 47t-48.5 133q0 29 6 59l201 1137h115l-195 -1110q-10 -47 -10 -90t19.5 -60.5t71.5 -17.5t112 37l31 -78q-31 -27 -80 -42t-90 -15zM626 1319q-104 0 -144 -49t-58 -156l-21 -119h232l-17 -94h-231l-160 -901h-114l159 901h-153l16 94h154l18 113
q38 253 144 280t179 27t136 -22l-23 -90q-56 16 -117 16z" />
    <glyph glyph-name="_257" horiz-adv-x="2048" 
 />
    </font>
</defs>
</svg>
