<!-- Generator: Adobe Illustrator 19.1.0, SVG Export Plug-In  -->
<svg version="1.1"
	 xmlns="http://www.w3.org/2000/svg" xmlns:xlink="http://www.w3.org/1999/xlink" xmlns:a="http://ns.adobe.com/AdobeSVGViewerExtensions/3.0/"
	 x="0px" y="0px" width="87.7px" height="116.5px" viewBox="0 0 87.7 116.5" style="enable-background:new 0 0 87.7 116.5;"
	 xml:space="preserve">
<style type="text/css">
	.st0{fill:#0C4979;}
	.st1{fill:none;stroke:#010101;stroke-width:3.321;stroke-miterlimit:3.8636;}
	.st2{fill:#908F8E;}
	.st3{fill:none;stroke:#010101;stroke-width:2.3432;stroke-miterlimit:3.8636;}
</style>
<defs>
</defs>
<g>
	<path class="st0" d="M1.7,13.1c0-6.3,4.6-11.4,10.3-11.4h63.8C81.4,1.7,86,6.8,86,13.1v101.7H1.7V13.1z"/>
	<path class="st1" d="M1.7,13.1c0-6.3,4.6-11.4,10.3-11.4h63.8C81.4,1.7,86,6.8,86,13.1v101.7H1.7V13.1z"/>
	<path class="st2" d="M9,20.9c0-3,5.1-5.5,11.3-5.5h47c6.3,0,11.3,2.5,11.3,5.5v0c0,3-5.1,5.5-11.3,5.5h-47C14,26.4,9,24,9,20.9
		L9,20.9z"/>
	<path class="st3" d="M9,20.9c0-3,5.1-5.5,11.3-5.5h47c6.3,0,11.3,2.5,11.3,5.5v0c0,3-5.1,5.5-11.3,5.5h-47C14,26.4,9,24,9,20.9
		L9,20.9z"/>
</g>
</svg>
