<!-- Generator: Adobe Illustrator 19.1.0, SVG Export Plug-In  -->
<svg version="1.1"
	 xmlns="http://www.w3.org/2000/svg" xmlns:xlink="http://www.w3.org/1999/xlink" xmlns:a="http://ns.adobe.com/AdobeSVGViewerExtensions/3.0/"
	 x="0px" y="0px" width="87.7px" height="116.5px" viewBox="0 0 87.7 116.5" style="enable-background:new 0 0 87.7 116.5;"
	 xml:space="preserve">
<style type="text/css">
	.st0{fill:#4D843D;}
	.st1{fill:none;stroke:#010101;stroke-width:3.321;stroke-miterlimit:3.8636;}
	.st2{fill:#908F8E;}
	.st3{fill:none;stroke:#010101;stroke-width:2.3432;stroke-miterlimit:3.8636;}
</style>
<defs>
</defs>
<g>
	<path class="st0" d="M1.7,13.1c0-6.3,4.6-11.4,10.3-11.4h63.8C81.4,1.7,86,6.8,86,13.1v101.7H1.7V13.1z"/>
	<path class="st1" d="M1.7,13.1c0-6.3,4.6-11.4,10.3-11.4h63.8C81.4,1.7,86,6.8,86,13.1v101.7H1.7V13.1z"/>
	<path class="st2" d="M22.3,21.2c0-4.4,5.1-8,11.3-8H54c6.3,0,11.3,3.6,11.3,8c0,4.4-5.1,8-11.3,8H33.7
		C27.4,29.2,22.3,25.6,22.3,21.2z"/>
	<path class="st3" d="M22.3,21.2c0-4.4,5.1-8,11.3-8H54c6.3,0,11.3,3.6,11.3,8c0,4.4-5.1,8-11.3,8H33.7
		C27.4,29.2,22.3,25.6,22.3,21.2z"/>
</g>
</svg>
