<!-- Generator: Adobe Illustrator 18.0.0, SVG Export Plug-In  -->
<svg version="1.1"
	 xmlns="http://www.w3.org/2000/svg" xmlns:xlink="http://www.w3.org/1999/xlink" xmlns:a="http://ns.adobe.com/AdobeSVGViewerExtensions/3.0/"
	 x="0px" y="0px" width="73.5px" height="89.3px" viewBox="0 0 73.5 89.3" enable-background="new 0 0 73.5 89.3"
	 xml:space="preserve">
<defs>
</defs>
<g>
	<g>
		<path fill="#0094C2" d="M12,5.5c0-3,2.5-5.5,5.5-5.5H68c3,0,5.5,2.5,5.5,5.5v50.4c0,3-2.5,5.5-5.5,5.5H17.5c-3,0-5.5-2.5-5.5-5.5
			V5.5z"/>
		<g>
			<defs>
				<path id="SVGID_1_" d="M12,5.5c0-3,2.5-5.5,5.5-5.5H68c3,0,5.5,2.5,5.5,5.5v50.4c0,3-2.5,5.5-5.5,5.5H17.5c-3,0-5.5-2.5-5.5-5.5
					V5.5z"/>
			</defs>
			<clipPath id="SVGID_2_">
				<use xlink:href="#SVGID_1_"  overflow="visible"/>
			</clipPath>
			<path clip-path="url(#SVGID_2_)" fill-rule="evenodd" clip-rule="evenodd" fill="#007DA0" d="M66.2,34.6L51.1,64.8H0L19.6,26H20
				C23.3,26,65.5,33,66.2,34.6z"/>
		</g>
		<path fill="#DCE6EA" d="M18.9,29.1c0-3.2,2.6-5.9,5.9-5.9h36c3.2,0,5.9,2.6,5.9,5.9v3.3c0,3.2-2.6,5.9-5.9,5.9h-36
			c-3.2,0-5.9-2.6-5.9-5.9V29.1z"/>
		<circle fill="#D10F17" cx="58.4" cy="30.7" r="6.7"/>
	</g>
	<g>
		<path fill="#504D4C" d="M24.3,75l-0.7-1.8h-3.1L19.8,75h-1l2.8-7h0.8l2.8,7H24.3z M22.1,69l-1.3,3.4h2.6L22.1,69z"/>
		<path fill="#504D4C" d="M29.1,75c-0.2,0-0.5,0-0.7,0c-0.4,0-0.8-0.1-1.1-0.2c-0.3-0.1-0.6-0.3-0.9-0.6c-0.2-0.2-0.4-0.5-0.5-0.8
			c-0.1-0.3-0.2-0.7-0.2-1s0.1-0.7,0.2-1c0.1-0.3,0.3-0.6,0.5-0.8c0.2-0.2,0.5-0.4,0.9-0.6c0.3-0.1,0.7-0.2,1.1-0.2
			c0.2,0,0.4,0,0.6,0c0.2,0,0.4,0.1,0.7,0.2l-0.2,0.7c-0.2,0-0.4-0.1-0.5-0.1c-0.2,0-0.4,0-0.5,0c-0.3,0-0.6,0-0.8,0.1
			c-0.2,0.1-0.4,0.2-0.6,0.4c-0.2,0.2-0.3,0.4-0.4,0.6c-0.1,0.2-0.1,0.5-0.1,0.8c0,0.6,0.2,1,0.5,1.4s0.8,0.5,1.4,0.5
			c0.2,0,0.3,0,0.5,0s0.3-0.1,0.6-0.1l0.2,0.7C29.5,74.9,29.3,75,29.1,75z"/>
		<path fill="#504D4C" d="M32.9,75c-0.1,0-0.2,0-0.3,0c-0.4,0-0.8-0.1-1-0.3c-0.3-0.2-0.4-0.6-0.4-1.2v-3h-0.7v-0.7h0.7v-1.4h0.9
			v1.4h1v0.7h-1v3c0,0.3,0.1,0.5,0.2,0.6c0.1,0.1,0.2,0.2,0.4,0.2c0.1,0,0.1,0,0.2,0c0.1,0,0.2,0,0.3,0l0.1,0.7
			C33.2,75,33.1,75,32.9,75z"/>
		<path fill="#504D4C" d="M34.5,69v-1.1h0.9V69H34.5z M34.5,75v-5.1h0.9V75H34.5z"/>
		<path fill="#504D4C" d="M39.1,75h-0.9l-2-5.1h0.9l1.5,4.1l1.5-4.1h0.9L39.1,75z"/>
		<path fill="#504D4C" d="M41.9,69v-1.1h0.9V69H41.9z M41.9,75v-5.1h0.9V75H41.9z"/>
		<path fill="#504D4C" d="M48,75v-0.8c-0.2,0.3-0.4,0.5-0.7,0.7C47.1,75,46.8,75,46.4,75c-0.4,0-0.7-0.1-1-0.2
			c-0.3-0.2-0.5-0.4-0.7-0.6c-0.2-0.3-0.3-0.5-0.4-0.8c-0.1-0.3-0.1-0.6-0.1-0.9c0-0.3,0-0.6,0.1-1c0.1-0.3,0.2-0.6,0.4-0.8
			c0.2-0.2,0.4-0.4,0.7-0.6c0.3-0.2,0.6-0.2,1-0.2c0.7,0,1.2,0.3,1.6,0.9V68h0.9v7H48z M48,72.4c0-0.3,0-0.5-0.1-0.7
			c-0.1-0.2-0.2-0.4-0.3-0.6c-0.1-0.2-0.3-0.3-0.5-0.4c-0.2-0.1-0.4-0.1-0.6-0.1c-0.2,0-0.5,0-0.6,0.1c-0.2,0.1-0.3,0.2-0.5,0.4
			c-0.1,0.2-0.2,0.4-0.3,0.6c-0.1,0.2-0.1,0.5-0.1,0.7c0,0.3,0,0.5,0.1,0.7c0.1,0.2,0.2,0.4,0.3,0.6c0.1,0.2,0.3,0.3,0.5,0.4
			c0.2,0.1,0.4,0.1,0.6,0.1c0.2,0,0.4,0,0.6-0.1c0.2-0.1,0.3-0.2,0.5-0.4c0.1-0.2,0.2-0.4,0.3-0.6C48,72.9,48,72.7,48,72.4z"/>
		<path fill="#504D4C" d="M53.5,75v-0.6c-0.2,0.2-0.4,0.4-0.6,0.5s-0.6,0.2-1,0.2c-0.5,0-0.9-0.1-1.3-0.4s-0.5-0.6-0.5-1.1
			c0-0.5,0.1-0.8,0.4-1.1c0.3-0.3,0.7-0.4,1.2-0.4h1.6v-0.5c0-0.3-0.1-0.6-0.3-0.8s-0.6-0.3-1.1-0.3c-0.2,0-0.5,0-0.8,0
			c-0.3,0-0.5,0.1-0.8,0.1l-0.1-0.7c0.3-0.1,0.5-0.1,0.8-0.1s0.6,0,0.9,0c0.7,0,1.3,0.2,1.7,0.5s0.6,0.7,0.6,1.3V75H53.5z
			 M53.5,72.7h-1.4c-0.3,0-0.6,0.1-0.7,0.2c-0.2,0.1-0.2,0.3-0.2,0.6c0,0.3,0.1,0.5,0.2,0.6c0.2,0.1,0.4,0.2,0.7,0.2
			c0.4,0,0.8-0.1,1-0.3s0.4-0.5,0.4-0.9V72.7z"/>
		<path fill="#504D4C" d="M59.4,75v-0.8c-0.2,0.3-0.4,0.5-0.7,0.7C58.4,75,58.1,75,57.8,75c-0.4,0-0.7-0.1-1-0.2
			c-0.3-0.2-0.5-0.4-0.7-0.6c-0.2-0.3-0.3-0.5-0.4-0.8c-0.1-0.3-0.1-0.6-0.1-0.9c0-0.3,0-0.6,0.1-1c0.1-0.3,0.2-0.6,0.4-0.8
			c0.2-0.2,0.4-0.4,0.7-0.6c0.3-0.2,0.6-0.2,1-0.2c0.7,0,1.2,0.3,1.6,0.9V68h0.9v7H59.4z M59.4,72.4c0-0.3,0-0.5-0.1-0.7
			c-0.1-0.2-0.2-0.4-0.3-0.6c-0.1-0.2-0.3-0.3-0.5-0.4c-0.2-0.1-0.4-0.1-0.6-0.1c-0.2,0-0.5,0-0.6,0.1c-0.2,0.1-0.3,0.2-0.5,0.4
			c-0.1,0.2-0.2,0.4-0.3,0.6c-0.1,0.2-0.1,0.5-0.1,0.7c0,0.3,0,0.5,0.1,0.7c0.1,0.2,0.2,0.4,0.3,0.6c0.1,0.2,0.3,0.3,0.5,0.4
			c0.2,0.1,0.4,0.1,0.6,0.1c0.2,0,0.4,0,0.6-0.1c0.2-0.1,0.3-0.2,0.5-0.4c0.1-0.2,0.2-0.4,0.3-0.6C59.3,72.9,59.4,72.7,59.4,72.4z"
			/>
		<path fill="#504D4C" d="M62.5,72.7c0,0.5,0.2,0.9,0.5,1.2s0.7,0.4,1.3,0.4c0.2,0,0.5,0,0.8-0.1c0.3,0,0.5-0.1,0.7-0.1l0.2,0.7
			c-0.3,0.1-0.6,0.2-0.9,0.2c-0.3,0-0.6,0.1-0.8,0.1c-0.4,0-0.8-0.1-1.2-0.2c-0.3-0.1-0.6-0.3-0.9-0.5s-0.4-0.5-0.5-0.8
			c-0.1-0.3-0.2-0.7-0.2-1.1c0-0.4,0.1-0.7,0.2-1c0.1-0.3,0.3-0.6,0.5-0.8c0.2-0.2,0.5-0.4,0.8-0.6c0.3-0.1,0.6-0.2,1-0.2
			c0.4,0,0.7,0.1,1,0.2c0.3,0.1,0.5,0.3,0.7,0.6c0.2,0.2,0.3,0.5,0.5,0.8c0.1,0.3,0.2,0.7,0.2,1v0.3H62.5z M65.4,72
			c0-0.5-0.2-0.8-0.4-1.1c-0.2-0.3-0.6-0.4-1-0.4c-0.4,0-0.8,0.1-1,0.4s-0.4,0.6-0.5,1.1H65.4z"/>
		<path fill="#504D4C" d="M26.9,87.5v-5.3l-2.2,4.2h-0.6L22,82.3v5.3H21v-7H22l2.5,4.7l2.5-4.7h0.9v7H26.9z"/>
		<path fill="#504D4C" d="M33,87.5v-0.9c-0.2,0.3-0.4,0.5-0.7,0.7c-0.3,0.2-0.7,0.3-1,0.3c-0.6,0-1-0.2-1.3-0.5
			c-0.3-0.3-0.4-0.8-0.4-1.4v-3.3h0.9v3.2c0,0.4,0.1,0.7,0.3,0.9s0.4,0.3,0.8,0.3c0.2,0,0.4,0,0.5-0.1c0.2-0.1,0.3-0.2,0.5-0.3
			c0.1-0.1,0.3-0.3,0.3-0.5s0.1-0.4,0.1-0.7v-2.7h0.9v5.1H33z"/>
		<path fill="#504D4C" d="M39.1,87.5v-3.2c0-0.4-0.1-0.7-0.3-0.9s-0.4-0.3-0.8-0.3c-0.2,0-0.4,0-0.5,0.1c-0.2,0.1-0.3,0.2-0.5,0.3
			c-0.1,0.1-0.3,0.3-0.3,0.5s-0.1,0.4-0.1,0.7v2.7h-0.9v-5.1h0.9v0.9c0.2-0.3,0.4-0.5,0.7-0.7c0.3-0.2,0.7-0.3,1-0.3
			c0.6,0,1,0.2,1.3,0.5c0.3,0.3,0.4,0.8,0.4,1.4v3.3H39.1z"/>
		<path fill="#504D4C" d="M41.6,81.6v-1.1h0.9v1.1H41.6z M41.6,87.5v-5.1h0.9v5.1H41.6z"/>
		<path fill="#504D4C" d="M47.1,87.6c-0.2,0-0.5,0-0.7,0c-0.4,0-0.8-0.1-1.1-0.2c-0.3-0.1-0.6-0.3-0.9-0.6c-0.2-0.2-0.4-0.5-0.5-0.8
			c-0.1-0.3-0.2-0.7-0.2-1s0.1-0.7,0.2-1c0.1-0.3,0.3-0.6,0.5-0.8c0.2-0.2,0.5-0.4,0.9-0.6c0.3-0.1,0.7-0.2,1.1-0.2
			c0.2,0,0.4,0,0.6,0c0.2,0,0.4,0.1,0.7,0.2l-0.2,0.7c-0.2,0-0.4-0.1-0.5-0.1c-0.2,0-0.4,0-0.5,0c-0.3,0-0.6,0-0.8,0.1
			c-0.2,0.1-0.4,0.2-0.6,0.4c-0.2,0.2-0.3,0.4-0.4,0.6c-0.1,0.2-0.1,0.5-0.1,0.8c0,0.6,0.2,1,0.5,1.4s0.8,0.5,1.4,0.5
			c0.2,0,0.3,0,0.5,0s0.3-0.1,0.6-0.1l0.2,0.7C47.6,87.5,47.4,87.5,47.1,87.6z"/>
		<path fill="#504D4C" d="M49.1,81.6v-1.1H50v1.1H49.1z M49.1,87.5v-5.1H50v5.1H49.1z"/>
		<path fill="#504D4C" d="M56.5,85c0,0.3,0,0.6-0.1,1c-0.1,0.3-0.2,0.6-0.4,0.8c-0.2,0.2-0.4,0.4-0.7,0.6s-0.6,0.2-1,0.2
			c-0.7,0-1.2-0.3-1.6-0.9v2.6h-0.9v-6.9h0.9l0,0.8c0.2-0.3,0.4-0.5,0.7-0.7s0.6-0.2,0.9-0.2c0.4,0,0.7,0.1,1,0.2
			c0.3,0.2,0.5,0.4,0.7,0.6c0.2,0.3,0.3,0.5,0.4,0.8S56.5,84.6,56.5,85z M55.6,85c0-0.3,0-0.5-0.1-0.7c-0.1-0.2-0.2-0.4-0.3-0.6
			c-0.1-0.2-0.3-0.3-0.5-0.4c-0.2-0.1-0.4-0.1-0.6-0.1s-0.5,0-0.6,0.1c-0.2,0.1-0.3,0.2-0.5,0.4c-0.1,0.2-0.2,0.4-0.3,0.6
			c-0.1,0.2-0.1,0.5-0.1,0.7c0,0.3,0,0.5,0.1,0.7c0.1,0.2,0.2,0.4,0.3,0.6c0.1,0.2,0.3,0.3,0.5,0.4c0.2,0.1,0.4,0.1,0.6,0.1
			s0.5,0,0.6-0.1c0.2-0.1,0.3-0.2,0.5-0.4c0.1-0.2,0.2-0.4,0.3-0.6C55.5,85.5,55.6,85.2,55.6,85z"/>
		<path fill="#504D4C" d="M60.7,87.5v-0.6c-0.2,0.2-0.4,0.4-0.6,0.5s-0.6,0.2-1,0.2c-0.5,0-0.9-0.1-1.3-0.4s-0.5-0.6-0.5-1.1
			c0-0.5,0.1-0.8,0.4-1.1c0.3-0.3,0.7-0.4,1.2-0.4h1.6v-0.5c0-0.3-0.1-0.6-0.3-0.8s-0.6-0.3-1.1-0.3c-0.2,0-0.5,0-0.8,0
			c-0.3,0-0.5,0.1-0.8,0.1l-0.1-0.7c0.3-0.1,0.5-0.1,0.8-0.1s0.6,0,0.9,0c0.7,0,1.3,0.2,1.7,0.5s0.6,0.7,0.6,1.3v3.4H60.7z
			 M60.7,85.3h-1.4c-0.3,0-0.6,0.1-0.7,0.2c-0.2,0.1-0.2,0.3-0.2,0.6c0,0.3,0.1,0.5,0.2,0.6c0.2,0.1,0.4,0.2,0.7,0.2
			c0.4,0,0.8-0.1,1-0.3s0.4-0.5,0.4-0.9V85.3z"/>
		<path fill="#504D4C" d="M64.5,87.6c-0.2,0-0.4,0-0.6-0.1c-0.2-0.1-0.3-0.1-0.5-0.3c-0.1-0.1-0.2-0.3-0.3-0.5
			c-0.1-0.2-0.1-0.4-0.1-0.7v-5.5h0.9V86c0,0.3,0.1,0.5,0.2,0.6c0.1,0.1,0.3,0.2,0.5,0.2h0.5v0.7H64.5z"/>
	</g>
</g>
</svg>
