<?xml version="1.0" encoding="utf-8"?>
<!-- Generator: Adobe Illustrator 19.1.0, SVG Export Plug-In . SVG Version: 6.00 Build 0)  -->
<svg version="1.1" id="Layer_1" xmlns="http://www.w3.org/2000/svg" xmlns:xlink="http://www.w3.org/1999/xlink" x="0px" y="0px"
	 viewBox="-218 212.7 73.5 92" style="enable-background:new -218 212.7 73.5 92;" xml:space="preserve">
<metadata><?xpacket begin="﻿" id="W5M0MpCehiHzreSzNTczkc9d"?>
<x:xmpmeta xmlns:x="adobe:ns:meta/" x:xmptk="Adobe XMP Core 5.6-c067 79.157747, 2015/03/30-23:40:42        ">
   <rdf:RDF xmlns:rdf="http://www.w3.org/1999/02/22-rdf-syntax-ns#">
      <rdf:Description rdf:about=""/>
   </rdf:RDF>
</x:xmpmeta>
                                                                                                    
                                                                                                    
                                                                                                    
                                                                                                    
                                                                                                    
                                                                                                    
                                                                                                    
                                                                                                    
                                                                                                    
                                                                                                    
                                                                                                    
                                                                                                    
                                                                                                    
                                                                                                    
                                                                                                    
                                                                                                    
                                                                                                    
                                                                                                    
                                                                                                    
                                                                                                    
                           
<?xpacket end="w"?></metadata>
<style type="text/css">
	.st0{fill:#0094C2;}
	.st1{clip-path:url(#SVGID_2_);fill:#007DA0;}
	.st2{fill:#DCE6EA;}
	.st3{fill:#D10F17;}
	.st4{fill:#504D4C;}
</style>
<g>
	<path class="st0" d="M-206,218.2c0-3,2.5-5.5,5.5-5.5h50.5c3,0,5.5,2.5,5.5,5.5v50.4c0,3-2.5,5.5-5.5,5.5h-50.5
		c-3,0-5.5-2.5-5.5-5.5V218.2z"/>
	<g>
		<g>
			<defs>
				<path id="SVGID_1_" d="M-206,218.2c0-3,2.5-5.5,5.5-5.5h50.5c3,0,5.5,2.5,5.5,5.5v50.4c0,3-2.5,5.5-5.5,5.5h-50.5
					c-3,0-5.5-2.5-5.5-5.5V218.2z"/>
			</defs>
			<clipPath id="SVGID_2_">
				<use xlink:href="#SVGID_1_"  style="overflow:visible;"/>
			</clipPath>
			<path class="st1" d="M-151.8,247.3l-15.1,30.2H-218l19.6-38.8h0.4C-194.7,238.7-152.5,245.7-151.8,247.3z"/>
		</g>
	</g>
	<path class="st2" d="M-199.1,241.8c0-3.2,2.6-5.9,5.9-5.9h36c3.2,0,5.9,2.6,5.9,5.9v3.3c0,3.2-2.6,5.9-5.9,5.9h-36
		c-3.2,0-5.9-2.6-5.9-5.9C-199.1,245.1-199.1,241.8-199.1,241.8z"/>
	<circle class="st3" cx="-159.6" cy="243.4" r="6.7"/>
</g>
<g>
	<path class="st4" d="M-198.3,286.8l-0.9-2.2h-3.9l-0.9,2.2h-1.2l3.5-8.8h1l3.5,8.8H-198.3z M-201,279.3l-1.6,4.2h3.2L-201,279.3z"
		/>
	<path class="st4" d="M-192.3,286.8c-0.2,0-0.6,0-0.9,0c-0.5,0-1-0.1-1.4-0.2s-0.8-0.4-1.1-0.8c-0.2-0.2-0.5-0.6-0.6-1
		s-0.2-0.9-0.2-1.2s0.1-0.9,0.2-1.2s0.4-0.8,0.6-1s0.6-0.5,1.1-0.8c0.4-0.1,0.9-0.2,1.4-0.2c0.2,0,0.5,0,0.8,0s0.5,0.1,0.9,0.2
		l-0.2,0.9c-0.2,0-0.5-0.1-0.6-0.1c-0.2,0-0.5,0-0.6,0c-0.4,0-0.8,0-1,0.1s-0.5,0.2-0.8,0.5s-0.4,0.5-0.5,0.8s-0.1,0.6-0.1,1
		c0,0.8,0.2,1.2,0.6,1.8s1,0.6,1.8,0.6c0.2,0,0.4,0,0.6,0s0.4-0.1,0.8-0.1l0.2,0.9C-191.8,286.7-192,286.8-192.3,286.8z"/>
	<path class="st4" d="M-187.5,286.8c-0.1,0-0.2,0-0.4,0c-0.5,0-1-0.1-1.2-0.4c-0.4-0.2-0.5-0.8-0.5-1.5v-3.8h-0.9v-0.9h0.9v-1.8h1.1
		v1.8h1.2v0.9h-1.2v3.8c0,0.4,0.1,0.6,0.2,0.8s0.2,0.2,0.5,0.2c0.1,0,0.1,0,0.2,0s0.2,0,0.4,0l0.1,0.9
		C-187.1,286.8-187.3,286.8-187.5,286.8z"/>
	<path class="st4" d="M-185.5,279.3v-1.4h1.1v1.4H-185.5z M-185.5,286.8v-6.4h1.1v6.4H-185.5z"/>
	<path class="st4" d="M-179.8,286.8h-1.1l-2.5-6.4h1.1l1.9,5.1l1.9-5.1h1.1L-179.8,286.8z"/>
	<path class="st4" d="M-176.3,279.3v-1.4h1.1v1.4H-176.3z M-176.3,286.8v-6.4h1.1v6.4H-176.3z"/>
	<path class="st4" d="M-168.6,286.8v-1c-0.2,0.4-0.5,0.6-0.9,0.9c-0.2,0.1-0.6,0.1-1.1,0.1s-0.9-0.1-1.2-0.2
		c-0.4-0.2-0.6-0.5-0.9-0.8c-0.2-0.4-0.4-0.6-0.5-1s-0.1-0.8-0.1-1.1s0-0.8,0.1-1.2c0.1-0.4,0.2-0.8,0.5-1s0.5-0.5,0.9-0.8
		s0.8-0.2,1.2-0.2c0.9,0,1.5,0.4,2,1.1V278h1.1v8.8H-168.6z M-168.6,283.5c0-0.4,0-0.6-0.1-0.9c-0.1-0.2-0.2-0.5-0.4-0.7
		c-0.1-0.2-0.4-0.4-0.6-0.5c-0.2-0.1-0.5-0.1-0.8-0.1s-0.6,0-0.8,0.1c-0.2,0.1-0.4,0.2-0.6,0.5c-0.1,0.2-0.2,0.5-0.4,0.7
		c-0.1,0.2-0.1,0.6-0.1,0.9c0,0.4,0,0.6,0.1,0.9s0.2,0.5,0.4,0.8s0.4,0.4,0.6,0.5s0.5,0.1,0.8,0.1s0.5,0,0.8-0.1s0.4-0.2,0.6-0.5
		c0.1-0.2,0.2-0.5,0.4-0.8S-168.6,283.9-168.6,283.5z"/>
	<path class="st4" d="M-161.8,286.8V286c-0.2,0.2-0.5,0.5-0.8,0.6s-0.8,0.2-1.2,0.2c-0.6,0-1.1-0.1-1.6-0.5s-0.6-0.8-0.6-1.4
		s0.1-1,0.5-1.4s0.9-0.5,1.5-0.5h2v-0.6c0-0.4-0.1-0.8-0.4-1s-0.8-0.4-1.4-0.4c-0.2,0-0.6,0-1,0s-0.6,0.1-1,0.1l-0.1-0.9
		c0.4-0.1,0.6-0.1,1-0.1s0.8,0,1.1,0c0.9,0,1.6,0.2,2.1,0.6c0.5,0.4,0.7,0.9,0.7,1.6v4.2H-161.8z M-161.8,283.9h-1.8
		c-0.4,0-0.8,0.1-0.9,0.2c-0.3,0.1-0.3,0.4-0.3,0.8s0.1,0.6,0.3,0.8c0.2,0.1,0.5,0.2,0.9,0.2c0.5,0,1-0.1,1.2-0.4s0.5-0.6,0.5-1.1
		V283.9z"/>
	<path class="st4" d="M-154.4,286.8v-1c-0.2,0.4-0.5,0.6-0.9,0.9c-0.4,0.1-0.8,0.1-1.1,0.1c-0.5,0-0.9-0.1-1.2-0.2
		c-0.4-0.2-0.6-0.5-0.9-0.8c-0.2-0.4-0.4-0.6-0.5-1c-0.1-0.4-0.1-0.8-0.1-1.1s0-0.8,0.1-1.2c0.1-0.4,0.3-0.8,0.5-1s0.5-0.5,0.9-0.8
		s0.8-0.2,1.2-0.2c0.9,0,1.5,0.4,2,1.1V278h1.1v8.8H-154.4z M-154.4,283.5c0-0.4,0-0.6-0.1-0.9c-0.1-0.2-0.2-0.5-0.4-0.7
		c-0.1-0.2-0.4-0.4-0.6-0.5c-0.2-0.1-0.5-0.1-0.8-0.1s-0.6,0-0.8,0.1c-0.2,0.1-0.4,0.2-0.6,0.5c-0.1,0.2-0.2,0.5-0.4,0.7
		c-0.1,0.2-0.1,0.6-0.1,0.9c0,0.4,0,0.6,0.1,0.9s0.2,0.5,0.4,0.8s0.4,0.4,0.6,0.5s0.5,0.1,0.8,0.1s0.5,0,0.8-0.1s0.4-0.2,0.6-0.5
		c0.1-0.2,0.2-0.5,0.4-0.8C-154.5,284.2-154.4,283.9-154.4,283.5z"/>
	<path class="st4" d="M-150.5,283.9c0,0.6,0.2,1.1,0.6,1.5s0.9,0.5,1.6,0.5c0.2,0,0.6,0,1-0.1c0.4,0,0.6-0.1,0.9-0.1l0.2,0.9
		c-0.4,0.1-0.8,0.2-1.1,0.2c-0.4,0-0.8,0.1-1,0.1c-0.5,0-1-0.1-1.5-0.2c-0.4-0.1-0.8-0.4-1.1-0.6s-0.5-0.6-0.6-1s-0.2-0.9-0.2-1.4
		s0.1-0.9,0.2-1.2s0.4-0.8,0.6-1s0.6-0.5,1-0.8c0.4-0.1,0.8-0.2,1.2-0.2s0.9,0.1,1.2,0.2s0.6,0.4,0.9,0.8c0.2,0.2,0.4,0.6,0.6,1
		c0.1,0.4,0.2,0.9,0.2,1.2v0.4h-4.9V283.9z M-146.9,283c0-0.6-0.2-1-0.5-1.4s-0.8-0.5-1.2-0.5s-1,0.1-1.2,0.5s-0.5,0.8-0.6,1.4
		H-146.9z"/>
	<path class="st4" d="M-195,302.4v-6.6l-2.8,5.2h-0.8l-2.6-5.1v6.6h-1.2v-8.8h1.2l3.1,5.9l3.1-5.9h1.1v8.8h-1.2V302.4z"/>
	<path class="st4" d="M-187.4,302.4v-1.1c-0.2,0.4-0.5,0.6-0.9,0.9s-0.9,0.4-1.2,0.4c-0.8,0-1.2-0.2-1.6-0.6s-0.5-1-0.5-1.8V296h1.1
		v4c0,0.5,0.1,0.9,0.4,1.1s0.5,0.4,1,0.4c0.2,0,0.5,0,0.6-0.1c0.2-0.1,0.4-0.2,0.6-0.4c0.1-0.1,0.4-0.4,0.4-0.6s0.1-0.5,0.1-0.9
		v-3.4h1.1v6.4h-1.1V302.4z"/>
	<path class="st4" d="M-179.8,302.4v-4c0-0.5-0.1-0.9-0.4-1.1c-0.2-0.2-0.5-0.4-1-0.4c-0.2,0-0.5,0-0.6,0.1
		c-0.2,0.1-0.4,0.2-0.6,0.4c-0.1,0.1-0.4,0.4-0.4,0.6s-0.1,0.5-0.1,0.9v3.4h-1.1v-6.4h1.1v1.1c0.2-0.4,0.5-0.6,0.9-0.9
		s0.9-0.4,1.2-0.4c0.8,0,1.2,0.2,1.6,0.6s0.5,1,0.5,1.8v4.1h-1.1V302.4z"/>
	<path class="st4" d="M-176.6,295v-1.4h1.1v1.4H-176.6z M-176.6,302.4V296h1.1v6.4H-176.6z"/>
	<path class="st4" d="M-169.8,302.5c-0.2,0-0.6,0-0.9,0c-0.5,0-1-0.1-1.4-0.2s-0.8-0.4-1.1-0.8c-0.3-0.2-0.5-0.6-0.6-1
		c-0.1-0.4-0.3-0.9-0.3-1.2s0.1-0.9,0.3-1.2c0.1-0.4,0.4-0.8,0.6-1c0.2-0.2,0.6-0.5,1.1-0.8c0.4-0.1,0.9-0.2,1.4-0.2
		c0.2,0,0.5,0,0.7,0c0.2,0,0.5,0.1,0.9,0.2l-0.2,0.9c-0.2,0-0.5-0.1-0.6-0.1c-0.2,0-0.5,0-0.6,0c-0.4,0-0.7,0-1,0.1
		c-0.2,0.1-0.5,0.2-0.7,0.5c-0.2,0.2-0.4,0.5-0.5,0.8c-0.1,0.2-0.1,0.6-0.1,1c0,0.8,0.2,1.2,0.6,1.8s1,0.6,1.8,0.6
		c0.2,0,0.4,0,0.6,0s0.4-0.1,0.8-0.1l0.2,0.9C-169.1,302.4-169.4,302.4-169.8,302.5z"/>
	<path class="st4" d="M-167.3,295v-1.4h1.1v1.4H-167.3z M-167.3,302.4V296h1.1v6.4H-167.3z"/>
	<path class="st4" d="M-158,299.3c0,0.4,0,0.8-0.1,1.2c-0.1,0.4-0.2,0.8-0.5,1s-0.5,0.5-0.9,0.8s-0.8,0.2-1.2,0.2
		c-0.9,0-1.5-0.4-2-1.1v3.2h-1.1V296h1.1v1c0.2-0.4,0.5-0.6,0.9-0.9s0.8-0.2,1.1-0.2c0.5,0,0.9,0.1,1.2,0.2c0.4,0.2,0.6,0.5,0.9,0.8
		c0.2,0.4,0.4,0.6,0.5,1S-158,298.8-158,299.3z M-159.1,299.3c0-0.4,0-0.6-0.1-0.9c-0.1-0.2-0.2-0.5-0.4-0.8
		c-0.1-0.2-0.4-0.4-0.6-0.5s-0.5-0.1-0.8-0.1s-0.6,0-0.8,0.1c-0.2,0.1-0.4,0.2-0.6,0.5c-0.1,0.2-0.2,0.5-0.4,0.8
		c-0.1,0.2-0.1,0.6-0.1,0.9c0,0.4,0,0.6,0.1,0.9s0.2,0.5,0.4,0.8s0.4,0.4,0.6,0.5s0.5,0.1,0.8,0.1s0.6,0,0.8-0.1
		c0.2-0.1,0.4-0.2,0.6-0.5c0.1-0.2,0.2-0.5,0.4-0.8C-159.3,299.9-159.1,299.5-159.1,299.3z"/>
	<path class="st4" d="M-152.8,302.4v-0.8c-0.2,0.2-0.5,0.5-0.8,0.6s-0.8,0.2-1.2,0.2c-0.6,0-1.1-0.1-1.6-0.5s-0.6-0.8-0.6-1.4
		s0.1-1,0.5-1.4s0.9-0.5,1.5-0.5h2v-0.6c0-0.4-0.1-0.8-0.4-1s-0.8-0.4-1.4-0.4c-0.2,0-0.6,0-1,0s-0.6,0.1-1,0.1l-0.1-0.9
		c0.4-0.1,0.6-0.1,1-0.1s0.8,0,1.1,0c0.9,0,1.6,0.2,2.1,0.6c0.5,0.4,0.7,0.9,0.7,1.6v4.2H-152.8z M-152.8,299.7h-1.8
		c-0.4,0-0.8,0.1-0.9,0.2c-0.2,0.1-0.2,0.4-0.2,0.8s0.1,0.6,0.2,0.8c0.2,0.1,0.5,0.2,0.9,0.2c0.5,0,1-0.1,1.2-0.4s0.5-0.6,0.5-1.1
		V299.7z"/>
	<path class="st4" d="M-148,302.5c-0.2,0-0.5,0-0.8-0.1s-0.4-0.1-0.6-0.4c-0.1-0.1-0.2-0.4-0.4-0.6s-0.1-0.5-0.1-0.9v-6.9h1.1v6.9
		c0,0.4,0.1,0.6,0.2,0.8s0.4,0.2,0.6,0.2h0.6v0.9h-0.8V302.5z"/>
</g>
</svg>
