<?xml version="1.0" encoding="utf-8"?>
<!-- Generator: Adobe Illustrator 19.1.0, SVG Export Plug-In . SVG Version: 6.00 Build 0)  -->
<svg version="1.1" id="Layer_1" xmlns="http://www.w3.org/2000/svg" xmlns:xlink="http://www.w3.org/1999/xlink" x="0px" y="0px"
	 viewBox="-221 213.4 68.3 90.1" style="enable-background:new -221 213.4 68.3 90.1;" xml:space="preserve">
<metadata><?xpacket begin="﻿" id="W5M0MpCehiHzreSzNTczkc9d"?>
<x:xmpmeta xmlns:x="adobe:ns:meta/" x:xmptk="Adobe XMP Core 5.6-c067 79.157747, 2015/03/30-23:40:42        ">
   <rdf:RDF xmlns:rdf="http://www.w3.org/1999/02/22-rdf-syntax-ns#">
      <rdf:Description rdf:about=""/>
   </rdf:RDF>
</x:xmpmeta>
                                                                                                    
                                                                                                    
                                                                                                    
                                                                                                    
                                                                                                    
                                                                                                    
                                                                                                    
                                                                                                    
                                                                                                    
                                                                                                    
                                                                                                    
                                                                                                    
                                                                                                    
                                                                                                    
                                                                                                    
                                                                                                    
                                                                                                    
                                                                                                    
                                                                                                    
                                                                                                    
                           
<?xpacket end="w"?></metadata>
<style type="text/css">
	.st0{fill:#E05258;}
	.st1{clip-path:url(#SVGID_2_);fill:#B84A4E;}
	.st2{fill:#ACC415;}
	.st3{fill:#FFFFFF;}
	.st4{fill:#504D4C;}
</style>
<g>
	<path class="st0" d="M-214.2,218.9c0-3,2.5-5.5,5.5-5.5h50.4c3,0,5.5,2.5,5.5,5.5v50.4c0,3-2.5,5.5-5.5,5.5h-50.4
		c-3,0-5.5-2.5-5.5-5.5V218.9z"/>
	<g>
		<g>
			<defs>
				<path id="SVGID_1_" d="M-214.2,218.9c0-3,2.5-5.5,5.5-5.5h50.4c3,0,5.5,2.5,5.5,5.5v50.4c0,3-2.5,5.5-5.5,5.5h-50.4
					c-3,0-5.5-2.5-5.5-5.5V218.9z"/>
			</defs>
			<clipPath id="SVGID_2_">
				<use xlink:href="#SVGID_1_"  style="overflow:visible;"/>
			</clipPath>
			<path class="st1" d="M-174.4,245.1l-19,36.4H-221l28.1-56.5C-192.9,225-175.1,243.5-174.4,245.1z"/>
		</g>
	</g>
	<path class="st2" d="M-171.6,234.6c0.7,10.5-12.1,25.4-12.1,25.4s-10.8-13.2-11.5-23.8c-0.7-10.5,4.6-15.4,11.1-15.8
		S-172.4,224.1-171.6,234.6z"/>
	<circle class="st3" cx="-183.4" cy="229.9" r="4.7"/>
	<rect x="-183.8" y="235.8" class="st3" width="0.8" height="18.2"/>
	
		<rect x="-188.8" y="234.3" transform="matrix(0.656 -0.7548 0.7548 0.656 -244.5304 -60.2445)" class="st3" width="0.9" height="7.7"/>
	
		<rect x="-188.8" y="242.4" transform="matrix(0.6563 -0.7545 0.7545 0.6563 -250.543 -57.5026)" class="st3" width="0.9" height="7.7"/>
	
		<rect x="-179.7" y="234.2" transform="matrix(-0.6563 -0.7545 0.7545 -0.6563 -476.4521 259.1145)" class="st3" width="0.9" height="7.7"/>
	
		<rect x="-179.7" y="242.4" transform="matrix(-0.6566 -0.7542 0.7542 -0.6566 -482.6669 272.7715)" class="st3" width="0.9" height="7.7"/>
	<ellipse class="st3" cx="-183.4" cy="265.2" rx="8.6" ry="1.3"/>
	<ellipse class="st3" cx="-168.7" cy="268.4" rx="5.1" ry="0.8"/>
</g>
<g>
	<path class="st4" d="M-206,280.1c-0.2-0.1-0.6-0.1-0.9-0.1c-0.4,0-0.6-0.1-1-0.1c-0.6,0-1.1,0.1-1.5,0.2c-0.5,0.1-0.9,0.4-1.1,0.7
		c-0.2,0.4-0.6,0.6-0.9,1.1c-0.2,0.5-0.2,0.9-0.2,1.4c0,0.5,0.1,1,0.2,1.4c0.1,0.4,0.4,0.8,0.8,1.1c0.4,0.2,0.8,0.5,1.1,0.8
		c0.5,0.1,1,0.2,1.5,0.2c0.2,0,0.6,0,0.9-0.1c0.4,0,0.6-0.1,1-0.2l0.2,1c-0.4,0.1-0.8,0.2-1.1,0.2s-0.8,0.1-1.1,0.1
		c-0.8,0-1.4-0.1-2-0.4s-1.1-0.5-1.5-1c-0.4-0.4-0.8-0.9-1-1.4s-0.4-1.1-0.4-1.8s0.1-1.2,0.4-1.8s0.6-1,1-1.4s0.9-0.8,1.5-1
		s1.2-0.4,2-0.4c0.4,0,0.8,0,1.1,0.1c0.4,0,0.8,0.1,1.1,0.2L-206,280.1z"/>
	<path class="st4" d="M-198.6,284.5c0,0.5-0.1,0.9-0.2,1.2c-0.1,0.4-0.4,0.7-0.6,1c-0.3,0.2-0.6,0.5-1,0.8c-0.4,0.2-0.9,0.2-1.2,0.2
		s-0.9-0.1-1.2-0.2s-0.8-0.4-1-0.8c-0.2-0.2-0.5-0.6-0.6-1c-0.1-0.4-0.2-0.9-0.2-1.2c0-0.5,0.1-0.9,0.2-1.2c0.1-0.4,0.4-0.8,0.6-1
		c0.2-0.2,0.6-0.5,1-0.8c0.4-0.1,0.8-0.2,1.2-0.2s0.9,0.1,1.2,0.2c0.4,0.1,0.8,0.4,1,0.8c0.2,0.2,0.5,0.6,0.6,1
		C-198.7,283.6-198.6,283.9-198.6,284.5z M-199.8,284.5c0-0.4,0-0.6-0.1-1c-0.1-0.4-0.2-0.5-0.4-0.8c-0.1-0.2-0.4-0.4-0.6-0.5
		s-0.5-0.1-0.8-0.1s-0.6,0-0.8,0.1c-0.2,0.1-0.5,0.2-0.6,0.5s-0.2,0.5-0.4,0.8c-0.1,0.2-0.1,0.6-0.1,1c0,0.4,0,0.6,0.1,1
		c0.1,0.2,0.2,0.5,0.4,0.8c0.1,0.2,0.4,0.4,0.6,0.5s0.5,0.1,0.8,0.1s0.6,0,0.8-0.1c0.2-0.1,0.5-0.2,0.6-0.5s0.2-0.5,0.4-0.8
		C-199.8,285.1-199.8,284.8-199.8,284.5z"/>
	<path class="st4" d="M-192.7,287.7v-4c0-0.5-0.1-0.9-0.4-1.1c-0.2-0.3-0.5-0.4-1-0.4c-0.2,0-0.5,0-0.6,0.1
		c-0.2,0.1-0.4,0.2-0.6,0.4c-0.1,0.1-0.4,0.4-0.4,0.6c0,0.2-0.1,0.5-0.1,0.9v3.5h-1.1v-6.4h1.1v1.1c0.2-0.4,0.5-0.6,0.9-0.9
		s0.9-0.4,1.2-0.4c0.8,0,1.2,0.2,1.6,0.6c0.4,0.4,0.5,1,0.5,1.8v4.1H-192.7z"/>
	<path class="st4" d="M-187.1,287.7c-0.1,0-0.2,0-0.4,0c-0.5,0-1-0.1-1.2-0.4c-0.4-0.2-0.5-0.8-0.5-1.5v-3.8h-0.9v-0.9h0.9v-1.8h1.1
		v1.8h1.2v0.9h-1.2v3.8c0,0.4,0.1,0.6,0.2,0.8s0.2,0.2,0.5,0.2c0.1,0,0.1,0,0.2,0s0.2,0,0.4,0l0.1,0.9
		C-186.8,287.7-187,287.7-187.1,287.7z"/>
	<path class="st4" d="M-181.5,287.7V287c-0.2,0.2-0.5,0.5-0.8,0.6c-0.2,0.1-0.8,0.2-1.2,0.2c-0.6,0-1.1-0.1-1.6-0.5
		s-0.6-0.8-0.6-1.4s0.1-1,0.5-1.4s0.9-0.5,1.5-0.5h2v-0.6c0-0.4-0.1-0.8-0.4-1s-0.8-0.4-1.4-0.4c-0.2,0-0.6,0-1,0s-0.6,0.1-1,0.1
		l-0.1-0.9c0.4-0.1,0.6-0.1,1-0.1s0.8,0,1.1,0c0.9,0,1.6,0.2,2.1,0.6c0.5,0.4,0.8,0.9,0.8,1.6v4.2H-181.5z M-181.6,284.8h-1.8
		c-0.4,0-0.8,0.1-0.9,0.2c-0.2,0.1-0.2,0.4-0.2,0.8s0.1,0.6,0.2,0.8c0.2,0.1,0.5,0.2,0.9,0.2c0.5,0,1-0.1,1.2-0.4s0.5-0.6,0.5-1.1
		V284.8z"/>
	<path class="st4" d="M-174.8,287.7c-0.2,0-0.6,0-0.9,0c-0.5,0-1-0.1-1.4-0.2s-0.8-0.4-1.1-0.8c-0.3-0.2-0.5-0.6-0.6-1
		c-0.1-0.4-0.3-0.9-0.3-1.2c0-0.4,0.1-0.9,0.3-1.2c0.1-0.4,0.4-0.8,0.6-1c0.2-0.2,0.6-0.5,1.1-0.8c0.4-0.1,0.9-0.2,1.4-0.2
		c0.2,0,0.5,0,0.7,0c0.2,0,0.5,0.1,0.9,0.2l-0.2,0.9c-0.2,0-0.5-0.1-0.6-0.1c-0.2,0-0.5,0-0.6,0c-0.4,0-0.7,0-1,0.1
		c-0.2,0.1-0.5,0.2-0.7,0.5c-0.2,0.2-0.4,0.5-0.5,0.8c-0.1,0.2-0.1,0.6-0.1,1c0,0.8,0.2,1.2,0.6,1.8c0.4,0.5,1,0.6,1.8,0.6
		c0.2,0,0.4,0,0.6,0s0.4-0.1,0.8-0.1l0.2,0.9C-174.3,287.6-174.6,287.7-174.8,287.7z"/>
	<path class="st4" d="M-170.1,287.7c-0.1,0-0.3,0-0.4,0c-0.5,0-1-0.1-1.2-0.4c-0.4-0.2-0.5-0.8-0.5-1.5v-3.8h-0.9v-0.9h0.9v-1.8h1.1
		v1.8h1.2v0.9h-1.2v3.8c0,0.4,0.1,0.6,0.2,0.8c0.1,0.1,0.2,0.2,0.5,0.2c0.1,0,0.1,0,0.2,0s0.2,0,0.4,0l0.1,0.9
		C-169.7,287.7-169.8,287.7-170.1,287.7z"/>
	<path class="st4" d="M-162.5,284.5c0,0.5-0.1,0.9-0.2,1.2c-0.1,0.4-0.4,0.7-0.6,1c-0.2,0.2-0.6,0.5-1,0.8c-0.2,0.2-0.7,0.2-1.1,0.2
		s-0.9-0.1-1.2-0.2s-0.8-0.4-1-0.8c-0.2-0.2-0.5-0.6-0.6-1c-0.1-0.4-0.2-0.9-0.2-1.2c0-0.5,0.1-0.9,0.2-1.2c0.1-0.4,0.4-0.8,0.6-1
		c0.2-0.2,0.6-0.5,1-0.8c0.4-0.1,0.7-0.2,1.2-0.2c0.5,0,0.9,0.1,1.2,0.2c0.4,0.1,0.7,0.4,1,0.8c0.2,0.2,0.5,0.6,0.6,1
		C-162.5,283.6-162.5,283.9-162.5,284.5z M-163.6,284.5c0-0.4,0-0.6-0.1-1c-0.1-0.4-0.2-0.5-0.4-0.8c-0.1-0.2-0.4-0.4-0.6-0.5
		s-0.5-0.1-0.8-0.1s-0.6,0-0.8,0.1c-0.2,0.1-0.5,0.2-0.6,0.5s-0.2,0.5-0.4,0.8c-0.1,0.2-0.1,0.6-0.1,1c0,0.4,0,0.6,0.1,1
		c0.1,0.2,0.2,0.5,0.4,0.8c0.1,0.2,0.4,0.4,0.6,0.5s0.5,0.1,0.8,0.1s0.6,0,0.8-0.1c0.2-0.1,0.5-0.2,0.6-0.5s0.2-0.5,0.4-0.8
		C-163.6,285.1-163.6,284.8-163.6,284.5z"/>
	<path class="st4" d="M-156.3,285.9c0,0.5-0.3,1-0.6,1.2c-0.5,0.4-1.1,0.5-1.9,0.5c-0.4,0-0.8,0-1.2-0.1c-0.5-0.1-0.9-0.2-1.1-0.4
		l0.2-0.9c0.4,0.1,0.8,0.2,1.1,0.4c0.4,0.1,0.7,0.1,1.1,0.1c1,0,1.4-0.2,1.4-0.9c0-0.1,0-0.2-0.1-0.4c0-0.1-0.1-0.1-0.2-0.2
		s-0.2-0.1-0.5-0.2c-0.3-0.1-0.5-0.2-0.9-0.4c-0.4-0.1-0.7-0.2-1-0.5c-0.3-0.3-0.5-0.2-0.6-0.5c-0.1-0.1-0.3-0.4-0.4-0.5
		c-0.1-0.1-0.1-0.4-0.1-0.6c0-0.5,0.2-1,0.6-1.2c0.4-0.2,1-0.4,1.8-0.4c0.2,0,0.6,0,1,0.1s0.8,0.1,1.1,0.2l-0.1,0.9
		c-0.2-0.1-0.6-0.1-0.9-0.1c-0.4,0-0.6-0.1-1-0.1c-0.5,0-0.9,0-1,0.1c-0.2,0.1-0.2,0.2-0.2,0.5c0,0.1,0,0.2,0.1,0.4
		c0,0.1,0.1,0.1,0.2,0.2s0.2,0.1,0.5,0.2s0.4,0.2,0.8,0.2c0.4,0.1,0.8,0.4,1,0.5s0.5,0.2,0.6,0.4s0.2,0.2,0.4,0.5
		C-156.3,285.4-156.3,285.7-156.3,285.9z"/>
	<path class="st4" d="M-191.8,303.3v-1.1c-0.2,0.4-0.5,0.6-0.9,0.9s-0.9,0.4-1.2,0.4c-0.8,0-1.2-0.2-1.6-0.6c-0.4-0.4-0.5-1-0.5-1.8
		v-4.1h1v4c0,0.5,0.1,0.9,0.4,1.1c0.2,0.2,0.5,0.4,1,0.4c0.2,0,0.5,0,0.6-0.1c0.2-0.1,0.4-0.2,0.6-0.4c0.1-0.1,0.4-0.4,0.4-0.6
		s0.1-0.5,0.1-0.9v-3.4h1.1v6.4h-1V303.3z M-193.2,296.1h-0.9l1.2-1.6h1.2L-193.2,296.1z"/>
	<path class="st4" d="M-186.3,303.4c-0.1,0-0.3,0-0.4,0c-0.5,0-1-0.1-1.2-0.4c-0.4-0.2-0.5-0.8-0.5-1.5v-3.8h-0.9V297h0.9v-1.8h1.1
		v1.8h1.2v0.9h-1.2v3.8c0,0.4,0.1,0.6,0.2,0.8c0.1,0.1,0.2,0.2,0.5,0.2c0.1,0,0.1,0,0.2,0s0.2,0,0.4,0l0.1,0.9
		C-186,303.3-186.1,303.4-186.3,303.4z"/>
	<path class="st4" d="M-183.7,300.6c0,0.6,0.2,1.1,0.6,1.5c0.4,0.4,0.9,0.5,1.6,0.5c0.2,0,0.6,0,1-0.1c0.4,0,0.6-0.1,0.9-0.1
		l0.2,0.9c-0.4,0.1-0.7,0.2-1.1,0.2c-0.4,0-0.8,0.1-1,0.1c-0.5,0-1-0.1-1.5-0.2c-0.4-0.1-0.8-0.4-1.1-0.6c-0.4-0.2-0.5-0.6-0.6-1
		s-0.2-0.9-0.2-1.4s0.1-0.9,0.2-1.2c0.1-0.4,0.4-0.8,0.6-1s0.6-0.5,1-0.8c0.4-0.1,0.8-0.2,1.2-0.2s0.9,0.1,1.2,0.2s0.6,0.4,0.9,0.8
		c0.2,0.2,0.4,0.6,0.6,1c0.1,0.4,0.2,0.9,0.2,1.2v0.4h-4.9V300.6z M-180.2,299.7c0-0.6-0.2-1-0.5-1.4c-0.3-0.4-0.8-0.5-1.2-0.5
		c-0.5,0-1,0.1-1.2,0.5c-0.3,0.4-0.5,0.8-0.6,1.4H-180.2z"/>
	<path class="st4" d="M-177.3,295.9v-1.4h1.1v1.4H-177.3z M-177.3,303.3V297h1.1v6.4H-177.3z"/>
	<path class="st4" d="M-169.7,301.7c0,0.5-0.2,1-0.6,1.2c-0.5,0.4-1.1,0.5-1.9,0.5c-0.4,0-0.7,0-1.2-0.1c-0.5-0.1-0.9-0.2-1.1-0.4
		l0.2-0.9c0.4,0.1,0.8,0.2,1.1,0.4c0.4,0.1,0.7,0.1,1.1,0.1c1,0,1.4-0.2,1.4-0.9c0-0.1,0-0.2-0.1-0.4c0-0.1-0.1-0.1-0.2-0.2
		s-0.2-0.1-0.5-0.2c-0.2-0.1-0.5-0.2-0.9-0.4s-0.7-0.2-1-0.5c-0.2-0.3-0.5-0.2-0.6-0.5c-0.1-0.1-0.2-0.4-0.4-0.5
		c-0.1-0.1-0.1-0.4-0.1-0.6c0-0.5,0.2-1,0.6-1.2c0.4-0.2,1-0.4,1.8-0.4c0.2,0,0.6,0,1,0.1s0.8,0.1,1.1,0.2v1
		c-0.3-0.1-0.6-0.1-0.9-0.1c-0.4,0-0.6-0.1-1-0.1c-0.5,0-0.9,0-1,0.1c-0.2,0.1-0.2,0.2-0.2,0.5c0,0.1,0,0.2,0.1,0.4
		c0,0.1,0.1,0.1,0.2,0.2s0.3,0.1,0.5,0.2s0.4,0.2,0.7,0.2c0.4,0.1,0.8,0.4,1,0.5c0.2,0.1,0.5,0.2,0.6,0.4c0.1,0.1,0.2,0.2,0.4,0.5
		C-169.7,301.2-169.7,301.4-169.7,301.7z"/>
</g>
</svg>
