<!-- Generator: Adobe Illustrator 18.0.0, SVG Export Plug-In  -->
<svg version="1.1"
	 xmlns="http://www.w3.org/2000/svg" xmlns:xlink="http://www.w3.org/1999/xlink" xmlns:a="http://ns.adobe.com/AdobeSVGViewerExtensions/3.0/"
	 x="0px" y="0px" width="68.3px" height="87.6px" viewBox="0 0 68.3 87.6" enable-background="new 0 0 68.3 87.6"
	 xml:space="preserve">
<defs>
</defs>
<g>
	<g>
		<path fill="#E05258" d="M6.8,5.5c0-3,2.5-5.5,5.5-5.5h50.4c3,0,5.5,2.5,5.5,5.5v50.4c0,3-2.5,5.5-5.5,5.5H12.3
			c-3,0-5.5-2.5-5.5-5.5V5.5z"/>
		<g>
			<defs>
				<path id="SVGID_1_" d="M6.8,5.5c0-3,2.5-5.5,5.5-5.5h50.4c3,0,5.5,2.5,5.5,5.5v50.4c0,3-2.5,5.5-5.5,5.5H12.3
					c-3,0-5.5-2.5-5.5-5.5V5.5z"/>
			</defs>
			<clipPath id="SVGID_2_">
				<use xlink:href="#SVGID_1_"  overflow="visible"/>
			</clipPath>
			<path clip-path="url(#SVGID_2_)" fill-rule="evenodd" clip-rule="evenodd" fill="#B84A4E" d="M46.6,31.7l-19,36.4H0l28.1-56.5
				C28.1,11.6,45.9,30.1,46.6,31.7z"/>
		</g>
		<path fill-rule="evenodd" clip-rule="evenodd" fill="#ACC415" d="M49.4,21.2c0.7,10.5-12.1,25.4-12.1,25.4S26.5,33.4,25.8,22.8
			C25.1,12.3,30.4,7.4,36.9,7S48.6,10.7,49.4,21.2z"/>
		<circle fill="#FFFFFF" cx="37.6" cy="16.5" r="4.7"/>
		<rect x="37.2" y="22.4" fill="#FFFFFF" width="0.8" height="18.2"/>
		
			<rect x="32.1" y="20.8" transform="matrix(-0.656 0.7548 -0.7548 -0.656 72.6053 16.329)" fill="#FFFFFF" width="0.9" height="7.7"/>
		
			<rect x="32.1" y="29" transform="matrix(-0.6563 0.7545 -0.7545 -0.6563 78.7607 29.8488)" fill="#FFFFFF" width="0.9" height="7.7"/>
		
			<rect x="41.3" y="20.8" transform="matrix(0.6563 0.7545 -0.7545 0.6563 32.9895 -23.001)" fill="#FFFFFF" width="0.9" height="7.7"/>
		
			<rect x="41.3" y="29" transform="matrix(0.6566 0.7542 -0.7542 0.6566 39.1224 -20.1976)" fill="#FFFFFF" width="0.9" height="7.7"/>
		<ellipse fill="#FFFFFF" cx="37.6" cy="51.8" rx="8.6" ry="1.3"/>
		<ellipse fill="#FFFFFF" cx="52.3" cy="55" rx="5.1" ry="0.8"/>
	</g>
	<g>
		<path fill="#504D4C" d="M19.3,68.9c-0.2-0.1-0.5-0.1-0.7-0.1c-0.3,0-0.5-0.1-0.8-0.1c-0.5,0-0.9,0.1-1.2,0.2
			c-0.4,0.1-0.7,0.3-0.9,0.6S15.2,70,15,70.4s-0.2,0.7-0.2,1.1c0,0.4,0.1,0.8,0.2,1.1c0.1,0.3,0.3,0.6,0.6,0.9
			c0.3,0.2,0.6,0.4,0.9,0.6c0.4,0.1,0.8,0.2,1.2,0.2c0.2,0,0.5,0,0.7-0.1c0.3,0,0.5-0.1,0.8-0.2l0.2,0.8c-0.3,0.1-0.6,0.2-0.9,0.2
			s-0.6,0.1-0.9,0.1c-0.6,0-1.1-0.1-1.6-0.3c-0.5-0.2-0.9-0.4-1.2-0.8c-0.3-0.3-0.6-0.7-0.8-1.1c-0.2-0.4-0.3-0.9-0.3-1.4
			c0-0.5,0.1-1,0.3-1.4c0.2-0.4,0.5-0.8,0.8-1.1c0.3-0.3,0.7-0.6,1.2-0.8c0.5-0.2,1-0.3,1.6-0.3c0.3,0,0.6,0,0.9,0.1
			c0.3,0,0.6,0.1,0.9,0.2L19.3,68.9z"/>
		<path fill="#504D4C" d="M25.2,72.4c0,0.4-0.1,0.7-0.2,1c-0.1,0.3-0.3,0.6-0.5,0.8c-0.2,0.2-0.5,0.4-0.8,0.6C23.4,75,23,75,22.7,75
			s-0.7-0.1-1-0.2s-0.6-0.3-0.8-0.6c-0.2-0.2-0.4-0.5-0.5-0.8c-0.1-0.3-0.2-0.7-0.2-1c0-0.4,0.1-0.7,0.2-1c0.1-0.3,0.3-0.6,0.5-0.8
			c0.2-0.2,0.5-0.4,0.8-0.6c0.3-0.1,0.6-0.2,1-0.2s0.7,0.1,1,0.2c0.3,0.1,0.6,0.3,0.8,0.6c0.2,0.2,0.4,0.5,0.5,0.8
			C25.1,71.7,25.2,72,25.2,72.4z M24.2,72.4c0-0.3,0-0.5-0.1-0.8s-0.2-0.4-0.3-0.6c-0.1-0.2-0.3-0.3-0.5-0.4
			c-0.2-0.1-0.4-0.1-0.6-0.1c-0.2,0-0.5,0-0.6,0.1c-0.2,0.1-0.4,0.2-0.5,0.4c-0.1,0.2-0.2,0.4-0.3,0.6c-0.1,0.2-0.1,0.5-0.1,0.8
			s0,0.5,0.1,0.8c0.1,0.2,0.2,0.4,0.3,0.6c0.1,0.2,0.3,0.3,0.5,0.4c0.2,0.1,0.4,0.1,0.6,0.1c0.2,0,0.5,0,0.6-0.1
			c0.2-0.1,0.4-0.2,0.5-0.4c0.1-0.2,0.2-0.4,0.3-0.6C24.2,72.9,24.2,72.7,24.2,72.4z"/>
		<path fill="#504D4C" d="M29.9,75v-3.2c0-0.4-0.1-0.7-0.3-0.9s-0.4-0.3-0.8-0.3c-0.2,0-0.4,0-0.5,0.1c-0.2,0.1-0.3,0.2-0.5,0.3
			c-0.1,0.1-0.3,0.3-0.3,0.5s-0.1,0.4-0.1,0.7V75h-0.9v-5.1h0.9v0.9c0.2-0.3,0.4-0.5,0.7-0.7c0.3-0.2,0.7-0.3,1-0.3
			c0.6,0,1,0.2,1.3,0.5c0.3,0.3,0.4,0.8,0.4,1.4V75H29.9z"/>
		<path fill="#504D4C" d="M34.4,75c-0.1,0-0.2,0-0.3,0c-0.4,0-0.8-0.1-1-0.3c-0.3-0.2-0.4-0.6-0.4-1.2v-3h-0.7v-0.7h0.7v-1.4h0.9
			v1.4h1v0.7h-1v3c0,0.3,0.1,0.5,0.2,0.6c0.1,0.1,0.2,0.2,0.4,0.2c0.1,0,0.1,0,0.2,0c0.1,0,0.2,0,0.3,0l0.1,0.7
			C34.6,75,34.5,75,34.4,75z"/>
		<path fill="#504D4C" d="M38.9,75v-0.6c-0.2,0.2-0.4,0.4-0.6,0.5s-0.6,0.2-1,0.2c-0.5,0-0.9-0.1-1.3-0.4s-0.5-0.6-0.5-1.1
			c0-0.5,0.1-0.8,0.4-1.1c0.3-0.3,0.7-0.4,1.2-0.4h1.6v-0.5c0-0.3-0.1-0.6-0.3-0.8s-0.6-0.3-1.1-0.3c-0.2,0-0.5,0-0.8,0
			c-0.3,0-0.5,0.1-0.8,0.1l-0.1-0.7c0.3-0.1,0.5-0.1,0.8-0.1s0.6,0,0.9,0c0.7,0,1.3,0.2,1.7,0.5s0.6,0.7,0.6,1.3V75H38.9z
			 M38.8,72.7h-1.4c-0.3,0-0.6,0.1-0.7,0.2c-0.2,0.1-0.2,0.3-0.2,0.6c0,0.3,0.1,0.5,0.2,0.6c0.2,0.1,0.4,0.2,0.7,0.2
			c0.4,0,0.8-0.1,1-0.3s0.4-0.5,0.4-0.9V72.7z"/>
		<path fill="#504D4C" d="M44.2,75c-0.2,0-0.5,0-0.7,0c-0.4,0-0.8-0.1-1.1-0.2c-0.3-0.1-0.6-0.3-0.9-0.6c-0.2-0.2-0.4-0.5-0.5-0.8
			c-0.1-0.3-0.2-0.7-0.2-1s0.1-0.7,0.2-1c0.1-0.3,0.3-0.6,0.5-0.8c0.2-0.2,0.5-0.4,0.9-0.6c0.3-0.1,0.7-0.2,1.1-0.2
			c0.2,0,0.4,0,0.6,0c0.2,0,0.4,0.1,0.7,0.2l-0.2,0.7c-0.2,0-0.4-0.1-0.5-0.1c-0.2,0-0.4,0-0.5,0c-0.3,0-0.6,0-0.8,0.1
			c-0.2,0.1-0.4,0.2-0.6,0.4c-0.2,0.2-0.3,0.4-0.4,0.6c-0.1,0.2-0.1,0.5-0.1,0.8c0,0.6,0.2,1,0.5,1.4s0.8,0.5,1.4,0.5
			c0.2,0,0.3,0,0.5,0s0.3-0.1,0.6-0.1l0.2,0.7C44.6,74.9,44.4,75,44.2,75z"/>
		<path fill="#504D4C" d="M48,75c-0.1,0-0.2,0-0.3,0c-0.4,0-0.8-0.1-1-0.3c-0.3-0.2-0.4-0.6-0.4-1.2v-3h-0.7v-0.7h0.7v-1.4h0.9v1.4
			h1v0.7h-1v3c0,0.3,0.1,0.5,0.2,0.6c0.1,0.1,0.2,0.2,0.4,0.2c0.1,0,0.1,0,0.2,0c0.1,0,0.2,0,0.3,0l0.1,0.7C48.3,75,48.2,75,48,75z"
			/>
		<path fill="#504D4C" d="M54.1,72.4c0,0.4-0.1,0.7-0.2,1c-0.1,0.3-0.3,0.6-0.5,0.8c-0.2,0.2-0.5,0.4-0.8,0.6C52.4,75,52,75,51.7,75
			s-0.7-0.1-1-0.2s-0.6-0.3-0.8-0.6c-0.2-0.2-0.4-0.5-0.5-0.8c-0.1-0.3-0.2-0.7-0.2-1c0-0.4,0.1-0.7,0.2-1c0.1-0.3,0.3-0.6,0.5-0.8
			c0.2-0.2,0.5-0.4,0.8-0.6c0.3-0.1,0.6-0.2,1-0.2s0.7,0.1,1,0.2c0.3,0.1,0.6,0.3,0.8,0.6c0.2,0.2,0.4,0.5,0.5,0.8
			C54.1,71.7,54.1,72,54.1,72.4z M53.2,72.4c0-0.3,0-0.5-0.1-0.8s-0.2-0.4-0.3-0.6c-0.1-0.2-0.3-0.3-0.5-0.4
			c-0.2-0.1-0.4-0.1-0.6-0.1c-0.2,0-0.5,0-0.6,0.1c-0.2,0.1-0.4,0.2-0.5,0.4c-0.1,0.2-0.2,0.4-0.3,0.6c-0.1,0.2-0.1,0.5-0.1,0.8
			s0,0.5,0.1,0.8c0.1,0.2,0.2,0.4,0.3,0.6c0.1,0.2,0.3,0.3,0.5,0.4c0.2,0.1,0.4,0.1,0.6,0.1c0.2,0,0.5,0,0.6-0.1
			c0.2-0.1,0.4-0.2,0.5-0.4c0.1-0.2,0.2-0.4,0.3-0.6C53.2,72.9,53.2,72.7,53.2,72.4z"/>
		<path fill="#504D4C" d="M59,73.6c0,0.4-0.2,0.8-0.5,1C58.1,74.9,57.6,75,57,75c-0.3,0-0.6,0-1-0.1c-0.4-0.1-0.7-0.2-0.9-0.3
			l0.2-0.7c0.3,0.1,0.6,0.2,0.9,0.3s0.6,0.1,0.9,0.1c0.8,0,1.1-0.2,1.1-0.7c0-0.1,0-0.2-0.1-0.3c0-0.1-0.1-0.1-0.2-0.2
			c-0.1-0.1-0.2-0.1-0.4-0.2c-0.2-0.1-0.4-0.2-0.7-0.3c-0.3-0.1-0.6-0.2-0.8-0.4s-0.4-0.2-0.5-0.4c-0.1-0.1-0.2-0.3-0.3-0.4
			s-0.1-0.3-0.1-0.5c0-0.4,0.2-0.8,0.5-1c0.3-0.2,0.8-0.3,1.4-0.3c0.2,0,0.5,0,0.8,0.1s0.6,0.1,0.9,0.2l-0.1,0.7
			c-0.2-0.1-0.5-0.1-0.7-0.1c-0.3,0-0.5-0.1-0.8-0.1c-0.4,0-0.7,0-0.8,0.1c-0.2,0.1-0.2,0.2-0.2,0.4c0,0.1,0,0.2,0.1,0.3
			c0,0.1,0.1,0.1,0.2,0.2c0.1,0.1,0.2,0.1,0.4,0.2s0.3,0.2,0.6,0.2c0.3,0.1,0.6,0.3,0.8,0.4s0.4,0.2,0.5,0.3
			c0.1,0.1,0.2,0.2,0.3,0.4C59,73.2,59,73.4,59,73.6z"/>
		<path fill="#504D4C" d="M30.6,87.5v-0.9c-0.2,0.3-0.4,0.5-0.7,0.7c-0.3,0.2-0.7,0.3-1,0.3c-0.6,0-1-0.2-1.3-0.5
			c-0.3-0.3-0.4-0.8-0.4-1.4v-3.3H28v3.2c0,0.4,0.1,0.7,0.3,0.9s0.4,0.3,0.8,0.3c0.2,0,0.4,0,0.5-0.1c0.2-0.1,0.3-0.2,0.5-0.3
			c0.1-0.1,0.3-0.3,0.3-0.5s0.1-0.4,0.1-0.7v-2.7h0.9v5.1H30.6z M29.5,81.7h-0.7l1-1.3h1L29.5,81.7z"/>
		<path fill="#504D4C" d="M35,87.6c-0.1,0-0.2,0-0.3,0c-0.4,0-0.8-0.1-1-0.3c-0.3-0.2-0.4-0.6-0.4-1.2v-3h-0.7v-0.7h0.7V81h0.9v1.4
			h1v0.7h-1v3c0,0.3,0.1,0.5,0.2,0.6c0.1,0.1,0.2,0.2,0.4,0.2c0.1,0,0.1,0,0.2,0c0.1,0,0.2,0,0.3,0l0.1,0.7
			C35.3,87.5,35.2,87.6,35,87.6z"/>
		<path fill="#504D4C" d="M37.1,85.3c0,0.5,0.2,0.9,0.5,1.2s0.7,0.4,1.3,0.4c0.2,0,0.5,0,0.8-0.1c0.3,0,0.5-0.1,0.7-0.1l0.2,0.7
			c-0.3,0.1-0.6,0.2-0.9,0.2c-0.3,0-0.6,0.1-0.8,0.1c-0.4,0-0.8-0.1-1.2-0.2c-0.3-0.1-0.6-0.3-0.9-0.5s-0.4-0.5-0.5-0.8
			c-0.1-0.3-0.2-0.7-0.2-1.1c0-0.4,0.1-0.7,0.2-1c0.1-0.3,0.3-0.6,0.5-0.8c0.2-0.2,0.5-0.4,0.8-0.6c0.3-0.1,0.6-0.2,1-0.2
			c0.4,0,0.7,0.1,1,0.2c0.3,0.1,0.5,0.3,0.7,0.6c0.2,0.2,0.3,0.5,0.5,0.8c0.1,0.3,0.2,0.7,0.2,1v0.3H37.1z M39.9,84.6
			c0-0.5-0.2-0.8-0.4-1.1c-0.2-0.3-0.6-0.4-1-0.4c-0.4,0-0.8,0.1-1,0.4s-0.4,0.6-0.5,1.1H39.9z"/>
		<path fill="#504D4C" d="M42.2,81.6v-1.1h0.9v1.1H42.2z M42.2,87.5v-5.1h0.9v5.1H42.2z"/>
		<path fill="#504D4C" d="M48.3,86.2c0,0.4-0.2,0.8-0.5,1c-0.4,0.3-0.9,0.4-1.5,0.4c-0.3,0-0.6,0-1-0.1c-0.4-0.1-0.7-0.2-0.9-0.3
			l0.2-0.7c0.3,0.1,0.6,0.2,0.9,0.3s0.6,0.1,0.9,0.1c0.8,0,1.1-0.2,1.1-0.7c0-0.1,0-0.2-0.1-0.3c0-0.1-0.1-0.1-0.2-0.2
			c-0.1-0.1-0.2-0.1-0.4-0.2c-0.2-0.1-0.4-0.2-0.7-0.3c-0.3-0.1-0.6-0.2-0.8-0.4s-0.4-0.2-0.5-0.4c-0.1-0.1-0.2-0.3-0.3-0.4
			s-0.1-0.3-0.1-0.5c0-0.4,0.2-0.8,0.5-1c0.3-0.2,0.8-0.3,1.4-0.3c0.2,0,0.5,0,0.8,0.1s0.6,0.1,0.9,0.2L48,83.3
			c-0.2-0.1-0.5-0.1-0.7-0.1c-0.3,0-0.5-0.1-0.8-0.1c-0.4,0-0.7,0-0.8,0.1c-0.2,0.1-0.2,0.2-0.2,0.4c0,0.1,0,0.2,0.1,0.3
			c0,0.1,0.1,0.1,0.2,0.2c0.1,0.1,0.2,0.1,0.4,0.2s0.3,0.2,0.6,0.2c0.3,0.1,0.6,0.3,0.8,0.4s0.4,0.2,0.5,0.3
			c0.1,0.1,0.2,0.2,0.3,0.4C48.3,85.8,48.3,86,48.3,86.2z"/>
	</g>
</g>
</svg>
