<!-- Generator: Adobe Illustrator 18.0.0, SVG Export Plug-In  -->
<svg version="1.1"
	 xmlns="http://www.w3.org/2000/svg" xmlns:xlink="http://www.w3.org/1999/xlink" xmlns:a="http://ns.adobe.com/AdobeSVGViewerExtensions/3.0/"
	 x="0px" y="0px" width="73.6px" height="90.6px" viewBox="0 0 73.6 90.6" enable-background="new 0 0 73.6 90.6"
	 xml:space="preserve">
<defs>
</defs>
<g>
	<g>
		<path fill="#90B71D" d="M6.9,8.5c0-3,2.5-5.5,5.5-5.5h50.4c3,0,5.5,2.5,5.5,5.5v50.4c0,3-2.5,5.5-5.5,5.5H12.4
			c-3,0-5.5-2.5-5.5-5.5V8.5z"/>
		<g>
			<defs>
				<path id="SVGID_1_" d="M6.9,8.5c0-3,2.5-5.5,5.5-5.5h50.4c3,0,5.5,2.5,5.5,5.5v50.4c0,3-2.5,5.5-5.5,5.5H12.4
					c-3,0-5.5-2.5-5.5-5.5V8.5z"/>
			</defs>
			<clipPath id="SVGID_2_">
				<use xlink:href="#SVGID_1_"  overflow="visible"/>
			</clipPath>
			<rect x="0.8" y="0" clip-path="url(#SVGID_2_)" fill="#ED4012" width="72.1" height="22.1"/>
			<polygon clip-path="url(#SVGID_2_)" fill-rule="evenodd" clip-rule="evenodd" fill="#7F991D" points="18.3,33.7 24.5,30 50.7,30 
				54.9,34.4 53.5,39.2 56.3,44 56.7,48 45.4,70.7 0,69.3 			"/>
		</g>
		<polygon fill-rule="evenodd" clip-rule="evenodd" fill="#FFDA00" points="29.5,9.8 29.5,8 21.6,8 21.6,9.8 24.5,9.8 24.5,17 
			26.6,17 26.6,9.8 		"/>
		<polygon fill-rule="evenodd" clip-rule="evenodd" fill="#FFDA00" points="40.1,17 40.1,15.2 35.6,15.2 35.6,13.2 39.9,13.2 
			39.9,11.5 35.6,11.5 35.6,9.7 40.1,9.7 40.1,8 33.5,8 33.5,17 		"/>
		<path fill-rule="evenodd" clip-rule="evenodd" fill="#FFDA00" d="M50.6,10.9c0,0.8-0.6,1.3-1.3,1.3h-2.4V9.6h2.4
			C50,9.6,50.6,10.1,50.6,10.9z M53.6,17L51,13.5c1-0.5,1.7-1.5,1.7-2.6c0-1.6-1.2-2.9-2.9-2.9h-4.9v9h2v-3.2h1.9l2.3,3.2H53.6z"/>
		<path fill-rule="evenodd" clip-rule="evenodd" fill="#FFFFFF" d="M29.1,40.3c0,3.2-0.9,6.5-4,6.5s-4-3.3-4-6.5s1-6.5,4-6.5
			S29.1,37.1,29.1,40.3z M33.5,40.3c0-5.6-2.8-10.3-8.3-10.3s-8.4,4.7-8.4,10.3s2.9,10.3,8.4,10.3S33.5,45.9,33.5,40.3z"/>
		<path fill-rule="evenodd" clip-rule="evenodd" fill="#FFFFFF" d="M53.3,35.9c0,1.6-1.2,2.6-2.8,2.6h0c-1.5,0-2.8-1-2.8-2.6
			c0-1.3,0.9-2.4,2.8-2.4C52.4,33.5,53.3,34.6,53.3,35.9z M54.1,44.4c0,1.6-1.4,2.7-3.6,2.7c-2.2,0-3.6-1.1-3.6-2.7
			c0-1.3,1.2-2.7,3.6-2.7C53,41.6,54.1,43.1,54.1,44.4z M58.4,44.4c0-2-1.2-3.9-3.3-4.9c1.4-1,2.3-2.4,2.3-4.1
			c0-3.3-2.8-5.3-6.8-5.3c-4,0-6.9,2-6.9,5.3c0,1.6,0.9,3.1,2.3,4.1c-2.2,1.1-3.3,2.9-3.3,4.9c0,3.5,3,6.3,7.9,6.3
			C55.4,50.7,58.4,47.9,58.4,44.4z"/>
	</g>
	<g>
		<path fill="#504D4C" d="M34.4,74.4c0,0.5-0.1,1-0.3,1.4c-0.2,0.4-0.5,0.8-0.9,1.1c-0.4,0.3-0.8,0.5-1.3,0.7s-1.1,0.3-1.7,0.3h-1.5
			v-7h1.5c0.6,0,1.2,0.1,1.7,0.3c0.5,0.2,1,0.4,1.3,0.7c0.4,0.3,0.7,0.7,0.9,1.1C34.2,73.5,34.4,73.9,34.4,74.4z M33.4,74.4
			c0-0.4-0.1-0.8-0.3-1.1c-0.2-0.3-0.4-0.6-0.7-0.8c-0.3-0.2-0.6-0.4-1-0.5s-0.8-0.2-1.2-0.2h-0.7v5.3h0.7c0.4,0,0.8-0.1,1.2-0.2
			c0.4-0.1,0.7-0.3,1-0.5s0.5-0.5,0.7-0.8C33.3,75.2,33.4,74.9,33.4,74.4z"/>
		<path fill="#504D4C" d="M35.7,72v-1.1h0.9V72H35.7z M35.7,77.9v-5.1h0.9v5.1H35.7z"/>
		<path fill="#504D4C" d="M41.2,77.9v-0.6c-0.2,0.2-0.4,0.4-0.6,0.5S40,78,39.6,78c-0.5,0-0.9-0.1-1.3-0.4s-0.5-0.6-0.5-1.1
			c0-0.5,0.1-0.8,0.4-1.1c0.3-0.3,0.7-0.4,1.2-0.4h1.6v-0.5c0-0.3-0.1-0.6-0.3-0.8s-0.6-0.3-1.1-0.3c-0.2,0-0.5,0-0.8,0
			c-0.3,0-0.5,0.1-0.8,0.1l-0.1-0.7c0.3-0.1,0.5-0.1,0.8-0.1s0.6,0,0.9,0c0.7,0,1.3,0.2,1.7,0.5s0.6,0.7,0.6,1.3v3.4H41.2z
			 M41.2,75.7h-1.4c-0.3,0-0.6,0.1-0.7,0.2c-0.2,0.1-0.2,0.3-0.2,0.6c0,0.3,0.1,0.5,0.2,0.6c0.2,0.1,0.4,0.2,0.7,0.2
			c0.4,0,0.8-0.1,1-0.3s0.4-0.5,0.4-0.9V75.7z"/>
		<path fill="#504D4C" d="M47.1,76.6c0,0.4-0.2,0.8-0.5,1c-0.4,0.3-0.9,0.4-1.5,0.4c-0.3,0-0.6,0-1-0.1c-0.4-0.1-0.7-0.2-0.9-0.3
			l0.2-0.7c0.3,0.1,0.6,0.2,0.9,0.3s0.6,0.1,0.9,0.1c0.8,0,1.1-0.2,1.1-0.7c0-0.1,0-0.2-0.1-0.3c0-0.1-0.1-0.1-0.2-0.2
			c-0.1-0.1-0.2-0.1-0.4-0.2c-0.2-0.1-0.4-0.2-0.7-0.3c-0.3-0.1-0.6-0.2-0.8-0.4s-0.4-0.2-0.5-0.4c-0.1-0.1-0.2-0.3-0.3-0.4
			s-0.1-0.3-0.1-0.5c0-0.4,0.2-0.8,0.5-1c0.3-0.2,0.8-0.3,1.4-0.3c0.2,0,0.5,0,0.8,0.1s0.6,0.1,0.9,0.2l-0.1,0.7
			c-0.2-0.1-0.5-0.1-0.7-0.1c-0.3,0-0.5-0.1-0.8-0.1c-0.4,0-0.7,0-0.8,0.1c-0.2,0.1-0.2,0.2-0.2,0.4c0,0.1,0,0.2,0.1,0.3
			c0,0.1,0.1,0.1,0.2,0.2c0.1,0.1,0.2,0.1,0.4,0.2s0.3,0.2,0.6,0.2c0.3,0.1,0.6,0.3,0.8,0.4s0.4,0.2,0.5,0.3
			c0.1,0.1,0.2,0.2,0.3,0.4C47.1,76.2,47.1,76.4,47.1,76.6z"/>
		<path fill="#504D4C" d="M7,84.4c-0.2-0.1-0.5-0.1-0.7-0.1c-0.3,0-0.5-0.1-0.8-0.1c-0.5,0-0.9,0.1-1.2,0.2
			c-0.4,0.1-0.7,0.3-0.9,0.6s-0.5,0.5-0.6,0.9S2.5,86.6,2.5,87c0,0.4,0.1,0.8,0.2,1.1c0.1,0.3,0.3,0.6,0.6,0.9
			c0.3,0.2,0.6,0.4,0.9,0.6c0.4,0.1,0.8,0.2,1.2,0.2c0.2,0,0.5,0,0.7-0.1c0.3,0,0.5-0.1,0.8-0.2l0.2,0.8c-0.3,0.1-0.6,0.2-0.9,0.2
			s-0.6,0.1-0.9,0.1c-0.6,0-1.1-0.1-1.6-0.3c-0.5-0.2-0.9-0.4-1.2-0.8c-0.3-0.3-0.6-0.7-0.8-1.1C1.7,88,1.6,87.5,1.6,87
			c0-0.5,0.1-1,0.3-1.4c0.2-0.4,0.5-0.8,0.8-1.1c0.3-0.3,0.7-0.6,1.2-0.8c0.5-0.2,1-0.3,1.6-0.3c0.3,0,0.6,0,0.9,0.1
			c0.3,0,0.6,0.1,0.9,0.2L7,84.4z"/>
		<path fill="#504D4C" d="M12.9,87.9c0,0.4-0.1,0.7-0.2,1c-0.1,0.3-0.3,0.6-0.5,0.8c-0.2,0.2-0.5,0.4-0.8,0.6
			c-0.3,0.1-0.6,0.2-1,0.2s-0.7-0.1-1-0.2S8.8,90,8.6,89.8c-0.2-0.2-0.4-0.5-0.5-0.8c-0.1-0.3-0.2-0.7-0.2-1c0-0.4,0.1-0.7,0.2-1
			c0.1-0.3,0.3-0.6,0.5-0.8c0.2-0.2,0.5-0.4,0.8-0.6c0.3-0.1,0.6-0.2,1-0.2s0.7,0.1,1,0.2c0.3,0.1,0.6,0.3,0.8,0.6
			c0.2,0.2,0.4,0.5,0.5,0.8C12.8,87.2,12.9,87.6,12.9,87.9z M12,87.9c0-0.3,0-0.5-0.1-0.8s-0.2-0.4-0.3-0.6
			c-0.1-0.2-0.3-0.3-0.5-0.4c-0.2-0.1-0.4-0.1-0.6-0.1c-0.2,0-0.5,0-0.6,0.1c-0.2,0.1-0.4,0.2-0.5,0.4C9.1,86.7,9,86.9,9,87.2
			c-0.1,0.2-0.1,0.5-0.1,0.8s0,0.5,0.1,0.8c0.1,0.2,0.2,0.4,0.3,0.6c0.1,0.2,0.3,0.3,0.5,0.4c0.2,0.1,0.4,0.1,0.6,0.1
			c0.2,0,0.5,0,0.6-0.1c0.2-0.1,0.4-0.2,0.5-0.4c0.1-0.2,0.2-0.4,0.3-0.6C11.9,88.5,12,88.2,12,87.9z"/>
		<path fill="#504D4C" d="M21,90.5v-3.2c0-0.4-0.1-0.7-0.2-0.9c-0.2-0.2-0.4-0.3-0.8-0.3c-0.2,0-0.4,0-0.5,0.1s-0.3,0.2-0.5,0.3
			c-0.1,0.1-0.2,0.3-0.3,0.5c-0.1,0.2-0.1,0.4-0.1,0.7v2.7h-0.9v-3.2c0-0.4-0.1-0.7-0.2-0.9c-0.2-0.2-0.4-0.3-0.8-0.3
			c-0.2,0-0.4,0-0.5,0.1c-0.2,0.1-0.3,0.2-0.5,0.3c-0.1,0.1-0.2,0.3-0.3,0.5s-0.1,0.4-0.1,0.7v2.7h-0.9v-5.1h0.9l0,0.9
			c0.2-0.3,0.4-0.5,0.7-0.7c0.3-0.2,0.6-0.3,1-0.3c0.4,0,0.7,0.1,1,0.3c0.3,0.2,0.4,0.4,0.6,0.7c0.2-0.3,0.4-0.5,0.8-0.7
			s0.7-0.3,1.1-0.3c0.6,0,1,0.2,1.3,0.5c0.3,0.3,0.4,0.8,0.4,1.4v3.3H21z"/>
		<path fill="#504D4C" d="M24.1,88.2c0,0.5,0.2,0.9,0.5,1.2s0.7,0.4,1.3,0.4c0.2,0,0.5,0,0.8-0.1c0.3,0,0.5-0.1,0.7-0.1l0.2,0.7
			c-0.3,0.1-0.6,0.2-0.9,0.2c-0.3,0-0.6,0.1-0.8,0.1c-0.4,0-0.8-0.1-1.2-0.2c-0.3-0.1-0.6-0.3-0.9-0.5s-0.4-0.5-0.5-0.8
			c-0.1-0.3-0.2-0.7-0.2-1.1c0-0.4,0.1-0.7,0.2-1c0.1-0.3,0.3-0.6,0.5-0.8c0.2-0.2,0.5-0.4,0.8-0.6c0.3-0.1,0.6-0.2,1-0.2
			c0.4,0,0.7,0.1,1,0.2c0.3,0.1,0.5,0.3,0.7,0.6c0.2,0.2,0.3,0.5,0.5,0.8c0.1,0.3,0.2,0.7,0.2,1v0.3H24.1z M27,87.5
			c0-0.5-0.2-0.8-0.4-1.1c-0.2-0.3-0.6-0.4-1-0.4c-0.4,0-0.8,0.1-1,0.4s-0.4,0.6-0.5,1.1H27z"/>
		<path fill="#504D4C" d="M36,90.5v-3.2c0-0.4-0.1-0.7-0.2-0.9c-0.2-0.2-0.4-0.3-0.8-0.3c-0.2,0-0.4,0-0.5,0.1s-0.3,0.2-0.5,0.3
			c-0.1,0.1-0.2,0.3-0.3,0.5c-0.1,0.2-0.1,0.4-0.1,0.7v2.7h-0.9v-3.2c0-0.4-0.1-0.7-0.2-0.9c-0.2-0.2-0.4-0.3-0.8-0.3
			c-0.2,0-0.4,0-0.5,0.1c-0.2,0.1-0.3,0.2-0.5,0.3c-0.1,0.1-0.2,0.3-0.3,0.5s-0.1,0.4-0.1,0.7v2.7h-0.9v-5.1h0.9l0,0.9
			c0.2-0.3,0.4-0.5,0.7-0.7c0.3-0.2,0.6-0.3,1-0.3c0.4,0,0.7,0.1,1,0.3c0.3,0.2,0.4,0.4,0.6,0.7c0.2-0.3,0.4-0.5,0.8-0.7
			s0.7-0.3,1.1-0.3c0.6,0,1,0.2,1.3,0.5c0.3,0.3,0.4,0.8,0.4,1.4v3.3H36z"/>
		<path fill="#504D4C" d="M43.1,87.9c0,0.4-0.1,0.7-0.2,1c-0.1,0.3-0.3,0.6-0.5,0.8c-0.2,0.2-0.5,0.4-0.8,0.6
			c-0.3,0.1-0.6,0.2-1,0.2s-0.7-0.1-1-0.2S39,90,38.8,89.8c-0.2-0.2-0.4-0.5-0.5-0.8c-0.1-0.3-0.2-0.7-0.2-1c0-0.4,0.1-0.7,0.2-1
			c0.1-0.3,0.3-0.6,0.5-0.8c0.2-0.2,0.5-0.4,0.8-0.6c0.3-0.1,0.6-0.2,1-0.2s0.7,0.1,1,0.2c0.3,0.1,0.6,0.3,0.8,0.6
			c0.2,0.2,0.4,0.5,0.5,0.8C43.1,87.2,43.1,87.6,43.1,87.9z M42.2,87.9c0-0.3,0-0.5-0.1-0.8s-0.2-0.4-0.3-0.6
			c-0.1-0.2-0.3-0.3-0.5-0.4c-0.2-0.1-0.4-0.1-0.6-0.1c-0.2,0-0.5,0-0.6,0.1c-0.2,0.1-0.4,0.2-0.5,0.4c-0.1,0.2-0.2,0.4-0.3,0.6
			c-0.1,0.2-0.1,0.5-0.1,0.8s0,0.5,0.1,0.8c0.1,0.2,0.2,0.4,0.3,0.6c0.1,0.2,0.3,0.3,0.5,0.4c0.2,0.1,0.4,0.1,0.6,0.1
			c0.2,0,0.5,0,0.6-0.1c0.2-0.1,0.4-0.2,0.5-0.4c0.1-0.2,0.2-0.4,0.3-0.6C42.2,88.5,42.2,88.2,42.2,87.9z"/>
		<path fill="#504D4C" d="M46.4,86.3c-0.2,0.1-0.4,0.3-0.6,0.4c-0.2,0.2-0.3,0.4-0.4,0.6c-0.1,0.2-0.1,0.5-0.1,0.7v2.5h-0.9v-5.1
			h0.9v1c0.1-0.1,0.2-0.3,0.3-0.4c0.1-0.1,0.3-0.2,0.4-0.4c0.2-0.1,0.3-0.2,0.5-0.2c0.2-0.1,0.4-0.1,0.6-0.1v0.8
			C46.8,86.1,46.6,86.2,46.4,86.3z"/>
		<path fill="#504D4C" d="M51,90.5v-0.6c-0.2,0.2-0.4,0.4-0.6,0.5s-0.6,0.2-1,0.2c-0.5,0-0.9-0.1-1.3-0.4s-0.5-0.6-0.5-1.1
			c0-0.5,0.1-0.8,0.4-1.1c0.3-0.3,0.7-0.4,1.2-0.4H51v-0.5c0-0.3-0.1-0.6-0.3-0.8S50.1,86,49.6,86c-0.2,0-0.5,0-0.8,0
			c-0.3,0-0.5,0.1-0.8,0.1L48,85.5c0.3-0.1,0.5-0.1,0.8-0.1s0.6,0,0.9,0c0.7,0,1.3,0.2,1.7,0.5s0.6,0.7,0.6,1.3v3.4H51z M51,88.3
			h-1.4c-0.3,0-0.6,0.1-0.7,0.2c-0.2,0.1-0.2,0.3-0.2,0.6c0,0.3,0.1,0.5,0.2,0.6c0.2,0.1,0.4,0.2,0.7,0.2c0.4,0,0.8-0.1,1-0.3
			S51,89,51,88.6V88.3z"/>
		<path fill="#504D4C" d="M55.3,90.5c-0.1,0-0.2,0-0.3,0c-0.4,0-0.8-0.1-1-0.3c-0.3-0.2-0.4-0.6-0.4-1.2v-3h-0.7v-0.7h0.7v-1.4h0.9
			v1.4h1v0.7h-1v3c0,0.3,0.1,0.5,0.2,0.6c0.1,0.1,0.2,0.2,0.4,0.2c0.1,0,0.1,0,0.2,0c0.1,0,0.2,0,0.3,0l0.1,0.7
			C55.5,90.5,55.4,90.5,55.3,90.5z"/>
		<path fill="#504D4C" d="M56.8,84.5v-1.1h0.9v1.1H56.8z M56.8,90.5v-5.1h0.9v5.1H56.8z"/>
		<path fill="#504D4C" d="M61.5,90.5h-0.9l-2-5.1h0.9l1.5,4.1l1.5-4.1h0.9L61.5,90.5z"/>
		<path fill="#504D4C" d="M68.8,87.9c0,0.4-0.1,0.7-0.2,1c-0.1,0.3-0.3,0.6-0.5,0.8c-0.2,0.2-0.5,0.4-0.8,0.6
			c-0.3,0.1-0.6,0.2-1,0.2s-0.7-0.1-1-0.2s-0.6-0.3-0.8-0.6c-0.2-0.2-0.4-0.5-0.5-0.8c-0.1-0.3-0.2-0.7-0.2-1c0-0.4,0.1-0.7,0.2-1
			c0.1-0.3,0.3-0.6,0.5-0.8c0.2-0.2,0.5-0.4,0.8-0.6c0.3-0.1,0.6-0.2,1-0.2s0.7,0.1,1,0.2c0.3,0.1,0.6,0.3,0.8,0.6
			c0.2,0.2,0.4,0.5,0.5,0.8C68.7,87.2,68.8,87.6,68.8,87.9z M67.9,87.9c0-0.3,0-0.5-0.1-0.8s-0.2-0.4-0.3-0.6
			c-0.1-0.2-0.3-0.3-0.5-0.4c-0.2-0.1-0.4-0.1-0.6-0.1c-0.2,0-0.5,0-0.6,0.1c-0.2,0.1-0.4,0.2-0.5,0.4c-0.1,0.2-0.2,0.4-0.3,0.6
			c-0.1,0.2-0.1,0.5-0.1,0.8s0,0.5,0.1,0.8c0.1,0.2,0.2,0.4,0.3,0.6c0.1,0.2,0.3,0.3,0.5,0.4c0.2,0.1,0.4,0.1,0.6,0.1
			c0.2,0,0.5,0,0.6-0.1c0.2-0.1,0.4-0.2,0.5-0.4c0.1-0.2,0.2-0.4,0.3-0.6C67.8,88.5,67.9,88.2,67.9,87.9z"/>
		<path fill="#504D4C" d="M73.6,89.1c0,0.4-0.2,0.8-0.5,1c-0.4,0.3-0.9,0.4-1.5,0.4c-0.3,0-0.6,0-1-0.1c-0.4-0.1-0.7-0.2-0.9-0.3
			l0.2-0.7c0.3,0.1,0.6,0.2,0.9,0.3s0.6,0.1,0.9,0.1c0.8,0,1.1-0.2,1.1-0.7c0-0.1,0-0.2-0.1-0.3c0-0.1-0.1-0.1-0.2-0.2
			c-0.1-0.1-0.2-0.1-0.4-0.2c-0.2-0.1-0.4-0.2-0.7-0.3c-0.3-0.1-0.6-0.2-0.8-0.4s-0.4-0.2-0.5-0.4c-0.1-0.1-0.2-0.3-0.3-0.4
			s-0.1-0.3-0.1-0.5c0-0.4,0.2-0.8,0.5-1c0.3-0.2,0.8-0.3,1.4-0.3c0.2,0,0.5,0,0.8,0.1s0.6,0.1,0.9,0.2l-0.1,0.7
			c-0.2-0.1-0.5-0.1-0.7-0.1c-0.3,0-0.5-0.1-0.8-0.1c-0.4,0-0.7,0-0.8,0.1c-0.2,0.1-0.2,0.2-0.2,0.4c0,0.1,0,0.2,0.1,0.3
			c0,0.1,0.1,0.1,0.2,0.2c0.1,0.1,0.2,0.1,0.4,0.2s0.3,0.2,0.6,0.2c0.3,0.1,0.6,0.3,0.8,0.4s0.4,0.2,0.5,0.3
			c0.1,0.1,0.2,0.2,0.3,0.4C73.6,88.8,73.6,88.9,73.6,89.1z"/>
	</g>
</g>
</svg>
