<?xml version="1.0" encoding="utf-8"?>
<!-- Generator: Adobe Illustrator 19.1.0, SVG Export Plug-In . SVG Version: 6.00 Build 0)  -->
<svg version="1.1" id="Layer_1" xmlns="http://www.w3.org/2000/svg" xmlns:xlink="http://www.w3.org/1999/xlink" x="0px" y="0px"
	 viewBox="-218 211.4 73.6 90.6" style="enable-background:new -218 211.4 73.6 90.6;" xml:space="preserve">
<metadata><?xpacket begin="﻿" id="W5M0MpCehiHzreSzNTczkc9d"?>
<x:xmpmeta xmlns:x="adobe:ns:meta/" x:xmptk="Adobe XMP Core 5.6-c067 79.157747, 2015/03/30-23:40:42        ">
   <rdf:RDF xmlns:rdf="http://www.w3.org/1999/02/22-rdf-syntax-ns#">
      <rdf:Description rdf:about=""/>
   </rdf:RDF>
</x:xmpmeta>
                                                                                                    
                                                                                                    
                                                                                                    
                                                                                                    
                                                                                                    
                                                                                                    
                                                                                                    
                                                                                                    
                                                                                                    
                                                                                                    
                                                                                                    
                                                                                                    
                                                                                                    
                                                                                                    
                                                                                                    
                                                                                                    
                                                                                                    
                                                                                                    
                                                                                                    
                                                                                                    
                           
<?xpacket end="w"?></metadata>
<style type="text/css">
	.st0{fill:#90B71D;}
	.st1{clip-path:url(#SVGID_2_);fill:#ED4012;}
	.st2{clip-path:url(#SVGID_4_);fill:#7F991D;}
	.st3{fill:#FFDA00;}
	.st4{fill:#FFFFFF;}
	.st5{fill:#504D4C;}
</style>
<g>
	<path class="st0" d="M-211.1,219.9c0-3,2.5-5.5,5.5-5.5h50.4c3,0,5.5,2.5,5.5,5.5v50.4c0,3-2.5,5.5-5.5,5.5h-50.4
		c-3,0-5.5-2.5-5.5-5.5C-211.1,270.3-211.1,219.9-211.1,219.9z"/>
	<g>
		<g>
			<defs>
				<path id="SVGID_1_" d="M-211.1,219.9c0-3,2.5-5.5,5.5-5.5h50.4c3,0,5.5,2.5,5.5,5.5v50.4c0,3-2.5,5.5-5.5,5.5h-50.4
					c-3,0-5.5-2.5-5.5-5.5C-211.1,270.3-211.1,219.9-211.1,219.9z"/>
			</defs>
			<clipPath id="SVGID_2_">
				<use xlink:href="#SVGID_1_"  style="overflow:visible;"/>
			</clipPath>
			<rect x="-217.2" y="211.4" class="st1" width="72.1" height="22.1"/>
		</g>
		<g>
			<defs>
				<path id="SVGID_3_" d="M-211.1,219.9c0-3,2.5-5.5,5.5-5.5h50.4c3,0,5.5,2.5,5.5,5.5v50.4c0,3-2.5,5.5-5.5,5.5h-50.4
					c-3,0-5.5-2.5-5.5-5.5C-211.1,270.3-211.1,219.9-211.1,219.9z"/>
			</defs>
			<clipPath id="SVGID_4_">
				<use xlink:href="#SVGID_3_"  style="overflow:visible;"/>
			</clipPath>
			<polygon class="st2" points="-199.7,245.1 -193.5,241.4 -167.3,241.4 -163.1,245.8 -164.5,250.6 -161.7,255.4 -161.3,259.4 
				-172.6,282.1 -218,280.7 			"/>
		</g>
	</g>
	<polygon class="st3" points="-188.5,221.2 -188.5,219.4 -196.4,219.4 -196.4,221.2 -193.5,221.2 -193.5,228.4 -191.4,228.4 
		-191.4,221.2 	"/>
	<polygon class="st3" points="-177.9,228.4 -177.9,226.6 -182.4,226.6 -182.4,224.6 -178.1,224.6 -178.1,222.9 -182.4,222.9 
		-182.4,221.1 -177.9,221.1 -177.9,219.4 -184.5,219.4 -184.5,228.4 	"/>
	<path class="st3" d="M-167.4,222.3c0,0.8-0.6,1.3-1.3,1.3h-2.4V221h2.4C-168,221-167.4,221.5-167.4,222.3z M-164.4,228.4l-2.6-3.5
		c1-0.5,1.7-1.5,1.7-2.6c0-1.6-1.2-2.9-2.9-2.9h-4.9v9h2v-3.2h1.9l2.3,3.2H-164.4z"/>
	<path class="st4" d="M-188.9,251.7c0,3.2-0.9,6.5-4,6.5c-3.1,0-4-3.3-4-6.5s1-6.5,4-6.5S-188.9,248.5-188.9,251.7z M-184.5,251.7
		c0-5.6-2.8-10.3-8.3-10.3s-8.4,4.7-8.4,10.3c0,5.6,2.9,10.3,8.4,10.3S-184.5,257.3-184.5,251.7z"/>
	<path class="st4" d="M-164.7,247.3c0,1.6-1.2,2.6-2.8,2.6l0,0c-1.5,0-2.8-1-2.8-2.6c0-1.3,0.9-2.4,2.8-2.4S-164.7,246-164.7,247.3z
		 M-163.9,255.8c0,1.6-1.4,2.7-3.6,2.7s-3.6-1.1-3.6-2.7c0-1.3,1.2-2.7,3.6-2.7C-165,253-163.9,254.5-163.9,255.8z M-159.6,255.8
		c0-2-1.2-3.9-3.3-4.9c1.4-1,2.3-2.4,2.3-4.1c0-3.3-2.8-5.3-6.8-5.3s-6.9,2-6.9,5.3c0,1.6,0.9,3.1,2.3,4.1c-2.2,1.1-3.3,2.9-3.3,4.9
		c0,3.5,3,6.3,7.9,6.3C-162.6,262.1-159.6,259.3-159.6,255.8z"/>
</g>
<g>
	<path class="st5" d="M-184.5,282.8c0,0.6-0.1,1.2-0.4,1.8c-0.3,0.5-0.6,1-1.1,1.4c-0.5,0.4-1,0.6-1.6,0.9c-0.6,0.2-1.4,0.4-2.1,0.4
		h-1.9v-8.8h1.9c0.8,0,1.5,0.1,2.1,0.4s1.2,0.5,1.6,0.9c0.5,0.4,0.9,0.9,1.1,1.4C-184.7,281.7-184.5,282.2-184.5,282.8z
		 M-185.7,282.8c0-0.5-0.1-1-0.4-1.4c-0.3-0.4-0.5-0.8-0.9-1c-0.4-0.2-0.8-0.5-1.2-0.6c-0.5-0.1-1-0.2-1.5-0.2h-0.9v6.6h0.9
		c0.5,0,1-0.1,1.5-0.2s0.9-0.4,1.2-0.6c0.4-0.2,0.6-0.6,0.9-1C-185.9,283.8-185.7,283.4-185.7,282.8z"/>
	<path class="st5" d="M-182.9,279.8v-1.4h1.1v1.4H-182.9z M-182.9,287.2v-6.4h1.1v6.4H-182.9z"/>
	<path class="st5" d="M-176,287.2v-0.8c-0.2,0.2-0.5,0.5-0.7,0.6c-0.2,0.1-0.8,0.2-1.3,0.2c-0.6,0-1.1-0.1-1.6-0.5
		c-0.5-0.4-0.6-0.8-0.6-1.4s0.1-1,0.5-1.4c0.4-0.4,0.9-0.5,1.5-0.5h2v-0.6c0-0.4-0.1-0.8-0.4-1c-0.2-0.2-0.7-0.4-1.4-0.4
		c-0.3,0-0.6,0-1,0s-0.6,0.1-1,0.1l-0.1-0.9c0.4-0.1,0.6-0.1,1-0.1s0.8,0,1.1,0c0.9,0,1.6,0.2,2.1,0.6c0.5,0.4,0.8,0.9,0.8,1.6v4.2
		H-176z M-176,284.4h-1.8c-0.4,0-0.8,0.1-0.9,0.2c-0.2,0.1-0.2,0.4-0.2,0.8s0.1,0.6,0.2,0.8c0.2,0.1,0.5,0.2,0.9,0.2
		c0.5,0,1-0.1,1.2-0.4s0.5-0.6,0.5-1.1V284.4z"/>
	<path class="st5" d="M-168.6,285.5c0,0.5-0.2,1-0.6,1.2c-0.5,0.4-1.1,0.5-1.9,0.5c-0.4,0-0.8,0-1.2-0.1s-0.9-0.2-1.1-0.4l0.2-0.9
		c0.4,0.1,0.8,0.2,1.1,0.4c0.4,0.1,0.8,0.1,1.1,0.1c1,0,1.4-0.2,1.4-0.9c0-0.1,0-0.2-0.1-0.4c0-0.1-0.1-0.1-0.2-0.2
		c-0.1-0.1-0.2-0.1-0.5-0.2s-0.5-0.2-0.9-0.4s-0.8-0.2-1-0.5s-0.5-0.2-0.6-0.5c-0.1-0.1-0.2-0.4-0.4-0.5s-0.1-0.4-0.1-0.6
		c0-0.5,0.2-1,0.6-1.2s1-0.4,1.8-0.4c0.2,0,0.6,0,1,0.1c0.4,0.1,0.8,0.1,1.1,0.2l-0.1,0.9c-0.2-0.1-0.6-0.1-0.9-0.1
		c-0.4,0-0.6-0.1-1-0.1c-0.5,0-0.9,0-1,0.1c-0.2,0.1-0.2,0.2-0.2,0.5c0,0.1,0,0.2,0.1,0.4c0,0.1,0.1,0.1,0.2,0.2
		c0.1,0.1,0.2,0.1,0.5,0.2s0.4,0.2,0.8,0.2c0.4,0.1,0.8,0.4,1,0.5s0.5,0.2,0.6,0.4c0.1,0.1,0.2,0.2,0.4,0.5
		C-168.6,285-168.6,285.3-168.6,285.5z"/>
</g>
<path class="st5" d="M-211,295.8c-0.2-0.1-0.5-0.1-0.7-0.1c-0.3,0-0.5-0.1-0.8-0.1c-0.5,0-0.9,0.1-1.2,0.2c-0.4,0.1-0.7,0.3-0.9,0.6
	c-0.2,0.3-0.5,0.5-0.6,0.9c-0.1,0.4-0.3,0.7-0.3,1.1s0.1,0.8,0.2,1.1c0.1,0.3,0.3,0.6,0.6,0.9c0.3,0.2,0.6,0.4,0.9,0.6
	c0.4,0.1,0.8,0.2,1.2,0.2c0.2,0,0.5,0,0.7-0.1c0.3,0,0.5-0.1,0.8-0.2l0.2,0.8c-0.3,0.1-0.6,0.2-0.9,0.2s-0.6,0.1-0.9,0.1
	c-0.6,0-1.1-0.1-1.6-0.3c-0.5-0.2-0.9-0.4-1.2-0.8c-0.3-0.3-0.6-0.7-0.8-1.1c0-0.4-0.1-0.9-0.1-1.4s0.1-1,0.3-1.4
	c0.2-0.4,0.5-0.8,0.8-1.1c0.3-0.3,0.7-0.6,1.2-0.8c0.5-0.2,1-0.3,1.6-0.3c0.3,0,0.6,0,0.9,0.1c0.3,0,0.6,0.1,0.9,0.2L-211,295.8z"/>
<path class="st5" d="M-205.1,299.3c0,0.4-0.1,0.7-0.2,1c-0.1,0.3-0.3,0.6-0.5,0.8c-0.2,0.2-0.5,0.4-0.8,0.6c-0.3,0.1-0.6,0.2-1,0.2
	c-0.4,0-0.7-0.1-1-0.2c-0.3-0.1-0.6-0.3-0.8-0.5c-0.2-0.2-0.4-0.5-0.5-0.8c-0.1-0.3-0.2-0.7-0.2-1c0-0.4,0.1-0.7,0.2-1
	c0.1-0.3,0.3-0.6,0.5-0.8c0.2-0.2,0.5-0.4,0.8-0.6c0.3-0.1,0.6-0.2,1-0.2c0.4,0,0.7,0.1,1,0.2c0.3,0.1,0.6,0.3,0.8,0.6
	c0.2,0.2,0.4,0.5,0.5,0.8C-205.2,298.6-205.1,299-205.1,299.3z M-206,299.3c0-0.3,0-0.5-0.1-0.8c-0.1-0.3-0.2-0.4-0.3-0.6
	c-0.1-0.2-0.3-0.3-0.5-0.4c-0.2-0.1-0.4-0.1-0.6-0.1s-0.5,0-0.6,0.1c-0.2,0.1-0.4,0.2-0.5,0.4c-0.3,0.2-0.4,0.4-0.4,0.7
	c-0.1,0.2-0.1,0.5-0.1,0.8s0,0.5,0.1,0.8c0.1,0.2,0.2,0.4,0.3,0.6c0.1,0.2,0.3,0.3,0.5,0.4c0.2,0.1,0.4,0.1,0.6,0.1
	c0.2,0,0.5,0,0.6-0.1c0.2-0.1,0.4-0.2,0.5-0.4c0.1-0.2,0.2-0.4,0.3-0.6C-206.1,299.9-206,299.6-206,299.3z"/>
<path class="st5" d="M-197,301.9v-3.2c0-0.4-0.1-0.7-0.2-0.9c-0.2-0.2-0.4-0.3-0.8-0.3c-0.2,0-0.4,0-0.5,0.1
	c-0.1,0.1-0.3,0.2-0.5,0.3c-0.1,0.1-0.2,0.3-0.3,0.5c-0.1,0.2-0.1,0.4-0.1,0.7v2.7h-0.9v-3.2c0-0.4-0.1-0.7-0.2-0.9
	c-0.2-0.2-0.4-0.3-0.8-0.3c-0.2,0-0.4,0-0.5,0.1c-0.2,0.1-0.3,0.2-0.5,0.3c-0.1,0.1-0.2,0.3-0.3,0.5c-0.1,0.2-0.1,0.4-0.1,0.7v2.7
	h-0.9v-5.1h0.9v0.9c0.2-0.3,0.4-0.5,0.7-0.7s0.6-0.3,1-0.3s0.7,0.1,1,0.3s0.4,0.4,0.6,0.7c0.2-0.3,0.4-0.5,0.8-0.7
	c0.4-0.2,0.7-0.3,1.1-0.3c0.6,0,1,0.2,1.3,0.5c0.3,0.3,0.4,0.8,0.4,1.4v3.3h-1.2V301.9z"/>
<path class="st5" d="M-193.9,299.6c0,0.5,0.2,0.9,0.5,1.2c0.3,0.3,0.7,0.4,1.3,0.4c0.2,0,0.5,0,0.8-0.1c0.3,0,0.5-0.1,0.7-0.1
	l0.2,0.7c-0.3,0.1-0.6,0.2-0.9,0.2s-0.6,0.1-0.8,0.1c-0.4,0-0.8-0.1-1.2-0.2c-0.3-0.1-0.6-0.3-0.9-0.5s-0.4-0.5-0.5-0.8
	c-0.1-0.3-0.2-0.7-0.2-1.1s0.1-0.7,0.2-1c0.1-0.3,0.3-0.6,0.5-0.8c0.2-0.2,0.5-0.4,0.8-0.6c0.3-0.1,0.6-0.2,1-0.2
	c0.4,0,0.7,0.1,1,0.2c0.3,0.1,0.5,0.3,0.7,0.6c0.2,0.2,0.3,0.5,0.5,0.8c0.1,0.3,0.2,0.7,0.2,1v0.3h-3.9V299.6z M-191,298.9
	c0-0.5-0.2-0.8-0.4-1.1c-0.2-0.3-0.6-0.4-1-0.4c-0.4,0-0.8,0.1-1,0.4c-0.2,0.3-0.4,0.6-0.5,1.1H-191z"/>
<path class="st5" d="M-182,301.9v-3.2c0-0.4-0.1-0.7-0.2-0.9c-0.2-0.2-0.4-0.3-0.8-0.3c-0.2,0-0.4,0-0.5,0.1
	c-0.1,0.1-0.3,0.2-0.5,0.3c-0.1,0.1-0.2,0.3-0.3,0.5c-0.1,0.2-0.1,0.4-0.1,0.7v2.7h-0.9v-3.2c0-0.4-0.1-0.7-0.2-0.9
	c-0.2-0.2-0.4-0.3-0.8-0.3c-0.2,0-0.4,0-0.5,0.1c-0.2,0.1-0.3,0.2-0.5,0.3c-0.1,0.1-0.2,0.3-0.3,0.5c-0.1,0.2-0.1,0.4-0.1,0.7v2.7
	h-0.9v-5.1h0.9v0.9c0.2-0.3,0.4-0.5,0.7-0.7s0.6-0.3,1-0.3s0.7,0.1,1,0.3s0.4,0.4,0.6,0.7c0.2-0.3,0.4-0.5,0.8-0.7s0.7-0.3,1.1-0.3
	c0.6,0,1,0.2,1.3,0.5c0.3,0.3,0.4,0.8,0.4,1.4v3.3h-1.2V301.9z"/>
<path class="st5" d="M-174.9,299.3c0,0.4-0.1,0.7-0.2,1c-0.1,0.3-0.3,0.6-0.5,0.8c-0.2,0.2-0.5,0.4-0.8,0.6c-0.3,0.1-0.6,0.2-1,0.2
	c-0.4,0-0.7-0.1-1-0.2c-0.3-0.1-0.6-0.3-0.8-0.5c-0.2-0.2-0.4-0.5-0.5-0.8c-0.1-0.3-0.2-0.7-0.2-1c0-0.4,0.1-0.7,0.2-1
	c0.1-0.3,0.3-0.6,0.5-0.8c0.2-0.2,0.5-0.4,0.8-0.6c0.3-0.1,0.6-0.2,1-0.2c0.4,0,0.7,0.1,1,0.2c0.3,0.1,0.6,0.3,0.8,0.6
	c0.2,0.2,0.4,0.5,0.5,0.8C-174.9,298.6-174.9,299-174.9,299.3z M-175.8,299.3c0-0.3,0-0.5-0.1-0.8c-0.1-0.3-0.2-0.4-0.3-0.6
	s-0.3-0.3-0.5-0.4c-0.2-0.1-0.4-0.1-0.6-0.1c-0.2,0-0.5,0-0.6,0.1c-0.2,0.1-0.4,0.2-0.5,0.4c-0.1,0.2-0.2,0.4-0.3,0.6
	c-0.1,0.2-0.1,0.5-0.1,0.8c0,0.3,0,0.5,0.1,0.8c0.1,0.2,0.2,0.4,0.3,0.6c0.1,0.2,0.3,0.3,0.5,0.4s0.4,0.1,0.6,0.1
	c0.2,0,0.5,0,0.6-0.1c0.2-0.1,0.4-0.2,0.5-0.4c0.1-0.2,0.2-0.4,0.3-0.6C-175.8,299.9-175.8,299.6-175.8,299.3z"/>
<path class="st5" d="M-171.6,297.7c-0.2,0.1-0.4,0.3-0.6,0.4c-0.2,0.2-0.3,0.4-0.4,0.6c-0.1,0.2-0.1,0.5-0.1,0.7v2.5h-0.9v-5.1h0.9
	v1c0.1-0.1,0.2-0.3,0.3-0.4c0.1-0.1,0.3-0.2,0.4-0.4c0.2-0.1,0.3-0.2,0.5-0.2c0.2-0.1,0.4-0.1,0.6-0.1v0.8
	C-171.2,297.5-171.4,297.6-171.6,297.7z"/>
<path class="st5" d="M-167,301.9v-0.6c-0.2,0.2-0.4,0.4-0.6,0.5c-0.2,0.1-0.6,0.2-1,0.2c-0.5,0-0.9-0.1-1.3-0.4
	c-0.4-0.3-0.5-0.6-0.5-1.1s0.1-0.8,0.4-1.1c0.3-0.3,0.7-0.4,1.2-0.4h1.8v-0.5c0-0.3-0.1-0.6-0.3-0.8c-0.2-0.2-0.6-0.3-1.1-0.3
	c-0.2,0-0.5,0-0.8,0s-0.5,0.1-0.8,0.1v-0.6c0.3-0.1,0.5-0.1,0.8-0.1s0.6,0,0.9,0c0.7,0,1.3,0.2,1.7,0.5c0.4,0.3,0.6,0.7,0.6,1.3v3.4
	h-1V301.9z M-167,299.7h-1.4c-0.3,0-0.6,0.1-0.7,0.2c-0.2,0.1-0.2,0.3-0.2,0.6s0.1,0.5,0.2,0.6c0.2,0.1,0.4,0.2,0.7,0.2
	c0.4,0,0.8-0.1,1-0.3c0.2-0.2,0.4-0.6,0.4-1V299.7z"/>
<path class="st5" d="M-162.7,301.9c-0.1,0-0.2,0-0.3,0c-0.4,0-0.8-0.1-1-0.3c-0.3-0.2-0.4-0.6-0.4-1.2v-3h-0.7v-0.7h0.7v-1.4h0.9
	v1.4h1v0.7h-1v3c0,0.3,0.1,0.5,0.2,0.6c0.1,0.1,0.2,0.2,0.4,0.2c0.1,0,0.1,0,0.2,0c0.1,0,0.2,0,0.3,0l0.1,0.7
	C-162.5,301.9-162.6,301.9-162.7,301.9z"/>
<path class="st5" d="M-161.2,295.9v-1.1h0.9v1.1H-161.2z M-161.2,301.9v-5.1h0.9v5.1H-161.2z"/>
<path class="st5" d="M-156.5,301.9h-0.9l-2-5.1h0.9l1.5,4.1l1.5-4.1h0.9L-156.5,301.9z"/>
<path class="st5" d="M-149.2,299.3c0,0.4-0.1,0.7-0.2,1c-0.1,0.3-0.3,0.6-0.5,0.8c-0.2,0.2-0.5,0.4-0.8,0.6c-0.3,0.1-0.6,0.2-1,0.2
	s-0.7-0.1-1-0.2c-0.3-0.1-0.6-0.3-0.8-0.6c-0.2-0.2-0.4-0.5-0.5-0.8c-0.1-0.3-0.2-0.7-0.2-1c0-0.4,0.1-0.7,0.2-1
	c0.1-0.3,0.3-0.6,0.5-0.8s0.5-0.4,0.8-0.6c0.3-0.1,0.6-0.2,1-0.2s0.7,0.1,1,0.2s0.6,0.3,0.8,0.6c0.2,0.2,0.4,0.5,0.5,0.8
	C-149.3,298.6-149.2,299-149.2,299.3z M-150.1,299.3c0-0.3,0-0.5-0.1-0.8c-0.1-0.3-0.2-0.4-0.3-0.6s-0.3-0.3-0.5-0.4
	c-0.2-0.1-0.4-0.1-0.6-0.1c-0.2,0-0.5,0-0.6,0.1c-0.2,0.1-0.4,0.2-0.5,0.4c-0.1,0.2-0.2,0.4-0.3,0.6c-0.1,0.2-0.1,0.5-0.1,0.8
	c0,0.3,0,0.5,0.1,0.8c0.1,0.2,0.2,0.4,0.3,0.6c0.1,0.2,0.3,0.3,0.5,0.4s0.4,0.1,0.6,0.1c0.2,0,0.5,0,0.6-0.1
	c0.2-0.1,0.4-0.2,0.5-0.4c0.1-0.2,0.2-0.4,0.3-0.6C-150.2,299.9-150.1,299.6-150.1,299.3z"/>
<path class="st5" d="M-144.4,300.5c0,0.4-0.2,0.8-0.5,1c-0.4,0.3-0.9,0.4-1.5,0.4c-0.3,0-0.6,0-1-0.1c-0.4-0.1-0.7-0.2-0.9-0.3
	l0.2-0.7c0.3,0.1,0.6,0.2,0.9,0.3c0.3,0.1,0.6,0.1,0.9,0.1c0.8,0,1.1-0.2,1.1-0.7c0-0.1,0-0.2-0.1-0.3c0-0.1-0.1-0.1-0.2-0.2
	s-0.2-0.1-0.4-0.2c-0.2-0.1-0.4-0.2-0.7-0.3c-0.3-0.1-0.6-0.2-0.8-0.4c-0.2-0.2-0.4-0.2-0.5-0.4c-0.1-0.1-0.2-0.3-0.3-0.4
	c-0.1-0.1-0.1-0.3-0.1-0.5c0-0.4,0.2-0.8,0.5-1c0.3-0.2,0.8-0.3,1.4-0.3c0.2,0,0.5,0,0.8,0.1c0.3,0.1,0.6,0.1,0.9,0.2l-0.1,0.7
	c-0.2-0.1-0.5-0.1-0.7-0.1c-0.3,0-0.5-0.1-0.8-0.1c-0.4,0-0.7,0-0.8,0.1c-0.2,0.1-0.2,0.2-0.2,0.4c0,0.1,0,0.2,0.1,0.3
	c0,0.1,0.1,0.1,0.2,0.2s0.2,0.1,0.4,0.2c0.2,0.1,0.3,0.2,0.6,0.2c0.3,0.1,0.6,0.3,0.8,0.4c0.2,0.1,0.4,0.2,0.5,0.3s0.2,0.2,0.3,0.4
	C-144.4,300.2-144.4,300.3-144.4,300.5z"/>
</svg>
