<?xml version="1.0" encoding="utf-8"?>
<!-- Generator: Adobe Illustrator 19.1.0, SVG Export Plug-In . SVG Version: 6.00 Build 0)  -->
<svg version="1.1" id="Layer_1" xmlns="http://www.w3.org/2000/svg" xmlns:xlink="http://www.w3.org/1999/xlink" x="0px" y="0px"
	 viewBox="-216 213.2 78.4 90.3" style="enable-background:new -216 213.2 78.4 90.3;" xml:space="preserve">
<metadata><?xpacket begin="﻿" id="W5M0MpCehiHzreSzNTczkc9d"?>
<x:xmpmeta xmlns:x="adobe:ns:meta/" x:xmptk="Adobe XMP Core 5.6-c067 79.157747, 2015/03/30-23:40:42        ">
   <rdf:RDF xmlns:rdf="http://www.w3.org/1999/02/22-rdf-syntax-ns#">
      <rdf:Description rdf:about=""/>
   </rdf:RDF>
</x:xmpmeta>
                                                                                                    
                                                                                                    
                                                                                                    
                                                                                                    
                                                                                                    
                                                                                                    
                                                                                                    
                                                                                                    
                                                                                                    
                                                                                                    
                                                                                                    
                                                                                                    
                                                                                                    
                                                                                                    
                                                                                                    
                                                                                                    
                                                                                                    
                                                                                                    
                                                                                                    
                                                                                                    
                           
<?xpacket end="w"?></metadata>
<style type="text/css">
	.st0{fill:#FFFFFF;}
	.st1{clip-path:url(#SVGID_2_);fill:#DCE6EA;}
	.st2{fill:none;stroke:#007DA0;stroke-width:0.3088;stroke-miterlimit:3.8637;}
	.st3{fill:#D10F17;}
	.st4{fill:#0094C2;}
	.st5{fill:#90B71D;}
	.st6{fill:#FFB700;}
	.st7{fill:#F04D12;}
	.st8{fill:#504D4C;}
</style>
<g>
	<path class="st0" d="M-199.2,218.9c0-3,2.5-5.5,5.5-5.5h50.4c3,0,5.5,2.5,5.5,5.5v50.4c0,3-2.5,5.5-5.5,5.5h-50.4
		c-3,0-5.5-2.5-5.5-5.5V218.9z"/>
	<g>
		<g>
			<defs>
				<path id="SVGID_1_" d="M-199.2,218.9c0-3,2.5-5.5,5.5-5.5h50.4c3,0,5.5,2.5,5.5,5.5v50.4c0,3-2.5,5.5-5.5,5.5h-50.4
					c-3,0-5.5-2.5-5.5-5.5V218.9z"/>
			</defs>
			<clipPath id="SVGID_2_">
				<use xlink:href="#SVGID_1_"  style="overflow:visible;"/>
			</clipPath>
			<path class="st1" d="M-145.4,257.4l-11.9,23.9H-216l23.6-46h1.1c8.7,0,12.2-8.1,20.9-8.1h4.2c5,0,8.6,0.9,11.9,4.7
				C-151,235.5-147.2,253.3-145.4,257.4z"/>
		</g>
	</g>
	<path class="st2" d="M-199.2,218.9c0-3,2.5-5.5,5.5-5.5h50.4c3,0,5.5,2.5,5.5,5.5v50.4c0,3-2.5,5.5-5.5,5.5h-50.4
		c-3,0-5.5-2.5-5.5-5.5V218.9z"/>
	<path class="st3" d="M-158.2,228.3c-0.1,1.6-0.6,7.1-0.6,7.1s6.8,3.6,8.8,5c3.4,2.3,5.5,0.6,5.2-3.2c-0.3-3.3-2.9-7.5-6.2-9.6
		C-154.5,225.3-158,225.6-158.2,228.3z"/>
	<path class="st0" d="M-155.3,230.2c0.2-0.8,0.3-0.9,1-1.3c0.1,0.7,0.5,1.2,1.1,1.5h-0.1c0.3,0.1,0.6,0.3,0.9,0.5
		c0.6,0.4,1.2,0.8,1.7,1.3c0.4-0.2,1.2-0.6,1.6-0.8l1.7,2.1l-2.1,0.2c0.3,0.5,0.5,1,0.6,1.6l2,0.3c-0.3,0.4-1.1,1.4-1.7,1.3
		c0-0.1-0.1-0.1-0.3-0.2c-0.3,1.2-1.6,1.4-3.2,0.4c-0.4-0.3-1.3-0.8-2.1-1.2l0.7-0.6l-1.1,0.4c-1-0.6-1.9-1-1.9-1s0.1-2,0.1-2.9
		C-156.2,230.9-155.9,230.4-155.3,230.2z M-154.7,233.4c0,0.2,0.2,0.4,0.5,0.5c0.3,0.1,0.5,0,0.5-0.2s-0.2-0.4-0.5-0.5
		C-154.4,233.1-154.7,233.2-154.7,233.4z"/>
	<path class="st4" d="M-158.1,251.7c-0.9-3.6-4.6-12.7-4.6-12.7s-9.5,2.3-13.4,3.6c-7.5,2.6-11.2,11.2-8.2,18.1
		c2.7,6.2,10.4,9.5,16.9,7.3C-160.7,265.8-156.4,258.3-158.1,251.7z"/>
	<path class="st5" d="M-175.8,241.9c3.2-2.2,10.7-6.6,10.7-6.6s-6-5.8-8-7.5c-3.4-2.7-9.7-2.6-14.2,0.5c-4.6,3.2-6.7,9-4.8,12.8
		C-189.7,245.9-182.5,246.5-175.8,241.9z"/>
	<path class="st6" d="M-172.5,227.7c2.7,1.2,10,5.4,10,5.4s3.1-4.1,4-5.3c1.5-1.9-0.6-5.3-4.7-7.2c-3.8-1.6-8.8-1.5-11.4,0
		C-177.8,222.5-177.2,225.6-172.5,227.7z"/>
	<path class="st7" d="M-150.2,240.6c-2-0.5-8.5-1.6-8.5-1.6s1.2,9.4,1.1,13.1c0,7.1,3.2,11.4,7.3,10.1c3.3-1,6.1-5.8,6.2-10.8
		C-144,246.3-146.9,241.4-150.2,240.6z"/>
	<path class="st0" d="M-161.6,249.1c1.2,3.7-1,8-4.5,9.4c-3.8,1.5-8.1-0.4-9.6-4.3c-1.5-4.2,0.8-8.8,4.9-10c1.9-0.6,6.8-1.9,6.8-1.9
		S-162.1,247.2-161.6,249.1z"/>
	<path class="st0" d="M-174.5,237.5c-3.2,2-7.5,1.8-9.2-0.5c-0.6-0.8-0.8-1.7-0.7-2.7l-3.8,0.9c0-0.5,0.3-1,0.8-1.3l3.2-0.2
		c0.4-1.3,1.3-2.5,2.8-3.4c2.6-1.6,6.3-1.5,8.2,0.2c1,0.9,4.1,3.9,4.1,3.9S-172.9,236.6-174.5,237.5z M-174.6,233.6
		c-1.6-0.4-3.5-0.4-5.9,0c-0.5,0.4-0.2,0.4-0.2,0.9c2.2-0.6,4.7-0.7,6.7-0.3L-174.6,233.6z"/>
	<path class="st0" d="M-161.2,225.9c0.7,0.4,1.2,0.9,1.2,1.4c-0.1,0.8-1.2,1.3-2.6,1.1c-0.6-0.1-1.2-0.3-1.6-0.6
		c-0.8,0.5-2,0.7-3.5,0.5c-2.2-0.3-3.9-1.5-3.8-2.6c0.1-0.6,0.6-1.1,1.5-1.3c-0.1-0.2-0.1-0.3-0.1-0.5c0.1-1,2.3-1.6,4.8-1.2
		s4.6,1.5,4.5,2.5C-160.9,225.5-161,225.7-161.2,225.9z"/>
	<path class="st0" d="M-156.2,244.2l0.4-0.5l0.7,0.8l-0.4,0.5L-156.2,244.2z M-154.7,252.6l-0.7,0.8l-0.4-0.5l0.7-0.8L-154.7,252.6z
		 M-147.4,244.6l-0.7,0.8l-0.4-0.5l0.7-0.8L-147.4,244.6z M-155.9,249h-1v-0.7h1V249z M-146.2,249.2h-1v-0.7h1V249.2z M-152,254.7
		h0.6v1.1h-0.6V254.7z M-152,241.4h0.6v1.1h-0.6V241.4z M-155.5,247.9c0-3.2,1.8-5.4,4-5c2.1,0.4,3.8,3.2,3.8,6.3s-1.7,5.4-3.9,5.1
		C-153.7,254-155.5,251.1-155.5,247.9z M-148.3,253.1l0.4-0.5l0.7,0.8l-0.4,0.5L-148.3,253.1z"/>
</g>
<g>
	<path class="st8" d="M-194.8,287.6v-8.8h6v1.1h-4.8v2.6h4.5v1h-4.5v3h4.8v1C-188.8,287.6-194.8,287.6-194.8,287.6z"/>
	<path class="st8" d="M-182.7,287.6v-1c-0.2,0.4-0.5,0.6-0.9,0.9s-0.8,0.2-1.1,0.2c-0.5,0-0.9-0.1-1.2-0.2c-0.4-0.2-0.6-0.5-0.9-0.8
		c-0.2-0.4-0.4-0.6-0.5-1s-0.1-0.8-0.1-1.1s0-0.8,0.1-1.2c0.1-0.4,0.2-0.8,0.5-1s0.5-0.5,0.9-0.8c0.4-0.2,0.8-0.2,1.2-0.2
		c0.9,0,1.5,0.4,2,1.1v-3.4h1.1v8.8h-1.1V287.6z M-182.7,284.3c0-0.4,0-0.6-0.1-0.9s-0.2-0.5-0.4-0.8s-0.4-0.4-0.6-0.5
		s-0.5-0.1-0.8-0.1s-0.6,0-0.7,0.1c-0.2,0.1-0.4,0.2-0.6,0.5c-0.1,0.2-0.2,0.5-0.4,0.8c0,0.2,0,0.6,0,0.9c0,0.4,0,0.6,0.1,0.9
		s0.2,0.5,0.4,0.8s0.4,0.4,0.6,0.5s0.5,0.1,0.8,0.1s0.5,0,0.8-0.1s0.4-0.2,0.6-0.5c0.1-0.2,0.2-0.5,0.4-0.8
		C-182.7,285.1-182.7,284.7-182.7,284.3z"/>
	<path class="st8" d="M-175.2,287.6v-1.1c-0.2,0.4-0.5,0.6-0.9,0.9s-0.9,0.4-1.2,0.4c-0.8,0-1.2-0.2-1.6-0.6s-0.5-1-0.5-1.8v-4.1
		h1.1v4c0,0.5,0.1,0.9,0.4,1.1s0.5,0.4,1,0.4c0.2,0,0.5,0,0.6-0.1c0.2-0.1,0.4-0.2,0.6-0.4c0.1-0.1,0.4-0.4,0.4-0.6s0.1-0.5,0.1-0.9
		v-3.5h1.1v6.4H-175.2z"/>
	<path class="st8" d="M-168.3,287.6c-0.2,0-0.6,0-0.9,0c-0.5,0-1-0.1-1.4-0.2s-0.8-0.4-1.1-0.8c-0.2-0.2-0.5-0.6-0.6-1
		s-0.2-0.9-0.2-1.2s0.1-0.9,0.2-1.2s0.4-0.8,0.6-1s0.6-0.5,1.1-0.8c0.4-0.1,0.9-0.2,1.4-0.2c0.2,0,0.5,0,0.8,0s0.5,0.1,0.9,0.2
		l-0.2,0.9c-0.2,0-0.5-0.1-0.6-0.1c-0.2,0-0.5,0-0.6,0c-0.4,0-0.8,0-1,0.1s-0.5,0.2-0.8,0.5s-0.4,0.5-0.5,0.8c0,0.2,0,0.6,0,1
		c0,0.8,0.2,1.2,0.6,1.8s1,0.6,1.8,0.6c0.2,0,0.4,0,0.6,0s0.4-0.1,0.8-0.1l0.2,0.9C-167.7,287.6-168.1,287.6-168.3,287.6z"/>
	<path class="st8" d="M-162.2,287.6v-0.8c-0.2,0.2-0.5,0.5-0.8,0.6s-0.8,0.2-1.2,0.2c-0.6,0-1.1-0.1-1.6-0.5s-0.5-0.8-0.5-1.4
		s0.1-1,0.5-1.4s0.9-0.5,1.5-0.5h2v-0.6c0-0.4-0.1-0.8-0.4-1s-0.8-0.4-1.4-0.4c-0.2,0-0.6,0-1,0s-0.6,0.1-1,0.1l-0.1-0.9
		c0.4-0.1,0.6-0.1,1-0.1c0.4,0,0.8,0,1.1,0c0.9,0,1.6,0.2,2.1,0.6s0.8,0.9,0.8,1.6v4.2H-162.2z M-162.2,284.8h-1.8
		c-0.4,0-0.8,0.1-0.9,0.2c-0.2,0.1-0.2,0.4-0.2,0.8s0.1,0.6,0.2,0.8c0.2,0.1,0.5,0.2,0.9,0.2c0.5,0,1-0.1,1.2-0.4
		c0.2-0.3,0.5-0.6,0.5-1.1V284.8z"/>
	<path class="st8" d="M-154.8,289.7c0,0.4-0.1,0.8-0.5,1c-0.2,0.2-0.8,0.4-1.2,0.4c-0.1,0-0.4,0-0.6,0s-0.4-0.1-0.6-0.1l0.1-0.5
		c0.1,0,0.2,0.1,0.5,0.1c0.1,0,0.4,0,0.5,0c0.2,0,0.5-0.1,0.8-0.2c0.1-0.1,0.2-0.4,0.2-0.6c0-0.2-0.1-0.4-0.2-0.5
		c-0.1-0.1-0.4-0.1-0.6-0.1c-0.1,0-0.2,0-0.4,0s-0.2,0-0.5,0l0.4-1.5c-0.4-0.1-0.8-0.2-1.1-0.4c-0.4-0.2-0.6-0.4-0.9-0.8
		c-0.2-0.4-0.4-0.6-0.5-1c-0.1-0.4-0.3-0.8-0.3-1.1c0-0.5,0.1-0.9,0.3-1.2c0.1-0.4,0.4-0.7,0.6-1c0.2-0.2,0.6-0.5,1.1-0.8
		c0.4-0.1,0.9-0.2,1.4-0.2c0.2,0,0.5,0,0.7,0c0.2,0,0.5,0.1,0.9,0.2l-0.2,0.9c-0.2,0-0.5-0.1-0.6-0.1c-0.2,0-0.5,0-0.6,0
		c-0.4,0-0.7,0-1,0.1c-0.2,0.1-0.5,0.2-0.7,0.5c-0.2,0.2-0.4,0.5-0.5,0.8c-0.1,0.2-0.1,0.6-0.1,1c0,0.8,0.2,1.2,0.6,1.8
		c0.4,0.5,1,0.6,1.8,0.6c0.2,0,0.4,0,0.6,0s0.4-0.1,0.8-0.1l0.2,0.9c-0.2,0.1-0.5,0.1-0.9,0.1c-0.2,0-0.6,0-0.9,0h-0.1l-0.2,0.9
		c0.1,0,0.1,0,0.2,0c0.1,0,0.1,0,0.1,0c0.4,0,0.7,0.1,1,0.4C-155.2,289.2-154.8,289.3-154.8,289.7z"/>
	<path class="st8" d="M-149.4,287.6v-0.8c-0.2,0.2-0.5,0.5-0.8,0.6s-0.8,0.2-1.2,0.2c-0.6,0-1.1-0.1-1.6-0.5s-0.6-0.8-0.6-1.4
		s0.1-1,0.5-1.4s0.9-0.5,1.5-0.5h2v-0.6c0-0.4-0.1-0.8-0.4-1s-0.8-0.4-1.4-0.4c-0.2,0-0.6,0-1,0c-0.4,0-0.6,0.1-1,0.1l-0.1-0.9
		c0.6,0,1,0,1.4,0s0.8,0,1.1,0c0.9,0,1.6,0.2,2.1,0.6s0.8,0.9,0.8,1.6v4.2h-1.2V287.6z M-149.1,279.6c-0.1,0.1-0.1,0.2-0.2,0.4
		s-0.2,0.2-0.4,0.2c-0.1,0.1-0.2,0.1-0.4,0.1s-0.2,0-0.4-0.1c-0.1,0-0.2-0.1-0.4-0.2s-0.2-0.1-0.4-0.2c-0.1,0-0.2-0.1-0.4-0.1
		s-0.1,0-0.2,0s-0.1,0.1-0.1,0.1c0,0.1-0.1,0.1-0.1,0.2s0,0.1-0.1,0.2l-0.5-0.2c0-0.1,0.1-0.2,0.1-0.4c0.1-0.1,0.1-0.2,0.2-0.4
		s0.2-0.2,0.4-0.2c0.1-0.1,0.2-0.1,0.4-0.1s0.2,0,0.5,0.1s0.2,0.1,0.4,0.2s0.2,0.1,0.4,0.2c0.1,0,0.2,0.1,0.4,0.1s0.1,0,0.2,0
		l0.1-0.1c0-0.1,0.1-0.1,0.1-0.2s0-0.1,0.1-0.2l0.5,0.2C-148.9,279.3-149.1,279.5-149.1,279.6z M-149.4,284.8h-1.9
		c-0.4,0-0.8,0.1-0.9,0.2c-0.2,0.1-0.2,0.4-0.2,0.8s0.1,0.6,0.2,0.8c0.2,0.1,0.5,0.2,0.9,0.2c0.5,0,1-0.1,1.2-0.4
		c0.2-0.3,0.5-0.6,0.5-1.1v-0.5H-149.4z"/>
	<path class="st8" d="M-140.8,284.5c0,0.5-0.1,0.9-0.2,1.2c-0.1,0.4-0.4,0.8-0.6,1c-0.2,0.2-0.6,0.5-1,0.8c-0.4,0.1-0.8,0.2-1.2,0.2
		s-0.9-0.1-1.2-0.2s-0.8-0.4-1-0.8c-0.2-0.2-0.5-0.6-0.6-1s-0.2-0.9-0.2-1.2c0-0.5,0.1-0.9,0.2-1.2s0.4-0.8,0.6-1s0.6-0.5,1-0.8
		c0.4-0.1,0.8-0.2,1.2-0.2s0.9,0.1,1.2,0.2s0.8,0.4,1,0.8c0.2,0.2,0.5,0.6,0.6,1C-140.8,283.6-140.8,284-140.8,284.5z M-141.9,284.5
		c0-0.4,0-0.6-0.1-1s-0.2-0.5-0.4-0.8s-0.4-0.4-0.6-0.5s-0.5-0.1-0.8-0.1s-0.6,0-0.8,0.1c-0.2,0.1-0.5,0.2-0.6,0.5s-0.2,0.5-0.4,0.8
		s-0.1,0.6-0.1,1s0,0.6,0.1,1c0.1,0.2,0.2,0.5,0.4,0.8s0.4,0.4,0.6,0.5s0.5,0.1,0.8,0.1s0.6,0,0.8-0.1c0.2-0.1,0.5-0.2,0.6-0.5
		s0.2-0.5,0.4-0.8C-141.9,285.1-141.9,284.7-141.9,284.5z"/>
	<path class="st8" d="M-192.8,303.3l-0.9-2.2h-3.9l-0.9,2.2h-1.2l3.5-8.8h1.1l3.5,8.8H-192.8z M-195.6,295.8l-1.6,4.2h3.2
		L-195.6,295.8z"/>
	<path class="st8" d="M-181.8,303.3v-4c0-0.5-0.1-0.9-0.2-1.1c-0.2-0.2-0.5-0.4-1-0.4c-0.2,0-0.5,0-0.6,0.1s-0.4,0.2-0.6,0.4
		c-0.1,0.1-0.2,0.4-0.4,0.6s-0.1,0.5-0.1,0.9v3.4h-1.1v-4c0-0.5-0.1-0.9-0.2-1.1c-0.2-0.2-0.5-0.4-1-0.4c-0.2,0-0.5,0-0.6,0.1
		c-0.2,0.1-0.4,0.2-0.6,0.4c-0.1,0.1-0.2,0.4-0.4,0.6s-0.1,0.5-0.1,0.9v3.4h-1.1v-6.4h1.1v1.1c0.2-0.4,0.5-0.6,0.9-0.9
		s0.8-0.4,1.2-0.4s0.9,0.1,1.2,0.4s0.5,0.5,0.8,0.9c0.2-0.4,0.5-0.6,1-0.9s0.9-0.4,1.4-0.4c0.7,0,1.2,0.2,1.6,0.6
		c0.4,0.4,0.5,1,0.5,1.8v4.1h-1.5V303.3z"/>
	<path class="st8" d="M-172.7,300.1c0,0.4,0,0.8-0.1,1.1s-0.2,0.8-0.5,1c-0.2,0.4-0.5,0.6-0.9,0.8c-0.4,0.2-0.8,0.2-1.2,0.2
		s-0.9-0.1-1.1-0.2s-0.6-0.5-0.9-0.9v1h-1.1v-8.8h1v3.4c0.5-0.8,1.1-1.1,2-1.1c0.5,0,0.9,0.1,1.2,0.2c0.4,0.2,0.6,0.5,0.9,0.8
		s0.4,0.6,0.5,1C-172.8,299.3-172.7,299.7-172.7,300.1z M-173.8,300.1c0-0.4,0-0.6-0.1-0.9s-0.2-0.5-0.4-0.8s-0.4-0.4-0.6-0.5
		s-0.5-0.1-0.8-0.1c-0.2,0-0.6,0-0.8,0.1c-0.2,0.1-0.4,0.2-0.6,0.5c-0.1,0.2-0.2,0.5-0.4,0.8c-0.1,0.2-0.1,0.6-0.1,0.9
		c0,0.4,0,0.6,0.1,0.9c0.1,0.2,0.2,0.5,0.4,0.8c0.1,0.2,0.4,0.4,0.6,0.5c0.1,0.2,0.5,0.2,0.8,0.2s0.6,0,0.8-0.1
		c0.2-0.1,0.4-0.2,0.6-0.5c0.1-0.2,0.2-0.5,0.4-0.8C-173.9,300.7-173.8,300.5-173.8,300.1z"/>
	<path class="st8" d="M-171.1,295.8v-1.4h1.1v1.4H-171.1z M-171.1,303.3V297h1.1v6.4H-171.1z"/>
	<path class="st8" d="M-167.2,300.5c0,0.6,0.2,1.1,0.6,1.5s0.9,0.5,1.6,0.5c0.2,0,0.6,0,1-0.1c0.4,0,0.6-0.1,0.9-0.1l0.2,0.9
		c-0.4,0.1-0.8,0.2-1.1,0.2s-0.8,0.1-1,0.1c-0.5,0-1-0.1-1.5-0.2c-0.4-0.1-0.8-0.4-1.1-0.6c-0.4-0.2-0.5-0.6-0.6-1s-0.2-0.9-0.2-1.4
		s0.1-0.9,0.2-1.2s0.4-0.8,0.6-1s0.6-0.5,1-0.8c0.4-0.1,0.8-0.2,1.2-0.2s0.9,0.1,1.2,0.2s0.6,0.4,0.9,0.8c0.2,0.2,0.4,0.6,0.6,1
		c0.1,0.4,0.2,0.9,0.2,1.2v0.4h-4.9V300.5z M-163.6,299.6c0-0.6-0.2-1-0.5-1.4s-0.8-0.5-1.2-0.5s-1,0.1-1.2,0.5s-0.5,0.8-0.6,1.4
		H-163.6z"/>
	<path class="st8" d="M-156.4,303.3v-4c0-0.5-0.1-0.9-0.4-1.1s-0.5-0.4-1-0.4c-0.2,0-0.5,0-0.6,0.1c-0.2,0.1-0.4,0.2-0.6,0.4
		c-0.1,0.1-0.4,0.4-0.4,0.6s-0.1,0.5-0.1,0.9v3.4h-1.1v-6.4h1.1v1.1c0.3-0.4,0.5-0.6,0.9-0.9c0.4-0.2,0.9-0.4,1.2-0.4
		c0.7,0,1.2,0.2,1.6,0.6c0.4,0.4,0.5,1,0.5,1.8v4.1h-1.1V303.3z"/>
	<path class="st8" d="M-150.9,303.3c-0.1,0-0.2,0-0.4,0c-0.5,0-1-0.1-1.2-0.4c-0.4-0.2-0.5-0.8-0.5-1.5v-3.8h-0.9v-0.9h0.9v-1.8h1.1
		v1.8h1.2v0.9h-1.2v3.8c0,0.4,0.1,0.6,0.2,0.8s0.2,0.2,0.5,0.2c0.1,0,0.1,0,0.2,0s0.2,0,0.4,0l0.1,0.9
		C-150.6,303.3-150.7,303.3-150.9,303.3z"/>
	<path class="st8" d="M-145.3,303.3v-0.8c-0.2,0.2-0.5,0.5-0.8,0.6c-0.2,0.1-0.7,0.2-1.2,0.2c-0.6,0-1.1-0.1-1.6-0.5
		c-0.5-0.4-0.6-0.8-0.6-1.4s0.1-1,0.5-1.4c0.4-0.4,0.9-0.5,1.5-0.5h2v-0.6c0-0.4-0.1-0.8-0.4-1c-0.2-0.2-0.8-0.4-1.4-0.4
		c-0.2,0-0.6,0-1,0c-0.4,0-0.6,0.1-1,0.1l-0.1-0.9c0.4-0.1,0.6-0.1,1-0.1s0.7,0,1.1,0c0.9,0,1.6,0.2,2.1,0.6
		c0.5,0.4,0.8,0.9,0.8,1.6v4.2H-145.3z M-145.3,300.6h-1.8c-0.4,0-0.8,0.1-0.9,0.2c-0.2,0.1-0.2,0.4-0.2,0.8s0.1,0.6,0.2,0.8
		c0.2,0.1,0.5,0.2,0.9,0.2c0.5,0,1-0.1,1.2-0.4c0.2-0.3,0.5-0.6,0.5-1.1V300.6z"/>
	<path class="st8" d="M-140.6,303.3c-0.2,0-0.5,0-0.8-0.1s-0.4-0.1-0.6-0.4c-0.1-0.1-0.2-0.4-0.4-0.6s-0.1-0.5-0.1-0.9v-6.9h1.1v6.9
		c0,0.4,0.1,0.6,0.2,0.8s0.4,0.2,0.6,0.2h0.6v0.9h-0.8V303.3z"/>
</g>
</svg>
