<!-- Generator: Adobe Illustrator 18.0.0, SVG Export Plug-In  -->
<svg version="1.1"
	 xmlns="http://www.w3.org/2000/svg" xmlns:xlink="http://www.w3.org/1999/xlink" xmlns:a="http://ns.adobe.com/AdobeSVGViewerExtensions/3.0/"
	 x="0px" y="0px" width="78.4px" height="87.8px" viewBox="0 0 78.4 87.8" enable-background="new 0 0 78.4 87.8"
	 xml:space="preserve">
<defs>
</defs>
<g>
	<g>
		<path fill="#FFFFFF" d="M16.8,5.7c0-3,2.5-5.5,5.5-5.5h50.4c3,0,5.5,2.5,5.5,5.5v50.4c0,3-2.5,5.5-5.5,5.5H22.3
			c-3,0-5.5-2.5-5.5-5.5V5.7z"/>
		<g>
			<defs>
				<path id="SVGID_1_" d="M16.8,5.7c0-3,2.5-5.5,5.5-5.5h50.4c3,0,5.5,2.5,5.5,5.5v50.4c0,3-2.5,5.5-5.5,5.5H22.3
					c-3,0-5.5-2.5-5.5-5.5V5.7z"/>
			</defs>
			<clipPath id="SVGID_2_">
				<use xlink:href="#SVGID_1_"  overflow="visible"/>
			</clipPath>
			<path clip-path="url(#SVGID_2_)" fill-rule="evenodd" clip-rule="evenodd" fill="#DCE6EA" d="M70.6,44.2L58.7,68.1H0l23.6-46h1.1
				c8.7,0,12.2-8.1,20.9-8.1h4.2c5,0,8.6,0.9,11.9,4.7C65,22.3,68.8,40.1,70.6,44.2z"/>
		</g>
		<path fill="none" stroke="#007DA0" stroke-width="0.3088" stroke-miterlimit="3.8637" d="M16.8,5.7c0-3,2.5-5.5,5.5-5.5h50.4
			c3,0,5.5,2.5,5.5,5.5v50.4c0,3-2.5,5.5-5.5,5.5H22.3c-3,0-5.5-2.5-5.5-5.5V5.7z"/>
		<path fill="#D10F17" d="M57.8,15.1c-0.1,1.6-0.6,7.1-0.6,7.1s6.8,3.6,8.8,5c3.4,2.3,5.5,0.6,5.2-3.2c-0.3-3.3-2.9-7.5-6.2-9.6
			C61.5,12.1,58,12.4,57.8,15.1z"/>
		<path fill="#FFFFFF" d="M60.7,17c0.2-0.8,0.3-0.9,1-1.3c0.1,0.7,0.5,1.2,1.1,1.5l-0.1,0c0.3,0.1,0.6,0.3,0.9,0.5
			c0.6,0.4,1.2,0.8,1.7,1.3c0.4-0.2,1.2-0.6,1.6-0.8l1.7,2.1l-2.1,0.2c0.3,0.5,0.5,1,0.6,1.6l2,0.3c-0.3,0.4-1.1,1.4-1.7,1.3
			c0-0.1-0.1-0.1-0.3-0.2c-0.3,1.2-1.6,1.4-3.2,0.4c-0.4-0.3-1.3-0.8-2.1-1.2l0.7-0.6l-1.1,0.4c-1-0.6-1.9-1-1.9-1s0.1-2,0.1-2.9
			C59.8,17.7,60.1,17.2,60.7,17z M61.3,20.2c0,0.2,0.2,0.4,0.5,0.5c0.3,0.1,0.5,0,0.5-0.2c0-0.2-0.2-0.4-0.5-0.5
			C61.6,19.9,61.3,20,61.3,20.2z"/>
		<path fill="#0094C2" d="M57.9,38.5c-0.9-3.6-4.6-12.7-4.6-12.7s-9.5,2.3-13.4,3.6c-7.5,2.6-11.2,11.2-8.2,18.1
			c2.7,6.2,10.4,9.5,16.9,7.3C55.3,52.6,59.6,45.1,57.9,38.5z"/>
		<path fill="#90B71D" d="M40.2,28.7c3.2-2.2,10.7-6.6,10.7-6.6s-6-5.8-8-7.5c-3.4-2.7-9.7-2.6-14.2,0.5c-4.6,3.2-6.7,9-4.8,12.8
			C26.3,32.7,33.5,33.3,40.2,28.7z"/>
		<path fill="#FFB700" d="M43.5,14.5c2.7,1.2,10,5.4,10,5.4s3.1-4.1,4-5.3c1.5-1.9-0.6-5.3-4.7-7.2C49,5.8,44,5.9,41.4,7.4
			C38.2,9.3,38.8,12.4,43.5,14.5z"/>
		<path fill="#F04D12" d="M65.8,27.4c-2-0.5-8.5-1.6-8.5-1.6s1.2,9.4,1.1,13.1c0,7.1,3.2,11.4,7.3,10.1c3.3-1,6.1-5.8,6.2-10.8
			C72,33.1,69.1,28.2,65.8,27.4z"/>
		<path fill="#FFFFFF" d="M54.4,35.9c1.2,3.7-1,8-4.5,9.4c-3.8,1.5-8.1-0.4-9.6-4.3c-1.5-4.2,0.8-8.8,4.9-10
			c1.9-0.6,6.8-1.9,6.8-1.9S53.9,34,54.4,35.9z"/>
		<path fill="#FFFFFF" d="M41.5,24.3c-3.2,2-7.5,1.8-9.2-0.5c-0.6-0.8-0.8-1.7-0.7-2.7L27.8,22c0-0.5,0.3-1,0.8-1.3l3.2-0.2
			c0.4-1.3,1.3-2.5,2.8-3.4c2.6-1.6,6.3-1.5,8.2,0.2c1,0.9,4.1,3.9,4.1,3.9S43.1,23.4,41.5,24.3z M41.4,20.4c-1.6-0.4-3.5-0.4-5.9,0
			c-0.5,0.4-0.2,0.4-0.2,0.9c2.2-0.6,4.7-0.7,6.7-0.3L41.4,20.4z"/>
		<path fill="#FFFFFF" d="M54.8,12.7c0.7,0.4,1.2,0.9,1.2,1.4c-0.1,0.8-1.2,1.3-2.6,1.1c-0.6-0.1-1.2-0.3-1.6-0.6
			c-0.8,0.5-2,0.7-3.5,0.5c-2.2-0.3-3.9-1.5-3.8-2.6c0.1-0.6,0.6-1.1,1.5-1.3c-0.1-0.2-0.1-0.3-0.1-0.5c0.1-1,2.3-1.6,4.8-1.2
			c2.5,0.4,4.6,1.5,4.5,2.5C55.1,12.3,55,12.5,54.8,12.7z"/>
		<path fill="#FFFFFF" d="M59.8,31l0.4-0.5l0.7,0.8l-0.4,0.5L59.8,31z M61.3,39.4l-0.7,0.8l-0.4-0.5l0.7-0.8L61.3,39.4z M68.6,31.4
			l-0.7,0.8l-0.4-0.5l0.7-0.8L68.6,31.4z M60.1,35.8l-1,0l0-0.7l1,0V35.8z M69.8,36l-1,0l0-0.7l1,0L69.8,36z M64,41.5l0.6,0l0,1.1
			l-0.6,0V41.5z M64,28.2l0.6,0l0,1.1l-0.6,0V28.2z M60.5,34.7c0-3.2,1.8-5.4,4-5c2.1,0.4,3.8,3.2,3.8,6.3c0,3.1-1.7,5.4-3.9,5.1
			C62.3,40.8,60.5,37.9,60.5,34.7z M67.7,39.9l0.4-0.5l0.7,0.8l-0.4,0.5L67.7,39.9z"/>
	</g>
	<g>
		<path fill="#504D4C" d="M26.2,75.1v-7H31V69h-3.8v2.1h3.6v0.8h-3.6v2.4H31v0.8H26.2z"/>
		<path fill="#504D4C" d="M35.9,75.1v-0.8c-0.2,0.3-0.4,0.5-0.7,0.7c-0.3,0.2-0.6,0.2-0.9,0.2c-0.4,0-0.7-0.1-1-0.2
			c-0.3-0.2-0.5-0.4-0.7-0.6c-0.2-0.3-0.3-0.5-0.4-0.8c-0.1-0.3-0.1-0.6-0.1-0.9c0-0.3,0-0.6,0.1-1c0.1-0.3,0.2-0.6,0.4-0.8
			c0.2-0.2,0.4-0.4,0.7-0.6c0.3-0.2,0.6-0.2,1-0.2c0.7,0,1.2,0.3,1.6,0.9v-2.7h0.9v7H35.9z M35.9,72.5c0-0.3,0-0.5-0.1-0.7
			c-0.1-0.2-0.2-0.4-0.3-0.6c-0.1-0.2-0.3-0.3-0.5-0.4c-0.2-0.1-0.4-0.1-0.6-0.1c-0.2,0-0.5,0-0.6,0.1c-0.2,0.1-0.3,0.2-0.5,0.4
			c-0.1,0.2-0.2,0.4-0.3,0.6C33,72,33,72.3,33,72.5c0,0.3,0,0.5,0.1,0.7c0.1,0.2,0.2,0.4,0.3,0.6c0.1,0.2,0.3,0.3,0.5,0.4
			c0.2,0.1,0.4,0.1,0.6,0.1c0.2,0,0.4,0,0.6-0.1c0.2-0.1,0.3-0.2,0.5-0.4c0.1-0.2,0.2-0.4,0.3-0.6C35.9,73.1,35.9,72.8,35.9,72.5z"
			/>
		<path fill="#504D4C" d="M41.9,75.1v-0.9c-0.2,0.3-0.4,0.5-0.7,0.7c-0.3,0.2-0.7,0.3-1,0.3c-0.6,0-1-0.2-1.3-0.5
			c-0.3-0.3-0.4-0.8-0.4-1.4V70h0.9v3.2c0,0.4,0.1,0.7,0.3,0.9s0.4,0.3,0.8,0.3c0.2,0,0.4,0,0.5-0.1c0.2-0.1,0.3-0.2,0.5-0.3
			c0.1-0.1,0.3-0.3,0.3-0.5s0.1-0.4,0.1-0.7V70h0.9v5.1H41.9z"/>
		<path fill="#504D4C" d="M47.4,75.1c-0.2,0-0.5,0-0.7,0c-0.4,0-0.8-0.1-1.1-0.2c-0.3-0.1-0.6-0.3-0.9-0.6c-0.2-0.2-0.4-0.5-0.5-0.8
			c-0.1-0.3-0.2-0.7-0.2-1s0.1-0.7,0.2-1c0.1-0.3,0.3-0.6,0.5-0.8c0.2-0.2,0.5-0.4,0.9-0.6c0.3-0.1,0.7-0.2,1.1-0.2
			c0.2,0,0.4,0,0.6,0c0.2,0,0.4,0.1,0.7,0.2l-0.2,0.7c-0.2,0-0.4-0.1-0.5-0.1c-0.2,0-0.4,0-0.5,0c-0.3,0-0.6,0-0.8,0.1
			c-0.2,0.1-0.4,0.2-0.6,0.4c-0.2,0.2-0.3,0.4-0.4,0.6C45,72,45,72.3,45,72.6c0,0.6,0.2,1,0.5,1.4s0.8,0.5,1.4,0.5
			c0.2,0,0.3,0,0.5,0s0.3-0.1,0.6-0.1l0.2,0.7C47.9,75.1,47.6,75.1,47.4,75.1z"/>
		<path fill="#504D4C" d="M52.3,75.1v-0.6c-0.2,0.2-0.4,0.4-0.6,0.5s-0.6,0.2-1,0.2c-0.5,0-0.9-0.1-1.3-0.4S49,74.2,49,73.7
			c0-0.5,0.1-0.8,0.4-1.1c0.3-0.3,0.7-0.4,1.2-0.4h1.6v-0.5c0-0.3-0.1-0.6-0.3-0.8s-0.6-0.3-1.1-0.3c-0.2,0-0.5,0-0.8,0
			c-0.3,0-0.5,0.1-0.8,0.1l-0.1-0.7c0.3-0.1,0.5-0.1,0.8-0.1s0.6,0,0.9,0c0.7,0,1.3,0.2,1.7,0.5s0.6,0.7,0.6,1.3v3.4H52.3z
			 M52.3,72.9h-1.4c-0.3,0-0.6,0.1-0.7,0.2c-0.2,0.1-0.2,0.3-0.2,0.6c0,0.3,0.1,0.5,0.2,0.6c0.2,0.1,0.4,0.2,0.7,0.2
			c0.4,0,0.8-0.1,1-0.3s0.4-0.5,0.4-0.9V72.9z"/>
		<path fill="#504D4C" d="M58.2,76.8c0,0.3-0.1,0.6-0.4,0.8c-0.2,0.2-0.6,0.3-1,0.3c-0.1,0-0.3,0-0.5,0c-0.2,0-0.3-0.1-0.5-0.1
			l0.1-0.4c0.1,0,0.2,0.1,0.4,0.1c0.1,0,0.3,0,0.4,0c0.2,0,0.4-0.1,0.6-0.2c0.1-0.1,0.2-0.3,0.2-0.5s-0.1-0.3-0.2-0.4
			s-0.3-0.1-0.5-0.1c-0.1,0-0.2,0-0.3,0c-0.1,0-0.2,0-0.4,0l0.3-1.2c-0.3-0.1-0.6-0.2-0.9-0.3c-0.3-0.2-0.5-0.3-0.7-0.6
			s-0.3-0.5-0.4-0.8c-0.1-0.3-0.2-0.6-0.2-0.9c0-0.4,0.1-0.7,0.2-1c0.1-0.3,0.3-0.6,0.5-0.8c0.2-0.2,0.5-0.4,0.9-0.6
			c0.3-0.1,0.7-0.2,1.1-0.2c0.2,0,0.4,0,0.6,0c0.2,0,0.4,0.1,0.7,0.2l-0.2,0.7c-0.2,0-0.4-0.1-0.5-0.1c-0.2,0-0.4,0-0.5,0
			c-0.3,0-0.6,0-0.8,0.1c-0.2,0.1-0.4,0.2-0.6,0.4c-0.2,0.2-0.3,0.4-0.4,0.6c-0.1,0.2-0.1,0.5-0.1,0.8c0,0.6,0.2,1,0.5,1.4
			s0.8,0.5,1.4,0.5c0.2,0,0.3,0,0.5,0s0.3-0.1,0.6-0.1l0.2,0.7c-0.2,0.1-0.4,0.1-0.7,0.1c-0.2,0-0.5,0-0.7,0h-0.1l-0.2,0.7
			c0.1,0,0.1,0,0.2,0s0.1,0,0.1,0c0.3,0,0.6,0.1,0.8,0.3S58.2,76.5,58.2,76.8z"/>
		<path fill="#504D4C" d="M62.5,75.1v-0.6c-0.2,0.2-0.4,0.4-0.6,0.5s-0.6,0.2-1,0.2c-0.5,0-0.9-0.1-1.3-0.4s-0.5-0.6-0.5-1.1
			c0-0.5,0.1-0.8,0.4-1.1c0.3-0.3,0.7-0.4,1.2-0.4h1.6v-0.5c0-0.3-0.1-0.6-0.3-0.8s-0.6-0.3-1.1-0.3c-0.2,0-0.5,0-0.8,0
			c-0.3,0-0.5,0.1-0.8,0.1l-0.1-0.7C59.7,70,60,70,60.3,70s0.6,0,0.9,0c0.7,0,1.3,0.2,1.7,0.5s0.6,0.7,0.6,1.3v3.4H62.5z M62.8,68.7
			c-0.1,0.1-0.1,0.2-0.2,0.3c-0.1,0.1-0.2,0.2-0.3,0.2c-0.1,0.1-0.2,0.1-0.3,0.1c-0.1,0-0.2,0-0.3-0.1c-0.1,0-0.2-0.1-0.3-0.2
			c-0.1-0.1-0.2-0.1-0.3-0.2c-0.1,0-0.2-0.1-0.3-0.1c-0.1,0-0.1,0-0.2,0s-0.1,0.1-0.1,0.1c0,0.1-0.1,0.1-0.1,0.2
			c0,0.1,0,0.1-0.1,0.2l-0.4-0.2c0-0.1,0.1-0.2,0.1-0.3c0.1-0.1,0.1-0.2,0.2-0.3c0.1-0.1,0.2-0.2,0.3-0.2c0.1-0.1,0.2-0.1,0.3-0.1
			s0.2,0,0.4,0.1s0.2,0.1,0.3,0.2s0.2,0.1,0.3,0.2c0.1,0,0.2,0.1,0.3,0.1c0.1,0,0.1,0,0.2,0c0,0,0.1-0.1,0.1-0.1
			c0-0.1,0.1-0.1,0.1-0.2c0-0.1,0-0.1,0.1-0.2l0.4,0.2C62.9,68.5,62.8,68.6,62.8,68.7z M62.5,72.9H61c-0.3,0-0.6,0.1-0.7,0.2
			c-0.2,0.1-0.2,0.3-0.2,0.6c0,0.3,0.1,0.5,0.2,0.6c0.2,0.1,0.4,0.2,0.7,0.2c0.4,0,0.8-0.1,1-0.3s0.4-0.5,0.4-0.9V72.9z"/>
		<path fill="#504D4C" d="M69.4,72.6c0,0.4-0.1,0.7-0.2,1c-0.1,0.3-0.3,0.6-0.5,0.8c-0.2,0.2-0.5,0.4-0.8,0.6
			c-0.3,0.1-0.6,0.2-1,0.2s-0.7-0.1-1-0.2s-0.6-0.3-0.8-0.6c-0.2-0.2-0.4-0.5-0.5-0.8c-0.1-0.3-0.2-0.7-0.2-1c0-0.4,0.1-0.7,0.2-1
			c0.1-0.3,0.3-0.6,0.5-0.8c0.2-0.2,0.5-0.4,0.8-0.6c0.3-0.1,0.6-0.2,1-0.2s0.7,0.1,1,0.2c0.3,0.1,0.6,0.3,0.8,0.6
			c0.2,0.2,0.4,0.5,0.5,0.8C69.4,71.9,69.4,72.2,69.4,72.6z M68.5,72.6c0-0.3,0-0.5-0.1-0.8s-0.2-0.4-0.3-0.6
			c-0.1-0.2-0.3-0.3-0.5-0.4c-0.2-0.1-0.4-0.1-0.6-0.1c-0.2,0-0.5,0-0.6,0.1c-0.2,0.1-0.4,0.2-0.5,0.4c-0.1,0.2-0.2,0.4-0.3,0.6
			c-0.1,0.2-0.1,0.5-0.1,0.8s0,0.5,0.1,0.8c0.1,0.2,0.2,0.4,0.3,0.6c0.1,0.2,0.3,0.3,0.5,0.4c0.2,0.1,0.4,0.1,0.6,0.1
			c0.2,0,0.5,0,0.6-0.1c0.2-0.1,0.4-0.2,0.5-0.4c0.1-0.2,0.2-0.4,0.3-0.6C68.5,73.1,68.5,72.8,68.5,72.6z"/>
		<path fill="#504D4C" d="M27.8,87.7l-0.7-1.8H24l-0.7,1.8h-1l2.8-7H26l2.8,7H27.8z M25.6,81.7l-1.3,3.4h2.6L25.6,81.7z"/>
		<path fill="#504D4C" d="M36.6,87.7v-3.2c0-0.4-0.1-0.7-0.2-0.9c-0.2-0.2-0.4-0.3-0.8-0.3c-0.2,0-0.4,0-0.5,0.1s-0.3,0.2-0.5,0.3
			c-0.1,0.1-0.2,0.3-0.3,0.5c-0.1,0.2-0.1,0.4-0.1,0.7v2.7h-0.9v-3.2c0-0.4-0.1-0.7-0.2-0.9c-0.2-0.2-0.4-0.3-0.8-0.3
			c-0.2,0-0.4,0-0.5,0.1c-0.2,0.1-0.3,0.2-0.5,0.3c-0.1,0.1-0.2,0.3-0.3,0.5s-0.1,0.4-0.1,0.7v2.7h-0.9v-5.1h0.9l0,0.9
			c0.2-0.3,0.4-0.5,0.7-0.7c0.3-0.2,0.6-0.3,1-0.3c0.4,0,0.7,0.1,1,0.3c0.3,0.2,0.4,0.4,0.6,0.7c0.2-0.3,0.4-0.5,0.8-0.7
			s0.7-0.3,1.1-0.3c0.6,0,1,0.2,1.3,0.5c0.3,0.3,0.4,0.8,0.4,1.4v3.3H36.6z"/>
		<path fill="#504D4C" d="M43.9,85.1c0,0.3,0,0.6-0.1,0.9s-0.2,0.6-0.4,0.8c-0.2,0.3-0.4,0.5-0.7,0.6c-0.3,0.2-0.6,0.2-1,0.2
			c-0.4,0-0.7-0.1-0.9-0.2s-0.5-0.4-0.7-0.7v0.8h-0.9v-7H40l0,2.7c0.4-0.6,0.9-0.9,1.6-0.9c0.4,0,0.7,0.1,1,0.2
			c0.3,0.2,0.5,0.4,0.7,0.6c0.2,0.2,0.3,0.5,0.4,0.8C43.8,84.5,43.9,84.8,43.9,85.1z M43,85.1c0-0.3,0-0.5-0.1-0.7
			c-0.1-0.2-0.2-0.4-0.3-0.6c-0.1-0.2-0.3-0.3-0.5-0.4c-0.2-0.1-0.4-0.1-0.6-0.1s-0.5,0-0.6,0.1c-0.2,0.1-0.3,0.2-0.5,0.4
			c-0.1,0.2-0.2,0.4-0.3,0.6c-0.1,0.2-0.1,0.5-0.1,0.7c0,0.3,0,0.5,0.1,0.7c0.1,0.2,0.2,0.4,0.3,0.6c0.1,0.2,0.3,0.3,0.5,0.4
			C41,87,41.3,87,41.5,87s0.5,0,0.6-0.1c0.2-0.1,0.3-0.2,0.5-0.4c0.1-0.2,0.2-0.4,0.3-0.6C42.9,85.6,43,85.4,43,85.1z"/>
		<path fill="#504D4C" d="M45.2,81.7v-1.1h0.9v1.1H45.2z M45.2,87.7v-5.1h0.9v5.1H45.2z"/>
		<path fill="#504D4C" d="M48.3,85.4c0,0.5,0.2,0.9,0.5,1.2s0.7,0.4,1.3,0.4c0.2,0,0.5,0,0.8-0.1c0.3,0,0.5-0.1,0.7-0.1l0.2,0.7
			c-0.3,0.1-0.6,0.2-0.9,0.2c-0.3,0-0.6,0.1-0.8,0.1c-0.4,0-0.8-0.1-1.2-0.2c-0.3-0.1-0.6-0.3-0.9-0.5s-0.4-0.5-0.5-0.8
			c-0.1-0.3-0.2-0.7-0.2-1.1c0-0.4,0.1-0.7,0.2-1c0.1-0.3,0.3-0.6,0.5-0.8c0.2-0.2,0.5-0.4,0.8-0.6c0.3-0.1,0.6-0.2,1-0.2
			c0.4,0,0.7,0.1,1,0.2c0.3,0.1,0.5,0.3,0.7,0.6c0.2,0.2,0.3,0.5,0.5,0.8c0.1,0.3,0.2,0.7,0.2,1v0.3H48.3z M51.2,84.7
			c0-0.5-0.2-0.8-0.4-1.1c-0.2-0.3-0.6-0.4-1-0.4c-0.4,0-0.8,0.1-1,0.4s-0.4,0.6-0.5,1.1H51.2z"/>
		<path fill="#504D4C" d="M56.9,87.7v-3.2c0-0.4-0.1-0.7-0.3-0.9s-0.4-0.3-0.8-0.3c-0.2,0-0.4,0-0.5,0.1c-0.2,0.1-0.3,0.2-0.5,0.3
			c-0.1,0.1-0.3,0.3-0.3,0.5s-0.1,0.4-0.1,0.7v2.7h-0.9v-5.1h0.9v0.9c0.2-0.3,0.4-0.5,0.7-0.7c0.3-0.2,0.7-0.3,1-0.3
			c0.6,0,1,0.2,1.3,0.5c0.3,0.3,0.4,0.8,0.4,1.4v3.3H56.9z"/>
		<path fill="#504D4C" d="M61.3,87.7c-0.1,0-0.2,0-0.3,0c-0.4,0-0.8-0.1-1-0.3c-0.3-0.2-0.4-0.6-0.4-1.2v-3h-0.7v-0.7h0.7v-1.4h0.9
			v1.4h1v0.7h-1v3c0,0.3,0.1,0.5,0.2,0.6c0.1,0.1,0.2,0.2,0.4,0.2c0.1,0,0.1,0,0.2,0c0.1,0,0.2,0,0.3,0l0.1,0.7
			C61.6,87.7,61.5,87.7,61.3,87.7z"/>
		<path fill="#504D4C" d="M65.8,87.7v-0.6c-0.2,0.2-0.4,0.4-0.6,0.5s-0.6,0.2-1,0.2c-0.5,0-0.9-0.1-1.3-0.4s-0.5-0.6-0.5-1.1
			c0-0.5,0.1-0.8,0.4-1.1c0.3-0.3,0.7-0.4,1.2-0.4h1.6v-0.5c0-0.3-0.1-0.6-0.3-0.8s-0.6-0.3-1.1-0.3c-0.2,0-0.5,0-0.8,0
			c-0.3,0-0.5,0.1-0.8,0.1l-0.1-0.7c0.3-0.1,0.5-0.1,0.8-0.1s0.6,0,0.9,0c0.7,0,1.3,0.2,1.7,0.5s0.6,0.7,0.6,1.3v3.4H65.8z
			 M65.8,85.5h-1.4c-0.3,0-0.6,0.1-0.7,0.2c-0.2,0.1-0.2,0.3-0.2,0.6c0,0.3,0.1,0.5,0.2,0.6c0.2,0.1,0.4,0.2,0.7,0.2
			c0.4,0,0.8-0.1,1-0.3s0.4-0.5,0.4-0.9V85.5z"/>
		<path fill="#504D4C" d="M69.6,87.7c-0.2,0-0.4,0-0.6-0.1c-0.2-0.1-0.3-0.1-0.5-0.3c-0.1-0.1-0.2-0.3-0.3-0.5
			c-0.1-0.2-0.1-0.4-0.1-0.7v-5.5h0.9v5.5c0,0.3,0.1,0.5,0.2,0.6c0.1,0.1,0.3,0.2,0.5,0.2h0.5v0.7H69.6z"/>
	</g>
</g>
</svg>
