<?xml version="1.0" encoding="utf-8"?>
<!-- Generator: Adobe Illustrator 19.1.0, SVG Export Plug-In . SVG Version: 6.00 Build 0)  -->
<svg version="1.1" id="Layer_1" xmlns="http://www.w3.org/2000/svg" xmlns:xlink="http://www.w3.org/1999/xlink" x="0px" y="0px"
	 viewBox="-216 218.2 78.3 77.9" style="enable-background:new -216 218.2 78.3 77.9;" xml:space="preserve">
<metadata><?xpacket begin="﻿" id="W5M0MpCehiHzreSzNTczkc9d"?>
<x:xmpmeta xmlns:x="adobe:ns:meta/" x:xmptk="Adobe XMP Core 5.6-c067 79.157747, 2015/03/30-23:40:42        ">
   <rdf:RDF xmlns:rdf="http://www.w3.org/1999/02/22-rdf-syntax-ns#">
      <rdf:Description rdf:about=""/>
   </rdf:RDF>
</x:xmpmeta>
                                                                                                    
                                                                                                    
                                                                                                    
                                                                                                    
                                                                                                    
                                                                                                    
                                                                                                    
                                                                                                    
                                                                                                    
                                                                                                    
                                                                                                    
                                                                                                    
                                                                                                    
                                                                                                    
                                                                                                    
                                                                                                    
                                                                                                    
                                                                                                    
                                                                                                    
                                                                                                    
                           
<?xpacket end="w"?></metadata>
<style type="text/css">
	.st0{fill:#D10F17;}
	.st1{clip-path:url(#SVGID_2_);fill:#AC1416;}
	.st2{fill:#FFFFFF;}
	.st3{fill:#504D4C;}
</style>
<g>
	<path class="st0" d="M-199.2,223.7c0-3,2.5-5.5,5.5-5.5h50.4c3,0,5.5,2.5,5.5,5.5v50.4c0,3-2.5,5.5-5.5,5.5h-50.4
		c-3,0-5.5-2.5-5.5-5.5V223.7z"/>
	<g>
		<g>
			<defs>
				<path id="SVGID_1_" d="M-199.2,223.7c0-3,2.5-5.5,5.5-5.5h50.4c3,0,5.5,2.5,5.5,5.5v50.4c0,3-2.5,5.5-5.5,5.5h-50.4
					c-3,0-5.5-2.5-5.5-5.5V223.7z"/>
			</defs>
			<clipPath id="SVGID_2_">
				<use xlink:href="#SVGID_1_"  style="overflow:visible;"/>
			</clipPath>
			<path class="st1" d="M-145.4,262.2l-11.9,23.9H-216l23.6-46h1.1c8.7,0,12.2-8.1,20.9-8.1h4.2c5,0,8.6,0.9,11.9,4.7
				C-151,240.4-147.2,258.1-145.4,262.2z"/>
		</g>
	</g>
	<path class="st2" d="M-158.2,233.1c-0.1,1.6-0.6,7.1-0.6,7.1s6.8,3.6,8.8,5c3.4,2.3,5.5,0.6,5.2-3.2c-0.3-3.3-2.9-7.5-6.2-9.6
		C-154.5,230.2-158,230.4-158.2,233.1z"/>
	<path class="st2" d="M-158.1,256.6c-0.9-3.6-4.6-12.7-4.6-12.7s-9.5,2.3-13.4,3.6c-7.5,2.6-11.2,11.2-8.2,18.1
		c2.7,6.2,10.4,9.5,16.9,7.3C-160.7,270.6-156.4,263.1-158.1,256.6z"/>
	<path class="st2" d="M-175.8,246.7c3.2-2.2,10.7-6.6,10.7-6.6s-6-5.8-8-7.5c-3.4-2.7-9.7-2.6-14.2,0.5c-4.6,3.2-6.7,9-4.8,12.8
		C-189.7,250.8-182.5,251.4-175.8,246.7z"/>
	<path class="st2" d="M-172.5,232.6c2.7,1.2,10,5.4,10,5.4s3.1-4.1,4-5.3c1.5-1.9-0.6-5.3-4.7-7.2c-3.8-1.7-8.8-1.6-11.4,0
		C-177.8,227.3-177.2,230.5-172.5,232.6z"/>
	<path class="st2" d="M-150.2,245.5c-2-0.5-8.5-1.6-8.5-1.6s1.2,9.4,1.1,13.1c0,7.1,3.2,11.4,7.3,10.1c3.3-1,6.1-5.8,6.2-10.8
		C-144,251.1-146.9,246.3-150.2,245.5z"/>
</g>
<g>
	<path class="st3" d="M-177.9,290.2c-0.1,0.4-0.2,0.6-0.5,0.9c-0.2,0.2-0.5,0.4-0.9,0.5c-0.2,0.1-0.6,0.2-1.1,0.2h-1.5v-1h1.5
		c0.5,0,0.9-0.1,1.1-0.5c0.2-0.4,0.4-0.8,0.4-1.1v-5.1h-2.6v-1h3.9v6.1C-177.6,289.6-177.8,290-177.9,290.2z"/>
	<path class="st3" d="M-169.8,288.6c0,0.5-0.1,0.9-0.2,1.2s-0.4,0.8-0.6,1s-0.6,0.5-1,0.8s-0.8,0.2-1.2,0.2s-0.9-0.1-1.2-0.2
		s-0.8-0.4-1-0.8c-0.2-0.2-0.5-0.6-0.6-1s-0.2-0.9-0.2-1.2c0-0.5,0.1-0.9,0.2-1.2s0.4-0.8,0.6-1s0.6-0.5,1-0.8
		c0.4-0.1,0.8-0.2,1.2-0.2s0.9,0.1,1.2,0.2s0.8,0.4,1,0.8c0.2,0.2,0.5,0.6,0.6,1S-169.8,288.1-169.8,288.6z M-171,288.6
		c0-0.4,0-0.6-0.1-1s-0.2-0.5-0.4-0.8s-0.4-0.4-0.6-0.5s-0.5-0.1-0.8-0.1s-0.6,0-0.8,0.1c-0.2,0.1-0.5,0.2-0.6,0.5s-0.2,0.5-0.4,0.8
		s-0.1,0.6-0.1,1s0,0.6,0.1,1c0.1,0.2,0.2,0.5,0.4,0.8s0.4,0.4,0.6,0.5s0.5,0.1,0.8,0.1s0.6,0,0.8-0.1c0.2-0.1,0.5-0.2,0.6-0.5
		s0.2-0.5,0.4-0.8C-171,289.2-171,289-171,288.6z"/>
	<path class="st3" d="M-162.8,291.2c0,0.9-0.2,1.6-0.9,2.1c-0.6,0.5-1.4,0.8-2.4,0.8c-0.2,0-0.6,0-1-0.1c-0.4-0.1-0.8-0.1-1.1-0.2
		l0.1-0.9c0.4,0.1,0.6,0.1,1,0.2c0.2,0,0.6,0,0.9,0c0.8,0,1.4-0.1,1.8-0.5s0.5-0.8,0.5-1.5v-0.5c-0.3,0.4-0.5,0.6-0.9,0.9
		c-0.4,0.2-0.7,0.2-1.2,0.2c-0.5,0-0.9-0.1-1.2-0.2c-0.4-0.1-0.6-0.4-0.9-0.8c-0.2-0.2-0.4-0.6-0.5-1c-0.1-0.4-0.1-0.8-0.1-1.2
		c0-0.5,0-0.9,0.1-1.2c0.1-0.4,0.2-0.8,0.5-1c0.2-0.2,0.5-0.5,0.9-0.8c0.4-0.1,0.8-0.2,1.2-0.2c0.4,0,0.9,0.1,1.2,0.2
		c0.4,0.2,0.6,0.5,0.9,0.9v-1h1.1V291.2z M-163.9,288.6c0-0.8-0.1-1.2-0.5-1.6s-0.8-0.6-1.4-0.6c-0.4,0-0.6,0-0.8,0.1
		c-0.2,0.1-0.4,0.2-0.5,0.5c-0.1,0.2-0.2,0.5-0.4,0.8c-0.1,0.2-0.1,0.6-0.1,0.9c0,0.2,0,0.6,0.1,0.9s0.1,0.5,0.4,0.8
		c0.1,0.2,0.4,0.4,0.5,0.5s0.5,0.1,0.8,0.1c0.6,0,1-0.2,1.4-0.6C-164,289.9-163.9,289.2-163.9,288.6z"/>
	<path class="st3" d="M-155,288.6c0,0.5-0.1,0.9-0.2,1.2s-0.4,0.8-0.6,1s-0.6,0.5-1,0.8c-0.4,0.1-0.8,0.2-1.2,0.2s-0.9-0.1-1.2-0.2
		s-0.8-0.4-1-0.8c-0.2-0.2-0.5-0.6-0.6-1s-0.2-0.9-0.2-1.2c0-0.5,0.1-0.9,0.2-1.2s0.4-0.8,0.6-1s0.6-0.5,1-0.8
		c0.4-0.1,0.8-0.2,1.2-0.2s0.9,0.1,1.2,0.2s0.8,0.4,1,0.8c0.2,0.2,0.5,0.6,0.6,1S-155,288.1-155,288.6z M-156.1,288.6
		c0-0.4,0-0.6-0.1-1s-0.2-0.5-0.4-0.8s-0.4-0.4-0.6-0.5s-0.5-0.1-0.8-0.1s-0.6,0-0.8,0.1c-0.2,0.1-0.5,0.2-0.6,0.5s-0.2,0.5-0.4,0.8
		s-0.1,0.6-0.1,1s0,0.6,0.1,1c0.1,0.2,0.2,0.5,0.4,0.8s0.4,0.4,0.6,0.5s0.5,0.1,0.8,0.1s0.6,0,0.8-0.1c0.2-0.1,0.5-0.2,0.6-0.5
		s0.2-0.5,0.4-0.8C-156.3,289.2-156.1,289-156.1,288.6z"/>
</g>
</svg>
