<!-- Generator: Adobe Illustrator 18.0.0, SVG Export Plug-In  -->
<svg version="1.1"
	 xmlns="http://www.w3.org/2000/svg" xmlns:xlink="http://www.w3.org/1999/xlink" xmlns:a="http://ns.adobe.com/AdobeSVGViewerExtensions/3.0/"
	 x="0px" y="0px" width="78.3px" height="76.8px" viewBox="0 0 78.3 76.8" enable-background="new 0 0 78.3 76.8"
	 xml:space="preserve">
<defs>
</defs>
<g>
	<g>
		<path fill="#D10F17" d="M16.8,5.5c0-3,2.5-5.5,5.5-5.5h50.4c3,0,5.5,2.5,5.5,5.5v50.4c0,3-2.5,5.5-5.5,5.5H22.3
			c-3,0-5.5-2.5-5.5-5.5V5.5z"/>
		<g>
			<defs>
				<path id="SVGID_1_" d="M16.8,5.5c0-3,2.5-5.5,5.5-5.5h50.4c3,0,5.5,2.5,5.5,5.5v50.4c0,3-2.5,5.5-5.5,5.5H22.3
					c-3,0-5.5-2.5-5.5-5.5V5.5z"/>
			</defs>
			<clipPath id="SVGID_2_">
				<use xlink:href="#SVGID_1_"  overflow="visible"/>
			</clipPath>
			<path clip-path="url(#SVGID_2_)" fill-rule="evenodd" clip-rule="evenodd" fill="#AC1416" d="M70.6,44L58.7,67.9H0l23.6-46h1.1
				c8.7,0,12.2-8.1,20.9-8.1h4.2c5,0,8.6,0.9,11.9,4.7C65,22.2,68.8,39.9,70.6,44z"/>
		</g>
		<path fill="#FFFFFF" d="M57.8,14.9c-0.1,1.6-0.6,7.1-0.6,7.1s6.8,3.6,8.8,5c3.4,2.3,5.5,0.6,5.2-3.2c-0.3-3.3-2.9-7.5-6.2-9.6
			C61.5,12,58,12.2,57.8,14.9z"/>
		<path fill="#FFFFFF" d="M57.9,38.4c-0.9-3.6-4.6-12.7-4.6-12.7s-9.5,2.3-13.4,3.6c-7.5,2.6-11.2,11.2-8.2,18.1
			c2.7,6.2,10.4,9.5,16.9,7.3C55.3,52.4,59.6,44.9,57.9,38.4z"/>
		<path fill="#FFFFFF" d="M40.2,28.5c3.2-2.2,10.7-6.6,10.7-6.6s-6-5.8-8-7.5c-3.4-2.7-9.7-2.6-14.2,0.5c-4.6,3.2-6.7,9-4.8,12.8
			C26.3,32.6,33.5,33.2,40.2,28.5z"/>
		<path fill="#FFFFFF" d="M43.5,14.4c2.7,1.2,10,5.4,10,5.4s3.1-4.1,4-5.3c1.5-1.9-0.6-5.3-4.7-7.2C49,5.6,44,5.7,41.4,7.3
			C38.2,9.1,38.8,12.3,43.5,14.4z"/>
		<path fill="#FFFFFF" d="M65.8,27.3c-2-0.5-8.5-1.6-8.5-1.6s1.2,9.4,1.1,13.1c0,7.1,3.2,11.4,7.3,10.1c3.3-1,6.1-5.8,6.2-10.8
			C72,32.9,69.1,28.1,65.8,27.3z"/>
	</g>
	<g>
		<path fill="#504D4C" d="M40,73.7c-0.1,0.3-0.2,0.5-0.4,0.7c-0.2,0.2-0.4,0.3-0.7,0.4C38.7,74.9,38.4,75,38,75h-1.2v-0.8H38
			c0.4,0,0.7-0.1,0.9-0.4c0.2-0.3,0.3-0.6,0.3-0.9v-4.1h-2.1V68h3.1v4.9C40.2,73.2,40.1,73.5,40,73.7z"/>
		<path fill="#504D4C" d="M46.5,72.4c0,0.4-0.1,0.7-0.2,1c-0.1,0.3-0.3,0.6-0.5,0.8c-0.2,0.2-0.5,0.4-0.8,0.6C44.7,75,44.4,75,44,75
			s-0.7-0.1-1-0.2s-0.6-0.3-0.8-0.6c-0.2-0.2-0.4-0.5-0.5-0.8c-0.1-0.3-0.2-0.7-0.2-1c0-0.4,0.1-0.7,0.2-1c0.1-0.3,0.3-0.6,0.5-0.8
			c0.2-0.2,0.5-0.4,0.8-0.6c0.3-0.1,0.6-0.2,1-0.2s0.7,0.1,1,0.2c0.3,0.1,0.6,0.3,0.8,0.6c0.2,0.2,0.4,0.5,0.5,0.8
			C46.4,71.7,46.5,72,46.5,72.4z M45.5,72.4c0-0.3,0-0.5-0.1-0.8s-0.2-0.4-0.3-0.6c-0.1-0.2-0.3-0.3-0.5-0.4
			c-0.2-0.1-0.4-0.1-0.6-0.1c-0.2,0-0.5,0-0.6,0.1c-0.2,0.1-0.4,0.2-0.5,0.4c-0.1,0.2-0.2,0.4-0.3,0.6c-0.1,0.2-0.1,0.5-0.1,0.8
			s0,0.5,0.1,0.8c0.1,0.2,0.2,0.4,0.3,0.6c0.1,0.2,0.3,0.3,0.5,0.4c0.2,0.1,0.4,0.1,0.6,0.1c0.2,0,0.5,0,0.6-0.1
			c0.2-0.1,0.4-0.2,0.5-0.4c0.1-0.2,0.2-0.4,0.3-0.6C45.5,72.9,45.5,72.7,45.5,72.4z"/>
		<path fill="#504D4C" d="M52.1,74.5c0,0.7-0.2,1.3-0.7,1.7s-1.1,0.6-1.9,0.6c-0.2,0-0.5,0-0.8-0.1s-0.6-0.1-0.9-0.2l0.1-0.7
			c0.3,0.1,0.5,0.1,0.8,0.2c0.2,0,0.5,0,0.7,0c0.6,0,1.1-0.1,1.4-0.4c0.3-0.3,0.4-0.6,0.4-1.2V74c-0.2,0.3-0.4,0.5-0.7,0.7
			c-0.3,0.2-0.6,0.2-1,0.2c-0.4,0-0.7-0.1-1-0.2c-0.3-0.1-0.5-0.3-0.7-0.6c-0.2-0.2-0.3-0.5-0.4-0.8c-0.1-0.3-0.1-0.6-0.1-1
			s0-0.7,0.1-1c0.1-0.3,0.2-0.6,0.4-0.8c0.2-0.2,0.4-0.4,0.7-0.6c0.3-0.1,0.6-0.2,1-0.2c0.3,0,0.7,0.1,1,0.2
			c0.3,0.2,0.5,0.4,0.7,0.7v-0.8h0.9V74.5z M51.2,72.4c0-0.6-0.1-1-0.4-1.3c-0.3-0.3-0.6-0.5-1.1-0.5c-0.3,0-0.5,0-0.6,0.1
			c-0.2,0.1-0.3,0.2-0.4,0.4s-0.2,0.4-0.3,0.6c-0.1,0.2-0.1,0.5-0.1,0.7s0,0.5,0.1,0.7c0.1,0.2,0.1,0.4,0.3,0.6
			c0.1,0.2,0.3,0.3,0.4,0.4s0.4,0.1,0.6,0.1c0.5,0,0.8-0.2,1.1-0.5C51.1,73.4,51.2,72.9,51.2,72.4z"/>
		<path fill="#504D4C" d="M58.3,72.4c0,0.4-0.1,0.7-0.2,1c-0.1,0.3-0.3,0.6-0.5,0.8c-0.2,0.2-0.5,0.4-0.8,0.6
			c-0.3,0.1-0.6,0.2-1,0.2s-0.7-0.1-1-0.2s-0.6-0.3-0.8-0.6c-0.2-0.2-0.4-0.5-0.5-0.8c-0.1-0.3-0.2-0.7-0.2-1c0-0.4,0.1-0.7,0.2-1
			c0.1-0.3,0.3-0.6,0.5-0.8c0.2-0.2,0.5-0.4,0.8-0.6c0.3-0.1,0.6-0.2,1-0.2s0.7,0.1,1,0.2c0.3,0.1,0.6,0.3,0.8,0.6
			c0.2,0.2,0.4,0.5,0.5,0.8C58.2,71.7,58.3,72,58.3,72.4z M57.4,72.4c0-0.3,0-0.5-0.1-0.8S57.1,71.2,57,71c-0.1-0.2-0.3-0.3-0.5-0.4
			c-0.2-0.1-0.4-0.1-0.6-0.1c-0.2,0-0.5,0-0.6,0.1c-0.2,0.1-0.4,0.2-0.5,0.4c-0.1,0.2-0.2,0.4-0.3,0.6c-0.1,0.2-0.1,0.5-0.1,0.8
			s0,0.5,0.1,0.8c0.1,0.2,0.2,0.4,0.3,0.6c0.1,0.2,0.3,0.3,0.5,0.4c0.2,0.1,0.4,0.1,0.6,0.1c0.2,0,0.5,0,0.6-0.1
			c0.2-0.1,0.4-0.2,0.5-0.4c0.1-0.2,0.2-0.4,0.3-0.6C57.3,72.9,57.4,72.7,57.4,72.4z"/>
	</g>
</g>
</svg>
