<!-- Generator: Adobe Illustrator 18.0.0, SVG Export Plug-In  -->
<svg version="1.1"
	 xmlns="http://www.w3.org/2000/svg" xmlns:xlink="http://www.w3.org/1999/xlink" xmlns:a="http://ns.adobe.com/AdobeSVGViewerExtensions/3.0/"
	 x="0px" y="0px" width="75.3px" height="89.4px" viewBox="0 0 75.3 89.4" enable-background="new 0 0 75.3 89.4"
	 xml:space="preserve">
<defs>
</defs>
<g>
	<g>
		<g>
			<path fill="#FFB700" d="M13.8,5.5c0-3,2.5-5.5,5.5-5.5h50.4c3,0,5.5,2.5,5.5,5.5v50.4c0,3-2.5,5.5-5.5,5.5H19.3
				c-3,0-5.5-2.5-5.5-5.5V5.5z"/>
			<g>
				<defs>
					<path id="SVGID_1_" d="M13.8,5.5c0-3,2.5-5.5,5.5-5.5h50.4c3,0,5.5,2.5,5.5,5.5v50.4c0,3-2.5,5.5-5.5,5.5H19.3
						c-3,0-5.5-2.5-5.5-5.5V5.5z"/>
				</defs>
				<clipPath id="SVGID_2_">
					<use xlink:href="#SVGID_1_"  overflow="visible"/>
				</clipPath>
				<path clip-path="url(#SVGID_2_)" fill-rule="evenodd" clip-rule="evenodd" fill="#DB9701" d="M60.6,53l-5.1,10.1H0L28.1,7
					C28.1,7,60,51.4,60.6,53z"/>
			</g>
			<polygon fill="#FFFFFF" points="28.2,7 51.5,7 60.7,16.8 60.7,53.1 28.2,53.1 			"/>
			<g>
				<defs>
					<polygon id="SVGID_3_" points="28.2,7 51.5,7 60.7,16.8 60.7,53.1 28.2,53.1 					"/>
				</defs>
				<clipPath id="SVGID_4_">
					<use xlink:href="#SVGID_3_"  overflow="visible"/>
				</clipPath>
				<polygon clip-path="url(#SVGID_4_)" fill-rule="evenodd" clip-rule="evenodd" fill="#FC7415" points="51.1,6.3 61.1,17 51.1,17 
									"/>
			</g>
			<path fill="none" stroke="#0094C2" stroke-width="0.7895" stroke-miterlimit="3.8636" d="M37,33.3c0-4.2,3.4-7.5,7.5-7.5
				s7.5,3.4,7.5,7.5c0,3.2-2,6-4.9,7.1v2.8h-5.3v-2.8C39,39.3,37,36.5,37,33.3z"/>
			<rect x="26.9" y="33.3" fill-rule="evenodd" clip-rule="evenodd" fill="#8B9722" width="7.8" height="1.4"/>
			<rect x="54.4" y="33.3" fill-rule="evenodd" clip-rule="evenodd" fill="#8B9722" width="7.8" height="1.4"/>
			
				<rect x="51.7" y="22.4" transform="matrix(-0.7071 0.7071 -0.7071 -0.7071 111.096 7.802124e-02)" fill-rule="evenodd" clip-rule="evenodd" fill="#8B9722" width="7.8" height="1.4"/>
			<rect x="43.8" y="14.7" fill-rule="evenodd" clip-rule="evenodd" fill="#8B9722" width="1.4" height="7.8"/>
			
				<rect x="29" y="23.1" transform="matrix(0.7073 0.7069 -0.7069 0.7073 26.4244 -16.3179)" fill="#8B9722" width="7.8" height="1.4"/>
		</g>
		<g>
			<path fill="#504D4C" d="M37,75v-7h4.8v0.8H38v2.1h3.6v0.8H38v2.4h3.8V75H37z"/>
			<path fill="#504D4C" d="M46.2,75c-0.2,0-0.5,0-0.7,0c-0.4,0-0.8-0.1-1.1-0.2c-0.3-0.1-0.6-0.3-0.9-0.6c-0.2-0.2-0.4-0.5-0.5-0.8
				c-0.1-0.3-0.2-0.7-0.2-1s0.1-0.7,0.2-1c0.1-0.3,0.3-0.6,0.5-0.8c0.2-0.2,0.5-0.4,0.9-0.6c0.3-0.1,0.7-0.2,1.1-0.2
				c0.2,0,0.4,0,0.6,0c0.2,0,0.4,0.1,0.7,0.2l-0.2,0.7c-0.2,0-0.4-0.1-0.5-0.1c-0.2,0-0.4,0-0.5,0c-0.3,0-0.6,0-0.8,0.1
				c-0.2,0.1-0.4,0.2-0.6,0.4c-0.2,0.2-0.3,0.4-0.4,0.6c-0.1,0.2-0.1,0.5-0.1,0.8c0,0.6,0.2,1,0.5,1.4s0.8,0.5,1.4,0.5
				c0.2,0,0.3,0,0.5,0s0.3-0.1,0.6-0.1l0.2,0.7C46.6,74.9,46.4,75,46.2,75z"/>
			<path fill="#504D4C" d="M52.6,72.4c0,0.4-0.1,0.7-0.2,1c-0.1,0.3-0.3,0.6-0.5,0.8c-0.2,0.2-0.5,0.4-0.8,0.6
				c-0.3,0.1-0.6,0.2-1,0.2s-0.7-0.1-1-0.2s-0.6-0.3-0.8-0.6c-0.2-0.2-0.4-0.5-0.5-0.8c-0.1-0.3-0.2-0.7-0.2-1c0-0.4,0.1-0.7,0.2-1
				c0.1-0.3,0.3-0.6,0.5-0.8c0.2-0.2,0.5-0.4,0.8-0.6c0.3-0.1,0.6-0.2,1-0.2s0.7,0.1,1,0.2c0.3,0.1,0.6,0.3,0.8,0.6
				c0.2,0.2,0.4,0.5,0.5,0.8C52.6,71.7,52.6,72,52.6,72.4z M51.7,72.4c0-0.3,0-0.5-0.1-0.8s-0.2-0.4-0.3-0.6
				c-0.1-0.2-0.3-0.3-0.5-0.4c-0.2-0.1-0.4-0.1-0.6-0.1c-0.2,0-0.5,0-0.6,0.1c-0.2,0.1-0.4,0.2-0.5,0.4c-0.1,0.2-0.2,0.4-0.3,0.6
				c-0.1,0.2-0.1,0.5-0.1,0.8s0,0.5,0.1,0.8c0.1,0.2,0.2,0.4,0.3,0.6c0.1,0.2,0.3,0.3,0.5,0.4c0.2,0.1,0.4,0.1,0.6,0.1
				c0.2,0,0.5,0,0.6-0.1c0.2-0.1,0.4-0.2,0.5-0.4c0.1-0.2,0.2-0.4,0.3-0.6C51.7,72.9,51.7,72.7,51.7,72.4z"/>
			<path fill="#504D4C" d="M25.2,85.7c0,0.3-0.1,0.5-0.2,0.8c-0.1,0.2-0.3,0.4-0.5,0.6s-0.5,0.3-0.9,0.4c-0.3,0.1-0.7,0.1-1.1,0.1
				c-0.5,0-0.9,0-1.4-0.1c-0.5-0.1-1-0.2-1.4-0.4l0.2-0.7c0.4,0.1,0.9,0.3,1.3,0.4s0.9,0.1,1.3,0.1c0.6,0,1-0.1,1.3-0.3
				c0.3-0.2,0.5-0.5,0.5-0.8c0-0.1,0-0.3-0.1-0.4c-0.1-0.1-0.1-0.2-0.3-0.3c-0.1-0.1-0.3-0.2-0.6-0.3c-0.2-0.1-0.6-0.2-1-0.4
				c-0.5-0.2-0.8-0.3-1.1-0.5c-0.3-0.2-0.6-0.3-0.7-0.5c-0.2-0.2-0.3-0.4-0.4-0.6s-0.1-0.4-0.1-0.7c0-0.6,0.2-1,0.7-1.3
				c0.5-0.3,1.1-0.4,2-0.4c0.2,0,0.4,0,0.6,0c0.2,0,0.4,0,0.6,0.1c0.2,0,0.4,0.1,0.6,0.1c0.2,0,0.4,0.1,0.6,0.1l-0.2,0.8
				c-0.4-0.1-0.7-0.2-1.1-0.2c-0.4-0.1-0.8-0.1-1.1-0.1c-0.6,0-1.1,0.1-1.3,0.2s-0.4,0.3-0.4,0.7c0,0.2,0,0.3,0.1,0.4
				c0.1,0.1,0.2,0.2,0.3,0.3c0.2,0.1,0.4,0.2,0.6,0.3c0.3,0.1,0.6,0.3,1,0.4c0.4,0.2,0.8,0.3,1.1,0.5c0.3,0.1,0.5,0.3,0.7,0.5
				c0.2,0.2,0.3,0.3,0.3,0.5C25.1,85.3,25.2,85.5,25.2,85.7z"/>
			<path fill="#504D4C" d="M29.8,87.5v-0.9c-0.2,0.3-0.4,0.5-0.7,0.7c-0.3,0.2-0.7,0.3-1,0.3c-0.6,0-1-0.2-1.3-0.5
				c-0.3-0.3-0.4-0.8-0.4-1.4v-3.3h0.9v3.2c0,0.4,0.1,0.7,0.3,0.9s0.4,0.3,0.8,0.3c0.2,0,0.4,0,0.5-0.1c0.2-0.1,0.3-0.2,0.5-0.3
				c0.1-0.1,0.3-0.3,0.3-0.5s0.1-0.4,0.1-0.7v-2.7h0.9v5.1H29.8z"/>
			<path fill="#504D4C" d="M36.8,87c0,0.7-0.2,1.3-0.7,1.7s-1.1,0.6-1.9,0.6c-0.2,0-0.5,0-0.8-0.1s-0.6-0.1-0.9-0.2l0.1-0.7
				c0.3,0.1,0.5,0.1,0.8,0.2c0.2,0,0.5,0,0.7,0c0.6,0,1.1-0.1,1.4-0.4c0.3-0.3,0.4-0.6,0.4-1.2v-0.5c-0.2,0.3-0.4,0.5-0.7,0.7
				c-0.3,0.2-0.6,0.2-1,0.2c-0.4,0-0.7-0.1-1-0.2c-0.3-0.1-0.5-0.3-0.7-0.6c-0.2-0.2-0.3-0.5-0.4-0.8c-0.1-0.3-0.1-0.6-0.1-1
				s0-0.7,0.1-1c0.1-0.3,0.2-0.6,0.4-0.8c0.2-0.2,0.4-0.4,0.7-0.6c0.3-0.1,0.6-0.2,1-0.2c0.3,0,0.7,0.1,1,0.2
				c0.3,0.2,0.5,0.4,0.7,0.7v-0.8h0.9V87z M35.9,84.9c0-0.6-0.1-1-0.4-1.3c-0.3-0.3-0.6-0.5-1.1-0.5c-0.3,0-0.5,0-0.6,0.1
				c-0.2,0.1-0.3,0.2-0.4,0.4S33.1,84,33,84.2c-0.1,0.2-0.1,0.5-0.1,0.7s0,0.5,0.1,0.7c0.1,0.2,0.1,0.4,0.3,0.6
				c0.1,0.2,0.3,0.3,0.4,0.4s0.4,0.1,0.6,0.1c0.5,0,0.8-0.2,1.1-0.5C35.7,85.9,35.9,85.5,35.9,84.9z"/>
			<path fill="#504D4C" d="M38.9,85.3c0,0.5,0.2,0.9,0.5,1.2s0.7,0.4,1.3,0.4c0.2,0,0.5,0,0.8-0.1c0.3,0,0.5-0.1,0.7-0.1l0.2,0.7
				c-0.3,0.1-0.6,0.2-0.9,0.2c-0.3,0-0.6,0.1-0.8,0.1c-0.4,0-0.8-0.1-1.2-0.2c-0.3-0.1-0.6-0.3-0.9-0.5s-0.4-0.5-0.5-0.8
				C38,85.7,38,85.4,38,85c0-0.4,0.1-0.7,0.2-1c0.1-0.3,0.3-0.6,0.5-0.8c0.2-0.2,0.5-0.4,0.8-0.6c0.3-0.1,0.6-0.2,1-0.2
				c0.4,0,0.7,0.1,1,0.2c0.3,0.1,0.5,0.3,0.7,0.6c0.2,0.2,0.3,0.5,0.5,0.8c0.1,0.3,0.2,0.7,0.2,1v0.3H38.9z M41.8,84.6
				c0-0.5-0.2-0.8-0.4-1.1c-0.2-0.3-0.6-0.4-1-0.4c-0.4,0-0.8,0.1-1,0.4s-0.4,0.6-0.5,1.1H41.8z"/>
			<path fill="#504D4C" d="M47.6,86.2c0,0.4-0.2,0.8-0.5,1c-0.4,0.3-0.9,0.4-1.5,0.4c-0.3,0-0.6,0-1-0.1c-0.4-0.1-0.7-0.2-0.9-0.3
				l0.2-0.7c0.3,0.1,0.6,0.2,0.9,0.3s0.6,0.1,0.9,0.1c0.8,0,1.1-0.2,1.1-0.7c0-0.1,0-0.2-0.1-0.3c0-0.1-0.1-0.1-0.2-0.2
				c-0.1-0.1-0.2-0.1-0.4-0.2c-0.2-0.1-0.4-0.2-0.7-0.3c-0.3-0.1-0.6-0.2-0.8-0.4s-0.4-0.2-0.5-0.4c-0.1-0.1-0.2-0.3-0.3-0.4
				s-0.1-0.3-0.1-0.5c0-0.4,0.2-0.8,0.5-1c0.3-0.2,0.8-0.3,1.4-0.3c0.2,0,0.5,0,0.8,0.1s0.6,0.1,0.9,0.2l-0.1,0.7
				c-0.2-0.1-0.5-0.1-0.7-0.1c-0.3,0-0.5-0.1-0.8-0.1c-0.4,0-0.7,0-0.8,0.1c-0.2,0.1-0.2,0.2-0.2,0.4c0,0.1,0,0.2,0.1,0.3
				c0,0.1,0.1,0.1,0.2,0.2c0.1,0.1,0.2,0.1,0.4,0.2s0.3,0.2,0.6,0.2c0.3,0.1,0.6,0.3,0.8,0.4s0.4,0.2,0.5,0.3
				c0.1,0.1,0.2,0.2,0.3,0.4C47.6,85.8,47.6,86,47.6,86.2z"/>
			<path fill="#504D4C" d="M50.7,87.6c-0.1,0-0.2,0-0.3,0c-0.4,0-0.8-0.1-1-0.3C49.1,87,49,86.7,49,86.1v-3h-0.7v-0.7H49V81h0.9v1.4
				h1v0.7h-1v3c0,0.3,0.1,0.5,0.2,0.6c0.1,0.1,0.2,0.2,0.4,0.2c0.1,0,0.1,0,0.2,0c0.1,0,0.2,0,0.3,0l0.1,0.7
				C51,87.5,50.9,87.6,50.7,87.6z"/>
			<path fill="#504D4C" d="M56.9,85c0,0.4-0.1,0.7-0.2,1c-0.1,0.3-0.3,0.6-0.5,0.8c-0.2,0.2-0.5,0.4-0.8,0.6c-0.3,0.1-0.6,0.2-1,0.2
				s-0.7-0.1-1-0.2s-0.6-0.3-0.8-0.6c-0.2-0.2-0.4-0.5-0.5-0.8c-0.1-0.3-0.2-0.7-0.2-1c0-0.4,0.1-0.7,0.2-1c0.1-0.3,0.3-0.6,0.5-0.8
				c0.2-0.2,0.5-0.4,0.8-0.6c0.3-0.1,0.6-0.2,1-0.2s0.7,0.1,1,0.2c0.3,0.1,0.6,0.3,0.8,0.6c0.2,0.2,0.4,0.5,0.5,0.8
				C56.8,84.3,56.9,84.6,56.9,85z M56,85c0-0.3,0-0.5-0.1-0.8s-0.2-0.4-0.3-0.6c-0.1-0.2-0.3-0.3-0.5-0.4c-0.2-0.1-0.4-0.1-0.6-0.1
				c-0.2,0-0.5,0-0.6,0.1c-0.2,0.1-0.4,0.2-0.5,0.4C53.1,83.8,53,84,53,84.2c-0.1,0.2-0.1,0.5-0.1,0.8s0,0.5,0.1,0.8
				c0.1,0.2,0.2,0.4,0.3,0.6c0.1,0.2,0.3,0.3,0.5,0.4c0.2,0.1,0.4,0.1,0.6,0.1c0.2,0,0.5,0,0.6-0.1c0.2-0.1,0.4-0.2,0.5-0.4
				c0.1-0.2,0.2-0.4,0.3-0.6C55.9,85.5,56,85.2,56,85z M55.8,81.1c-0.1,0.1-0.1,0.2-0.2,0.3s-0.2,0.2-0.3,0.2
				c-0.1,0.1-0.2,0.1-0.3,0.1c-0.1,0-0.2,0-0.3-0.1s-0.2-0.1-0.3-0.2c-0.1-0.1-0.2-0.1-0.3-0.2s-0.2-0.1-0.3-0.1c-0.1,0-0.1,0-0.2,0
				s-0.1,0.1-0.1,0.1c0,0.1-0.1,0.1-0.1,0.2c0,0.1,0,0.1-0.1,0.2L53,81.5c0-0.1,0.1-0.2,0.1-0.3c0.1-0.1,0.1-0.2,0.2-0.3
				c0.1-0.1,0.2-0.2,0.3-0.2c0.1-0.1,0.2-0.1,0.3-0.1s0.2,0,0.4,0.1s0.2,0.1,0.3,0.2c0.1,0.1,0.2,0.1,0.3,0.2c0.1,0,0.2,0.1,0.3,0.1
				c0.1,0,0.1,0,0.2,0c0,0,0.1-0.1,0.1-0.1c0-0.1,0.1-0.1,0.1-0.2c0-0.1,0-0.1,0.1-0.2l0.4,0.2C55.9,80.9,55.9,81,55.8,81.1z"/>
			<path fill="#504D4C" d="M58.7,85.3c0,0.5,0.2,0.9,0.5,1.2s0.7,0.4,1.3,0.4c0.2,0,0.5,0,0.8-0.1c0.3,0,0.5-0.1,0.7-0.1l0.2,0.7
				c-0.3,0.1-0.6,0.2-0.9,0.2c-0.3,0-0.6,0.1-0.8,0.1c-0.4,0-0.8-0.1-1.2-0.2c-0.3-0.1-0.6-0.3-0.9-0.5S58.1,86.4,58,86
				c-0.1-0.3-0.2-0.7-0.2-1.1c0-0.4,0.1-0.7,0.2-1c0.1-0.3,0.3-0.6,0.5-0.8c0.2-0.2,0.5-0.4,0.8-0.6c0.3-0.1,0.6-0.2,1-0.2
				c0.4,0,0.7,0.1,1,0.2c0.3,0.1,0.5,0.3,0.7,0.6c0.2,0.2,0.3,0.5,0.5,0.8c0.1,0.3,0.2,0.7,0.2,1v0.3H58.7z M61.6,84.6
				c0-0.5-0.2-0.8-0.4-1.1c-0.2-0.3-0.6-0.4-1-0.4c-0.4,0-0.8,0.1-1,0.4s-0.4,0.6-0.5,1.1H61.6z"/>
			<path fill="#504D4C" d="M67.4,86.2c0,0.4-0.2,0.8-0.5,1c-0.4,0.3-0.9,0.4-1.5,0.4c-0.3,0-0.6,0-1-0.1c-0.4-0.1-0.7-0.2-0.9-0.3
				l0.2-0.7c0.3,0.1,0.6,0.2,0.9,0.3s0.6,0.1,0.9,0.1c0.8,0,1.1-0.2,1.1-0.7c0-0.1,0-0.2-0.1-0.3c0-0.1-0.1-0.1-0.2-0.2
				c-0.1-0.1-0.2-0.1-0.4-0.2c-0.2-0.1-0.4-0.2-0.7-0.3c-0.3-0.1-0.6-0.2-0.8-0.4s-0.4-0.2-0.5-0.4c-0.1-0.1-0.2-0.3-0.3-0.4
				s-0.1-0.3-0.1-0.5c0-0.4,0.2-0.8,0.5-1c0.3-0.2,0.8-0.3,1.4-0.3c0.2,0,0.5,0,0.8,0.1s0.6,0.1,0.9,0.2l-0.1,0.7
				c-0.2-0.1-0.5-0.1-0.7-0.1c-0.3,0-0.5-0.1-0.8-0.1c-0.4,0-0.7,0-0.8,0.1c-0.2,0.1-0.2,0.2-0.2,0.4c0,0.1,0,0.2,0.1,0.3
				c0,0.1,0.1,0.1,0.2,0.2c0.1,0.1,0.2,0.1,0.4,0.2s0.3,0.2,0.6,0.2c0.3,0.1,0.6,0.3,0.8,0.4s0.4,0.2,0.5,0.3
				c0.1,0.1,0.2,0.2,0.3,0.4C67.4,85.8,67.4,86,67.4,86.2z"/>
		</g>
	</g>
	<g>
		<rect x="41.5" y="46.7" fill="#007DA0" width="5.8" height="1.1"/>
		<rect x="42.1" y="48.1" fill="#007DA0" width="4.7" height="0.8"/>
		<rect x="43.1" y="51" fill="#007DA0" width="2.7" height="0.8"/>
		<rect x="42.1" y="49.6" fill="#007DA0" width="4.7" height="0.8"/>
	</g>
</g>
</svg>
