<?xml version="1.0" encoding="utf-8"?>
<!-- Generator: Adobe Illustrator 19.1.0, SVG Export Plug-In . SVG Version: 6.00 Build 0)  -->
<svg version="1.1" id="Layer_1" xmlns="http://www.w3.org/2000/svg" xmlns:xlink="http://www.w3.org/1999/xlink" x="0px" y="0px"
	 viewBox="-217 212.6 75.3 92" style="enable-background:new -217 212.6 75.3 92;" xml:space="preserve">
<metadata><?xpacket begin="﻿" id="W5M0MpCehiHzreSzNTczkc9d"?>
<x:xmpmeta xmlns:x="adobe:ns:meta/" x:xmptk="Adobe XMP Core 5.6-c067 79.157747, 2015/03/30-23:40:42        ">
   <rdf:RDF xmlns:rdf="http://www.w3.org/1999/02/22-rdf-syntax-ns#">
      <rdf:Description rdf:about=""/>
   </rdf:RDF>
</x:xmpmeta>
                                                                                                    
                                                                                                    
                                                                                                    
                                                                                                    
                                                                                                    
                                                                                                    
                                                                                                    
                                                                                                    
                                                                                                    
                                                                                                    
                                                                                                    
                                                                                                    
                                                                                                    
                                                                                                    
                                                                                                    
                                                                                                    
                                                                                                    
                                                                                                    
                                                                                                    
                                                                                                    
                           
<?xpacket end="w"?></metadata>
<style type="text/css">
	.st0{fill:#FFB700;}
	.st1{clip-path:url(#SVGID_2_);fill:#DB9701;}
	.st2{fill:#FFFFFF;}
	.st3{clip-path:url(#SVGID_4_);fill:#FC7415;}
	.st4{fill:none;stroke:#0094C2;stroke-width:0.7895;stroke-miterlimit:3.8636;}
	.st5{fill:#8B9722;}
	.st6{fill:#504D4C;}
	.st7{fill:#007DA0;}
</style>
<g>
	<path class="st0" d="M-203.2,218.1c0-3,2.5-5.5,5.5-5.5h50.4c3,0,5.5,2.5,5.5,5.5v50.4c0,3-2.5,5.5-5.5,5.5h-50.4
		c-3,0-5.5-2.5-5.5-5.5C-203.2,268.5-203.2,218.1-203.2,218.1z"/>
	<g>
		<g>
			<defs>
				<path id="SVGID_1_" d="M-203.2,218.1c0-3,2.5-5.5,5.5-5.5h50.4c3,0,5.5,2.5,5.5,5.5v50.4c0,3-2.5,5.5-5.5,5.5h-50.4
					c-3,0-5.5-2.5-5.5-5.5C-203.2,268.5-203.2,218.1-203.2,218.1z"/>
			</defs>
			<clipPath id="SVGID_2_">
				<use xlink:href="#SVGID_1_"  style="overflow:visible;"/>
			</clipPath>
			<path class="st1" d="M-156.4,265.6l-5.1,10.1H-217l28.1-56.1C-188.9,219.6-157,264-156.4,265.6z"/>
		</g>
	</g>
	<polygon class="st2" points="-188.8,219.6 -165.5,219.6 -156.3,229.4 -156.3,265.7 -188.8,265.7 	"/>
	<g>
		<g>
			<defs>
				<polygon id="SVGID_3_" points="-188.8,219.6 -165.5,219.6 -156.3,229.4 -156.3,265.7 -188.8,265.7 				"/>
			</defs>
			<clipPath id="SVGID_4_">
				<use xlink:href="#SVGID_3_"  style="overflow:visible;"/>
			</clipPath>
			<polygon class="st3" points="-165.9,218.9 -155.9,229.6 -165.9,229.6 			"/>
		</g>
	</g>
	<path class="st4" d="M-180,245.9c0-4.2,3.4-7.5,7.5-7.5s7.5,3.4,7.5,7.5c0,3.2-2,6-4.9,7.1v2.8h-5.3V253
		C-178,251.9-180,249.1-180,245.9z"/>
	<rect x="-190.1" y="245.9" class="st5" width="7.8" height="1.4"/>
	<rect x="-162.6" y="245.9" class="st5" width="7.8" height="1.4"/>
	
		<rect x="-165.5" y="235" transform="matrix(0.7071 -0.7071 0.7071 0.7071 -213.9536 -45.2122)" class="st5" width="7.8" height="1.4"/>
	<rect x="-173.2" y="227.3" class="st5" width="1.4" height="7.8"/>
	
		<rect x="-188" y="235.7" transform="matrix(-0.7073 -0.7069 0.7069 -0.7073 -481.4594 273.3985)" class="st5" width="7.8" height="1.4"/>
</g>
<g>
	<path class="st6" d="M-181.6,286.7v-8.8h6v1h-4.8v2.6h4.5v1h-4.5v3h4.8v1.1H-181.6z"/>
	<path class="st6" d="M-170.1,286.7c-0.2,0-0.6,0-0.9,0c-0.5,0-1-0.1-1.4-0.2s-0.8-0.4-1.1-0.8c-0.2-0.2-0.5-0.6-0.6-1
		s-0.2-0.9-0.2-1.2s0.1-0.9,0.2-1.2s0.4-0.8,0.6-1s0.6-0.5,1.1-0.8c0.4-0.1,0.9-0.2,1.4-0.2c0.2,0,0.5,0,0.8,0s0.5,0.1,0.9,0.2
		l-0.2,0.9c-0.2,0-0.5-0.1-0.6-0.1c-0.2,0-0.5,0-0.6,0c-0.4,0-0.8,0-1,0.1s-0.5,0.2-0.8,0.5s-0.4,0.5-0.5,0.8s-0.1,0.6-0.1,1
		c0,0.8,0.2,1.2,0.6,1.8s1,0.6,1.8,0.6c0.2,0,0.4,0,0.6,0s0.4-0.1,0.8-0.1l0.2,0.9C-169.6,286.6-169.9,286.7-170.1,286.7z"/>
	<path class="st6" d="M-162.1,283.4c0,0.5-0.1,0.9-0.2,1.2s-0.4,0.8-0.6,1c-0.3,0.2-0.6,0.5-1,0.8c-0.4,0.1-0.8,0.2-1.2,0.2
		c-0.5,0-0.9-0.1-1.2-0.2s-0.8-0.4-1-0.8c-0.2-0.2-0.5-0.6-0.6-1s-0.2-0.9-0.2-1.2c0-0.5,0.1-0.9,0.2-1.2c0.1-0.4,0.4-0.8,0.6-1
		s0.6-0.5,1-0.8c0.4-0.1,0.7-0.2,1.2-0.2c0.5,0,0.9,0.1,1.2,0.2s0.7,0.4,1,0.8c0.2,0.2,0.5,0.6,0.6,1
		C-162.1,282.6-162.1,282.9-162.1,283.4z M-163.3,283.4c0-0.4,0-0.6-0.1-1s-0.2-0.5-0.4-0.8s-0.4-0.4-0.6-0.5s-0.5-0.1-0.8-0.1
		s-0.6,0-0.8,0.1c-0.2,0.1-0.5,0.2-0.6,0.5s-0.2,0.5-0.4,0.8s-0.1,0.6-0.1,1s0,0.6,0.1,1c0.1,0.2,0.2,0.5,0.4,0.8s0.4,0.4,0.6,0.5
		s0.5,0.1,0.8,0.1s0.6,0,0.8-0.1c0.2-0.1,0.5-0.2,0.6-0.5c0.1-0.2,0.2-0.5,0.4-0.8C-163.3,284.1-163.3,283.8-163.3,283.4z"/>
	<path class="st6" d="M-196.4,300.1c0,0.4-0.1,0.6-0.2,1c-0.1,0.2-0.4,0.5-0.6,0.8s-0.6,0.4-1.1,0.5c-0.4,0.1-0.9,0.1-1.4,0.1
		c-0.6,0-1.1,0-1.8-0.1s-1.2-0.2-1.8-0.5l0.2-0.9c0.5,0.1,1.1,0.4,1.6,0.5s1.1,0.1,1.6,0.1c0.8,0,1.2-0.1,1.6-0.4s0.6-0.6,0.6-1
		c0-0.1,0-0.4-0.1-0.5s-0.1-0.2-0.4-0.4c-0.1-0.1-0.4-0.2-0.8-0.4c-0.2-0.1-0.8-0.2-1.2-0.5c-0.6-0.2-1-0.4-1.4-0.6
		s-0.8-0.4-0.9-0.6c-0.3-0.2-0.4-0.5-0.5-0.8s-0.1-0.5-0.1-0.9c0-0.8,0.2-1.2,0.9-1.6s1.4-0.5,2.5-0.5c0.2,0,0.5,0,0.8,0
		s0.5,0,0.8,0.1c0.2,0,0.5,0.1,0.8,0.1s0.5,0.1,0.8,0.1l-0.2,1c-0.5-0.1-0.9-0.2-1.4-0.2c-0.5-0.1-1-0.1-1.4-0.1
		c-0.8,0-1.4,0.1-1.6,0.2s-0.5,0.4-0.5,0.9c0,0.2,0,0.4,0.1,0.5s0.2,0.2,0.4,0.4c0.2,0.1,0.5,0.2,0.8,0.4c0.4,0.1,0.8,0.4,1.2,0.5
		c0.5,0.2,1,0.4,1.4,0.6c0.4,0.1,0.6,0.4,0.9,0.6s0.4,0.4,0.4,0.6C-196.5,299.6-196.4,299.8-196.4,300.1z"/>
	<path class="st6" d="M-190.6,302.3v-1.1c-0.2,0.4-0.5,0.6-0.9,0.9s-0.9,0.4-1.2,0.4c-0.8,0-1.2-0.2-1.6-0.6s-0.5-1-0.5-1.8v-4.1
		h1.1v4c0,0.5,0.1,0.9,0.4,1.1c0.2,0.2,0.5,0.4,1,0.4c0.2,0,0.5,0,0.6-0.1c0.2-0.1,0.4-0.2,0.6-0.4c0.1-0.1,0.4-0.4,0.4-0.6
		s0.1-0.5,0.1-0.9v-3.4h1.1v6.4h-1.1V302.3z"/>
	<path class="st6" d="M-181.9,301.7c0,0.9-0.2,1.6-0.9,2.1s-1.4,0.8-2.4,0.8c-0.2,0-0.6,0-1-0.1c-0.4-0.1-0.8-0.1-1.1-0.2l0.1-0.9
		c0.4,0.1,0.6,0.1,1,0.2c0.2,0,0.6,0,0.9,0c0.8,0,1.4-0.1,1.8-0.5s0.5-0.8,0.5-1.5v-0.6c-0.3,0.4-0.5,0.6-0.9,0.9
		c-0.4,0.2-0.7,0.2-1.2,0.2c-0.5,0-0.9-0.1-1.2-0.2c-0.4-0.1-0.6-0.4-0.9-0.8c-0.2-0.2-0.4-0.6-0.5-1s-0.1-0.8-0.1-1.2
		s0-0.9,0.1-1.2s0.2-0.8,0.5-1s0.5-0.5,0.9-0.8c0.4-0.1,0.8-0.2,1.2-0.2c0.4,0,0.9,0.1,1.2,0.2c0.4,0.2,0.6,0.5,0.9,0.9v-1h1.1
		V301.7z M-183,299.1c0-0.8-0.1-1.2-0.5-1.6s-0.8-0.6-1.4-0.6c-0.4,0-0.6,0-0.8,0.1c-0.2,0.1-0.4,0.2-0.5,0.5s-0.4,0.5-0.5,0.8
		s-0.1,0.6-0.1,0.9s0,0.6,0.1,0.9s0.1,0.5,0.4,0.8c0.1,0.2,0.4,0.4,0.5,0.5s0.5,0.1,0.8,0.1c0.6,0,1-0.2,1.4-0.6
		S-183,299.8-183,299.1z"/>
	<path class="st6" d="M-179.3,299.6c0,0.6,0.2,1.1,0.6,1.5s0.9,0.5,1.6,0.5c0.2,0,0.6,0,1-0.1c0.4,0,0.6-0.1,0.9-0.1l0.2,0.9
		c-0.4,0.1-0.8,0.2-1.1,0.2s-0.8,0.1-1,0.1c-0.5,0-1-0.1-1.5-0.2c-0.4-0.1-0.8-0.4-1.1-0.6c-0.4-0.2-0.5-0.6-0.6-1
		c-0.1-0.6-0.1-1-0.1-1.5s0.1-0.9,0.2-1.2s0.4-0.8,0.6-1s0.6-0.5,1-0.8c0.4-0.1,0.8-0.2,1.2-0.2s0.9,0.1,1.2,0.2s0.6,0.4,0.9,0.8
		c0.2,0.2,0.4,0.6,0.6,1c0.1,0.4,0.2,0.9,0.2,1.2v0.4H-179.3z M-175.6,298.7c0-0.6-0.2-1-0.5-1.4c-0.3-0.4-0.8-0.5-1.2-0.5
		c-0.5,0-1,0.1-1.2,0.5c-0.3,0.4-0.5,0.8-0.6,1.4H-175.6z"/>
	<path class="st6" d="M-168.4,300.7c0,0.5-0.2,1-0.6,1.2c-0.5,0.4-1.1,0.5-1.9,0.5c-0.4,0-0.8,0-1.2-0.1c-0.5-0.1-0.9-0.2-1.1-0.4
		l0.3-0.9c0.4,0.1,0.7,0.2,1.1,0.4c0.4,0.1,0.8,0.1,1.1,0.1c1,0,1.4-0.2,1.4-0.9c0-0.1,0-0.2-0.1-0.4c0-0.1-0.1-0.1-0.2-0.2
		s-0.2-0.1-0.5-0.2c-0.2-0.1-0.5-0.2-0.9-0.4c-0.4-0.1-0.8-0.2-1-0.5c-0.2-0.2-0.5-0.2-0.6-0.5c-0.1-0.1-0.2-0.4-0.4-0.5
		s-0.1-0.4-0.1-0.6c0-0.5,0.2-1,0.6-1.2s1-0.4,1.8-0.4c0.2,0,0.6,0,1,0.1s0.8,0.1,1.1,0.2l-0.1,0.9c-0.2-0.1-0.6-0.1-0.9-0.1
		c-0.4,0-0.6-0.1-1-0.1c-0.5,0-0.9,0-1,0.1c-0.2,0.1-0.2,0.2-0.2,0.5c0,0.1,0,0.2,0.1,0.4c0,0.1,0.1,0.1,0.2,0.2s0.2,0.1,0.5,0.2
		s0.4,0.2,0.8,0.2c0.4,0.1,0.8,0.4,1,0.5s0.5,0.2,0.6,0.4s0.2,0.2,0.4,0.5C-168.4,300.2-168.4,300.4-168.4,300.7z"/>
	<path class="st6" d="M-164.5,302.4c-0.1,0-0.2,0-0.4,0c-0.5,0-1-0.1-1.2-0.4c-0.4-0.4-0.5-0.8-0.5-1.5v-3.8h-0.9v-0.9h0.9v-1.8h1.1
		v1.8h1.2v0.9h-1.2v3.8c0,0.4,0.1,0.6,0.2,0.8s0.2,0.2,0.5,0.2c0.1,0,0.1,0,0.2,0s0.2,0,0.4,0l0.1,0.9
		C-164.1,302.3-164.3,302.4-164.5,302.4z"/>
	<path class="st6" d="M-156.8,299.2c0,0.5-0.1,0.9-0.2,1.2s-0.4,0.8-0.6,1s-0.6,0.5-1,0.8c-0.4,0.1-0.8,0.2-1.2,0.2
		s-0.9-0.1-1.2-0.2s-0.8-0.4-1-0.8c-0.2-0.2-0.5-0.6-0.6-1s-0.2-0.9-0.2-1.2c0-0.5,0.1-0.9,0.2-1.2s0.4-0.8,0.6-1s0.6-0.5,1-0.8
		c0.4-0.1,0.8-0.2,1.2-0.2s0.9,0.1,1.2,0.2s0.8,0.4,1,0.8c0.2,0.2,0.5,0.6,0.6,1S-156.8,298.7-156.8,299.2z M-157.9,299.2
		c0-0.4,0-0.6-0.1-1s-0.2-0.5-0.4-0.8s-0.4-0.4-0.6-0.5s-0.5-0.1-0.8-0.1s-0.6,0-0.8,0.1c-0.2,0.1-0.5,0.2-0.6,0.5
		c-0.4,0.2-0.5,0.5-0.5,0.8c-0.1,0.2-0.1,0.6-0.1,1s0,0.6,0.1,1c0.1,0.2,0.2,0.5,0.4,0.8s0.4,0.4,0.6,0.5s0.5,0.1,0.8,0.1
		s0.6,0,0.7-0.1c0.2-0.1,0.5-0.2,0.6-0.5c0.1-0.2,0.2-0.5,0.4-0.8C-158,299.8-157.9,299.4-157.9,299.2z M-158.1,294.3
		c-0.1,0.1-0.1,0.2-0.2,0.4c-0.1,0.1-0.2,0.2-0.4,0.2c-0.1,0.1-0.2,0.1-0.4,0.1s-0.2,0-0.4-0.1s-0.2-0.1-0.4-0.2s-0.2-0.1-0.4-0.2
		s-0.2-0.1-0.4-0.1s-0.1,0-0.2,0s-0.1,0.1-0.1,0.1c0,0.1-0.1,0.1-0.1,0.2s0,0.1-0.1,0.2l-0.4-0.1c0-0.1,0.1-0.2,0.1-0.4
		c0.1-0.1,0.1-0.2,0.2-0.4c0.1-0.1,0.2-0.2,0.4-0.2c0.1-0.1,0.2-0.1,0.4-0.1c0.1,0,0.2,0,0.5,0.1s0.2,0.1,0.4,0.2
		c0.1,0.1,0.2,0.1,0.4,0.2c0.1,0,0.2,0.1,0.4,0.1c0.1,0,0.1,0,0.3,0l0.1-0.1c0-0.1,0.1-0.1,0.1-0.2s0-0.1,0.1-0.2l0.5,0.2
		C-158,294.1-158,294.2-158.1,294.3z"/>
	<path class="st6" d="M-154.5,299.6c0,0.6,0.2,1.1,0.6,1.5s0.9,0.5,1.6,0.5c0.2,0,0.6,0,1-0.1c0.4,0,0.6-0.1,0.9-0.1l0.2,0.9
		c-0.4,0.1-0.8,0.2-1.1,0.2s-0.8,0.1-1,0.1c-0.5,0-1-0.1-1.5-0.2c-0.4-0.1-0.8-0.4-1.1-0.6c-0.4-0.2-0.4-0.8-0.5-1.2
		c-0.1-0.4-0.2-0.9-0.2-1.4s0.1-0.9,0.2-1.2s0.4-0.8,0.6-1s0.6-0.5,1-0.8c0.4-0.1,0.8-0.2,1.2-0.2s0.9,0.1,1.2,0.2s0.6,0.4,0.9,0.8
		c0.2,0.2,0.4,0.6,0.6,1c0.1,0.4,0.2,0.9,0.2,1.2v0.4h-5V299.6z M-150.9,298.7c0-0.6-0.2-1-0.5-1.4c-0.2-0.4-0.7-0.5-1.2-0.5
		c-0.5,0-1,0.1-1.2,0.5c-0.2,0.4-0.5,0.8-0.6,1.4H-150.9z"/>
	<path class="st6" d="M-143.6,300.7c0,0.5-0.2,1-0.6,1.2c-0.5,0.4-1.1,0.5-1.9,0.5c-0.4,0-0.8,0-1.2-0.1s-0.9-0.2-1.1-0.4l0.2-0.9
		c0.4,0.1,0.8,0.2,1.1,0.4c0.4,0.1,0.7,0.1,1.1,0.1c1,0,1.4-0.2,1.4-0.9c0-0.1,0-0.2-0.1-0.4c0-0.1-0.1-0.1-0.2-0.2
		s-0.2-0.1-0.5-0.2c-0.2-0.1-0.5-0.2-0.9-0.4c-0.4-0.1-0.8-0.2-1-0.5c-0.3-0.2-0.5-0.2-0.6-0.5c-0.1-0.1-0.2-0.4-0.4-0.5
		s-0.1-0.4-0.1-0.6c0-0.5,0.2-1,0.6-1.2s1-0.4,1.8-0.4c0.2,0,0.6,0,1,0.1s0.8,0.1,1.1,0.2l-0.1,0.9c-0.2-0.1-0.6-0.1-0.9-0.1
		c-0.4,0-0.6-0.1-1-0.1c-0.5,0-0.9,0-1,0.1c-0.2,0.1-0.2,0.2-0.2,0.5c0,0.1,0,0.2,0.1,0.4c0,0.1,0.1,0.1,0.2,0.2s0.2,0.1,0.5,0.2
		s0.4,0.2,0.8,0.2c0.4,0.1,0.8,0.4,1,0.5c0.3,0.1,0.5,0.2,0.6,0.4s0.2,0.2,0.4,0.5C-143.6,300.2-143.6,300.4-143.6,300.7z"/>
</g>
<g>
	<rect x="-175.5" y="259.3" class="st7" width="5.8" height="1.1"/>
	<rect x="-174.9" y="260.7" class="st7" width="4.7" height="0.8"/>
	<rect x="-173.9" y="263.6" class="st7" width="2.7" height="0.8"/>
	<rect x="-174.9" y="262.2" class="st7" width="4.7" height="0.8"/>
</g>
</svg>
