<!-- Generator: Adobe Illustrator 18.0.0, SVG Export Plug-In  -->
<svg version="1.1"
	 xmlns="http://www.w3.org/2000/svg" xmlns:xlink="http://www.w3.org/1999/xlink" xmlns:a="http://ns.adobe.com/AdobeSVGViewerExtensions/3.0/"
	 x="0px" y="0px" width="52.7px" height="68.7px" viewBox="0 0 52.7 68.7" enable-background="new 0 0 52.7 68.7"
	 xml:space="preserve">
<defs>
</defs>
<g>
	<rect x="0" fill="#3EB8C7" width="52.7" height="68.7"/>
	<rect x="26.5" y="63.4" width="23.8" height="2.4"/>
	<rect x="3" y="63.4" width="22.4" height="2.4"/>
	<path fill="#FFFFFF" d="M3.8,65.2h0.8V65H4.2v0l0.1-0.1c0.1-0.2,0.3-0.4,0.3-0.6c0-0.2-0.1-0.4-0.4-0.4c-0.3,0-0.4,0.1-0.4,0.4v0.1
		H4v0c0-0.1,0-0.1,0.1-0.1c0.1,0,0.1,0.1,0.1,0.1v0c0,0.1-0.1,0.2-0.2,0.4l-0.3,0.4V65.2z"/>
	<path fill="#FFFFFF" d="M5.1,64.5c-0.1,0-0.1,0-0.1-0.1v-0.2c0-0.1,0-0.1,0.1-0.1c0.1,0,0.1,0,0.1,0.1v0.1
		C5.2,64.5,5.2,64.5,5.1,64.5z M5.1,65.3c0.3,0,0.4-0.2,0.4-0.4v-0.6c0-0.2-0.2-0.4-0.4-0.4c-0.2,0-0.4,0.1-0.4,0.4v0.2
		c0,0.2,0.1,0.3,0.3,0.3c0.1,0,0.2,0,0.2-0.1v0.3c0,0.1,0,0.1-0.1,0.1C5,65,5,65,5,64.9v-0.1H4.7v0.1C4.7,65.1,4.9,65.3,5.1,65.3z"
		/>
	<polygon fill="#FFFFFF" points="6,65.2 6.3,65.2 6.3,64.4 6.3,64.4 6.5,65 6.7,65 6.9,64.4 6.9,64.4 6.9,65.2 7.2,65.2 7.2,63.9 
		6.8,63.9 6.6,64.5 6.6,64.5 6.4,63.9 6,63.9 	"/>
	<path fill="#FFFFFF" d="M7.8,64.7l0.1-0.5h0L8,64.7H7.8z M7.3,65.2h0.3L7.7,65h0.4l0.1,0.3h0.3l-0.4-1.3H7.7L7.3,65.2z"/>
	<rect x="8.6" y="63.9" fill="#FFFFFF" width="0.3" height="1.3"/>
	<path fill="#FFFFFF" d="M9.6,65c-0.1,0-0.2-0.1-0.2-0.2v-0.4c0-0.1,0.1-0.2,0.2-0.2c0.1,0,0.2,0.1,0.2,0.2v0.5
		C9.8,64.9,9.7,65,9.6,65z M9.6,65.3c0.3,0,0.5-0.1,0.5-0.5v-0.4c0-0.3-0.2-0.5-0.5-0.5c-0.3,0-0.5,0.1-0.5,0.5v0.4
		C9.1,65.1,9.4,65.3,9.6,65.3z"/>
	<rect x="10.5" y="64.6" fill="#FFFFFF" width="0.7" height="0.2"/>
	<path fill="#FFFFFF" d="M11.9,65v-0.8h0.1c0.1,0,0.2,0.1,0.2,0.2v0.4c0,0.1,0,0.2-0.2,0.2H11.9z M11.6,65.2h0.5
		c0.3,0,0.5-0.1,0.5-0.4v-0.5c0-0.3-0.2-0.4-0.5-0.4h-0.5V65.2z"/>
	<rect x="12.8" y="63.9" fill="#FFFFFF" width="0.3" height="1.3"/>
	<path fill="#FFFFFF" d="M13.7,64.7l0.1-0.5h0l0.1,0.5H13.7z M13.2,65.2h0.3l0.1-0.3H14l0.1,0.3h0.3L14,63.9h-0.4L13.2,65.2z"/>
	<path fill="#FFFFFF" d="M15.1,65v-0.8h0.1c0.1,0,0.2,0.1,0.2,0.2v0.4c0,0.1,0,0.2-0.2,0.2H15.1z M14.8,65.2h0.5
		c0.3,0,0.5-0.1,0.5-0.4v-0.5c0-0.3-0.2-0.4-0.5-0.4h-0.5V65.2z"/>
	<path fill="#FFFFFF" d="M16.3,64.7l0.1-0.5h0l0.1,0.5H16.3z M15.8,65.2h0.3l0.1-0.3h0.4l0.1,0.3H17l-0.4-1.3h-0.4L15.8,65.2z"/>
	<polygon fill="#FFFFFF" points="17.4,65.2 18.3,65.2 18.3,65 17.7,65 17.7,64.7 18.2,64.7 18.2,64.4 17.7,64.4 17.7,64.2 
		18.3,64.2 18.3,63.9 17.4,63.9 	"/>
	<polygon fill="#FFFFFF" points="18.5,65.2 18.8,65.2 18.8,64.5 18.8,64.5 19.2,65.2 19.5,65.2 19.5,63.9 19.2,63.9 19.2,64.6 
		19.2,64.6 18.8,63.9 18.5,63.9 	"/>
	<polygon fill="#FFFFFF" points="19.7,65.2 20.5,65.2 20.5,65 20,65 20,64.7 20.4,64.7 20.4,64.4 20,64.4 20,64.2 20.5,64.2 
		20.5,63.9 19.7,63.9 	"/>
	<path fill="#FFFFFF" d="M21,64.5v-0.3h0.2c0.1,0,0.2,0.1,0.2,0.2c0,0.1-0.1,0.2-0.2,0.2H21z M20.7,65.2H21v-0.5h0.1l0.2,0.5h0.4
		l-0.2-0.5c0.1-0.1,0.2-0.2,0.2-0.4c0-0.2-0.1-0.4-0.4-0.4h-0.5V65.2z"/>
	<path fill="#FFFFFF" d="M22.3,65.3c0.2,0,0.5-0.1,0.5-0.4l0-0.3h-0.5v0.2h0.2v0.1c0,0.1,0,0.1-0.2,0.1c-0.1,0-0.2-0.1-0.2-0.2v-0.5
		c0-0.1,0.1-0.2,0.2-0.2c0.1,0,0.2,0.1,0.2,0.1v0.1h0.3v-0.1c0-0.3-0.2-0.4-0.5-0.4c-0.3,0-0.5,0.1-0.5,0.4v0.5
		C21.8,65.1,22.1,65.3,22.3,65.3z"/>
	<rect x="23" y="63.9" fill="#FFFFFF" width="0.3" height="1.3"/>
	<path fill="#FFFFFF" d="M23.9,64.7l0.1-0.5h0l0.1,0.5H23.9z M23.4,65.2h0.3l0.1-0.3h0.4l0.1,0.3h0.3l-0.4-1.3h-0.4L23.4,65.2z"/>
	<path fill="#FFFFFF" d="M27.3,65.3c0.2,0,0.4-0.1,0.4-0.4v-0.2c0-0.2-0.2-0.3-0.3-0.3c-0.1,0-0.2,0-0.2,0.1c0-0.2,0-0.2,0-0.3h0.5
		v-0.3H27l0,0.7l0.3,0c0,0,0.1-0.1,0.1-0.1c0.1,0,0.1,0,0.1,0.1v0.1c0,0.1,0,0.1-0.1,0.1c-0.1,0-0.1,0-0.1-0.1v-0.1h-0.3v0.1
		C26.9,65.1,27.1,65.3,27.3,65.3z"/>
	<path fill="#FFFFFF" d="M28.7,65.3c0.3,0,0.5-0.2,0.5-0.4v-0.9h-0.3v0.9c0,0.1,0,0.1-0.1,0.1c-0.1,0-0.1-0.1-0.1-0.1v-0.1h-0.3v0.1
		C28.2,65.1,28.4,65.3,28.7,65.3z"/>
	<path fill="#FFFFFF" d="M29.8,65.3c0.3,0,0.5-0.2,0.5-0.4v-0.9H30v0.9c0,0.1-0.1,0.2-0.2,0.2c-0.1,0-0.2-0.1-0.2-0.2v-0.9h-0.3v0.9
		C29.3,65.1,29.5,65.3,29.8,65.3z"/>
	<polygon fill="#FFFFFF" points="30.5,65.2 30.8,65.2 30.8,64.5 30.8,64.5 31.2,65.2 31.5,65.2 31.5,63.9 31.2,63.9 31.2,64.6 
		31.2,64.6 30.8,63.9 30.5,63.9 	"/>
	<polygon fill="#FFFFFF" points="31.7,65.2 32,65.2 32,64.7 32.4,64.7 32.4,65.2 32.7,65.2 32.7,63.9 32.4,63.9 32.4,64.4 32,64.4 
		32,63.9 31.7,63.9 	"/>
	<path fill="#FFFFFF" d="M33.4,65c-0.1,0-0.2-0.1-0.2-0.2v-0.4c0-0.1,0.1-0.2,0.2-0.2c0.1,0,0.2,0.1,0.2,0.2v0.5
		C33.5,64.9,33.5,65,33.4,65z M33.4,65.3c0.3,0,0.5-0.1,0.5-0.5v-0.4c0-0.3-0.2-0.5-0.5-0.5c-0.3,0-0.5,0.1-0.5,0.5v0.4
		C32.9,65.1,33.1,65.3,33.4,65.3z"/>
	<rect x="34.2" y="64.6" fill="#FFFFFF" width="0.7" height="0.2"/>
	<path fill="#FFFFFF" d="M35.7,65v-0.8h0.1c0.1,0,0.2,0.1,0.2,0.2v0.4c0,0.1,0,0.2-0.2,0.2H35.7z M35.3,65.2h0.5
		c0.3,0,0.5-0.1,0.5-0.4v-0.5c0-0.3-0.2-0.4-0.5-0.4h-0.5V65.2z"/>
	<rect x="36.5" y="63.9" fill="#FFFFFF" width="0.3" height="1.3"/>
	<path fill="#FFFFFF" d="M37.4,64.7l0.1-0.5h0l0.1,0.5H37.4z M37,65.2h0.3l0.1-0.3h0.4l0.1,0.3h0.3l-0.4-1.3h-0.4L37,65.2z"/>
	<path fill="#FFFFFF" d="M38.8,65v-0.8H39c0.1,0,0.2,0.1,0.2,0.2v0.4c0,0.1,0,0.2-0.2,0.2H38.8z M38.5,65.2H39
		c0.3,0,0.5-0.1,0.5-0.4v-0.5c0-0.3-0.2-0.4-0.5-0.4h-0.5V65.2z"/>
	<path fill="#FFFFFF" d="M40.1,65C40,65,40,64.9,40,64.8v-0.4c0-0.1,0.1-0.2,0.2-0.2c0.1,0,0.2,0.1,0.2,0.2v0.5
		C40.3,64.9,40.2,65,40.1,65z M40.1,65.3c0.3,0,0.5-0.1,0.5-0.5v-0.4c0-0.3-0.2-0.5-0.5-0.5c-0.3,0-0.5,0.1-0.5,0.5v0.4
		C39.6,65.1,39.9,65.3,40.1,65.3z"/>
	<path fill="#FFFFFF" d="M41.5,64.7l0.1-0.5h0l0.1,0.5H41.5z M41,65.2h0.3l0.1-0.3h0.4l0.1,0.3h0.3l-0.4-1.3h-0.4L41,65.2z"/>
	<polygon fill="#FFFFFF" points="42.3,65.2 42.6,65.2 42.6,64.4 42.6,64.4 42.8,65 43,65 43.2,64.4 43.2,64.4 43.2,65.2 43.5,65.2 
		43.5,63.9 43.1,63.9 42.9,64.5 42.9,64.5 42.7,63.9 42.3,63.9 	"/>
	<path fill="#FFFFFF" d="M44,64.5v-0.3h0.2c0.1,0,0.1,0,0.1,0.1c0,0.1-0.1,0.1-0.1,0.1H44z M44,65v-0.3h0.2c0.1,0,0.1,0,0.1,0.1
		c0,0.1-0.1,0.1-0.1,0.1H44z M43.7,65.2h0.6c0.2,0,0.4-0.1,0.4-0.4c0-0.1-0.1-0.3-0.2-0.3v0c0.1,0,0.2-0.2,0.2-0.3
		c0-0.2-0.1-0.3-0.4-0.3h-0.6V65.2z"/>
	<rect x="44.9" y="63.9" fill="#FFFFFF" width="0.3" height="1.3"/>
	<polygon fill="#FFFFFF" points="45.4,65.2 46.3,65.2 46.3,65 45.7,65 45.7,64.7 46.1,64.7 46.1,64.4 45.7,64.4 45.7,64.2 
		46.3,64.2 46.3,63.9 45.4,63.9 	"/>
	<polygon fill="#FFFFFF" points="46.4,65.2 46.7,65.2 46.7,64.5 46.7,64.5 47.2,65.2 47.4,65.2 47.4,63.9 47.1,63.9 47.1,64.6 
		47.1,64.6 46.8,63.9 46.4,63.9 	"/>
	<polygon fill="#FFFFFF" points="47.9,65.2 48.2,65.2 48.2,64.2 48.6,64.2 48.6,63.9 47.6,63.9 47.6,64.2 47.9,64.2 	"/>
	<polygon fill="#FFFFFF" points="48.7,65.2 49.6,65.2 49.6,65 49,65 49,64.7 49.5,64.7 49.5,64.4 49,64.4 49,64.2 49.6,64.2 
		49.6,63.9 48.7,63.9 	"/>
	<polyline fill="none" stroke="#000000" stroke-width="0.915" stroke-linecap="round" stroke-linejoin="round" points="4.2,23.7 
		11.7,23.7 13.7,25.7 13.7,29.8 16.1,32.2 23.1,32.2 23.1,39.9 17.5,45.5 17.5,51.5 	"/>
	<polyline fill="none" stroke="#000000" stroke-width="0.915" stroke-linecap="round" stroke-linejoin="round" points="28.1,54.7 
		32.1,54.7 32.1,42.2 28.1,38.4 24.2,38.4 21.1,35.2 15.7,35.2 12.6,38.3 12.6,42.9 7,42.9 	"/>
	<polyline fill="none" stroke="#000000" stroke-width="0.915" stroke-linecap="round" stroke-linejoin="round" points="23.1,59.7 
		23.1,51.1 26.4,47.9 26.4,43 23.1,39.9 23.1,25.4 21.2,23.6 21.2,6.8 19.7,5.2 17.2,5.2 	"/>
	<polyline fill="none" stroke="#000000" stroke-width="0.915" stroke-linecap="round" stroke-linejoin="round" points="12.9,2.5 
		12.9,15.5 18.3,21 18.3,31.8 	"/>
	<polyline fill="none" stroke="#000000" stroke-width="0.915" stroke-linecap="round" stroke-linejoin="round" points="23.1,32.2 
		27.2,28.5 27.2,23.7 25,21.5 25,9.7 	"/>
	<path fill="none" stroke="#000000" stroke-width="0.915" stroke-linecap="round" stroke-linejoin="round" d="M23.1,35.2h11.8
		l3.6,3.6v9.3c0,1.8-1.1,2.7-2.8,2.7H34"/>
	<polyline fill="none" stroke="#000000" stroke-width="0.915" stroke-linecap="round" stroke-linejoin="round" points="25.8,35.2 
		25.8,33.7 29.8,29.7 38.6,29.7 41.3,32.4 50.1,32.4 	"/>
	<polyline fill="none" stroke="#000000" stroke-width="0.915" stroke-linecap="round" stroke-linejoin="round" points="27.2,28.5 
		28.8,26.9 32.5,26.9 33.9,25.5 33.9,10 36.7,7.2 36.7,2 	"/>
	<circle cx="36.4" cy="26.1" r="6.1"/>
	<rect x="13.8" y="34.5" transform="matrix(1 3.426512e-03 -3.426512e-03 1 0.1264 -9.580968e-02)" width="28.5" height="4.6"/>
	<rect x="13.6" y="26.6" transform="matrix(0.9963 -8.541472e-02 8.541472e-02 0.9963 -2.382 2.0607)" width="18.6" height="4.6"/>
	<rect x="12.2" y="30.4" transform="matrix(0.9996 -2.946701e-02 2.946701e-02 0.9996 -0.9534 0.7901)" width="28.3" height="4.6"/>
	<path fill="#FFFFFF" d="M13.6,34.1l-0.1-1.9l0.3,0c0.3,0,0.4,0.1,0.4,0.4l0,1.1c0,0.2-0.1,0.4-0.4,0.4L13.6,34.1z M12.8,34.8l1.3,0
		c0.6,0,1.2-0.4,1.1-1.1l0-1.2c0-0.7-0.6-1-1.2-0.9l-1.3,0L12.8,34.8z"/>
	<path fill="#FFFFFF" d="M16.4,33.4l0.3-1.2l0,0l0.3,1.2L16.4,33.4z M15.4,34.7l0.8,0l0.1-0.6l1,0l0.2,0.6l0.8,0l-1-3.2l-1,0
		L15.4,34.7z"/>
	<polygon fill="#FFFFFF" points="19.2,34.6 21.4,34.5 21.3,33.8 20,33.9 20,33.2 21,33.2 21,32.6 20,32.6 19.9,32 21.3,31.9 
		21.2,31.3 19.1,31.4 	"/>
	<polygon fill="#FFFFFF" points="21.8,34.5 22.5,34.5 22.4,32.6 22.5,32.6 23.6,34.4 24.3,34.4 24.2,31.2 23.4,31.2 23.5,32.9 
		23.5,32.9 22.5,31.2 21.7,31.3 	"/>
	<polygon fill="#FFFFFF" points="24.7,34.4 26.9,34.3 26.9,33.7 25.6,33.7 25.5,33.1 26.6,33 26.6,32.4 25.5,32.4 25.5,31.8 
		26.8,31.7 26.8,31.1 24.6,31.2 	"/>
	<path fill="#FFFFFF" d="M28.1,32.5l0-0.8l0.4,0c0.2,0,0.4,0.2,0.4,0.4c0,0.3-0.1,0.4-0.4,0.4L28.1,32.5z M27.3,34.3l0.8,0l0-1.2
		l0.3,0l0.5,1.1l0.9,0l-0.7-1.3c0.4-0.2,0.5-0.5,0.5-0.9c0-0.6-0.4-1-1.1-1l-1.3,0L27.3,34.3z"/>
	<path fill="#FFFFFF" d="M31.3,34.2c0.6,0,1.2-0.4,1.1-1l0-0.8l-1.2,0l0,0.6l0.4,0l0,0.2c0,0.2-0.1,0.4-0.4,0.4
		c-0.3,0-0.4-0.2-0.4-0.4l0-1.2c0-0.3,0.2-0.4,0.4-0.4c0.2,0,0.4,0.1,0.4,0.4l0,0.2l0.7,0l0-0.2c0-0.7-0.6-0.9-1.2-0.9
		c-0.7,0-1.2,0.4-1.2,1.1l0,1.2C30.1,33.9,30.7,34.2,31.3,34.2z"/>
	
		<rect x="32.9" y="30.9" transform="matrix(-0.9994 3.492423e-02 -3.492423e-02 -0.9994 67.6648 63.7777)" fill="#FFFFFF" width="0.8" height="3.2"/>
	<path fill="#FFFFFF" d="M35.1,32.8l0.3-1.2l0,0l0.3,1.2L35.1,32.8z M34,34.1l0.8,0l0.1-0.6l1,0l0.2,0.6l0.8,0l-1-3.2l-1,0L34,34.1z
		"/>
	<polygon fill="#FFFFFF" points="37.8,33.9 40,33.9 40,33.2 38.6,33.2 38.6,32.6 39.7,32.6 39.7,31.9 38.6,31.9 38.6,31.3 
		39.9,31.3 39.9,30.6 37.7,30.7 	"/>
	<path fill="#FFFFFF" d="M15.4,31.1c0.6,0,1.2-0.5,1.1-1.1c0-0.4-0.3-0.7-0.7-0.8L15.3,29c-0.2-0.1-0.4-0.1-0.4-0.3
		c0-0.2,0.1-0.3,0.3-0.3c0.2,0,0.4,0.1,0.6,0.3l0.4-0.5c-0.3-0.3-0.7-0.4-1.1-0.4c-0.7,0.1-1.1,0.5-1,1.1c0,0.4,0.3,0.7,0.7,0.9
		l0.5,0.2c0.2,0.1,0.3,0.1,0.3,0.3c0,0.2-0.1,0.3-0.4,0.3c-0.3,0-0.5-0.2-0.7-0.3l-0.5,0.5C14.5,31,15,31.1,15.4,31.1z"/>
	<polygon fill="#FFFFFF" points="17,30.9 19.2,30.8 19.1,30.1 17.8,30.2 17.7,29.5 18.8,29.5 18.7,28.8 17.7,28.9 17.6,28.3 
		19,28.2 18.9,27.5 16.8,27.7 	"/>
	<polygon fill="#FFFFFF" points="19.6,30.7 20.3,30.7 20.2,28.5 20.2,28.5 20.8,30 21.3,29.9 21.7,28.4 21.7,28.4 21.9,30.5 
		22.6,30.5 22.4,27.3 21.3,27.4 21,28.7 21,28.7 20.4,27.4 19.4,27.5 	"/>
	<path fill="#FFFFFF" d="M23.9,29.1l0.2-1.2l0,0l0.4,1.1L23.9,29.1z M22.9,30.5l0.8-0.1l0.1-0.6l1-0.1l0.2,0.6l0.8-0.1l-1.2-3.2
		l-1,0.1L22.9,30.5z"/>
	<polygon fill="#FFFFFF" points="26.1,30.2 26.8,30.2 26.7,28.3 26.7,28.3 27.9,30.1 28.6,30 28.4,26.8 27.6,26.9 27.7,28.5 
		27.7,28.5 26.7,26.9 25.8,27 	"/>
	<path fill="#FFFFFF" d="M29.9,28.7l0.2-1.2l0,0l0.4,1.1L29.9,28.7z M28.9,30l0.8-0.1l0.1-0.6l1-0.1l0.2,0.6l0.8-0.1l-1.2-3.2
		l-1,0.1L28.9,30z"/>
	<path fill="#FFFFFF" d="M15.2,37.7l0-1.9l0.3,0c0.3,0,0.4,0.2,0.4,0.4l0,1.1c0,0.2-0.1,0.4-0.4,0.4L15.2,37.7z M14.4,38.3l1.3,0
		c0.6,0,1.2-0.3,1.2-1l0-1.2c0-0.7-0.5-1-1.2-1l-1.3,0L14.4,38.3z"/>
	<path fill="#FFFFFF" d="M18.4,37.8c-0.3,0-0.4-0.2-0.4-0.4l0-1.1c0-0.3,0.1-0.4,0.4-0.4c0.2,0,0.4,0.1,0.4,0.4l0,1.1
		C18.8,37.6,18.7,37.8,18.4,37.8z M18.4,38.4c0.7,0,1.3-0.3,1.3-1.1l0-1.1c0-0.8-0.6-1.1-1.3-1.1c-0.7,0-1.3,0.4-1.3,1.1l0,1.1
		C17.1,38.1,17.7,38.4,18.4,38.4z"/>
	<path fill="#FFFFFF" d="M21.6,37.1l0.3-1.2l0,0l0.3,1.2L21.6,37.1z M20.5,38.4l0.8,0l0.2-0.6l1,0l0.2,0.6l0.8,0l-0.9-3.2l-1,0
		L20.5,38.4z"/>
	<polygon fill="#FFFFFF" points="23.7,38.4 24.4,38.4 24.4,36.3 24.4,36.3 24.9,37.8 25.5,37.8 26,36.3 26,36.3 25.9,38.4 
		26.7,38.4 26.7,35.2 25.7,35.2 25.2,36.5 25.2,36.5 24.7,35.2 23.7,35.2 	"/>
	<path fill="#FFFFFF" d="M28,36.5l0-0.7l0.4,0c0.2,0,0.3,0.1,0.3,0.3c0,0.2-0.1,0.4-0.4,0.4L28,36.5z M28,37.8l0-0.7l0.4,0
		c0.2,0,0.4,0.1,0.4,0.3c0,0.2-0.1,0.4-0.3,0.4L28,37.8z M27.1,38.4l1.5,0c0.6,0,0.9-0.4,0.9-0.9c0-0.4-0.2-0.7-0.6-0.8v0
		c0.3-0.1,0.5-0.4,0.5-0.8c0-0.5-0.3-0.8-0.9-0.8l-1.5,0L27.1,38.4z"/>
	
		<rect x="30" y="35.2" transform="matrix(-1 -8.104625e-03 8.104625e-03 -1 60.481 73.9662)" fill="#FFFFFF" width="0.8" height="3.2"/>
	<polygon fill="#FFFFFF" points="31.3,38.5 33.4,38.5 33.4,37.8 32.1,37.8 32.1,37.2 33.1,37.2 33.2,36.5 32.1,36.5 32.1,35.9 
		33.4,35.9 33.4,35.3 31.3,35.2 	"/>
	<polygon fill="#FFFFFF" points="33.8,38.5 34.6,38.5 34.6,36.7 34.6,36.7 35.6,38.5 36.3,38.5 36.4,35.3 35.6,35.3 35.6,36.9 
		35.6,36.9 34.7,35.3 33.9,35.3 	"/>
	<polygon fill="#FFFFFF" points="37.5,38.5 38.3,38.5 38.3,36 39.1,36 39.2,35.3 36.7,35.3 36.7,36 37.5,36 	"/>
	<polygon fill="#FFFFFF" points="39.4,38.5 41.6,38.6 41.6,37.9 40.3,37.9 40.3,37.2 41.3,37.3 41.3,36.6 40.3,36.6 40.3,36 
		41.6,36 41.6,35.3 39.5,35.3 	"/>
	<path fill="#FFFFFF" d="M37.5,27l0.3-0.3c0,0,0.2,0.3,0.6,0.4c0.3,0.1,0.5-0.1,0.6-0.3c0.1-0.3-0.2-0.5-0.5-0.6
		c-0.3-0.1-0.5,0-0.5,0l-0.2-0.1l0.4-1.1c0.1-0.2,0.1-0.2,0.3-0.2l1,0.2c0.2,0,0.2,0.1,0.2,0.3l-0.1,0.4l-0.4-0.1l0-0.2
		c0-0.1,0-0.1-0.1-0.1l-0.4-0.1c-0.1,0-0.1,0-0.1,0.1l-0.1,0.4c0,0.1,0,0.1,0,0.1c0,0,0.1,0,0.3,0c0.6,0.1,0.9,0.6,0.8,1.1
		c-0.1,0.5-0.6,0.8-1.2,0.7C37.7,27.4,37.5,27,37.5,27z"/>
	<path fill="#FFFFFF" d="M37.5,27l0.3-0.3c0,0,0.2,0.3,0.6,0.4c0.3,0.1,0.5-0.1,0.6-0.3c0.1-0.3-0.2-0.5-0.5-0.6
		c-0.3-0.1-0.5,0-0.5,0l-0.2-0.1l0.4-1.1c0.1-0.2,0.1-0.2,0.3-0.2l1,0.2c0.2,0,0.2,0.1,0.2,0.3l-0.1,0.4l-0.4-0.1l0-0.2
		c0-0.1,0-0.1-0.1-0.1l-0.4-0.1c-0.1,0-0.1,0-0.1,0.1l-0.1,0.4c0,0.1,0,0.1,0,0.1c0,0,0.1,0,0.3,0c0.6,0.1,0.9,0.6,0.8,1.1
		c-0.1,0.5-0.6,0.8-1.2,0.7C37.7,27.4,37.5,27,37.5,27z"/>
	
		<rect x="35.5" y="27.2" transform="matrix(-0.2244 0.9745 -0.9745 -0.2244 70.267 -1.2843)" fill="#FFFFFF" width="0.2" height="0.2"/>
	
		<rect x="35.5" y="27.2" transform="matrix(-0.2244 0.9745 -0.9745 -0.2244 70.267 -1.2843)" fill="#FFFFFF" width="0.2" height="0.2"/>
	<path fill="#FFFFFF" d="M35,28.7C35,28.7,35,28.7,35,28.7c0.1,0,0.2,0,0.3-0.1l0.2-0.7c0,0,0,0,0-0.1l-0.1,0l0-0.2l0.2,0.1
		c0.1,0,0.1,0.1,0.1,0.2l-0.2,0.9c-0.1,0.3-0.4,0.3-0.5,0.3c0,0-0.1,0-0.1,0L35,28.7z"/>
	<path fill="#FFFFFF" d="M35,28.7C35,28.7,35,28.7,35,28.7c0.1,0,0.2,0,0.3-0.1l0.2-0.7c0,0,0,0,0-0.1l-0.1,0l0-0.2l0.2,0.1
		c0.1,0,0.1,0.1,0.1,0.2l-0.2,0.9c-0.1,0.3-0.4,0.3-0.5,0.3c0,0-0.1,0-0.1,0L35,28.7z"/>
	<path fill="#FFFFFF" d="M35.9,28.3l0.1-0.4c0,0,0,0,0-0.1l-0.1,0l0-0.2l0.2,0.1c0.1,0,0.1,0.1,0.1,0.2l-0.1,0.5
		c0,0.1,0,0.2,0.1,0.2c0.2,0,0.3-0.1,0.4-0.3l0.1-0.4l0.2,0.1l-0.2,0.7c0,0,0,0,0,0.1l0.1,0l0,0.2l-0.2-0.1c-0.1,0-0.1-0.1-0.1-0.1
		l0,0c0,0,0,0,0,0c-0.1,0.1-0.2,0.2-0.4,0.1C35.9,28.7,35.8,28.6,35.9,28.3z"/>
	<path fill="#FFFFFF" d="M35.9,28.3l0.1-0.4c0,0,0,0,0-0.1l-0.1,0l0-0.2l0.2,0.1c0.1,0,0.1,0.1,0.1,0.2l-0.1,0.5
		c0,0.1,0,0.2,0.1,0.2c0.2,0,0.3-0.1,0.4-0.3l0.1-0.4l0.2,0.1l-0.2,0.7c0,0,0,0,0,0.1l0.1,0l0,0.2l-0.2-0.1c-0.1,0-0.1-0.1-0.1-0.1
		l0,0c0,0,0,0,0,0c-0.1,0.1-0.2,0.2-0.4,0.1C35.9,28.7,35.8,28.6,35.9,28.3z"/>
	<path fill="#FFFFFF" d="M37,29l0.2-0.7c0,0,0,0,0-0.1l-0.1,0l0-0.2l0.2,0.1c0.1,0,0.1,0.1,0.1,0.1l0,0c0,0,0,0,0,0
		c0.1-0.1,0.2-0.2,0.4-0.1c0.2,0,0.3,0.2,0.3,0.5L38,28.9c0,0,0,0,0,0.1l0.1,0l0,0.2l-0.2-0.1c-0.1,0-0.1-0.1-0.1-0.2l0.1-0.4
		c0-0.1,0-0.2-0.1-0.2c-0.1,0-0.2,0-0.3,0.1c0,0,0,0.1,0,0.1L37.2,29L37,29z"/>
	<path fill="#FFFFFF" d="M37,29l0.2-0.7c0,0,0,0,0-0.1l-0.1,0l0-0.2l0.2,0.1c0.1,0,0.1,0.1,0.1,0.1l0,0c0,0,0,0,0,0
		c0.1-0.1,0.2-0.2,0.4-0.1c0.2,0,0.3,0.2,0.3,0.5L38,28.9c0,0,0,0,0,0.1l0.1,0l0,0.2l-0.2-0.1c-0.1,0-0.1-0.1-0.1-0.2l0.1-0.4
		c0-0.1,0-0.2-0.1-0.2c-0.1,0-0.2,0-0.3,0.1c0,0,0,0.1,0,0.1L37.2,29L37,29z"/>
	<path fill="#FFFFFF" d="M38.2,29.2l0.3-1.1c0,0,0,0,0-0.1l-0.1,0l0-0.2l0.2,0.1c0.1,0,0.1,0.1,0.1,0.2l-0.1,0.3c0,0,0,0.1,0,0.1
		c0.1-0.1,0.2-0.2,0.4-0.1c0.2,0.1,0.3,0.2,0.3,0.5l-0.1,0.4c0,0,0,0,0,0.1l0.1,0l0,0.2L39,29.4c-0.1,0-0.1-0.1-0.1-0.2l0.1-0.4
		c0-0.1,0-0.2-0.1-0.2c-0.1,0-0.2,0-0.3,0.1c0,0,0,0.1,0,0.1l-0.1,0.4L38.2,29.2z"/>
	<path fill="#FFFFFF" d="M38.2,29.2l0.3-1.1c0,0,0,0,0-0.1l-0.1,0l0-0.2l0.2,0.1c0.1,0,0.1,0.1,0.1,0.2l-0.1,0.3c0,0,0,0.1,0,0.1
		c0.1-0.1,0.2-0.2,0.4-0.1c0.2,0.1,0.3,0.2,0.3,0.5l-0.1,0.4c0,0,0,0,0,0.1l0.1,0l0,0.2L39,29.4c-0.1,0-0.1-0.1-0.1-0.2l0.1-0.4
		c0-0.1,0-0.2-0.1-0.2c-0.1,0-0.2,0-0.3,0.1c0,0,0,0.1,0,0.1l-0.1,0.4L38.2,29.2z"/>
	<path fill="#FFFFFF" d="M39.5,29c0.1-0.3,0.4-0.5,0.7-0.4c0.3,0.1,0.5,0.3,0.4,0.6c-0.1,0.3-0.4,0.5-0.7,0.4
		C39.6,29.6,39.4,29.3,39.5,29z M39.7,29.1c0,0.2,0.1,0.3,0.2,0.4c0.2,0,0.3-0.1,0.4-0.2c0-0.2-0.1-0.3-0.2-0.4
		C39.9,28.8,39.8,28.9,39.7,29.1z"/>
	<path fill="#FFFFFF" d="M39.5,29c0.1-0.3,0.4-0.5,0.7-0.4c0.3,0.1,0.5,0.3,0.4,0.6c-0.1,0.3-0.4,0.5-0.7,0.4
		C39.6,29.6,39.4,29.3,39.5,29z M39.7,29.1c0,0.2,0.1,0.3,0.2,0.4c0.2,0,0.3-0.1,0.4-0.2c0-0.2-0.1-0.3-0.2-0.4
		C39.9,28.8,39.8,28.9,39.7,29.1z"/>
	<path fill="#FFFFFF" d="M34.1,26.2c0.1-0.3,0.5-0.2,0.7-0.2l0,0c0-0.2,0-0.2-0.1-0.3c0,0-0.1,0-0.2,0l0,0.1l-0.2-0.1l0-0.1
		c0-0.2,0.3-0.2,0.4-0.1c0.3,0.1,0.4,0.3,0.4,0.5L35,26.4c0,0,0,0,0,0.1l0.1,0L35,26.7l-0.2-0.1c-0.1,0-0.1-0.1-0.1-0.1c0,0,0,0,0,0
		c0,0-0.1,0.2-0.4,0.1C34.1,26.5,34,26.4,34.1,26.2z M34.3,26.2c0,0.1,0,0.1,0.1,0.2c0.1,0,0.3-0.1,0.3-0.2l0,0l0,0
		C34.6,26.1,34.4,26.1,34.3,26.2z"/>
	<path fill="#FFFFFF" d="M34.1,26.2c0.1-0.3,0.5-0.2,0.7-0.2l0,0c0-0.2,0-0.2-0.1-0.3c0,0-0.1,0-0.2,0l0,0.1l-0.2-0.1l0-0.1
		c0-0.2,0.3-0.2,0.4-0.1c0.3,0.1,0.4,0.3,0.4,0.5L35,26.4c0,0,0,0,0,0.1l0.1,0L35,26.7l-0.2-0.1c-0.1,0-0.1-0.1-0.1-0.1c0,0,0,0,0,0
		c0,0-0.1,0.2-0.4,0.1C34.1,26.5,34,26.4,34.1,26.2z M34.3,26.2c0,0.1,0,0.1,0.1,0.2c0.1,0,0.3-0.1,0.3-0.2l0,0l0,0
		C34.6,26.1,34.4,26.1,34.3,26.2z"/>
	<path fill="#FFFFFF" d="M32.2,26l0.2-0.8c0,0,0,0,0-0.1l-0.1,0l0.1-0.2l0.2,0.1c0.1,0,0.1,0.1,0.1,0.1l0,0c0,0,0,0,0,0
		c0.1-0.1,0.2-0.2,0.4-0.1c0.2,0,0.2,0.1,0.3,0.3c0.1-0.1,0.2-0.2,0.4-0.1c0.2,0,0.3,0.2,0.2,0.5l-0.1,0.4c0,0,0,0,0,0.1l0.1,0
		l-0.1,0.2l-0.2-0.1c-0.1,0-0.1-0.1-0.1-0.2l0.1-0.5c0-0.1,0-0.2-0.1-0.2c-0.1,0-0.2,0.1-0.3,0.2c0,0,0,0.1,0,0.1l-0.1,0.5l-0.3-0.1
		l0.1-0.6c0-0.1,0-0.2-0.1-0.2c-0.1,0-0.2,0.1-0.3,0.2c0,0,0,0.1,0,0.1l-0.1,0.5L32.2,26z"/>
	<path fill="#FFFFFF" d="M32.2,26l0.2-0.8c0,0,0,0,0-0.1l-0.1,0l0.1-0.2l0.2,0.1c0.1,0,0.1,0.1,0.1,0.1l0,0c0,0,0,0,0,0
		c0.1-0.1,0.2-0.2,0.4-0.1c0.2,0,0.2,0.1,0.3,0.3c0.1-0.1,0.2-0.2,0.4-0.1c0.2,0,0.3,0.2,0.2,0.5l-0.1,0.4c0,0,0,0,0,0.1l0.1,0
		l-0.1,0.2l-0.2-0.1c-0.1,0-0.1-0.1-0.1-0.2l0.1-0.5c0-0.1,0-0.2-0.1-0.2c-0.1,0-0.2,0.1-0.3,0.2c0,0,0,0.1,0,0.1l-0.1,0.5l-0.3-0.1
		l0.1-0.6c0-0.1,0-0.2-0.1-0.2c-0.1,0-0.2,0.1-0.3,0.2c0,0,0,0.1,0,0.1l-0.1,0.5L32.2,26z"/>
	
		<rect x="35.5" y="25.3" transform="matrix(-0.2236 0.9747 -0.9747 -0.2236 68.4485 -3.6266)" fill="#FFFFFF" width="0.2" height="0.2"/>
	
		<rect x="35.5" y="25.3" transform="matrix(-0.2236 0.9747 -0.9747 -0.2236 68.4485 -3.6266)" fill="#FFFFFF" width="0.2" height="0.2"/>
	<path fill="#FFFFFF" d="M35.3,26.6l0.1-0.6c0,0,0,0,0-0.1l-0.1,0l0.1-0.2l0.2,0.1c0.1,0,0.1,0.1,0.1,0.2l-0.1,0.6c0,0,0,0,0,0.1
		l0.1,0l-0.1,0.2l-0.2-0.1C35.3,26.8,35.2,26.7,35.3,26.6z"/>
	<path fill="#FFFFFF" d="M35.3,26.6l0.1-0.6c0,0,0,0,0-0.1l-0.1,0l0.1-0.2l0.2,0.1c0.1,0,0.1,0.1,0.1,0.2l-0.1,0.6c0,0,0,0,0,0.1
		l0.1,0l-0.1,0.2l-0.2-0.1C35.3,26.8,35.2,26.7,35.3,26.6z"/>
	<path fill="#FFFFFF" d="M35.9,26.3c0.1-0.3,0.4-0.5,0.7-0.4c0.3,0.1,0.5,0.4,0.4,0.7c-0.1,0.3-0.4,0.5-0.7,0.4
		C36,26.9,35.8,26.7,35.9,26.3z M36.1,26.4c0,0.2,0.1,0.4,0.2,0.4c0.2,0,0.3-0.1,0.4-0.3c0-0.2-0.1-0.4-0.2-0.4
		C36.3,26.1,36.2,26.2,36.1,26.4z"/>
	<path fill="#FFFFFF" d="M35.9,26.3c0.1-0.3,0.4-0.5,0.7-0.4c0.3,0.1,0.5,0.4,0.4,0.7c-0.1,0.3-0.4,0.5-0.7,0.4
		C36,26.9,35.8,26.7,35.9,26.3z M36.1,26.4c0,0.2,0.1,0.4,0.2,0.4c0.2,0,0.3-0.1,0.4-0.3c0-0.2-0.1-0.4-0.2-0.4
		C36.3,26.1,36.2,26.2,36.1,26.4z"/>
	<path d="M4.9,22.8c-0.4,0-0.7-0.3-0.7-0.7v-0.5h0.5c0.4,0,0.7,0.3,0.7,0.7v0.5H4.9z"/>
	<path d="M6.6,22.8c-0.4,0-0.7-0.3-0.7-0.7v-0.5h0.5c0.4,0,0.7,0.3,0.7,0.7v0.5H6.6z"/>
	<path d="M8.2,22.8c-0.4,0-0.7-0.3-0.7-0.7v-0.5H8c0.4,0,0.7,0.3,0.7,0.7v0.5H8.2z"/>
	<path d="M4.9,24.6c-0.4,0-0.7,0.3-0.7,0.7v0.5h0.5c0.4,0,0.7-0.3,0.7-0.7v-0.5H4.9z"/>
	<path d="M6.6,24.6c-0.4,0-0.7,0.3-0.7,0.7v0.5h0.5c0.4,0,0.7-0.3,0.7-0.7v-0.5H6.6z"/>
	<path d="M8.2,24.6c-0.4,0-0.7,0.3-0.7,0.7v0.5H8c0.4,0,0.7-0.3,0.7-0.7v-0.5H8.2z"/>
	<path d="M13.9,3.6c0-0.4,0.3-0.7,0.7-0.7h0.5v0.5c0,0.4-0.3,0.7-0.7,0.7h-0.5V3.6z"/>
	<path d="M13.9,5.2c0-0.4,0.3-0.7,0.7-0.7h0.5V5c0,0.4-0.3,0.7-0.7,0.7h-0.5V5.2z"/>
	<path d="M13.9,6.9c0-0.4,0.3-0.7,0.7-0.7h0.5v0.5c0,0.4-0.3,0.7-0.7,0.7h-0.5V6.9z"/>
	<path d="M12.1,3.6c0-0.4-0.3-0.7-0.7-0.7h-0.5v0.5c0,0.4,0.3,0.7,0.7,0.7h0.5V3.6z"/>
	<path d="M12.1,5.2c0-0.4-0.3-0.7-0.7-0.7h-0.5V5c0,0.4,0.3,0.7,0.7,0.7h0.5V5.2z"/>
	<path d="M12.1,6.9c0-0.4-0.3-0.7-0.7-0.7h-0.5v0.5c0,0.4,0.3,0.7,0.7,0.7h0.5V6.9z"/>
	<path d="M49.4,33.4c0.4,0,0.7,0.3,0.7,0.7v0.5h-0.5c-0.4,0-0.7-0.3-0.7-0.7v-0.5H49.4z"/>
	<path d="M47.8,33.4c0.4,0,0.7,0.3,0.7,0.7v0.5H48c-0.4,0-0.7-0.3-0.7-0.7v-0.5H47.8z"/>
	<path d="M46.2,33.4c0.4,0,0.7,0.3,0.7,0.7v0.5h-0.5c-0.4,0-0.7-0.3-0.7-0.7v-0.5H46.2z"/>
	<path d="M49.4,31.6c0.4,0,0.7-0.3,0.7-0.7v-0.5h-0.5c-0.4,0-0.7,0.3-0.7,0.7v0.5H49.4z"/>
	<path d="M47.8,31.6c0.4,0,0.7-0.3,0.7-0.7v-0.5H48c-0.4,0-0.7,0.3-0.7,0.7v0.5H47.8z"/>
	<path d="M46.2,31.6c0.4,0,0.7-0.3,0.7-0.7v-0.5h-0.5c-0.4,0-0.7,0.3-0.7,0.7v0.5H46.2z"/>
	<path d="M34.8,11.9c0-0.4,0.3-0.7,0.7-0.7h0.5v0.5c0,0.4-0.3,0.7-0.7,0.7h-0.5V11.9z"/>
	<path d="M34.8,13.5c0-0.4,0.3-0.7,0.7-0.7h0.5v0.5c0,0.4-0.3,0.7-0.7,0.7h-0.5V13.5z"/>
	<path d="M34.8,15.1c0-0.4,0.3-0.7,0.7-0.7h0.5v0.5c0,0.4-0.3,0.7-0.7,0.7h-0.5V15.1z"/>
	<path d="M33,11.9c0-0.4-0.3-0.7-0.7-0.7h-0.5v0.5c0,0.4,0.3,0.7,0.7,0.7H33V11.9z"/>
	<path d="M33,13.5c0-0.4-0.3-0.7-0.7-0.7h-0.5v0.5c0,0.4,0.3,0.7,0.7,0.7H33V13.5z"/>
	<path d="M33,15.1c0-0.4-0.3-0.7-0.7-0.7h-0.5v0.5c0,0.4,0.3,0.7,0.7,0.7H33V15.1z"/>
	<path d="M37.6,47.2c0,0.4-0.3,0.7-0.7,0.7h-0.5v-0.5c0-0.4,0.3-0.7,0.7-0.7h0.5V47.2z"/>
	<path d="M37.6,45.5c0,0.4-0.3,0.7-0.7,0.7h-0.5v-0.5c0-0.4,0.3-0.7,0.7-0.7h0.5V45.5z"/>
	<path d="M37.6,43.9c0,0.4-0.3,0.7-0.7,0.7h-0.5v-0.5c0-0.4,0.3-0.7,0.7-0.7h0.5V43.9z"/>
	<path d="M39.4,47.2c0,0.4,0.3,0.7,0.7,0.7h0.5v-0.5c0-0.4-0.3-0.7-0.7-0.7h-0.5V47.2z"/>
	<path d="M39.4,45.5c0,0.4,0.3,0.7,0.7,0.7h0.5v-0.5c0-0.4-0.3-0.7-0.7-0.7h-0.5V45.5z"/>
	<path d="M39.4,43.9c0,0.4,0.3,0.7,0.7,0.7h0.5v-0.5c0-0.4-0.3-0.7-0.7-0.7h-0.5V43.9z"/>
	<path d="M22.2,58.5c0,0.4-0.3,0.7-0.7,0.7H21v-0.5c0-0.4,0.3-0.7,0.7-0.7h0.5V58.5z"/>
	<path d="M22.2,56.8c0,0.4-0.3,0.7-0.7,0.7H21V57c0-0.4,0.3-0.7,0.7-0.7h0.5V56.8z"/>
	<path d="M22.2,55.2c0,0.4-0.3,0.7-0.7,0.7H21v-0.5c0-0.4,0.3-0.7,0.7-0.7h0.5V55.2z"/>
	<path d="M24,58.5c0,0.4,0.3,0.7,0.7,0.7h0.5v-0.5c0-0.4-0.3-0.7-0.7-0.7H24V58.5z"/>
	<path d="M24,56.8c0,0.4,0.3,0.7,0.7,0.7h0.5V57c0-0.4-0.3-0.7-0.7-0.7H24V56.8z"/>
	<path d="M24,55.2c0,0.4,0.3,0.7,0.7,0.7h0.5v-0.5c0-0.4-0.3-0.7-0.7-0.7H24V55.2z"/>
	<path d="M18.8,54.9c0,0.2-0.1,0.3-0.3,0.5c0,0.1,0,0.2,0,0.3c0,0.5-0.2,0.9-0.6,1.1c0,0-0.1,0-0.2,0.1c-0.1,0-0.1,0-0.2,0.1
		c-0.1,0-0.1,0.1-0.2,0.2c0,0.1-0.1,0.2-0.1,0.3h-0.1c0-0.1,0-0.2-0.1-0.3c0-0.1-0.1-0.1-0.2-0.2c-0.1,0-0.2-0.1-0.3-0.1
		c-0.4-0.2-0.6-0.6-0.6-1.1c0-0.1,0-0.2,0-0.3c-0.2-0.1-0.3-0.3-0.3-0.5c0-0.4,0.4-0.7,1.2-0.7c0-0.3,0.1-0.6,0.3-1l0.3,0.2
		c-0.2,0.3-0.2,0.6-0.3,0.8C18.4,54.2,18.8,54.5,18.8,54.9z"/>
	<path d="M28,53.3c0,0,0-0.1-0.1-0.2c0-0.1,0-0.1,0-0.2c0-0.2,0-0.4,0.1-0.5c0.1-0.2,0.2-0.3,0.3-0.4c0.1-0.1,0.3-0.1,0.5-0.1
		c0.2,0,0.3,0,0.5,0.1l0.1,0c0.1,0,0.1,0,0.2-0.1c0.1,0,0.1-0.1,0.1-0.1c0,0,0.1,0,0.1-0.1c0,0,0.1-0.1,0.1-0.1c0,0,0,0,0-0.1
		c-0.3,0-0.6-0.1-0.8-0.3c-0.2-0.1-0.4-0.3-0.5-0.6c0,0,0.3,0.1,0.7,0.3c0.4,0.2,0.6,0.4,0.6,0.4l-0.1-0.1c0,0-0.1-0.1-0.1-0.1
		c0,0-0.1-0.1-0.1-0.1c-0.1,0-0.1-0.1-0.2-0.2c-0.1-0.1-0.2-0.1-0.3-0.2c0,0,0,0,0,0c0,0,0,0,0.1,0c0,0,0.1,0,0.2,0
		c0.2,0,0.3,0.1,0.5,0.2c0.2,0.1,0.3,0.3,0.3,0.5c0,0.2,0.1,0.3,0.1,0.3l0.1,0c0,0,0.1,0,0.2,0.1c0.1,0,0.1,0.1,0.2,0.2l0,0
		c0,0,0,0,0,0.1c0,0,0,0,0,0l0,0l0,0l-0.1,0.1c-0.1,0-0.1,0.1-0.2,0.1c0,0.1-0.1,0.1-0.1,0.2c0,0.1-0.1,0.2-0.1,0.3
		c-0.1,0.1-0.1,0.2-0.1,0.2c0,0,0,0.1,0,0.1c0,0,0,0.1,0,0.2c0,0.1,0.1,0.1,0.1,0.1c0,0,0,0,0.1,0.1c0,0,0.1,0.1,0.1,0.1
		c0,0,0.1,0,0.1,0.1c0,0,0.1,0.1,0.1,0.1l0,0H30c0,0-0.1-0.1-0.1-0.1c0,0-0.1-0.1-0.1-0.1l-0.1-0.2c-0.1,0-0.1,0-0.2,0
		c0,0-0.1,0.1-0.1,0.1l0,0.1c0.1,0,0.2,0.1,0.2,0.2h-0.5l-0.6,0l-0.5,0c-0.2-0.1-0.3-0.2-0.3-0.3c0,0,0-0.1,0-0.1c0,0,0.1,0,0.1,0
		c0.1,0,0.2,0,0.3,0.1C28.1,53.5,28.1,53.4,28,53.3z M30.4,51.9C30.4,52,30.4,52,30.4,51.9C30.5,52,30.5,52,30.4,51.9
		C30.5,51.9,30.5,51.9,30.4,51.9C30.5,51.9,30.5,51.9,30.4,51.9C30.4,51.9,30.4,51.9,30.4,51.9C30.4,51.9,30.4,51.9,30.4,51.9z"/>
	<path d="M15.5,49.8c0,0,0.1,0.1,0.2,0.2l0-0.1l0.2,0.2L16,50l0.1,0.2c0,0,0,0,0.1,0v0.3h0.4v0.3h-0.4v0.4c0,0,0,0-0.1,0L16,51.5
		L16,51.4l-0.2,0.2l0-0.1c-0.1,0.1-0.1,0.1-0.2,0.2l0-0.1c-0.2,0.1-0.3,0.1-0.3,0.1l0-0.1l-0.3,0l0-0.1l-0.4-0.1l0-0.1l-0.3-0.1
		l0-0.1L14,51l0,0l-0.3-0.2l0.3-0.2l0,0l0.3-0.2l0-0.1l0.3-0.1l0-0.1l0.4-0.1l0-0.1l0.3,0l0-0.1C15.3,49.8,15.4,49.8,15.5,49.8
		L15.5,49.8z"/>
	<path d="M15.5,47.5c0,0,0.1,0.1,0.2,0.2l0-0.1l0.2,0.2l0.1-0.1l0.1,0.2c0,0,0,0,0.1,0v0.3h0.4v0.3h-0.4V49c0,0,0,0-0.1,0L16,49.2
		L16,49.1l-0.2,0.2l0-0.1c-0.1,0.1-0.1,0.1-0.2,0.2l0-0.1c-0.2,0.1-0.3,0.1-0.3,0.1l0-0.1l-0.3,0l0-0.1l-0.4-0.1l0-0.1L14.3,49
		l0-0.1L14,48.8l0,0l-0.3-0.2l0.3-0.2l0,0l0.3-0.2l0-0.1l0.3-0.1l0-0.1l0.4-0.1l0-0.1l0.3,0l0-0.1C15.3,47.5,15.4,47.6,15.5,47.5
		L15.5,47.5z"/>
	<path d="M15.5,45.3c0,0,0.1,0.1,0.2,0.2l0-0.1l0.2,0.2l0.1-0.1l0.1,0.2c0,0,0,0,0.1,0v0.3h0.4v0.3h-0.4v0.4c0,0,0,0-0.1,0L16,46.9
		L16,46.9l-0.2,0.2l0-0.1c-0.1,0.1-0.1,0.1-0.2,0.2l0-0.1c-0.2,0.1-0.3,0.1-0.3,0.1l0-0.1l-0.3,0l0-0.1l-0.4-0.1l0-0.1l-0.3-0.1
		l0-0.1L14,46.5l0,0l-0.3-0.2L14,46l0,0l0.3-0.2l0-0.1l0.3-0.1l0-0.1l0.4-0.1l0-0.1l0.3,0l0-0.1C15.3,45.3,15.4,45.3,15.5,45.3
		L15.5,45.3z"/>
	<path d="M38.8,3.9c0,0-0.1-0.1-0.2-0.2l0,0.1l-0.2-0.2l-0.1,0.1l-0.1-0.2c0,0,0,0-0.1,0V3.1h-0.4V2.8h0.4V2.5c0,0,0,0,0.1,0
		l0.1-0.2l0.1,0.1l0.2-0.2l0,0.1c0.1-0.1,0.1-0.1,0.2-0.2l0,0.1C39,2.1,39.1,2,39.1,2l0,0.1l0.3,0l0,0.1l0.4,0.1l0,0.1l0.3,0.1
		l0,0.1l0.3,0.2l0,0L40.6,3l-0.3,0.2l0,0L40,3.4l0,0.1l-0.3,0.1l0,0.1l-0.4,0.1l0,0.1l-0.3,0l0,0.1C39.1,3.9,39,3.9,38.8,3.9
		L38.8,3.9z"/>
	<path d="M38.8,6.2c0,0-0.1-0.1-0.2-0.2l0,0.1l-0.2-0.2L38.3,6l-0.1-0.2c0,0,0,0-0.1,0V5.4h-0.4V5.1h0.4V4.7c0,0,0,0,0.1,0l0.1-0.2
		l0.1,0.1l0.2-0.2l0,0.1c0.1-0.1,0.1-0.1,0.2-0.2l0,0.1c0.2-0.1,0.3-0.1,0.3-0.1l0,0.1l0.3,0l0,0.1l0.4,0.1l0,0.1l0.3,0.1l0,0.1
		L40.3,5l0,0l0.3,0.2l-0.3,0.2l0,0L40,5.7l0,0.1l-0.3,0.1l0,0.1L39.4,6l0,0.1l-0.3,0l0,0.1C39.1,6.2,39,6.2,38.8,6.2L38.8,6.2z"/>
	<path d="M26.2,7.3c0.2,0.3,0.1,0.6-0.3,0.7l-0.7-0.7H26.2z M25.8,8.1c-0.1,0.3-0.4,0.5-0.8,0.3V7.4L25.8,8.1z M24.9,8.4
		c-0.3,0.2-0.7,0.1-0.7-0.3l0.7-0.7V8.4z M24,8c-0.4-0.1-0.5-0.4-0.3-0.8h1L24,8z M23.7,7.1c-0.2-0.4-0.1-0.7,0.3-0.8l0.8,0.8H23.7z
		 M24.2,6.2c0.1-0.4,0.4-0.5,0.7-0.3V7L24.2,6.2z M25.1,5.9c0.3-0.2,0.6-0.1,0.7,0.3L25.1,7V5.9z M25.9,6.3c0.4,0.1,0.5,0.4,0.3,0.7
		h-1.1L25.9,6.3z"/>
	<path d="M5.7,43c0.2,0.3,0.1,0.6-0.3,0.7L4.7,43H5.7z M5.3,43.9c-0.1,0.3-0.4,0.5-0.8,0.3v-1.1L5.3,43.9z M4.4,44.2
		c-0.3,0.2-0.7,0.1-0.7-0.3l0.7-0.7V44.2z M3.5,43.8C3.2,43.6,3,43.3,3.2,43h1L3.5,43.8z M3.2,42.8c-0.2-0.4-0.1-0.7,0.3-0.8
		l0.8,0.8H3.2z M3.7,42c0.1-0.4,0.4-0.5,0.7-0.3v1.1L3.7,42z M4.6,41.7c0.3-0.2,0.6-0.1,0.7,0.3l-0.7,0.7V41.7z M5.4,42.1
		c0.4,0.1,0.5,0.4,0.3,0.7H4.7L5.4,42.1z"/>
	<path fill="#FFFFFF" d="M34.2,22.6c0.1-0.2-0.1-0.4-0.3-0.5c-0.2-0.1-0.4,0-0.4,0.1l0,0.1L33,22.3L33,22c0.1-0.4,0.6-0.4,1-0.3
		c0.5,0.1,0.8,0.5,0.7,1c-0.2,0.9-1.6,0.7-1.7,1.2c0,0.1,0,0.1,0.1,0.1l0.8,0.2c0.1,0,0.1,0,0.1-0.1l0-0.2l0.5,0.1l-0.1,0.4
		c0,0.2-0.1,0.2-0.3,0.2l-1.4-0.3c-0.2-0.1-0.3-0.2-0.2-0.4C32.7,22.9,34,23.3,34.2,22.6z"/>
	<path fill="#FFFFFF" d="M36.4,23.4c0.1-0.3-0.1-0.7-0.4-0.8c-0.3-0.1-0.5,0.1-0.5,0.4c-0.1,0.3,0.1,0.5,0.4,0.6
		C36.1,23.7,36.3,23.6,36.4,23.4z M34.9,24.3c0,0,0.2,0.1,0.4,0.2c0.4,0.1,0.7-0.2,0.9-0.6l0,0c-0.1,0.1-0.4,0.1-0.6,0.1
		c-0.5-0.1-0.8-0.6-0.7-1.1c0.1-0.5,0.6-0.8,1.1-0.7c0.6,0.1,0.9,0.7,0.8,1.5c-0.2,0.7-0.8,1.5-1.6,1.3c-0.3-0.1-0.5-0.2-0.5-0.2
		L34.9,24.3z"/>
</g>
</svg>
