<!-- Generator: Adobe Illustrator 18.0.0, SVG Export Plug-In  -->
<svg version="1.1"
	 xmlns="http://www.w3.org/2000/svg" xmlns:xlink="http://www.w3.org/1999/xlink" xmlns:a="http://ns.adobe.com/AdobeSVGViewerExtensions/3.0/"
	 x="0px" y="0px" width="142px" height="5.4px" viewBox="0 0 142 5.4" enable-background="new 0 0 142 5.4" xml:space="preserve">
<defs>
</defs>
<g>
	<path fill="#6F6D6C" d="M3.4,2.2c0,0.3-0.1,0.6-0.2,0.8C3.1,3.3,2.9,3.5,2.7,3.7C2.5,3.8,2.2,4,1.9,4.1s-0.7,0.2-1,0.2H0V0.1h0.9
		c0.4,0,0.7,0.1,1,0.2c0.3,0.1,0.6,0.2,0.8,0.4c0.2,0.2,0.4,0.4,0.5,0.7C3.4,1.6,3.4,1.9,3.4,2.2z M2.8,2.2c0-0.3-0.1-0.5-0.2-0.7
		C2.6,1.3,2.4,1.1,2.3,1S1.9,0.7,1.7,0.7C1.5,0.6,1.2,0.6,1,0.6H0.6v3.2H1c0.2,0,0.5,0,0.7-0.1c0.2-0.1,0.4-0.2,0.6-0.3
		C2.4,3.2,2.6,3,2.7,2.8C2.8,2.6,2.8,2.4,2.8,2.2z"/>
	<path fill="#6F6D6C" d="M4.5,2.9c0,0.3,0.1,0.5,0.3,0.7C5,3.8,5.3,3.8,5.6,3.8c0.1,0,0.3,0,0.5,0c0.2,0,0.3-0.1,0.4-0.1l0.1,0.4
		C6.5,4.2,6.3,4.2,6.1,4.3s-0.3,0-0.5,0c-0.3,0-0.5,0-0.7-0.1C4.7,4.1,4.6,4,4.4,3.9C4.3,3.7,4.2,3.5,4.1,3.4C4,3.2,4,2.9,4,2.7
		c0-0.2,0-0.4,0.1-0.6s0.2-0.4,0.3-0.5c0.1-0.1,0.3-0.3,0.5-0.3C5,1.2,5.2,1.1,5.4,1.1c0.2,0,0.4,0,0.6,0.1c0.2,0.1,0.3,0.2,0.4,0.3
		c0.1,0.1,0.2,0.3,0.3,0.5c0.1,0.2,0.1,0.4,0.1,0.6v0.2H4.5z M6.3,2.5C6.3,2.2,6.2,2,6,1.8S5.7,1.6,5.4,1.6C5.2,1.6,5,1.7,4.8,1.8
		S4.6,2.2,4.5,2.5H6.3z"/>
	<path fill="#6F6D6C" d="M9.8,3.4c0,0.3-0.1,0.5-0.3,0.6C9.2,4.2,8.9,4.3,8.5,4.3c-0.2,0-0.4,0-0.6-0.1S7.5,4.1,7.4,4l0.1-0.4
		C7.7,3.7,7.8,3.7,8,3.8c0.2,0,0.4,0.1,0.5,0.1c0.5,0,0.7-0.1,0.7-0.4c0-0.1,0-0.1,0-0.2S9.1,3.2,9.1,3.2C9,3.1,8.9,3.1,8.8,3.1
		C8.7,3,8.6,3,8.4,2.9C8.2,2.8,8.1,2.7,8,2.7C7.8,2.6,7.7,2.5,7.7,2.5S7.5,2.3,7.5,2.2s0-0.2,0-0.3c0-0.3,0.1-0.5,0.3-0.6
		C8,1.2,8.3,1.1,8.6,1.1c0.1,0,0.3,0,0.5,0c0.2,0,0.3,0.1,0.5,0.1L9.5,1.7c-0.1,0-0.3-0.1-0.4-0.1c-0.2,0-0.3,0-0.5,0
		c-0.2,0-0.4,0-0.5,0.1S8,1.8,8,1.9C8,2,8,2,8,2.1c0,0,0.1,0.1,0.1,0.1s0.1,0.1,0.2,0.1c0.1,0,0.2,0.1,0.3,0.1
		c0.2,0.1,0.4,0.2,0.5,0.2c0.1,0.1,0.2,0.1,0.3,0.2C9.6,3,9.7,3.1,9.7,3.1C9.7,3.2,9.8,3.3,9.8,3.4z"/>
	<path fill="#6F6D6C" d="M10.5,0.7V0h0.6v0.7H10.5z M10.5,4.2V1.2h0.6v3.1H10.5z"/>
	<path fill="#6F6D6C" d="M14.7,4c0,0.4-0.1,0.8-0.4,1s-0.6,0.4-1.1,0.4c-0.1,0-0.3,0-0.5,0c-0.2,0-0.4-0.1-0.5-0.1l0.1-0.4
		c0.2,0,0.3,0.1,0.5,0.1c0.1,0,0.3,0,0.4,0c0.4,0,0.7-0.1,0.8-0.2C14,4.5,14.1,4.3,14.1,4V3.7C14,3.9,13.9,4,13.7,4.1
		s-0.4,0.1-0.6,0.1c-0.2,0-0.4,0-0.6-0.1c-0.2-0.1-0.3-0.2-0.4-0.3c-0.1-0.1-0.2-0.3-0.2-0.5c-0.1-0.2-0.1-0.4-0.1-0.6
		s0-0.4,0.1-0.6s0.1-0.4,0.2-0.5c0.1-0.1,0.2-0.3,0.4-0.3c0.2-0.1,0.4-0.1,0.6-0.1c0.2,0,0.4,0,0.6,0.1c0.2,0.1,0.3,0.2,0.4,0.4V1.2
		h0.6V4z M14.1,2.7c0-0.3-0.1-0.6-0.2-0.8c-0.2-0.2-0.4-0.3-0.7-0.3c-0.2,0-0.3,0-0.4,0.1c-0.1,0.1-0.2,0.1-0.3,0.2
		c-0.1,0.1-0.1,0.2-0.2,0.3s-0.1,0.3-0.1,0.4c0,0.2,0,0.3,0.1,0.4c0,0.1,0.1,0.2,0.2,0.3c0.1,0.1,0.2,0.2,0.3,0.2
		c0.1,0.1,0.2,0.1,0.4,0.1c0.3,0,0.5-0.1,0.7-0.3C14,3.3,14.1,3,14.1,2.7z"/>
	<path fill="#6F6D6C" d="M17.7,4.2V2.3c0-0.2-0.1-0.4-0.2-0.5c-0.1-0.1-0.3-0.2-0.5-0.2c-0.1,0-0.2,0-0.3,0.1
		c-0.1,0-0.2,0.1-0.3,0.2s-0.2,0.2-0.2,0.3c-0.1,0.1-0.1,0.3-0.1,0.4v1.6h-0.6V1.2h0.5v0.5c0.1-0.2,0.2-0.3,0.4-0.4
		c0.2-0.1,0.4-0.2,0.6-0.2c0.3,0,0.6,0.1,0.8,0.3c0.2,0.2,0.3,0.5,0.3,0.8v2H17.7z"/>
	<path fill="#6F6D6C" d="M19.2,2V1.3h0.7V2H19.2z M19.2,4.2V3.5h0.7v0.7H19.2z"/>
	<path fill="#6F6D6C" d="M25.1,4.2l-0.4-1.1h-1.9l-0.4,1.1h-0.6l1.7-4.2H24l1.7,4.2H25.1z M23.8,0.7l-0.8,2h1.6L23.8,0.7z"/>
	<path fill="#6F6D6C" d="M27.3,4.3c-0.1,0-0.1,0-0.2,0c-0.3,0-0.5-0.1-0.6-0.2c-0.2-0.1-0.2-0.4-0.2-0.7V1.6h-0.4V1.2h0.4V0.3h0.6
		v0.9h0.6v0.4h-0.6v1.8c0,0.2,0,0.3,0.1,0.4c0.1,0.1,0.1,0.1,0.3,0.1c0,0,0.1,0,0.1,0c0.1,0,0.1,0,0.2,0l0.1,0.4
		C27.5,4.3,27.4,4.3,27.3,4.3z"/>
	<path fill="#6F6D6C" d="M28.5,2.9c0,0.3,0.1,0.5,0.3,0.7c0.2,0.2,0.4,0.3,0.8,0.3c0.1,0,0.3,0,0.5,0c0.2,0,0.3-0.1,0.4-0.1l0.1,0.4
		c-0.2,0.1-0.3,0.1-0.5,0.1c-0.2,0-0.3,0-0.5,0c-0.3,0-0.5,0-0.7-0.1c-0.2-0.1-0.4-0.2-0.5-0.3s-0.2-0.3-0.3-0.5
		C28,3.2,28,2.9,28,2.7c0-0.2,0-0.4,0.1-0.6c0.1-0.2,0.2-0.4,0.3-0.5s0.3-0.3,0.5-0.3s0.4-0.1,0.6-0.1c0.2,0,0.4,0,0.6,0.1
		c0.2,0.1,0.3,0.2,0.4,0.3s0.2,0.3,0.3,0.5c0.1,0.2,0.1,0.4,0.1,0.6v0.2H28.5z M30.3,2.5c0-0.3-0.1-0.5-0.2-0.7
		c-0.1-0.2-0.3-0.2-0.6-0.2c-0.2,0-0.5,0.1-0.6,0.2c-0.2,0.2-0.3,0.4-0.3,0.7H30.3z"/>
	<path fill="#6F6D6C" d="M32.5,4.3c-0.1,0-0.2,0-0.4,0c-0.1,0-0.2-0.1-0.3-0.2s-0.1-0.2-0.2-0.3c0-0.1-0.1-0.3-0.1-0.4V0.1h0.6v3.3
		c0,0.2,0,0.3,0.1,0.4s0.2,0.1,0.3,0.1h0.3v0.4H32.5z"/>
	<path fill="#6F6D6C" d="M33.6,0.7V0h0.6v0.7H33.6z M33.6,4.2V1.2h0.6v3.1H33.6z"/>
	<path fill="#6F6D6C" d="M35.4,2.9c0,0.3,0.1,0.5,0.3,0.7c0.2,0.2,0.4,0.3,0.8,0.3c0.1,0,0.3,0,0.5,0c0.2,0,0.3-0.1,0.4-0.1l0.1,0.4
		c-0.2,0.1-0.3,0.1-0.5,0.1s-0.3,0-0.5,0c-0.3,0-0.5,0-0.7-0.1c-0.2-0.1-0.4-0.2-0.5-0.3c-0.1-0.1-0.2-0.3-0.3-0.5
		c-0.1-0.2-0.1-0.4-0.1-0.6c0-0.2,0-0.4,0.1-0.6s0.2-0.4,0.3-0.5c0.1-0.1,0.3-0.3,0.5-0.3c0.2-0.1,0.4-0.1,0.6-0.1
		c0.2,0,0.4,0,0.6,0.1c0.2,0.1,0.3,0.2,0.4,0.3c0.1,0.1,0.2,0.3,0.3,0.5c0.1,0.2,0.1,0.4,0.1,0.6v0.2H35.4z M37.2,2.5
		c0-0.3-0.1-0.5-0.2-0.7s-0.3-0.2-0.6-0.2c-0.2,0-0.5,0.1-0.6,0.2s-0.3,0.4-0.3,0.7H37.2z"/>
	<path fill="#6F6D6C" d="M39.7,1.7c-0.1,0.1-0.2,0.2-0.3,0.3c-0.1,0.1-0.2,0.2-0.2,0.4c-0.1,0.1-0.1,0.3-0.1,0.4v1.5h-0.6V1.2h0.5
		v0.6c0-0.1,0.1-0.2,0.2-0.2c0.1-0.1,0.2-0.1,0.2-0.2c0.1-0.1,0.2-0.1,0.3-0.1c0.1,0,0.2-0.1,0.3-0.1v0.5C40,1.6,39.8,1.7,39.7,1.7z
		"/>
	<path fill="#6F6D6C" d="M43.8,3.5c-0.1,0.2-0.1,0.3-0.2,0.4c-0.1,0.1-0.2,0.2-0.4,0.3c-0.2,0.1-0.3,0.1-0.6,0.1h-0.7V3.8h0.7
		c0.3,0,0.4-0.1,0.5-0.2c0.1-0.2,0.2-0.3,0.2-0.6V0.5H42V0.1h1.8V3C43.9,3.2,43.8,3.4,43.8,3.5z"/>
	<path fill="#6F6D6C" d="M47.6,2.7c0,0.2,0,0.4-0.1,0.6c-0.1,0.2-0.2,0.4-0.3,0.5S47,4.1,46.8,4.2c-0.2,0.1-0.4,0.1-0.6,0.1
		c-0.2,0-0.4,0-0.6-0.1c-0.2-0.1-0.3-0.2-0.5-0.3c-0.1-0.1-0.2-0.3-0.3-0.5c-0.1-0.2-0.1-0.4-0.1-0.6c0-0.2,0-0.4,0.1-0.6
		c0.1-0.2,0.2-0.4,0.3-0.5c0.1-0.1,0.3-0.3,0.5-0.3s0.4-0.1,0.6-0.1c0.2,0,0.4,0,0.6,0.1c0.2,0.1,0.3,0.2,0.5,0.3
		c0.1,0.1,0.2,0.3,0.3,0.5C47.6,2.3,47.6,2.5,47.6,2.7z M47.1,2.7c0-0.2,0-0.3-0.1-0.5c0-0.1-0.1-0.3-0.2-0.4s-0.2-0.2-0.3-0.2
		s-0.2-0.1-0.4-0.1c-0.1,0-0.3,0-0.4,0.1s-0.2,0.1-0.3,0.2c-0.1,0.1-0.1,0.2-0.2,0.4c0,0.1-0.1,0.3-0.1,0.5c0,0.2,0,0.3,0.1,0.5
		c0,0.1,0.1,0.3,0.2,0.4c0.1,0.1,0.2,0.2,0.3,0.2c0.1,0.1,0.2,0.1,0.4,0.1c0.1,0,0.3,0,0.4-0.1c0.1-0.1,0.2-0.1,0.3-0.2
		S47,3.3,47,3.2C47.1,3,47.1,2.9,47.1,2.7z"/>
	<path fill="#6F6D6C" d="M50.2,4.2V3.9C50.1,4,50,4.1,49.8,4.2c-0.2,0.1-0.3,0.1-0.6,0.1c-0.3,0-0.6-0.1-0.8-0.2
		c-0.2-0.2-0.3-0.4-0.3-0.7c0-0.3,0.1-0.5,0.3-0.7s0.4-0.2,0.7-0.2h1V2.2c0-0.2-0.1-0.3-0.2-0.5s-0.3-0.2-0.6-0.2
		c-0.1,0-0.3,0-0.5,0c-0.2,0-0.3,0-0.5,0.1l-0.1-0.4c0.2,0,0.3-0.1,0.5-0.1c0.2,0,0.4,0,0.5,0c0.4,0,0.8,0.1,1,0.3
		c0.2,0.2,0.3,0.4,0.3,0.8v2H50.2z M50.4,0.4c0,0.1-0.1,0.1-0.1,0.2c0,0.1-0.1,0.1-0.2,0.1c-0.1,0-0.1,0-0.2,0c-0.1,0-0.1,0-0.2-0.1
		s-0.1-0.1-0.2-0.1c-0.1,0-0.1-0.1-0.2-0.1c0,0-0.1,0-0.2,0c0,0-0.1,0-0.1,0c0,0-0.1,0-0.1,0.1s0,0.1-0.1,0.1c0,0,0,0.1,0,0.1
		l-0.3-0.1c0-0.1,0-0.1,0.1-0.2c0-0.1,0.1-0.1,0.1-0.2c0-0.1,0.1-0.1,0.2-0.1c0.1,0,0.1,0,0.2,0c0.1,0,0.1,0,0.2,0.1
		s0.1,0.1,0.2,0.1s0.1,0.1,0.2,0.1s0.1,0,0.2,0c0,0,0.1,0,0.1,0c0,0,0.1,0,0.1-0.1c0,0,0-0.1,0.1-0.1c0,0,0-0.1,0-0.1l0.3,0.1
		C50.4,0.3,50.4,0.3,50.4,0.4z M50.2,2.9h-0.8c-0.2,0-0.3,0-0.4,0.1c-0.1,0.1-0.1,0.2-0.1,0.4c0,0.2,0,0.3,0.1,0.4
		c0.1,0.1,0.2,0.1,0.4,0.1c0.3,0,0.5-0.1,0.6-0.2c0.1-0.1,0.2-0.3,0.2-0.6V2.9z"/>
	<path fill="#6F6D6C" d="M54.4,2.7c0,0.2,0,0.4-0.1,0.6c-0.1,0.2-0.2,0.4-0.3,0.5s-0.3,0.3-0.5,0.3c-0.2,0.1-0.4,0.1-0.6,0.1
		c-0.2,0-0.4,0-0.6-0.1c-0.2-0.1-0.3-0.2-0.5-0.3c-0.1-0.1-0.2-0.3-0.3-0.5c-0.1-0.2-0.1-0.4-0.1-0.6c0-0.2,0-0.4,0.1-0.6
		c0.1-0.2,0.2-0.4,0.3-0.5c0.1-0.1,0.3-0.3,0.5-0.3s0.4-0.1,0.6-0.1c0.2,0,0.4,0,0.6,0.1c0.2,0.1,0.3,0.2,0.5,0.3
		c0.1,0.1,0.2,0.3,0.3,0.5C54.3,2.3,54.4,2.5,54.4,2.7z M53.8,2.7c0-0.2,0-0.3-0.1-0.5c0-0.1-0.1-0.3-0.2-0.4s-0.2-0.2-0.3-0.2
		S53,1.6,52.9,1.6c-0.1,0-0.3,0-0.4,0.1s-0.2,0.1-0.3,0.2C52.1,2,52,2.1,52,2.3c0,0.1-0.1,0.3-0.1,0.5c0,0.2,0,0.3,0.1,0.5
		c0,0.1,0.1,0.3,0.2,0.4c0.1,0.1,0.2,0.2,0.3,0.2c0.1,0.1,0.2,0.1,0.4,0.1c0.1,0,0.3,0,0.4-0.1c0.1-0.1,0.2-0.1,0.3-0.2
		s0.1-0.2,0.2-0.4C53.8,3,53.8,2.9,53.8,2.7z"/>
	<path fill="#6F6D6C" d="M59.9,3.1c0,0.2,0,0.3-0.1,0.4s-0.1,0.3-0.2,0.4c-0.1,0.1-0.2,0.2-0.4,0.3c-0.2,0.1-0.3,0.1-0.5,0.1h-2V0.1
		h1.8c0.4,0,0.8,0.1,1,0.3c0.2,0.2,0.3,0.5,0.3,0.8c0,0.1,0,0.2,0,0.3s-0.1,0.2-0.1,0.3c-0.1,0.1-0.1,0.2-0.2,0.2
		C59.3,1.9,59.2,2,59.1,2c0.3,0.1,0.5,0.2,0.6,0.4C59.8,2.6,59.9,2.8,59.9,3.1z M59.2,1.2c0-0.2-0.1-0.4-0.2-0.5s-0.3-0.2-0.6-0.2
		h-1.2v1.3h1.2c0.2,0,0.4-0.1,0.6-0.2C59.1,1.6,59.2,1.4,59.2,1.2z M59.3,3.1c0-0.2-0.1-0.4-0.2-0.5c-0.1-0.1-0.3-0.2-0.6-0.2h-1.3
		v1.5h1.3c0.3,0,0.4-0.1,0.6-0.2C59.3,3.5,59.3,3.3,59.3,3.1z"/>
	<path fill="#6F6D6C" d="M63.4,2.7c0,0.2,0,0.4-0.1,0.6c-0.1,0.2-0.2,0.4-0.3,0.5s-0.3,0.3-0.5,0.3c-0.2,0.1-0.4,0.1-0.6,0.1
		c-0.2,0-0.4,0-0.6-0.1C61.1,4.1,61,4,60.8,3.8c-0.1-0.1-0.2-0.3-0.3-0.5c-0.1-0.2-0.1-0.4-0.1-0.6c0-0.2,0-0.4,0.1-0.6
		c0.1-0.2,0.2-0.4,0.3-0.5c0.1-0.1,0.3-0.3,0.5-0.3s0.4-0.1,0.6-0.1c0.2,0,0.4,0,0.6,0.1c0.2,0.1,0.3,0.2,0.5,0.3
		c0.1,0.1,0.2,0.3,0.3,0.5C63.4,2.3,63.4,2.5,63.4,2.7z M62.9,2.7c0-0.2,0-0.3-0.1-0.5c0-0.1-0.1-0.3-0.2-0.4s-0.2-0.2-0.3-0.2
		s-0.2-0.1-0.4-0.1c-0.1,0-0.3,0-0.4,0.1s-0.2,0.1-0.3,0.2c-0.1,0.1-0.1,0.2-0.2,0.4C61,2.4,61,2.5,61,2.7c0,0.2,0,0.3,0.1,0.5
		c0,0.1,0.1,0.3,0.2,0.4c0.1,0.1,0.2,0.2,0.3,0.2c0.1,0.1,0.2,0.1,0.4,0.1c0.1,0,0.3,0,0.4-0.1c0.1-0.1,0.2-0.1,0.3-0.2
		s0.1-0.2,0.2-0.4C62.8,3,62.9,2.9,62.9,2.7z"/>
	<path fill="#6F6D6C" d="M65.4,1.7C65.3,1.8,65.1,1.9,65,2c-0.1,0.1-0.2,0.2-0.2,0.4c-0.1,0.1-0.1,0.3-0.1,0.4v1.5h-0.6V1.2h0.5v0.6
		c0-0.1,0.1-0.2,0.2-0.2c0.1-0.1,0.2-0.1,0.2-0.2s0.2-0.1,0.3-0.1c0.1,0,0.2-0.1,0.3-0.1v0.5C65.6,1.6,65.5,1.7,65.4,1.7z"/>
	<path fill="#6F6D6C" d="M68.9,4c0,0.4-0.1,0.8-0.4,1s-0.6,0.4-1.1,0.4c-0.1,0-0.3,0-0.5,0c-0.2,0-0.4-0.1-0.5-0.1l0.1-0.4
		c0.2,0,0.3,0.1,0.5,0.1c0.1,0,0.3,0,0.4,0c0.4,0,0.7-0.1,0.8-0.2c0.2-0.2,0.2-0.4,0.2-0.7V3.7C68.3,3.9,68.1,4,68,4.1
		s-0.4,0.1-0.6,0.1c-0.2,0-0.4,0-0.6-0.1c-0.2-0.1-0.3-0.2-0.4-0.3c-0.1-0.1-0.2-0.3-0.2-0.5c-0.1-0.2-0.1-0.4-0.1-0.6
		s0-0.4,0.1-0.6s0.1-0.4,0.2-0.5c0.1-0.1,0.2-0.3,0.4-0.3c0.2-0.1,0.4-0.1,0.6-0.1c0.2,0,0.4,0,0.6,0.1c0.2,0.1,0.3,0.2,0.4,0.4V1.2
		h0.6V4z M68.4,2.7c0-0.3-0.1-0.6-0.2-0.8c-0.2-0.2-0.4-0.3-0.7-0.3c-0.2,0-0.3,0-0.4,0.1c-0.1,0.1-0.2,0.1-0.3,0.2
		c-0.1,0.1-0.1,0.2-0.2,0.3s-0.1,0.3-0.1,0.4c0,0.2,0,0.3,0.1,0.4c0,0.1,0.1,0.2,0.2,0.3c0.1,0.1,0.2,0.2,0.3,0.2
		c0.1,0.1,0.2,0.1,0.4,0.1c0.3,0,0.5-0.1,0.7-0.3C68.3,3.3,68.4,3,68.4,2.7z"/>
	<path fill="#6F6D6C" d="M70.2,2.9c0,0.3,0.1,0.5,0.3,0.7c0.2,0.2,0.4,0.3,0.8,0.3c0.1,0,0.3,0,0.5,0c0.2,0,0.3-0.1,0.4-0.1l0.1,0.4
		c-0.2,0.1-0.3,0.1-0.5,0.1s-0.3,0-0.5,0c-0.3,0-0.5,0-0.7-0.1c-0.2-0.1-0.4-0.2-0.5-0.3c-0.1-0.1-0.2-0.3-0.3-0.5
		c-0.1-0.2-0.1-0.4-0.1-0.6c0-0.2,0-0.4,0.1-0.6s0.2-0.4,0.3-0.5c0.1-0.1,0.3-0.3,0.5-0.3c0.2-0.1,0.4-0.1,0.6-0.1
		c0.2,0,0.4,0,0.6,0.1c0.2,0.1,0.3,0.2,0.4,0.3c0.1,0.1,0.2,0.3,0.3,0.5c0.1,0.2,0.1,0.4,0.1,0.6v0.2H70.2z M71.9,2.5
		c0-0.3-0.1-0.5-0.2-0.7s-0.3-0.2-0.6-0.2c-0.2,0-0.5,0.1-0.6,0.2s-0.3,0.4-0.3,0.7H71.9z"/>
	<path fill="#6F6D6C" d="M75.4,3.4c0,0.3-0.1,0.5-0.3,0.6c-0.2,0.2-0.5,0.2-0.9,0.2c-0.2,0-0.4,0-0.6-0.1S73.2,4.1,73,4l0.1-0.4
		c0.2,0.1,0.3,0.1,0.5,0.2c0.2,0,0.4,0.1,0.5,0.1c0.5,0,0.7-0.1,0.7-0.4c0-0.1,0-0.1,0-0.2s-0.1-0.1-0.1-0.1c-0.1,0-0.1-0.1-0.2-0.1
		c-0.1,0-0.2-0.1-0.4-0.2c-0.2-0.1-0.3-0.1-0.5-0.2c-0.1-0.1-0.2-0.1-0.3-0.2s-0.1-0.2-0.2-0.2s0-0.2,0-0.3c0-0.3,0.1-0.5,0.3-0.6
		c0.2-0.1,0.5-0.2,0.8-0.2c0.1,0,0.3,0,0.5,0c0.2,0,0.3,0.1,0.5,0.1l-0.1,0.4c-0.1,0-0.3-0.1-0.4-0.1c-0.2,0-0.3,0-0.5,0
		c-0.2,0-0.4,0-0.5,0.1s-0.1,0.1-0.1,0.3c0,0.1,0,0.1,0,0.2c0,0,0.1,0.1,0.1,0.1s0.1,0.1,0.2,0.1c0.1,0,0.2,0.1,0.3,0.1
		c0.2,0.1,0.4,0.2,0.5,0.2c0.1,0.1,0.2,0.1,0.3,0.2c0.1,0.1,0.1,0.2,0.2,0.2C75.4,3.2,75.4,3.3,75.4,3.4z"/>
	<path fill="#6F6D6C" d="M77.6,2.6V1.8h0.7v0.7H77.6z"/>
	<path fill="#6F6D6C" d="M84.1,2.2c0,0.3-0.1,0.6-0.2,0.8c-0.1,0.3-0.3,0.5-0.5,0.7c-0.2,0.2-0.5,0.3-0.8,0.4
		c-0.3,0.1-0.7,0.2-1,0.2h-0.9V0.1h0.9c0.4,0,0.7,0.1,1,0.2c0.3,0.1,0.6,0.2,0.8,0.4c0.2,0.2,0.4,0.4,0.5,0.7
		C84.1,1.6,84.1,1.9,84.1,2.2z M83.5,2.2c0-0.3-0.1-0.5-0.2-0.7C83.3,1.3,83.1,1.1,83,1s-0.4-0.2-0.6-0.3c-0.2-0.1-0.5-0.1-0.7-0.1
		h-0.4v3.2h0.4c0.2,0,0.5,0,0.7-0.1c0.2-0.1,0.4-0.2,0.6-0.3c0.2-0.1,0.3-0.3,0.4-0.5C83.5,2.6,83.5,2.4,83.5,2.2z"/>
	<path fill="#6F6D6C" d="M85.2,2.9c0,0.3,0.1,0.5,0.3,0.7c0.2,0.2,0.4,0.3,0.8,0.3c0.1,0,0.3,0,0.5,0c0.2,0,0.3-0.1,0.4-0.1l0.1,0.4
		c-0.2,0.1-0.3,0.1-0.5,0.1c-0.2,0-0.3,0-0.5,0c-0.3,0-0.5,0-0.7-0.1c-0.2-0.1-0.4-0.2-0.5-0.3s-0.2-0.3-0.3-0.5
		c-0.1-0.2-0.1-0.4-0.1-0.6c0-0.2,0-0.4,0.1-0.6c0.1-0.2,0.2-0.4,0.3-0.5s0.3-0.3,0.5-0.3s0.4-0.1,0.6-0.1c0.2,0,0.4,0,0.6,0.1
		c0.2,0.1,0.3,0.2,0.4,0.3s0.2,0.3,0.3,0.5c0.1,0.2,0.1,0.4,0.1,0.6v0.2H85.2z M87,2.5c0-0.3-0.1-0.5-0.2-0.7
		c-0.1-0.2-0.3-0.2-0.6-0.2c-0.2,0-0.5,0.1-0.6,0.2c-0.2,0.2-0.3,0.4-0.3,0.7H87z"/>
	<path fill="#6F6D6C" d="M89.4,4.2h-0.6l-1.2-3.1h0.5l0.9,2.5l0.9-2.5h0.5L89.4,4.2z"/>
	<path fill="#6F6D6C" d="M91.4,2.9c0,0.3,0.1,0.5,0.3,0.7c0.2,0.2,0.4,0.3,0.8,0.3c0.1,0,0.3,0,0.5,0c0.2,0,0.3-0.1,0.4-0.1l0.1,0.4
		c-0.2,0.1-0.3,0.1-0.5,0.1c-0.2,0-0.3,0-0.5,0c-0.3,0-0.5,0-0.7-0.1c-0.2-0.1-0.4-0.2-0.5-0.3S91,3.5,90.9,3.4
		c-0.1-0.2-0.1-0.4-0.1-0.6c0-0.2,0-0.4,0.1-0.6c0.1-0.2,0.2-0.4,0.3-0.5s0.3-0.3,0.5-0.3s0.4-0.1,0.6-0.1c0.2,0,0.4,0,0.6,0.1
		c0.2,0.1,0.3,0.2,0.4,0.3s0.2,0.3,0.3,0.5c0.1,0.2,0.1,0.4,0.1,0.6v0.2H91.4z M93.1,2.5c0-0.3-0.1-0.5-0.2-0.7
		c-0.1-0.2-0.3-0.2-0.6-0.2c-0.2,0-0.5,0.1-0.6,0.2c-0.2,0.2-0.3,0.4-0.3,0.7H93.1z"/>
	<path fill="#6F6D6C" d="M95.3,4.3c-0.1,0-0.2,0-0.4,0c-0.1,0-0.2-0.1-0.3-0.2s-0.1-0.2-0.2-0.3c0-0.1-0.1-0.3-0.1-0.4V0.1H95v3.3
		c0,0.2,0,0.3,0.1,0.4s0.2,0.1,0.3,0.1h0.3v0.4H95.3z"/>
	<path fill="#6F6D6C" d="M99.1,2.7c0,0.2,0,0.4-0.1,0.6c-0.1,0.2-0.2,0.4-0.3,0.5c-0.1,0.1-0.3,0.3-0.5,0.3
		c-0.2,0.1-0.4,0.1-0.6,0.1s-0.4,0-0.6-0.1c-0.2-0.1-0.3-0.2-0.5-0.3c-0.1-0.1-0.2-0.3-0.3-0.5s-0.1-0.4-0.1-0.6
		c0-0.2,0-0.4,0.1-0.6s0.2-0.4,0.3-0.5c0.1-0.1,0.3-0.3,0.5-0.3c0.2-0.1,0.4-0.1,0.6-0.1s0.4,0,0.6,0.1c0.2,0.1,0.3,0.2,0.5,0.3
		c0.1,0.1,0.2,0.3,0.3,0.5C99,2.3,99.1,2.5,99.1,2.7z M98.5,2.7c0-0.2,0-0.3-0.1-0.5c0-0.1-0.1-0.3-0.2-0.4
		c-0.1-0.1-0.2-0.2-0.3-0.2s-0.2-0.1-0.4-0.1c-0.1,0-0.3,0-0.4,0.1S97,1.8,96.9,1.9s-0.1,0.2-0.2,0.4c0,0.1-0.1,0.3-0.1,0.5
		c0,0.2,0,0.3,0.1,0.5c0,0.1,0.1,0.3,0.2,0.4s0.2,0.2,0.3,0.2c0.1,0.1,0.2,0.1,0.4,0.1c0.1,0,0.3,0,0.4-0.1c0.1-0.1,0.2-0.1,0.3-0.2
		c0.1-0.1,0.1-0.2,0.2-0.4C98.5,3,98.5,2.9,98.5,2.7z"/>
	<path fill="#6F6D6C" d="M102.7,2.7c0,0.2,0,0.4-0.1,0.6s-0.1,0.4-0.2,0.5s-0.2,0.3-0.4,0.4s-0.4,0.1-0.6,0.1c-0.4,0-0.7-0.2-1-0.6
		v1.6h-0.6V1.2h0.6l0,0.5c0.1-0.2,0.2-0.3,0.4-0.4c0.2-0.1,0.3-0.1,0.6-0.1c0.2,0,0.4,0,0.6,0.1c0.2,0.1,0.3,0.2,0.4,0.4
		c0.1,0.2,0.2,0.3,0.2,0.5C102.7,2.3,102.7,2.5,102.7,2.7z M102.2,2.7c0-0.2,0-0.3-0.1-0.4S102,2,102,1.9c-0.1-0.1-0.2-0.2-0.3-0.2
		s-0.2-0.1-0.4-0.1c-0.1,0-0.3,0-0.4,0.1c-0.1,0.1-0.2,0.1-0.3,0.2c-0.1,0.1-0.1,0.2-0.2,0.4c0,0.1-0.1,0.3-0.1,0.4
		c0,0.2,0,0.3,0.1,0.4c0,0.1,0.1,0.3,0.2,0.4c0.1,0.1,0.2,0.2,0.3,0.2c0.1,0.1,0.2,0.1,0.4,0.1c0.1,0,0.3,0,0.4-0.1s0.2-0.1,0.3-0.2
		c0.1-0.1,0.1-0.2,0.2-0.4S102.2,2.9,102.2,2.7z"/>
	<path fill="#6F6D6C" d="M103.8,2.9c0,0.3,0.1,0.5,0.3,0.7c0.2,0.2,0.4,0.3,0.8,0.3c0.1,0,0.3,0,0.5,0c0.2,0,0.3-0.1,0.4-0.1
		l0.1,0.4c-0.2,0.1-0.3,0.1-0.5,0.1s-0.3,0-0.5,0c-0.3,0-0.5,0-0.7-0.1c-0.2-0.1-0.4-0.2-0.5-0.3c-0.1-0.1-0.2-0.3-0.3-0.5
		c-0.1-0.2-0.1-0.4-0.1-0.6c0-0.2,0-0.4,0.1-0.6s0.2-0.4,0.3-0.5c0.1-0.1,0.3-0.3,0.5-0.3c0.2-0.1,0.4-0.1,0.6-0.1
		c0.2,0,0.4,0,0.6,0.1c0.2,0.1,0.3,0.2,0.4,0.3c0.1,0.1,0.2,0.3,0.3,0.5c0.1,0.2,0.1,0.4,0.1,0.6v0.2H103.8z M105.6,2.5
		c0-0.3-0.1-0.5-0.2-0.7s-0.3-0.2-0.6-0.2c-0.2,0-0.5,0.1-0.6,0.2s-0.3,0.4-0.3,0.7H105.6z"/>
	<path fill="#6F6D6C" d="M109,4.2V3.7c-0.1,0.2-0.2,0.3-0.4,0.4c-0.2,0.1-0.3,0.1-0.6,0.1c-0.2,0-0.4,0-0.6-0.1
		c-0.2-0.1-0.3-0.2-0.4-0.4c-0.1-0.2-0.2-0.3-0.2-0.5c-0.1-0.2-0.1-0.4-0.1-0.6c0-0.2,0-0.4,0.1-0.6c0.1-0.2,0.1-0.4,0.2-0.5
		s0.2-0.3,0.4-0.4s0.4-0.1,0.6-0.1c0.4,0,0.7,0.2,1,0.6V0.1h0.6v4.2H109z M109,2.7c0-0.2,0-0.3-0.1-0.4s-0.1-0.3-0.2-0.4
		c-0.1-0.1-0.2-0.2-0.3-0.2s-0.2-0.1-0.4-0.1c-0.1,0-0.3,0-0.4,0.1c-0.1,0.1-0.2,0.1-0.3,0.2c-0.1,0.1-0.1,0.2-0.2,0.4
		c0,0.1-0.1,0.3-0.1,0.4s0,0.3,0.1,0.4c0,0.1,0.1,0.3,0.2,0.4c0.1,0.1,0.2,0.2,0.3,0.2c0.1,0.1,0.2,0.1,0.4,0.1c0.1,0,0.3,0,0.4-0.1
		s0.2-0.1,0.3-0.2c0.1-0.1,0.1-0.2,0.2-0.4S109,2.9,109,2.7z"/>
	<path fill="#6F6D6C" d="M110.6,2V1.3h0.7V2H110.6z M110.6,4.2V3.5h0.7v0.7H110.6z"/>
	<path fill="#6F6D6C" d="M116.3,4.3c-0.2,0-0.4,0-0.6,0c-0.3,0-0.7-0.1-0.9-0.2c-0.3-0.1-0.5-0.3-0.7-0.5c-0.2-0.2-0.4-0.4-0.5-0.7
		s-0.2-0.5-0.2-0.8c0-0.3,0.1-0.6,0.2-0.9c0.1-0.3,0.3-0.5,0.5-0.7c0.2-0.2,0.4-0.3,0.7-0.4c0.3-0.1,0.6-0.2,0.9-0.2
		c0.2,0,0.4,0,0.6,0c0.2,0,0.4,0.1,0.5,0.1l-0.1,0.5c-0.2,0-0.3-0.1-0.5-0.1c-0.2,0-0.3,0-0.5,0c-0.3,0-0.5,0-0.7,0.1
		c-0.2,0.1-0.4,0.2-0.6,0.3s-0.3,0.3-0.4,0.5s-0.1,0.4-0.1,0.7c0,0.2,0,0.5,0.1,0.7c0.1,0.2,0.2,0.4,0.3,0.5s0.3,0.3,0.5,0.3
		c0.2,0.1,0.4,0.1,0.7,0.1c0.1,0,0.3,0,0.4,0s0.3,0,0.4-0.1V2.3h0.5v1.8C116.8,4.2,116.6,4.2,116.3,4.3z"/>
	<path fill="#6F6D6C" d="M119.7,4.2V3.9c-0.1,0.1-0.2,0.2-0.4,0.3c-0.2,0.1-0.3,0.1-0.6,0.1c-0.3,0-0.6-0.1-0.8-0.2
		c-0.2-0.2-0.3-0.4-0.3-0.7c0-0.3,0.1-0.5,0.3-0.7s0.4-0.2,0.7-0.2h1V2.2c0-0.2-0.1-0.3-0.2-0.5s-0.3-0.2-0.6-0.2
		c-0.1,0-0.3,0-0.5,0c-0.2,0-0.3,0-0.5,0.1l-0.1-0.4c0.2,0,0.3-0.1,0.5-0.1c0.2,0,0.4,0,0.5,0c0.4,0,0.8,0.1,1,0.3
		c0.2,0.2,0.3,0.4,0.3,0.8v2H119.7z M119.7,2.9h-0.8c-0.2,0-0.3,0-0.4,0.1c-0.1,0.1-0.1,0.2-0.1,0.4c0,0.2,0,0.3,0.1,0.4
		c0.1,0.1,0.2,0.1,0.4,0.1c0.3,0,0.5-0.1,0.6-0.2c0.1-0.1,0.2-0.3,0.2-0.6V2.9z"/>
	<path fill="#6F6D6C" d="M122.3,4.3c-0.1,0-0.1,0-0.2,0c-0.3,0-0.5-0.1-0.6-0.2c-0.2-0.1-0.2-0.4-0.2-0.7V1.6h-0.4V1.2h0.4V0.3h0.6
		v0.9h0.6v0.4h-0.6v1.8c0,0.2,0,0.3,0.1,0.4c0.1,0.1,0.1,0.1,0.3,0.1c0,0,0.1,0,0.1,0s0.1,0,0.2,0l0.1,0.4
		C122.4,4.3,122.4,4.3,122.3,4.3z"/>
	<path fill="#6F6D6C" d="M125.9,2.7c0,0.2,0,0.4-0.1,0.6c-0.1,0.2-0.2,0.4-0.3,0.5s-0.3,0.3-0.5,0.3c-0.2,0.1-0.4,0.1-0.6,0.1
		c-0.2,0-0.4,0-0.6-0.1c-0.2-0.1-0.3-0.2-0.5-0.3c-0.1-0.1-0.2-0.3-0.3-0.5C123,3.1,123,2.9,123,2.7c0-0.2,0-0.4,0.1-0.6
		c0.1-0.2,0.2-0.4,0.3-0.5c0.1-0.1,0.3-0.3,0.5-0.3s0.4-0.1,0.6-0.1c0.2,0,0.4,0,0.6,0.1c0.2,0.1,0.3,0.2,0.5,0.3
		c0.1,0.1,0.2,0.3,0.3,0.5C125.9,2.3,125.9,2.5,125.9,2.7z M125.4,2.7c0-0.2,0-0.3-0.1-0.5c0-0.1-0.1-0.3-0.2-0.4s-0.2-0.2-0.3-0.2
		s-0.2-0.1-0.4-0.1c-0.1,0-0.3,0-0.4,0.1s-0.2,0.1-0.3,0.2c-0.1,0.1-0.1,0.2-0.2,0.4c0,0.1-0.1,0.3-0.1,0.5c0,0.2,0,0.3,0.1,0.5
		c0,0.1,0.1,0.3,0.2,0.4c0.1,0.1,0.2,0.2,0.3,0.2c0.1,0.1,0.2,0.1,0.4,0.1c0.1,0,0.3,0,0.4-0.1c0.1-0.1,0.2-0.1,0.3-0.2
		s0.1-0.2,0.2-0.4C125.4,3,125.4,2.9,125.4,2.7z"/>
	<path fill="#6F6D6C" d="M131.3,3.2c0,0.2,0,0.3-0.1,0.5c-0.1,0.1-0.2,0.3-0.3,0.4c-0.1,0.1-0.3,0.2-0.5,0.2s-0.4,0.1-0.7,0.1
		c-0.3,0-0.6,0-0.8-0.1S128.3,4.1,128,4l0.1-0.4c0.3,0.1,0.5,0.2,0.8,0.2c0.3,0.1,0.5,0.1,0.8,0.1c0.3,0,0.6-0.1,0.8-0.2
		s0.3-0.3,0.3-0.5c0-0.1,0-0.2,0-0.2c0-0.1-0.1-0.1-0.2-0.2c-0.1-0.1-0.2-0.1-0.3-0.2c-0.2-0.1-0.3-0.1-0.6-0.2
		c-0.3-0.1-0.5-0.2-0.7-0.3c-0.2-0.1-0.3-0.2-0.4-0.3c-0.1-0.1-0.2-0.2-0.2-0.3c0-0.1-0.1-0.3-0.1-0.4c0-0.3,0.1-0.6,0.4-0.8
		c0.3-0.2,0.7-0.2,1.2-0.2c0.1,0,0.2,0,0.4,0c0.1,0,0.3,0,0.4,0c0.1,0,0.3,0,0.4,0.1s0.2,0.1,0.3,0.1l-0.1,0.5
		c-0.2-0.1-0.4-0.1-0.7-0.1s-0.5,0-0.7,0c-0.4,0-0.6,0-0.8,0.1c-0.2,0.1-0.2,0.2-0.2,0.4c0,0.1,0,0.2,0.1,0.3s0.1,0.1,0.2,0.2
		c0.1,0.1,0.2,0.1,0.4,0.2c0.2,0.1,0.4,0.2,0.6,0.3c0.3,0.1,0.5,0.2,0.7,0.3c0.2,0.1,0.3,0.2,0.4,0.3c0.1,0.1,0.2,0.2,0.2,0.3
		C131.3,2.9,131.3,3,131.3,3.2z"/>
	<path fill="#6F6D6C" d="M132.4,2.9c0,0.3,0.1,0.5,0.3,0.7c0.2,0.2,0.4,0.3,0.8,0.3c0.1,0,0.3,0,0.5,0c0.2,0,0.3-0.1,0.4-0.1
		l0.1,0.4c-0.2,0.1-0.3,0.1-0.5,0.1s-0.3,0-0.5,0c-0.3,0-0.5,0-0.7-0.1c-0.2-0.1-0.4-0.2-0.5-0.3c-0.1-0.1-0.2-0.3-0.3-0.5
		c-0.1-0.2-0.1-0.4-0.1-0.6c0-0.2,0-0.4,0.1-0.6s0.2-0.4,0.3-0.5c0.1-0.1,0.3-0.3,0.5-0.3c0.2-0.1,0.4-0.1,0.6-0.1
		c0.2,0,0.4,0,0.6,0.1c0.2,0.1,0.3,0.2,0.4,0.3c0.1,0.1,0.2,0.3,0.3,0.5c0.1,0.2,0.1,0.4,0.1,0.6v0.2H132.4z M134.1,2.5
		c0-0.3-0.1-0.5-0.2-0.7s-0.3-0.2-0.6-0.2c-0.2,0-0.5,0.1-0.6,0.2s-0.3,0.4-0.3,0.7H134.1z M133.5,0.8h-0.4l0.6-0.8h0.6L133.5,0.8z"
		/>
	<path fill="#6F6D6C" d="M136.7,1.7c-0.1,0.1-0.2,0.2-0.3,0.3c-0.1,0.1-0.2,0.2-0.2,0.4c-0.1,0.1-0.1,0.3-0.1,0.4v1.5h-0.6V1.2h0.5
		v0.6c0-0.1,0.1-0.2,0.2-0.2c0.1-0.1,0.2-0.1,0.2-0.2c0.1-0.1,0.2-0.1,0.3-0.1c0.1,0,0.2-0.1,0.3-0.1v0.5
		C136.9,1.6,136.8,1.7,136.7,1.7z"/>
	<path fill="#6F6D6C" d="M137.7,0.7V0h0.6v0.7H137.7z M137.7,4.2V1.2h0.6v3.1H137.7z"/>
	<path fill="#6F6D6C" d="M142,2.7c0,0.2,0,0.4-0.1,0.6c-0.1,0.2-0.2,0.4-0.3,0.5c-0.1,0.1-0.3,0.3-0.5,0.3c-0.2,0.1-0.4,0.1-0.6,0.1
		s-0.4,0-0.6-0.1c-0.2-0.1-0.3-0.2-0.5-0.3c-0.1-0.1-0.2-0.3-0.3-0.5S139,2.9,139,2.7c0-0.2,0-0.4,0.1-0.6s0.2-0.4,0.3-0.5
		c0.1-0.1,0.3-0.3,0.5-0.3c0.2-0.1,0.4-0.1,0.6-0.1s0.4,0,0.6,0.1c0.2,0.1,0.3,0.2,0.5,0.3c0.1,0.1,0.2,0.3,0.3,0.5
		C141.9,2.3,142,2.5,142,2.7z M141.4,2.7c0-0.2,0-0.3-0.1-0.5c0-0.1-0.1-0.3-0.2-0.4c-0.1-0.1-0.2-0.2-0.3-0.2s-0.2-0.1-0.4-0.1
		c-0.1,0-0.3,0-0.4,0.1s-0.2,0.1-0.3,0.2s-0.1,0.2-0.2,0.4c0,0.1-0.1,0.3-0.1,0.5c0,0.2,0,0.3,0.1,0.5c0,0.1,0.1,0.3,0.2,0.4
		s0.2,0.2,0.3,0.2c0.1,0.1,0.2,0.1,0.4,0.1c0.1,0,0.3,0,0.4-0.1c0.1-0.1,0.2-0.1,0.3-0.2c0.1-0.1,0.1-0.2,0.2-0.4
		C141.4,3,141.4,2.9,141.4,2.7z"/>
</g>
</svg>
