<!-- Generator: Adobe Illustrator 19.1.0, SVG Export Plug-In  -->
<svg version="1.1"
	 xmlns="http://www.w3.org/2000/svg" xmlns:xlink="http://www.w3.org/1999/xlink" xmlns:a="http://ns.adobe.com/AdobeSVGViewerExtensions/3.0/"
	 x="0px" y="0px" width="106.8px" height="8.5px" viewBox="0 0 106.8 8.5" style="enable-background:new 0 0 106.8 8.5;"
	 xml:space="preserve">
<style type="text/css">
	.st0{fill-rule:evenodd;clip-rule:evenodd;fill:#010101;}
</style>
<defs>
</defs>
<g>
	<path class="st0" d="M1.7,6.8c-0.6,0-1-0.2-1.4-0.5S-0.1,5.6,0,5.1L1,1.7c0.1-0.4,0.4-0.8,1-1.2C2.5,0.2,3,0,3.6,0H10L9.8,0.8H5.5
		c-0.1,0-0.3,0-0.4,0.1C4.9,1,4.8,1,4.7,1.1C4.5,1.2,4.4,1.3,4.3,1.4S4.2,1.6,4.2,1.7L3.8,3h4.3L7.9,3.8H3.6L3.3,5.1
		c-0.1,0.2,0,0.4,0.2,0.6C3.6,5.9,3.8,6,4.1,6h4.3L8.2,6.8H1.7z"/>
	<path class="st0" d="M21.1,6.8l0.9-3.4c0-0.1,0-0.2,0-0.3C22,3,22,2.9,21.9,2.8s-0.2-0.1-0.3-0.2c-0.1,0-0.2-0.1-0.4-0.1h-0.5
		c-0.1,0-0.3,0-0.4,0.1c-0.1,0-0.3,0.1-0.4,0.2S19.6,3,19.6,3.1c-0.1,0.1-0.1,0.2-0.2,0.3l-0.9,3.4h-3.2l0.9-3.4
		c0.1-0.2,0-0.4-0.2-0.6c-0.2-0.2-0.4-0.3-0.7-0.3h-0.5c-0.1,0-0.3,0-0.4,0.1c-0.1,0-0.3,0.1-0.4,0.2S13.7,3,13.6,3.1
		c-0.1,0.1-0.1,0.2-0.2,0.3l-0.9,3.4H9.3l0.9-3.4c0.1-0.4,0.4-0.8,1-1.2c0.5-0.4,1.1-0.5,1.6-0.5h10.7c0.6,0,1,0.2,1.3,0.5
		c0.3,0.4,0.4,0.7,0.3,1.2l-0.9,3.4H21.1z"/>
	<path class="st0" d="M35.9,5.1c-0.1,0.5-0.4,0.9-1,1.2c-0.5,0.3-1.1,0.5-1.6,0.5h-7.5L27.6,0h3.2l-0.5,1.7h4.3c0.6,0,1,0.2,1.4,0.5
		c0.3,0.4,0.4,0.8,0.3,1.2L35.9,5.1z M33.1,3.4c0-0.1,0-0.2,0-0.3C33.1,3,33,2.9,33,2.8c-0.1-0.1-0.2-0.1-0.3-0.2
		c-0.1,0-0.2-0.1-0.4-0.1h-2.2L29.2,6h2.2c0.3,0,0.6-0.1,0.8-0.3c0.3-0.2,0.4-0.4,0.5-0.6L33.1,3.4z"/>
	<path class="st0" d="M46.4,5.1c-0.1,0.5-0.4,0.9-1,1.2s-1.1,0.5-1.6,0.5h-5.3c-0.6,0-1-0.2-1.4-0.5c-0.3-0.3-0.5-0.7-0.3-1.2
		c0.1-0.4,0.4-0.8,1-1.2c0.5-0.4,1.1-0.5,1.6-0.5h4.3c0-0.2,0-0.4-0.2-0.6c-0.2-0.2-0.4-0.3-0.7-0.3h-4.3l0.2-0.9h6.4
		c0.6,0,1,0.2,1.4,0.5C46.9,2.6,47,3,46.9,3.4L46.4,5.1z M43.5,4.3h-2.1c-0.1,0-0.3,0-0.4,0.1s-0.3,0.1-0.4,0.2
		c-0.1,0.1-0.2,0.2-0.3,0.3C40.1,4.9,40.1,5,40,5.1c-0.1,0.2,0,0.4,0.2,0.6C40.3,5.9,40.6,6,40.9,6h1.1c0.3,0,0.6-0.1,0.8-0.3
		c0.3-0.2,0.4-0.4,0.5-0.6L43.5,4.3z"/>
	<polygon class="st0" points="47.4,6.8 49.2,0 52.4,0 50.6,6.8 	"/>
	<path class="st0" d="M62,5.1c-0.1,0.5-0.4,0.9-1,1.2S60,6.8,59.4,6.8H54c-0.6,0-1-0.2-1.4-0.5c-0.3-0.3-0.5-0.7-0.3-1.2
		c0.1-0.4,0.4-0.8,1-1.2c0.5-0.4,1.1-0.5,1.6-0.5h4.3c0-0.2,0-0.4-0.2-0.6c-0.2-0.2-0.4-0.3-0.7-0.3h-4.3l0.2-0.9h6.4
		c0.6,0,1,0.2,1.4,0.5c0.3,0.3,0.5,0.7,0.3,1.2L62,5.1z M59,4.3h-2.1c-0.1,0-0.3,0-0.4,0.1S56.2,4.5,56,4.5
		c-0.1,0.1-0.2,0.2-0.3,0.3c-0.1,0.1-0.1,0.2-0.2,0.3c-0.1,0.2,0,0.4,0.2,0.6C55.9,5.9,56.1,6,56.4,6h1.1c0.3,0,0.6-0.1,0.8-0.3
		c0.3-0.2,0.4-0.4,0.5-0.6L59,4.3z"/>
	<path class="st0" d="M72.4,6.8c-0.1,0.4-0.4,0.8-1,1.2c-0.5,0.4-1.1,0.5-1.6,0.5h-6.4l0.2-0.9h4.3c0.3,0,0.5-0.1,0.8-0.3
		c0.2-0.1,0.4-0.3,0.5-0.6h-4.3c-0.6,0-1-0.2-1.4-0.5c-0.3-0.3-0.5-0.7-0.3-1.2l0.5-1.7c0.1-0.4,0.4-0.8,1-1.2
		c0.5-0.4,1.1-0.5,1.6-0.5h7.5L72.4,6.8z M70.4,2.6h-2.2c-0.1,0-0.3,0-0.4,0.1c-0.1,0-0.3,0.1-0.4,0.2S67.2,3,67.1,3.1
		c-0.1,0.1-0.1,0.2-0.2,0.3l-0.5,1.7c-0.1,0.2,0,0.4,0.2,0.6C66.8,5.9,67,6,67.3,6h2.2L70.4,2.6z"/>
	<path class="st0" d="M77.4,5.1c0,0.2,0,0.4,0.2,0.6C77.8,5.9,78,6,78.3,6h4.3l-0.2,0.8h-6.4c-0.6,0-1-0.2-1.4-0.5s-0.5-0.7-0.3-1.2
		l0.5-1.7c0.1-0.4,0.4-0.8,1-1.2c0.5-0.4,1.1-0.5,1.6-0.5h5.3c0.6,0,1,0.2,1.4,0.5c0.3,0.3,0.5,0.7,0.3,1.2l-0.5,1.7H77.4z
		 M81.1,3.4c0-0.1,0-0.2,0-0.3c0-0.1-0.1-0.2-0.2-0.3c-0.1-0.1-0.2-0.1-0.3-0.2c-0.1,0-0.2-0.1-0.4-0.1h-1.1c-0.1,0-0.3,0-0.4,0.1
		c-0.1,0-0.3,0.1-0.4,0.2S78.2,3,78.1,3.1c-0.1,0.1-0.1,0.2-0.2,0.3l-0.2,0.9h3.2L81.1,3.4z"/>
	<path class="st0" d="M91.2,6.8l0.9-3.4c0-0.1,0-0.2,0-0.3C92,3,92,2.9,91.9,2.8c-0.1-0.1-0.2-0.1-0.3-0.2c-0.1,0-0.2-0.1-0.4-0.1
		h-2.2l-1.1,4.3h-3.2l1.4-5.2h7.5c0.6,0,1,0.2,1.4,0.5c0.3,0.4,0.4,0.8,0.3,1.2l-0.9,3.4H91.2z"/>
	<path class="st0" d="M105.7,5.6c-0.1,0.4-0.4,0.8-1,1c-0.4,0.2-0.9,0.3-1.5,0.3h-7.5L96,6h5.9c0.1,0,0.3,0,0.4-0.1
		c0.1-0.1,0.2-0.2,0.2-0.3c0.1-0.2-0.5-0.4-1.5-0.6c-0.8-0.1-1.4-0.2-1.9-0.3c-0.5-0.1-0.8-0.2-1.1-0.3c-1-0.3-1.5-0.8-1.3-1.4
		c0.1-0.4,0.4-0.8,1-1c0.4-0.2,1-0.3,1.5-0.3h7.5l-0.2,0.9h-5.9c-0.1,0-0.3,0-0.4,0.1C100.1,2.8,100,2.9,100,3
		c-0.1,0.2,0.4,0.4,1.5,0.6c0.8,0.1,1.4,0.2,1.9,0.3s0.8,0.2,1.1,0.3C105.5,4.5,105.9,4.9,105.7,5.6z"/>
</g>
</svg>
