<!-- Generator: Adobe Illustrator 18.0.0, SVG Export Plug-In  -->
<svg version="1.1"
	 xmlns="http://www.w3.org/2000/svg" xmlns:xlink="http://www.w3.org/1999/xlink" xmlns:a="http://ns.adobe.com/AdobeSVGViewerExtensions/3.0/"
	 x="0px" y="0px" width="36.9px" height="32.5px" viewBox="0 0 36.9 32.5" enable-background="new 0 0 36.9 32.5"
	 xml:space="preserve">
<defs>
</defs>
<g>
	<path fill="#0094C2" d="M6,2.8C6,1.2,7.3,0,8.8,0h25.3c1.5,0,2.8,1.2,2.8,2.8v25.3c0,1.5-1.2,2.8-2.8,2.8H8.8
		c-1.5,0-2.8-1.2-2.8-2.8V2.8z"/>
	<g>
		<defs>
			<path id="SVGID_1_" d="M6,2.8C6,1.2,7.3,0,8.8,0h25.3c1.5,0,2.8,1.2,2.8,2.8v25.3c0,1.5-1.2,2.8-2.8,2.8H8.8
				c-1.5,0-2.8-1.2-2.8-2.8V2.8z"/>
		</defs>
		<clipPath id="SVGID_2_">
			<use xlink:href="#SVGID_1_"  overflow="visible"/>
		</clipPath>
		<path clip-path="url(#SVGID_2_)" fill-rule="evenodd" clip-rule="evenodd" fill="#007DA0" d="M33.2,17.3l-7.6,15.2H0l9.8-19.4H10
			C11.7,13.1,32.9,16.5,33.2,17.3z"/>
	</g>
	<path fill="#DCE6EA" d="M9.5,14.6c0-1.6,1.3-3,3-3h18.1c1.6,0,3,1.3,3,3v1.6c0,1.6-1.3,3-3,3H12.4c-1.6,0-3-1.3-3-3V14.6z"/>
	<circle fill="#D10F17" cx="29.3" cy="15.4" r="3.4"/>
</g>
</svg>
