<!-- Generator: Adobe Illustrator 18.0.0, SVG Export Plug-In  -->
<svg version="1.1"
	 xmlns="http://www.w3.org/2000/svg" xmlns:xlink="http://www.w3.org/1999/xlink" xmlns:a="http://ns.adobe.com/AdobeSVGViewerExtensions/3.0/"
	 x="0px" y="0px" width="16.3px" height="16.3px" viewBox="0 0 16.3 16.3" enable-background="new 0 0 16.3 16.3"
	 xml:space="preserve">
<defs>
</defs>
<path fill="#E05258" d="M1.6,1.3C1.6,0.6,2.2,0,2.9,0h12c0.7,0,1.3,0.6,1.3,1.3v12c0,0.7-0.6,1.3-1.3,1.3h-12
	c-0.7,0-1.3-0.6-1.3-1.3V1.3z"/>
<g>
	<defs>
		<path id="SVGID_1_" d="M1.6,1.3C1.6,0.6,2.2,0,2.9,0h12c0.7,0,1.3,0.6,1.3,1.3v12c0,0.7-0.6,1.3-1.3,1.3h-12
			c-0.7,0-1.3-0.6-1.3-1.3V1.3z"/>
	</defs>
	<clipPath id="SVGID_2_">
		<use xlink:href="#SVGID_1_"  overflow="visible"/>
	</clipPath>
	<path clip-path="url(#SVGID_2_)" fill-rule="evenodd" clip-rule="evenodd" fill="#B84A4E" d="M11.1,7.6l-4.5,8.7H0L6.7,2.8
		C6.7,2.8,11,7.2,11.1,7.6z"/>
</g>
<path fill-rule="evenodd" clip-rule="evenodd" fill="#ACC415" d="M11.8,5.1c0.2,2.5-2.9,6.1-2.9,6.1S6.3,8,6.2,5.5
	C6,2.9,7.3,1.8,8.8,1.7C10.4,1.6,11.6,2.5,11.8,5.1z"/>
<circle fill="#FFFFFF" cx="9" cy="3.9" r="1.1"/>
<rect x="8.9" y="5.4" fill="#FFFFFF" width="0.2" height="4.4"/>
<rect x="7.7" y="5" transform="matrix(-0.6554 0.7553 -0.7553 -0.6554 17.3128 3.9016)" fill="#FFFFFF" width="0.2" height="1.8"/>
<rect x="7.7" y="6.9" transform="matrix(-0.6557 0.755 -0.755 -0.6557 18.7835 7.1286)" fill="#FFFFFF" width="0.2" height="1.8"/>
<rect x="9.8" y="5" transform="matrix(0.656 0.7547 -0.7547 0.656 7.8749 -5.4789)" fill="#FFFFFF" width="0.2" height="1.8"/>
<rect x="9.8" y="6.9" transform="matrix(0.6563 0.7545 -0.7545 0.6563 9.3397 -4.809)" fill="#FFFFFF" width="0.2" height="1.8"/>
<ellipse fill="#FFFFFF" cx="9" cy="12.4" rx="2.1" ry="0.3"/>
<ellipse fill="#FFFFFF" cx="12.5" cy="13.1" rx="1.2" ry="0.2"/>
</svg>
