<?xml version="1.0" encoding="utf-8"?>
<!-- Generator: Adobe Illustrator 19.1.0, SVG Export Plug-In . SVG Version: 6.00 Build 0)  -->
<svg version="1.1" id="Layer_1" xmlns="http://www.w3.org/2000/svg" xmlns:xlink="http://www.w3.org/1999/xlink" x="0px" y="0px"
	 viewBox="-203.2 212.6 61.5 61.4" style="enable-background:new -203.2 212.6 61.5 61.4;" xml:space="preserve">
<metadata><?xpacket begin="﻿" id="W5M0MpCehiHzreSzNTczkc9d"?>
<x:xmpmeta xmlns:x="adobe:ns:meta/" x:xmptk="Adobe XMP Core 5.6-c067 79.157747, 2015/03/30-23:40:42        ">
   <rdf:RDF xmlns:rdf="http://www.w3.org/1999/02/22-rdf-syntax-ns#">
      <rdf:Description rdf:about=""/>
   </rdf:RDF>
</x:xmpmeta>
                                                                                                    
                                                                                                    
                                                                                                    
                                                                                                    
                                                                                                    
                                                                                                    
                                                                                                    
                                                                                                    
                                                                                                    
                                                                                                    
                                                                                                    
                                                                                                    
                                                                                                    
                                                                                                    
                                                                                                    
                                                                                                    
                                                                                                    
                                                                                                    
                                                                                                    
                                                                                                    
                           
<?xpacket end="w"?></metadata>
<style type="text/css">
	.st0{fill:#FFB700;}
	.st1{clip-path:url(#SVGID_2_);fill:#DB9701;}
	.st2{fill:#FFFFFF;}
	.st3{clip-path:url(#SVGID_4_);fill:#FC7415;}
	.st4{fill:none;stroke:#0094C2;stroke-width:0.7895;stroke-miterlimit:3.8636;}
	.st5{fill:#8B9722;}
	.st6{fill:#007DA0;}
</style>
<g>
	<path class="st0" d="M-203.2,218.1c0-3,2.5-5.5,5.5-5.5h50.4c3,0,5.5,2.5,5.5,5.5v50.4c0,3-2.5,5.5-5.5,5.5h-50.4
		c-3,0-5.5-2.5-5.5-5.5C-203.2,268.5-203.2,218.1-203.2,218.1z"/>
	<g>
		<g>
			<defs>
				<path id="SVGID_1_" d="M-203.2,218.1c0-3,2.5-5.5,5.5-5.5h50.4c3,0,5.5,2.5,5.5,5.5v50.4c0,3-2.5,5.5-5.5,5.5h-50.4
					c-3,0-5.5-2.5-5.5-5.5C-203.2,268.5-203.2,218.1-203.2,218.1z"/>
			</defs>
			<clipPath id="SVGID_2_">
				<use xlink:href="#SVGID_1_"  style="overflow:visible;"/>
			</clipPath>
			<path class="st1" d="M-156.4,265.6l-5.1,10.1H-217l28.1-56.1C-188.9,219.6-157,264-156.4,265.6z"/>
		</g>
	</g>
	<polygon class="st2" points="-188.8,219.6 -165.5,219.6 -156.3,229.4 -156.3,265.7 -188.8,265.7 	"/>
	<g>
		<g>
			<defs>
				<polygon id="SVGID_3_" points="-188.8,219.6 -165.5,219.6 -156.3,229.4 -156.3,265.7 -188.8,265.7 				"/>
			</defs>
			<clipPath id="SVGID_4_">
				<use xlink:href="#SVGID_3_"  style="overflow:visible;"/>
			</clipPath>
			<polygon class="st3" points="-165.9,218.9 -155.9,229.6 -165.9,229.6 			"/>
		</g>
	</g>
	<path class="st4" d="M-180,245.9c0-4.2,3.4-7.5,7.5-7.5c4.1,0,7.5,3.4,7.5,7.5c0,3.2-2,6-4.9,7.1v2.8h-5.3V253
		C-178,251.9-180,249.1-180,245.9z"/>
	<rect x="-190.1" y="245.9" class="st5" width="7.8" height="1.4"/>
	<rect x="-162.6" y="245.9" class="st5" width="7.8" height="1.4"/>
	
		<rect x="-165.5" y="235" transform="matrix(0.7071 -0.7071 0.7071 0.7071 -213.9536 -45.2122)" class="st5" width="7.8" height="1.4"/>
	<rect x="-173.2" y="227.3" class="st5" width="1.4" height="7.8"/>
	
		<rect x="-188" y="235.7" transform="matrix(-0.7073 -0.7069 0.7069 -0.7073 -481.4594 273.3985)" class="st5" width="7.8" height="1.4"/>
</g>
<g>
	<rect x="-175.5" y="259.3" class="st6" width="5.8" height="1.1"/>
	<rect x="-174.9" y="260.7" class="st6" width="4.7" height="0.8"/>
	<rect x="-173.9" y="263.6" class="st6" width="2.7" height="0.8"/>
	<rect x="-174.9" y="262.2" class="st6" width="4.7" height="0.8"/>
</g>
</svg>
