<!-- Generator: Adobe Illustrator 18.0.0, SVG Export Plug-In  -->
<svg version="1.1"
	 xmlns="http://www.w3.org/2000/svg" xmlns:xlink="http://www.w3.org/1999/xlink" xmlns:a="http://ns.adobe.com/AdobeSVGViewerExtensions/3.0/"
	 x="0px" y="0px" width="39.3px" height="34.1px" viewBox="0 0 39.3 34.1" enable-background="new 0 0 39.3 34.1"
	 xml:space="preserve">
<defs>
</defs>
<g>
	<path fill="#FFFFFF" d="M8.4,2.8c0-1.5,1.2-2.8,2.8-2.8h25.3c1.5,0,2.8,1.2,2.8,2.8v25.3c0,1.5-1.2,2.8-2.8,2.8H11.2
		c-1.5,0-2.8-1.2-2.8-2.8V2.8z"/>
	<g>
		<defs>
			<path id="SVGID_1_" d="M8.4,2.8c0-1.5,1.2-2.8,2.8-2.8h25.3c1.5,0,2.8,1.2,2.8,2.8v25.3c0,1.5-1.2,2.8-2.8,2.8H11.2
				c-1.5,0-2.8-1.2-2.8-2.8V2.8z"/>
		</defs>
		<clipPath id="SVGID_2_">
			<use xlink:href="#SVGID_1_"  overflow="visible"/>
		</clipPath>
		<path clip-path="url(#SVGID_2_)" fill-rule="evenodd" clip-rule="evenodd" fill="#DCE6EA" d="M35.4,22.2l-6,12H0l11.8-23.1h0.5
			c4.4,0,6.1-4,10.5-4H25c2.5,0,4.3,0.4,6,2.3C32.6,11.2,34.5,20.1,35.4,22.2z"/>
	</g>
	<path fill="none" stroke="#007DA0" stroke-width="0.1544" stroke-miterlimit="3.8637" d="M8.4,2.8c0-1.5,1.2-2.8,2.8-2.8h25.3
		c1.5,0,2.8,1.2,2.8,2.8v25.3c0,1.5-1.2,2.8-2.8,2.8H11.2c-1.5,0-2.8-1.2-2.8-2.8V2.8z"/>
	<path fill="#D10F17" d="M29,7.6c0,0.8-0.3,3.5-0.3,3.5s3.4,1.8,4.4,2.5c1.7,1.1,2.8,0.3,2.6-1.6c-0.2-1.7-1.5-3.8-3.1-4.8
		C30.8,6.1,29.1,6.2,29,7.6z"/>
	<path fill="#FFFFFF" d="M30.4,8.5c0.1-0.4,0.2-0.4,0.5-0.6c0.1,0.4,0.3,0.6,0.6,0.8l0,0c0.1,0.1,0.3,0.1,0.4,0.2
		c0.3,0.2,0.6,0.4,0.9,0.7c0.2-0.1,0.6-0.3,0.8-0.4l0.9,1.1l-1,0.1c0.2,0.2,0.3,0.5,0.3,0.8l1,0.2c-0.2,0.2-0.6,0.7-0.9,0.6
		c0,0-0.1-0.1-0.2-0.1c-0.2,0.6-0.8,0.7-1.6,0.2c-0.2-0.1-0.6-0.4-1-0.6l0.3-0.3l-0.5,0.2c-0.5-0.3-0.9-0.5-0.9-0.5s0.1-1,0.1-1.5
		C30,8.9,30.1,8.6,30.4,8.5z M30.7,10.1c0,0.1,0.1,0.2,0.3,0.3c0.1,0,0.3,0,0.3-0.1c0-0.1-0.1-0.2-0.3-0.3
		C30.9,10,30.7,10,30.7,10.1z"/>
	<path fill="#0094C2" d="M29,19.3c-0.5-1.8-2.3-6.4-2.3-6.4s-4.8,1.1-6.7,1.8c-3.8,1.3-5.6,5.6-4.1,9.1c1.4,3.1,5.2,4.8,8.5,3.7
		C27.7,26.4,29.9,22.6,29,19.3z"/>
	<path fill="#90B71D" d="M20.2,14.4c1.6-1.1,5.4-3.3,5.4-3.3s-3-2.9-4-3.7c-1.7-1.4-4.9-1.3-7.1,0.2C12.1,9.1,11,12,12,14
		C13.2,16.4,16.8,16.7,20.2,14.4z"/>
	<path fill="#FFB700" d="M21.8,7.3c1.3,0.6,5,2.7,5,2.7s1.5-2.1,2-2.6c0.7-1-0.3-2.7-2.3-3.6c-1.9-0.9-4.4-0.8-5.7-0.1
		C19.2,4.7,19.4,6.2,21.8,7.3z"/>
	<path fill="#F04D12" d="M33,13.8c-1-0.2-4.3-0.8-4.3-0.8s0.6,4.7,0.6,6.6c0,3.6,1.6,5.7,3.7,5c1.6-0.5,3.1-2.9,3.1-5.4
		C36.1,16.6,34.6,14.1,33,13.8z"/>
	<path fill="#FFFFFF" d="M27.3,18c0.6,1.9-0.5,4-2.3,4.7c-1.9,0.8-4.1-0.2-4.8-2.1c-0.8-2.1,0.4-4.4,2.5-5c1-0.3,3.4-0.9,3.4-0.9
		S27,17.1,27.3,18z"/>
	<path fill="#FFFFFF" d="M20.8,12.2c-1.6,1-3.7,0.9-4.6-0.2c-0.3-0.4-0.4-0.9-0.3-1.4L13.9,11c0-0.3,0.1-0.5,0.4-0.7l1.6-0.1
		c0.2-0.6,0.7-1.3,1.4-1.7c1.3-0.8,3.1-0.7,4.1,0.1c0.5,0.5,2,1.9,2,1.9S21.6,11.7,20.8,12.2z M20.8,10.2c-0.8-0.2-1.8-0.2-3,0
		c-0.2,0.2-0.1,0.2-0.1,0.4c1.1-0.3,2.3-0.4,3.4-0.2L20.8,10.2z"/>
	<path fill="#FFFFFF" d="M27.5,6.4c0.4,0.2,0.6,0.4,0.6,0.7c0,0.4-0.6,0.7-1.3,0.6c-0.3,0-0.6-0.1-0.8-0.3c-0.4,0.2-1,0.3-1.7,0.2
		c-1.1-0.2-2-0.7-1.9-1.3c0-0.3,0.3-0.5,0.7-0.7c0-0.1-0.1-0.2,0-0.2c0.1-0.5,1.1-0.8,2.4-0.6C26.7,5,27.7,5.5,27.6,6
		C27.6,6.2,27.6,6.3,27.5,6.4z"/>
	<path fill="#FFFFFF" d="M30,15.6l0.2-0.2l0.4,0.4L30.4,16L30,15.6z M30.7,19.7l-0.4,0.4l-0.2-0.2l0.4-0.4L30.7,19.7z M34.4,15.7
		L34,16.1l-0.2-0.2l0.4-0.4L34.4,15.7z M30.1,17.9l-0.5,0l0-0.3l0.5,0L30.1,17.9z M35,18.1l-0.5,0l0-0.3l0.5,0L35,18.1z M32.1,20.8
		l0.3,0v0.6l-0.3,0V20.8z M32.1,14.1l0.3,0v0.6l-0.3,0V14.1z M30.3,17.4c0-1.6,0.9-2.7,2-2.5c1.1,0.2,1.9,1.6,1.9,3.2
		c0,1.6-0.9,2.7-1.9,2.5C31.2,20.4,30.3,19,30.3,17.4z M33.9,20l0.2-0.2l0.4,0.4l-0.2,0.2L33.9,20z"/>
</g>
</svg>
