<?xml version="1.0" encoding="utf-8"?>
<!-- Generator: Adobe Illustrator 19.1.0, SVG Export Plug-In . SVG Version: 6.00 Build 0)  -->
<svg version="1.1" id="Layer_1" xmlns="http://www.w3.org/2000/svg" xmlns:xlink="http://www.w3.org/1999/xlink" x="0px" y="0px"
	 viewBox="-211.1 214.4 61.4 61.4" style="enable-background:new -211.1 214.4 61.4 61.4;" xml:space="preserve">
<metadata><?xpacket begin="﻿" id="W5M0MpCehiHzreSzNTczkc9d"?>
<x:xmpmeta xmlns:x="adobe:ns:meta/" x:xmptk="Adobe XMP Core 5.6-c067 79.157747, 2015/03/30-23:40:42        ">
   <rdf:RDF xmlns:rdf="http://www.w3.org/1999/02/22-rdf-syntax-ns#">
      <rdf:Description rdf:about=""/>
   </rdf:RDF>
</x:xmpmeta>
                                                                                                    
                                                                                                    
                                                                                                    
                                                                                                    
                                                                                                    
                                                                                                    
                                                                                                    
                                                                                                    
                                                                                                    
                                                                                                    
                                                                                                    
                                                                                                    
                                                                                                    
                                                                                                    
                                                                                                    
                                                                                                    
                                                                                                    
                                                                                                    
                                                                                                    
                                                                                                    
                           
<?xpacket end="w"?></metadata>
<style type="text/css">
	.st0{fill:#90B71D;}
	.st1{clip-path:url(#SVGID_2_);fill:#ED4012;}
	.st2{clip-path:url(#SVGID_4_);fill:#7F991D;}
	.st3{fill:#FFDA00;}
	.st4{fill:#FFFFFF;}
</style>
<g>
	<path class="st0" d="M-211.1,219.9c0-3,2.5-5.5,5.5-5.5h50.4c3,0,5.5,2.5,5.5,5.5v50.4c0,3-2.5,5.5-5.5,5.5h-50.4
		c-3,0-5.5-2.5-5.5-5.5C-211.1,270.3-211.1,219.9-211.1,219.9z"/>
	<g>
		<g>
			<defs>
				<path id="SVGID_1_" d="M-211.1,219.9c0-3,2.5-5.5,5.5-5.5h50.4c3,0,5.5,2.5,5.5,5.5v50.4c0,3-2.5,5.5-5.5,5.5h-50.4
					c-3,0-5.5-2.5-5.5-5.5C-211.1,270.3-211.1,219.9-211.1,219.9z"/>
			</defs>
			<clipPath id="SVGID_2_">
				<use xlink:href="#SVGID_1_"  style="overflow:visible;"/>
			</clipPath>
			<rect x="-217.2" y="211.4" class="st1" width="72.1" height="22.1"/>
		</g>
		<g>
			<defs>
				<path id="SVGID_3_" d="M-211.1,219.9c0-3,2.5-5.5,5.5-5.5h50.4c3,0,5.5,2.5,5.5,5.5v50.4c0,3-2.5,5.5-5.5,5.5h-50.4
					c-3,0-5.5-2.5-5.5-5.5C-211.1,270.3-211.1,219.9-211.1,219.9z"/>
			</defs>
			<clipPath id="SVGID_4_">
				<use xlink:href="#SVGID_3_"  style="overflow:visible;"/>
			</clipPath>
			<polygon class="st2" points="-199.7,245.1 -193.5,241.4 -167.3,241.4 -163.1,245.8 -164.5,250.6 -161.7,255.4 -161.3,259.4 
				-172.6,282.1 -218,280.7 			"/>
		</g>
	</g>
	<polygon class="st3" points="-188.5,221.2 -188.5,219.4 -196.4,219.4 -196.4,221.2 -193.5,221.2 -193.5,228.4 -191.4,228.4 
		-191.4,221.2 	"/>
	<polygon class="st3" points="-177.9,228.4 -177.9,226.6 -182.4,226.6 -182.4,224.6 -178.1,224.6 -178.1,222.9 -182.4,222.9 
		-182.4,221.1 -177.9,221.1 -177.9,219.4 -184.5,219.4 -184.5,228.4 	"/>
	<path class="st3" d="M-167.4,222.3c0,0.8-0.6,1.3-1.3,1.3h-2.4V221h2.4C-168,221-167.4,221.5-167.4,222.3z M-164.4,228.4l-2.6-3.5
		c1-0.5,1.7-1.5,1.7-2.6c0-1.6-1.2-2.9-2.9-2.9h-4.9v9h2v-3.2h1.9l2.3,3.2H-164.4z"/>
	<path class="st4" d="M-188.9,251.7c0,3.2-0.9,6.5-4,6.5c-3.1,0-4-3.3-4-6.5s1-6.5,4-6.5S-188.9,248.5-188.9,251.7z M-184.5,251.7
		c0-5.6-2.8-10.3-8.3-10.3s-8.4,4.7-8.4,10.3c0,5.6,2.9,10.3,8.4,10.3S-184.5,257.3-184.5,251.7z"/>
	<path class="st4" d="M-164.7,247.3c0,1.6-1.2,2.6-2.8,2.6l0,0c-1.5,0-2.8-1-2.8-2.6c0-1.3,0.9-2.4,2.8-2.4
		C-165.6,244.9-164.7,246-164.7,247.3z M-163.9,255.8c0,1.6-1.4,2.7-3.6,2.7c-2.2,0-3.6-1.1-3.6-2.7c0-1.3,1.2-2.7,3.6-2.7
		C-165,253-163.9,254.5-163.9,255.8z M-159.6,255.8c0-2-1.2-3.9-3.3-4.9c1.4-1,2.3-2.4,2.3-4.1c0-3.3-2.8-5.3-6.8-5.3
		s-6.9,2-6.9,5.3c0,1.6,0.9,3.1,2.3,4.1c-2.2,1.1-3.3,2.9-3.3,4.9c0,3.5,3,6.3,7.9,6.3C-162.6,262.1-159.6,259.3-159.6,255.8z"/>
</g>
</svg>
