<!-- Generator: Adobe Illustrator 18.0.0, SVG Export Plug-In  -->
<svg version="1.1"
	 xmlns="http://www.w3.org/2000/svg" xmlns:xlink="http://www.w3.org/1999/xlink" xmlns:a="http://ns.adobe.com/AdobeSVGViewerExtensions/3.0/"
	 x="0px" y="0px" width="147.6px" height="145.9px" viewBox="0 0 147.6 145.9" enable-background="new 0 0 147.6 145.9"
	 xml:space="preserve">
<defs>
</defs>
<g>
	<path fill="#181512" d="M76.4,21.3c0,2.3-1.3,4.2-3.2,5.2L71,33.1l-2.5-6.4c-2.2-0.8-3.8-3-3.8-5.5c0-3.2,2.6-5.8,5.8-5.8
		C73.8,15.4,76.4,18,76.4,21.3 M74.4,21.3c0-2.1-1.7-3.8-3.8-3.8c-2.1,0-3.8,1.7-3.8,3.8c0,2.1,1.7,3.8,3.8,3.8
		C72.7,25.1,74.4,23.4,74.4,21.3z"/>
	<polyline fill="#E20A16" points="73.2,20 70.6,23.8 68,20 73.2,20 	"/>
	<polygon points="108.4,5.2 98.3,0 88.7,10.8 92.8,13.1 84,22 87.4,24.4 80.6,34.5 96.2,25.6 92.6,24.1 103.1,14.8 98.7,12.6 	"/>
	<polygon points="119.1,16.1 111.7,12.3 104.8,20.1 107.8,21.7 101.3,28.2 103.9,30 98.9,37.3 110.2,30.8 107.6,29.7 115.2,23 
		112,21.4 	"/>
	<polygon points="11.1,94.3 9,86.3 18.1,81.2 19,84.5 26.7,79.5 27.9,82.3 36,79 27.4,88.7 26.9,85.9 18.7,92 17.8,88.6 	"/>
	<polygon points="133.4,91.3 129.3,98.5 119.3,95.7 121,92.7 112.1,90.8 113.2,88 105.2,84.6 118.1,83.8 116.5,86.2 126.5,87.6 
		124.7,90.7 	"/>
	<path fill="#B5C8D1" d="M39.6,12c4.5,1.1,7.7,4.3,7.7,8.1c0,4.7-5,8.5-11.3,8.5c-1.3,0-2.5-0.2-3.6-0.4c-1.8,5-7.1,8.6-13.4,8.6
		C11.3,36.7,5,31.2,5,24.4S11.3,12,19.1,12c0.6,0,1.2,0,1.8,0.1c-0.2-0.6-0.3-1.3-0.3-1.9c0-4.2,4.3-7.6,9.7-7.6s9.7,3.4,9.7,7.6
		C39.9,10.8,39.8,11.4,39.6,12z"/>
	<path fill="#908E8E" d="M35.4,10.2c4.5,1.1,7.7,4.3,7.7,8.1c0,4.7-5,8.5-11.3,8.5c-1.3,0-2.5-0.2-3.6-0.4c-1.8,5-7.1,8.6-13.4,8.6
		C7.1,35,0.8,29.5,0.8,22.6s6.3-12.4,14.1-12.4c0.6,0,1.2,0,1.8,0.1c-0.2-0.6-0.3-1.3-0.3-1.9c0-4.2,4.3-7.6,9.7-7.6
		s9.7,3.4,9.7,7.6C35.7,9.1,35.6,9.7,35.4,10.2z"/>
	<ellipse fill="#B5C8D1" cx="81.9" cy="141" rx="65.7" ry="4.9"/>
	<ellipse fill="#93B91D" cx="80.8" cy="136.1" rx="66.5" ry="5.7"/>
	<rect x="41.2" y="70.4" fill="#C7B5B4" width="58.8" height="65.3"/>
	
		<rect x="41.2" y="70.4" fill="none" stroke="#000000" stroke-width="1.492" stroke-miterlimit="3.8636" width="58.8" height="65.3"/>
	<rect x="45.7" y="75.2" fill="#FFFFFF" width="35" height="36.4"/>
	<rect x="45.7" y="75.2" fill="none" stroke="#000000" stroke-width="1.492" stroke-miterlimit="3.8636" width="35" height="36.4"/>
	
		<rect x="84.8" y="101.5" transform="matrix(-0.9986 5.227891e-02 -5.227891e-02 -0.9986 188.6704 232.4401)" fill="#FFA002" width="12.9" height="34.4"/>
	
		<rect x="84.8" y="101.5" transform="matrix(-0.9986 5.227891e-02 -5.227891e-02 -0.9986 188.6704 232.4401)" fill="none" stroke="#000000" stroke-width="1.492" stroke-miterlimit="3.8636" width="12.9" height="34.4"/>
	<polygon fill-rule="evenodd" clip-rule="evenodd" fill="#E72A14" points="99,69.7 69.5,68.2 40,66.6 71.2,34.6 	"/>
	<polygon fill="none" stroke="#000000" stroke-width="1.492" stroke-miterlimit="3.8636" points="99,69.7 69.5,68.2 40,66.6 
		71.2,34.6 	"/>
	<path fill="#181512" d="M63.5,106.2c-5.8,0-10.5-4.7-10.5-10.5c0-5.8,4.7-10.5,10.5-10.5S74,89.9,74,95.7
		C74,101.5,69.3,106.2,63.5,106.2 M63.5,83.7c-6.6,0-12,5.4-12,12c0,6.6,5.4,12,12,12c6.6,0,12-5.4,12-12
		C75.5,89.1,70.1,83.7,63.5,83.7z"/>
	<path d="M64.7,86.6L64.7,86.6c-0.3-0.1-0.7-0.1-1-0.1c-0.5,0-0.9,0-1.4,0.1v0c-4.5,0.6-8,4.4-8,9.1c0,5.1,4.1,9.2,9.2,9.2
		c5.1,0,9.2-4.1,9.2-9.2C72.7,91.1,69.2,87.2,64.7,86.6z"/>
	<path d="M63.5,82.1c0.4,0,0.8,0,1.2,0.1v-1.4c0-0.6-0.5-1.2-1.2-1.2c-0.6,0-1.2,0.5-1.2,1.2v1.4C62.7,82.1,63.1,82.1,63.5,82.1"/>
	<path d="M67.2,81.4c0.8-1.2,3.2-1,5.4,0.4c2.2,1.4,3.3,3.5,2.5,4.7C74.3,87.7,66.4,82.6,67.2,81.4"/>
	<path d="M51.9,87.1c-0.9-1.1,0.1-3.3,2.1-4.9c2.1-1.6,4.4-1.9,5.3-0.8C60.2,82.5,52.8,88.2,51.9,87.1"/>
	<path d="M70.6,106.4c-2,1.5-4.4,2.3-7.1,2.3c-2.6,0-5.1-0.9-7.1-2.3c-3.3,1-5.6,2.7-5.9,4.7h26C76.2,109.1,73.9,107.4,70.6,106.4"
		/>
	<ellipse fill="#FFFFFF" cx="77.1" cy="95.3" rx="2" ry="3.3"/>
	<ellipse fill="none" stroke="#000000" stroke-width="1.4074" stroke-miterlimit="3.8636" cx="77.1" cy="95.3" rx="2" ry="3.3"/>
	<ellipse fill="#FFFFFF" cx="50.1" cy="95.3" rx="2" ry="3.3"/>
	<ellipse fill="none" stroke="#000000" stroke-width="1.4074" stroke-miterlimit="3.8636" cx="50.1" cy="95.3" rx="2" ry="3.3"/>
	<path fill="#FFFFFF" d="M58.3,95.5c0,0.5,3.9,0.8,5.9,1c0.1,0.1,0.4,0.2,0.8,0.1c0.2,0,0.4,0,0.4,0c0.1,0,0.2-0.1,0.3-0.4
		c0.3-0.2,0.4-0.5,0.4-0.6c0,0-0.1-0.2-0.3-0.5c-0.1-0.4-0.2-0.8-0.4-0.8c-1.1-2-3-5.4-3.4-5.3l-0.1,0c-0.3,0.2,0.7,3.3,1.5,5.4
		C61.4,94.7,58.3,95,58.3,95.5L58.3,95.5z"/>
	<path fill="#E20A16" d="M23.9,35.4l-8,2.8c-0.9,0.3-2.3,0.8-3.1,1.1L10.7,40l0.4-1.3c0.1-0.4-0.3-1-1-1.2l-4.2-1.4
		c-0.7-0.2-1.3,0-1.5,0.4L0.6,48.3c-0.1,0.4,0.3,1,1,1.2l4.2,1.4c0.7,0.2,1.3,0,1.5-0.4l0.4-1.3L9,51c0.5,0.7,1.4,2,1.9,2.7l4.8,7
		c0.5,0.7,1.2,0.6,1.4-0.2l7.8-24C25.2,35.6,24.7,35.1,23.9,35.4z"/>
	<path fill="none" stroke="#000000" stroke-width="1.2064" stroke-miterlimit="3.8636" d="M23.9,35.4l-8,2.8
		c-0.9,0.3-2.3,0.8-3.1,1.1L10.7,40l0.4-1.3c0.1-0.4-0.3-1-1-1.2l-4.2-1.4c-0.7-0.2-1.3,0-1.5,0.4L0.6,48.3c-0.1,0.4,0.3,1,1,1.2
		l4.2,1.4c0.7,0.2,1.3,0,1.5-0.4l0.4-1.3L9,51c0.5,0.7,1.4,2,1.9,2.7l4.8,7c0.5,0.7,1.2,0.6,1.4-0.2l7.8-24
		C25.2,35.6,24.7,35.1,23.9,35.4z"/>
	<line fill="none" stroke="#000000" stroke-width="1.492" stroke-miterlimit="3.8636" x1="24.6" y1="48.9" x2="39.3" y2="53.2"/>
	<line fill="none" stroke="#000000" stroke-width="1.492" stroke-miterlimit="3.8636" x1="29" y1="43.9" x2="44.9" y2="40.3"/>
	<line fill="none" stroke="#000000" stroke-width="1.492" stroke-miterlimit="3.8636" x1="25" y1="55.1" x2="35.6" y2="69.2"/>
	<path fill="#A8749E" d="M116.9,35.4l8,2.8c0.9,0.3,2.3,0.8,3.1,1.1l2.1,0.7l-0.4-1.3c-0.1-0.4,0.3-1,1-1.2l4.2-1.4
		c0.7-0.2,1.3,0,1.5,0.4l3.8,11.8c0.1,0.4-0.3,1-1,1.2l-4.2,1.4c-0.7,0.2-1.3,0-1.5-0.4l-0.4-1.3l-1.2,1.8c-0.5,0.7-1.4,2-1.9,2.7
		l-4.8,7c-0.5,0.7-1.2,0.6-1.4-0.2l-7.8-24C115.6,35.6,116.1,35.1,116.9,35.4z"/>
	<path fill="none" stroke="#000000" stroke-width="1.2064" stroke-miterlimit="3.8636" d="M116.9,35.4l8,2.8
		c0.9,0.3,2.3,0.8,3.1,1.1l2.1,0.7l-0.4-1.3c-0.1-0.4,0.3-1,1-1.2l4.2-1.4c0.7-0.2,1.3,0,1.5,0.4l3.8,11.8c0.1,0.4-0.3,1-1,1.2
		l-4.2,1.4c-0.7,0.2-1.3,0-1.5-0.4l-0.4-1.3l-1.2,1.8c-0.5,0.7-1.4,2-1.9,2.7l-4.8,7c-0.5,0.7-1.2,0.6-1.4-0.2l-7.8-24
		C115.6,35.6,116.1,35.1,116.9,35.4z"/>
	<line fill="none" stroke="#000000" stroke-width="1.492" stroke-miterlimit="3.8636" x1="116.2" y1="48.9" x2="101.5" y2="53.2"/>
	<line fill="none" stroke="#000000" stroke-width="1.492" stroke-miterlimit="3.8636" x1="111.8" y1="43.9" x2="95.9" y2="40.3"/>
	<line fill="none" stroke="#000000" stroke-width="1.492" stroke-miterlimit="3.8636" x1="115.8" y1="55.1" x2="105.2" y2="69.2"/>
	<line fill="none" stroke="#E20A16" stroke-width="1.492" stroke-miterlimit="3.8636" x1="47.5" y1="91.1" x2="41.9" y2="88.9"/>
	<line fill="none" stroke="#E20A16" stroke-width="1.492" stroke-miterlimit="3.8636" x1="46.5" y1="94.7" x2="37.3" y2="94.7"/>
	<line fill="none" stroke="#E20A16" stroke-width="1.492" stroke-miterlimit="3.8636" x1="47.1" y1="97.9" x2="41.3" y2="100.5"/>
	<line fill="none" stroke="#E20A16" stroke-width="1.492" stroke-miterlimit="3.8636" x1="48.3" y1="100.3" x2="45.1" y2="103.5"/>
	<line fill="none" stroke="#E20A16" stroke-width="1.492" stroke-miterlimit="3.8636" x1="79.6" y1="92.9" x2="83.3" y2="90.9"/>
	<line fill="none" stroke="#E20A16" stroke-width="1.492" stroke-miterlimit="3.8636" x1="81.3" y1="95.3" x2="86.5" y2="95.3"/>
	<line fill="none" stroke="#E20A16" stroke-width="1.492" stroke-miterlimit="3.8636" x1="77.7" y1="97.5" x2="82.7" y2="100.7"/>
	<line fill="none" stroke="#E20A16" stroke-width="1.492" stroke-miterlimit="3.8636" x1="77.7" y1="100.9" x2="83.5" y2="106.6"/>
	<path fill="none" stroke="#FFFFFF" stroke-width="0.7459" stroke-miterlimit="3.8636" d="M59.5,101.8c1.5-1.2,2.8-1.6,4.7-1.6
		c1,0,2.8,1.1,3.6,1.8"/>
	<line fill="none" stroke="#000000" stroke-width="1.492" stroke-miterlimit="3.8636" x1="50.3" y1="76.4" x2="53.9" y2="80"/>
	<line fill="none" stroke="#000000" stroke-width="1.492" stroke-miterlimit="3.8636" x1="60" y1="72.8" x2="60" y2="77.4"/>
	<line fill="none" stroke="#000000" stroke-width="1.492" stroke-miterlimit="3.8636" x1="65.6" y1="73" x2="65.6" y2="77.4"/>
	<line fill="none" stroke="#000000" stroke-width="1.492" stroke-miterlimit="3.8636" x1="76.1" y1="75.6" x2="74" y2="78.9"/>
	<line fill="none" stroke="#000000" stroke-width="1.492" stroke-miterlimit="3.8636" x1="75.7" y1="82.8" x2="82.1" y2="80.4"/>
	<polygon points="37.4,15.8 44.7,12.1 51.6,19.9 48.6,21.5 55.1,27.9 52.6,29.7 57.5,37 46.2,30.6 48.8,29.5 41.2,22.8 44.4,21.2 	
		"/>
	<polyline fill="none" stroke="#008131" stroke-width="0.5798" stroke-miterlimit="3.8637" points="39.5,128.8 35.3,136.3 36.6,131 
		34.6,136.3 33.9,130.5 34,136.5 33,128.4 33.3,136.6 32,128.5 32.3,136.5 26.6,126.9 31.4,136.6 	"/>
	<polyline fill="none" stroke="#000000" stroke-width="0.5798" stroke-miterlimit="3.8637" points="36.9,128.6 32.6,136 33.9,130.8 
		32,136.1 31.3,130.3 31.4,136.3 30.3,128.1 30.6,136.3 29.3,128.2 29.7,136.2 24,126.7 28.8,136.3 	"/>
</g>
</svg>
