<!-- Generator: Adobe Illustrator 18.0.0, SVG Export Plug-In  -->
<svg version="1.1"
	 xmlns="http://www.w3.org/2000/svg" xmlns:xlink="http://www.w3.org/1999/xlink" xmlns:a="http://ns.adobe.com/AdobeSVGViewerExtensions/3.0/"
	 x="0px" y="0px" width="305.4px" height="225.3px" viewBox="0 0 305.4 225.3" enable-background="new 0 0 305.4 225.3"
	 xml:space="preserve">
<defs>
</defs>
<g>
	<path fill="#B5C8D1" d="M268,178.4c-4.1,0-7.5-3.3-7.5-7.3c0-4,3.3-7.3,7.5-7.3c4.1,0,7.5,3.3,7.5,7.3
		C275.5,175.1,272.2,178.4,268,178.4z M279.4,171.4c0-0.1,0-0.2,0-0.3c0-0.3,0-0.5,0-0.8c1.6,0.1,7.2,0.3,5.5-4.8
		c-1.8-5.3-6.4-1.6-7.4-0.7c-0.2-0.3-0.4-0.6-0.7-0.9c1.4-0.8,6-3.9,1.5-7c-4.6-3.3-6.1,2.4-6.4,3.7c-0.3-0.1-0.7-0.2-1.1-0.3
		c0.6-1.4,2.5-6.6-3-6.6c-5.7,0-3.5,5.5-3,6.7c-0.4,0.1-0.7,0.2-1,0.4c-0.4-1.5-1.9-6.7-6.4-3.6c-4.6,3.3,0.5,6.4,1.6,7.1
		c-0.2,0.3-0.4,0.6-0.6,0.9c-1.2-1-5.6-4.3-7.3,0.8c-1.8,5.3,4.3,4.9,5.6,4.8c0,0.1,0,0.2,0,0.3c0,0.3,0,0.5,0,0.8
		c-1.6-0.1-7.2-0.3-5.5,4.8c1.8,5.3,6.4,1.6,7.4,0.7c0.2,0.3,0.4,0.6,0.7,0.9c-1.4,0.8-6,3.9-1.5,7c4.6,3.2,6.1-2.4,6.4-3.7
		c0.3,0.1,0.7,0.2,1.1,0.3c-0.6,1.3-2.1,5.5,1.6,6.4v14.5c-5.2,1.2-7-1.4-7-1.4c1.7,1.6,3.8,1.1,3.8,1.1s2.2-0.5,2.1-3.2
		c0-2.7-3-2.5-5-2.4c-2,0-3.1-3.3-3.1-3.3s-1.5,3.8,0.9,7.8c1.7,2.9,5.8,3,8.3,2.7v0.1h2.4V204c2.5,0.3,6.6,0.2,8.3-2.7
		c2.3-4,0.9-7.8,0.9-7.8s-1.1,3.4-3.1,3.3c-2,0-5-0.2-5,2.5c0,2.7,2.2,3.2,2.2,3.2s2.1,0.4,3.8-1.1c0,0-1.8,2.6-7,1.5v-14.4
		c4.5-0.6,2.5-5.5,2-6.6c0.4-0.1,0.7-0.2,1-0.4c0.4,1.5,1.9,6.7,6.4,3.6c4.6-3.3-0.5-6.4-1.6-7.1c0.2-0.3,0.4-0.6,0.6-0.9
		c1.2,1,5.6,4.3,7.3-0.8C286.8,170.9,280.8,171.2,279.4,171.4z"/>
	<path fill="#B5C8D1" d="M157.8,31.6c0,9.9-8,17.9-17.9,17.9c-9.9,0-17.9-8-17.9-17.9c0-9.9,8-17.9,17.9-17.9
		C149.8,13.7,157.8,21.7,157.8,31.6z"/>
	<path fill="#B5C8D1" d="M142.9,7.6c0,1.6-1.3,3-3,3c-1.6,0-3-1.3-3-3V3c0-1.6,1.3-3,3-3c1.6,0,3,1.3,3,3V7.6z"/>
	<path fill="#B5C8D1" d="M142.9,7.6c0,1.6-1.3,3-3,3c-1.6,0-3-1.3-3-3V3c0-1.6,1.3-3,3-3c1.6,0,3,1.3,3,3V7.6z"/>
	<path fill="#B5C8D1" d="M128.1,10.5c1,1.3,0.7,3.2-0.7,4.1c-1.3,1-3.2,0.7-4.1-0.7l-2.7-3.7c-1-1.3-0.7-3.2,0.7-4.1
		c1.3-1,3.2-0.7,4.1,0.7L128.1,10.5z"/>
	<path fill="#B5C8D1" d="M117.8,21.5c1.6,0.5,2.4,2.2,1.9,3.7c-0.5,1.6-2.2,2.4-3.7,1.9l-4.4-1.4c-1.6-0.5-2.4-2.2-1.9-3.7
		c0.5-1.6,2.2-2.4,3.7-1.9L117.8,21.5z"/>
	<path fill="#B5C8D1" d="M116,36.4c1.6-0.5,3.2,0.3,3.7,1.9c0.5,1.6-0.3,3.2-1.9,3.7l-4.4,1.4c-1.6,0.5-3.2-0.3-3.7-1.9
		c-0.5-1.6,0.3-3.2,1.9-3.7L116,36.4z"/>
	<path fill="#B5C8D1" d="M123.3,49.5c1-1.3,2.8-1.6,4.1-0.7c1.3,1,1.6,2.8,0.7,4.1l-2.7,3.7c-1,1.3-2.8,1.6-4.1,0.7
		c-1.3-1-1.6-2.8-0.7-4.1L123.3,49.5z"/>
	<path fill="#B5C8D1" d="M136.9,55.9c0-1.6,1.3-3,3-3c1.6,0,3,1.3,3,3v4.6c0,1.6-1.3,3-3,3c-1.6,0-3-1.3-3-3V55.9z"/>
	<path fill="#B5C8D1" d="M151.7,53c-1-1.3-0.7-3.2,0.7-4.1c1.3-1,3.2-0.7,4.1,0.7l2.7,3.7c1,1.3,0.7,3.2-0.7,4.1
		c-1.3,1-3.2,0.7-4.1-0.7L151.7,53z"/>
	<path fill="#B5C8D1" d="M162,42c-1.6-0.5-2.4-2.2-1.9-3.7c0.5-1.6,2.2-2.4,3.7-1.9l4.4,1.4c1.6,0.5,2.4,2.2,1.9,3.7
		c-0.5,1.6-2.2,2.4-3.7,1.9L162,42z"/>
	<path fill="#B5C8D1" d="M163.8,27.1c-1.6,0.5-3.2-0.3-3.7-1.9c-0.5-1.6,0.3-3.2,1.9-3.7l4.4-1.4c1.6-0.5,3.2,0.3,3.7,1.9
		c0.5,1.6-0.3,3.2-1.9,3.7L163.8,27.1z"/>
	<path fill="#B5C8D1" d="M156.5,13.9c-1,1.3-2.8,1.6-4.1,0.7c-1.3-1-1.6-2.8-0.7-4.1l2.7-3.7c1-1.3,2.8-1.6,4.1-0.7
		c1.3,1,1.6,2.8,0.7,4.1L156.5,13.9z"/>
	<path fill="#FFA002" d="M161.8,33.3c0,9.9-8,17.9-17.9,17.9c-9.9,0-17.9-8-17.9-17.9c0-9.9,8-17.9,17.9-17.9
		C153.7,15.4,161.8,23.4,161.8,33.3z"/>
	<path fill="none" stroke="#000000" stroke-width="1.2886" stroke-miterlimit="3.8636" d="M161.8,33.3c0,9.9-8,17.9-17.9,17.9
		c-9.9,0-17.9-8-17.9-17.9c0-9.9,8-17.9,17.9-17.9C153.7,15.4,161.8,23.4,161.8,33.3z"/>
	<path fill="#E20A16" d="M146.8,9.3c0,1.6-1.3,3-3,3c-1.6,0-3-1.3-3-3V4.7c0-1.6,1.3-3,3-3c1.6,0,3,1.3,3,3V9.3z"/>
	<path fill="none" stroke="#000000" stroke-width="1.2886" stroke-miterlimit="3.8636" d="M146.8,9.3c0,1.6-1.3,3-3,3
		c-1.6,0-3-1.3-3-3V4.7c0-1.6,1.3-3,3-3c1.6,0,3,1.3,3,3V9.3z"/>
	<path fill="#E20A16" d="M146.8,9.3c0,1.6-1.3,3-3,3c-1.6,0-3-1.3-3-3V4.7c0-1.6,1.3-3,3-3c1.6,0,3,1.3,3,3V9.3z"/>
	<path fill="none" stroke="#000000" stroke-width="1.2886" stroke-miterlimit="3.8636" d="M146.8,9.3c0,1.6-1.3,3-3,3
		c-1.6,0-3-1.3-3-3V4.7c0-1.6,1.3-3,3-3c1.6,0,3,1.3,3,3V9.3z"/>
	<path fill="#E20A16" d="M132,12.2c1,1.3,0.7,3.2-0.7,4.1c-1.3,1-3.2,0.7-4.1-0.7l-2.7-3.7c-1-1.3-0.7-3.2,0.7-4.1
		c1.3-1,3.2-0.7,4.1,0.7L132,12.2z"/>
	<path fill="none" stroke="#000000" stroke-width="1.2886" stroke-miterlimit="3.8636" d="M132,12.2c1,1.3,0.7,3.2-0.7,4.1
		c-1.3,1-3.2,0.7-4.1-0.7l-2.7-3.7c-1-1.3-0.7-3.2,0.7-4.1c1.3-1,3.2-0.7,4.1,0.7L132,12.2z"/>
	<path fill="#E20A16" d="M121.8,23.2c1.6,0.5,2.4,2.2,1.9,3.7c-0.5,1.6-2.2,2.4-3.7,1.9l-4.4-1.4c-1.6-0.5-2.4-2.2-1.9-3.7
		c0.5-1.6,2.2-2.4,3.7-1.9L121.8,23.2z"/>
	<path fill="none" stroke="#000000" stroke-width="1.2886" stroke-miterlimit="3.8636" d="M121.8,23.2c1.6,0.5,2.4,2.2,1.9,3.7
		c-0.5,1.6-2.2,2.4-3.7,1.9l-4.4-1.4c-1.6-0.5-2.4-2.2-1.9-3.7c0.5-1.6,2.2-2.4,3.7-1.9L121.8,23.2z"/>
	<path fill="#E20A16" d="M120,38.1c1.6-0.5,3.2,0.3,3.7,1.9c0.5,1.6-0.3,3.2-1.9,3.7l-4.4,1.4c-1.6,0.5-3.2-0.3-3.7-1.9
		c-0.5-1.6,0.3-3.2,1.9-3.7L120,38.1z"/>
	<path fill="none" stroke="#000000" stroke-width="1.2886" stroke-miterlimit="3.8636" d="M120,38.1c1.6-0.5,3.2,0.3,3.7,1.9
		c0.5,1.6-0.3,3.2-1.9,3.7l-4.4,1.4c-1.6,0.5-3.2-0.3-3.7-1.9c-0.5-1.6,0.3-3.2,1.9-3.7L120,38.1z"/>
	<path fill="#E20A16" d="M127.3,51.3c1-1.3,2.8-1.6,4.1-0.7c1.3,1,1.6,2.8,0.7,4.1l-2.7,3.7c-1,1.3-2.8,1.6-4.1,0.7
		c-1.3-1-1.6-2.8-0.7-4.1L127.3,51.3z"/>
	<path fill="none" stroke="#000000" stroke-width="1.2886" stroke-miterlimit="3.8636" d="M127.3,51.3c1-1.3,2.8-1.6,4.1-0.7
		c1.3,1,1.6,2.8,0.7,4.1l-2.7,3.7c-1,1.3-2.8,1.6-4.1,0.7c-1.3-1-1.6-2.8-0.7-4.1L127.3,51.3z"/>
	<path fill="#E20A16" d="M140.9,57.6c0-1.6,1.3-3,3-3c1.6,0,3,1.3,3,3v4.6c0,1.6-1.3,3-3,3c-1.6,0-3-1.3-3-3V57.6z"/>
	<path fill="none" stroke="#000000" stroke-width="1.2886" stroke-miterlimit="3.8636" d="M140.9,57.6c0-1.6,1.3-3,3-3
		c1.6,0,3,1.3,3,3v4.6c0,1.6-1.3,3-3,3c-1.6,0-3-1.3-3-3V57.6z"/>
	<path fill="#E20A16" d="M155.7,54.8c-1-1.3-0.7-3.2,0.7-4.1c1.3-1,3.2-0.7,4.1,0.7l2.7,3.7c1,1.3,0.7,3.2-0.7,4.1
		c-1.3,1-3.2,0.7-4.1-0.7L155.7,54.8z"/>
	<path fill="none" stroke="#000000" stroke-width="1.2886" stroke-miterlimit="3.8636" d="M155.7,54.8c-1-1.3-0.7-3.2,0.7-4.1
		c1.3-1,3.2-0.7,4.1,0.7l2.7,3.7c1,1.3,0.7,3.2-0.7,4.1c-1.3,1-3.2,0.7-4.1-0.7L155.7,54.8z"/>
	<path fill="#E20A16" d="M165.9,43.7c-1.6-0.5-2.4-2.2-1.9-3.7c0.5-1.6,2.2-2.4,3.7-1.9l4.4,1.4c1.6,0.5,2.4,2.2,1.9,3.7
		c-0.5,1.6-2.2,2.4-3.7,1.9L165.9,43.7z"/>
	<path fill="none" stroke="#000000" stroke-width="1.2886" stroke-miterlimit="3.8636" d="M165.9,43.7c-1.6-0.5-2.4-2.2-1.9-3.7
		c0.5-1.6,2.2-2.4,3.7-1.9l4.4,1.4c1.6,0.5,2.4,2.2,1.9,3.7c-0.5,1.6-2.2,2.4-3.7,1.9L165.9,43.7z"/>
	<path fill="#E20A16" d="M167.7,28.8c-1.6,0.5-3.2-0.3-3.7-1.9c-0.5-1.6,0.3-3.2,1.9-3.7l4.4-1.4c1.6-0.5,3.2,0.3,3.7,1.9
		c0.5,1.6-0.3,3.2-1.9,3.7L167.7,28.8z"/>
	<path fill="none" stroke="#000000" stroke-width="1.2886" stroke-miterlimit="3.8636" d="M167.7,28.8c-1.6,0.5-3.2-0.3-3.7-1.9
		c-0.5-1.6,0.3-3.2,1.9-3.7l4.4-1.4c1.6-0.5,3.2,0.3,3.7,1.9c0.5,1.6-0.3,3.2-1.9,3.7L167.7,28.8z"/>
	<path fill="#E20A16" d="M160.4,15.7c-1,1.3-2.8,1.6-4.1,0.7c-1.3-1-1.6-2.8-0.7-4.1l2.7-3.7c1-1.3,2.8-1.6,4.1-0.7
		c1.3,1,1.6,2.8,0.7,4.1L160.4,15.7z"/>
	<path fill="none" stroke="#000000" stroke-width="1.2886" stroke-miterlimit="3.8636" d="M160.4,15.7c-1,1.3-2.8,1.6-4.1,0.7
		c-1.3-1-1.6-2.8-0.7-4.1l2.7-3.7c1-1.3,2.8-1.6,4.1-0.7c1.3,1,1.6,2.8,0.7,4.1L160.4,15.7z"/>
	<ellipse fill="#D7D7D7" cx="151.1" cy="210.7" rx="151.1" ry="14.6"/>
	<ellipse fill="#66A825" cx="154.3" cy="207.7" rx="151.1" ry="14.6"/>
	<path fill="none" stroke="#000000" stroke-width="1.1696" stroke-miterlimit="3.8636" d="M173.8,199.4c-4.6,6.1-12.9,7.7-18.4,3.5"
		/>
	<path fill="none" stroke="#000000" stroke-width="1.1696" stroke-miterlimit="3.8636" d="M199.3,202.8L199.3,202.8
		c-5.5,4.2-13.8,2.6-18.4-3.5"/>
	<path fill="#D1D209" d="M265.1,178.9c-4.1,0-7.5-3.3-7.5-7.3c0-4,3.3-7.3,7.5-7.3c4.1,0,7.5,3.3,7.5,7.3
		C272.5,175.6,269.2,178.9,265.1,178.9z M276.4,171.9c0-0.1,0-0.2,0-0.3c0-0.3,0-0.5,0-0.8c1.6,0.1,7.2,0.3,5.5-4.8
		c-1.8-5.3-6.4-1.6-7.4-0.7c-0.2-0.3-0.4-0.6-0.7-0.9c1.4-0.8,6-3.9,1.5-7c-4.6-3.3-6.1,2.4-6.4,3.7c-0.3-0.1-0.7-0.2-1.1-0.3
		c0.6-1.4,2.5-6.6-3-6.6c-5.7,0-3.5,5.5-3,6.7c-0.4,0.1-0.7,0.2-1,0.4c-0.4-1.5-1.9-6.7-6.4-3.6c-4.6,3.3,0.5,6.4,1.6,7.1
		c-0.2,0.3-0.4,0.6-0.6,0.9c-1.2-1-5.6-4.3-7.3,0.8c-1.8,5.3,4.3,4.9,5.6,4.8c0,0.1,0,0.2,0,0.3c0,0.3,0,0.5,0,0.8
		c-1.6-0.1-7.2-0.3-5.5,4.8c1.8,5.3,6.4,1.6,7.4,0.7c0.2,0.3,0.4,0.6,0.7,0.9c-1.4,0.8-6,3.9-1.5,7c4.6,3.2,6.1-2.4,6.4-3.7
		c0.3,0.1,0.7,0.2,1.1,0.3c-0.6,1.3-2.1,5.5,1.6,6.4v14.5c-5.2,1.2-7-1.4-7-1.4c1.7,1.6,3.8,1.1,3.8,1.1s2.2-0.5,2.1-3.2
		c0-2.7-3-2.5-5-2.4c-2,0-3.1-3.3-3.1-3.3s-1.5,3.8,0.9,7.8c1.7,2.9,5.8,3,8.3,2.7v0.1h2.4v-0.1c2.5,0.3,6.6,0.2,8.3-2.7
		c2.3-4,0.9-7.8,0.9-7.8s-1.1,3.4-3.1,3.3c-2,0-5-0.2-5,2.5c0,2.7,2.2,3.2,2.2,3.2s2.1,0.4,3.8-1.1c0,0-1.8,2.6-7,1.5v-14.4
		c4.5-0.6,2.5-5.5,2-6.6c0.4-0.1,0.7-0.2,1-0.4c0.4,1.5,1.9,6.7,6.4,3.6c4.6-3.3-0.5-6.4-1.6-7.1c0.2-0.3,0.4-0.6,0.6-0.9
		c1.2,1,5.6,4.3,7.3-0.8C283.8,171.4,277.8,171.7,276.4,171.9z"/>
	<path fill="none" stroke="#000000" stroke-width="0.6443" stroke-miterlimit="3.8636" d="M265.1,178.9c-4.1,0-7.5-3.3-7.5-7.3
		c0-4,3.3-7.3,7.5-7.3c4.1,0,7.5,3.3,7.5,7.3C272.5,175.6,269.2,178.9,265.1,178.9z M276.4,171.9c0-0.1,0-0.2,0-0.3
		c0-0.3,0-0.5,0-0.8c1.6,0.1,7.2,0.3,5.5-4.8c-1.8-5.3-6.4-1.6-7.4-0.7c-0.2-0.3-0.4-0.6-0.7-0.9c1.4-0.8,6-3.9,1.5-7
		c-4.6-3.3-6.1,2.4-6.4,3.7c-0.3-0.1-0.7-0.2-1.1-0.3c0.6-1.4,2.5-6.6-3-6.6c-5.7,0-3.5,5.5-3,6.7c-0.4,0.1-0.7,0.2-1,0.4
		c-0.4-1.5-1.9-6.7-6.4-3.6c-4.6,3.3,0.5,6.4,1.6,7.1c-0.2,0.3-0.4,0.6-0.6,0.9c-1.2-1-5.6-4.3-7.3,0.8c-1.8,5.3,4.3,4.9,5.6,4.8
		c0,0.1,0,0.2,0,0.3c0,0.3,0,0.5,0,0.8c-1.6-0.1-7.2-0.3-5.5,4.8c1.8,5.3,6.4,1.6,7.4,0.7c0.2,0.3,0.4,0.6,0.7,0.9
		c-1.4,0.8-6,3.9-1.5,7c4.6,3.2,6.1-2.4,6.4-3.7c0.3,0.1,0.7,0.2,1.1,0.3c-0.6,1.3-2.1,5.5,1.6,6.4v14.5c-5.2,1.2-7-1.4-7-1.4
		c1.7,1.6,3.8,1.1,3.8,1.1s2.2-0.5,2.1-3.2c0-2.7-3-2.5-5-2.4c-2,0-3.1-3.3-3.1-3.3s-1.5,3.8,0.9,7.8c1.7,2.9,5.8,3,8.3,2.7v0.1h2.4
		v-0.1c2.5,0.3,6.6,0.2,8.3-2.7c2.3-4,0.9-7.8,0.9-7.8s-1.1,3.4-3.1,3.3c-2,0-5-0.2-5,2.5c0,2.7,2.2,3.2,2.2,3.2s2.1,0.4,3.8-1.1
		c0,0-1.8,2.6-7,1.5v-14.4c4.5-0.6,2.5-5.5,2-6.6c0.4-0.1,0.7-0.2,1-0.4c0.4,1.5,1.9,6.7,6.4,3.6c4.6-3.3-0.5-6.4-1.6-7.1
		c0.2-0.3,0.4-0.6,0.6-0.9c1.2,1,5.6,4.3,7.3-0.8C283.8,171.4,277.8,171.7,276.4,171.9z"/>
	<circle fill="#E72A14" cx="265.1" cy="171.6" r="3.8"/>
	<polyline fill="none" stroke="#008131" stroke-width="0.5008" stroke-miterlimit="3.8637" points="305.1,197.7 297.4,211.3 
		299.7,201.7 296.1,211.3 294.9,200.8 295.1,211.7 293.2,196.9 293.7,211.8 291.4,197.1 292,211.6 281.6,194.3 290.4,211.8 	"/>
	<polyline fill="none" stroke="#000000" stroke-width="0.5008" stroke-miterlimit="3.8637" points="300.3,197.3 292.6,210.8 
		294.9,201.3 291.4,210.9 290.1,200.3 290.4,211.3 288.4,196.5 288.9,211.4 286.6,196.6 287.2,211.2 276.8,193.9 285.6,211.3 	"/>
	<path d="M179.9,172c1.4-0.1,2.7,0.9,2.8,2.4c0.2,2.6,0.8,5.1,1.8,7.6c5.5,14.3,21.6,21.5,35.9,16c14.3-5.5,21.5-21.6,16-35.9
		c-0.9-2.5-2.2-4.7-3.7-6.7c-0.9-1.1-0.6-2.8,0.5-3.6c1.2-0.9,2.8-0.6,3.6,0.5c1.8,2.4,3.3,5.1,4.4,8c6.5,17-2,36.1-19,42.7
		c-17,6.5-36.1-2-42.7-19c-1.1-3-1.8-6-2.1-9.1c-0.1-1.2,0.6-2.3,1.7-2.7C179.4,172,179.7,172,179.9,172z"/>
	<path fill="#B5C8D1" d="M204.5,31.2c3.5-2.7,8.2-4.4,13.4-4.4c8.9,0,16.5,4.9,18.8,11.7c4.4-3,10.1-4.8,16.3-4.8
		c13.8,0,24.9,8.8,24.9,19.7c0,10.9-11.2,19.7-24.9,19.7l-0.7,0c-1.9,9.2-13,16.3-26.4,16.3c-13.3,0-24.3-6.9-26.4-16.1
		c-4.2,1.2-8.8,1.9-13.7,1.9c-19.4,0-35-10.7-35-23.8s15.7-23.8,35-23.8C192.7,27.5,199.1,28.8,204.5,31.2z"/>
	<path fill="#FFFFFF" d="M23.6,193.6c0-2.3,6.9-4.1,15.4-4.1h25.9c8.5,0,15.4,1.8,15.4,4.1c0,2.3-6.9,4.1-15.4,4.1H39
		C30.5,197.7,23.6,195.9,23.6,193.6z"/>
	<g>
		<defs>
			<path id="SVGID_1_" d="M23.6,193.6c0-2.3,6.9-4.1,15.4-4.1h25.9c8.5,0,15.4,1.8,15.4,4.1c0,2.3-6.9,4.1-15.4,4.1H39
				C30.5,197.7,23.6,195.9,23.6,193.6z"/>
		</defs>
		<clipPath id="SVGID_2_">
			<use xlink:href="#SVGID_1_"  overflow="visible"/>
		</clipPath>
		
			<ellipse transform="matrix(-0.7431 0.6691 -0.6691 -0.7431 197.4829 300.063)" clip-path="url(#SVGID_2_)" cx="41.1" cy="187.9" rx="6.8" ry="16.4"/>
	</g>
	<path fill="none" stroke="#000000" stroke-width="1.2886" stroke-miterlimit="3.8636" d="M23.6,193.6c0-2.3,6.9-4.1,15.4-4.1h25.9
		c8.5,0,15.4,1.8,15.4,4.1c0,2.3-6.9,4.1-15.4,4.1H39C30.5,197.7,23.6,195.9,23.6,193.6z"/>
	<ellipse fill="#FFFFFF" cx="79.8" cy="171.8" rx="28.8" ry="34.7"/>
	
		<ellipse fill="none" stroke="#000000" stroke-width="1.2886" stroke-miterlimit="3.8636" cx="79.8" cy="171.8" rx="28.8" ry="34.7"/>
	<path fill="#FFFFFF" d="M59.2,149c0-12.7,10.3-23,23-23h28.4c12.7,0,23,10.3,23,23v34.8c0,12.7-10.3,23-23,23H82.2
		c-12.7,0-23-10.3-23-23V149z"/>
	<path fill="none" stroke="#000000" stroke-width="1.2886" stroke-miterlimit="3.8636" d="M59.2,149c0-12.7,10.3-23,23-23h28.4
		c12.7,0,23,10.3,23,23v34.8c0,12.7-10.3,23-23,23H82.2c-12.7,0-23-10.3-23-23V149z"/>
	<path fill="#FFFFFF" d="M64.6,78.9c0-8.3,4.9-15,10.9-15c6,0,10.9,6.7,10.9,15v4h18.5v-4c0-8.3,4.9-15,10.9-15
		c6,0,10.9,6.7,10.9,15V83c1.7,5.5,2.6,11.5,2.6,17.8c0,25.4-15,46.1-33.5,46.1s-33.5-20.6-33.5-46.1c0-6,0.8-11.7,2.4-17V78.9z"/>
	<g>
		<defs>
			<path id="SVGID_3_" d="M64.6,78.9c0-8.3,4.9-15,10.9-15c6,0,10.9,6.7,10.9,15v4h18.5v-4c0-8.3,4.9-15,10.9-15
				c6,0,10.9,6.7,10.9,15V83c1.7,5.5,2.6,11.5,2.6,17.8c0,25.4-15,46.1-33.5,46.1s-33.5-20.6-33.5-46.1c0-6,0.8-11.7,2.4-17V78.9z"
				/>
		</defs>
		<clipPath id="SVGID_4_">
			<use xlink:href="#SVGID_3_"  overflow="visible"/>
		</clipPath>
		<ellipse clip-path="url(#SVGID_4_)" cx="74.2" cy="105.6" rx="19.5" ry="15.6"/>
	</g>
	<path fill="none" stroke="#000000" stroke-width="1.2886" stroke-miterlimit="3.8636" d="M64.6,78.9c0-8.3,4.9-15,10.9-15
		c6,0,10.9,6.7,10.9,15v4h18.5v-4c0-8.3,4.9-15,10.9-15c6,0,10.9,6.7,10.9,15V83c1.7,5.5,2.6,11.5,2.6,17.8
		c0,25.4-15,46.1-33.5,46.1s-33.5-20.6-33.5-46.1c0-6,0.8-11.7,2.4-17V78.9z"/>
	<circle cx="111.5" cy="105.3" r="2.7"/>
	<circle fill="#FFFFFF" cx="80" cy="105.3" r="2.7"/>
	<path d="M88.3,131.5c0-3.1,3.7-5.6,8.3-5.6h0c4.6,0,8.3,2.5,8.3,5.6c0,3.1-3.7,5.6-8.3,5.6h0C92,137.1,88.3,134.6,88.3,131.5z"/>
	<line fill="none" stroke="#000000" stroke-width="1.2886" stroke-miterlimit="3.8636" x1="70.7" y1="81.9" x2="79.1" y2="81.6"/>
	<line fill="none" stroke="#000000" stroke-width="1.2886" stroke-miterlimit="3.8636" x1="120.1" y1="81.9" x2="111.7" y2="81.6"/>
	<path fill="none" stroke="#000000" stroke-width="1.2886" stroke-miterlimit="3.8636" d="M90.8,199.9c-5.1,6.8-14.2,8.5-20.3,3.9"
		/>
	<path fill="none" stroke="#000000" stroke-width="1.2886" stroke-miterlimit="3.8636" d="M122,203.6L122,203.6
		c-6.1,4.6-15.2,2.9-20.3-3.9"/>
	<path fill-rule="evenodd" clip-rule="evenodd" fill="#754632" d="M197.3,144.8c14.7,16,14.6,31.6,17.1,46.6
		c-1.6,14.7-21.3,16.1-34.9,15.3l-20.2-26L197.3,144.8z"/>
	<path fill="none" stroke="#000000" stroke-width="1.1696" stroke-miterlimit="3.8636" d="M197.3,144.8c14.7,16,14.6,31.6,17.1,46.6
		c-1.6,14.7-21.3,16.1-34.9,15.3l-20.2-26L197.3,144.8z"/>
	<path fill-rule="evenodd" clip-rule="evenodd" fill="#FFA002" d="M149.8,159.5c0-11.5,9.3-20.8,20.8-20.8h13.1
		c11.5,0,20.8,9.3,20.8,20.8l3.7,26.3c0,11.5-9.3,20.8-20.8,20.8h-20.5c-11.5,0-20.8-9.3-20.8-20.8L149.8,159.5z"/>
	<path fill="none" stroke="#000000" stroke-width="1.1696" stroke-miterlimit="3.8636" d="M149.8,159.5c0-11.5,9.3-20.8,20.8-20.8
		h13.1c11.5,0,20.8,9.3,20.8,20.8l3.7,26.3c0,11.5-9.3,20.8-20.8,20.8h-20.5c-11.5,0-20.8-9.3-20.8-20.8L149.8,159.5z"/>
	<path fill="#FFBD4E" d="M172.4,94.9L190,80.3l-5.3,15c3.8,1.1,7.5,2.9,10.9,5.5c3.3,2.5,6.1,5.5,8.2,8.7l12.9-9.1l-8.9,20.4
		c0.5,5.8-1.1,11.9-5.5,17.7c-10.1,13.4-28.3,16.8-40.6,7.5c-12.3-9.3-14.1-27.7-4-41.1C161.9,99.4,167,96.1,172.4,94.9z"/>
	<g>
		<defs>
			<path id="SVGID_5_" d="M172.4,94.9L190,80.3l-5.3,15c3.8,1.1,7.5,2.9,10.9,5.5c3.3,2.5,6.1,5.5,8.2,8.7l12.9-9.1l-8.9,20.4
				c0.5,5.8-1.1,11.9-5.5,17.7c-10.1,13.4-28.3,16.8-40.6,7.5c-12.3-9.3-14.1-27.7-4-41.1C161.9,99.4,167,96.1,172.4,94.9z"/>
		</defs>
		<clipPath id="SVGID_6_">
			<use xlink:href="#SVGID_5_"  overflow="visible"/>
		</clipPath>
		
			<ellipse transform="matrix(-0.7985 -0.602 0.602 -0.7985 281.6023 304.422)" clip-path="url(#SVGID_6_)" fill="#754632" cx="191.7" cy="105.1" rx="10.9" ry="9.2"/>
	</g>
	<path fill="none" stroke="#000000" stroke-width="1.1696" stroke-miterlimit="3.8636" d="M172.4,94.9L190,80.3l-5.3,15
		c3.8,1.1,7.5,2.9,10.9,5.5c3.3,2.5,6.1,5.5,8.2,8.7l12.9-9.1l-8.9,20.4c0.5,5.8-1.1,11.9-5.5,17.7c-10.1,13.4-28.3,16.8-40.6,7.5
		c-12.3-9.3-14.1-27.7-4-41.1C161.9,99.4,167,96.1,172.4,94.9z"/>
	
		<ellipse transform="matrix(-0.7985 -0.602 0.602 -0.7985 234.8471 304.7267)" fill="#FFFFFF" cx="168.4" cy="113.1" rx="10" ry="2.8"/>
	<g>
		<defs>
			
				<ellipse id="SVGID_7_" transform="matrix(-0.7985 -0.602 0.602 -0.7985 234.8471 304.7267)" cx="168.4" cy="113.1" rx="10" ry="2.8"/>
		</defs>
		<clipPath id="SVGID_8_">
			<use xlink:href="#SVGID_7_"  overflow="visible"/>
		</clipPath>
		
			<ellipse transform="matrix(-0.7985 -0.602 0.602 -0.7985 233.7772 302.7762)" clip-path="url(#SVGID_8_)" cx="167.6" cy="112.3" rx="2.5" ry="4.1"/>
	</g>
	
		<ellipse transform="matrix(-0.7985 -0.602 0.602 -0.7985 234.8471 304.7267)" fill="none" stroke="#000000" stroke-width="0.5808" stroke-miterlimit="3.8636" cx="168.4" cy="113.1" rx="10" ry="2.8"/>
	
		<ellipse transform="matrix(-0.7985 -0.602 0.602 -0.7985 263.4564 346.3822)" fill="#FFFFFF" cx="189.7" cy="129.1" rx="10" ry="2.8"/>
	<g>
		<defs>
			
				<ellipse id="SVGID_9_" transform="matrix(-0.7985 -0.602 0.602 -0.7985 263.4564 346.3822)" cx="189.7" cy="129.1" rx="10" ry="2.8"/>
		</defs>
		<clipPath id="SVGID_10_">
			<use xlink:href="#SVGID_9_"  overflow="visible"/>
		</clipPath>
		
			<ellipse transform="matrix(-0.7985 -0.602 0.602 -0.7985 264.3853 347.3417)" clip-path="url(#SVGID_10_)" cx="190.3" cy="129.4" rx="2.5" ry="4.1"/>
	</g>
	
		<ellipse transform="matrix(-0.7985 -0.602 0.602 -0.7985 263.4564 346.3822)" fill="none" stroke="#000000" stroke-width="0.5808" stroke-miterlimit="3.8636" cx="189.7" cy="129.1" rx="10" ry="2.8"/>
	<path d="M167,128.8c0.2-0.3,0.4-0.5,0.6-0.7l9.6,7.3c-0.2,0.3-0.3,0.5-0.5,0.8c-2.9,3.8-7.4,5.3-10,3.3
		C164,137.3,164.1,132.6,167,128.8z"/>
	<line fill="none" stroke="#000000" stroke-width="1.1696" stroke-miterlimit="3.8636" x1="174.5" y1="95.8" x2="181.9" y2="97.3"/>
	<line fill="none" stroke="#000000" stroke-width="1.1696" stroke-miterlimit="3.8636" x1="204.9" y1="118.8" x2="201.4" y2="112"/>
	
		<line fill="none" stroke="#000000" stroke-width="0.5808" stroke-miterlimit="3.8636" x1="163.9" y1="128.9" x2="144.6" y2="114.4"/>
	
		<line fill="none" stroke="#000000" stroke-width="0.5808" stroke-miterlimit="3.8636" x1="162.9" y1="131.3" x2="140.5" y2="119.3"/>
	
		<line fill="none" stroke="#000000" stroke-width="0.5808" stroke-miterlimit="3.8636" x1="163.1" y1="133.7" x2="137.4" y2="125.9"/>
	
		<line fill="none" stroke="#000000" stroke-width="0.5808" stroke-miterlimit="3.8636" x1="177.4" y1="139.1" x2="196.7" y2="153.6"/>
	<line fill="none" stroke="#000000" stroke-width="0.5808" stroke-miterlimit="3.8636" x1="175.4" y1="140.7" x2="193.1" y2="159"/>
	
		<line fill="none" stroke="#000000" stroke-width="0.5808" stroke-miterlimit="3.8636" x1="173.1" y1="141.2" x2="186.7" y2="162.6"/>
	<ellipse fill="#754632" cx="177.2" cy="172.7" rx="8.5" ry="9.4"/>
	<path fill="#71CEF3" d="M198.1,28c3.5-2.7,8.2-4.4,13.4-4.4c8.9,0,16.5,4.9,18.8,11.7c4.4-3,10.1-4.8,16.3-4.8
		c13.8,0,24.9,8.8,24.9,19.7c0,10.9-11.2,19.7-24.9,19.7l-0.7,0c-1.9,9.2-13,16.3-26.4,16.3c-13.3,0-24.3-6.9-26.4-16.1
		c-4.2,1.2-8.8,1.9-13.7,1.9c-19.4,0-35-10.7-35-23.8s15.7-23.8,35-23.8C186.3,24.3,192.7,25.6,198.1,28z"/>
	<polyline fill="none" stroke="#008131" stroke-width="0.5077" stroke-miterlimit="3.8637" points="32,193.2 24.2,206.9 26.6,197.2 
		23,207 21.7,196.3 22,207.4 20,192.4 20.5,207.5 18.1,192.6 18.8,207.3 8.2,189.7 17.2,207.4 	"/>
	<polyline fill="none" stroke="#000000" stroke-width="0.5077" stroke-miterlimit="3.8637" points="27.2,192.7 19.4,206.5 
		21.8,196.8 18.1,206.5 16.9,195.8 17.1,207 15.2,191.9 15.7,207 13.3,192.1 13.9,206.9 3.4,189.3 12.3,207 	"/>
	<polyline fill="none" stroke="#008131" stroke-width="0.6161" stroke-miterlimit="3.8637" points="255.8,195.8 246.3,212.5 
		249.2,200.7 244.8,212.5 243.3,199.6 243.6,213.1 241.2,194.8 241.8,213.2 238.9,195 239.7,212.9 226.9,191.6 237.7,213.1 	"/>
	<polyline fill="none" stroke="#000000" stroke-width="0.6161" stroke-miterlimit="3.8637" points="249.9,195.3 240.4,211.9 
		243.3,200.2 238.9,212 237.4,199 237.7,212.5 235.3,194.3 235.9,212.6 233,194.5 233.8,212.4 221,191.1 231.9,212.6 	"/>
</g>
</svg>
