<!-- Generator: Adobe Illustrator 19.1.0, SVG Export Plug-In  -->
<svg version="1.1"
	 xmlns="http://www.w3.org/2000/svg" xmlns:xlink="http://www.w3.org/1999/xlink" xmlns:a="http://ns.adobe.com/AdobeSVGViewerExtensions/3.0/"
	 x="0px" y="0px" width="450.3px" height="247.8px" viewBox="0 0 450.3 247.8" style="enable-background:new 0 0 450.3 247.8;"
	 xml:space="preserve">
<style type="text/css">
	.st0{fill:#0D99D6;}
	.st1{fill:#45A8DA;}
</style>
<defs>
</defs>
<g>
	<path class="st0" d="M154.5,43.2C176.6,16.8,209.8,0,247,0c19.3,0,37.6,4.5,53.7,12.6c12.8-5.5,26.9-8.5,41.8-8.5
		c58.7,0,106.3,47.6,106.3,106.3s-47.6,106.3-106.3,106.3c-7.1,0-14-0.7-20.7-2c-20.5,16.3-46.5,26-74.8,26
		c-36.8,0-69.8-16.5-91.9-42.6c-16.4,14.1-37.3,22.6-60.2,22.6C42.5,220.9,0,176.2,0,121s42.5-99.9,94.9-99.9
		C117.5,21.1,138.2,29.4,154.5,43.2z"/>
	<path class="st1" d="M156.1,50.3C178.1,23.8,211.4,7,248.5,7c19.3,0,37.6,4.5,53.7,12.6c12.8-5.5,26.9-8.5,41.8-8.5
		c58.7,0,106.3,47.6,106.3,106.3S402.7,223.8,344,223.8c-7.1,0-14-0.7-20.7-2c-20.5,16.3-46.5,26-74.8,26
		c-36.8,0-69.8-16.5-91.9-42.6c-16.4,14.1-37.3,22.6-60.2,22.6C44,227.9,1.5,183.2,1.5,128c0-55.2,42.5-99.9,94.9-99.9
		C119,28.1,139.8,36.4,156.1,50.3z"/>
</g>
</svg>
