<!-- Generator: Adobe Illustrator 19.1.0, SVG Export Plug-In  -->
<svg version="1.1"
	 xmlns="http://www.w3.org/2000/svg" xmlns:xlink="http://www.w3.org/1999/xlink" xmlns:a="http://ns.adobe.com/AdobeSVGViewerExtensions/3.0/"
	 x="0px" y="0px" width="62.2px" height="87.8px" viewBox="0 0 62.2 87.8" style="enable-background:new 0 0 62.2 87.8;"
	 xml:space="preserve">
<style type="text/css">
	.st0{fill:none;stroke:#010101;stroke-width:4.6864;stroke-miterlimit:3.8636;}
	.st1{fill:#B5C8D1;}
	.st2{fill:none;stroke:#010101;stroke-width:2.8458;stroke-miterlimit:3.8636;}
</style>
<defs>
</defs>
<g>
	<line class="st0" x1="1.3" y1="20.5" x2="12.4" y2="27.5"/>
	<line class="st0" x1="33.5" y1="0" x2="33.5" y2="11.7"/>
	<line class="st0" x1="53.4" y1="11.1" x2="45.2" y2="19.3"/>
	<line class="st0" x1="61.6" y1="34" x2="50.5" y2="36.9"/>
	<path class="st1" d="M34.2,23.5l1.9,11.9l2.1-0.3c1.6-0.2,3,0.8,3.3,2.4l6.9,43.7c0.2,1.6-0.8,3-2.4,3.3l-11.7,1.9
		c-1.6,0.2-3-0.8-3.3-2.4l-6.9-43.7c-0.2-1.6,0.8-3,2.4-3.3l2.3-0.4l-1.9-11.9l-0.4,0.1l-0.3-2l8.2-1.3l0.3,2L34.2,23.5z"/>
	<path class="st2" d="M34.2,23.5l1.9,11.9l2.1-0.3c1.6-0.2,3,0.8,3.3,2.4l6.9,43.7c0.2,1.6-0.8,3-2.4,3.3l-11.7,1.9
		c-1.6,0.2-3-0.8-3.3-2.4l-6.9-43.7c-0.2-1.6,0.8-3,2.4-3.3l2.3-0.4l-1.9-11.9l-0.4,0.1l-0.3-2l8.2-1.3l0.3,2L34.2,23.5z"/>
</g>
</svg>
