<!-- Generator: Adobe Illustrator 19.1.0, SVG Export Plug-In  -->
<svg version="1.1"
	 xmlns="http://www.w3.org/2000/svg" xmlns:xlink="http://www.w3.org/1999/xlink" xmlns:a="http://ns.adobe.com/AdobeSVGViewerExtensions/3.0/"
	 x="0px" y="0px" width="73.4px" height="65.8px" viewBox="0 0 73.4 65.8" style="enable-background:new 0 0 73.4 65.8;"
	 xml:space="preserve">
<style type="text/css">
	.st0{fill:none;stroke:#010101;stroke-width:4.6864;stroke-miterlimit:3.8636;}
	.st1{fill-rule:evenodd;clip-rule:evenodd;fill:#FFFFFF;}
	.st2{fill:none;stroke:#010101;stroke-width:2.3432;stroke-miterlimit:3.8636;}
</style>
<defs>
</defs>
<g>
	<line class="st0" x1="1.4" y1="8.5" x2="14.9" y2="19.1"/>
	<line class="st0" x1="26.1" y1="1.5" x2="26.1" y2="11.5"/>
	<line class="st0" x1="60" y1="1.5" x2="54.2" y2="8.5"/>
	<line class="st0" x1="71.7" y1="20.8" x2="64.1" y2="28.5"/>
	<polygon class="st1" points="7.2,31.5 29.6,29.6 51.6,63.5 29.1,64.6 	"/>
	<polygon class="st2" points="7.2,31.5 29.6,29.6 51.6,63.5 29.1,64.6 	"/>
	<line class="st2" x1="14.2" y1="36.6" x2="28.7" y2="35.5"/>
	<line class="st2" x1="16.4" y1="39.9" x2="30.9" y2="38.9"/>
	<line class="st2" x1="18.6" y1="43.2" x2="33" y2="42.2"/>
	<line class="st2" x1="20.7" y1="46.4" x2="35.1" y2="45.5"/>
	<polygon class="st1" points="41.4,9.3 30.5,29 52.6,62.9 62.7,42.8 	"/>
	<polygon class="st2" points="41.4,9.3 30.5,29 52.6,62.9 62.7,42.8 	"/>
	<line class="st2" x1="43.1" y1="17.8" x2="36.2" y2="30.6"/>
	<line class="st2" x1="45.3" y1="21.1" x2="38.5" y2="33.9"/>
	<line class="st2" x1="47.4" y1="24.4" x2="40.6" y2="37.2"/>
	<line class="st2" x1="49.5" y1="27.7" x2="42.8" y2="40.5"/>
</g>
</svg>
