<!-- Generator: Adobe Illustrator 19.1.0, SVG Export Plug-In  -->
<svg version="1.1"
	 xmlns="http://www.w3.org/2000/svg" xmlns:xlink="http://www.w3.org/1999/xlink" xmlns:a="http://ns.adobe.com/AdobeSVGViewerExtensions/3.0/"
	 x="0px" y="0px" width="66.8px" height="64.2px" viewBox="0 0 66.8 64.2" style="enable-background:new 0 0 66.8 64.2;"
	 xml:space="preserve">
<style type="text/css">
	.st0{fill:none;stroke:#010101;stroke-width:4.6864;stroke-miterlimit:3.8636;}
	.st1{fill:#F9A01B;}
	.st2{fill:none;stroke:#010101;stroke-width:1.9326;stroke-miterlimit:3.8636;}
	.st3{fill:#E72E26;}
</style>
<defs>
</defs>
<g>
	<line class="st0" x1="1.3" y1="21.2" x2="13" y2="27.1"/>
	<line class="st0" x1="25.9" y1="3.6" x2="29.4" y2="17.1"/>
	<line class="st0" x1="59.9" y1="1.3" x2="51.7" y2="13.6"/>
	<path class="st1" d="M14.1,39.8c2.2-1.1,4.8-0.6,6.4,1.1l9.5-4.9c-0.4-2.3,0.7-4.7,2.9-5.9L43.1,25c2.7-1.4,5.9-0.3,7.3,2.3
		l6.7-3.4l4.1,8l-6.7,3.4c1.3,2.7,0.2,5.9-2.4,7.3L42,47.8c-2.2,1.1-4.8,0.6-6.4-1.1L26,51.6c0.4,2.3-0.7,4.7-2.9,5.9l-10.1,5.2
		c-2.7,1.4-6,0.3-7.4-2.4l-4-7.9c-1.4-2.7-0.3-6,2.4-7.4L14.1,39.8z"/>
	<path class="st2" d="M14.1,39.8c2.2-1.1,4.8-0.6,6.4,1.1l9.5-4.9c-0.4-2.3,0.7-4.7,2.9-5.9L43.1,25c2.7-1.4,5.9-0.3,7.3,2.3
		l6.7-3.4l4.1,8l-6.7,3.4c1.3,2.7,0.2,5.9-2.4,7.3L42,47.8c-2.2,1.1-4.8,0.6-6.4-1.1L26,51.6c0.4,2.3-0.7,4.7-2.9,5.9l-10.1,5.2
		c-2.7,1.4-6,0.3-7.4-2.4l-4-7.9c-1.4-2.7-0.3-6,2.4-7.4L14.1,39.8z"/>
	<line class="st2" x1="14.9" y1="42.3" x2="21.7" y2="55.7"/>
	<line class="st2" x1="11.7" y1="43.9" x2="18.5" y2="57.3"/>
	<line class="st2" x1="8.4" y1="45.6" x2="15.2" y2="59"/>
	<line class="st2" x1="5.1" y1="47.3" x2="12" y2="60.7"/>
	<line class="st2" x1="44.6" y1="26.9" x2="51.5" y2="40.3"/>
	<line class="st2" x1="41.4" y1="28.5" x2="48.2" y2="41.9"/>
	<line class="st2" x1="38.1" y1="30.2" x2="44.9" y2="43.6"/>
	<line class="st2" x1="34.8" y1="31.9" x2="41.7" y2="45.3"/>
	<rect x="54.8" y="25" transform="matrix(-0.4539 -0.891 0.891 -0.4539 64.2788 93.7253)" class="st3" width="12.1" height="4.3"/>
	<rect x="54.8" y="25" transform="matrix(-0.4539 -0.891 0.891 -0.4539 64.2788 93.7253)" class="st2" width="12.1" height="4.3"/>
</g>
</svg>
