<!-- Generator: Adobe Illustrator 19.1.0, SVG Export Plug-In  -->
<svg version="1.1"
	 xmlns="http://www.w3.org/2000/svg" xmlns:xlink="http://www.w3.org/1999/xlink" xmlns:a="http://ns.adobe.com/AdobeSVGViewerExtensions/3.0/"
	 x="0px" y="0px" width="58px" height="67.5px" viewBox="0 0 58 67.5" style="enable-background:new 0 0 58 67.5;"
	 xml:space="preserve">
<style type="text/css">
	.st0{fill:none;stroke:#010101;stroke-width:4.6864;stroke-miterlimit:3.8636;}
	.st1{fill-rule:evenodd;clip-rule:evenodd;fill:#94BB3D;}
	.st2{fill:none;stroke:#010101;stroke-width:2.3432;stroke-miterlimit:3.8636;}
	.st3{fill:#FFFFFF;}
	.st4{fill-rule:evenodd;clip-rule:evenodd;fill:#4D843D;}
</style>
<defs>
</defs>
<g>
	<line class="st0" x1="1.2" y1="16.7" x2="12.9" y2="23.7"/>
	<line class="st0" x1="29.8" y1="0" x2="29.9" y2="10.2"/>
	<line class="st0" x1="51.6" y1="5.5" x2="44" y2="13.1"/>
	<line class="st0" x1="50.4" y1="32.5" x2="58" y2="32.5"/>
	<path class="st1" d="M14.7,39.6c1-4.2,5.2-6.9,9.4-5.9l6.3,1.5c4.2,1,6.9,5.2,5.9,9.4l-3.6,15.8c-2.1,10.4-23.4,6.1-21.7-5
		L14.7,39.6z"/>
	<path class="st2" d="M14.7,39.6c1-4.2,5.2-6.9,9.4-5.9l6.3,1.5c4.2,1,6.9,5.2,5.9,9.4l-3.6,15.8c-2.1,10.4-23.4,6.1-21.7-5
		L14.7,39.6z"/>
	<ellipse transform="matrix(-0.9744 -0.225 0.225 -0.9744 42.0269 83.3491)" class="st3" cx="25.8" cy="39.3" rx="10" ry="5.1"/>
	<ellipse transform="matrix(-0.9744 -0.225 0.225 -0.9744 42.0269 83.3491)" class="st2" cx="25.8" cy="39.3" rx="10" ry="5.1"/>
	<path class="st4" d="M32.7,24.4c1.3-5.7,4.8-8.6,7.9-6.5c3.2,2.2,4.7,8.9,3.4,14.8c-1.4,5.8-5,8.5-8.1,6.1
		C32.9,36.4,31.5,30,32.7,24.4z"/>
	<path class="st2" d="M32.7,24.4c1.3-5.7,4.8-8.6,7.9-6.5c3.2,2.2,4.7,8.9,3.4,14.8c-1.4,5.8-5,8.5-8.1,6.1
		C32.9,36.4,31.5,30,32.7,24.4z"/>
</g>
</svg>
