<?xml version="1.0" encoding="utf-8"?>
<!-- Generator: Adobe Illustrator 18.0.0, SVG Export Plug-In . SVG Version: 6.00 Build 0)  -->
<!DOCTYPE svg PUBLIC "-//W3C//DTD SVG 1.1//EN" "http://www.w3.org/Graphics/SVG/1.1/DTD/svg11.dtd">
<svg version="1.1" id="Layer_1" xmlns="http://www.w3.org/2000/svg" xmlns:xlink="http://www.w3.org/1999/xlink" x="0px" y="0px"
	 viewBox="0 0 74.7 38.3" enable-background="new 0 0 74.7 38.3" xml:space="preserve">
<g>
	<path fill="#23356F" d="M2,36.3h34.3V2H2V36.3z M38.4,38.3H0V0h38.4V38.3z"/>
	<path fill="#23356F" d="M7.1,6.6v1.2h0.3c0.5,0,0.8-0.2,0.8-0.6c0-0.5-0.3-0.6-0.8-0.6H7.1z M7.1,10.2H6V5.6h1.7
		c1.1,0,1.7,0.7,1.7,1.6S8.8,8.8,7.6,8.8H7.1V10.2z"/>
	<path fill="#23356F" d="M10.5,8.7c0,0.4,0.2,0.7,0.6,0.7c0.3,0,0.6-0.3,0.6-0.7c0-0.4-0.2-0.6-0.6-0.6C10.8,8.1,10.5,8.3,10.5,8.7z
		 M9.5,8.7c0-0.9,0.7-1.6,1.6-1.6c0.9,0,1.6,0.7,1.6,1.6c0,0.9-0.7,1.6-1.6,1.6C10.2,10.3,9.5,9.6,9.5,8.7z"/>
	<path fill="#23356F" d="M15.2,8.3h-0.4c-0.5,0-0.6,0.2-0.6,0.6v1.4h-1V7.2h1v0.5c0.1-0.3,0.4-0.5,0.7-0.5c0.1,0,0.2,0,0.2,0V8.3z"
		/>
	<path fill="#23356F" d="M16.9,6.1v1.1h0.6v0.9h-0.6v1.1c0,0.2,0.2,0.2,0.3,0.2c0.2,0,0.3,0,0.3,0v0.9c0,0-0.5,0-0.7,0
		c-0.5,0-0.9-0.1-0.9-0.8V8.1h-0.5V7.2h0.5V6.1H16.9z"/>
	<path fill="#23356F" d="M18.9,8.7c0,0.4,0.2,0.7,0.6,0.7c0.3,0,0.6-0.3,0.6-0.7c0-0.4-0.2-0.6-0.6-0.6C19.2,8.1,18.9,8.3,18.9,8.7z
		 M17.9,8.7c0-0.9,0.7-1.6,1.6-1.6c0.9,0,1.6,0.7,1.6,1.6c0,0.9-0.7,1.6-1.6,1.6C18.6,10.3,17.9,9.6,17.9,8.7z"/>
	<path fill="#23356F" d="M22.2,9c0.4,0,0.7,0.3,0.7,0.7c0,0.4-0.3,0.7-0.7,0.7c-0.4,0-0.7-0.3-0.7-0.7C21.6,9.3,21.9,9,22.2,9z"/>
	<path fill="#23356F" d="M10.3,13.7H9.9c-0.3-0.7-0.9-1.2-1.7-1.2c-1.1,0-1.9,0.9-1.9,2c0,1.2,0.8,2,1.9,2c0.8,0,1.5-0.5,1.7-1.2
		h0.4c-0.3,0.9-1.1,1.5-2.1,1.5c-1.3,0-2.3-1-2.3-2.4c0-1.4,1-2.4,2.3-2.4C9.2,12.1,10,12.7,10.3,13.7z"/>
	<path fill="#23356F" d="M12.7,15.8v-0.4c-0.1,0.1-0.2,0.1-0.4,0.1h-0.5c-0.4,0-0.6,0.2-0.6,0.5c0,0.2,0.2,0.5,0.7,0.5
		C12.3,16.5,12.7,16.3,12.7,15.8z M12.9,13.3h-0.4L12,12.6l-0.4,0.7h-0.4l0.6-1h0.6L12.9,13.3z M12.7,14.8c0-0.4-0.3-0.6-0.7-0.6
		c-0.4,0-0.6,0.2-0.9,0.3l-0.2-0.3c0.2-0.2,0.6-0.4,1.1-0.4c0.7,0,1.1,0.4,1.1,1v2h-0.4v-0.4c-0.2,0.3-0.6,0.4-0.9,0.4
		c-0.6,0-1-0.4-1-0.9c0-0.5,0.4-0.8,1-0.8h0.7C12.7,15.1,12.7,15,12.7,14.8L12.7,14.8z"/>
	<path fill="#23356F" d="M16.4,15v1.8H16v-1.9c0-0.4-0.3-0.7-0.7-0.7c-0.3,0-0.6,0.2-0.9,0.5v2.1H14v-2.9h0.4v0.4
		c0.2-0.3,0.6-0.5,1-0.5c0.5,0,0.8,0.2,0.9,0.6c0.3-0.4,0.7-0.6,1.1-0.6c0.7,0,1,0.4,1,1v1.9h-0.4v-1.9c0-0.4-0.3-0.7-0.7-0.7
		c-0.3,0-0.7,0.2-0.9,0.5C16.4,14.8,16.4,14.9,16.4,15z"/>
	<path fill="#23356F" d="M21.1,15.8v-0.4c-0.1,0.1-0.2,0.1-0.4,0.1h-0.5c-0.4,0-0.6,0.2-0.6,0.5c0,0.2,0.2,0.5,0.7,0.5
		C20.6,16.5,21.1,16.3,21.1,15.8z M21.1,14.8c0-0.4-0.3-0.6-0.7-0.6c-0.4,0-0.6,0.2-0.9,0.3l-0.2-0.3c0.2-0.2,0.6-0.4,1.1-0.4
		c0.7,0,1.1,0.4,1.1,1v2h-0.4v-0.4c-0.2,0.3-0.6,0.4-0.9,0.4c-0.6,0-1-0.4-1-0.9c0-0.5,0.4-0.8,1-0.8h0.7C21,15.1,21.1,15,21.1,14.8
		L21.1,14.8z"/>
	<path fill="#23356F" d="M23.8,14.3h-0.2c-0.5,0-0.9,0.2-0.9,0.9v1.6h-0.4v-2.9h0.4v0.5c0.2-0.4,0.5-0.5,0.9-0.5c0.1,0,0.1,0,0.2,0
		V14.3z"/>
	<path fill="#23356F" d="M26.2,15.8v-0.4c-0.1,0.1-0.2,0.1-0.4,0.1h-0.5c-0.4,0-0.6,0.2-0.6,0.5c0,0.2,0.2,0.5,0.7,0.5
		C25.7,16.5,26.2,16.3,26.2,15.8z M26.2,14.8c0-0.4-0.3-0.6-0.7-0.6c-0.4,0-0.7,0.2-0.9,0.3l-0.2-0.3c0.2-0.2,0.6-0.4,1.1-0.4
		c0.7,0,1.1,0.4,1.1,1v2h-0.4v-0.4c-0.2,0.3-0.6,0.4-0.9,0.4c-0.6,0-1-0.4-1-0.9c0-0.5,0.4-0.8,1-0.8h0.7
		C26.1,15.1,26.2,15,26.2,14.8L26.2,14.8z"/>
	<polygon fill="#23356F" points="9.8,18.8 10.4,18.8 10.4,23.4 10,23.4 10,19.3 8.5,22.5 8,22.5 6.5,19.3 6.5,23.4 6.1,23.4 
		6.1,18.8 6.8,18.8 8.3,22 	"/>
	<path fill="#23356F" d="M11.4,22.3v-1.9h0.4v1.8c0,0.5,0.4,0.8,0.8,0.8c0.5,0,0.8-0.3,0.8-0.8v-1.8h0.4v1.9c0,0.6-0.4,1.1-1.2,1.1
		C11.8,23.4,11.4,22.9,11.4,22.3z"/>
	<path fill="#23356F" d="M16.8,21.5c0-0.5-0.3-0.7-0.7-0.7c-0.3,0-0.7,0.2-1,0.5v2.1h-0.4v-2.9h0.4v0.4c0.3-0.3,0.6-0.5,1-0.5
		c0.7,0,1,0.4,1,1v1.9h-0.4V21.5z"/>
	<path fill="#23356F" d="M18.4,19.1c0.2,0,0.3,0.2,0.3,0.3c0,0.2-0.2,0.3-0.3,0.3c-0.2,0-0.3-0.2-0.3-0.3
		C18.1,19.2,18.2,19.1,18.4,19.1z M18.6,23.4h-0.4v-2.6h-0.5v-0.3h0.9V23.4z"/>
	<path fill="#23356F" d="M20.9,23.1c0.4,0,0.8-0.2,1-0.6l0.3,0.2c-0.2,0.4-0.7,0.7-1.3,0.7c-0.8,0-1.5-0.6-1.5-1.5
		c0-0.9,0.7-1.5,1.5-1.5c0.6,0,1,0.3,1.3,0.7l-0.3,0.2c-0.2-0.3-0.5-0.6-1-0.6c-0.6,0-1.1,0.5-1.1,1.2
		C19.8,22.6,20.2,23.1,20.9,23.1z"/>
	<path fill="#23356F" d="M23.1,19.1c0.2,0,0.3,0.2,0.3,0.3c0,0.2-0.2,0.3-0.3,0.3c-0.2,0-0.3-0.2-0.3-0.3
		C22.8,19.2,22.9,19.1,23.1,19.1z M23.3,23.4h-0.4v-2.6h-0.5v-0.3h0.9V23.4z"/>
	<path fill="#23356F" d="M25.8,20.7c-0.6,0-1.1,0.5-1.1,1.2c0,0.7,0.5,1.2,1.1,1.2s1.1-0.5,1.1-1.2C26.8,21.3,26.4,20.7,25.8,20.7z
		 M24.7,22.8v1.7h-0.4v-4h0.4V21c0.2-0.4,0.6-0.6,1.1-0.6c0.8,0,1.5,0.6,1.5,1.5c0,0.9-0.6,1.5-1.5,1.5
		C25.3,23.4,24.9,23.2,24.7,22.8z"/>
	<path fill="#23356F" d="M29.7,22.3v-0.4C29.6,22,29.5,22,29.3,22h-0.5c-0.4,0-0.6,0.2-0.6,0.5c0,0.2,0.2,0.5,0.7,0.5
		C29.3,23.1,29.7,22.9,29.7,22.3z M29.7,21.4c0-0.4-0.3-0.6-0.7-0.6c-0.4,0-0.6,0.2-0.9,0.3l-0.2-0.3c0.2-0.2,0.6-0.4,1.1-0.4
		c0.7,0,1.1,0.4,1.1,1v2h-0.4V23c-0.2,0.3-0.6,0.4-0.9,0.4c-0.6,0-1-0.4-1-0.9c0-0.5,0.4-0.8,1-0.8h0.7
		C29.6,21.7,29.7,21.6,29.7,21.4L29.7,21.4z"/>
	<rect x="31" y="18.8" fill="#23356F" width="0.4" height="4.6"/>
	<path fill="#23356F" d="M38.4,36.3h34.3V2H38.4V36.3z M74.7,38.3H36.3V0h38.4V38.3z"/>
	<polygon fill="#23356F" points="74.7,24.7 59.1,24.7 59.1,10.5 55.5,7 52,10.5 52,24.7 36.3,24.7 36.3,22.7 50,22.7 50,9.6 
		55.5,4.1 61.1,9.6 61.1,22.7 74.7,22.7 	"/>
	<rect x="68.1" y="26.5" fill="#23356F" width="2" height="4.5"/>
	<rect x="63.6" y="26.5" fill="#23356F" width="2" height="4.5"/>
	<rect x="59.1" y="26.5" fill="#23356F" width="2" height="4.5"/>
	<rect x="54.5" y="26.5" fill="#23356F" width="2" height="4.5"/>
	<rect x="54.4" y="12.1" fill="#23356F" width="2" height="4.5"/>
	<rect x="50" y="26.5" fill="#23356F" width="2" height="4.5"/>
	<rect x="45.4" y="26.5" fill="#23356F" width="2" height="4.5"/>
	<rect x="40.9" y="26.5" fill="#23356F" width="2" height="4.5"/>
	<rect x="68.1" y="32.7" fill="#23356F" width="2" height="5.6"/>
	<rect x="72.7" y="26.5" fill="#23356F" width="2" height="4.5"/>
	<rect x="72.7" y="32.7" fill="#23356F" width="2" height="5.6"/>
	<rect x="63.6" y="32.7" fill="#23356F" width="2" height="5.6"/>
	<rect x="59.1" y="32.7" fill="#23356F" width="2" height="5.6"/>
	<rect x="54.5" y="32.7" fill="#23356F" width="2" height="5.6"/>
	<rect x="50" y="32.7" fill="#23356F" width="2" height="5.6"/>
	<rect x="45.4" y="32.7" fill="#23356F" width="2" height="5.6"/>
	<rect x="40.9" y="32.7" fill="#23356F" width="2" height="5.6"/>
	<rect x="36.3" y="26.5" fill="#23356F" width="2" height="4.5"/>
	<rect x="36.3" y="32.7" fill="#23356F" width="2" height="5.6"/>
</g>
</svg>
