<?xml version="1.0" encoding="utf-8"?>
<!-- Generator: Adobe Illustrator 18.0.0, SVG Export Plug-In . SVG Version: 6.00 Build 0)  -->
<!DOCTYPE svg PUBLIC "-//W3C//DTD SVG 1.1//EN" "http://www.w3.org/Graphics/SVG/1.1/DTD/svg11.dtd">
<svg version="1.1" id="Layer_1" xmlns="http://www.w3.org/2000/svg" xmlns:xlink="http://www.w3.org/1999/xlink" x="0px" y="0px"
	 viewBox="0 0 348.3 51.3" enable-background="new 0 0 348.3 51.3" xml:space="preserve">
<g>
	<path fill="#002D73" d="M67.9,27.5V12.1h10.2v1.2h-8.8v5.6h8.2v1.2h-8.2v6.1h8.8v1.2L67.9,27.5L67.9,27.5z"/>
	<path fill="#002D73" d="M89.3,27.5v-2.1c-0.4,0.7-0.9,1.3-1.5,1.7s-1.3,0.6-2.2,0.6c-0.9,0-1.6-0.2-2.2-0.5s-1.1-0.8-1.5-1.3
		c-0.4-0.6-0.7-1.2-0.9-1.9c-0.2-0.7-0.3-1.4-0.3-2.1s0.1-1.4,0.3-2.1c0.2-0.7,0.5-1.3,0.9-1.9s0.9-1,1.5-1.3s1.4-0.5,2.3-0.5
		c0.8,0,1.6,0.2,2.2,0.6s1.1,0.9,1.5,1.7v-6.2h1.3v15.3C90.7,27.5,89.3,27.5,89.3,27.5z M89.3,21.8c0-0.6-0.1-1.2-0.2-1.8
		s-0.4-1.1-0.7-1.5c-0.3-0.4-0.7-0.8-1.1-1c-0.5-0.2-1-0.4-1.6-0.4s-1.1,0.1-1.6,0.4c-0.5,0.2-0.8,0.6-1.1,1
		c-0.3,0.4-0.5,0.9-0.7,1.5S82,21.2,82,21.8s0.1,1.2,0.2,1.8s0.4,1,0.7,1.5c0.3,0.4,0.7,0.7,1.1,1c0.5,0.2,1,0.4,1.6,0.4
		s1.1-0.1,1.6-0.4c0.5-0.2,0.8-0.6,1.1-1c0.3-0.4,0.5-0.9,0.7-1.5S89.3,22.5,89.3,21.8z"/>
	<path fill="#002D73" d="M102.1,27.5v-2.1c-0.4,0.7-0.9,1.2-1.6,1.7c-0.7,0.4-1.5,0.6-2.3,0.6c-1.3,0-2.2-0.4-2.9-1.1s-1-1.7-1-2.9
		v-7.4h1.3v7.3c0,1,0.2,1.7,0.6,2.1c0.4,0.5,1.1,0.7,2,0.7c0.5,0,0.9-0.1,1.4-0.3c0.5-0.2,0.9-0.5,1.2-0.9c0.4-0.4,0.6-0.9,0.9-1.4
		c0.2-0.6,0.3-1.2,0.3-1.9v-5.7h1.3v11.2L102.1,27.5L102.1,27.5z"/>
	<path fill="#002D73" d="M113.7,27.5c-0.5,0.1-1,0.1-1.4,0.1c-0.9,0-1.7-0.2-2.4-0.4c-0.7-0.3-1.3-0.7-1.8-1.2s-0.9-1.1-1.1-1.8
		c-0.3-0.7-0.4-1.5-0.4-2.3s0.1-1.6,0.4-2.3c0.3-0.7,0.6-1.3,1.1-1.8s1.1-0.9,1.8-1.2c0.7-0.3,1.5-0.4,2.4-0.4c0.5,0,1,0,1.4,0.1
		c0.5,0.1,0.9,0.2,1.4,0.3l-0.2,1.1c-0.4-0.1-0.8-0.2-1.2-0.3s-0.8-0.1-1.2-0.1c-0.8,0-1.4,0.1-2,0.3c-0.6,0.2-1,0.5-1.4,0.9
		s-0.7,0.9-0.9,1.5c-0.2,0.6-0.3,1.2-0.3,1.9c0,0.7,0.1,1.3,0.3,1.9c0.2,0.6,0.5,1,0.9,1.5c0.4,0.4,0.8,0.7,1.4,0.9s1.2,0.3,2,0.3
		c0.4,0,0.8,0,1.2-0.1c0.4-0.1,0.8-0.1,1.3-0.3l0.2,1.1C114.7,27.3,114.2,27.4,113.7,27.5z"/>
	<path fill="#002D73" d="M124.8,27.5V26c-0.3,0.5-0.8,0.9-1.5,1.2c-0.6,0.3-1.4,0.4-2.2,0.4c-1.2,0-2.1-0.3-2.8-0.8
		c-0.7-0.5-1-1.4-1-2.5c0-1,0.3-1.8,0.9-2.3c0.6-0.6,1.5-0.8,2.7-0.8h3.8v-1.3c0-0.4-0.1-0.7-0.2-1.1s-0.3-0.6-0.6-0.8
		s-0.6-0.4-1-0.6s-0.9-0.2-1.5-0.2c-0.5,0-1,0-1.6,0.1c-0.5,0.1-1.1,0.1-1.9,0.3l-0.2-1.1c0.5-0.1,1.1-0.2,1.8-0.3s1.3-0.1,1.9-0.1
		c1.6,0,2.7,0.3,3.4,1c0.7,0.7,1.1,1.6,1.1,2.7v7.7C125.9,27.5,124.8,27.5,124.8,27.5z M124.8,22.4h-3.7c-0.8,0-1.5,0.2-1.8,0.5
		c-0.4,0.3-0.6,0.9-0.6,1.6s0.2,1.2,0.6,1.5s1,0.5,1.8,0.5c1.1,0,2-0.3,2.7-0.9s1-1.4,1-2.4V22.4z"/>
	<path fill="#002D73" d="M137,31.1c0,0.6-0.2,1.2-0.7,1.6c-0.4,0.4-1.1,0.6-1.9,0.6c-0.7,0-1.4-0.1-2-0.4l0.2-0.6
		c0.3,0.1,0.6,0.2,0.8,0.2c0.3,0,0.6,0,0.9,0c0.5,0,0.9-0.1,1.2-0.3s0.5-0.6,0.5-1.1s-0.2-0.9-0.5-1.1s-0.8-0.3-1.2-0.3
		c-0.2,0-0.3,0-0.6,0s-0.4,0-0.6,0.1l0.5-2.3c-0.8-0.1-1.4-0.3-2-0.6c-0.6-0.3-1.1-0.7-1.5-1.3s-0.7-1.1-0.9-1.8
		c-0.2-0.7-0.3-1.4-0.3-2.1c0-0.8,0.1-1.6,0.4-2.3c0.3-0.7,0.6-1.3,1.1-1.8s1.1-0.9,1.8-1.2c0.7-0.3,1.5-0.4,2.4-0.4
		c0.5,0,1,0,1.4,0.1s0.9,0.2,1.4,0.3l-0.2,1.1c-0.4-0.1-0.8-0.2-1.2-0.3s-0.8-0.1-1.2-0.1c-0.8,0-1.4,0.1-2,0.3
		c-0.6,0.2-1,0.5-1.4,0.9s-0.7,0.9-0.9,1.5s-0.3,1.2-0.3,1.9c0,0.7,0.1,1.3,0.3,1.9s0.5,1,0.9,1.5c0.4,0.4,0.8,0.7,1.4,0.9
		c0.6,0.2,1.2,0.3,2,0.3c0.4,0,0.8,0,1.2-0.1s0.8-0.1,1.3-0.3l0.2,1.1c-0.4,0.1-0.9,0.2-1.4,0.3c-0.5,0.1-1,0.1-1.4,0.1h-0.2
		l-0.4,1.5c0.2,0,0.4,0,0.5,0s0.3,0,0.3,0c0.7,0,1.2,0.2,1.6,0.5C136.8,29.9,137,30.4,137,31.1z"/>
	<path fill="#002D73" d="M147,27.5V26c-0.3,0.5-0.8,0.9-1.5,1.2c-0.6,0.3-1.4,0.4-2.2,0.4c-1.2,0-2.1-0.3-2.8-0.8s-1-1.4-1-2.5
		c0-1,0.3-1.8,0.9-2.3s1.5-0.8,2.7-0.8h3.8v-1.3c0-0.4-0.1-0.7-0.2-1.1s-0.3-0.6-0.6-0.8c-0.3-0.2-0.6-0.4-1-0.6
		c-0.4-0.1-0.9-0.2-1.5-0.2c-0.5,0-1,0-1.6,0.1s-1.1,0.1-1.9,0.3l-0.2-1.1c0.5-0.1,1.1-0.2,1.8-0.3c0.6-0.1,1.3-0.1,1.9-0.1
		c1.6,0,2.7,0.3,3.4,1s1.1,1.6,1.1,2.7v7.7C148.1,27.5,147,27.5,147,27.5z M147,22.4h-3.7c-0.8,0-1.5,0.2-1.8,0.5
		c-0.4,0.3-0.6,0.9-0.6,1.6s0.2,1.2,0.6,1.5c0.4,0.3,1,0.5,1.8,0.5c1.1,0,2-0.3,2.7-0.9s1-1.4,1-2.4V22.4z M147.3,12.8
		c-0.2,0.4-0.5,0.8-0.8,1.1s-0.7,0.5-1.2,0.5c-0.3,0-0.5,0-0.7-0.1s-0.4-0.2-0.6-0.3c-0.2-0.1-0.4-0.2-0.5-0.3
		c-0.2-0.1-0.3-0.1-0.5-0.1c-0.3,0-0.5,0.1-0.6,0.3c-0.2,0.2-0.3,0.4-0.4,0.6l-0.9-0.4c0.2-0.4,0.4-0.8,0.8-1.1
		c0.3-0.3,0.7-0.5,1.2-0.5c0.3,0,0.5,0,0.7,0.1s0.4,0.2,0.6,0.3c0.2,0.1,0.4,0.2,0.5,0.3c0.2,0.1,0.3,0.1,0.5,0.1
		c0.3,0,0.5-0.1,0.6-0.3c0.2-0.2,0.3-0.4,0.4-0.7L147.3,12.8z"/>
	<path fill="#002D73" d="M161.4,21.8c0,0.8-0.1,1.5-0.4,2.2c-0.2,0.7-0.6,1.3-1,1.8c-0.5,0.5-1,1-1.6,1.3s-1.4,0.5-2.2,0.5
		s-1.5-0.2-2.2-0.5s-1.2-0.7-1.6-1.3c-0.4-0.5-0.8-1.1-1-1.8c-0.2-0.7-0.4-1.4-0.4-2.2s0.1-1.5,0.4-2.2c0.2-0.7,0.6-1.3,1-1.8
		s1-1,1.6-1.3c0.7-0.3,1.4-0.5,2.2-0.5s1.5,0.2,2.2,0.5c0.6,0.3,1.2,0.7,1.6,1.3c0.5,0.5,0.8,1.1,1,1.8
		C161.3,20.3,161.4,21.1,161.4,21.8z M160.1,21.8c0-0.7-0.1-1.3-0.3-1.9s-0.4-1-0.8-1.5c-0.3-0.4-0.7-0.7-1.2-0.9
		c-0.5-0.2-1-0.3-1.6-0.3s-1.1,0.1-1.6,0.3c-0.5,0.2-0.9,0.5-1.2,0.9s-0.6,0.9-0.8,1.5s-0.3,1.2-0.3,1.9c0,0.7,0.1,1.3,0.3,1.9
		s0.4,1,0.8,1.5c0.3,0.4,0.7,0.7,1.2,0.9s1,0.3,1.6,0.3s1.1-0.1,1.6-0.3s0.9-0.5,1.2-0.9s0.6-0.9,0.8-1.5S160.1,22.5,160.1,21.8z"/>
	<path fill="#002D73" d="M180.3,27.5l-1.7-4.3h-7.5l-1.7,4.3H168l6.4-15.3h1l6.4,15.3H180.3z M174.8,13.8l-3.3,8.2h6.6L174.8,13.8z"
		/>
	<path fill="#002D73" d="M199.3,27.5v-7.3c0-1-0.2-1.7-0.6-2.1s-1.1-0.7-2-0.7c-0.5,0-0.9,0.1-1.4,0.3c-0.4,0.2-0.8,0.5-1.2,0.9
		c-0.3,0.4-0.6,0.8-0.8,1.4s-0.3,1.2-0.3,1.9v5.7h-1.3v-7.3c0-1-0.2-1.7-0.6-2.1s-1.1-0.7-2-0.7c-0.5,0-0.9,0.1-1.4,0.3
		c-0.4,0.2-0.8,0.5-1.2,0.9c-0.3,0.4-0.6,0.9-0.8,1.4s-0.3,1.2-0.3,1.9v5.7H184V16.2h1.3v2.1c0.4-0.7,0.9-1.2,1.6-1.7
		c0.6-0.4,1.4-0.6,2.3-0.6c1,0,1.7,0.2,2.3,0.6s1,1,1.3,1.8c0.4-0.7,1-1.3,1.7-1.7c0.7-0.4,1.5-0.6,2.4-0.6c1.3,0,2.2,0.4,2.8,1.1
		s0.9,1.7,0.9,2.9v7.4C200.6,27.5,199.3,27.5,199.3,27.5z"/>
	<path fill="#002D73" d="M214.4,21.8c0,0.7-0.1,1.4-0.3,2.1s-0.5,1.3-0.9,1.9s-0.9,1-1.5,1.3s-1.4,0.5-2.3,0.5
		c-0.8,0-1.6-0.2-2.2-0.6c-0.6-0.4-1.1-0.9-1.5-1.7v2.1h-1.3V12.1h1.3v6.2c0.4-0.7,0.9-1.3,1.5-1.7c0.6-0.4,1.3-0.6,2.2-0.6
		s1.6,0.2,2.3,0.5c0.6,0.3,1.1,0.8,1.5,1.3c0.4,0.6,0.7,1.2,0.9,1.9C214.3,20.5,214.4,21.1,214.4,21.8z M213.1,21.8
		c0-0.6-0.1-1.2-0.2-1.8c-0.2-0.6-0.4-1-0.7-1.5c-0.3-0.4-0.7-0.7-1.1-1c-0.5-0.2-1-0.4-1.6-0.4s-1.1,0.1-1.6,0.4
		c-0.5,0.2-0.8,0.6-1.1,1s-0.5,0.9-0.7,1.5s-0.2,1.1-0.2,1.8c0,0.6,0.1,1.2,0.2,1.8c0.2,0.6,0.4,1,0.7,1.5c0.3,0.4,0.7,0.8,1.1,1
		c0.5,0.2,1,0.4,1.6,0.4s1.1-0.1,1.6-0.4c0.5-0.2,0.8-0.6,1.1-1s0.5-0.9,0.7-1.5C213,23.1,213.1,22.5,213.1,21.8z"/>
	<path fill="#002D73" d="M217.5,14.4v-2.3h1.3v2.3H217.5z M217.5,27.5V16.2h1.3v11.2L217.5,27.5L217.5,27.5z"/>
	<path fill="#002D73" d="M223.3,22.3c0.1,1.4,0.6,2.4,1.3,3.1c0.8,0.7,1.8,1,3.1,1c0.5,0,1.1,0,1.6-0.1s1.1-0.2,1.8-0.4l0.3,1.1
		c-0.6,0.2-1.3,0.3-1.9,0.4c-0.6,0.1-1.2,0.1-1.8,0.1c-0.9,0-1.7-0.1-2.4-0.4s-1.3-0.7-1.8-1.2s-0.9-1.1-1.2-1.8
		c-0.3-0.7-0.4-1.5-0.4-2.3s0.1-1.5,0.3-2.2s0.6-1.3,1-1.8s1-1,1.6-1.3s1.4-0.5,2.2-0.5s1.5,0.2,2.2,0.5c0.6,0.3,1.1,0.7,1.6,1.3
		c0.4,0.5,0.7,1.1,0.9,1.8c0.2,0.7,0.3,1.4,0.3,2.2v0.5C232,22.3,223.3,22.3,223.3,22.3z M230.6,21.2c-0.1-1.2-0.4-2.2-1-2.9
		s-1.4-1.1-2.5-1.1s-2,0.4-2.6,1.1c-0.7,0.7-1,1.7-1.2,2.9H230.6z"/>
	<path fill="#002D73" d="M242.9,27.5v-7.3c0-1-0.2-1.7-0.6-2.1s-1.1-0.7-2.1-0.7c-0.5,0-0.9,0.1-1.4,0.3c-0.5,0.2-0.9,0.5-1.2,0.9
		s-0.6,0.9-0.8,1.4c-0.2,0.6-0.3,1.2-0.3,1.9v5.7h-1.3V16.2h1.3v2.1c0.4-0.7,0.9-1.2,1.6-1.7c0.7-0.4,1.4-0.6,2.3-0.6
		c1.3,0,2.2,0.4,2.9,1.1c0.6,0.7,1,1.7,1,2.9v7.4h-1.4V27.5z"/>
	<path fill="#002D73" d="M251.7,27.6c-0.3,0-0.5,0-0.7,0c-0.8,0-1.5-0.2-1.9-0.7s-0.7-1.3-0.7-2.4v-7.1h-1.5v-1.2h1.5V13h1.3v3.2
		h2.3v1.2h-2.3v7.1c0,0.8,0.1,1.3,0.3,1.6c0.2,0.3,0.5,0.4,1,0.4c0.4,0,0.8,0,1.3-0.1l0.2,1C252.3,27.5,252,27.6,251.7,27.6z"/>
	<path fill="#002D73" d="M262,27.5V26c-0.3,0.5-0.8,0.9-1.5,1.2c-0.6,0.3-1.4,0.4-2.2,0.4c-1.2,0-2.1-0.3-2.8-0.8s-1-1.4-1-2.5
		c0-1,0.3-1.8,0.9-2.3c0.6-0.6,1.5-0.8,2.7-0.8h3.8v-1.3c0-0.4-0.1-0.7-0.2-1.1s-0.3-0.6-0.6-0.8s-0.6-0.4-1-0.6s-0.9-0.2-1.5-0.2
		c-0.5,0-1,0-1.6,0.1c-0.5,0.1-1.1,0.1-1.9,0.3l-0.2-1.1c0.5-0.1,1.1-0.2,1.8-0.3c0.7-0.1,1.3-0.1,1.9-0.1c1.6,0,2.7,0.3,3.4,1
		c0.7,0.7,1.1,1.6,1.1,2.7v7.7C263.1,27.5,262,27.5,262,27.5z M262,22.4h-3.7c-0.8,0-1.5,0.2-1.8,0.5c-0.4,0.3-0.6,0.9-0.6,1.6
		s0.2,1.2,0.6,1.5s1,0.5,1.8,0.5c1.1,0,2-0.3,2.7-0.9s1-1.4,1-2.4V22.4z"/>
	<path fill="#002D73" d="M269.6,27.6c-0.9,0-1.6-0.2-2.1-0.7s-0.8-1.3-0.8-2.4V12.1h1.3v12.5c0,0.7,0.1,1.2,0.4,1.4
		c0.3,0.3,0.7,0.4,1.2,0.4h1v1.2H269.6z"/>
	<path fill="#002D73" d="M278.1,21.8v-1.3h10.2v1.3H278.1z"/>
	<path fill="#002D73" d="M308.5,16.6c0,0.6-0.1,1.1-0.3,1.6c-0.2,0.5-0.5,1-0.9,1.4s-0.9,0.7-1.5,1c-0.6,0.2-1.2,0.4-2,0.4h-5.6v6.5
		h-1.4V12.1h7c0.7,0,1.4,0.1,2,0.4c0.6,0.3,1.1,0.6,1.5,1s0.7,0.9,0.9,1.4S308.5,16,308.5,16.6z M307.1,16.6c0-0.5-0.1-0.9-0.3-1.3
		c-0.2-0.4-0.4-0.7-0.7-1c-0.3-0.3-0.6-0.5-1-0.7s-0.8-0.2-1.2-0.2h-5.6v6.5h5.6c1,0,1.8-0.3,2.4-0.9S307.1,17.5,307.1,16.6z"/>
	<path fill="#002D73" d="M320.3,21.8c0,0.8-0.1,1.5-0.4,2.2c-0.2,0.7-0.6,1.3-1,1.8c-0.5,0.5-1,1-1.6,1.3s-1.4,0.5-2.2,0.5
		s-1.5-0.2-2.2-0.5s-1.2-0.7-1.6-1.3c-0.4-0.5-0.8-1.1-1-1.8c-0.2-0.7-0.4-1.4-0.4-2.2s0.1-1.5,0.4-2.2c0.2-0.7,0.6-1.3,1-1.8
		s1-1,1.6-1.3c0.7-0.3,1.4-0.5,2.2-0.5s1.5,0.2,2.2,0.5c0.6,0.3,1.2,0.7,1.6,1.3c0.5,0.5,0.8,1.1,1,1.8
		C320.2,20.3,320.3,21.1,320.3,21.8z M319,21.8c0-0.7-0.1-1.3-0.3-1.9c-0.2-0.6-0.4-1-0.8-1.5c-0.3-0.4-0.7-0.7-1.2-0.9
		c-0.5-0.2-1-0.3-1.6-0.3s-1.1,0.1-1.6,0.3c-0.5,0.2-0.9,0.5-1.2,0.9c-0.3,0.4-0.6,0.9-0.8,1.5c-0.2,0.6-0.3,1.2-0.3,1.9
		c0,0.7,0.1,1.3,0.3,1.9s0.4,1,0.8,1.5c0.3,0.4,0.7,0.7,1.2,0.9s1,0.3,1.6,0.3s1.1-0.1,1.6-0.3s0.9-0.5,1.2-0.9
		c0.3-0.4,0.6-0.9,0.8-1.5S319,22.5,319,21.8z"/>
	<path fill="#002D73" d="M327.3,17.7c-0.5,0.2-0.9,0.6-1.3,1s-0.7,0.9-0.9,1.4s-0.3,1.1-0.3,1.7v5.6h-1.3V16.2h1.3v2.4
		c0.2-0.3,0.4-0.7,0.7-1c0.3-0.3,0.6-0.6,1-0.8c0.4-0.2,0.8-0.4,1.2-0.6c0.4-0.1,0.8-0.2,1.3-0.2v1.3
		C328.3,17.3,327.8,17.5,327.3,17.7z"/>
	<path fill="#002D73" d="M335,27.6c-0.3,0-0.5,0-0.7,0c-0.8,0-1.5-0.2-1.9-0.7s-0.7-1.3-0.7-2.4v-7.1h-1.5v-1.2h1.5V13h1.3v3.2h2.3
		v1.2H333v7.1c0,0.8,0.1,1.3,0.3,1.6c0.2,0.3,0.5,0.4,1,0.4c0.4,0,0.8,0,1.3-0.1l0.2,1C335.6,27.5,335.3,27.6,335,27.6z"/>
	<path fill="#002D73" d="M348.3,21.8c0,0.8-0.1,1.5-0.4,2.2c-0.2,0.7-0.6,1.3-1,1.8c-0.5,0.5-1,1-1.6,1.3s-1.4,0.5-2.2,0.5
		s-1.5-0.2-2.2-0.5s-1.2-0.7-1.6-1.3c-0.4-0.5-0.8-1.1-1-1.8c-0.2-0.7-0.4-1.4-0.4-2.2s0.1-1.5,0.4-2.2c0.2-0.7,0.6-1.3,1-1.8
		s1-1,1.6-1.3c0.7-0.3,1.4-0.5,2.2-0.5s1.5,0.2,2.2,0.5c0.6,0.3,1.2,0.7,1.6,1.3c0.5,0.5,0.8,1.1,1,1.8
		C348.2,20.3,348.3,21.1,348.3,21.8z M347,21.8c0-0.7-0.1-1.3-0.3-1.9c-0.2-0.6-0.4-1-0.8-1.5c-0.3-0.4-0.7-0.7-1.2-0.9
		c-0.5-0.2-1-0.3-1.6-0.3s-1.1,0.1-1.6,0.3c-0.5,0.2-0.9,0.5-1.2,0.9c-0.3,0.4-0.6,0.9-0.8,1.5c-0.2,0.6-0.3,1.2-0.3,1.9
		c0,0.7,0.1,1.3,0.3,1.9s0.4,1,0.8,1.5c0.3,0.4,0.7,0.7,1.2,0.9s1,0.3,1.6,0.3s1.1-0.1,1.6-0.3s0.9-0.5,1.2-0.9
		c0.3-0.4,0.6-0.9,0.8-1.5S347,22.5,347,21.8z"/>
</g>
<g>
	<g>
		<rect x="12.1" y="36.7" fill="#23356F" width="2.7" height="14.7"/>
	</g>
	<g>
		<path fill="#23356F" d="M13.4,39.4C13.3,39.4,0,39.2,0,26c0-12.5,11.9-24.5,12.4-25L13.4,0l0.9,0.9c0.5,0.5,12.4,12.6,12.4,25
			C26.8,39.2,13.5,39.4,13.4,39.4z M13.4,3.9C10.6,6.9,2.7,16.6,2.7,26c0,10.6,10.2,10.7,10.7,10.7c0.4,0,10.7-0.2,10.7-10.7
			C24.1,16.6,16.2,6.9,13.4,3.9z"/>
	</g>
	<g>
		<rect x="36.2" y="36.7" fill="#23356F" width="2.7" height="14.7"/>
	</g>
	<g>
		<path fill="#23356F" d="M37.5,39.4c-0.1,0-13.4-0.2-13.4-13.4c0-12.5,11.9-24.5,12.4-25L37.5,0l0.9,0.9c0.5,0.5,12.4,12.6,12.4,25
			C50.9,39.2,37.6,39.4,37.5,39.4z M37.5,3.9C34.7,6.9,26.8,16.6,26.8,26c0,10.5,10.2,10.7,10.7,10.7c0.5,0,10.7-0.2,10.7-10.7
			C48.2,16.6,40.3,6.9,37.5,3.9z"/>
	</g>
</g>
</svg>
