<!-- Generator: Adobe Illustrator 18.1.1, SVG Export Plug-In  -->
<svg version="1.1"
	 xmlns="http://www.w3.org/2000/svg" xmlns:xlink="http://www.w3.org/1999/xlink" xmlns:a="http://ns.adobe.com/AdobeSVGViewerExtensions/3.0/"
	 x="0px" y="0px" width="317.5px" height="163.2px" viewBox="0 0 317.5 163.2" enable-background="new 0 0 317.5 163.2"
	 xml:space="preserve">
<defs>
</defs>
<g>
	<path fill="#3D44AC" d="M8.6,154.6h300.3V8.6H8.6V154.6z M317.5,163.2H0V0h317.5V163.2z"/>
	<path fill="#3D44AC" d="M63.1,62.8v17h4.4c6.4,0,11.1-2.2,11.1-8.7c0-6.4-4.7-8.3-11.1-8.3H63.1z M63.1,112.8H47.6V49.3h23
		c15.9,0,24,9.8,24,21.8c0,12-8.1,22.2-24,22.2h-7.4V112.8z"/>
	<path fill="#3D44AC" d="M109,91.7c0,5.2,3.4,9.1,8.2,9.1c4.7,0,8.2-3.9,8.2-9.1c0-5.3-3.5-9-8.2-9C112.4,82.7,109,86.4,109,91.7
		 M94.5,91.7c0-12.9,10.1-22.1,22.7-22.1c12.6,0,22.7,9.3,22.7,22.1c0,12.9-10.1,22.2-22.7,22.2C104.6,113.9,94.5,104.5,94.5,91.7"
		/>
	<path fill="#3D44AC" d="M171.6,82.6h-5.3c-6.3,0-7.9,5.4-7.9,10.8v19.4h-14.5V70.6h14v6.7c0.9-4.8,4-6.9,6.8-6.9
		c1.1,0,6.9,0.2,6.9,0.2V82.6z"/>
	<path fill="#3D44AC" d="M196.6,55.5v15.1h8.4v11.9h-8.4v15.3c0,2.5,2.1,2.8,3.7,2.8c2.7,0,4.7-0.3,4.7-0.3v12.4
		c0,0-6.8,0.5-10.3,0.5c-6.8,0-12.6-1.9-12.6-10.6V82.5h-6.3V70.6h6.3V55.5H196.6z"/>
	<path fill="#3D44AC" d="M222.7,91.7c0,5.2,3.4,9.1,8.2,9.1c4.7,0,8.2-3.9,8.2-9.1c0-5.3-3.4-9-8.2-9
		C226,82.7,222.7,86.4,222.7,91.7 M208.1,91.7c0-12.9,10.1-22.1,22.7-22.1c12.6,0,22.7,9.3,22.7,22.1c0,12.9-10.1,22.2-22.7,22.2
		C218.2,113.9,208.1,104.5,208.1,91.7"/>
	<path fill="#3D44AC" d="M265,95.7c5.1,0,9.2,4.1,9.2,9.2c0,5-4.1,9.1-9.2,9.1c-5,0-9.1-4.1-9.1-9.1C255.9,99.7,260,95.7,265,95.7"
		/>
</g>
</svg>
