<?xml version="1.0" encoding="utf-8"?>
<!-- Generator: Adobe Illustrator 19.1.0, SVG Export Plug-In . SVG Version: 6.00 Build 0)  -->
<svg version="1.1" id="Layer_1" xmlns="http://www.w3.org/2000/svg" xmlns:xlink="http://www.w3.org/1999/xlink" x="0px" y="0px"
	 viewBox="-81 231.7 348.3 51.3" style="enable-background:new -81 231.7 348.3 51.3;" xml:space="preserve">
<metadata><?xpacket begin="﻿" id="W5M0MpCehiHzreSzNTczkc9d"?>
<x:xmpmeta xmlns:x="adobe:ns:meta/" x:xmptk="Adobe XMP Core 5.6-c067 79.157747, 2015/03/30-23:40:42        ">
   <rdf:RDF xmlns:rdf="http://www.w3.org/1999/02/22-rdf-syntax-ns#">
      <rdf:Description rdf:about=""/>
   </rdf:RDF>
</x:xmpmeta>
                                                                                                    
                                                                                                    
                                                                                                    
                                                                                                    
                                                                                                    
                                                                                                    
                                                                                                    
                                                                                                    
                                                                                                    
                                                                                                    
                                                                                                    
                                                                                                    
                                                                                                    
                                                                                                    
                                                                                                    
                                                                                                    
                                                                                                    
                                                                                                    
                                                                                                    
                                                                                                    
                           
<?xpacket end="w"?></metadata>
<style type="text/css">
	.st0{fill:#002D73;}
	.st1{fill:#FFFFFF;}
	.st2{fill:#23356F;}
</style>
<path class="st0" d="M-13.1,259.2v-15.4h10.2v1.2h-8.8v5.6h8.2v1.2h-8.2v6.1h8.8v1.2L-13.1,259.2L-13.1,259.2z"/>
<path class="st0" d="M8.3,259.2v-2.1c-0.4,0.7-0.9,1.3-1.5,1.7c-0.6,0.4-1.3,0.6-2.2,0.6c-0.9,0-1.6-0.2-2.2-0.5
	c-0.6-0.3-1.1-0.8-1.5-1.3c-0.4-0.6-0.7-1.2-0.9-1.9c-0.2-0.7-0.3-1.4-0.3-2.1c0-0.7,0.1-1.4,0.3-2.1c0.2-0.7,0.5-1.3,0.9-1.9
	c0.4-0.6,0.9-1,1.5-1.3s1.4-0.5,2.3-0.5c0.8,0,1.6,0.2,2.2,0.6c0.6,0.4,1.1,0.9,1.5,1.7v-6.2h1.3v15.3
	C9.7,259.2,8.3,259.2,8.3,259.2z M8.3,253.5c0-0.6-0.1-1.2-0.2-1.8s-0.4-1.1-0.7-1.5c-0.3-0.4-0.7-0.8-1.1-1c-0.5-0.2-1-0.4-1.6-0.4
	s-1.1,0.1-1.6,0.4c-0.5,0.2-0.8,0.6-1.1,1c-0.3,0.4-0.5,0.9-0.7,1.5S1,252.9,1,253.5c0,0.6,0.1,1.2,0.2,1.8c0.1,0.6,0.4,1,0.7,1.5
	c0.3,0.4,0.7,0.7,1.1,1c0.5,0.2,1,0.4,1.6,0.4s1.1-0.1,1.6-0.4c0.5-0.2,0.8-0.6,1.1-1c0.3-0.4,0.5-0.9,0.7-1.5
	C8.2,254.7,8.3,254.2,8.3,253.5z"/>
<path class="st0" d="M21.1,259.2v-2.1c-0.4,0.7-0.9,1.2-1.6,1.7c-0.7,0.4-1.5,0.6-2.3,0.6c-1.3,0-2.2-0.4-2.9-1.1
	c-0.7-0.7-1-1.7-1-2.9V248h1.3v7.3c0,1,0.2,1.7,0.6,2.1c0.4,0.5,1.1,0.7,2,0.7c0.5,0,0.9-0.1,1.4-0.3c0.5-0.2,0.9-0.5,1.2-0.9
	c0.4-0.4,0.6-0.9,0.9-1.4c0.2-0.6,0.3-1.2,0.3-1.9v-5.7h1.3v11.2L21.1,259.2L21.1,259.2z"/>
<path class="st0" d="M32.7,259.2c-0.5,0.1-1,0.1-1.4,0.1c-0.9,0-1.7-0.2-2.4-0.4c-0.7-0.3-1.3-0.7-1.8-1.2s-0.9-1.1-1.1-1.8
	c-0.3-0.7-0.4-1.5-0.4-2.3c0-0.8,0.1-1.6,0.4-2.3s0.6-1.3,1.1-1.8s1.1-0.9,1.8-1.2c0.7-0.3,1.5-0.4,2.4-0.4c0.5,0,1,0,1.4,0.1
	c0.5,0.1,0.9,0.2,1.4,0.3l-0.2,1.1c-0.4-0.1-0.8-0.2-1.2-0.3c-0.4-0.1-0.8-0.1-1.2-0.1c-0.8,0-1.4,0.1-2,0.3s-1,0.5-1.4,0.9
	c-0.4,0.4-0.7,0.9-0.9,1.5c-0.2,0.6-0.3,1.2-0.3,1.9c0,0.7,0.1,1.3,0.3,1.9c0.2,0.6,0.5,1,0.9,1.5c0.4,0.4,0.8,0.7,1.4,0.9
	c0.6,0.2,1.2,0.3,2,0.3c0.4,0,0.8,0,1.2-0.1c0.4-0.1,0.8-0.1,1.3-0.3l0.2,1.1C33.7,259,33.2,259.1,32.7,259.2z"/>
<path class="st0" d="M43.8,259.2v-1.5c-0.3,0.5-0.8,0.9-1.5,1.2c-0.6,0.3-1.4,0.4-2.2,0.4c-1.2,0-2.1-0.3-2.8-0.8
	c-0.7-0.5-1-1.4-1-2.5c0-1,0.3-1.8,0.9-2.3c0.6-0.6,1.5-0.8,2.7-0.8h3.8v-1.3c0-0.4-0.1-0.7-0.2-1.1s-0.3-0.6-0.6-0.8
	s-0.6-0.4-1-0.6c-0.4-0.2-0.9-0.2-1.5-0.2c-0.5,0-1,0-1.6,0.1c-0.5,0.1-1.1,0.1-1.9,0.3l-0.2-1.1c0.5-0.1,1.1-0.2,1.8-0.3
	c0.7-0.1,1.3-0.1,1.9-0.1c1.6,0,2.7,0.3,3.4,1c0.7,0.7,1.1,1.6,1.1,2.7v7.7C44.9,259.2,43.8,259.2,43.8,259.2z M43.8,254.1h-3.7
	c-0.8,0-1.5,0.2-1.8,0.5c-0.4,0.3-0.6,0.9-0.6,1.6c0,0.7,0.2,1.2,0.6,1.5c0.4,0.3,1,0.5,1.8,0.5c1.1,0,2-0.3,2.7-0.9
	c0.7-0.6,1-1.4,1-2.4V254.1z"/>
<path class="st0" d="M56,262.8c0,0.6-0.2,1.2-0.7,1.6c-0.4,0.4-1.1,0.6-1.9,0.6c-0.7,0-1.4-0.1-2-0.4l0.2-0.6
	c0.3,0.1,0.6,0.2,0.8,0.2c0.3,0,0.6,0,0.9,0c0.5,0,0.9-0.1,1.2-0.3c0.3-0.2,0.5-0.6,0.5-1.1s-0.2-0.9-0.5-1.1
	c-0.3-0.2-0.8-0.3-1.2-0.3c-0.2,0-0.3,0-0.6,0s-0.4,0-0.6,0.1l0.5-2.3c-0.8-0.1-1.4-0.3-2-0.6c-0.6-0.3-1.1-0.7-1.5-1.3
	c-0.4-0.6-0.7-1.1-0.9-1.8c-0.2-0.7-0.3-1.4-0.3-2.1c0-0.8,0.1-1.6,0.4-2.3c0.3-0.7,0.6-1.3,1.1-1.8s1.1-0.9,1.8-1.2
	c0.7-0.3,1.5-0.4,2.4-0.4c0.5,0,1,0,1.4,0.1c0.4,0.1,0.9,0.2,1.4,0.3l-0.2,1.1c-0.4-0.1-0.8-0.2-1.2-0.3c-0.4-0.1-0.8-0.1-1.2-0.1
	c-0.8,0-1.4,0.1-2,0.3c-0.6,0.2-1,0.5-1.4,0.9s-0.7,0.9-0.9,1.5s-0.3,1.2-0.3,1.9c0,0.7,0.1,1.3,0.3,1.9c0.2,0.6,0.5,1,0.9,1.5
	c0.4,0.4,0.8,0.7,1.4,0.9c0.6,0.2,1.2,0.3,2,0.3c0.4,0,0.8,0,1.2-0.1s0.8-0.1,1.3-0.3l0.2,1.1c-0.4,0.1-0.9,0.2-1.4,0.3
	s-1,0.1-1.4,0.1h-0.2l-0.4,1.5c0.2,0,0.4,0,0.5,0s0.3,0,0.3,0c0.7,0,1.2,0.2,1.6,0.5C55.8,261.6,56,262.1,56,262.8z"/>
<path class="st0" d="M66,259.2v-1.5c-0.3,0.5-0.8,0.9-1.5,1.2c-0.6,0.3-1.4,0.4-2.2,0.4c-1.2,0-2.1-0.3-2.8-0.8s-1-1.4-1-2.5
	c0-1,0.3-1.8,0.9-2.3s1.5-0.8,2.7-0.8h3.8v-1.3c0-0.4-0.1-0.7-0.2-1.1s-0.3-0.6-0.6-0.8s-0.6-0.4-1-0.6c-0.4-0.1-0.9-0.2-1.5-0.2
	c-0.5,0-1,0-1.6,0.1s-1.1,0.1-1.9,0.3l-0.2-1.1c0.5-0.1,1.1-0.2,1.8-0.3c0.6-0.1,1.3-0.1,1.9-0.1c1.6,0,2.7,0.3,3.4,1
	s1.1,1.6,1.1,2.7v7.7C67.1,259.2,66,259.2,66,259.2z M66,254.1h-3.7c-0.8,0-1.5,0.2-1.8,0.5c-0.4,0.3-0.6,0.9-0.6,1.6
	c0,0.7,0.2,1.2,0.6,1.5c0.4,0.3,1,0.5,1.8,0.5c1.1,0,2-0.3,2.7-0.9c0.7-0.6,1-1.4,1-2.4V254.1z M66.3,244.5
	c-0.2,0.4-0.5,0.8-0.8,1.1c-0.3,0.3-0.7,0.5-1.2,0.5c-0.3,0-0.5,0-0.7-0.1c-0.2-0.1-0.4-0.2-0.6-0.3c-0.2-0.1-0.4-0.2-0.5-0.3
	c-0.2-0.1-0.3-0.1-0.5-0.1c-0.3,0-0.5,0.1-0.6,0.3c-0.2,0.2-0.3,0.4-0.4,0.6l-0.9-0.4c0.2-0.4,0.4-0.8,0.8-1.1
	c0.3-0.3,0.7-0.5,1.2-0.5c0.3,0,0.5,0,0.7,0.1c0.2,0.1,0.4,0.2,0.6,0.3c0.2,0.1,0.4,0.2,0.5,0.3c0.2,0.1,0.3,0.1,0.5,0.1
	c0.3,0,0.5-0.1,0.6-0.3c0.2-0.2,0.3-0.4,0.4-0.7L66.3,244.5z"/>
<path class="st0" d="M80.4,253.5c0,0.8-0.1,1.5-0.4,2.2c-0.2,0.7-0.6,1.3-1,1.8c-0.5,0.5-1,1-1.6,1.3c-0.6,0.3-1.4,0.5-2.2,0.5
	s-1.5-0.2-2.2-0.5c-0.7-0.3-1.2-0.7-1.6-1.3c-0.4-0.5-0.8-1.1-1-1.8s-0.4-1.4-0.4-2.2s0.1-1.5,0.4-2.2c0.2-0.7,0.6-1.3,1-1.8
	s1-1,1.6-1.3c0.7-0.3,1.4-0.5,2.2-0.5s1.5,0.2,2.2,0.5c0.6,0.3,1.2,0.7,1.6,1.3c0.5,0.5,0.8,1.1,1,1.8
	C80.3,252,80.4,252.8,80.4,253.5z M79.1,253.5c0-0.7-0.1-1.3-0.3-1.9c-0.2-0.6-0.4-1-0.8-1.5c-0.3-0.4-0.7-0.7-1.2-0.9
	s-1-0.3-1.6-0.3s-1.1,0.1-1.6,0.3s-0.9,0.5-1.2,0.9c-0.3,0.4-0.6,0.9-0.8,1.5c-0.2,0.6-0.3,1.2-0.3,1.9s0.1,1.3,0.3,1.9
	s0.4,1,0.8,1.5c0.3,0.4,0.7,0.7,1.2,0.9c0.5,0.2,1,0.3,1.6,0.3s1.1-0.1,1.6-0.3c0.5-0.2,0.9-0.5,1.2-0.9s0.6-0.9,0.8-1.5
	S79.1,254.2,79.1,253.5z"/>
<path class="st0" d="M99.3,259.2l-1.7-4.3h-7.5l-1.7,4.3H87l6.4-15.3h1l6.4,15.3H99.3z M93.8,245.5l-3.3,8.2h6.6L93.8,245.5z"/>
<path class="st0" d="M118.3,259.2v-7.3c0-1-0.2-1.7-0.6-2.1c-0.4-0.4-1.1-0.7-2-0.7c-0.5,0-0.9,0.1-1.4,0.3
	c-0.4,0.2-0.8,0.5-1.2,0.9c-0.3,0.4-0.6,0.8-0.8,1.4c-0.2,0.6-0.3,1.2-0.3,1.9v5.7h-1.3V252c0-1-0.2-1.7-0.6-2.1s-1.1-0.7-2-0.7
	c-0.5,0-0.9,0.1-1.4,0.3c-0.4,0.2-0.8,0.5-1.2,0.9c-0.3,0.4-0.6,0.9-0.8,1.4s-0.3,1.2-0.3,1.9v5.7H103v-11.5h1.3v2.1
	c0.4-0.7,0.9-1.2,1.6-1.7c0.6-0.4,1.4-0.6,2.3-0.6c1,0,1.7,0.2,2.3,0.6c0.6,0.4,1,1,1.3,1.8c0.4-0.7,1-1.3,1.7-1.7
	c0.7-0.4,1.5-0.6,2.4-0.6c1.3,0,2.2,0.4,2.8,1.1s0.9,1.7,0.9,2.9v7.4C119.6,259.2,118.3,259.2,118.3,259.2z"/>
<path class="st0" d="M133.4,253.5c0,0.7-0.1,1.4-0.3,2.1s-0.5,1.3-0.9,1.9s-0.9,1-1.5,1.3c-0.6,0.3-1.4,0.5-2.3,0.5
	c-0.8,0-1.6-0.2-2.2-0.6c-0.6-0.4-1.1-0.9-1.5-1.7v2.1h-1.3v-15.3h1.3v6.2c0.4-0.7,0.9-1.3,1.5-1.7c0.6-0.4,1.3-0.6,2.2-0.6
	s1.6,0.2,2.3,0.5c0.6,0.3,1.1,0.8,1.5,1.3c0.4,0.6,0.7,1.2,0.9,1.9C133.3,252.2,133.4,252.8,133.4,253.5z M132.1,253.5
	c0-0.6-0.1-1.2-0.2-1.8c-0.2-0.6-0.4-1-0.7-1.5c-0.3-0.4-0.7-0.7-1.1-1c-0.5-0.2-1-0.4-1.6-0.4s-1.1,0.1-1.6,0.4
	c-0.5,0.2-0.8,0.6-1.1,1s-0.5,0.9-0.7,1.5s-0.2,1.1-0.2,1.8c0,0.6,0.1,1.2,0.2,1.8c0.2,0.6,0.4,1,0.7,1.5c0.3,0.4,0.7,0.8,1.1,1
	c0.5,0.2,1,0.4,1.6,0.4s1.1-0.1,1.6-0.4c0.5-0.2,0.8-0.6,1.1-1s0.5-0.9,0.7-1.5C132,254.8,132.1,254.2,132.1,253.5z"/>
<path class="st0" d="M136.5,246.1v-2.3h1.3v2.3H136.5z M136.5,259.2v-11.3h1.3v11.2L136.5,259.2L136.5,259.2z"/>
<path class="st0" d="M142.3,254c0.1,1.4,0.6,2.4,1.3,3.1c0.8,0.7,1.8,1,3.1,1c0.5,0,1.1,0,1.6-0.1s1.1-0.2,1.8-0.4l0.3,1.1
	c-0.6,0.2-1.3,0.3-1.9,0.4c-0.6,0.1-1.2,0.1-1.8,0.1c-0.9,0-1.7-0.1-2.4-0.4c-0.7-0.3-1.3-0.7-1.8-1.2s-0.9-1.1-1.2-1.8
	c-0.3-0.7-0.4-1.5-0.4-2.3s0.1-1.5,0.3-2.2c0.2-0.7,0.6-1.3,1-1.8s1-1,1.6-1.3s1.4-0.5,2.2-0.5s1.5,0.2,2.2,0.5
	c0.6,0.3,1.1,0.7,1.6,1.3c0.4,0.5,0.7,1.1,0.9,1.8s0.3,1.4,0.3,2.2v0.5C151,254,142.3,254,142.3,254z M149.6,252.9
	c-0.1-1.2-0.4-2.2-1-2.9s-1.4-1.1-2.5-1.1s-2,0.4-2.6,1.1c-0.7,0.7-1,1.7-1.2,2.9H149.6z"/>
<path class="st0" d="M161.9,259.2v-7.3c0-1-0.2-1.7-0.6-2.1c-0.4-0.4-1.1-0.7-2.1-0.7c-0.5,0-0.9,0.1-1.4,0.3s-0.9,0.5-1.2,0.9
	c-0.3,0.4-0.6,0.9-0.8,1.4c-0.2,0.6-0.3,1.2-0.3,1.9v5.7h-1.3v-11.4h1.3v2.1c0.4-0.7,0.9-1.2,1.6-1.7c0.7-0.4,1.4-0.6,2.3-0.6
	c1.3,0,2.2,0.4,2.9,1.1c0.6,0.7,1,1.7,1,2.9v7.4h-1.4V259.2z"/>
<path class="st0" d="M170.7,259.3c-0.3,0-0.5,0-0.7,0c-0.8,0-1.5-0.2-1.9-0.7s-0.7-1.3-0.7-2.4v-7.1h-1.5v-1.2h1.5v-3.2h1.3v3.2h2.3
	v1.2h-2.3v7.1c0,0.8,0.1,1.3,0.3,1.6c0.2,0.3,0.5,0.4,1,0.4c0.4,0,0.8,0,1.3-0.1l0.2,1C171.3,259.2,171,259.3,170.7,259.3z"/>
<path class="st0" d="M181,259.2v-1.5c-0.3,0.5-0.8,0.9-1.5,1.2c-0.6,0.3-1.4,0.4-2.2,0.4c-1.2,0-2.1-0.3-2.8-0.8s-1-1.4-1-2.5
	c0-1,0.3-1.8,0.9-2.3c0.6-0.6,1.5-0.8,2.7-0.8h3.8v-1.3c0-0.4-0.1-0.7-0.2-1.1s-0.3-0.6-0.6-0.8s-0.6-0.4-1-0.6
	c-0.4-0.2-0.9-0.2-1.5-0.2c-0.5,0-1,0-1.6,0.1c-0.5,0.1-1.1,0.1-1.9,0.3l-0.2-1.1c0.5-0.1,1.1-0.2,1.8-0.3c0.7-0.1,1.3-0.1,1.9-0.1
	c1.6,0,2.7,0.3,3.4,1c0.7,0.7,1.1,1.6,1.1,2.7v7.7C182.1,259.2,181,259.2,181,259.2z M181,254.1h-3.7c-0.8,0-1.5,0.2-1.8,0.5
	c-0.4,0.3-0.6,0.9-0.6,1.6c0,0.7,0.2,1.2,0.6,1.5c0.4,0.3,1,0.5,1.8,0.5c1.1,0,2-0.3,2.7-0.9c0.7-0.6,1-1.4,1-2.4V254.1z"/>
<path class="st0" d="M188.6,259.3c-0.9,0-1.6-0.2-2.1-0.7s-0.8-1.3-0.8-2.4v-12.4h1.3v12.5c0,0.7,0.1,1.2,0.4,1.4
	c0.3,0.3,0.7,0.4,1.2,0.4h1v1.2H188.6z"/>
<path class="st1" d="M197.1,253.5v-1.3h10.2v1.3H197.1z"/>
<path class="st1" d="M227.5,248.3c0,0.6-0.1,1.1-0.3,1.6c-0.2,0.5-0.5,1-0.9,1.4c-0.4,0.4-0.9,0.7-1.5,1c-0.6,0.2-1.2,0.4-2,0.4
	h-5.6v6.5h-1.4v-15.4h7c0.7,0,1.4,0.1,2,0.4s1.1,0.6,1.5,1s0.7,0.9,0.9,1.4S227.5,247.7,227.5,248.3z M226.1,248.3
	c0-0.5-0.1-0.9-0.3-1.3c-0.2-0.4-0.4-0.7-0.7-1c-0.3-0.3-0.6-0.5-1-0.7c-0.4-0.2-0.8-0.2-1.2-0.2h-5.6v6.5h5.6c1,0,1.8-0.3,2.4-0.9
	C225.9,250.1,226.1,249.2,226.1,248.3z"/>
<path class="st1" d="M239.3,253.5c0,0.8-0.1,1.5-0.4,2.2c-0.2,0.7-0.6,1.3-1,1.8c-0.5,0.5-1,1-1.6,1.3c-0.6,0.3-1.4,0.5-2.2,0.5
	s-1.5-0.2-2.2-0.5c-0.7-0.3-1.2-0.7-1.6-1.3c-0.4-0.5-0.8-1.1-1-1.8s-0.4-1.4-0.4-2.2s0.1-1.5,0.4-2.2c0.2-0.7,0.6-1.3,1-1.8
	s1-1,1.6-1.3c0.7-0.3,1.4-0.5,2.2-0.5s1.5,0.2,2.2,0.5c0.6,0.3,1.2,0.7,1.6,1.3c0.5,0.5,0.8,1.1,1,1.8
	C239.2,252,239.3,252.8,239.3,253.5z M238,253.5c0-0.7-0.1-1.3-0.3-1.9c-0.2-0.6-0.4-1-0.8-1.5c-0.3-0.4-0.7-0.7-1.2-0.9
	s-1-0.3-1.6-0.3s-1.1,0.1-1.6,0.3s-0.9,0.5-1.2,0.9c-0.3,0.4-0.6,0.9-0.8,1.5c-0.2,0.6-0.3,1.2-0.3,1.9s0.1,1.3,0.3,1.9
	s0.4,1,0.8,1.5c0.3,0.4,0.7,0.7,1.2,0.9c0.5,0.2,1,0.3,1.6,0.3s1.1-0.1,1.6-0.3c0.5-0.2,0.9-0.5,1.2-0.9c0.3-0.4,0.6-0.9,0.8-1.5
	S238,254.2,238,253.5z"/>
<path class="st1" d="M246.3,249.4c-0.5,0.2-0.9,0.6-1.3,1c-0.4,0.4-0.7,0.9-0.9,1.4s-0.3,1.1-0.3,1.7v5.6h-1.3v-11.2h1.3v2.4
	c0.2-0.3,0.4-0.7,0.7-1c0.3-0.3,0.6-0.6,1-0.8s0.8-0.4,1.2-0.6c0.4-0.1,0.8-0.2,1.3-0.2v1.3C247.3,249,246.8,249.2,246.3,249.4z"/>
<path class="st1" d="M254,259.3c-0.3,0-0.5,0-0.7,0c-0.8,0-1.5-0.2-1.9-0.7s-0.7-1.3-0.7-2.4v-7.1h-1.5v-1.2h1.5v-3.2h1.3v3.2h2.3
	v1.2H252v7.1c0,0.8,0.1,1.3,0.3,1.6c0.2,0.3,0.5,0.4,1,0.4c0.4,0,0.8,0,1.3-0.1l0.2,1C254.6,259.2,254.3,259.3,254,259.3z"/>
<path class="st1" d="M267.3,253.5c0,0.8-0.1,1.5-0.4,2.2c-0.2,0.7-0.6,1.3-1,1.8c-0.5,0.5-1,1-1.6,1.3c-0.6,0.3-1.4,0.5-2.2,0.5
	s-1.5-0.2-2.2-0.5c-0.7-0.3-1.2-0.7-1.6-1.3c-0.4-0.5-0.8-1.1-1-1.8s-0.4-1.4-0.4-2.2s0.1-1.5,0.4-2.2c0.2-0.7,0.6-1.3,1-1.8
	s1-1,1.6-1.3c0.7-0.3,1.4-0.5,2.2-0.5s1.5,0.2,2.2,0.5c0.6,0.3,1.2,0.7,1.6,1.3c0.5,0.5,0.8,1.1,1,1.8
	C267.2,252,267.3,252.8,267.3,253.5z M266,253.5c0-0.7-0.1-1.3-0.3-1.9c-0.2-0.6-0.4-1-0.8-1.5c-0.3-0.4-0.7-0.7-1.2-0.9
	s-1-0.3-1.6-0.3s-1.1,0.1-1.6,0.3s-0.9,0.5-1.2,0.9c-0.3,0.4-0.6,0.9-0.8,1.5c-0.2,0.6-0.3,1.2-0.3,1.9s0.1,1.3,0.3,1.9
	s0.4,1,0.8,1.5c0.3,0.4,0.7,0.7,1.2,0.9c0.5,0.2,1,0.3,1.6,0.3s1.1-0.1,1.6-0.3c0.5-0.2,0.9-0.5,1.2-0.9c0.3-0.4,0.6-0.9,0.8-1.5
	S266,254.2,266,253.5z"/>
<g>
	<g>
		<rect x="-68.9" y="268.4" class="st2" width="2.7" height="14.7"/>
	</g>
	<g>
		<path class="st2" d="M-67.6,271.1c-0.1,0-13.4-0.2-13.4-13.4c0-12.5,11.9-24.5,12.4-25l1-1l0.9,0.9c0.5,0.5,12.4,12.6,12.4,25
			C-54.2,270.9-67.5,271.1-67.6,271.1z M-67.6,235.6c-2.8,3-10.7,12.7-10.7,22.1c0,10.6,10.2,10.7,10.7,10.7
			c0.4,0,10.7-0.2,10.7-10.7C-56.9,248.3-64.8,238.6-67.6,235.6z"/>
	</g>
	<g>
		<rect x="-44.8" y="268.4" class="st2" width="2.7" height="14.7"/>
	</g>
	<g>
		<path class="st2" d="M-43.5,271.1c-0.1,0-13.4-0.2-13.4-13.4c0-12.5,11.9-24.5,12.4-25l1-1l0.9,0.9c0.5,0.5,12.4,12.6,12.4,25
			C-30.1,270.9-43.4,271.1-43.5,271.1z M-43.5,235.6c-2.8,3-10.7,12.7-10.7,22.1c0,10.5,10.2,10.7,10.7,10.7s10.7-0.2,10.7-10.7
			C-32.8,248.3-40.7,238.6-43.5,235.6z"/>
	</g>
</g>
</svg>
