<!-- Generator: Adobe Illustrator 18.0.0, SVG Export Plug-In  -->
<svg version="1.1"
	 xmlns="http://www.w3.org/2000/svg" xmlns:xlink="http://www.w3.org/1999/xlink" xmlns:a="http://ns.adobe.com/AdobeSVGViewerExtensions/3.0/"
	 x="0px" y="0px" width="75.2px" height="64.1px" viewBox="0 0 75.2 64.1" enable-background="new 0 0 75.2 64.1"
	 xml:space="preserve">
<defs>
</defs>
<g>
	
		<rect x="2.7" y="6.6" transform="matrix(-0.9848 -0.1737 0.1737 -0.9848 67.302 44.1176)" fill="#AFC514" width="65.7" height="25.1"/>
	
		<rect x="2.7" y="6.6" transform="matrix(-0.9848 -0.1737 0.1737 -0.9848 67.302 44.1176)" fill="none" stroke="#00978E" stroke-width="1.8247" stroke-miterlimit="3.8636" width="65.7" height="25.1"/>
	
		<rect x="27.4" y="32.1" transform="matrix(-0.9848 -0.1737 0.1737 -0.9848 91.7172 100.5192)" fill="#AFC514" width="45.6" height="28.3"/>
	<path fill="#FFFFFF" d="M49,58.9c0,0,1.8-3.5,8.4-1.6c6.3,1.8,10.6-3.7,9-4.7c0,0-0.1,0-0.1,0l0,0c-0.3,0-0.7,0.2-0.7,0.6
		c0,0.3,0.1,0.5,0.3,0.6c0,0,0,0,0,0c0.2,0,0.3-0.1,0.4-0.3c0-0.1,0-0.2-0.1-0.3L66,53.2l0.1,0l0.2,0.1c0.1,0.1,0.2,0.2,0.2,0.3
		c0,0.2-0.2,0.3-0.4,0.3c-0.1,0-0.1,0-0.1,0l-0.2-0.1c-0.3-0.1-0.4-0.4-0.4-0.7c0.1-0.4,0.4-0.6,0.7-0.6l0,0c0.1,0,0.2,0,0.2,0.1
		l0.2,0.1c1.9,0.8-2.5,6.6-8.9,4.7C51,55.5,49.2,59,49.2,59L49,58.9z"/>
	<path fill="#FFFFFF" d="M49.6,58.7c0.2-0.3,0.3-0.5,0.5-0.7c1.4-1,3.2-0.4,4.3-1.3l0.3-0.2c0.2-0.1,0.3-0.3,0.4-0.6
		c0.2-0.3,0.4-0.6,0.7-0.9c2.4-1.8,6.8,0.1,5.6,1.8c-0.3,0.2-0.7,0.1-1.1-0.1c-0.4-0.3-0.5-0.9-0.2-1.3l-0.3,0.2
		c-0.3,0.4-0.2,1,0.2,1.3c0.4,0.3,0.9,0.3,1.2,0l0.3-0.2l0.1-0.1l0,0C63,55,58.3,53.1,56,55l-0.3,0.2c-0.3,0.3-0.6,0.6-0.8,1
		c-0.1,0.2-0.2,0.3-0.3,0.4c-1.1,0.8-3,0.2-4.3,1.3L50,58.2c-0.2,0.2-0.5,0.5-0.7,0.8L49.6,58.7z"/>
	<path fill="#FFFFFF" d="M38.7,46.6c0,0.1-0.1-0.1-0.1-0.1c0-0.5-0.1-1.2,0.4-2.5c0.6-1.6,0.7-2,0.7-2.8
		C39.7,39.3,40.2,44.3,38.7,46.6z"/>
	<path fill="#FFFFFF" d="M39.2,39.1C39.2,39.1,39.2,39.1,39.2,39.1c0.3-0.4,0.7-0.8,0.9-1.8c0.3-1.3,0.4-1.6,0.8-2.1
		C41.8,33.9,39.2,36.9,39.2,39.1z"/>
	<path fill="#FFFFFF" d="M34,55.5c0,0,5.5-1.4,4.8-11.3c-0.7-9.3,8.4-13.8,9.3-11.3c0,0,0,0.1,0,0.2l0,0c0,0.5-0.5,0.9-1,0.8
		c-0.4,0-0.7-0.3-0.8-0.6c0,0,0,0,0-0.1c0-0.2,0.2-0.4,0.5-0.4c0.2,0,0.3,0.1,0.4,0.3l0,0.2l0-0.1l-0.1-0.3c0-0.2-0.2-0.4-0.4-0.4
		c-0.3,0-0.5,0.2-0.5,0.4c0,0.1,0,0.2,0,0.2l0.1,0.3c0.1,0.4,0.4,0.7,0.9,0.7c0.5,0,1-0.3,1-0.8l0,0c0-0.1,0-0.2,0-0.3L48,32.7
		c-0.6-2.9-10,1.6-9.3,11.1c0.7,9.9-4.8,11.3-4.8,11.3L34,55.5z"/>
	<path fill="#FFFFFF" d="M36.9,52.4c0,0,4-1.2,3.2-8.5c-0.7-6.9,5.8-10.4,6.6-8.6c0,0,0,0.1,0,0.1l0,0c0,0.4-0.3,0.7-0.7,0.6
		c-0.3,0-0.5-0.2-0.6-0.4c0,0,0,0,0,0c0-0.2,0.2-0.3,0.4-0.3c0.1,0,0.2,0.1,0.3,0.2l0,0.2l0-0.1L46,35.4c0-0.1-0.2-0.3-0.3-0.3
		c-0.2,0-0.4,0.1-0.4,0.3c0,0.1,0,0.1,0,0.2l0.1,0.2c0.1,0.3,0.3,0.5,0.7,0.5c0.4,0,0.7-0.3,0.7-0.6l0,0c0-0.1,0-0.2,0-0.2l-0.1-0.2
		c-0.5-2.1-7.4,1.5-6.6,8.5c0.8,7.3-3.2,8.5-3.2,8.5L36.9,52.4z"/>
	<path fill="#FFFFFF" d="M41,38.4c4-1.8,3.9-6.5,2.8-6.6c-0.1,0-0.1,0-0.2,0.1l0,0c-0.2,0.1-0.3,0.4-0.1,0.6
		c0.1,0.1,0.2,0.2,0.3,0.2c0,0,0.1,0,0.1-0.1c0.1-0.1,0.1-0.2,0.1-0.3c0,0-0.1-0.1-0.1-0.1c0,0,0,0,0,0l-0.2,0c0,0,0.1,0,0.1,0
		l0.2,0c0.1,0,0.2,0,0.2,0.1c0.1,0.1,0,0.2-0.1,0.3c-0.1,0-0.1,0.1-0.2,0.1l-0.2,0c-0.2,0-0.3-0.1-0.4-0.2c-0.1-0.2-0.1-0.5,0.1-0.6
		h0c0.1-0.1,0.2-0.1,0.3-0.1l0.2,0c1.2-0.1,1.4,4.7-2.7,6.6L41,38.4z"/>
	<path fill="#FFFFFF" d="M37.2,51.8c0.3-0.1,0.6-0.3,0.8-0.4c1.3-1.3,1-3.3,2.1-4.3l0.3-0.2c0.2-0.2,0.4-0.3,0.7-0.4
		c0.4-0.1,0.7-0.3,1-0.5c2.3-2.2,1.2-7.2-0.9-6.2C41,40.1,41,40.6,41.2,41c0.3,0.5,0.9,0.7,1.3,0.4l-0.3,0.2
		c-0.5,0.3-1.1,0.1-1.3-0.4c-0.2-0.4-0.1-1,0.2-1.3l0.3-0.2l0.1-0.1l0,0c2.1-1.1,3.3,4.2,0.8,6.3L42,46.1c-0.3,0.3-0.7,0.5-1.2,0.6
		c-0.2,0.1-0.4,0.1-0.5,0.3c-1,1-0.7,3.1-2.1,4.3l-0.3,0.2c-0.3,0.2-0.6,0.4-1,0.6L37.2,51.8z"/>
	<path fill="#FFFFFF" d="M46.3,52.7c0.4-0.8,2.6-2.4,3.7-2.8c1.1-0.4,1.7-2,1.3-3.3c-0.3-1-1.5-1.5-2.3-1.3
		c-0.8,0.2-1.6,1.3-1.3,2.3c0.2,0.6,0.9,1,1.6,0.9c0.7-0.2,1-1,0.7-1.6c-0.2-0.3-0.4-0.5-0.7-0.4s-0.5,0.5-0.4,0.8
		c-0.1-0.3,0-0.7,0.3-0.8c0.3-0.1,0.6,0.1,0.7,0.4c0.2,0.6-0.1,1.2-0.6,1.4c-0.5,0.2-1.2,0-1.4-0.7c-0.2-0.6-0.1-1.1,0.2-1.5
		c0.2-0.3,0.5-0.5,0.9-0.6c0.8-0.2,1.7,0.1,2,1c0.5,1.3-0.1,2.6-1.2,3c-1.1,0.4-3.4,1.8-4,2.5C45.7,52,46.3,52.6,46.3,52.7z"/>
	<circle fill="#FFFFFF" cx="49.3" cy="46.9" r="0.6"/>
	<path fill="#FFFFFF" d="M47.9,50.7c0.4,0,1.3-0.4,1.7-0.8c0.4-0.3,1-0.2,1.4,0.2c0.3,0.3,0.2,0.8,0,1c-0.2,0.3-0.7,0.3-1,0
		c-0.2-0.2-0.2-0.5,0-0.7c0.2-0.2,0.5-0.2,0.7,0.1c0.1,0.1,0.1,0.2,0,0.3c-0.1,0.1-0.3,0.1-0.4,0c0.1,0.1,0.2,0.1,0.3,0
		c0.1-0.1,0.1-0.2,0-0.3c-0.2-0.2-0.4-0.2-0.6-0.1c-0.2,0.1-0.2,0.4,0,0.6c0.2,0.2,0.4,0.2,0.6,0.2c0.1,0,0.3-0.1,0.4-0.2
		c0.2-0.2,0.3-0.6,0-0.9c-0.4-0.4-0.9-0.5-1.3-0.2c-0.3,0.3-1.3,0.8-1.6,0.9C48,51,47.9,50.7,47.9,50.7z"/>
	<circle fill="#FFFFFF" cx="50.4" cy="50.7" r="0.2"/>
	<path fill="#FFFFFF" d="M49.8,49.5c5.3-0.8,6.8-6.3,5.5-6.8c-0.1,0-0.2,0-0.3,0l0,0c-0.3,0.1-0.4,0.4-0.4,0.7
		c0.1,0.2,0.2,0.3,0.3,0.4c0.1,0,0.1,0,0.2,0c0.1,0,0.2-0.2,0.2-0.3c0-0.1-0.1-0.1-0.1-0.2c0,0,0,0,0,0l-0.2,0c0,0,0.1,0,0.1,0
		l0.2,0c0.1,0,0.2,0.1,0.2,0.2c0,0.1,0,0.3-0.2,0.3c-0.1,0-0.2,0-0.3,0l-0.2,0c-0.2,0-0.4-0.2-0.4-0.4c-0.1-0.3,0.1-0.6,0.3-0.7l0,0
		c0.1,0,0.3,0,0.4,0l0.2,0c1.5,0.3,0,6-5.4,6.9L49.8,49.5z"/>
	<path fill="#FFFFFF" d="M51.9,48.7c0,0,0,0.1,0,0.1c0.2,0.2,0.4,0.8,1,0.7c0.8-0.2,1.1-0.5,1.5-0.4C54.8,49.3,53.1,47.8,51.9,48.7z
		"/>
	<path fill="#FFFFFF" d="M55.6,43c0.1,0-1.8-1.2-1.7,1c0,0.2,0,0.1,0,0c0,0,0.1-0.2,0.2-0.2c0.5-0.2,0.6,0.2,1.1-0.6
		C55.4,43.1,55.7,43.2,55.6,43c-0.2,0-0.6,0.1-0.9,0.1c-0.3,0.1-0.3,0.1-0.6,0.5c0.1-0.1,0.1-0.4,0.5-0.6C55,43,55.3,43,55.6,43z"/>
	<path fill="#FFFFFF" d="M55.6,43.1c0.1,0,0.6-2-1.5-1.3c-0.2,0.1-0.1,0.1,0,0.1c0,0,0.2,0,0.3,0.1c0.3,0.4,0,0.6,0.9,0.8
		C55.5,42.8,55.5,43.1,55.6,43.1c-0.1-0.1-0.3-0.5-0.4-0.8C55,42,55,42.1,54.6,41.9c0.1,0,0.4,0,0.7,0.3
		C55.5,42.5,55.5,42.8,55.6,43.1z"/>
	<path fill="#FFFFFF" d="M55.8,43.1c-0.1-0.1,1.9-0.8,1.3,1.4c0,0.2,0,0.1,0,0c0,0-0.1-0.2-0.2-0.3c-0.4-0.3-0.6,0.1-0.9-0.9
		C56,43.2,55.7,43.2,55.8,43.1c0.1,0.1,0.5,0.2,0.8,0.3c0.2,0.2,0.2,0.2,0.4,0.6c0-0.1,0-0.5-0.4-0.7C56.4,43.1,56.1,43.1,55.8,43.1
		z"/>
	<path fill="#FFFFFF" d="M55.7,43c0-0.1,1.7,1.9-0.9,1.5c-0.2,0-0.1,0,0,0c0,0,0.2-0.1,0.2-0.2c0.1-0.5-0.4-0.6,0.5-1
		C55.6,43.3,55.5,43,55.7,43c0,0.2,0,0.6,0,0.8c-0.1,0.3-0.1,0.3-0.5,0.5c0.1,0,0.5,0,0.6-0.4C55.9,43.6,55.7,43.3,55.7,43z"/>
	<path fill="#FFFFFF" d="M55.6,43c-0.1,0-0.1-1.8,1.7-0.6c0.1,0.1,0.1,0.1,0,0c0,0-0.2,0-0.3,0C56.7,42.7,57,43,56,42.9
		C55.9,42.9,55.8,43.1,55.6,43c0.1-0.1,0.4-0.4,0.6-0.5c0.2-0.1,0.2-0.1,0.7-0.1c-0.1,0-0.4-0.1-0.8,0.1
		C55.9,42.6,55.8,42.8,55.6,43z"/>
	<path fill="#FFFFFF" d="M54.6,47C54.5,47,54.5,47,54.6,47c-0.1-0.2-0.5-0.4-0.3-0.7c0.2-0.4,0.4-0.6,0.4-0.8S55.2,46.4,54.6,47z"/>
	<path fill="#FFFFFF" d="M36,55.6c0,0.1-3.3-0.2-3.9-0.7c-0.5-0.4-1-0.5-0.9-2.6c0-0.5,0.1-0.4,0.1-0.4c0.2,0,0.4,1,0.6,0.9
		c0.3-0.1-0.4-1.6-0.4-2.2c0-1.2,1.4-1.4,1.4-1.4c0,0,0,0.7,0.2,0.7c0.2,0,0.5-0.3,0.5-0.8c0,0,0-0.1,0-0.1c0-0.5-0.4-0.8-0.4-0.8
		s0.7,0.4,1,0.8c0.3,0.5-1.1,2.1-1.3,2.5c-0.9,2,1,3.5,2.3,3.2c0.1,0-0.1-0.1-0.2-0.2c-0.2-0.2-1.2-2.1-0.1-3.5
		c0.2-0.2,0.5,1.5,0.6-0.7c0-0.4,0.2-0.2,0.4-0.1c0.2,0.1,0.3,0.3,0.4,0.6c0.1,0.4,0.2,0.6,0,0.9c-0.1,0.2-0.1,0.3-0.1,0.3
		c0,0.1,0.4-0.3,0.5-0.4c0.2-0.2,0.3,0.5,0.2,0.8c-0.1,0.3-0.7,1.2-0.9,1.4C35.8,54.3,35.8,55.4,36,55.6C36.2,55.6,36,55.6,36,55.6z
		"/>
	<path fill="#FFFFFF" d="M38.6,55.8c-0.1,0.2,5.3,1.4,6.3,1c1.1-0.4,1.8-0.3,2.8-3.6c0.2-0.8,0.1-0.6,0-0.6
		c-0.3-0.1-1.1,1.3-1.3,1.1c-0.4-0.3,1.5-2.2,1.8-3.2c0.6-1.8-1.5-2.9-1.4-2.8c0,0-0.4,1.1-0.7,1c-0.3-0.1-0.6-0.7-0.4-1.4
		c0,0,0-0.1,0-0.1c0.3-0.8,1-1.1,1-1.1s-1.3,0.2-1.9,0.8c-0.6,0.6,0.7,3.9,0.8,4.6c0.4,3.5-3.4,4.9-5.2,3.8
		c-0.2-0.1,0.1-0.2,0.4-0.3c0.4-0.2,3-2.6,2-5.4c-0.2-0.4-1.6,2.1-0.6-1.4c0.2-0.6-0.2-0.4-0.6-0.3c-0.3,0.1-0.7,0.3-0.9,0.8
		c-0.3,0.6-0.6,0.8-0.5,1.4c0,0.4,0.1,0.6,0,0.6c-0.1,0.2-0.4-0.6-0.5-0.9c-0.1-0.4-0.7,0.7-0.7,1.2c0,0.5,0.6,2.2,0.6,2.6
		s-0.4,2.1-0.8,2.2S38.6,55.8,38.6,55.8z"/>
	<path fill="#FFFFFF" d="M39.2,56.1c-0.1-0.4,0-1.6,0.2-2.1c0.2-0.5-0.1-1.2-0.7-1.4c-0.4-0.2-0.9,0-1.1,0.3
		c-0.2,0.3-0.1,0.9,0.4,1.1c0.3,0.1,0.6,0,0.8-0.3c0.1-0.3,0-0.6-0.3-0.7c-0.1,0-0.3,0-0.4,0.1c-0.1,0.1,0,0.3,0.2,0.4
		C38,53.6,38,53.4,38,53.3c0.1-0.1,0.2-0.2,0.3-0.1c0.3,0.1,0.4,0.4,0.3,0.6c-0.1,0.2-0.4,0.4-0.7,0.3c-0.3-0.1-0.4-0.3-0.4-0.5
		c0-0.2,0-0.3,0.1-0.5c0.2-0.3,0.5-0.5,0.9-0.4c0.6,0.2,0.8,0.8,0.6,1.3c-0.2,0.5-0.4,1.6-0.4,2.1C38.8,56.2,39.2,56.1,39.2,56.1z"
		/>
	<circle fill="#FFFFFF" cx="38.2" cy="53.4" r="0.3"/>
	<path fill="#FFFFFF" d="M43.1,51.2C43,51.4,43,51.1,43,50.9c0.2-1,0.4-2.6,2-5.1c2-3.1,2.4-4,2.7-5.6C48.4,36,47.3,46.9,43.1,51.2z
		"/>
	<path fill="#FFFFFF" d="M55.4,56.7c-0.1,0,0-0.1,0.1-0.1c0.3-0.2,0.8-0.7,2-1c1.4-0.4,1.8-0.5,2.3-0.9
		C61.1,53.6,57.8,56.5,55.4,56.7z"/>
	<path fill="#FFFFFF" d="M45.4,56.7c-0.1,0.1,0.1,0.1,0.2,0c0.6-0.2,1.6-0.4,3-1.6c1.8-1.5,2.3-1.8,3.3-2.1
		C54.5,52.2,47.8,53.7,45.4,56.7z"/>
	<path fill="#FFFFFF" d="M46,38.8c0.1-0.1,0.1,0.1,0.1,0.2c0,0.7-1.5,2.5-1.8,3.5c-0.6,2.1,0,2.6,0.2,3.5c0,0.2,0,0.4,0.1,0.6
		c0.2,1.1,0.5,1.2,0.2,1c-0.5-0.5-1.4-3-1.2-5.3C43.8,41,45.5,39.9,46,38.8z"/>
	<path fill="#FFFFFF" d="M59.7,56.9c0.1,0,0,0.1-0.1,0.1c-0.5,0.2-1.9-0.5-2.7-0.5c-1.5,0-1.7,0.5-2.3,0.9c-0.1,0.1-0.3,0.1-0.4,0.2
		c-0.7,0.4-0.7,0.6-0.6,0.4c0.2-0.4,1.7-1.6,3.3-1.9C57.9,55.8,58.9,56.7,59.7,56.9z"/>
	<path fill="#FFFFFF" d="M44,43.3c-0.1,0.1-0.1-0.1-0.1-0.2c0.1-0.7,1.8-2.2,2.3-3.2c0.9-1.9,0.4-2.6,0.3-3.5c0-0.2,0-0.4,0-0.6
		c0-1.1-0.3-1.2-0.1-1c0.4,0.6,1,3.2,0.4,5.4C46.5,41.6,44.7,42.4,44,43.3z"/>
	<path fill="#FFFFFF" d="M46.7,56.8c-0.1,0,0-0.1,0-0.1c0.3-0.3,1.9-0.4,2.5-0.7c1.3-0.6,1.3-1.2,1.6-1.7c0.1-0.1,0.2-0.2,0.3-0.3
		c0.5-0.6,0.4-0.8,0.4-0.6c0,0.5-0.8,2.1-2.1,3C48.8,56.9,47.5,56.6,46.7,56.8z"/>
	<path fill="#FFFFFF" d="M49.1,42.1c0.1,0-0.6-3.2-2.9-0.9c-0.2,0.2-0.1,0.1,0,0.1c0,0,0.3-0.1,0.5,0c0.7,0.4,0.4,0.9,1.8,0.6
		C48.8,41.8,49,42.2,49.1,42.1c-0.2-0.2-0.7-0.6-1.1-0.8C47.7,41,47.6,41,47,41.1c0.2-0.1,0.6-0.3,1.2,0
		C48.6,41.3,48.8,41.7,49.1,42.1z"/>
	<path fill="#FFFFFF" d="M49.1,42.1c0,0.1,2.9-1.5-0.2-3c-0.2-0.1-0.1,0-0.1,0c0,0,0.2,0.3,0.1,0.4c-0.1,0.8-0.7,0.6,0.1,1.9
		C49.1,41.6,48.8,42,49.1,42.1c0.1-0.2,0.3-0.8,0.4-1.2c0.1-0.5,0-0.5-0.3-1.1c0.1,0.2,0.5,0.4,0.4,1.1
		C49.6,41.3,49.3,41.7,49.1,42.1z"/>
	<path fill="#FFFFFF" d="M49.3,42.3c0-0.1,2.9,1.2-0.2,3c-0.2,0.1-0.1,0-0.1,0c0,0,0.2-0.3,0.1-0.5c-0.1-0.8-0.7-0.6,0.1-1.9
		C49.3,42.7,49,42.3,49.3,42.3c0.1,0.2,0.3,0.8,0.4,1.2c0.1,0.4,0,0.4-0.3,1.1c0.1-0.2,0.5-0.5,0.4-1.2C49.8,43,49.5,42.6,49.3,42.3
		z"/>
	<path fill="#FFFFFF" d="M49.2,42.1c0.1,0-0.3,3.8-2.5,0.6c-0.2-0.2-0.1-0.2,0-0.1c0,0,0.3,0.1,0.4,0c0.6-0.3,0.3-1,1.6-0.4
		C48.8,42.3,49.1,41.8,49.2,42.1c-0.2,0.2-0.6,0.6-0.9,0.9c-0.4,0.2-0.4,0.2-1,0c0.2,0.1,0.5,0.5,1.1,0.2
		C48.7,42.9,48.9,42.4,49.2,42.1z"/>
	<path fill="#FFFFFF" d="M49.1,42.1c-0.1,0,1.9-2,2.5,1.2c0,0.2,0,0.1,0,0.1c0,0-0.2-0.2-0.3-0.3c-0.7-0.2-0.7,0.4-1.6-0.8
		C49.5,42.2,49.1,42.3,49.1,42.1c0.2,0,0.8,0,1.2,0.1c0.4,0.1,0.4,0.1,0.9,0.6c-0.1-0.2-0.3-0.6-0.9-0.8
		C49.9,41.9,49.5,42,49.1,42.1z"/>
	<path fill="#FFFFFF" d="M39.6,55.4c0,0,3.9-1.1,3.3-8.1c-0.6-6.6,5.8-9.9,6.5-8.2c0,0,0,0.1,0,0.1l0,0c0,0.4-0.3,0.6-0.7,0.6
		c-0.3,0-0.5-0.2-0.6-0.4c0,0,0,0,0,0c0-0.2,0.2-0.3,0.4-0.3c0.1,0,0.2,0.1,0.3,0.2l0,0.2l0-0.1l-0.1-0.2c0-0.1-0.2-0.3-0.3-0.3
		c-0.2,0-0.3,0.1-0.4,0.3c0,0.1,0,0.1,0,0.2l0.1,0.2c0.1,0.3,0.3,0.5,0.6,0.5c0.4,0,0.7-0.3,0.7-0.6l0,0c0-0.1,0-0.2,0-0.2L49.4,39
		c-0.4-2-7.1,1.3-6.5,8c0.6,7-3.3,8.1-3.3,8.1L39.6,55.4z"/>
	<path fill="#FFFFFF" d="M42.9,49.2c2.5-4.9-1.1-9.4-2.4-8.6c0,0.1-0.1,0.1-0.1,0.2l0,0c-0.1,0.3,0.1,0.6,0.4,0.7
		c0.2,0.1,0.3,0,0.5,0c0,0,0.1-0.1,0.1-0.1c0-0.1,0-0.3-0.2-0.4c-0.1,0-0.1,0-0.2,0c0,0,0,0,0,0l-0.2,0.1c0,0,0-0.1,0.1-0.1l0.2-0.1
		c0.1-0.1,0.2-0.1,0.3-0.1c0.1,0.1,0.2,0.2,0.2,0.4c0,0.1-0.1,0.2-0.1,0.2l-0.2,0.1c-0.1,0.1-0.4,0.2-0.6,0.1
		c-0.3-0.1-0.5-0.4-0.4-0.7l0,0c0.1-0.1,0.1-0.2,0.2-0.3l0.2-0.1c1.2-1,5,3.6,2.5,8.6L42.9,49.2z"/>
	<path fill="#FFFFFF" d="M62.7,57.4c2.3-3.4,6.6-2.6,6.6-1.5c0,0.1-0.1,0.1-0.1,0.2l0,0c-0.2,0.2-0.4,0.2-0.6,0
		c-0.1-0.1-0.1-0.2-0.1-0.3c0,0,0-0.1,0.1-0.1c0.1-0.1,0.2-0.1,0.3,0c0,0,0.1,0.1,0.1,0.1c0,0,0,0,0,0l0,0.2c0,0,0-0.1,0-0.1l0-0.2
		c0-0.1,0-0.2-0.1-0.2c-0.1-0.1-0.2-0.1-0.3,0c0,0.1-0.1,0.1-0.1,0.2l0,0.2c0,0.1,0,0.3,0.1,0.4c0.2,0.2,0.4,0.2,0.6,0l0,0
		c0.1-0.1,0.1-0.2,0.1-0.2l0-0.2c0.3-1.1-4.2-2-6.5,1.4L62.7,57.4z"/>
	<path fill="#FFFFFF" d="M39.4,55.3c0.4,0,0.7-0.1,0.9-0.2c1.7-0.8,2.1-3,3.5-3.6l0.4-0.1c0.2-0.1,0.5-0.1,0.8-0.1
		c0.4,0,0.8-0.1,1.2-0.2c3-1.4,3.5-6.8,1.2-6.4c-0.3,0.2-0.5,0.7-0.4,1.1c0.1,0.6,0.7,1,1.2,0.9l-0.4,0.1c-0.6,0.1-1.1-0.3-1.2-0.9
		c-0.1-0.5,0.2-1,0.6-1.2l0.4-0.1l0.1,0l0,0c2.4-0.4,1.9,5.2-1.3,6.5l-0.4,0.1c-0.4,0.2-0.9,0.3-1.4,0.3c-0.2,0-0.4,0-0.6,0.1
		c-1.3,0.7-1.7,2.8-3.5,3.6l-0.4,0.1c-0.3,0.1-0.7,0.2-1.1,0.2L39.4,55.3z"/>
	<path fill="#FFFFFF" d="M35.5,55.1c-0.1-0.1-0.2-0.1-0.2-0.2c-0.2-0.1-0.1,0,0,0C35.3,55,35.4,55.1,35.5,55.1
		c0.4,0.3,0.8,0.5,1.2,0.6c0.2,0,1.5,0.2,2.1-0.7c0.1-0.1-1,0,0.3-0.5c0.2-0.1,0.1-0.2-0.1-0.2c-0.1-0.1-0.2-0.1-0.5-0.1
		c-0.2,0-0.4,0-0.5,0.2c-0.1,0.1-0.1,0.2-0.2,0.2c-0.1,0,0.1-0.3,0.1-0.4c0.1-0.1-0.4,0-0.5,0.1c-0.1,0.1-0.5,0.7-0.6,0.8
		c-0.1,0.1-0.7,0.4-0.9,0.3C35.8,55.2,35.6,55.2,35.5,55.1z"/>
	<path fill="#FFFFFF" d="M37,42.5c0.3-0.5,0.6-1,0.5-1.7c-0.1-0.8-0.8-1.5-1.7-1.4c-0.8,0-1.5,0.7-1.8,1.4c-0.4,0.9-0.4,2.1,0.4,2.8
		c1,1,2.6,0.8,3.6-0.1c1-1,1.5-2.4,1.1-3.8c-0.4-1.1-1.3-1.8-2.4-2c-2.7-0.4-4.9,2.4-4.6,4.9c0.1,0.9,0.4,1.5,1,2.2l2.1,2.5
		c0.7,1.1,1.2,2.4,1.4,3.7c0.1,0.8,0.1,1.7-0.2,2.4c-0.1,0.3-0.4,0.6-0.6,0.8l0,0c0.2-0.3,0.5-0.5,0.7-0.8c0.4-0.7,0.4-1.6,0.3-2.4
		c-0.1-0.9-0.3-1.8-0.7-2.6c-0.4-1-1.1-1.8-1.7-2.7l-1.4-1.7c-1.2-2.1,0.3-5.2,2.7-5.7c0.8-0.2,1.8,0.1,2.4,0.7
		c0.9,1,0.6,2.4-0.1,3.3c-0.5,0.6-1.2,1-1.9,0.9c-0.8-0.2-1.1-1-0.9-1.7c0.1-0.3,0.4-0.7,0.7-0.9c0.1,0,0.4,0,0.3,0.2
		c0,0.1-0.1,0.2-0.2,0.2c-0.4,0.3-0.4,0.9,0,1.3C36,42.9,36.6,42.9,37,42.5z"/>
	<path fill="#FFFFFF" d="M32.7,37.8c0-0.1-0.1-0.3-0.1-0.5c0-0.4,0.3-0.8,0.8-0.9c0.4-0.1,0.7,0.3,0.8,0.6c0.1,0.3,0.1,0.6,0,0.9
		c-0.1,0.2-0.4,0.3-0.5,0.5c-0.3,0.3-0.5,0.7-0.6,1.1c0,0.2,0,0.5,0,0.7l0,0c0-0.2-0.1-0.5-0.1-0.7c0-0.4,0.2-0.8,0.4-1.2
		c0.1-0.2,0.4-0.4,0.4-0.6c0-0.2-0.1-0.5-0.3-0.6c0,0-0.1,0-0.1,0l0,0l0,0l0,0l0,0l0,0l0,0c0,0.1,0,0.1,0.1,0l0-0.1
		c0.2,0.2,0.2,0.6-0.1,0.8C33.3,38.1,32.9,38.1,32.7,37.8z"/>
	<path fill="#FFFFFF" d="M51.6,55.7c0.3,0.2,0.5,0.3,0.8,0.2c0.4-0.1,0.7-0.5,0.6-0.9c-0.1-0.5-0.6-0.9-1-1.1
		c-0.7-0.3-1.5-0.1-2,0.5c-0.7,0.8-0.4,2.2,0.4,2.8c0.9,0.7,2.2,1,3.3,0.5c0.9-0.4,1.4-1.3,1.4-2.3c0-2.4-2.7-3.9-4.8-3.4
		c-0.7,0.2-1.3,0.6-1.8,1.1l-1.7,2c-0.8,0.7-1.8,1.3-2.8,1.7c-0.6,0.2-1.3,0.3-1.9,0.2c-0.3-0.1-0.5-0.2-0.8-0.4l0,0
		c0.2,0.2,0.5,0.4,0.8,0.5c0.6,0.2,1.4,0.2,2.1,0c0.8-0.2,1.5-0.5,2.2-0.9c0.8-0.5,1.5-1.1,2.1-1.7c0.4-0.4,0.7-1,1.1-1.3
		c1.5-1.2,4.1-0.4,4.7,1.3c0.2,0.6,0.2,1.4-0.2,1.9c-0.9,1.2-3,0.7-3.6-0.6c-0.2-0.4-0.2-0.9,0.1-1.2c0.3-0.5,1-0.6,1.5-0.5
		c0.5,0.1,1.1,0.5,1,1.1c-0.1,0.3-0.3,0.5-0.6,0.5C52,55.9,51.8,55.8,51.6,55.7z"/>
	<path fill="#FFFFFF" d="M55.9,52.5c0,0,0.1,0,0.2,0c0,0.1-0.1,0.3-0.2,0.3c-0.1,0.1-0.2,0-0.3-0.1c-0.1-0.1,0-0.2,0-0.3
		c0.2-0.3,0.6-0.3,0.9-0.2c0.3,0.1,0.5,0.3,0.6,0.6c0.1,0.4-0.3,0.8-0.5,0.9c-0.5,0.3-1.1,0.2-1.6,0c-0.2-0.1-0.3-0.1-0.5-0.2
		l-1.2-0.9l0,0c0.6,0.7,1.1,1.7,2.1,2c1.1,0.3,2.3-0.5,2.5-1.6c0.1-0.7-0.5-1.3-1.1-1.5c-0.4-0.1-0.7-0.2-1.1,0
		c-0.4,0.2-0.8,0.9-0.5,1.4c0.2,0.2,0.7,0.4,0.8,0c0-0.1,0.1-0.4-0.1-0.4C56,52.5,55.9,52.5,55.9,52.5z"/>
	<path fill="#FFFFFF" d="M53.3,51.1C53.3,51.1,53.3,51.1,53.3,51.1c-0.2,0.2-0.2,0.5-0.1,0.7c0.3,0.4,1,0.3,1-0.2
		c0-0.4-0.2-0.6-0.6-0.7c-0.3,0-0.6,0.1-0.8,0.4l-0.2,0.4l-0.4,0.4l0,0l0.4-0.3C52.9,51.5,53,51.2,53.3,51.1z M53.7,51.6
		C53.7,51.6,53.6,51.6,53.7,51.6C53.6,51.5,53.7,51.5,53.7,51.6C53.7,51.6,53.7,51.6,53.7,51.6z"/>
	<path fill="#FFFFFF" d="M51.7,50.9L51.7,50.9L51.7,50.9L51.7,50.9L51.7,50.9z M51.2,50.9c-0.1-0.1-0.2-0.2-0.2-0.3
		c0-0.3,0.3-0.4,0.5-0.5c0.4,0,0.8,0.2,1,0.5c0.2,0.2,0.3,0.6,0.2,0.8c-0.2,0.4-0.5,0.7-1,0.7c-0.2,0-0.3,0-0.5,0l0.2,0.1
		c0.3,0,0.7-0.1,1-0.3c0.2-0.2,0.5-0.5,0.4-0.8c0-0.3-0.1-0.6-0.3-0.9c-0.3-0.3-0.8-0.6-1.2-0.4c-0.3,0.1-0.7,0.4-0.7,0.8
		c0,0.4,0.3,0.7,0.7,0.9c0.3,0.1,0.6,0,0.8-0.2c0.1-0.1,0.2-0.4,0.1-0.5c-0.1-0.3-0.6-0.5-0.8-0.2C51.3,50.6,51.2,50.8,51.2,50.9z
		 M51.3,52.2C51.2,52.2,51.2,52.2,51.3,52.2L51,52.1L51.3,52.2z M51,52.1L51,52.1L51,52.1L51,52.1z"/>
	<circle fill="#FD7813" cx="55.1" cy="57.8" r="0.5"/>
	<circle fill="#FD7813" cx="55.1" cy="57.8" r="0.4"/>
	<circle fill="#FD7813" cx="55.1" cy="57.8" r="0.4"/>
	<circle fill="#FD7813" cx="55.2" cy="58" r="0.1"/>
	<circle fill="#FD7813" cx="34.3" cy="37.9" r="0.6"/>
	<circle fill="#FD7813" cx="34.3" cy="37.9" r="0.5"/>
	<circle fill="#FD7813" cx="34.3" cy="37.9" r="0.5"/>
	<circle fill="#FD7813" cx="34.6" cy="38" r="0.1"/>
	<circle fill="#FFFFFF" cx="34.2" cy="33.3" r="0.7"/>
	<circle fill="#FFFFFF" cx="34.2" cy="33.3" r="0.6"/>
	<circle fill="#FFFFFF" cx="34.2" cy="33.3" r="0.6"/>
	<circle fill="#FFFFFF" cx="34.5" cy="33.5" r="0.2"/>
	<circle fill="#FD7813" cx="67.2" cy="60.3" r="0.3"/>
	<circle fill="#FD7813" cx="67.2" cy="60.3" r="0.2"/>
	<circle fill="#FD7813" cx="67.2" cy="60.3" r="0.2"/>
	<circle fill="#FD7813" cx="67.2" cy="60.4" r="0.1"/>
	<circle fill="#FD7813" cx="39.4" cy="36.5" r="0.3"/>
	<circle fill="#FD7813" cx="39.4" cy="36.5" r="0.2"/>
	<circle fill="#FD7813" cx="39.4" cy="36.5" r="0.2"/>
	<circle fill="#FD7813" cx="39.4" cy="36.6" r="0.1"/>
	<circle fill="#FFFFFF" cx="40.3" cy="33.1" r="0.3"/>
	<circle fill="#FFFFFF" cx="40.3" cy="33.1" r="0.3"/>
	<circle fill="#FFFFFF" cx="40.3" cy="33.1" r="0.2"/>
	<circle fill="#FFFFFF" cx="40.2" cy="33.3" r="0.1"/>
	<circle fill="#FD7813" cx="47.6" cy="51.3" r="0.3"/>
	<circle fill="#FD7813" cx="47.6" cy="51.3" r="0.2"/>
	<circle fill="#FD7813" cx="47.6" cy="51.3" r="0.2"/>
	<circle fill="#FD7813" cx="47.5" cy="51.4" r="0.1"/>
	<circle fill="#FD7813" cx="63.4" cy="59.2" r="0.2"/>
	<circle fill="#FD7813" cx="63.4" cy="59.2" r="0.2"/>
	<circle fill="#FD7813" cx="63.4" cy="59.2" r="0.2"/>
	<circle fill="#FD7813" cx="63.3" cy="59.3" r="0.1"/>
	<circle fill="#FD7813" cx="39.6" cy="43.2" r="0.2"/>
	<circle fill="#FD7813" cx="39.6" cy="43.2" r="0.2"/>
	<circle fill="#FD7813" cx="39.6" cy="43.2" r="0.2"/>
	<circle fill="#FD7813" cx="39.5" cy="43.2" r="0.1"/>
	<circle fill="#FD7813" cx="45.8" cy="45.1" r="0.2"/>
	<circle fill="#FD7813" cx="45.8" cy="45.1" r="0.2"/>
	<circle fill="#FD7813" cx="45.8" cy="45.1" r="0.2"/>
	<circle fill="#FD7813" cx="45.8" cy="45" r="0.1"/>
	<circle fill="#FFFFFF" cx="58.8" cy="40.7" r="0.4"/>
	<circle fill="#FFFFFF" cx="58.8" cy="40.7" r="0.3"/>
	<circle fill="#FFFFFF" cx="58.8" cy="40.7" r="0.3"/>
	<circle fill="#FFFFFF" cx="58.6" cy="40.6" r="0.1"/>
	<circle fill="#FD7813" cx="66" cy="59.8" r="0.1"/>
	<circle fill="#FD7813" cx="66" cy="59.8" r="0.1"/>
	<circle fill="#FD7813" cx="66" cy="59.8" r="0.1"/>
	<circle fill="#FD7813" cx="66.1" cy="59.8" r="0"/>
	<circle fill="#FFFFFF" cx="62.5" cy="54.1" r="0.2"/>
	<circle fill="#FFFFFF" cx="62.5" cy="54.1" r="0.1"/>
	<circle fill="#FFFFFF" cx="62.5" cy="54.1" r="0.1"/>
	<circle fill="#FFFFFF" cx="62.5" cy="54.2" r="0"/>
	<circle fill="#FD7813" cx="33.3" cy="49" r="0.1"/>
	<circle fill="#FD7813" cx="33.3" cy="49" r="0.1"/>
	<circle fill="#FD7813" cx="33.3" cy="49" r="0.1"/>
	<circle fill="#FD7813" cx="33.3" cy="49.1" r="0"/>
	<circle fill="#FD7813" cx="61.3" cy="58.9" r="0.3"/>
	<circle fill="#FD7813" cx="61.3" cy="58.9" r="0.3"/>
	<circle fill="#FD7813" cx="61.3" cy="58.9" r="0.2"/>
	<circle fill="#FD7813" cx="61.2" cy="58.8" r="0.1"/>
	<circle fill="#FFFFFF" cx="56.3" cy="48.6" r="0.4"/>
	<circle fill="#FFFFFF" cx="56.3" cy="48.6" r="0.3"/>
	<circle fill="#FFFFFF" cx="56.3" cy="48.6" r="0.3"/>
	<circle fill="#FFFFFF" cx="56.3" cy="48.4" r="0.1"/>
	<circle fill="#FD7813" cx="45.6" cy="42.9" r="0.3"/>
	<circle fill="#FD7813" cx="45.6" cy="42.9" r="0.3"/>
	<circle fill="#FD7813" cx="45.6" cy="42.9" r="0.2"/>
	<circle fill="#FD7813" cx="45.7" cy="42.9" r="0.1"/>
	<circle fill="#FFFFFF" cx="59.1" cy="51.6" r="0.4"/>
	<circle fill="#FFFFFF" cx="59.1" cy="51.6" r="0.4"/>
	<circle fill="#FFFFFF" cx="59.1" cy="51.6" r="0.3"/>
	<circle fill="#FFFFFF" cx="59.2" cy="51.4" r="0.1"/>
	<circle fill="#FD7813" cx="66" cy="59.3" r="0.2"/>
	<circle fill="#FD7813" cx="66" cy="59.3" r="0.1"/>
	<circle fill="#FD7813" cx="66" cy="59.3" r="0.1"/>
	<circle fill="#FD7813" cx="66.1" cy="59.3" r="0"/>
	<circle fill="#FFFFFF" cx="63" cy="53.8" r="0.2"/>
	<circle fill="#FFFFFF" cx="63" cy="53.8" r="0.2"/>
	<circle fill="#FFFFFF" cx="63" cy="53.8" r="0.2"/>
	<circle fill="#FFFFFF" cx="63.1" cy="53.9" r="0"/>
	<circle fill="#FD7813" cx="33.8" cy="48.9" r="0.2"/>
	<circle fill="#FD7813" cx="33.8" cy="48.9" r="0.1"/>
	<circle fill="#FD7813" cx="33.8" cy="48.9" r="0.1"/>
	<circle fill="#FD7813" cx="33.8" cy="48.9" r="0"/>
	<circle fill="#FD7813" cx="62.3" cy="59.7" r="0.1"/>
	<circle fill="#FD7813" cx="62.3" cy="59.7" r="0.1"/>
	<circle fill="#FD7813" cx="62.3" cy="59.7" r="0.1"/>
	<circle fill="#FD7813" cx="62.3" cy="59.7" r="0"/>
	<circle fill="#FFFFFF" cx="57.6" cy="49.6" r="0.2"/>
	<circle fill="#FFFFFF" cx="57.6" cy="49.6" r="0.2"/>
	<circle fill="#FFFFFF" cx="57.6" cy="49.6" r="0.1"/>
	<circle fill="#FFFFFF" cx="57.6" cy="49.5" r="0"/>
	<circle fill="#FD7813" cx="45.1" cy="44.1" r="0.1"/>
	<circle fill="#FD7813" cx="45.1" cy="44.1" r="0.1"/>
	<circle fill="#FD7813" cx="45.1" cy="44.1" r="0.1"/>
	<circle fill="#FD7813" cx="45.1" cy="44.1" r="0"/>
	<circle fill="#FFFFFF" cx="57" cy="40.2" r="0.2"/>
	<circle fill="#FFFFFF" cx="57" cy="40.2" r="0.2"/>
	<circle fill="#FFFFFF" cx="57" cy="40.2" r="0.2"/>
	<circle fill="#FFFFFF" cx="57" cy="40.1" r="0"/>
	<circle fill="#FD7813" cx="68.9" cy="60.9" r="0.1"/>
	<circle fill="#FD7813" cx="68.9" cy="60.9" r="0.1"/>
	<circle fill="#FD7813" cx="68.9" cy="60.9" r="0.1"/>
	<circle fill="#FD7813" cx="68.9" cy="60.9" r="0"/>
	<circle fill="#FD7813" cx="41.1" cy="35.9" r="0.1"/>
	<circle fill="#FD7813" cx="41.1" cy="35.9" r="0.1"/>
	<circle fill="#FD7813" cx="41.1" cy="35.9" r="0.1"/>
	<circle fill="#FD7813" cx="41.1" cy="35.9" r="0"/>
	<circle fill="#FFFFFF" cx="42.3" cy="33" r="0.1"/>
	<circle fill="#FFFFFF" cx="42.3" cy="33" r="0.1"/>
	<circle fill="#FFFFFF" cx="42.3" cy="33" r="0.1"/>
	<circle fill="#FFFFFF" cx="42.4" cy="32.9" r="0"/>
	<circle fill="#FD7813" cx="30.3" cy="49.2" r="0.1"/>
	<circle fill="#FD7813" cx="30.3" cy="49.2" r="0.1"/>
	<circle fill="#FD7813" cx="30.3" cy="49.2" r="0.1"/>
	<circle fill="#FD7813" cx="30.4" cy="49.2" r="0"/>
	<circle fill="#FD7813" cx="57.8" cy="57.3" r="0.2"/>
	<circle fill="#FD7813" cx="57.8" cy="57.3" r="0.1"/>
	<circle fill="#FD7813" cx="57.8" cy="57.3" r="0.1"/>
	<circle fill="#FD7813" cx="57.9" cy="57.2" r="0"/>
	<circle fill="#FD7813" cx="45.2" cy="38.6" r="0.3"/>
	<circle fill="#FD7813" cx="45.2" cy="38.6" r="0.2"/>
	<circle fill="#FD7813" cx="45.2" cy="38.6" r="0.2"/>
	<circle fill="#FD7813" cx="45.3" cy="38.6" r="0.1"/>
	<circle fill="#FFFFFF" cx="48.8" cy="35" r="0.4"/>
	<circle fill="#FFFFFF" cx="48.8" cy="35" r="0.3"/>
	<circle fill="#FFFFFF" cx="48.8" cy="35" r="0.3"/>
	<circle fill="#FFFFFF" cx="49" cy="34.9" r="0.1"/>
	<circle fill="#FD7813" cx="69.2" cy="59.9" r="0.1"/>
	<circle fill="#FD7813" cx="69.2" cy="59.9" r="0.1"/>
	<circle fill="#FD7813" cx="69.2" cy="59.9" r="0.1"/>
	<circle fill="#FD7813" cx="69.2" cy="59.8" r="0"/>
	<circle fill="#FD7813" cx="40.6" cy="34.9" r="0.1"/>
	<circle fill="#FD7813" cx="40.6" cy="34.9" r="0.1"/>
	<circle fill="#FD7813" cx="40.6" cy="34.9" r="0.1"/>
	<circle fill="#FD7813" cx="40.6" cy="34.9" r="0"/>
	<circle fill="#FFFFFF" cx="42.1" cy="31.7" r="0.1"/>
	<circle fill="#FFFFFF" cx="42.1" cy="31.7" r="0.1"/>
	<circle fill="#FFFFFF" cx="42.1" cy="31.7" r="0.1"/>
	<circle fill="#FFFFFF" cx="42.1" cy="31.7" r="0"/>
	<circle fill="#FD7813" cx="30.6" cy="48.2" r="0.1"/>
	<circle fill="#FD7813" cx="30.6" cy="48.2" r="0.1"/>
	<circle fill="#FD7813" cx="30.6" cy="48.2" r="0.1"/>
	<circle fill="#FD7813" cx="30.6" cy="48.1" r="0"/>
	<circle fill="#FD7813" cx="59" cy="57.8" r="0.3"/>
	<circle fill="#FD7813" cx="59" cy="57.8" r="0.3"/>
	<circle fill="#FD7813" cx="59" cy="57.8" r="0.2"/>
	<circle fill="#FD7813" cx="58.9" cy="57.7" r="0.1"/>
	<circle fill="#FD7813" cx="50.4" cy="53.3" r="0.3"/>
	<circle fill="#FD7813" cx="50.4" cy="53.3" r="0.3"/>
	<circle fill="#FD7813" cx="50.4" cy="53.3" r="0.2"/>
	<circle fill="#FD7813" cx="50.3" cy="53.2" r="0.1"/>
	<circle fill="#FD7813" cx="44.9" cy="40.5" r="0.5"/>
	<circle fill="#FD7813" cx="44.9" cy="40.5" r="0.4"/>
	<circle fill="#FD7813" cx="44.9" cy="40.5" r="0.4"/>
	<circle fill="#FD7813" cx="45.1" cy="40.4" r="0.1"/>
	<circle fill="#FFFFFF" cx="49.2" cy="37.3" r="0.7"/>
	<circle fill="#FFFFFF" cx="49.2" cy="37.3" r="0.6"/>
	<circle fill="#FFFFFF" cx="49.2" cy="37.3" r="0.5"/>
	<circle fill="#FFFFFF" cx="49.3" cy="37" r="0.1"/>
	<circle fill="#FD7813" cx="54" cy="57.4" r="0.2"/>
	<circle fill="#FD7813" cx="54" cy="57.4" r="0.1"/>
	<circle fill="#FD7813" cx="54" cy="57.4" r="0.1"/>
	<circle fill="#FD7813" cx="54" cy="57.3" r="0"/>
	<circle fill="#FD7813" cx="33" cy="38.8" r="0.2"/>
	<circle fill="#FD7813" cx="33" cy="38.8" r="0.2"/>
	<circle fill="#FD7813" cx="33" cy="38.8" r="0.2"/>
	<circle fill="#FD7813" cx="33" cy="38.7" r="0"/>
	<circle fill="#FFFFFF" cx="32.5" cy="34" r="0.2"/>
	<circle fill="#FFFFFF" cx="32.5" cy="34" r="0.2"/>
	<circle fill="#FFFFFF" cx="32.5" cy="34" r="0.2"/>
	<circle fill="#FFFFFF" cx="32.5" cy="33.9" r="0.1"/>
	<circle fill="#FD7813" cx="61.9" cy="58.7" r="0.2"/>
	<circle fill="#FD7813" cx="61.9" cy="58.7" r="0.2"/>
	<circle fill="#FD7813" cx="61.9" cy="58.7" r="0.1"/>
	<circle fill="#FD7813" cx="61.8" cy="58.6" r="0"/>
	<circle fill="#FFFFFF" cx="54.7" cy="50.1" r="0.2"/>
	<circle fill="#FFFFFF" cx="54.7" cy="50.1" r="0.2"/>
	<circle fill="#FFFFFF" cx="54.7" cy="50.1" r="0.2"/>
	<circle fill="#FFFFFF" cx="54.6" cy="50" r="0.1"/>
	<circle fill="#FD7813" cx="46" cy="43.5" r="0.2"/>
	<circle fill="#FD7813" cx="46" cy="43.5" r="0.2"/>
	<circle fill="#FD7813" cx="46" cy="43.5" r="0.1"/>
	<circle fill="#FD7813" cx="46.1" cy="43.4" r="0"/>
	<circle fill="#FFFFFF" cx="67.4" cy="54.2" r="0.3"/>
	<circle fill="#FFFFFF" cx="67.4" cy="54.2" r="0.3"/>
	<circle fill="#FFFFFF" cx="67.4" cy="54.2" r="0.2"/>
	<circle fill="#FFFFFF" cx="67.5" cy="54.1" r="0.1"/>
	<circle fill="#FD7813" cx="53.9" cy="58.1" r="0.1"/>
	<circle fill="#FD7813" cx="53.9" cy="58.1" r="0.1"/>
	<circle fill="#FD7813" cx="53.9" cy="58.1" r="0.1"/>
	<circle fill="#FD7813" cx="54" cy="58.1" r="0"/>
	<circle fill="#FD7813" cx="33.8" cy="39.4" r="0.1"/>
	<circle fill="#FD7813" cx="33.8" cy="39.4" r="0.1"/>
	<circle fill="#FD7813" cx="33.8" cy="39.4" r="0.1"/>
	<circle fill="#FD7813" cx="33.8" cy="39.3" r="0"/>
	<circle fill="#FFFFFF" cx="33.2" cy="34.8" r="0.2"/>
	<circle fill="#FFFFFF" cx="33.2" cy="34.8" r="0.1"/>
	<circle fill="#FFFFFF" cx="33.2" cy="34.8" r="0.1"/>
	<circle fill="#FFFFFF" cx="33.2" cy="34.8" r="0"/>
	<circle fill="#FD7813" cx="59.2" cy="58.9" r="0.3"/>
	<circle fill="#FD7813" cx="51.2" cy="54" r="0.3"/>
	<circle fill="#FD7813" cx="43.6" cy="41.3" r="0.4"/>
	<circle fill="#FFFFFF" cx="52.5" cy="40.6" r="0.3"/>
	<circle fill="#FD7813" cx="68.2" cy="59.7" r="0.1"/>
	<circle fill="#FD7813" cx="39.7" cy="35.4" r="0.1"/>
	<circle fill="#FFFFFF" cx="41" cy="32" r="0.2"/>
	<circle fill="#FD7813" cx="29.6" cy="47.9" r="0.1"/>
	<circle fill="#FD7813" cx="56.6" cy="58.3" r="0.3"/>
	<circle fill="#FD7813" cx="46" cy="48.4" r="0.3"/>
	<circle fill="#FD7813" cx="35.8" cy="36.5" r="0.4"/>
	<circle fill="#FFFFFF" cx="36.3" cy="32.2" r="0.5"/>
	<circle fill="#FD7813" cx="65.5" cy="59.2" r="0.2"/>
	<circle fill="#FFFFFF" cx="64.9" cy="54.2" r="0.2"/>
	<circle fill="#FD7813" cx="33.7" cy="48.3" r="0.2"/>
	<circle fill="#FD7813" cx="61.5" cy="58.1" r="0.2"/>
	<circle fill="#FFFFFF" cx="56.6" cy="47.5" r="0.2"/>
	<circle fill="#FD7813" cx="46.5" cy="43" r="0.2"/>
	<circle fill="#FFFFFF" cx="66.1" cy="56.3" r="0.3"/>
	<circle fill="#FD7813" cx="67.2" cy="59.6" r="0.1"/>
	<circle fill="#FD7813" cx="38.9" cy="36" r="0.1"/>
	<circle fill="#FFFFFF" cx="39.9" cy="32.4" r="0.1"/>
	<circle fill="#FD7813" cx="47.6" cy="50.6" r="0.1"/>
	<circle fill="#FD7813" cx="59.8" cy="58.7" r="0.2"/>
	<circle fill="#FD7813" cx="51.6" cy="53.5" r="0.2"/>
	<circle fill="#FD7813" cx="44.1" cy="42.1" r="0.3"/>
	<circle fill="#FFFFFF" cx="52.2" cy="43.9" r="0.4"/>
	<circle fill="#FD7813" cx="67.9" cy="60.2" r="0.1"/>
	<circle fill="#FD7813" cx="39.8" cy="36" r="0.1"/>
	<circle fill="#FFFFFF" cx="41" cy="32.7" r="0.1"/>
	<circle fill="#FD7813" cx="48.3" cy="51.2" r="0.1"/>
	<circle fill="#FD7813" cx="64.4" cy="60" r="0.1"/>
	<circle fill="#FFFFFF" cx="61.2" cy="52.4" r="0.2"/>
	<circle fill="#FD7813" cx="32.6" cy="47.5" r="0.1"/>
	<circle fill="#FD7813" cx="65.4" cy="60" r="0.1"/>
	<circle fill="#FFFFFF" cx="61.8" cy="53.6" r="0.1"/>
	<circle fill="#FD7813" cx="32.9" cy="48.5" r="0.1"/>
	<circle fill="#FD7813" cx="63" cy="59.5" r="0.1"/>
	<circle fill="#FFFFFF" cx="58.5" cy="49.4" r="0.1"/>
	<circle fill="#FD7813" cx="45.4" cy="44.8" r="0.1"/>
	<circle fill="#FFFFFF" cx="58" cy="40.7" r="0.2"/>
	<circle fill="#FD7813" cx="66.2" cy="60" r="0.1"/>
	<circle fill="#FFFFFF" cx="62.3" cy="54.5" r="0.1"/>
	<circle fill="#FD7813" cx="33.1" cy="49.3" r="0.1"/>
	<circle fill="#FD7813" cx="58" cy="58.1" r="0.1"/>
	<circle fill="#FD7813" cx="49.7" cy="54.1" r="0.1"/>
	<circle fill="#FD7813" cx="44.1" cy="39.2" r="0.2"/>
	<circle fill="#FFFFFF" cx="50.9" cy="38.1" r="0.3"/>
	<circle fill="#FD7813" cx="53.1" cy="57.7" r="0.1"/>
	<circle fill="#FD7813" cx="32.8" cy="40" r="0.1"/>
	<circle fill="#FFFFFF" cx="31.9" cy="35.3" r="0.1"/>
	<circle fill="#FD7813" cx="62.8" cy="58.2" r="0.2"/>
	<circle fill="#FFFFFF" cx="53.7" cy="44.9" r="0.2"/>
	<circle fill="#FD7813" cx="46.7" cy="44.3" r="0.2"/>
	<circle fill="#FFFFFF" cx="70.1" cy="55.3" r="0.2"/>
	<circle fill="#FD7813" cx="68.6" cy="58.5" r="0.1"/>
	<circle fill="#FD7813" cx="39.3" cy="34.3" r="0.1"/>
	<circle fill="#FFFFFF" cx="40.8" cy="30.6" r="0.1"/>
	<circle fill="#FD7813" cx="30" cy="46.8" r="0.1"/>
	<path fill="#FD7813" d="M41.6,58.1c0,0,1.5-2.5,6.3-0.7c4.6,1.7,8.1-2.1,7-2.9c0,0,0,0-0.1,0l0,0c-0.3-0.1-0.5,0.1-0.6,0.4
		c0,0.2,0,0.4,0.2,0.5c0,0,0,0,0,0c0.1,0,0.3-0.1,0.3-0.2c0-0.1,0-0.2-0.1-0.2l-0.1-0.1l0.1,0l0.2,0.1c0.1,0,0.1,0.2,0.1,0.3
		c0,0.1-0.2,0.2-0.3,0.2c0,0-0.1,0-0.1,0l-0.2-0.1c-0.2-0.1-0.3-0.3-0.2-0.5c0.1-0.3,0.3-0.4,0.6-0.4l0,0c0.1,0,0.1,0,0.2,0.1
		l0.2,0.1c1.3,0.7-2.3,4.7-7,3c-4.8-1.8-6.3,0.7-6.3,0.7L41.6,58.1z"/>
	<path fill="#FD7813" d="M42.1,58c0.1-0.2,0.3-0.3,0.4-0.5c1.1-0.7,2.4-0.1,3.3-0.7l0.2-0.2c0.1-0.1,0.3-0.2,0.4-0.4
		c0.2-0.2,0.3-0.4,0.5-0.6c1.9-1.2,5.1,0.5,4.1,1.7c-0.3,0.1-0.6,0.1-0.8-0.1c-0.3-0.3-0.3-0.7,0-1l-0.2,0.2c-0.3,0.3-0.2,0.7,0,1
		c0.3,0.2,0.6,0.3,0.9,0.1l0.2-0.2l0.1-0.1l0,0c1.1-1.2-2.3-3-4.1-1.6l-0.2,0.2c-0.2,0.2-0.5,0.4-0.6,0.7c-0.1,0.1-0.2,0.2-0.3,0.3
		c-0.9,0.5-2.2-0.1-3.3,0.7l-0.2,0.2c-0.2,0.1-0.4,0.3-0.5,0.6L42.1,58z"/>
	<path fill="#FD7813" d="M34.7,48.3c0,0,0,0,0-0.1c0-0.3,0-0.9,0.5-1.8c0.6-1.1,0.7-1.5,0.7-2C35.9,42.9,35.9,46.6,34.7,48.3z"/>
	<path fill="#FD7813" d="M35.5,42.7C35.5,42.7,35.5,42.7,35.5,42.7c0.2-0.2,0.6-0.6,0.8-1.3c0.3-1,0.4-1.2,0.7-1.5
		C37.8,38.9,35.7,41,35.5,42.7z"/>
	<path fill="#FD7813" d="M30.6,54.6c0,0,4.2-0.7,4.3-8.1c0.1-7,7.1-9.8,7.6-7.8c0,0,0,0.1,0,0.1l0,0c-0.1,0.4-0.4,0.6-0.8,0.6
		c-0.3,0-0.5-0.2-0.6-0.5c0,0,0,0,0,0c0-0.2,0.2-0.3,0.4-0.3c0.1,0,0.2,0.1,0.3,0.2l0,0.2l0-0.1l0-0.3c0-0.2-0.1-0.3-0.3-0.3
		c-0.2,0-0.4,0.1-0.4,0.3c0,0.1,0,0.1,0,0.2l0,0.3c0,0.3,0.3,0.6,0.6,0.6c0.4,0.1,0.7-0.2,0.8-0.6l0,0c0-0.1,0-0.2,0-0.3l0-0.3
		c-0.2-2.2-7.6,0.6-7.6,7.7c-0.1,7.4-4.3,8.1-4.3,8.1L30.6,54.6z"/>
	<path fill="#FD7813" d="M33,52.5c0,0,3.1-0.7,2.9-6.1c-0.1-5.2,5-7.4,5.4-6c0,0,0,0.1,0,0.1l0,0c0,0.3-0.3,0.5-0.6,0.4
		c-0.2,0-0.4-0.2-0.4-0.3c0,0,0,0,0,0c0-0.1,0.1-0.2,0.3-0.2c0.1,0,0.2,0.1,0.2,0.2l0,0.1l0-0.1l0-0.2c0-0.1-0.1-0.2-0.2-0.2
		c-0.1,0-0.3,0.1-0.3,0.2c0,0,0,0.1,0,0.1l0,0.2c0,0.2,0.2,0.4,0.5,0.4c0.3,0,0.5-0.2,0.6-0.4l0,0c0-0.1,0-0.1,0-0.2l0-0.2
		c-0.2-1.6-5.6,0.6-5.4,5.9c0.1,5.5-2.9,6.1-2.9,6.1L33,52.5z"/>
	<path fill="#FD7813" d="M36.9,42.3c3.1-1.1,3.3-4.6,2.5-4.7c0,0-0.1,0-0.1,0l0,0c-0.2,0.1-0.2,0.3-0.1,0.5c0.1,0.1,0.1,0.2,0.2,0.2
		c0,0,0.1,0,0.1,0c0.1,0,0.1-0.1,0.1-0.2c0,0,0-0.1-0.1-0.1c0,0,0,0,0,0l-0.1,0c0,0,0.1,0,0.1,0l0.1,0c0.1,0,0.1,0,0.1,0.1
		c0,0.1,0,0.2-0.1,0.2c0,0-0.1,0-0.2,0l-0.1,0c-0.1,0-0.2-0.1-0.3-0.2c-0.1-0.2,0-0.4,0.1-0.5h0c0.1,0,0.1-0.1,0.2-0.1l0.1,0
		c0.9,0,0.7,3.6-2.4,4.8L36.9,42.3z"/>
	<path fill="#FD7813" d="M33.2,52.1c0.2-0.1,0.4-0.2,0.6-0.3c1.1-0.9,0.9-2.4,1.8-3.1l0.2-0.2c0.1-0.1,0.3-0.2,0.5-0.2
		c0.3-0.1,0.6-0.2,0.8-0.3c1.9-1.5,1.3-5.3-0.3-4.7c-0.2,0.2-0.3,0.5-0.1,0.8c0.2,0.4,0.6,0.6,1,0.4l-0.2,0.2c-0.4,0.2-0.8,0-1-0.4
		c-0.2-0.3-0.1-0.7,0.2-0.9l0.2-0.2l0.1,0l0,0c1.6-0.7,2.2,3.3,0.2,4.7l-0.2,0.2c-0.3,0.2-0.6,0.3-0.9,0.4c-0.2,0-0.3,0.1-0.4,0.2
		c-0.8,0.7-0.7,2.3-1.8,3.1l-0.2,0.2c-0.2,0.1-0.4,0.3-0.7,0.4L33.2,52.1z"/>
	<path fill="#FD7813" d="M39.9,53.2c0.3-0.6,2.1-1.7,2.9-1.9c0.9-0.2,1.4-1.4,1.2-2.4c-0.2-0.7-1-1.2-1.6-1.1
		c-0.6,0.1-1.3,0.8-1.1,1.6c0.1,0.5,0.6,0.8,1.2,0.7c0.5-0.1,0.8-0.7,0.6-1.2c-0.1-0.2-0.3-0.4-0.5-0.4c-0.2,0-0.4,0.3-0.3,0.6
		c-0.1-0.2,0.1-0.5,0.3-0.5c0.2-0.1,0.4,0.1,0.5,0.3c0.1,0.5-0.1,0.9-0.5,1c-0.4,0.1-0.9-0.1-1-0.6c-0.1-0.5,0-0.8,0.2-1.1
		c0.2-0.2,0.4-0.4,0.7-0.4c0.6-0.1,1.2,0.1,1.4,0.9c0.3,1-0.2,2-1.1,2.2c-0.8,0.2-2.6,1.1-3.1,1.7C39.5,52.7,40,53.2,39.9,53.2z"/>
	<circle fill="#FD7813" cx="42.6" cy="49.1" r="0.5"/>
	<path fill="#FD7813" d="M41.3,51.9c0.3,0,1-0.2,1.3-0.5c0.3-0.2,0.8-0.1,1,0.2c0.2,0.2,0.1,0.6,0,0.8c-0.2,0.2-0.6,0.2-0.8-0.1
		c-0.1-0.2-0.1-0.4,0.1-0.5c0.2-0.1,0.4-0.1,0.5,0.1c0,0.1,0,0.2,0,0.3c-0.1,0.1-0.2,0.1-0.3,0c0.1,0.1,0.2,0.1,0.2,0s0.1-0.2,0-0.2
		c-0.1-0.2-0.3-0.2-0.5-0.1c-0.1,0.1-0.2,0.3-0.1,0.5c0.1,0.1,0.3,0.2,0.4,0.2c0.1,0,0.2,0,0.3-0.1c0.2-0.2,0.3-0.4,0.1-0.7
		c-0.2-0.3-0.7-0.4-1-0.2c-0.3,0.2-1,0.6-1.3,0.6C41.3,52.1,41.3,51.9,41.3,51.9z"/>
	<circle fill="#FD7813" cx="43.2" cy="52" r="0.2"/>
	<path fill="#FD7813" d="M42.8,51.1c4-0.3,5.5-4.3,4.5-4.8c-0.1,0-0.1,0-0.2,0l0,0c-0.2,0-0.4,0.3-0.3,0.5c0,0.1,0.1,0.2,0.2,0.3
		c0,0,0.1,0,0.1,0c0.1,0,0.2-0.1,0.2-0.2c0-0.1,0-0.1-0.1-0.1c0,0,0,0,0,0l-0.1,0c0,0,0.1,0,0.1,0l0.1,0c0.1,0,0.1,0.1,0.1,0.2
		c0,0.1,0,0.2-0.2,0.2c-0.1,0-0.1,0-0.2,0l-0.1,0c-0.1,0-0.3-0.2-0.3-0.3c0-0.2,0.1-0.4,0.3-0.5l0,0c0.1,0,0.2,0,0.3,0l0.1,0
		c1.1,0.3-0.3,4.5-4.4,4.8L42.8,51.1z"/>
	<path fill="#FD7813" d="M44.4,50.7C44.3,50.7,44.4,50.7,44.4,50.7c0.1,0.2,0.3,0.7,0.8,0.6c0.6-0.1,0.9-0.3,1.1-0.2
		C46.5,51.3,45.4,50,44.4,50.7z"/>
	<path fill="#FD7813" d="M47.5,46.6c0.1,0-1.3-1-1.4,0.6c0,0.1,0,0.1,0,0c0,0,0.1-0.1,0.2-0.1c0.4-0.1,0.4,0.2,0.9-0.4
		C47.3,46.7,47.6,46.7,47.5,46.6c-0.1,0-0.5,0-0.7,0c-0.2,0.1-0.2,0.1-0.4,0.3c0-0.1,0.1-0.3,0.4-0.4C47.1,46.6,47.3,46.6,47.5,46.6
		z"/>
	<path fill="#FD7813" d="M47.5,46.7c0,0,0.6-1.5-1-1c-0.1,0-0.1,0,0,0c0,0,0.1,0,0.2,0.1c0.2,0.3-0.1,0.5,0.7,0.7
		C47.4,46.5,47.4,46.7,47.5,46.7c0-0.1-0.2-0.4-0.3-0.6c-0.1-0.2-0.1-0.2-0.4-0.3c0.1,0,0.3,0,0.5,0.3
		C47.5,46.2,47.5,46.4,47.5,46.7z"/>
	<path fill="#FD7813" d="M47.7,46.7c0,0,1.5-0.5,0.9,1.2c0,0.1,0,0.1,0,0c0,0,0-0.2-0.1-0.2c-0.3-0.3-0.5,0-0.6-0.7
		C47.8,46.8,47.6,46.8,47.7,46.7c0.1,0.1,0.4,0.2,0.6,0.3c0.2,0.1,0.2,0.2,0.3,0.5c0-0.1,0-0.3-0.2-0.6
		C48.1,46.8,47.9,46.7,47.7,46.7z"/>
	<path fill="#FD7813" d="M47.6,46.6c0,0,1.2,1.5-0.7,1.1c-0.1,0-0.1,0,0,0c0,0,0.1,0,0.2-0.1c0.1-0.3-0.2-0.5,0.5-0.7
		C47.5,46.8,47.4,46.6,47.6,46.6c0,0.1,0,0.4,0,0.6c-0.1,0.2-0.1,0.2-0.4,0.3c0.1,0,0.3,0,0.5-0.3C47.7,47.1,47.6,46.9,47.6,46.6z"
		/>
	<path fill="#FD7813" d="M47.5,46.6c-0.1,0,0.1-1.4,1.3-0.4c0.1,0.1,0,0.1,0,0c0,0-0.2,0-0.2,0c-0.3,0.2-0.1,0.4-0.8,0.2
		C47.7,46.6,47.6,46.7,47.5,46.6c0.1-0.1,0.3-0.3,0.5-0.4c0.2-0.1,0.2-0.1,0.5-0.1c-0.1,0-0.3-0.1-0.6,0
		C47.8,46.3,47.7,46.5,47.5,46.6z"/>
	<path fill="#FD7813" d="M46.5,49.5C46.5,49.5,46.4,49.5,46.5,49.5c-0.1-0.1-0.4-0.3-0.2-0.5c0.2-0.3,0.3-0.4,0.3-0.6
		C46.6,48.2,47,49.1,46.5,49.5z"/>
	<path fill="#FD7813" d="M32.1,54.8c0,0.1-2.5-0.4-2.8-0.7c-0.4-0.4-0.7-0.4-0.5-2c0-0.4,0.1-0.3,0.1-0.3c0.1,0,0.2,0.7,0.4,0.7
		c0.2-0.1-0.2-1.2-0.2-1.7c0.1-0.9,1.1-0.9,1.1-0.9c0,0,0,0.5,0.1,0.5c0.1,0,0.4-0.2,0.4-0.5c0,0,0,0,0-0.1c0-0.4-0.2-0.6-0.2-0.6
		s0.5,0.3,0.7,0.7s-1,1.5-1.2,1.8c-0.8,1.4,0.6,2.7,1.5,2.5c0.1,0,0-0.1-0.1-0.2c-0.2-0.2-0.8-1.6,0.1-2.6c0.1-0.2,0.3,1.2,0.5-0.5
		c0-0.3,0.2-0.1,0.3,0c0.1,0.1,0.2,0.3,0.3,0.5c0,0.3,0.1,0.4,0,0.7c-0.1,0.2-0.1,0.2-0.1,0.2c0,0.1,0.3-0.2,0.4-0.3
		c0.1-0.2,0.2,0.4,0.1,0.6c-0.1,0.2-0.6,0.8-0.7,1C32,53.8,31.9,54.6,32.1,54.8C32.2,54.8,32.1,54.8,32.1,54.8z"/>
	<path fill="#FD7813" d="M34,55.1c-0.1,0.1,3.8,1.3,4.7,1.1c0.8-0.2,1.3-0.1,2.3-2.5c0.2-0.6,0.1-0.4,0-0.5
		c-0.2-0.1-0.9,0.9-1.1,0.7c-0.2-0.2,1.3-1.6,1.6-2.3c0.5-1.3-0.9-2.2-0.9-2.2c0,0-0.4,0.8-0.6,0.7c-0.2-0.1-0.4-0.6-0.2-1.1
		c0,0,0-0.1,0-0.1c0.2-0.5,0.8-0.7,0.8-0.7s-1,0.1-1.5,0.5c-0.5,0.4,0.3,3,0.3,3.5c0.1,2.7-2.9,3.5-4.1,2.5
		c-0.1-0.1,0.1-0.1,0.3-0.2c0.3-0.1,2.4-1.7,1.8-3.9c-0.1-0.3-1.3,1.5-0.4-1.1c0.2-0.4-0.2-0.3-0.4-0.3c-0.2,0.1-0.5,0.2-0.8,0.5
		c-0.3,0.4-0.5,0.6-0.5,1c0,0.3,0,0.4,0,0.5c-0.1,0.1-0.3-0.5-0.4-0.7c-0.1-0.3-0.5,0.5-0.6,0.8s0.3,1.7,0.3,2
		c0,0.4-0.5,1.6-0.8,1.6C33.9,55,34,55.1,34,55.1z"/>
	<path fill="#FD7813" d="M34.4,55.4c-0.1-0.3,0.1-1.2,0.3-1.5c0.2-0.4,0-0.9-0.4-1.1c-0.3-0.2-0.7,0-0.9,0.2
		c-0.2,0.2-0.1,0.7,0.2,0.9c0.2,0.1,0.5,0,0.6-0.2c0.1-0.2,0-0.5-0.2-0.6c-0.1,0-0.2,0-0.3,0.1c-0.1,0.1,0,0.2,0.1,0.3
		c-0.1-0.1-0.1-0.2-0.1-0.3c0-0.1,0.2-0.1,0.3-0.1c0.2,0.1,0.3,0.3,0.2,0.5c-0.1,0.2-0.3,0.3-0.5,0.2c-0.2-0.1-0.3-0.3-0.3-0.4
		c0-0.1,0-0.2,0.1-0.3c0.1-0.2,0.4-0.4,0.7-0.2c0.4,0.2,0.6,0.7,0.4,1c-0.2,0.3-0.4,1.2-0.4,1.5C34.2,55.4,34.4,55.4,34.4,55.4z"/>
	<circle fill="#FD7813" cx="33.9" cy="53.3" r="0.2"/>
	<path fill="#FD7813" d="M37.7,52c-0.1,0.1-0.1-0.1,0-0.2c0.2-0.7,0.4-1.9,1.8-3.7c1.7-2.2,2-2.8,2.3-4C42.5,41,41.1,49,37.7,52z"/>
	<path fill="#FD7813" d="M46.5,56.8C46.4,56.8,46.5,56.7,46.5,56.8c0.3-0.2,0.7-0.5,1.6-0.7c1.1-0.2,1.4-0.3,1.8-0.6
		C50.9,54.9,48.3,56.8,46.5,56.8z"/>
	<path fill="#FD7813" d="M39,56.2c-0.1,0.1,0.1,0,0.1,0c0.5-0.1,1.2-0.2,2.3-1c1.4-1,1.8-1.2,2.6-1.4C46.1,53.4,41,54.1,39,56.2z"/>
	<path fill="#FD7813" d="M40.6,42.9c0-0.1,0.1,0.1,0.1,0.1c0,0.5-1.3,1.7-1.5,2.5c-0.6,1.5-0.2,2,0,2.7c0,0.1,0,0.3,0,0.4
		c0.1,0.8,0.3,0.9,0.1,0.7c-0.3-0.4-0.9-2.3-0.6-4C38.8,44.4,40.2,43.7,40.6,42.9z"/>
	<path fill="#FD7813" d="M49.7,57.2C49.8,57.2,49.7,57.3,49.7,57.2c-0.4,0.2-1.5-0.4-2.1-0.4c-1.1-0.1-1.3,0.3-1.8,0.5
		c-0.1,0-0.2,0.1-0.3,0.1c-0.5,0.2-0.5,0.4-0.5,0.2c0.2-0.3,1.4-1.1,2.6-1.2C48.4,56.3,49.1,57.1,49.7,57.2z"/>
	<path fill="#FD7813" d="M38.8,46.2c-0.1,0.1-0.1-0.1,0-0.2c0.1-0.5,1.5-1.5,1.9-2.2c0.8-1.4,0.4-1.9,0.4-2.6c0-0.1,0.1-0.3,0.1-0.4
		c0-0.9-0.1-0.9,0-0.7c0.3,0.4,0.5,2.4,0,4.1C40.8,45,39.4,45.5,38.8,46.2z"/>
	<path fill="#FD7813" d="M40,56.3c-0.1,0,0-0.1,0-0.1c0.3-0.2,1.4-0.2,1.9-0.4c1-0.4,1-0.8,1.3-1.2c0.1-0.1,0.2-0.1,0.2-0.2
		c0.4-0.4,0.3-0.5,0.3-0.4c0,0.4-0.8,1.5-1.7,2.1C41.6,56.6,40.6,56.2,40,56.3z"/>
	<path fill="#FD7813" d="M42.7,45.5c0.1,0-0.2-2.4-2.1-0.8c-0.1,0.1-0.1,0.1,0,0.1c0,0,0.2,0,0.3,0c0.5,0.3,0.2,0.7,1.3,0.5
		C42.5,45.3,42.6,45.6,42.7,45.5c-0.1-0.1-0.5-0.5-0.7-0.7c-0.3-0.2-0.3-0.2-0.8-0.2c0.2,0,0.4-0.2,0.9,0.1
		C42.4,44.9,42.5,45.2,42.7,45.5z"/>
	<path fill="#FD7813" d="M42.7,45.5c0,0.1,2.2-0.9,0.1-2.2c-0.2-0.1-0.1,0-0.1,0c0,0,0.1,0.2,0.1,0.3c-0.1,0.6-0.6,0.4,0,1.4
		C42.8,45.2,42.5,45.5,42.7,45.5c0.1-0.2,0.3-0.6,0.4-0.9c0.1-0.3,0.1-0.3-0.1-0.8c0.1,0.1,0.3,0.3,0.2,0.9
		C43.1,45,42.9,45.2,42.7,45.5z"/>
	<path fill="#FD7813" d="M42.8,45.7c0-0.1,2.1,1.1-0.3,2.2c-0.2,0.1-0.1,0-0.1,0c0,0,0.1-0.2,0.1-0.3c0-0.6-0.5-0.5,0.2-1.4
		C42.8,46,42.7,45.7,42.8,45.7c0.1,0.2,0.2,0.6,0.2,0.9c0,0.3,0,0.3-0.3,0.8c0.1-0.1,0.4-0.3,0.4-0.8C43.2,46.2,43,46,42.8,45.7z"/>
	<path fill="#FD7813" d="M42.8,45.5c0.1,0-0.5,2.8-1.9,0.3c-0.1-0.2,0-0.1,0-0.1c0,0,0.2,0.1,0.3,0.1c0.5-0.2,0.3-0.8,1.2-0.2
		C42.5,45.7,42.7,45.3,42.8,45.5c-0.1,0.1-0.5,0.4-0.7,0.6c-0.3,0.1-0.3,0.1-0.7-0.1c0.1,0.1,0.4,0.4,0.8,0.2
		C42.4,46.1,42.5,45.8,42.8,45.5z"/>
	<path fill="#FD7813" d="M42.7,45.5c-0.1,0,1.6-1.4,1.8,1.1c0,0.2,0,0.1,0,0c0,0-0.1-0.2-0.2-0.2c-0.5-0.2-0.5,0.3-1.1-0.7
		C43,45.6,42.7,45.7,42.7,45.5c0.2,0,0.6,0.1,0.9,0.1c0.3,0.1,0.3,0.1,0.6,0.5c-0.1-0.1-0.2-0.5-0.6-0.6
		C43.3,45.4,43,45.5,42.7,45.5z"/>
	<path fill="#FD7813" d="M34.8,54.9c0,0,3-0.6,2.9-5.8c0-5,5-7.1,5.3-5.7c0,0,0,0.1,0,0.1l0,0c0,0.3-0.3,0.4-0.6,0.4
		c-0.2,0-0.4-0.2-0.4-0.3c0,0,0,0,0,0c0-0.1,0.1-0.2,0.3-0.2c0.1,0,0.2,0.1,0.2,0.2l0,0.1v-0.1l0-0.2c0-0.1-0.1-0.2-0.2-0.2
		c-0.1,0-0.3,0.1-0.3,0.2c0,0,0,0.1,0,0.1l0,0.2c0,0.2,0.2,0.4,0.4,0.4c0.3,0,0.5-0.1,0.6-0.4l0,0c0-0.1,0-0.1,0-0.2l0-0.2
		c-0.2-1.5-5.4,0.5-5.4,5.6c0,5.3-2.9,5.8-2.9,5.8L34.8,54.9z"/>
	<path fill="#FD7813" d="M37.6,50.4c2.2-3.5-0.3-7.1-1.2-6.6c0,0-0.1,0.1-0.1,0.2l0,0c-0.1,0.2,0,0.5,0.2,0.5c0.1,0.1,0.3,0,0.4,0
		c0,0,0.1-0.1,0.1-0.1c0-0.1,0-0.2-0.1-0.3c0,0-0.1,0-0.1,0c0,0,0,0,0,0l-0.1,0.1c0,0,0-0.1,0.1-0.1l0.1-0.1c0.1,0,0.1-0.1,0.2,0
		c0.1,0,0.2,0.2,0.1,0.3c0,0.1-0.1,0.1-0.1,0.2l-0.1,0.1c-0.1,0.1-0.3,0.1-0.4,0c-0.2-0.1-0.3-0.3-0.2-0.5l0,0
		c0-0.1,0.1-0.2,0.2-0.2l0.1-0.1c0.9-0.7,3.5,3,1.3,6.5L37.6,50.4z"/>
	<path fill="#FD7813" d="M51.9,57.8c2-2.4,5.1-1.5,5-0.7c0,0-0.1,0.1-0.1,0.1l0,0c-0.1,0.1-0.3,0.1-0.4,0c-0.1-0.1-0.1-0.2-0.1-0.3
		c0,0,0-0.1,0.1-0.1c0.1-0.1,0.2-0.1,0.2,0c0,0,0,0.1,0,0.1c0,0,0,0,0,0l0,0.1c0,0,0,0,0-0.1l0-0.1c0-0.1,0-0.1,0-0.2
		c-0.1-0.1-0.2-0.1-0.2,0c0,0-0.1,0.1-0.1,0.1l0,0.1c0,0.1,0,0.2,0.1,0.3c0.1,0.1,0.3,0.1,0.4,0l0,0c0.1-0.1,0.1-0.1,0.1-0.2l0-0.1
		c0.3-0.8-3-1.8-5,0.7L51.9,57.8z"/>
	<path fill="#FD7813" d="M34.7,54.8c0.3,0,0.5,0,0.7-0.1c1.3-0.5,1.7-2.1,2.8-2.4l0.3-0.1c0.2-0.1,0.4-0.1,0.6-0.1
		c0.3,0,0.6,0,0.9-0.1c2.3-0.9,3-4.8,1.3-4.7c-0.3,0.1-0.4,0.5-0.4,0.8c0,0.4,0.4,0.8,0.8,0.7l-0.3,0.1c-0.4,0-0.8-0.3-0.8-0.7
		c0-0.4,0.2-0.7,0.5-0.9l0.3-0.1l0.1,0l0,0c1.8-0.1,1.1,4-1.4,4.8l-0.3,0.1c-0.3,0.1-0.7,0.1-1,0.1c-0.2,0-0.3,0-0.5,0
		c-1,0.4-1.4,2-2.8,2.4l-0.3,0.1c-0.3,0.1-0.5,0.1-0.9,0.1L34.7,54.8z"/>
	<path fill="#FD7813" d="M31.8,54.4c-0.1,0-0.1-0.1-0.2-0.1c-0.1-0.1-0.1,0,0,0C31.6,54.3,31.7,54.4,31.8,54.4
		c0.3,0.2,0.5,0.4,0.9,0.5c0.1,0,1.1,0.3,1.6-0.4c0.1-0.1-0.7,0,0.2-0.4c0.2-0.1,0.1-0.1,0-0.2c-0.1-0.1-0.2-0.1-0.3-0.1
		c-0.2,0-0.3,0-0.4,0.1C33.6,54,33.5,54,33.5,54c-0.1,0,0.1-0.2,0.1-0.3c0.1-0.1-0.3,0-0.4,0c-0.1,0.1-0.4,0.5-0.5,0.6
		c-0.1,0.1-0.6,0.3-0.7,0.2C32,54.5,31.9,54.5,31.8,54.4z"/>
	<path fill="#FD7813" d="M33.6,45.1c0.3-0.4,0.5-0.7,0.5-1.2c0-0.6-0.5-1.1-1.2-1.2c-0.6,0-1.1,0.4-1.4,0.9
		c-0.4,0.7-0.4,1.5,0.1,2.1c0.7,0.8,1.9,0.8,2.7,0.1c0.8-0.7,1.3-1.7,1-2.7c-0.2-0.8-0.8-1.4-1.6-1.6c-2-0.5-3.8,1.5-3.7,3.4
		c0,0.6,0.2,1.2,0.6,1.7l1.4,2c0.5,0.9,0.7,1.9,0.8,2.9c0,0.6,0,1.2-0.3,1.8c-0.1,0.2-0.3,0.4-0.5,0.6l0,0c0.2-0.2,0.4-0.4,0.5-0.6
		c0.3-0.5,0.4-1.2,0.4-1.8c0-0.7-0.1-1.4-0.4-2c-0.3-0.8-0.7-1.4-1.1-2.1l-0.9-1.3c-0.8-1.6,0.6-3.9,2.3-4.1
		c0.6-0.1,1.3,0.1,1.7,0.7c0.6,0.8,0.3,1.8-0.3,2.5c-0.4,0.4-0.9,0.7-1.5,0.5c-0.6-0.2-0.8-0.8-0.6-1.3c0.1-0.2,0.3-0.5,0.6-0.6
		c0.1,0,0.3,0,0.2,0.1c0,0.1-0.1,0.1-0.2,0.1c-0.3,0.2-0.4,0.7-0.1,1C32.9,45.3,33.3,45.4,33.6,45.1z"/>
	<path fill="#FD7813" d="M30.8,41.3c0-0.1-0.1-0.2,0-0.4c0.1-0.3,0.3-0.6,0.6-0.6c0.3,0,0.5,0.2,0.6,0.5c0.1,0.2,0.1,0.5-0.1,0.7
		c-0.1,0.2-0.3,0.2-0.4,0.4c-0.2,0.2-0.4,0.5-0.5,0.8c0,0.2,0,0.4,0,0.5l0,0c0-0.2,0-0.4,0-0.6c0-0.3,0.2-0.6,0.4-0.9
		c0.1-0.1,0.3-0.2,0.4-0.4c0-0.2,0-0.4-0.2-0.5c0,0-0.1,0-0.1,0l0,0l0,0l0,0l0,0l0,0l0,0c0,0,0,0,0,0l0-0.1c0.1,0.2,0.1,0.4-0.1,0.6
		C31.1,41.6,30.9,41.5,30.8,41.3z"/>
	<path fill="#FD7813" d="M43.7,55.8c0.2,0.1,0.4,0.3,0.6,0.2c0.3,0,0.5-0.3,0.5-0.6c0-0.4-0.4-0.7-0.7-0.9c-0.5-0.2-1.1-0.2-1.6,0.2
		c-0.6,0.6-0.5,1.6,0.1,2.1c0.6,0.6,1.6,0.9,2.4,0.5c0.7-0.3,1.1-0.9,1.2-1.6c0.2-1.8-1.8-3.1-3.4-2.8c-0.6,0.1-1,0.4-1.4,0.7
		l-1.4,1.4c-0.6,0.5-1.4,0.9-2.2,1.1c-0.5,0.1-1,0.2-1.5,0c-0.2-0.1-0.4-0.2-0.6-0.3l0,0c0.2,0.1,0.3,0.3,0.5,0.4
		c0.5,0.2,1,0.2,1.5,0.1c0.6-0.1,1.1-0.3,1.7-0.5c0.6-0.3,1.2-0.7,1.7-1.2c0.3-0.3,0.6-0.7,0.9-0.9c1.2-0.8,3,0,3.4,1.3
		c0.1,0.5,0.1,1-0.3,1.4c-0.8,0.8-2.3,0.4-2.7-0.6c-0.1-0.3-0.1-0.7,0.1-0.9c0.3-0.3,0.8-0.4,1.2-0.3c0.3,0.1,0.8,0.4,0.7,0.9
		c-0.1,0.2-0.3,0.4-0.5,0.4C44,56,43.9,55.9,43.7,55.8z"/>
	<path fill="#FD7813" d="M47.1,53.7c0,0,0.1,0,0.1,0c0,0.1-0.1,0.2-0.1,0.2c-0.1,0-0.1,0-0.2-0.1c-0.1-0.1,0-0.2,0-0.2
		c0.2-0.2,0.4-0.2,0.7-0.1c0.2,0.1,0.4,0.3,0.4,0.5c0,0.3-0.3,0.5-0.5,0.7c-0.4,0.2-0.8,0.1-1.2-0.1c-0.1-0.1-0.2-0.1-0.3-0.2
		l-0.8-0.7l0,0c0.4,0.6,0.7,1.4,1.4,1.6c0.8,0.3,1.8-0.2,2-1.1c0.1-0.5-0.3-1-0.7-1.2c-0.3-0.1-0.5-0.2-0.8-0.1
		c-0.3,0.1-0.7,0.7-0.4,1c0.1,0.2,0.5,0.3,0.6,0.1C47.3,54,47.4,53.7,47.1,53.7C47.2,53.7,47.1,53.7,47.1,53.7z"/>
	<path fill="#E20A16" d="M45.3,52.5C45.3,52.5,45.3,52.5,45.3,52.5c-0.2,0.1-0.2,0.3-0.1,0.5c0.2,0.3,0.7,0.3,0.8-0.1
		c0-0.3-0.1-0.5-0.4-0.5c-0.2-0.1-0.5,0-0.6,0.2l-0.2,0.3l-0.3,0.3l0,0l0.3-0.2C44.9,52.8,45,52.6,45.3,52.5z M45.5,52.9
		C45.5,52.9,45.5,52.9,45.5,52.9C45.5,52.9,45.5,52.9,45.5,52.9C45.5,52.9,45.5,52.9,45.5,52.9z"/>
	<path fill="#E20A16" d="M44.1,52.3L44.1,52.3L44.1,52.3L44.1,52.3L44.1,52.3z M43.7,52.3c-0.1-0.1-0.1-0.2-0.1-0.3
		c0-0.2,0.3-0.3,0.4-0.3c0.3,0,0.6,0.2,0.7,0.4c0.1,0.2,0.2,0.4,0.1,0.6c-0.1,0.3-0.4,0.5-0.8,0.5c-0.1,0-0.2,0-0.3,0l0.1,0.1
		c0.3,0,0.5,0,0.7-0.1c0.2-0.1,0.4-0.3,0.4-0.6c0-0.2-0.1-0.5-0.2-0.7c-0.2-0.3-0.5-0.5-0.9-0.4c-0.2,0-0.6,0.3-0.6,0.5
		c0,0.3,0.2,0.6,0.4,0.7c0.2,0.1,0.4,0,0.6-0.1c0.1-0.1,0.2-0.3,0.1-0.4c-0.1-0.3-0.4-0.4-0.6-0.2C43.8,52.1,43.7,52.1,43.7,52.3z
		 M43.7,53.2C43.7,53.2,43.7,53.2,43.7,53.2l-0.2-0.1L43.7,53.2z M43.5,53.1L43.5,53.1L43.5,53.1L43.5,53.1z"/>
	<path fill-rule="evenodd" clip-rule="evenodd" d="M5.4,23.6L6,23.6l0.5-0.8c0.6,0.8,1.3,1.3,2.3,1.5c1.6,0.3,2.9-0.5,3.2-1.8
		c0.2-1.3-0.5-2-2.2-2.7l-1-0.4c-1-0.4-1.4-0.8-1.3-1.5c0.1-0.8,0.9-1.1,2-1c1.4,0.2,2.1,1.2,2,2.8l0.6,0.1l0.5-2.8L11.9,17
		l-0.4,0.6c-0.6-0.7-1.2-1.1-2.1-1.2c-1.7-0.3-2.8,0.4-3,1.6c-0.2,1.4,0.5,1.9,2.1,2.6l0.9,0.4c1.1,0.5,1.6,0.9,1.5,1.7
		c-0.1,0.8-0.9,1.3-2,1.1c-1.5-0.3-2.4-1.4-2.3-3.1l-0.6-0.1L5.4,23.6z"/>
	<path fill-rule="evenodd" clip-rule="evenodd" d="M14.9,22.1l1.7-3l0.6,3.4L14.9,22.1z M11.7,24.7l3.2,0.6l0.1-0.6l-0.6-0.1
		c-0.5-0.1-0.7-0.2-0.7-0.4c0-0.1,0.1-0.3,0.3-0.5l0.6-1l2.8,0.5l0.2,1.4c0,0.2,0,0.3,0,0.3c-0.1,0.3-0.2,0.3-0.7,0.2l-0.6-0.1
		l-0.1,0.6l3.5,0.6l0.1-0.6l-0.3-0.1c-0.6-0.1-0.7-0.3-0.8-0.8L17.5,18l-0.9-0.2l-3.5,5.8c-0.3,0.5-0.5,0.6-1,0.5l-0.4-0.1
		L11.7,24.7z"/>
	<path fill-rule="evenodd" clip-rule="evenodd" d="M20,26.1l6,1.1l0.6-3.2L26,23.9c-0.2,0.9-0.4,1.5-0.6,1.9
		c-0.3,0.4-0.9,0.5-1.8,0.4l-2.1-0.4l5.8-5.4l0.1-0.6l-5.8-1L21,21.7l0.6,0.1c0.4-1.8,0.8-2.3,2.3-2l2.1,0.4l-5.9,5.4L20,26.1z"/>
	<path fill-rule="evenodd" clip-rule="evenodd" d="M28.8,23.8c0.4-2.1,1.7-3.1,3.4-2.8s2.6,1.7,2.2,3.8s-1.7,3.1-3.4,2.8
		C29.4,27.4,28.4,25.9,28.8,23.8z M27.6,23.6c-0.2,1.2,0,2.3,0.7,3.1c0.6,0.8,1.5,1.3,2.6,1.5c1.1,0.2,2.1,0,2.9-0.5
		c0.9-0.6,1.5-1.5,1.7-2.7c0.2-1.2,0-2.2-0.7-3.1c-0.6-0.8-1.5-1.3-2.6-1.5c-1.1-0.2-2.1,0-2.9,0.5C28.4,21.5,27.8,22.5,27.6,23.6z"
		/>
	<path fill-rule="evenodd" clip-rule="evenodd" d="M43.1,30.2l1.1-6c0.1-0.6,0.2-0.8,0.9-0.7l0.4,0.1l0.1-0.6l-3.3-0.6L42.2,23
		l0.6,0.1c0.7,0.1,0.8,0.3,0.6,1l-0.8,4.6l-3.2-6.7L37,21.5l-0.1,0.6l0.4,0.1c0.7,0.1,0.8,0.3,0.6,1l-0.8,4.6
		c-0.1,0.6-0.2,0.8-0.9,0.7l-0.4-0.1l-0.1,0.6l3.3,0.6l0.1-0.6l-0.6-0.1c-0.7-0.1-0.8-0.3-0.6-1l0.9-5l3.4,7.2L43.1,30.2z"/>
	<path fill-rule="evenodd" clip-rule="evenodd" d="M47.6,27.8l1.7-3l0.6,3.4L47.6,27.8z M44.3,30.4l3.2,0.6l0.1-0.6l-0.6-0.1
		c-0.5-0.1-0.7-0.2-0.7-0.4c0-0.1,0.1-0.3,0.3-0.5l0.6-1l2.8,0.5l0.2,1.4c0,0.2,0,0.3,0,0.3c-0.1,0.3-0.2,0.3-0.7,0.2l-0.6-0.1
		L49,31.2l3.5,0.6l0.1-0.6l-0.3-0.1c-0.6-0.1-0.7-0.3-0.8-0.8l-1.3-6.6l-0.9-0.2l-3.5,5.8c-0.3,0.5-0.5,0.6-1,0.5l-0.4-0.1
		L44.3,30.4z"/>
	<path fill-rule="evenodd" clip-rule="evenodd" d="M52.7,31.9l3.7,0.6l0.1-0.6l-0.5-0.1c-0.7-0.1-0.8-0.3-0.6-1l0.8-4.6
		c0.1-0.6,0.2-0.8,0.9-0.7l0.5,0.1l0.1-0.6L54,24.5l-0.1,0.6l0.5,0.1c0.7,0.1,0.8,0.3,0.6,0.9l-0.8,4.6c-0.1,0.6-0.2,0.8-0.9,0.7
		l-0.5-0.1L52.7,31.9z"/>
	<path fill-rule="evenodd" clip-rule="evenodd" d="M57.1,32.7l0.6,0.1l0.5-0.8c0.6,0.8,1.3,1.3,2.3,1.5c1.6,0.3,2.9-0.5,3.2-1.8
		c0.2-1.3-0.5-2-2.2-2.7l-1-0.4c-1-0.4-1.4-0.8-1.3-1.5c0.1-0.8,0.9-1.1,2-1c1.4,0.2,2.1,1.2,2,2.8l0.6,0.1l0.5-2.8l-0.5-0.1
		l-0.4,0.6c-0.6-0.7-1.2-1.1-2.1-1.2c-1.7-0.3-2.8,0.4-3,1.6c-0.2,1.4,0.5,1.9,2.1,2.6l0.9,0.4c1.1,0.5,1.6,0.9,1.5,1.7
		c-0.1,0.8-0.9,1.3-2,1.1c-1.5-0.3-2.4-1.4-2.3-3.1l-0.6-0.1L57.1,32.7z"/>
	<path fill-rule="evenodd" clip-rule="evenodd" fill="#FFFFFF" d="M9.8,8.2c0.3-1.9,1.4-2.9,2.9-2.6C14.2,5.8,14.9,7,14.5,9
		c-0.3,1.9-1.4,2.9-2.9,2.6C10.2,11.4,9.5,10.1,9.8,8.2z M8.1,7.9c-0.4,2.3,0.9,4.2,3.4,4.6c2.5,0.4,4.4-0.9,4.8-3.2
		c0.4-2.3-0.9-4.2-3.4-4.6C10.4,4.2,8.5,5.5,8.1,7.9z"/>
	<path fill-rule="evenodd" clip-rule="evenodd" fill="#FFFFFF" d="M16.3,13.1l4,0.7l0.1-0.8l-0.5-0.1c-0.6-0.1-0.7-0.2-0.6-0.8
		l0.3-1.9l0.2,0c0.9,0.2,1.1,0.4,0.9,1.7l0.8,0.1l0.7-3.7l-0.8-0.1c-0.3,1.1-0.5,1.3-1.4,1.1l-0.2,0L20.1,7l1.4,0.2
		c0.9,0.2,1.4,0.4,1.5,0.8c0.2,0.4,0.1,1,0,1.7l0.9,0.2l0.5-3.1l-6.9-1.2l-0.1,0.8l0.4,0.1c0.6,0.1,0.7,0.2,0.6,0.8l-0.8,4.4
		c-0.1,0.6-0.2,0.7-0.9,0.6l-0.4-0.1L16.3,13.1z"/>
	<path fill-rule="evenodd" clip-rule="evenodd" fill="#FFFFFF" d="M23.9,14.5l4,0.7l0.1-0.8l-0.5-0.1c-0.6-0.1-0.7-0.2-0.6-0.8
		l0.8-4.4c0.1-0.6,0.2-0.7,0.9-0.6l0.5,0.1l0.1-0.8l-4-0.7l-0.1,0.8L25.6,8c0.6,0.1,0.7,0.2,0.6,0.8l-0.8,4.4
		c-0.1,0.6-0.2,0.7-0.9,0.6l-0.5-0.1L23.9,14.5z"/>
	<path fill-rule="evenodd" clip-rule="evenodd" fill="#FFFFFF" d="M35.1,13.5c-0.4,1.3-1.3,1.9-2.4,1.7c-1.4-0.2-2-1.4-1.7-3.3
		c0.3-2,1.4-2.9,2.7-2.7c1.1,0.2,1.8,1.1,1.7,2.6l0.9,0.2l0.5-3L36,8.8l-0.3,0.6c-0.6-0.6-1.2-1-2-1.1c-1-0.2-1.9,0-2.8,0.6
		c-0.9,0.6-1.5,1.5-1.7,2.7c-0.2,1.1,0,2.2,0.6,3.1c0.6,0.8,1.4,1.3,2.5,1.5c1.8,0.3,3.1-0.6,3.6-2.6L35.1,13.5z"/>
	<path fill-rule="evenodd" clip-rule="evenodd" fill="#FFFFFF" d="M36.3,16.7l4,0.7l0.1-0.8L40,16.4c-0.6-0.1-0.7-0.2-0.6-0.8
		l0.8-4.4c0.1-0.6,0.2-0.7,0.9-0.6l0.5,0.1l0.1-0.8l-4-0.7l-0.1,0.8l0.5,0.1c0.6,0.1,0.7,0.2,0.6,0.8l-0.8,4.4
		C37.7,16,37.6,16,37,15.9l-0.5-0.1L36.3,16.7z"/>
	<path fill-rule="evenodd" clip-rule="evenodd" fill="#FFFFFF" d="M48.4,18.8l1-5.9c0.1-0.6,0.2-0.7,0.9-0.6l0.4,0.1l0.1-0.8
		l-3.5-0.6l-0.1,0.8l0.5,0.1c0.6,0.1,0.7,0.2,0.6,0.8l-0.7,3.9l-2.3-6L42.1,10l-0.1,0.8l0.5,0.1c0.6,0.1,0.7,0.2,0.6,0.8l-0.8,4.4
		c-0.1,0.6-0.2,0.7-0.9,0.6l-0.5-0.1l-0.1,0.8l3.7,0.6l0.1-0.8L44,17.2c-0.6-0.1-0.7-0.2-0.6-0.8l0.8-4.5l2.6,6.7L48.4,18.8z"/>
	<path fill-rule="evenodd" clip-rule="evenodd" fill="#FFFFFF" d="M54.9,16.6l-1.8-0.3l1.3-2.4L54.9,16.6z M49.5,19l3.4,0.6l0.1-0.8
		l-0.6-0.1c-0.4-0.1-0.6-0.1-0.6-0.4c0-0.1,0.1-0.2,0.1-0.3l0.5-0.9l2.4,0.4l0.2,0.9c0,0.2,0.1,0.3,0,0.4c0,0.2-0.2,0.3-0.7,0.2
		L54,18.9l-0.1,0.8l3.8,0.7l0.1-0.8l-0.2,0c-0.6-0.1-0.7-0.3-0.8-0.9l-1.2-6.2l-1.6-0.3L51,17.6c-0.3,0.5-0.5,0.6-1.1,0.5l-0.2,0
		L49.5,19z"/>
	<path fill-rule="evenodd" clip-rule="evenodd" fill="#FFFFFF" d="M58.1,20.5l0.8,0.1l0.4-0.7c0.7,0.8,1.5,1.2,2.3,1.4
		c1.7,0.3,2.9-0.5,3.2-1.9c0.2-1.2-0.4-2.1-2-2.7l-1.4-0.6c-0.7-0.3-1-0.6-0.9-1.2c0.1-0.6,0.7-0.9,1.6-0.7c1.2,0.2,1.9,1.1,1.9,2.5
		l0.8,0.1l0.5-2.8L64.6,14l-0.5,0.5c-0.6-0.6-1.2-1-2-1.1c-1.6-0.3-2.8,0.5-3.1,1.8c-0.2,1.2,0.5,1.9,2,2.6l1.2,0.5
		c0.8,0.4,1.2,0.8,1.1,1.3c-0.1,0.6-0.7,0.9-1.7,0.7c-1.4-0.2-2.1-1.2-2.1-2.7l-0.9-0.2L58.1,20.5z"/>
</g>
</svg>
