<!-- Generator: Adobe Illustrator 19.1.0, SVG Export Plug-In  -->
<svg version="1.1"
	 xmlns="http://www.w3.org/2000/svg" xmlns:xlink="http://www.w3.org/1999/xlink" xmlns:a="http://ns.adobe.com/AdobeSVGViewerExtensions/3.0/"
	 x="0px" y="0px" width="108.8px" height="32.6px" viewBox="0 0 108.8 32.6" style="enable-background:new 0 0 108.8 32.6;"
	 xml:space="preserve">
<style type="text/css">
	.st0{fill-rule:evenodd;clip-rule:evenodd;fill:#010101;}
</style>
<defs>
</defs>
<g>
	<path class="st0" d="M53.3,30.8c-0.1,0.5-0.4,0.9-1,1.2c-0.5,0.3-1.1,0.5-1.6,0.5h-5.4c-0.6,0-1-0.2-1.4-0.5s-0.5-0.7-0.3-1.2
		l0.9-3.4h3.2l-0.9,3.4c-0.1,0.2,0,0.4,0.2,0.6c0.2,0.2,0.4,0.3,0.7,0.3h1.1c0.3,0,0.6-0.1,0.8-0.3c0.3-0.2,0.4-0.4,0.5-0.6l0.9-3.4
		h3.2L53.3,30.8z"/>
	<path class="st0" d="M64.2,31.3c-0.1,0.4-0.4,0.8-1,1c-0.4,0.2-0.9,0.3-1.5,0.3h-7.5l0.2-0.8h5.9c0.1,0,0.3,0,0.4-0.1
		c0.1-0.1,0.2-0.2,0.2-0.3c0.1-0.2-0.5-0.4-1.5-0.6c-0.8-0.1-1.4-0.2-1.9-0.3c-0.5-0.1-0.8-0.2-1.1-0.3c-1-0.3-1.5-0.8-1.3-1.4
		c0.1-0.4,0.4-0.8,1-1c0.4-0.2,1-0.3,1.5-0.3h7.5L65,28.3h-5.9c-0.1,0-0.3,0-0.4,0.1c-0.1,0.1-0.2,0.2-0.2,0.3
		c-0.1,0.2,0.4,0.4,1.5,0.6c0.8,0.1,1.4,0.2,1.9,0.3s0.8,0.2,1.1,0.3C63.9,30.2,64.3,30.7,64.2,31.3z"/>
	<path class="st0" d="M75.2,30.8c-0.1,0.5-0.4,0.9-1,1.2s-1.1,0.5-1.6,0.5h-5.3c-0.6,0-1-0.2-1.4-0.5c-0.3-0.3-0.5-0.7-0.3-1.2
		c0.1-0.4,0.4-0.8,1-1.2c0.5-0.4,1.1-0.5,1.6-0.5h4.3c0-0.2,0-0.4-0.2-0.6c-0.2-0.2-0.4-0.3-0.7-0.3h-4.3l0.2-0.9h6.4
		c0.6,0,1,0.2,1.4,0.5c0.3,0.3,0.5,0.7,0.3,1.2L75.2,30.8z M72.2,30H70c-0.1,0-0.3,0-0.4,0.1s-0.3,0.1-0.4,0.2
		c-0.1,0.1-0.2,0.2-0.3,0.3c-0.1,0.1-0.1,0.2-0.2,0.3c-0.1,0.2,0,0.4,0.2,0.6c0.2,0.2,0.4,0.3,0.7,0.3h1.1c0.3,0,0.6-0.1,0.8-0.3
		c0.3-0.2,0.4-0.4,0.5-0.6L72.2,30z"/>
	<path class="st0" d="M77.9,32.6c-0.6,0-1-0.2-1.4-0.5c-0.3-0.3-0.5-0.7-0.3-1.2l0.5-1.7c0.1-0.4,0.4-0.8,1-1.2
		c0.5-0.4,1.1-0.5,1.6-0.5h4.3l0.5-1.7h3.2l-1.8,6.8H77.9z M83.3,28.3h-2.2c-0.1,0-0.3,0-0.4,0.1c-0.1,0-0.3,0.1-0.4,0.2
		c-0.1,0.1-0.2,0.2-0.3,0.3c-0.1,0.1-0.1,0.2-0.2,0.3l-0.5,1.7c-0.1,0.2,0,0.4,0.2,0.6c0.2,0.2,0.4,0.3,0.7,0.3h2.2L83.3,28.3z"/>
	<path class="st0" d="M96.9,30.8c-0.1,0.5-0.4,0.9-1,1.2c-0.5,0.3-1.1,0.5-1.6,0.5h-5.4c-0.6,0-1-0.2-1.4-0.5s-0.5-0.7-0.3-1.2
		l0.5-1.7c0.1-0.4,0.4-0.8,1-1.2c0.5-0.4,1.1-0.5,1.6-0.5h5.3c0.6,0,1,0.2,1.4,0.5c0.3,0.3,0.5,0.7,0.3,1.2L96.9,30.8z M94.1,29.1
		c0-0.1,0-0.2,0-0.3c0-0.1-0.1-0.2-0.2-0.3c-0.1-0.1-0.2-0.1-0.3-0.2c-0.1,0-0.2-0.1-0.4-0.1h-1.1c-0.1,0-0.3,0-0.4,0.1
		c-0.1,0-0.3,0.1-0.4,0.2s-0.2,0.2-0.3,0.3c-0.1,0.1-0.1,0.2-0.2,0.3l-0.5,1.7c-0.1,0.2,0,0.4,0.2,0.6c0.2,0.2,0.4,0.3,0.7,0.3h1.1
		c0.3,0,0.6-0.1,0.8-0.3c0.3-0.2,0.4-0.4,0.5-0.6L94.1,29.1z"/>
	<path class="st0" d="M107.7,31.3c-0.1,0.4-0.4,0.8-1,1c-0.4,0.2-0.9,0.3-1.5,0.3h-7.5l0.2-0.8h5.9c0.1,0,0.3,0,0.4-0.1
		c0.1-0.1,0.2-0.2,0.2-0.3c0.1-0.2-0.5-0.4-1.5-0.6c-0.8-0.1-1.4-0.2-1.9-0.3c-0.5-0.1-0.8-0.2-1.1-0.3c-1-0.3-1.5-0.8-1.3-1.4
		c0.1-0.4,0.4-0.8,1-1c0.4-0.2,1-0.3,1.5-0.3h7.5l-0.2,0.9h-5.9c-0.1,0-0.3,0-0.4,0.1c-0.1,0.1-0.2,0.2-0.2,0.3
		c-0.1,0.2,0.4,0.4,1.5,0.6c0.8,0.1,1.4,0.2,1.9,0.3s0.8,0.2,1.1,0.3C107.5,30.2,107.9,30.7,107.7,31.3z"/>
	<path class="st0" d="M9.7,18.8c-0.1,0.5-0.4,0.9-1,1.2s-1.1,0.5-1.6,0.5H1.7c-0.6,0-1-0.2-1.4-0.5C0,19.7-0.1,19.3,0,18.8
		c0.1-0.4,0.4-0.8,1-1.2c0.5-0.4,1.1-0.5,1.6-0.5H7c0-0.2,0-0.4-0.2-0.6c-0.2-0.2-0.4-0.3-0.7-0.3H1.8l0.2-0.9h6.4
		c0.6,0,1,0.2,1.4,0.5c0.3,0.3,0.5,0.7,0.3,1.2L9.7,18.8z M6.7,18H4.6c-0.1,0-0.3,0-0.4,0.1s-0.3,0.1-0.4,0.2
		c-0.1,0.1-0.2,0.2-0.3,0.3c-0.1,0.1-0.1,0.2-0.2,0.3c-0.1,0.2,0,0.4,0.2,0.6c0.2,0.2,0.4,0.3,0.7,0.3h1.1c0.3,0,0.6-0.1,0.8-0.3
		c0.3-0.2,0.4-0.4,0.5-0.6L6.7,18z"/>
	<polygon class="st0" points="10.6,20.6 12.5,13.7 15.7,13.7 13.8,20.6 	"/>
	<path class="st0" d="M20.4,13.3c-0.1,0.3-0.3,0.6-0.7,0.9c-0.4,0.3-0.8,0.4-1.2,0.4c-0.4,0-0.8-0.1-1-0.4c-0.3-0.3-0.3-0.6-0.3-0.9
		c0.1-0.3,0.3-0.6,0.7-0.9c0.4-0.3,0.8-0.4,1.2-0.4c0.4,0,0.7,0.1,1,0.4C20.4,12.7,20.5,12.9,20.4,13.3z M15.2,20.6l1.4-5.2h3.2
		l-1.4,5.2H15.2z"/>
	<path class="st0" d="M31.6,20.6l0.9-3.4c0-0.1,0-0.2,0-0.3c0-0.1-0.1-0.2-0.2-0.3s-0.2-0.1-0.3-0.2c-0.1,0-0.2-0.1-0.4-0.1h-0.5
		c-0.1,0-0.3,0-0.4,0.1c-0.1,0-0.3,0.1-0.4,0.2s-0.2,0.2-0.3,0.3c-0.1,0.1-0.1,0.2-0.2,0.3l-0.9,3.4h-3.2l0.9-3.4
		c0.1-0.2,0-0.4-0.2-0.6c-0.2-0.2-0.4-0.3-0.7-0.3h-0.5c-0.1,0-0.3,0-0.4,0.1c-0.1,0-0.3,0.1-0.4,0.2s-0.2,0.2-0.3,0.3
		C24,16.9,24,17,24,17.1L23,20.6h-3.2l0.9-3.4c0.1-0.4,0.4-0.8,1-1.2c0.5-0.4,1.1-0.5,1.6-0.5h10.7c0.6,0,1,0.2,1.3,0.5
		c0.3,0.4,0.4,0.7,0.3,1.2l-0.9,3.4H31.6z"/>
	<path class="st0" d="M39.9,18.8c0,0.2,0,0.4,0.2,0.6c0.2,0.2,0.4,0.3,0.7,0.3H45l-0.2,0.8h-6.4c-0.6,0-1-0.2-1.4-0.5
		s-0.5-0.7-0.3-1.2l0.5-1.7c0.1-0.4,0.4-0.8,1-1.2c0.5-0.4,1.1-0.5,1.6-0.5h5.3c0.6,0,1,0.2,1.4,0.5c0.3,0.3,0.5,0.7,0.3,1.2
		l-0.5,1.7H39.9z M43.5,17.1c0-0.1,0-0.2,0-0.3c0-0.1-0.1-0.2-0.2-0.3c-0.1-0.1-0.2-0.1-0.3-0.2c-0.1,0-0.2-0.1-0.4-0.1h-1.1
		c-0.1,0-0.3,0-0.4,0.1c-0.1,0-0.3,0.1-0.4,0.2s-0.2,0.2-0.3,0.3c-0.1,0.1-0.1,0.2-0.2,0.3L40.1,18h3.2L43.5,17.1z"/>
	<path class="st0" d="M53.6,20.6l0.9-3.4c0-0.1,0-0.2,0-0.3c0-0.1-0.1-0.2-0.2-0.3c-0.1-0.1-0.2-0.1-0.3-0.2c-0.1,0-0.2-0.1-0.4-0.1
		h-2.2l-1.1,4.3h-3.2l1.4-5.2H56c0.6,0,1,0.2,1.4,0.5c0.3,0.4,0.4,0.8,0.3,1.2l-0.9,3.4H53.6z"/>
	<path class="st0" d="M60.3,20.6c-0.6,0-1-0.2-1.4-0.5s-0.5-0.7-0.3-1.2l1.4-5.1h3.2l-0.5,1.7H66l-0.2,0.9h-3.2l-0.7,2.6
		c-0.1,0.2,0,0.4,0.2,0.6c0.2,0.2,0.4,0.3,0.7,0.3h3.2l-0.2,0.8H60.3z"/>
	<path class="st0" d="M76.5,18.8c-0.1,0.5-0.4,0.9-1,1.2s-1.1,0.5-1.6,0.5h-5.3c-0.6,0-1-0.2-1.4-0.5c-0.3-0.3-0.5-0.7-0.3-1.2
		c0.1-0.4,0.4-0.8,1-1.2c0.5-0.4,1.1-0.5,1.6-0.5h4.3c0-0.2,0-0.4-0.2-0.6c-0.2-0.2-0.4-0.3-0.7-0.3h-4.3l0.2-0.9h6.4
		c0.6,0,1,0.2,1.4,0.5c0.3,0.3,0.5,0.7,0.3,1.2L76.5,18.8z M73.5,18h-2.1c-0.1,0-0.3,0-0.4,0.1s-0.3,0.1-0.4,0.2
		c-0.1,0.1-0.2,0.2-0.3,0.3c-0.1,0.1-0.1,0.2-0.2,0.3c-0.1,0.2,0,0.4,0.2,0.6c0.2,0.2,0.4,0.3,0.7,0.3H72c0.3,0,0.6-0.1,0.8-0.3
		c0.3-0.2,0.4-0.4,0.5-0.6L73.5,18z"/>
	<path class="st0" d="M83.7,17.1l0.2-0.8h-1.1c-0.1,0-0.3,0-0.4,0.1c-0.1,0-0.3,0.1-0.4,0.2s-0.2,0.2-0.3,0.3
		c-0.1,0.1-0.1,0.2-0.2,0.3l-0.9,3.4h-3.2l0.9-3.4c0.1-0.4,0.4-0.8,1-1.2c0.5-0.4,1.1-0.5,1.6-0.5h6.4l-0.5,1.7H83.7z"/>
	<path class="st0" d="M90.5,18.8c0,0.2,0,0.4,0.2,0.6c0.2,0.2,0.4,0.3,0.7,0.3h4.3l-0.2,0.8H89c-0.6,0-1-0.2-1.4-0.5
		s-0.5-0.7-0.3-1.2l0.5-1.7c0.1-0.4,0.4-0.8,1-1.2c0.5-0.4,1.1-0.5,1.6-0.5h5.3c0.6,0,1,0.2,1.4,0.5c0.3,0.3,0.5,0.7,0.3,1.2
		l-0.5,1.7H90.5z M94.2,17.1c0-0.1,0-0.2,0-0.3c0-0.1-0.1-0.2-0.2-0.3c-0.1-0.1-0.2-0.1-0.3-0.2c-0.1,0-0.2-0.1-0.4-0.1h-1.1
		c-0.1,0-0.3,0-0.4,0.1c-0.1,0-0.3,0.1-0.4,0.2s-0.2,0.2-0.3,0.3C91,16.9,91,17,91,17.1L90.7,18h3.2L94.2,17.1z"/>
	<path class="st0" d="M107.7,19.3c-0.1,0.4-0.4,0.8-1,1c-0.4,0.2-0.9,0.3-1.5,0.3h-7.5l0.2-0.8h5.9c0.1,0,0.3,0,0.4-0.1
		c0.1-0.1,0.2-0.2,0.2-0.3c0.1-0.2-0.5-0.4-1.5-0.6c-0.8-0.1-1.4-0.2-1.9-0.3c-0.5-0.1-0.8-0.2-1.1-0.3c-1-0.3-1.5-0.8-1.3-1.4
		c0.1-0.4,0.4-0.8,1-1c0.4-0.2,1-0.3,1.5-0.3h7.5l-0.2,0.9h-5.9c-0.1,0-0.3,0-0.4,0.1c-0.1,0.1-0.2,0.2-0.2,0.3
		c-0.1,0.2,0.4,0.4,1.5,0.6c0.8,0.1,1.4,0.2,1.9,0.3s0.8,0.2,1.1,0.3C107.5,18.2,107.9,18.7,107.7,19.3z"/>
	<path class="st0" d="M65.8,1.3l0-0.2l4-1.1l0.8,0.8L65.8,1.3z M70.4,6.8c-0.1,0.5-0.4,0.9-1,1.2c-0.5,0.3-1.1,0.5-1.6,0.5h-5.4
		c-0.6,0-1-0.2-1.4-0.5s-0.5-0.7-0.3-1.2l0.9-3.4c0.1-0.4,0.4-0.8,1-1.2c0.5-0.3,1.1-0.5,1.6-0.5h5.3c0.6,0,1,0.2,1.4,0.5
		c0.3,0.4,0.5,0.8,0.3,1.2L70.4,6.8z M68.1,3.4c0-0.1,0-0.2,0-0.3S68,2.9,68,2.8c-0.1-0.1-0.2-0.1-0.3-0.2c-0.1-0.1-0.2-0.1-0.4-0.1
		h-1.1c-0.1,0-0.3,0-0.4,0.1c-0.1,0-0.3,0.1-0.4,0.2c-0.1,0.1-0.2,0.2-0.3,0.3c-0.1,0.1-0.1,0.2-0.2,0.3L64,6.8
		c-0.1,0.2,0,0.4,0.2,0.6c0.2,0.2,0.4,0.3,0.7,0.3h1.1c0.3,0,0.6-0.1,0.8-0.3c0.3-0.2,0.4-0.4,0.5-0.6L68.1,3.4z"/>
	<polygon class="st0" points="71.3,8.6 73.1,1.7 76.3,1.7 74.5,8.6 	"/>
	<path class="st0" d="M79.5,6.8c0,0.2,0,0.4,0.2,0.6c0.2,0.2,0.4,0.3,0.7,0.3h4.3l-0.2,0.8H78c-0.6,0-1-0.2-1.4-0.5
		s-0.5-0.7-0.3-1.2l0.5-1.7c0.1-0.4,0.4-0.8,1-1.2c0.5-0.4,1.1-0.5,1.6-0.5h5.3c0.6,0,1,0.2,1.4,0.5c0.3,0.3,0.5,0.7,0.3,1.2L86,6.8
		H79.5z M83.2,5.1c0-0.1,0-0.2,0-0.3c0-0.1-0.1-0.2-0.2-0.3c-0.1-0.1-0.2-0.1-0.3-0.2c-0.1,0-0.2-0.1-0.4-0.1h-1.1
		c-0.1,0-0.3,0-0.4,0.1c-0.1,0-0.3,0.1-0.4,0.2s-0.2,0.2-0.3,0.3C80.1,4.9,80,5,80,5.1L79.8,6H83L83.2,5.1z"/>
	<path class="st0" d="M96.9,6.8c-0.1,0.5-0.4,0.9-1,1.2c-0.5,0.3-1.1,0.5-1.6,0.5h-5.4c-0.6,0-1-0.2-1.4-0.5s-0.5-0.7-0.3-1.2
		l0.5-1.7c0.1-0.4,0.4-0.8,1-1.2c0.5-0.4,1.1-0.5,1.6-0.5h5.3c0.6,0,1,0.2,1.4,0.5c0.3,0.3,0.5,0.7,0.3,1.2L96.9,6.8z M94.1,5.1
		c0-0.1,0-0.2,0-0.3c0-0.1-0.1-0.2-0.2-0.3c-0.1-0.1-0.2-0.1-0.3-0.2c-0.1,0-0.2-0.1-0.4-0.1h-1.1c-0.1,0-0.3,0-0.4,0.1
		c-0.1,0-0.3,0.1-0.4,0.2s-0.2,0.2-0.3,0.3C91,4.9,90.9,5,90.9,5.1l-0.5,1.7c-0.1,0.2,0,0.4,0.2,0.6c0.2,0.2,0.4,0.3,0.7,0.3h1.1
		c0.3,0,0.6-0.1,0.8-0.3c0.3-0.2,0.4-0.4,0.5-0.6L94.1,5.1z"/>
	<path class="st0" d="M107.7,7.3c-0.1,0.4-0.4,0.8-1,1c-0.4,0.2-0.9,0.3-1.5,0.3h-7.5L98,7.7h5.9c0.1,0,0.3,0,0.4-0.1
		c0.1-0.1,0.2-0.2,0.2-0.3c0.1-0.2-0.5-0.4-1.5-0.6c-0.8-0.1-1.4-0.2-1.9-0.3c-0.5-0.1-0.8-0.2-1.1-0.3c-1-0.3-1.5-0.8-1.3-1.4
		c0.1-0.4,0.4-0.8,1-1c0.4-0.2,1-0.3,1.5-0.3h7.5l-0.2,0.9h-5.9c-0.1,0-0.3,0-0.4,0.1c-0.1,0.1-0.2,0.2-0.2,0.3
		c-0.1,0.2,0.4,0.4,1.5,0.6c0.8,0.1,1.4,0.2,1.9,0.3s0.8,0.2,1.1,0.3C107.5,6.2,107.9,6.7,107.7,7.3z"/>
</g>
</svg>
