<!-- Generator: Adobe Illustrator 19.1.0, SVG Export Plug-In  -->
<svg version="1.1"
	 xmlns="http://www.w3.org/2000/svg" xmlns:xlink="http://www.w3.org/1999/xlink" xmlns:a="http://ns.adobe.com/AdobeSVGViewerExtensions/3.0/"
	 x="0px" y="0px" width="59px" height="18.8px" viewBox="0 0 59 18.8" style="enable-background:new 0 0 59 18.8;"
	 xml:space="preserve">
<style type="text/css">
	.st0{fill-rule:evenodd;clip-rule:evenodd;fill:#010101;}
</style>
<defs>
</defs>
<g>
	<path class="st0" d="M1.7,18.8c-0.6,0-1-0.2-1.4-0.5s-0.5-0.7-0.3-1.2l0.5-1.7c0.1-0.4,0.4-0.8,1-1.2c0.5-0.4,1.1-0.5,1.6-0.5h6.4
		l-0.2,0.9H5c-0.1,0-0.3,0-0.4,0.1c-0.1,0-0.3,0.1-0.4,0.2S4,15,3.9,15.1c-0.1,0.1-0.1,0.2-0.2,0.3l-0.5,1.7c-0.1,0.2,0,0.4,0.2,0.6
		C3.6,17.9,3.8,18,4.1,18h4.3l-0.2,0.8H1.7z"/>
	<path class="st0" d="M19.1,17.1c-0.1,0.5-0.4,0.9-1,1.2s-1.1,0.5-1.6,0.5h-5.3c-0.6,0-1-0.2-1.4-0.5c-0.3-0.3-0.5-0.7-0.3-1.2
		c0.1-0.4,0.4-0.8,1-1.2c0.5-0.4,1.1-0.5,1.6-0.5h4.3c0-0.2,0-0.4-0.2-0.6c-0.2-0.2-0.4-0.3-0.7-0.3h-4.3l0.2-0.9h6.4
		c0.6,0,1,0.2,1.4,0.5c0.3,0.3,0.5,0.7,0.3,1.2L19.1,17.1z M16.1,16.3H14c-0.1,0-0.3,0-0.4,0.1s-0.3,0.1-0.4,0.2
		c-0.1,0.1-0.2,0.2-0.3,0.3c-0.1,0.1-0.1,0.2-0.2,0.3c-0.1,0.2,0,0.4,0.2,0.6c0.2,0.2,0.4,0.3,0.7,0.3h1.1c0.3,0,0.6-0.1,0.8-0.3
		c0.3-0.2,0.4-0.4,0.5-0.6L16.1,16.3z"/>
	<path class="st0" d="M26.3,15.4l0.2-0.8h-1.1c-0.1,0-0.3,0-0.4,0.1c-0.1,0-0.3,0.1-0.4,0.2s-0.2,0.2-0.3,0.3
		c-0.1,0.1-0.1,0.2-0.2,0.3l-0.9,3.4H20l0.9-3.4c0.1-0.4,0.4-0.8,1-1.2c0.5-0.4,1.1-0.5,1.6-0.5H30l-0.5,1.7H26.3z"/>
	<path class="st0" d="M31.6,18.8c-0.6,0-1-0.2-1.4-0.5s-0.5-0.7-0.3-1.2l1.4-5.1h3.2L34,13.7h3.2L37,14.6h-3.2l-0.7,2.6
		c-0.1,0.2,0,0.4,0.2,0.6c0.2,0.2,0.4,0.3,0.7,0.3h3.2L37,18.8H31.6z"/>
	<path class="st0" d="M46.1,12.9c-0.5,0.2-0.9,0.4-1.2,0.4c-0.2,0-0.6-0.1-1-0.2c-0.4-0.1-0.7-0.2-1-0.2c-0.3,0-0.7,0.1-1.2,0.4
		l0.2-0.9c0.4-0.2,0.8-0.3,1.2-0.3c0.2,0,0.6,0.1,1,0.2c0.4,0.1,0.8,0.2,1,0.2c0.3,0,0.7-0.1,1.2-0.4L46.1,12.9z M47.7,17.1
		c-0.1,0.5-0.4,0.9-1,1.2c-0.5,0.3-1.1,0.5-1.6,0.5h-5.4c-0.6,0-1-0.2-1.4-0.5s-0.5-0.7-0.3-1.2c0.1-0.4,0.4-0.8,1-1.2
		c0.5-0.4,1.1-0.5,1.6-0.5h4.3c0-0.2,0-0.4-0.2-0.6c-0.1-0.2-0.4-0.3-0.7-0.3h-4.3l0.2-0.9h6.4c0.6,0,1,0.2,1.3,0.5
		c0.3,0.3,0.5,0.7,0.3,1.2L47.7,17.1z M44.7,16.3h-2.1c-0.1,0-0.3,0-0.4,0.1s-0.3,0.1-0.4,0.2s-0.2,0.2-0.3,0.3
		c-0.1,0.1-0.1,0.2-0.2,0.3c-0.1,0.2,0,0.4,0.2,0.6c0.2,0.2,0.4,0.3,0.7,0.3h1.1c0.3,0,0.6-0.1,0.8-0.3c0.3-0.2,0.4-0.4,0.5-0.6
		L44.7,16.3z"/>
	<path class="st0" d="M58.5,17.1c-0.1,0.5-0.4,0.9-1,1.2c-0.5,0.3-1.1,0.5-1.6,0.5h-5.4c-0.6,0-1-0.2-1.4-0.5s-0.5-0.7-0.3-1.2
		l0.5-1.7c0.1-0.4,0.4-0.8,1-1.2c0.5-0.4,1.1-0.5,1.6-0.5h5.3c0.6,0,1,0.2,1.4,0.5c0.3,0.3,0.5,0.7,0.3,1.2L58.5,17.1z M55.7,15.4
		c0-0.1,0-0.2,0-0.3c0-0.1-0.1-0.2-0.2-0.3c-0.1-0.1-0.2-0.1-0.3-0.2c-0.1,0-0.2-0.1-0.4-0.1h-1.1c-0.1,0-0.3,0-0.4,0.1
		c-0.1,0-0.3,0.1-0.4,0.2s-0.2,0.2-0.3,0.3c-0.1,0.1-0.1,0.2-0.2,0.3l-0.5,1.7c-0.1,0.2,0,0.4,0.2,0.6c0.2,0.2,0.4,0.3,0.7,0.3H54
		c0.3,0,0.6-0.1,0.8-0.3c0.3-0.2,0.4-0.4,0.5-0.6L55.7,15.4z"/>
	<path class="st0" d="M16.4,2.6c-0.1,0.5-0.4,0.9-1,1.2c-0.5,0.3-1.1,0.5-1.6,0.5H9.5L8.9,6.8H5.6L7.5,0H15c0.6,0,1,0.2,1.4,0.5
		c0.3,0.4,0.5,0.8,0.3,1.2L16.4,2.6z M13.5,1.7c0-0.1,0-0.2,0-0.3c0-0.1-0.1-0.2-0.2-0.3C13.2,1,13.1,1,13,0.9
		c-0.1-0.1-0.2-0.1-0.4-0.1h-2.1L9.8,3.4h2.2c0.1,0,0.3,0,0.4-0.1s0.3-0.1,0.4-0.2C12.9,3.1,13,3,13.1,2.9s0.1-0.2,0.2-0.3L13.5,1.7
		z"/>
	<path class="st0" d="M26.2,5.1c-0.1,0.5-0.4,0.9-1,1.2s-1.1,0.5-1.6,0.5h-5.3c-0.6,0-1-0.2-1.4-0.5c-0.3-0.3-0.5-0.7-0.3-1.2
		c0.1-0.4,0.4-0.8,1-1.2c0.5-0.4,1.1-0.5,1.6-0.5h4.3c0-0.2,0-0.4-0.2-0.6c-0.2-0.2-0.4-0.3-0.7-0.3h-4.3l0.2-0.9H25
		c0.6,0,1,0.2,1.4,0.5c0.3,0.3,0.5,0.7,0.3,1.2L26.2,5.1z M23.2,4.3h-2.1c-0.1,0-0.3,0-0.4,0.1s-0.3,0.1-0.4,0.2
		c-0.1,0.1-0.2,0.2-0.3,0.3c-0.1,0.1-0.1,0.2-0.2,0.3c-0.1,0.2,0,0.4,0.2,0.6C20.1,5.9,20.3,6,20.6,6h1.1c0.3,0,0.6-0.1,0.8-0.3
		c0.3-0.2,0.4-0.4,0.5-0.6L23.2,4.3z"/>
	<path class="st0" d="M37.2,5.1c-0.1,0.5-0.4,0.9-1,1.2c-0.5,0.3-1.1,0.5-1.6,0.5h-4.3l-0.5,1.7h-3.2l1.8-6.8H36
		c0.6,0,1,0.2,1.4,0.5c0.3,0.4,0.4,0.8,0.3,1.2L37.2,5.1z M34.5,3.4c0-0.1,0-0.2,0-0.3c0-0.1-0.1-0.2-0.2-0.3
		c-0.1-0.1-0.2-0.1-0.3-0.2c-0.1,0-0.2-0.1-0.4-0.1h-2.2L30.6,6h2.2c0.3,0,0.6-0.1,0.8-0.3C33.8,5.6,34,5.4,34,5.1L34.5,3.4z"/>
	<path class="st0" d="M41.4,5.1c0,0.2,0,0.4,0.2,0.6C41.8,5.9,42,6,42.3,6h4.3l-0.2,0.8h-6.4c-0.6,0-1-0.2-1.4-0.5s-0.5-0.7-0.3-1.2
		l0.5-1.7c0.1-0.4,0.4-0.8,1-1.2c0.5-0.4,1.1-0.5,1.6-0.5h5.3c0.6,0,1,0.2,1.4,0.5c0.3,0.3,0.5,0.7,0.3,1.2l-0.5,1.7H41.4z
		 M45.1,3.4c0-0.1,0-0.2,0-0.3c0-0.1-0.1-0.2-0.2-0.3c-0.1-0.1-0.2-0.1-0.3-0.2c-0.1,0-0.2-0.1-0.4-0.1h-1.1c-0.1,0-0.3,0-0.4,0.1
		c-0.1,0-0.3,0.1-0.4,0.2S42.2,3,42.1,3.1c-0.1,0.1-0.1,0.2-0.2,0.3l-0.2,0.9h3.2L45.1,3.4z"/>
	<polygon class="st0" points="48.7,6.8 50.6,0 53.8,0 51.9,6.8 	"/>
</g>
</svg>
