<!-- Generator: Adobe Illustrator 19.1.0, SVG Export Plug-In  -->
<svg version="1.1"
	 xmlns="http://www.w3.org/2000/svg" xmlns:xlink="http://www.w3.org/1999/xlink" xmlns:a="http://ns.adobe.com/AdobeSVGViewerExtensions/3.0/"
	 x="0px" y="0px" width="66.4px" height="81.2px" viewBox="0 0 66.4 81.2" style="enable-background:new 0 0 66.4 81.2;"
	 xml:space="preserve">
<style type="text/css">
	.st0{fill-rule:evenodd;clip-rule:evenodd;fill:#010101;}
	.st1{fill:none;stroke:#010101;stroke-width:2.3432;stroke-miterlimit:3.8636;}
	.st2{fill-rule:evenodd;clip-rule:evenodd;fill:#4C4848;}
	.st3{fill:none;stroke:#010101;stroke-width:4.6864;stroke-miterlimit:3.8636;}
</style>
<defs>
</defs>
<g>
	<path class="st0" d="M9.8,3C8.8,4.6,8,5.5,8,7.4c0,5.5-2,4.7-2,10.3c0,5,4.5,8.9,4.5,14c0,5.6-1.4,5.8-1.4,11.4
		c0,4.4,2.7,7.3-0.8,10c-1.7,1.3-4.2,1.7-4.2,4c0,3.3,3.1,4.5,3.1,7.8c0,3.6-3.7,4.8-3.7,8.4c0,0.9,0,1.5,0,2.4L17.7,80
		c0,0,19.7-1,33.4-3.3c4.8-0.8,13.6-0.8,13.6-5.7c0-9.4-0.4-5.7-0.4-15.2c0-3.5-5.3-11.9-2.8-14.4c0-2,0-3.2,0-5.2
		c0-4.9-1.3-7.3-1.3-12.2c0-4.4,3.1-5.7,3.1-10.2c0-2.3,2-3.1,2-5.5c0-1.3-3.3-2.1-3.3-3.4c0-3.1,0.3-2.9-2.7-2.9
		c-3.8,0-6.4,0.2-10.2,0.2c-2.5,0-3.9-0.5-6.4-0.5c-5,0-7.5,3.4-12.5,3.4c-3.2,0-4.4-2.5-7.6-2.9C17.8,1.8,14.3,2.3,9.8,3z"/>
	<path class="st1" d="M9.8,3C8.8,4.6,8,5.5,8,7.4c0,5.5-2,4.7-2,10.3c0,5,4.5,8.9,4.5,14c0,5.6-1.4,5.8-1.4,11.4
		c0,4.4,2.7,7.3-0.8,10c-1.7,1.3-4.2,1.7-4.2,4c0,3.3,3.1,4.5,3.1,7.8c0,3.6-3.7,4.8-3.7,8.4c0,0.9,0,1.5,0,2.4L17.7,80
		c0,0,19.7-1,33.4-3.3c4.8-0.8,13.6-0.8,13.6-5.7c0-9.4-0.4-5.7-0.4-15.2c0-3.5-5.3-11.9-2.8-14.4c0-2,0-3.2,0-5.2
		c0-4.9-1.3-7.3-1.3-12.2c0-4.4,3.1-5.7,3.1-10.2c0-2.3,2-3.1,2-5.5c0-1.3-3.3-2.1-3.3-3.4c0-3.1,0.3-2.9-2.7-2.9
		c-3.8,0-6.4,0.2-10.2,0.2c-2.5,0-3.9-0.5-6.4-0.5c-5,0-7.5,3.4-12.5,3.4c-3.2,0-4.4-2.5-7.6-2.9C17.8,1.8,14.3,2.3,9.8,3z"/>
	<path class="st2" d="M7.4,2.4C6.4,4,5.6,5,5.6,6.8c0,5.5-2,4.7-2,10.3c0,5,4.5,8.9,4.5,14c0,5.6-1.4,5.8-1.4,11.4
		c0,4.4,2.7,7.3-0.8,10c-1.7,1.3-4.2,1.7-4.2,4c0,3.3,3.1,4.5,3.1,7.8c0,3.6-3.7,4.8-3.7,8.4c0,0.9,0,1.5,0,2.4l14.2,4.3
		c0,0,19.7-1,33.4-3.3c4.8-0.8,13.6-0.8,13.6-5.7c0-9.4-0.4-5.7-0.4-15.2c0-3.5-5.3-11.9-2.8-14.4c0-2,0-3.2,0-5.2
		c0-4.9-1.3-7.3-1.3-12.2c0-4.4,3.1-5.7,3.1-10.2c0-2.3,2-3.1,2-5.5c0-1.3-3.3-2.1-3.3-3.4c0-3.1,0.3-2.9-2.7-2.9
		c-3.8,0-6.4,0.2-10.2,0.2c-2.5,0-3.9-0.5-6.4-0.5c-5,0-7.5,3.4-12.5,3.4c-3.2,0-4.4-2.5-7.6-2.9C15.4,1.2,12,1.7,7.4,2.4z"/>
	<path class="st1" d="M7.4,2.4C6.4,4,5.6,5,5.6,6.8c0,5.5-2,4.7-2,10.3c0,5,4.5,8.9,4.5,14c0,5.6-1.4,5.8-1.4,11.4
		c0,4.4,2.7,7.3-0.8,10c-1.7,1.3-4.2,1.7-4.2,4c0,3.3,3.1,4.5,3.1,7.8c0,3.6-3.7,4.8-3.7,8.4c0,0.9,0,1.5,0,2.4l14.2,4.3
		c0,0,19.7-1,33.4-3.3c4.8-0.8,13.6-0.8,13.6-5.7c0-9.4-0.4-5.7-0.4-15.2c0-3.5-5.3-11.9-2.8-14.4c0-2,0-3.2,0-5.2
		c0-4.9-1.3-7.3-1.3-12.2c0-4.4,3.1-5.7,3.1-10.2c0-2.3,2-3.1,2-5.5c0-1.3-3.3-2.1-3.3-3.4c0-3.1,0.3-2.9-2.7-2.9
		c-3.8,0-6.4,0.2-10.2,0.2c-2.5,0-3.9-0.5-6.4-0.5c-5,0-7.5,3.4-12.5,3.4c-3.2,0-4.4-2.5-7.6-2.9C15.4,1.2,12,1.7,7.4,2.4z"/>
	<path class="st3" d="M22.1,23.7c3.9,3.7,7.3,6.2,7.3,11.5c0,3.8-4,4.9-4.4,8.7l1.5,0.5"/>
	<path class="st3" d="M36,36.1c2.4,3.2,3.9,5.4,3.9,9.3c0,4.3-4.9,5.2-6.2,9.3l1.9,1"/>
	<path class="st3" d="M46.7,23.7c2.9,1.6,4,4.2,4,7.6c0,2.5-4,2.8-4,5.3c0,2.1,1.8,3.4,3.5,4.3"/>
</g>
</svg>
