<!-- Generator: Adobe Illustrator 19.1.0, SVG Export Plug-In  -->
<svg version="1.1"
	 xmlns="http://www.w3.org/2000/svg" xmlns:xlink="http://www.w3.org/1999/xlink" xmlns:a="http://ns.adobe.com/AdobeSVGViewerExtensions/3.0/"
	 x="0px" y="0px" width="46.3px" height="8.6px" viewBox="0 0 46.3 8.6" style="enable-background:new 0 0 46.3 8.6;"
	 xml:space="preserve">
<style type="text/css">
	.st0{fill-rule:evenodd;clip-rule:evenodd;fill:#010101;}
</style>
<defs>
</defs>
<g>
	<path class="st0" d="M10.1,6.8c-0.1,0.5-0.4,0.9-1,1.2C8.6,8.4,8.1,8.6,7.5,8.6H0l1.8-6.8h3.2l-1.6,6h2.1c0.3,0,0.6-0.1,0.8-0.3
		c0.3-0.2,0.4-0.4,0.5-0.6l1.4-5.1h3.2L10.1,6.8z"/>
	<path class="st0" d="M16.2,1.3c-0.1,0.3-0.3,0.6-0.7,0.9c-0.4,0.3-0.8,0.4-1.2,0.4c-0.4,0-0.8-0.1-1-0.4c-0.3-0.3-0.3-0.6-0.3-0.9
		C13,1,13.3,0.7,13.7,0.4C14.1,0.1,14.5,0,14.9,0c0.4,0,0.7,0.1,1,0.4C16.2,0.7,16.3,0.9,16.2,1.3z M11,8.6l1.4-5.2h3.2l-1.4,5.2H11
		z"/>
	<path class="st0" d="M17.4,8.6c-0.6,0-1-0.2-1.4-0.5c-0.3-0.3-0.5-0.7-0.3-1.2l0.5-1.7c0.1-0.4,0.4-0.8,1-1.2
		c0.5-0.4,1.1-0.5,1.6-0.5h4.3l0.5-1.7h3.2l-1.8,6.8H17.4z M22.8,4.3h-2.2c-0.1,0-0.3,0-0.4,0.1c-0.1,0-0.3,0.1-0.4,0.2
		c-0.1,0.1-0.2,0.2-0.3,0.3c-0.1,0.1-0.1,0.2-0.2,0.3l-0.5,1.7c-0.1,0.2,0,0.4,0.2,0.6c0.2,0.2,0.4,0.3,0.7,0.3h2.2L22.8,4.3z"/>
	<path class="st0" d="M32.6,5.1l0.2-0.8h-1.1c-0.1,0-0.3,0-0.4,0.1c-0.1,0-0.3,0.1-0.4,0.2s-0.2,0.2-0.3,0.3
		c-0.1,0.1-0.1,0.2-0.2,0.3l-0.9,3.4h-3.2l0.9-3.4c0.1-0.4,0.4-0.8,1-1.2c0.5-0.4,1.1-0.5,1.6-0.5h6.4l-0.5,1.7H32.6z"/>
	<path class="st0" d="M45.8,6.8c-0.1,0.5-0.4,0.9-1,1.2c-0.5,0.3-1.1,0.5-1.6,0.5h-5.4c-0.6,0-1-0.2-1.4-0.5s-0.5-0.7-0.3-1.2
		l0.5-1.7c0.1-0.4,0.4-0.8,1-1.2c0.5-0.4,1.1-0.5,1.6-0.5h5.3c0.6,0,1,0.2,1.4,0.5c0.3,0.3,0.5,0.7,0.3,1.2L45.8,6.8z M43.1,5.1
		c0-0.1,0-0.2,0-0.3c0-0.1-0.1-0.2-0.2-0.3c-0.1-0.1-0.2-0.1-0.3-0.2c-0.1,0-0.2-0.1-0.4-0.1h-1.1c-0.1,0-0.3,0-0.4,0.1
		c-0.1,0-0.3,0.1-0.4,0.2S40.1,4.7,40,4.8c-0.1,0.1-0.1,0.2-0.2,0.3l-0.5,1.7c-0.1,0.2,0,0.4,0.2,0.6c0.2,0.2,0.4,0.3,0.7,0.3h1.1
		c0.3,0,0.6-0.1,0.8-0.3c0.3-0.2,0.4-0.4,0.5-0.6L43.1,5.1z"/>
</g>
</svg>
